M48
; DRILL file {KiCad 6.0.0-rc1-unknown-0bceb69~66~ubuntu16.04.1} date Wed 05 Dec 2018 03:47:50 PM EET
; FORMAT={-:-/ absolute / metric / decimal}
; #@! TF.CreationDate,2018-12-05T15:47:50+02:00
; #@! TF.GenerationSoftware,Kicad,Pcbnew,6.0.0-rc1-unknown-0bceb69~66~ubuntu16.04.1
FMAT,2
METRIC
T1C0.400
%
G90
G05
T1
X88.5Y-38.1
X88.5Y-39.1
X88.5Y-40.1
X88.5Y-41.1
X88.5Y-42.0
X88.5Y-43.0
X88.5Y-44.1
X88.5Y-45.1
X89.2Y-57.7
X89.5Y-37.7
X90.15Y-44.0
X90.2Y-45.9
X90.25Y-55.75
X90.5Y-37.7
X91.05Y-48.75
X91.5Y-22.5
X91.5Y-37.7
X91.55Y-39.7
X91.9Y-54.2
X92.71Y-50.038
X93.1Y-34.7
X93.65Y-39.54
X93.7Y-37.3
X95.2Y-37.4
X95.295Y-41.9
X95.3Y-39.0
X95.46Y-44.27
X95.5Y-50.1
X96.204Y-57.246
X96.3Y-54.2
X97.3Y-42.4
X98.0Y-45.2
X99.1Y-50.5
X99.5Y-39.0
X99.8Y-51.5
X100.0Y-48.2
X100.745Y-40.2
X100.75Y-39.5
X100.8Y-42.0
X100.9Y-43.8
T0
M30
