G04 #@! TF.GenerationSoftware,KiCad,Pcbnew,6.0.0-rc1-unknown-0bceb69~66~ubuntu16.04.1*
G04 #@! TF.CreationDate,2018-12-05T15:47:40+02:00
G04 #@! TF.ProjectId,i2c-moist-sensor,6932632d-6d6f-4697-9374-2d73656e736f,rev?*
G04 #@! TF.SameCoordinates,Original*
G04 #@! TF.FileFunction,Legend,Top*
G04 #@! TF.FilePolarity,Positive*
%FSLAX46Y46*%
G04 Gerber Fmt 4.6, Leading zero omitted, Abs format (unit mm)*
G04 Created by KiCad (PCBNEW 6.0.0-rc1-unknown-0bceb69~66~ubuntu16.04.1) date Wed 05 Dec 2018 03:47:40 PM EET*
%MOMM*%
%LPD*%
G04 APERTURE LIST*
%ADD10C,1.000000*%
%ADD11C,0.300000*%
%ADD12C,0.120000*%
%ADD13C,0.150000*%
%ADD14C,0.075000*%
%ADD15C,0.002540*%
%ADD16C,0.010000*%
%ADD17C,0.110000*%
%ADD18C,0.100000*%
%ADD19C,0.875000*%
%ADD20R,1.200000X1.400000*%
%ADD21R,0.600000X0.700000*%
%ADD22R,0.800000X0.750000*%
%ADD23R,0.500000X0.900000*%
%ADD24R,1.500000X0.600000*%
G04 APERTURE END LIST*
D10*
X87000000Y-91000000D02*
X103000000Y-91000000D01*
D11*
X87542857Y-94832142D02*
X87757142Y-94903571D01*
X88114285Y-94903571D01*
X88257142Y-94832142D01*
X88328571Y-94760714D01*
X88400000Y-94617857D01*
X88400000Y-94475000D01*
X88328571Y-94332142D01*
X88257142Y-94260714D01*
X88114285Y-94189285D01*
X87828571Y-94117857D01*
X87685714Y-94046428D01*
X87614285Y-93975000D01*
X87542857Y-93832142D01*
X87542857Y-93689285D01*
X87614285Y-93546428D01*
X87685714Y-93475000D01*
X87828571Y-93403571D01*
X88185714Y-93403571D01*
X88400000Y-93475000D01*
X89257142Y-94903571D02*
X89114285Y-94832142D01*
X89042857Y-94760714D01*
X88971428Y-94617857D01*
X88971428Y-94189285D01*
X89042857Y-94046428D01*
X89114285Y-93975000D01*
X89257142Y-93903571D01*
X89471428Y-93903571D01*
X89614285Y-93975000D01*
X89685714Y-94046428D01*
X89757142Y-94189285D01*
X89757142Y-94617857D01*
X89685714Y-94760714D01*
X89614285Y-94832142D01*
X89471428Y-94903571D01*
X89257142Y-94903571D01*
X90400000Y-94903571D02*
X90400000Y-93903571D01*
X90400000Y-93403571D02*
X90328571Y-93475000D01*
X90400000Y-93546428D01*
X90471428Y-93475000D01*
X90400000Y-93403571D01*
X90400000Y-93546428D01*
X91328571Y-94903571D02*
X91185714Y-94832142D01*
X91114285Y-94689285D01*
X91114285Y-93403571D01*
X93042857Y-94903571D02*
X93042857Y-93903571D01*
X93042857Y-94046428D02*
X93114285Y-93975000D01*
X93257142Y-93903571D01*
X93471428Y-93903571D01*
X93614285Y-93975000D01*
X93685714Y-94117857D01*
X93685714Y-94903571D01*
X93685714Y-94117857D02*
X93757142Y-93975000D01*
X93900000Y-93903571D01*
X94114285Y-93903571D01*
X94257142Y-93975000D01*
X94328571Y-94117857D01*
X94328571Y-94903571D01*
X95257142Y-94903571D02*
X95114285Y-94832142D01*
X95042857Y-94760714D01*
X94971428Y-94617857D01*
X94971428Y-94189285D01*
X95042857Y-94046428D01*
X95114285Y-93975000D01*
X95257142Y-93903571D01*
X95471428Y-93903571D01*
X95614285Y-93975000D01*
X95685714Y-94046428D01*
X95757142Y-94189285D01*
X95757142Y-94617857D01*
X95685714Y-94760714D01*
X95614285Y-94832142D01*
X95471428Y-94903571D01*
X95257142Y-94903571D01*
X96400000Y-94903571D02*
X96400000Y-93903571D01*
X96400000Y-93403571D02*
X96328571Y-93475000D01*
X96400000Y-93546428D01*
X96471428Y-93475000D01*
X96400000Y-93403571D01*
X96400000Y-93546428D01*
X97042857Y-94832142D02*
X97185714Y-94903571D01*
X97471428Y-94903571D01*
X97614285Y-94832142D01*
X97685714Y-94689285D01*
X97685714Y-94617857D01*
X97614285Y-94475000D01*
X97471428Y-94403571D01*
X97257142Y-94403571D01*
X97114285Y-94332142D01*
X97042857Y-94189285D01*
X97042857Y-94117857D01*
X97114285Y-93975000D01*
X97257142Y-93903571D01*
X97471428Y-93903571D01*
X97614285Y-93975000D01*
X98114285Y-93903571D02*
X98685714Y-93903571D01*
X98328571Y-93403571D02*
X98328571Y-94689285D01*
X98400000Y-94832142D01*
X98542857Y-94903571D01*
X98685714Y-94903571D01*
X99828571Y-93903571D02*
X99828571Y-94903571D01*
X99185714Y-93903571D02*
X99185714Y-94689285D01*
X99257142Y-94832142D01*
X99400000Y-94903571D01*
X99614285Y-94903571D01*
X99757142Y-94832142D01*
X99828571Y-94760714D01*
X100542857Y-94903571D02*
X100542857Y-93903571D01*
X100542857Y-94189285D02*
X100614285Y-94046428D01*
X100685714Y-93975000D01*
X100828571Y-93903571D01*
X100971428Y-93903571D01*
X102042857Y-94832142D02*
X101900000Y-94903571D01*
X101614285Y-94903571D01*
X101471428Y-94832142D01*
X101400000Y-94689285D01*
X101400000Y-94117857D01*
X101471428Y-93975000D01*
X101614285Y-93903571D01*
X101900000Y-93903571D01*
X102042857Y-93975000D01*
X102114285Y-94117857D01*
X102114285Y-94260714D01*
X101400000Y-94403571D01*
X88007142Y-97382142D02*
X88150000Y-97453571D01*
X88435714Y-97453571D01*
X88578571Y-97382142D01*
X88650000Y-97239285D01*
X88650000Y-97167857D01*
X88578571Y-97025000D01*
X88435714Y-96953571D01*
X88221428Y-96953571D01*
X88078571Y-96882142D01*
X88007142Y-96739285D01*
X88007142Y-96667857D01*
X88078571Y-96525000D01*
X88221428Y-96453571D01*
X88435714Y-96453571D01*
X88578571Y-96525000D01*
X89864285Y-97382142D02*
X89721428Y-97453571D01*
X89435714Y-97453571D01*
X89292857Y-97382142D01*
X89221428Y-97239285D01*
X89221428Y-96667857D01*
X89292857Y-96525000D01*
X89435714Y-96453571D01*
X89721428Y-96453571D01*
X89864285Y-96525000D01*
X89935714Y-96667857D01*
X89935714Y-96810714D01*
X89221428Y-96953571D01*
X90578571Y-96453571D02*
X90578571Y-97453571D01*
X90578571Y-96596428D02*
X90650000Y-96525000D01*
X90792857Y-96453571D01*
X91007142Y-96453571D01*
X91150000Y-96525000D01*
X91221428Y-96667857D01*
X91221428Y-97453571D01*
X91864285Y-97382142D02*
X92007142Y-97453571D01*
X92292857Y-97453571D01*
X92435714Y-97382142D01*
X92507142Y-97239285D01*
X92507142Y-97167857D01*
X92435714Y-97025000D01*
X92292857Y-96953571D01*
X92078571Y-96953571D01*
X91935714Y-96882142D01*
X91864285Y-96739285D01*
X91864285Y-96667857D01*
X91935714Y-96525000D01*
X92078571Y-96453571D01*
X92292857Y-96453571D01*
X92435714Y-96525000D01*
X93364285Y-97453571D02*
X93221428Y-97382142D01*
X93150000Y-97310714D01*
X93078571Y-97167857D01*
X93078571Y-96739285D01*
X93150000Y-96596428D01*
X93221428Y-96525000D01*
X93364285Y-96453571D01*
X93578571Y-96453571D01*
X93721428Y-96525000D01*
X93792857Y-96596428D01*
X93864285Y-96739285D01*
X93864285Y-97167857D01*
X93792857Y-97310714D01*
X93721428Y-97382142D01*
X93578571Y-97453571D01*
X93364285Y-97453571D01*
X94507142Y-97453571D02*
X94507142Y-96453571D01*
X94507142Y-96739285D02*
X94578571Y-96596428D01*
X94650000Y-96525000D01*
X94792857Y-96453571D01*
X94935714Y-96453571D01*
X96435714Y-96453571D02*
X96792857Y-97453571D01*
X97150000Y-96453571D01*
X97650000Y-96096428D02*
X97721428Y-96025000D01*
X97864285Y-95953571D01*
X98221428Y-95953571D01*
X98364285Y-96025000D01*
X98435714Y-96096428D01*
X98507142Y-96239285D01*
X98507142Y-96382142D01*
X98435714Y-96596428D01*
X97578571Y-97453571D01*
X98507142Y-97453571D01*
X99150000Y-97310714D02*
X99221428Y-97382142D01*
X99150000Y-97453571D01*
X99078571Y-97382142D01*
X99150000Y-97310714D01*
X99150000Y-97453571D01*
X99721428Y-95953571D02*
X100721428Y-95953571D01*
X100078571Y-97453571D01*
X101292857Y-97310714D02*
X101364285Y-97382142D01*
X101292857Y-97453571D01*
X101221428Y-97382142D01*
X101292857Y-97310714D01*
X101292857Y-97453571D01*
X102221428Y-96596428D02*
X102078571Y-96525000D01*
X102007142Y-96453571D01*
X101935714Y-96310714D01*
X101935714Y-96239285D01*
X102007142Y-96096428D01*
X102078571Y-96025000D01*
X102221428Y-95953571D01*
X102507142Y-95953571D01*
X102650000Y-96025000D01*
X102721428Y-96096428D01*
X102792857Y-96239285D01*
X102792857Y-96310714D01*
X102721428Y-96453571D01*
X102650000Y-96525000D01*
X102507142Y-96596428D01*
X102221428Y-96596428D01*
X102078571Y-96667857D01*
X102007142Y-96739285D01*
X101935714Y-96882142D01*
X101935714Y-97167857D01*
X102007142Y-97310714D01*
X102078571Y-97382142D01*
X102221428Y-97453571D01*
X102507142Y-97453571D01*
X102650000Y-97382142D01*
X102721428Y-97310714D01*
X102792857Y-97167857D01*
X102792857Y-96882142D01*
X102721428Y-96739285D01*
X102650000Y-96667857D01*
X102507142Y-96596428D01*
D12*
G04 #@! TO.C,D3*
X96215000Y-37235000D02*
X98500000Y-37235000D01*
X96215000Y-35765000D02*
X96215000Y-37235000D01*
X98500000Y-35765000D02*
X96215000Y-35765000D01*
G04 #@! TO.C,X1*
X89300000Y-43800000D02*
X92600000Y-43800000D01*
X92600000Y-43800000D02*
X92600000Y-39800000D01*
D13*
G04 #@! TO.C,D2*
X95254000Y-56892000D02*
X95254000Y-56392000D01*
X95754000Y-56892000D02*
X95754000Y-56392000D01*
X95754000Y-56392000D02*
X95254000Y-56642000D01*
X95254000Y-56642000D02*
X95754000Y-56892000D01*
X95904000Y-56042000D02*
X94354000Y-56042000D01*
X95904000Y-57242000D02*
X94354000Y-57242000D01*
G04 #@! TO.C,D1*
X92460000Y-56892000D02*
X92460000Y-56392000D01*
X92960000Y-56892000D02*
X92460000Y-56642000D01*
X92460000Y-56642000D02*
X92960000Y-56392000D01*
X92960000Y-56392000D02*
X92960000Y-56892000D01*
X93110000Y-56042000D02*
X91560000Y-56042000D01*
X93110000Y-57242000D02*
X91560000Y-57242000D01*
G04 #@! TO.C,C1*
X91300000Y-45300000D02*
X90600000Y-45300000D01*
X90600000Y-44100000D02*
X91300000Y-44100000D01*
G04 #@! TO.C,C2*
X90400000Y-38300000D02*
X91100000Y-38300000D01*
X91100000Y-39500000D02*
X90400000Y-39500000D01*
G04 #@! TO.C,C3*
X94050000Y-37600000D02*
X94750000Y-37600000D01*
X94750000Y-38800000D02*
X94050000Y-38800000D01*
G04 #@! TO.C,C4*
X93000000Y-55750000D02*
X92300000Y-55750000D01*
X92300000Y-54550000D02*
X93000000Y-54550000D01*
G04 #@! TO.C,C5*
X95200000Y-54550000D02*
X95900000Y-54550000D01*
X95900000Y-55750000D02*
X95200000Y-55750000D01*
G04 #@! TO.C,C6*
X94850000Y-35300000D02*
X94150000Y-35300000D01*
X94150000Y-34100000D02*
X94850000Y-34100000D01*
G04 #@! TO.C,R1*
X93950000Y-35625000D02*
X94950000Y-35625000D01*
X94950000Y-36975000D02*
X93950000Y-36975000D01*
G04 #@! TO.C,R2*
X97528000Y-50459000D02*
X96528000Y-50459000D01*
X96528000Y-49109000D02*
X97528000Y-49109000D01*
G04 #@! TO.C,R4*
X90200000Y-57425000D02*
X89200000Y-57425000D01*
X89200000Y-56075000D02*
X90200000Y-56075000D01*
G04 #@! TO.C,R5*
X92210000Y-50887000D02*
X93210000Y-50887000D01*
X93210000Y-52237000D02*
X92210000Y-52237000D01*
G04 #@! TO.C,R6*
X96004000Y-52237000D02*
X95004000Y-52237000D01*
X95004000Y-50887000D02*
X96004000Y-50887000D01*
G04 #@! TO.C,R7*
X93210000Y-54015000D02*
X92210000Y-54015000D01*
X92210000Y-52665000D02*
X93210000Y-52665000D01*
G04 #@! TO.C,R8*
X95004000Y-52665000D02*
X96004000Y-52665000D01*
X96004000Y-54015000D02*
X95004000Y-54015000D01*
G04 #@! TO.C,R9*
X97300000Y-37525000D02*
X98300000Y-37525000D01*
X98300000Y-38875000D02*
X97300000Y-38875000D01*
G04 #@! TO.C,TH1*
X99000000Y-52175000D02*
X98000000Y-52175000D01*
X98000000Y-50825000D02*
X99000000Y-50825000D01*
D14*
G04 #@! TO.C,G\002A\002A\002A*
X97060000Y-103420000D02*
X97060000Y-103880000D01*
X97150000Y-103420000D02*
X97200000Y-103420000D01*
X97100000Y-103450000D02*
X97150000Y-103420000D01*
X97080000Y-103470000D02*
X97100000Y-103450000D01*
X97060000Y-103540000D02*
X97080000Y-103470000D01*
X97500000Y-103880000D02*
X97550000Y-103850000D01*
X97400000Y-103880000D02*
X97500000Y-103880000D01*
X97360000Y-103850000D02*
X97400000Y-103880000D01*
X97340000Y-103780000D02*
X97360000Y-103850000D01*
X97340000Y-103510000D02*
X97340000Y-103780000D01*
X97370000Y-103450000D02*
X97340000Y-103510000D01*
X97410000Y-103420000D02*
X97370000Y-103450000D01*
X97510000Y-103420000D02*
X97410000Y-103420000D01*
X97550000Y-103460000D02*
X97510000Y-103420000D01*
X97570000Y-103530000D02*
X97550000Y-103460000D01*
X97570000Y-103650000D02*
X97570000Y-103530000D01*
X97570000Y-103650000D02*
X97340000Y-103650000D01*
X96820000Y-103510000D02*
X96820000Y-103880000D01*
X96790000Y-103450000D02*
X96820000Y-103510000D01*
X96750000Y-103420000D02*
X96790000Y-103450000D01*
X96650000Y-103420000D02*
X96750000Y-103420000D01*
X96600000Y-103450000D02*
X96650000Y-103420000D01*
X96660000Y-103610000D02*
X96610000Y-103640000D01*
X96780000Y-103610000D02*
X96660000Y-103610000D01*
X96820000Y-103580000D02*
X96780000Y-103610000D01*
X96770000Y-103880000D02*
X96820000Y-103840000D01*
X96650000Y-103880000D02*
X96770000Y-103880000D01*
X96600000Y-103840000D02*
X96650000Y-103880000D01*
X96580000Y-103780000D02*
X96600000Y-103840000D01*
X96580000Y-103710000D02*
X96580000Y-103780000D01*
X96610000Y-103640000D02*
X96580000Y-103710000D01*
X96030000Y-103420000D02*
X96130000Y-103880000D01*
X96130000Y-103880000D02*
X96220000Y-103540000D01*
X96220000Y-103540000D02*
X96320000Y-103880000D01*
X96320000Y-103880000D02*
X96420000Y-103420000D01*
X95840000Y-103850000D02*
X95800000Y-103880000D01*
X95800000Y-103880000D02*
X95690000Y-103880000D01*
X95690000Y-103880000D02*
X95650000Y-103850000D01*
X95650000Y-103850000D02*
X95630000Y-103820000D01*
X95630000Y-103820000D02*
X95600000Y-103750000D01*
X95600000Y-103750000D02*
X95600000Y-103550000D01*
X95600000Y-103550000D02*
X95630000Y-103480000D01*
X95630000Y-103480000D02*
X95650000Y-103450000D01*
X95650000Y-103450000D02*
X95710000Y-103410000D01*
X95710000Y-103410000D02*
X95780000Y-103410000D01*
X95780000Y-103410000D02*
X95840000Y-103450000D01*
X95840000Y-103180000D02*
X95840000Y-103880000D01*
X95320000Y-103540000D02*
X95340000Y-103470000D01*
X95340000Y-103470000D02*
X95360000Y-103450000D01*
X95360000Y-103450000D02*
X95410000Y-103420000D01*
X95410000Y-103420000D02*
X95460000Y-103420000D01*
X95320000Y-103420000D02*
X95320000Y-103880000D01*
X94870000Y-103640000D02*
X94840000Y-103710000D01*
X94840000Y-103710000D02*
X94840000Y-103780000D01*
X94840000Y-103780000D02*
X94860000Y-103840000D01*
X94860000Y-103840000D02*
X94910000Y-103880000D01*
X94910000Y-103880000D02*
X95030000Y-103880000D01*
X95030000Y-103880000D02*
X95080000Y-103840000D01*
X95080000Y-103580000D02*
X95040000Y-103610000D01*
X95040000Y-103610000D02*
X94920000Y-103610000D01*
X94920000Y-103610000D02*
X94870000Y-103640000D01*
X94860000Y-103450000D02*
X94910000Y-103420000D01*
X94910000Y-103420000D02*
X95010000Y-103420000D01*
X95010000Y-103420000D02*
X95050000Y-103450000D01*
X95050000Y-103450000D02*
X95080000Y-103510000D01*
X95080000Y-103510000D02*
X95080000Y-103880000D01*
X94410000Y-103490000D02*
X94430000Y-103450000D01*
X94430000Y-103450000D02*
X94480000Y-103420000D01*
X94480000Y-103420000D02*
X94560000Y-103420000D01*
X94560000Y-103420000D02*
X94600000Y-103450000D01*
X94600000Y-103450000D02*
X94620000Y-103510000D01*
X94620000Y-103510000D02*
X94620000Y-103880000D01*
X94410000Y-103180000D02*
X94410000Y-103880000D01*
X93360000Y-103650000D02*
X93130000Y-103650000D01*
X93580000Y-103480000D02*
X93600000Y-103450000D01*
X93600000Y-103450000D02*
X93640000Y-103420000D01*
X93640000Y-103420000D02*
X93730000Y-103420000D01*
X93730000Y-103420000D02*
X93770000Y-103450000D01*
X93770000Y-103450000D02*
X93790000Y-103510000D01*
X93790000Y-103510000D02*
X93790000Y-103880000D01*
X93580000Y-103420000D02*
X93580000Y-103880000D01*
X93360000Y-103650000D02*
X93360000Y-103530000D01*
X93360000Y-103530000D02*
X93340000Y-103460000D01*
X93340000Y-103460000D02*
X93300000Y-103420000D01*
X93300000Y-103420000D02*
X93200000Y-103420000D01*
X93200000Y-103420000D02*
X93160000Y-103450000D01*
X93160000Y-103450000D02*
X93130000Y-103510000D01*
X93130000Y-103510000D02*
X93130000Y-103780000D01*
X93130000Y-103780000D02*
X93150000Y-103850000D01*
X93150000Y-103850000D02*
X93190000Y-103880000D01*
X93190000Y-103880000D02*
X93290000Y-103880000D01*
X93290000Y-103880000D02*
X93340000Y-103850000D01*
X92700000Y-103450000D02*
X92740000Y-103420000D01*
X92740000Y-103420000D02*
X92840000Y-103420000D01*
X92840000Y-103420000D02*
X92880000Y-103450000D01*
X92880000Y-103450000D02*
X92910000Y-103480000D01*
X92910000Y-103480000D02*
X92930000Y-103540000D01*
X92930000Y-103540000D02*
X92930000Y-103760000D01*
X92930000Y-103760000D02*
X92910000Y-103820000D01*
X92910000Y-103820000D02*
X92890000Y-103850000D01*
X92890000Y-103850000D02*
X92850000Y-103880000D01*
X92850000Y-103880000D02*
X92750000Y-103880000D01*
X92750000Y-103880000D02*
X92700000Y-103850000D01*
X92700000Y-104120000D02*
X92700000Y-103420000D01*
X92390000Y-103420000D02*
X92310000Y-103420000D01*
X92310000Y-103420000D02*
X92270000Y-103450000D01*
X92270000Y-103450000D02*
X92250000Y-103480000D01*
X92250000Y-103480000D02*
X92220000Y-103550000D01*
X92310000Y-103880000D02*
X92390000Y-103880000D01*
X92390000Y-103880000D02*
X92440000Y-103850000D01*
X92440000Y-103850000D02*
X92460000Y-103820000D01*
X92460000Y-103820000D02*
X92480000Y-103750000D01*
X92480000Y-103750000D02*
X92480000Y-103550000D01*
X92480000Y-103550000D02*
X92460000Y-103490000D01*
X92460000Y-103490000D02*
X92440000Y-103460000D01*
X92440000Y-103460000D02*
X92390000Y-103420000D01*
X92220000Y-103550000D02*
X92220000Y-103750000D01*
X92220000Y-103750000D02*
X92240000Y-103810000D01*
X92240000Y-103810000D02*
X92260000Y-103840000D01*
X92260000Y-103840000D02*
X92310000Y-103880000D01*
D15*
G36*
X93386160Y-103045360D02*
G01*
X93411560Y-103030120D01*
X93469980Y-102994560D01*
X93553800Y-102938680D01*
X93652860Y-102872640D01*
X93751920Y-102806600D01*
X93833200Y-102753260D01*
X93889080Y-102715160D01*
X93914480Y-102702460D01*
X93927180Y-102707540D01*
X93972900Y-102730400D01*
X94041480Y-102765960D01*
X94082120Y-102786280D01*
X94143080Y-102811680D01*
X94176100Y-102819300D01*
X94181180Y-102809140D01*
X94204040Y-102760880D01*
X94239600Y-102679600D01*
X94285320Y-102570380D01*
X94341200Y-102443380D01*
X94397080Y-102308760D01*
X94455500Y-102169060D01*
X94511380Y-102034440D01*
X94559640Y-101915060D01*
X94600280Y-101818540D01*
X94625680Y-101749960D01*
X94635840Y-101722020D01*
X94633300Y-101714400D01*
X94600280Y-101683920D01*
X94546940Y-101643280D01*
X94427560Y-101546760D01*
X94310720Y-101401980D01*
X94239600Y-101236880D01*
X94216740Y-101051460D01*
X94237060Y-100881280D01*
X94303100Y-100718720D01*
X94417400Y-100571400D01*
X94557100Y-100462180D01*
X94719660Y-100393600D01*
X94900000Y-100370740D01*
X95072720Y-100391060D01*
X95240360Y-100457100D01*
X95387680Y-100568860D01*
X95451180Y-100639980D01*
X95537540Y-100789840D01*
X95585800Y-100947320D01*
X95590880Y-100987960D01*
X95583260Y-101163220D01*
X95532460Y-101333400D01*
X95438480Y-101483260D01*
X95308940Y-101607720D01*
X95293700Y-101617880D01*
X95235280Y-101663600D01*
X95194640Y-101694080D01*
X95164160Y-101719480D01*
X95387680Y-102257960D01*
X95423240Y-102341780D01*
X95484200Y-102489100D01*
X95537540Y-102616100D01*
X95580720Y-102717700D01*
X95611200Y-102783740D01*
X95623900Y-102811680D01*
X95623900Y-102814220D01*
X95644220Y-102816760D01*
X95684860Y-102801520D01*
X95761060Y-102765960D01*
X95809320Y-102740560D01*
X95867740Y-102712620D01*
X95893140Y-102702460D01*
X95916000Y-102715160D01*
X95969340Y-102750720D01*
X96050620Y-102804060D01*
X96147140Y-102867560D01*
X96238580Y-102931060D01*
X96322400Y-102986940D01*
X96383360Y-103025040D01*
X96413840Y-103042820D01*
X96418920Y-103042820D01*
X96444320Y-103027580D01*
X96492580Y-102986940D01*
X96566240Y-102918360D01*
X96670380Y-102814220D01*
X96685620Y-102798980D01*
X96771980Y-102712620D01*
X96840560Y-102638960D01*
X96886280Y-102588160D01*
X96904060Y-102565300D01*
X96888820Y-102534820D01*
X96850720Y-102473860D01*
X96794840Y-102387500D01*
X96726260Y-102288440D01*
X96548460Y-102029360D01*
X96644980Y-101785520D01*
X96675460Y-101709320D01*
X96713560Y-101620420D01*
X96741500Y-101554380D01*
X96756740Y-101526440D01*
X96782140Y-101516280D01*
X96850720Y-101501040D01*
X96947240Y-101480720D01*
X97061540Y-101460400D01*
X97173300Y-101440080D01*
X97272360Y-101419760D01*
X97343480Y-101407060D01*
X97376500Y-101399440D01*
X97384120Y-101394360D01*
X97391740Y-101379120D01*
X97394280Y-101346100D01*
X97396820Y-101285140D01*
X97399360Y-101191160D01*
X97399360Y-101051460D01*
X97399360Y-101036220D01*
X97396820Y-100906680D01*
X97394280Y-100800000D01*
X97391740Y-100733960D01*
X97386660Y-100706020D01*
X97356180Y-100698400D01*
X97285060Y-100683160D01*
X97186000Y-100665380D01*
X97066620Y-100642520D01*
X97059000Y-100639980D01*
X96942160Y-100617120D01*
X96843100Y-100596800D01*
X96771980Y-100581560D01*
X96744040Y-100571400D01*
X96736420Y-100563780D01*
X96713560Y-100518060D01*
X96680540Y-100444400D01*
X96639900Y-100355500D01*
X96601800Y-100261520D01*
X96568780Y-100177700D01*
X96545920Y-100116740D01*
X96538300Y-100088800D01*
X96540840Y-100086260D01*
X96558620Y-100058320D01*
X96599260Y-99997360D01*
X96655140Y-99913540D01*
X96723720Y-99811940D01*
X96728800Y-99804320D01*
X96797380Y-99705260D01*
X96853260Y-99618900D01*
X96888820Y-99560480D01*
X96904060Y-99532540D01*
X96904060Y-99530000D01*
X96881200Y-99499520D01*
X96830400Y-99443640D01*
X96756740Y-99367440D01*
X96670380Y-99278540D01*
X96642440Y-99253140D01*
X96543380Y-99156620D01*
X96477340Y-99095660D01*
X96434160Y-99062640D01*
X96413840Y-99055020D01*
X96383360Y-99072800D01*
X96319860Y-99113440D01*
X96236040Y-99171860D01*
X96134440Y-99240440D01*
X96126820Y-99245520D01*
X96027760Y-99314100D01*
X95943940Y-99369980D01*
X95885520Y-99410620D01*
X95857580Y-99425860D01*
X95855040Y-99425860D01*
X95814400Y-99413160D01*
X95743280Y-99387760D01*
X95654380Y-99354740D01*
X95562940Y-99316640D01*
X95479120Y-99281080D01*
X95415620Y-99253140D01*
X95385140Y-99235360D01*
X95374980Y-99199800D01*
X95357200Y-99123600D01*
X95336880Y-99022000D01*
X95311480Y-98900080D01*
X95308940Y-98879760D01*
X95286080Y-98760380D01*
X95268300Y-98661320D01*
X95253060Y-98592740D01*
X95245440Y-98564800D01*
X95230200Y-98562260D01*
X95171780Y-98557180D01*
X95082880Y-98554640D01*
X94973660Y-98554640D01*
X94861900Y-98554640D01*
X94752680Y-98557180D01*
X94658700Y-98559720D01*
X94590120Y-98564800D01*
X94562180Y-98569880D01*
X94562180Y-98572420D01*
X94552020Y-98610520D01*
X94534240Y-98684180D01*
X94513920Y-98788320D01*
X94491060Y-98910240D01*
X94485980Y-98933100D01*
X94463120Y-99049940D01*
X94442800Y-99149000D01*
X94430100Y-99215040D01*
X94422480Y-99242980D01*
X94409780Y-99248060D01*
X94361520Y-99268380D01*
X94282780Y-99301400D01*
X94183720Y-99342040D01*
X93955120Y-99433480D01*
X93673180Y-99242980D01*
X93647780Y-99225200D01*
X93546180Y-99156620D01*
X93464900Y-99100740D01*
X93406480Y-99062640D01*
X93383620Y-99049940D01*
X93381080Y-99049940D01*
X93353140Y-99075340D01*
X93297260Y-99128680D01*
X93221060Y-99202340D01*
X93132160Y-99288700D01*
X93068660Y-99354740D01*
X92989920Y-99433480D01*
X92941660Y-99486820D01*
X92913720Y-99519840D01*
X92906100Y-99540160D01*
X92908640Y-99555400D01*
X92926420Y-99583340D01*
X92967060Y-99644300D01*
X93025480Y-99730660D01*
X93094060Y-99829720D01*
X93149940Y-99913540D01*
X93210900Y-100007520D01*
X93249000Y-100073560D01*
X93264240Y-100106580D01*
X93259160Y-100119280D01*
X93241380Y-100175160D01*
X93205820Y-100258980D01*
X93165180Y-100358040D01*
X93066120Y-100579020D01*
X92921340Y-100606960D01*
X92832440Y-100624740D01*
X92710520Y-100647600D01*
X92591140Y-100670460D01*
X92408260Y-100706020D01*
X92400640Y-101381660D01*
X92428580Y-101394360D01*
X92456520Y-101401980D01*
X92525100Y-101417220D01*
X92621620Y-101437540D01*
X92738460Y-101457860D01*
X92834980Y-101475640D01*
X92934040Y-101495960D01*
X93005160Y-101508660D01*
X93035640Y-101516280D01*
X93045800Y-101526440D01*
X93068660Y-101574700D01*
X93104220Y-101650900D01*
X93144860Y-101742340D01*
X93182960Y-101836320D01*
X93218520Y-101925220D01*
X93241380Y-101991260D01*
X93251540Y-102024280D01*
X93238840Y-102052220D01*
X93200740Y-102110640D01*
X93147400Y-102191920D01*
X93078820Y-102290980D01*
X93012780Y-102387500D01*
X92954360Y-102471320D01*
X92916260Y-102532280D01*
X92898480Y-102560220D01*
X92908640Y-102578000D01*
X92946740Y-102626260D01*
X93020400Y-102702460D01*
X93132160Y-102811680D01*
X93149940Y-102829460D01*
X93236300Y-102913280D01*
X93309960Y-102981860D01*
X93363300Y-103027580D01*
X93386160Y-103045360D01*
X93386160Y-103045360D01*
G37*
X93386160Y-103045360D02*
X93411560Y-103030120D01*
X93469980Y-102994560D01*
X93553800Y-102938680D01*
X93652860Y-102872640D01*
X93751920Y-102806600D01*
X93833200Y-102753260D01*
X93889080Y-102715160D01*
X93914480Y-102702460D01*
X93927180Y-102707540D01*
X93972900Y-102730400D01*
X94041480Y-102765960D01*
X94082120Y-102786280D01*
X94143080Y-102811680D01*
X94176100Y-102819300D01*
X94181180Y-102809140D01*
X94204040Y-102760880D01*
X94239600Y-102679600D01*
X94285320Y-102570380D01*
X94341200Y-102443380D01*
X94397080Y-102308760D01*
X94455500Y-102169060D01*
X94511380Y-102034440D01*
X94559640Y-101915060D01*
X94600280Y-101818540D01*
X94625680Y-101749960D01*
X94635840Y-101722020D01*
X94633300Y-101714400D01*
X94600280Y-101683920D01*
X94546940Y-101643280D01*
X94427560Y-101546760D01*
X94310720Y-101401980D01*
X94239600Y-101236880D01*
X94216740Y-101051460D01*
X94237060Y-100881280D01*
X94303100Y-100718720D01*
X94417400Y-100571400D01*
X94557100Y-100462180D01*
X94719660Y-100393600D01*
X94900000Y-100370740D01*
X95072720Y-100391060D01*
X95240360Y-100457100D01*
X95387680Y-100568860D01*
X95451180Y-100639980D01*
X95537540Y-100789840D01*
X95585800Y-100947320D01*
X95590880Y-100987960D01*
X95583260Y-101163220D01*
X95532460Y-101333400D01*
X95438480Y-101483260D01*
X95308940Y-101607720D01*
X95293700Y-101617880D01*
X95235280Y-101663600D01*
X95194640Y-101694080D01*
X95164160Y-101719480D01*
X95387680Y-102257960D01*
X95423240Y-102341780D01*
X95484200Y-102489100D01*
X95537540Y-102616100D01*
X95580720Y-102717700D01*
X95611200Y-102783740D01*
X95623900Y-102811680D01*
X95623900Y-102814220D01*
X95644220Y-102816760D01*
X95684860Y-102801520D01*
X95761060Y-102765960D01*
X95809320Y-102740560D01*
X95867740Y-102712620D01*
X95893140Y-102702460D01*
X95916000Y-102715160D01*
X95969340Y-102750720D01*
X96050620Y-102804060D01*
X96147140Y-102867560D01*
X96238580Y-102931060D01*
X96322400Y-102986940D01*
X96383360Y-103025040D01*
X96413840Y-103042820D01*
X96418920Y-103042820D01*
X96444320Y-103027580D01*
X96492580Y-102986940D01*
X96566240Y-102918360D01*
X96670380Y-102814220D01*
X96685620Y-102798980D01*
X96771980Y-102712620D01*
X96840560Y-102638960D01*
X96886280Y-102588160D01*
X96904060Y-102565300D01*
X96888820Y-102534820D01*
X96850720Y-102473860D01*
X96794840Y-102387500D01*
X96726260Y-102288440D01*
X96548460Y-102029360D01*
X96644980Y-101785520D01*
X96675460Y-101709320D01*
X96713560Y-101620420D01*
X96741500Y-101554380D01*
X96756740Y-101526440D01*
X96782140Y-101516280D01*
X96850720Y-101501040D01*
X96947240Y-101480720D01*
X97061540Y-101460400D01*
X97173300Y-101440080D01*
X97272360Y-101419760D01*
X97343480Y-101407060D01*
X97376500Y-101399440D01*
X97384120Y-101394360D01*
X97391740Y-101379120D01*
X97394280Y-101346100D01*
X97396820Y-101285140D01*
X97399360Y-101191160D01*
X97399360Y-101051460D01*
X97399360Y-101036220D01*
X97396820Y-100906680D01*
X97394280Y-100800000D01*
X97391740Y-100733960D01*
X97386660Y-100706020D01*
X97356180Y-100698400D01*
X97285060Y-100683160D01*
X97186000Y-100665380D01*
X97066620Y-100642520D01*
X97059000Y-100639980D01*
X96942160Y-100617120D01*
X96843100Y-100596800D01*
X96771980Y-100581560D01*
X96744040Y-100571400D01*
X96736420Y-100563780D01*
X96713560Y-100518060D01*
X96680540Y-100444400D01*
X96639900Y-100355500D01*
X96601800Y-100261520D01*
X96568780Y-100177700D01*
X96545920Y-100116740D01*
X96538300Y-100088800D01*
X96540840Y-100086260D01*
X96558620Y-100058320D01*
X96599260Y-99997360D01*
X96655140Y-99913540D01*
X96723720Y-99811940D01*
X96728800Y-99804320D01*
X96797380Y-99705260D01*
X96853260Y-99618900D01*
X96888820Y-99560480D01*
X96904060Y-99532540D01*
X96904060Y-99530000D01*
X96881200Y-99499520D01*
X96830400Y-99443640D01*
X96756740Y-99367440D01*
X96670380Y-99278540D01*
X96642440Y-99253140D01*
X96543380Y-99156620D01*
X96477340Y-99095660D01*
X96434160Y-99062640D01*
X96413840Y-99055020D01*
X96383360Y-99072800D01*
X96319860Y-99113440D01*
X96236040Y-99171860D01*
X96134440Y-99240440D01*
X96126820Y-99245520D01*
X96027760Y-99314100D01*
X95943940Y-99369980D01*
X95885520Y-99410620D01*
X95857580Y-99425860D01*
X95855040Y-99425860D01*
X95814400Y-99413160D01*
X95743280Y-99387760D01*
X95654380Y-99354740D01*
X95562940Y-99316640D01*
X95479120Y-99281080D01*
X95415620Y-99253140D01*
X95385140Y-99235360D01*
X95374980Y-99199800D01*
X95357200Y-99123600D01*
X95336880Y-99022000D01*
X95311480Y-98900080D01*
X95308940Y-98879760D01*
X95286080Y-98760380D01*
X95268300Y-98661320D01*
X95253060Y-98592740D01*
X95245440Y-98564800D01*
X95230200Y-98562260D01*
X95171780Y-98557180D01*
X95082880Y-98554640D01*
X94973660Y-98554640D01*
X94861900Y-98554640D01*
X94752680Y-98557180D01*
X94658700Y-98559720D01*
X94590120Y-98564800D01*
X94562180Y-98569880D01*
X94562180Y-98572420D01*
X94552020Y-98610520D01*
X94534240Y-98684180D01*
X94513920Y-98788320D01*
X94491060Y-98910240D01*
X94485980Y-98933100D01*
X94463120Y-99049940D01*
X94442800Y-99149000D01*
X94430100Y-99215040D01*
X94422480Y-99242980D01*
X94409780Y-99248060D01*
X94361520Y-99268380D01*
X94282780Y-99301400D01*
X94183720Y-99342040D01*
X93955120Y-99433480D01*
X93673180Y-99242980D01*
X93647780Y-99225200D01*
X93546180Y-99156620D01*
X93464900Y-99100740D01*
X93406480Y-99062640D01*
X93383620Y-99049940D01*
X93381080Y-99049940D01*
X93353140Y-99075340D01*
X93297260Y-99128680D01*
X93221060Y-99202340D01*
X93132160Y-99288700D01*
X93068660Y-99354740D01*
X92989920Y-99433480D01*
X92941660Y-99486820D01*
X92913720Y-99519840D01*
X92906100Y-99540160D01*
X92908640Y-99555400D01*
X92926420Y-99583340D01*
X92967060Y-99644300D01*
X93025480Y-99730660D01*
X93094060Y-99829720D01*
X93149940Y-99913540D01*
X93210900Y-100007520D01*
X93249000Y-100073560D01*
X93264240Y-100106580D01*
X93259160Y-100119280D01*
X93241380Y-100175160D01*
X93205820Y-100258980D01*
X93165180Y-100358040D01*
X93066120Y-100579020D01*
X92921340Y-100606960D01*
X92832440Y-100624740D01*
X92710520Y-100647600D01*
X92591140Y-100670460D01*
X92408260Y-100706020D01*
X92400640Y-101381660D01*
X92428580Y-101394360D01*
X92456520Y-101401980D01*
X92525100Y-101417220D01*
X92621620Y-101437540D01*
X92738460Y-101457860D01*
X92834980Y-101475640D01*
X92934040Y-101495960D01*
X93005160Y-101508660D01*
X93035640Y-101516280D01*
X93045800Y-101526440D01*
X93068660Y-101574700D01*
X93104220Y-101650900D01*
X93144860Y-101742340D01*
X93182960Y-101836320D01*
X93218520Y-101925220D01*
X93241380Y-101991260D01*
X93251540Y-102024280D01*
X93238840Y-102052220D01*
X93200740Y-102110640D01*
X93147400Y-102191920D01*
X93078820Y-102290980D01*
X93012780Y-102387500D01*
X92954360Y-102471320D01*
X92916260Y-102532280D01*
X92898480Y-102560220D01*
X92908640Y-102578000D01*
X92946740Y-102626260D01*
X93020400Y-102702460D01*
X93132160Y-102811680D01*
X93149940Y-102829460D01*
X93236300Y-102913280D01*
X93309960Y-102981860D01*
X93363300Y-103027580D01*
X93386160Y-103045360D01*
D13*
G04 #@! TO.C,IC1*
X94725000Y-39350000D02*
X94725000Y-39465000D01*
X98875000Y-39350000D02*
X98875000Y-39465000D01*
X98875000Y-48250000D02*
X98875000Y-48135000D01*
X94725000Y-48250000D02*
X94725000Y-48135000D01*
X94725000Y-39350000D02*
X98875000Y-39350000D01*
X94725000Y-48250000D02*
X98875000Y-48250000D01*
X94725000Y-39465000D02*
X93350000Y-39465000D01*
D16*
G04 #@! TO.C,G\002A\002A\002A*
G36*
X89212140Y-144877643D02*
G01*
X89300000Y-144883798D01*
X89550108Y-144980153D01*
X89594371Y-145071523D01*
X89454827Y-145222559D01*
X89300000Y-145256907D01*
X89239739Y-145308991D01*
X89457236Y-145416884D01*
X89555195Y-145450278D01*
X89953414Y-145540935D01*
X90198779Y-145529127D01*
X90211532Y-145519704D01*
X90255629Y-145318051D01*
X90293970Y-144852257D01*
X90322099Y-144194604D01*
X90334814Y-143520346D01*
X90346860Y-142694477D01*
X90372576Y-142145995D01*
X90422089Y-141815882D01*
X90505528Y-141645117D01*
X90633019Y-141574684D01*
X90670111Y-141566380D01*
X90876838Y-141490301D01*
X90770263Y-141366701D01*
X90754217Y-141356400D01*
X90671303Y-141248438D01*
X90896351Y-141206803D01*
X90982120Y-141205224D01*
X91332724Y-141138436D01*
X91443737Y-140905126D01*
X91444702Y-140866225D01*
X91339524Y-140592243D01*
X91192385Y-140529801D01*
X90986898Y-140389563D01*
X90940067Y-140193377D01*
X91045245Y-139919395D01*
X91192385Y-139856953D01*
X91325029Y-139791208D01*
X91403106Y-139553497D01*
X91438661Y-139083109D01*
X91444702Y-138585436D01*
X91463435Y-137962225D01*
X91514405Y-137549490D01*
X91589775Y-137406242D01*
X91600804Y-137410396D01*
X91768692Y-137358239D01*
X91856355Y-137193532D01*
X92031159Y-136949791D01*
X92334347Y-136721545D01*
X92653717Y-136571270D01*
X92877064Y-136561435D01*
X92912723Y-136605370D01*
X93226716Y-137209715D01*
X93675347Y-137685038D01*
X94144872Y-137924444D01*
X94575675Y-137955917D01*
X94832115Y-137786022D01*
X94951864Y-137367874D01*
X94974577Y-136891788D01*
X95049255Y-136353214D01*
X95239047Y-135985943D01*
X95499298Y-135855284D01*
X95650000Y-135903973D01*
X95917070Y-135906904D01*
X96070530Y-135819867D01*
X96354395Y-135703770D01*
X96483396Y-135731025D01*
X96736209Y-135724945D01*
X97032829Y-135577294D01*
X97495281Y-135374279D01*
X97874184Y-135315231D01*
X98216339Y-135261848D01*
X98333991Y-135037173D01*
X98341391Y-134878602D01*
X98261543Y-134395786D01*
X98109565Y-133995490D01*
X97869550Y-133503455D01*
X97702605Y-133128476D01*
X97537593Y-132745921D01*
X97293979Y-132196267D01*
X97097768Y-131760438D01*
X96911590Y-131328027D01*
X96911590Y-132960264D01*
X96995696Y-133044370D01*
X96911590Y-133128476D01*
X96827484Y-133044370D01*
X96911590Y-132960264D01*
X96911590Y-131328027D01*
X96864885Y-131219551D01*
X96763158Y-130838112D01*
X96778344Y-130472191D01*
X96896198Y-129977855D01*
X96914641Y-129910107D01*
X97098645Y-129211009D01*
X97279397Y-128485019D01*
X97344713Y-128208278D01*
X97476769Y-127745782D01*
X97608868Y-127457311D01*
X97667284Y-127409271D01*
X97758836Y-127256297D01*
X97872417Y-126852400D01*
X97985493Y-126280114D01*
X98000243Y-126189735D01*
X98170065Y-125234997D01*
X98360811Y-124564047D01*
X98625557Y-124125785D01*
X99017379Y-123869114D01*
X99589351Y-123742937D01*
X100394551Y-123696156D01*
X100594977Y-123691700D01*
X101307862Y-123657668D01*
X101804601Y-123596103D01*
X102061295Y-123520585D01*
X102054048Y-123444692D01*
X101758961Y-123382006D01*
X101200994Y-123347343D01*
X100107616Y-123317349D01*
X101031324Y-123218608D01*
X101598106Y-123131182D01*
X101901611Y-123003255D01*
X102013564Y-122811538D01*
X102013833Y-122602864D01*
X101836762Y-122631905D01*
X101731710Y-122685379D01*
X101349347Y-122801902D01*
X100818456Y-122866767D01*
X100665364Y-122871243D01*
X100045231Y-122948517D01*
X99379828Y-123137025D01*
X99195585Y-123212391D01*
X98642904Y-123415037D01*
X98324946Y-123410199D01*
X98278830Y-123376908D01*
X97995547Y-123266684D01*
X97508707Y-123213872D01*
X97332120Y-123215397D01*
X97332120Y-123708609D01*
X97470577Y-123770155D01*
X97444261Y-123820750D01*
X97244633Y-123840882D01*
X97219978Y-123820750D01*
X97243069Y-123720748D01*
X97332120Y-123708609D01*
X97332120Y-123215397D01*
X96946284Y-123218731D01*
X96628459Y-123257856D01*
X96628459Y-126788828D01*
X96725547Y-126924449D01*
X96737745Y-126948008D01*
X96837765Y-127294520D01*
X96787354Y-127738373D01*
X96689728Y-128082119D01*
X96501541Y-128707034D01*
X96296990Y-129432894D01*
X96208471Y-129764238D01*
X96134669Y-130041594D01*
X96134669Y-131866887D01*
X96481077Y-132263999D01*
X96761671Y-132613654D01*
X96817855Y-132772164D01*
X96762724Y-132792052D01*
X96659272Y-132684095D01*
X96659272Y-134810596D01*
X96797729Y-134872142D01*
X96771413Y-134922737D01*
X96571785Y-134942869D01*
X96547131Y-134922737D01*
X96570221Y-134822735D01*
X96659272Y-134810596D01*
X96659272Y-132684095D01*
X96640627Y-132664638D01*
X96432170Y-132355342D01*
X96416317Y-132329470D01*
X96134669Y-131866887D01*
X96134669Y-130041594D01*
X96061084Y-130318135D01*
X96004435Y-130521403D01*
X96004435Y-133320277D01*
X96169059Y-133475119D01*
X96235130Y-133561286D01*
X96451590Y-133910772D01*
X96397371Y-134085099D01*
X96049094Y-134137194D01*
X95980506Y-134137748D01*
X95636701Y-134115169D01*
X95617186Y-134082987D01*
X95617186Y-134924616D01*
X95857442Y-134940327D01*
X96110274Y-135022247D01*
X96047489Y-135100036D01*
X95893310Y-135163457D01*
X95510810Y-135276830D01*
X95335033Y-135303408D01*
X95193000Y-135258985D01*
X95299165Y-135080279D01*
X95617186Y-134924616D01*
X95617186Y-134082987D01*
X95564051Y-133995359D01*
X95666867Y-133759271D01*
X95866549Y-133404712D01*
X96004435Y-133320277D01*
X96004435Y-130521403D01*
X95938151Y-130759245D01*
X95886003Y-130931306D01*
X95773671Y-130947917D01*
X95567216Y-130678240D01*
X95397873Y-130370038D01*
X94991255Y-129566866D01*
X95768357Y-128068859D01*
X96122692Y-127396217D01*
X96361305Y-126985084D01*
X96518470Y-126795830D01*
X96628459Y-126788828D01*
X96628459Y-123257856D01*
X96436254Y-123281517D01*
X96153789Y-123372639D01*
X95948389Y-123528054D01*
X95955604Y-123743332D01*
X96069486Y-123986273D01*
X96192914Y-124282539D01*
X96155129Y-124513992D01*
X95918141Y-124801216D01*
X95764905Y-124953038D01*
X95276723Y-125327189D01*
X94841960Y-125422795D01*
X94798150Y-125418277D01*
X94496251Y-125328808D01*
X94416300Y-125098038D01*
X94438449Y-124873742D01*
X94455396Y-124351274D01*
X94403982Y-123963080D01*
X94284860Y-123685856D01*
X94042275Y-123565009D01*
X93625048Y-123540397D01*
X93199196Y-123523665D01*
X93029461Y-123433922D01*
X93035814Y-123211842D01*
X93057746Y-123119867D01*
X93085242Y-122799719D01*
X92920191Y-122700012D01*
X92892739Y-122699337D01*
X92694778Y-122809564D01*
X92623581Y-123177286D01*
X92622186Y-123268980D01*
X92646948Y-123629673D01*
X92783251Y-123814578D01*
X93124120Y-123911728D01*
X93337086Y-123945511D01*
X94051987Y-124052401D01*
X94051987Y-125979470D01*
X94598676Y-126032180D01*
X94991710Y-126123266D01*
X95137136Y-126256249D01*
X95012296Y-126368031D01*
X94730753Y-126400000D01*
X94724835Y-126402057D01*
X94724835Y-126736423D01*
X94808941Y-126820529D01*
X94724835Y-126904635D01*
X94640729Y-126820529D01*
X94724835Y-126736423D01*
X94724835Y-126402057D01*
X94556623Y-126460531D01*
X94556623Y-127072847D01*
X94640729Y-127156953D01*
X94556623Y-127241059D01*
X94472517Y-127156953D01*
X94556623Y-127072847D01*
X94556623Y-126460531D01*
X94307417Y-126547161D01*
X94141954Y-126815769D01*
X94141954Y-131446357D01*
X94312306Y-131561746D01*
X94603467Y-131843322D01*
X94926548Y-132194195D01*
X95192661Y-132517479D01*
X95312916Y-132716285D01*
X95313577Y-132723418D01*
X95275913Y-132925576D01*
X95180701Y-133335090D01*
X95125395Y-133558624D01*
X94937214Y-134305960D01*
X94096514Y-134305960D01*
X93602137Y-134294246D01*
X93368710Y-134233553D01*
X93320930Y-134085548D01*
X93352954Y-133927483D01*
X93628524Y-132880948D01*
X93841054Y-132138295D01*
X93998482Y-131674557D01*
X94108750Y-131464767D01*
X94141954Y-131446357D01*
X94141954Y-126815769D01*
X94047191Y-126969605D01*
X93967881Y-127566424D01*
X93921630Y-127935747D01*
X93735714Y-128072522D01*
X93589404Y-128083970D01*
X93166071Y-128112873D01*
X92647011Y-128179638D01*
X92647011Y-128924679D01*
X93016598Y-128953162D01*
X93170266Y-129022694D01*
X93225371Y-129191003D01*
X93169292Y-129522854D01*
X93155879Y-129564241D01*
X93155879Y-135042245D01*
X93856251Y-135071835D01*
X94312641Y-135095293D01*
X94606540Y-135118154D01*
X94646228Y-135124223D01*
X94674005Y-135285003D01*
X94681839Y-135679881D01*
X94673150Y-136207341D01*
X94651354Y-136765869D01*
X94619870Y-137253951D01*
X94582114Y-137570072D01*
X94561793Y-137632105D01*
X94394257Y-137620715D01*
X94247679Y-137573361D01*
X93908808Y-137301104D01*
X93582615Y-136808527D01*
X93330714Y-136208155D01*
X93221181Y-135698655D01*
X93155879Y-135042245D01*
X93155879Y-129564241D01*
X92989363Y-130078051D01*
X92888518Y-130352980D01*
X92725227Y-130884944D01*
X92635894Y-131359945D01*
X92630681Y-131446357D01*
X92598366Y-131932345D01*
X92523547Y-132539982D01*
X92421677Y-133182977D01*
X92308210Y-133775041D01*
X92198599Y-134229880D01*
X92108298Y-134461206D01*
X92088446Y-134474172D01*
X92034745Y-134316813D01*
X91990675Y-133888069D01*
X91960715Y-133252939D01*
X91949345Y-132476422D01*
X91949338Y-132455629D01*
X91954006Y-131597456D01*
X91973330Y-131020380D01*
X92015293Y-130669140D01*
X92087876Y-130488477D01*
X92199061Y-130423130D01*
X92243709Y-130417573D01*
X92451021Y-130394077D01*
X92331569Y-130344424D01*
X92243709Y-130321133D01*
X92007498Y-130155977D01*
X91962637Y-129926410D01*
X92119808Y-129773878D01*
X92201656Y-129764238D01*
X92424666Y-129629590D01*
X92453974Y-129511920D01*
X92318549Y-129291277D01*
X92191729Y-129259602D01*
X92033444Y-129185466D01*
X92033444Y-129427814D01*
X92117550Y-129511920D01*
X92033444Y-129596026D01*
X91949338Y-129511920D01*
X92033444Y-129427814D01*
X92033444Y-129185466D01*
X92017620Y-129178054D01*
X92033444Y-129091390D01*
X92261357Y-128974256D01*
X92647011Y-128924679D01*
X92647011Y-128179638D01*
X92636796Y-128180952D01*
X92580133Y-128190085D01*
X92169653Y-128240906D01*
X91992193Y-128166098D01*
X91950141Y-127902213D01*
X91949338Y-127780038D01*
X92037744Y-127344023D01*
X92243709Y-127188800D01*
X92451021Y-127124870D01*
X92331569Y-127098515D01*
X92243709Y-127092360D01*
X92011249Y-126971072D01*
X91958528Y-126751172D01*
X92097795Y-126585316D01*
X92201656Y-126568211D01*
X92428266Y-126485011D01*
X92401446Y-126314051D01*
X92159603Y-126179528D01*
X91952291Y-126115598D01*
X92071743Y-126089243D01*
X92159603Y-126083088D01*
X92394062Y-125945324D01*
X92444750Y-125674356D01*
X92311666Y-125418779D01*
X92159603Y-125338469D01*
X91952291Y-125274539D01*
X92071743Y-125248184D01*
X92159603Y-125242029D01*
X92295358Y-125196593D01*
X92382051Y-125041646D01*
X92430277Y-124716655D01*
X92450629Y-124161087D01*
X92453974Y-123560016D01*
X92444942Y-122749031D01*
X92394124Y-122215881D01*
X92265935Y-121902034D01*
X92024792Y-121748957D01*
X91635110Y-121698120D01*
X91318543Y-121692363D01*
X91023077Y-121627178D01*
X90940067Y-121521854D01*
X90800699Y-121373424D01*
X90645696Y-121341819D01*
X90447875Y-121319521D01*
X90560907Y-121248185D01*
X90658143Y-121209093D01*
X90912434Y-121040318D01*
X90964962Y-120933112D01*
X90829297Y-120751125D01*
X90658143Y-120657132D01*
X90449219Y-120561033D01*
X90552552Y-120528954D01*
X90645696Y-120524405D01*
X90827485Y-120452725D01*
X90916341Y-120204463D01*
X90940064Y-119701165D01*
X90940067Y-119693671D01*
X90940067Y-118874760D01*
X91654967Y-118731786D01*
X92102887Y-118676118D01*
X92792824Y-118630454D01*
X93630411Y-118599535D01*
X94514570Y-118588104D01*
X96659272Y-118587396D01*
X96659272Y-117862591D01*
X96600222Y-117303736D01*
X96420231Y-117046548D01*
X96406954Y-117040962D01*
X96184362Y-116875850D01*
X96154636Y-116793923D01*
X96291145Y-116660573D01*
X96406954Y-116643708D01*
X96629964Y-116509060D01*
X96659272Y-116391390D01*
X96524624Y-116168380D01*
X96406954Y-116139072D01*
X96202610Y-116020230D01*
X96166574Y-115760830D01*
X96290398Y-115506559D01*
X96449007Y-115413966D01*
X96656319Y-115350036D01*
X96536867Y-115323681D01*
X96449007Y-115317526D01*
X96250800Y-115222882D01*
X96165557Y-114921523D01*
X96154636Y-114625165D01*
X96189203Y-114172481D01*
X96315534Y-113972264D01*
X96449007Y-113940495D01*
X96629045Y-113913132D01*
X96507560Y-113828608D01*
X96406954Y-113784105D01*
X96166558Y-113670637D01*
X96235256Y-113628991D01*
X96406954Y-113614436D01*
X96596278Y-113564779D01*
X96523026Y-113501128D01*
X96176925Y-113289345D01*
X95844199Y-112977657D01*
X95611351Y-112662522D01*
X95564885Y-112440398D01*
X95567562Y-112435712D01*
X95524510Y-112254142D01*
X95288448Y-112142216D01*
X94893047Y-112036878D01*
X95313577Y-111917988D01*
X95595452Y-111830492D01*
X95563115Y-111795024D01*
X95355630Y-111782330D01*
X95059835Y-111710073D01*
X94977153Y-111609050D01*
X95119684Y-111459445D01*
X95355630Y-111379639D01*
X95734106Y-111306742D01*
X95355630Y-111283834D01*
X95096332Y-111210987D01*
X94991476Y-110969726D01*
X94977153Y-110672185D01*
X94922438Y-110236742D01*
X94747815Y-110084507D01*
X94724835Y-110083443D01*
X94494707Y-110011054D01*
X94519948Y-109857238D01*
X94769495Y-109717024D01*
X94850994Y-109697520D01*
X95229471Y-109624622D01*
X94850994Y-109601715D01*
X94646871Y-109562658D01*
X94533197Y-109425286D01*
X94483812Y-109112441D01*
X94472554Y-108546964D01*
X94472517Y-108485430D01*
X94462032Y-107893711D01*
X94415327Y-107563814D01*
X94309529Y-107421400D01*
X94136093Y-107392053D01*
X93932597Y-107437348D01*
X93832162Y-107628767D01*
X93800739Y-108049615D01*
X93799669Y-108215115D01*
X93842634Y-108794402D01*
X93979368Y-109090291D01*
X94051987Y-109135002D01*
X94262090Y-109330060D01*
X94284096Y-109581687D01*
X94118005Y-109739705D01*
X94051987Y-109747019D01*
X93828977Y-109881667D01*
X93799669Y-109999337D01*
X93934317Y-110222347D01*
X94051987Y-110251655D01*
X94274997Y-110386303D01*
X94304305Y-110503973D01*
X94438953Y-110726983D01*
X94556623Y-110756291D01*
X94746223Y-110892233D01*
X94822628Y-111213454D01*
X94790280Y-111590049D01*
X94653621Y-111892109D01*
X94514570Y-111986034D01*
X94307258Y-112049964D01*
X94426710Y-112076318D01*
X94514570Y-112082473D01*
X94739617Y-112212430D01*
X94808925Y-112598191D01*
X94808941Y-112606622D01*
X94884167Y-113007255D01*
X95061259Y-113111258D01*
X95175081Y-113128454D01*
X95253906Y-113214092D01*
X95303448Y-113419242D01*
X95329422Y-113794977D01*
X95337544Y-114392370D01*
X95333530Y-115262492D01*
X95331334Y-115524659D01*
X95332866Y-116245977D01*
X95361180Y-116698452D01*
X95428991Y-116949373D01*
X95549015Y-117066027D01*
X95627867Y-117093817D01*
X95857747Y-117268816D01*
X95917360Y-117673010D01*
X95916213Y-117708230D01*
X95895112Y-118241721D01*
X93039112Y-118344144D01*
X92097770Y-118379145D01*
X91282107Y-118411836D01*
X90647808Y-118439795D01*
X90250555Y-118460596D01*
X90141060Y-118470303D01*
X90115895Y-118636008D01*
X90100871Y-119027478D01*
X90099007Y-119250993D01*
X90065986Y-119749911D01*
X89953707Y-119977168D01*
X89846689Y-120007947D01*
X89680383Y-120107009D01*
X89604631Y-120443846D01*
X89594371Y-120764900D01*
X89632539Y-121278671D01*
X89755268Y-121503729D01*
X89828692Y-121521854D01*
X90086025Y-121657966D01*
X90163864Y-121784666D01*
X90299742Y-121942429D01*
X90596226Y-121980731D01*
X91022920Y-121933779D01*
X91781126Y-121820079D01*
X91781126Y-122680238D01*
X91764206Y-123191668D01*
X91744330Y-123262698D01*
X91744330Y-135186376D01*
X91909400Y-135243860D01*
X91912542Y-135341514D01*
X92011878Y-135533342D01*
X92201656Y-135591721D01*
X92596625Y-135628926D01*
X92758550Y-135688302D01*
X92790375Y-135809144D01*
X92790398Y-135816448D01*
X92653540Y-135984937D01*
X92307617Y-136220273D01*
X92107460Y-136329651D01*
X91424522Y-136678060D01*
X91476665Y-135967666D01*
X91555370Y-135513066D01*
X91690139Y-135225228D01*
X91744330Y-135186376D01*
X91744330Y-123262698D01*
X91692069Y-123449462D01*
X91532645Y-123535609D01*
X91444702Y-123540397D01*
X91156554Y-123611819D01*
X91146626Y-123764787D01*
X91404898Y-123907356D01*
X91486755Y-123926320D01*
X91730392Y-123982978D01*
X91652458Y-124012154D01*
X91528808Y-124021963D01*
X91416939Y-124041800D01*
X91333898Y-124112530D01*
X91276218Y-124276832D01*
X91240430Y-124577384D01*
X91223065Y-125056864D01*
X91220655Y-125757950D01*
X91229730Y-126723320D01*
X91240861Y-127564780D01*
X91289337Y-131084851D01*
X90904437Y-131158591D01*
X90519537Y-131232330D01*
X90898014Y-131255238D01*
X91195764Y-131366156D01*
X91276490Y-131686976D01*
X91169239Y-132039100D01*
X90898014Y-132168704D01*
X90519537Y-132241602D01*
X90898014Y-132264509D01*
X91173278Y-132351526D01*
X91271062Y-132631594D01*
X91276490Y-132792052D01*
X91224978Y-133160457D01*
X91022895Y-133300159D01*
X90898014Y-133313456D01*
X90647937Y-133333592D01*
X90700766Y-133384674D01*
X90940067Y-133464900D01*
X91179343Y-133567309D01*
X91086679Y-133614970D01*
X91066226Y-133616345D01*
X90816118Y-133704517D01*
X90771855Y-133788990D01*
X90910416Y-133957292D01*
X91066226Y-134021795D01*
X91273538Y-134085725D01*
X91154086Y-134112080D01*
X91066226Y-134118235D01*
X90818713Y-134276273D01*
X90771855Y-134474172D01*
X90663470Y-134750780D01*
X90512503Y-134810596D01*
X90205694Y-134918517D01*
X89896894Y-135142501D01*
X89540635Y-135474406D01*
X89945980Y-135627764D01*
X90383024Y-135688146D01*
X90561590Y-135611686D01*
X90734510Y-135552548D01*
X90771855Y-135720444D01*
X90639152Y-136016095D01*
X90519537Y-136095461D01*
X90296159Y-136297214D01*
X90267219Y-136408609D01*
X90402561Y-136652057D01*
X90519537Y-136721757D01*
X90753486Y-136905884D01*
X90694252Y-137092854D01*
X90393378Y-137182330D01*
X90133283Y-137203500D01*
X90198092Y-137255692D01*
X90357108Y-137308489D01*
X90576637Y-137448455D01*
X90688247Y-137747551D01*
X90727383Y-138216887D01*
X90716967Y-138729577D01*
X90627751Y-138972948D01*
X90511335Y-139015894D01*
X90284773Y-139087022D01*
X90254719Y-139142052D01*
X90124995Y-139811850D01*
X89903196Y-140196161D01*
X89841942Y-140239758D01*
X89615703Y-140445389D01*
X89714322Y-140636897D01*
X90141060Y-140824719D01*
X90687749Y-141000092D01*
X90141060Y-141017264D01*
X89748180Y-141078736D01*
X89602258Y-141263008D01*
X89594371Y-141358526D01*
X89462386Y-141662970D01*
X89300000Y-141759543D01*
X89092688Y-141823473D01*
X89212140Y-141849828D01*
X89300000Y-141855983D01*
X89445092Y-141906512D01*
X89533521Y-142077892D01*
X89578615Y-142435185D01*
X89593703Y-143043451D01*
X89594371Y-143292964D01*
X89584777Y-143999347D01*
X89547129Y-144437125D01*
X89468133Y-144673789D01*
X89334495Y-144776834D01*
X89300000Y-144787358D01*
X89092688Y-144851288D01*
X89212140Y-144877643D01*
X89212140Y-144877643D01*
G37*
X89212140Y-144877643D02*
X89300000Y-144883798D01*
X89550108Y-144980153D01*
X89594371Y-145071523D01*
X89454827Y-145222559D01*
X89300000Y-145256907D01*
X89239739Y-145308991D01*
X89457236Y-145416884D01*
X89555195Y-145450278D01*
X89953414Y-145540935D01*
X90198779Y-145529127D01*
X90211532Y-145519704D01*
X90255629Y-145318051D01*
X90293970Y-144852257D01*
X90322099Y-144194604D01*
X90334814Y-143520346D01*
X90346860Y-142694477D01*
X90372576Y-142145995D01*
X90422089Y-141815882D01*
X90505528Y-141645117D01*
X90633019Y-141574684D01*
X90670111Y-141566380D01*
X90876838Y-141490301D01*
X90770263Y-141366701D01*
X90754217Y-141356400D01*
X90671303Y-141248438D01*
X90896351Y-141206803D01*
X90982120Y-141205224D01*
X91332724Y-141138436D01*
X91443737Y-140905126D01*
X91444702Y-140866225D01*
X91339524Y-140592243D01*
X91192385Y-140529801D01*
X90986898Y-140389563D01*
X90940067Y-140193377D01*
X91045245Y-139919395D01*
X91192385Y-139856953D01*
X91325029Y-139791208D01*
X91403106Y-139553497D01*
X91438661Y-139083109D01*
X91444702Y-138585436D01*
X91463435Y-137962225D01*
X91514405Y-137549490D01*
X91589775Y-137406242D01*
X91600804Y-137410396D01*
X91768692Y-137358239D01*
X91856355Y-137193532D01*
X92031159Y-136949791D01*
X92334347Y-136721545D01*
X92653717Y-136571270D01*
X92877064Y-136561435D01*
X92912723Y-136605370D01*
X93226716Y-137209715D01*
X93675347Y-137685038D01*
X94144872Y-137924444D01*
X94575675Y-137955917D01*
X94832115Y-137786022D01*
X94951864Y-137367874D01*
X94974577Y-136891788D01*
X95049255Y-136353214D01*
X95239047Y-135985943D01*
X95499298Y-135855284D01*
X95650000Y-135903973D01*
X95917070Y-135906904D01*
X96070530Y-135819867D01*
X96354395Y-135703770D01*
X96483396Y-135731025D01*
X96736209Y-135724945D01*
X97032829Y-135577294D01*
X97495281Y-135374279D01*
X97874184Y-135315231D01*
X98216339Y-135261848D01*
X98333991Y-135037173D01*
X98341391Y-134878602D01*
X98261543Y-134395786D01*
X98109565Y-133995490D01*
X97869550Y-133503455D01*
X97702605Y-133128476D01*
X97537593Y-132745921D01*
X97293979Y-132196267D01*
X97097768Y-131760438D01*
X96911590Y-131328027D01*
X96911590Y-132960264D01*
X96995696Y-133044370D01*
X96911590Y-133128476D01*
X96827484Y-133044370D01*
X96911590Y-132960264D01*
X96911590Y-131328027D01*
X96864885Y-131219551D01*
X96763158Y-130838112D01*
X96778344Y-130472191D01*
X96896198Y-129977855D01*
X96914641Y-129910107D01*
X97098645Y-129211009D01*
X97279397Y-128485019D01*
X97344713Y-128208278D01*
X97476769Y-127745782D01*
X97608868Y-127457311D01*
X97667284Y-127409271D01*
X97758836Y-127256297D01*
X97872417Y-126852400D01*
X97985493Y-126280114D01*
X98000243Y-126189735D01*
X98170065Y-125234997D01*
X98360811Y-124564047D01*
X98625557Y-124125785D01*
X99017379Y-123869114D01*
X99589351Y-123742937D01*
X100394551Y-123696156D01*
X100594977Y-123691700D01*
X101307862Y-123657668D01*
X101804601Y-123596103D01*
X102061295Y-123520585D01*
X102054048Y-123444692D01*
X101758961Y-123382006D01*
X101200994Y-123347343D01*
X100107616Y-123317349D01*
X101031324Y-123218608D01*
X101598106Y-123131182D01*
X101901611Y-123003255D01*
X102013564Y-122811538D01*
X102013833Y-122602864D01*
X101836762Y-122631905D01*
X101731710Y-122685379D01*
X101349347Y-122801902D01*
X100818456Y-122866767D01*
X100665364Y-122871243D01*
X100045231Y-122948517D01*
X99379828Y-123137025D01*
X99195585Y-123212391D01*
X98642904Y-123415037D01*
X98324946Y-123410199D01*
X98278830Y-123376908D01*
X97995547Y-123266684D01*
X97508707Y-123213872D01*
X97332120Y-123215397D01*
X97332120Y-123708609D01*
X97470577Y-123770155D01*
X97444261Y-123820750D01*
X97244633Y-123840882D01*
X97219978Y-123820750D01*
X97243069Y-123720748D01*
X97332120Y-123708609D01*
X97332120Y-123215397D01*
X96946284Y-123218731D01*
X96628459Y-123257856D01*
X96628459Y-126788828D01*
X96725547Y-126924449D01*
X96737745Y-126948008D01*
X96837765Y-127294520D01*
X96787354Y-127738373D01*
X96689728Y-128082119D01*
X96501541Y-128707034D01*
X96296990Y-129432894D01*
X96208471Y-129764238D01*
X96134669Y-130041594D01*
X96134669Y-131866887D01*
X96481077Y-132263999D01*
X96761671Y-132613654D01*
X96817855Y-132772164D01*
X96762724Y-132792052D01*
X96659272Y-132684095D01*
X96659272Y-134810596D01*
X96797729Y-134872142D01*
X96771413Y-134922737D01*
X96571785Y-134942869D01*
X96547131Y-134922737D01*
X96570221Y-134822735D01*
X96659272Y-134810596D01*
X96659272Y-132684095D01*
X96640627Y-132664638D01*
X96432170Y-132355342D01*
X96416317Y-132329470D01*
X96134669Y-131866887D01*
X96134669Y-130041594D01*
X96061084Y-130318135D01*
X96004435Y-130521403D01*
X96004435Y-133320277D01*
X96169059Y-133475119D01*
X96235130Y-133561286D01*
X96451590Y-133910772D01*
X96397371Y-134085099D01*
X96049094Y-134137194D01*
X95980506Y-134137748D01*
X95636701Y-134115169D01*
X95617186Y-134082987D01*
X95617186Y-134924616D01*
X95857442Y-134940327D01*
X96110274Y-135022247D01*
X96047489Y-135100036D01*
X95893310Y-135163457D01*
X95510810Y-135276830D01*
X95335033Y-135303408D01*
X95193000Y-135258985D01*
X95299165Y-135080279D01*
X95617186Y-134924616D01*
X95617186Y-134082987D01*
X95564051Y-133995359D01*
X95666867Y-133759271D01*
X95866549Y-133404712D01*
X96004435Y-133320277D01*
X96004435Y-130521403D01*
X95938151Y-130759245D01*
X95886003Y-130931306D01*
X95773671Y-130947917D01*
X95567216Y-130678240D01*
X95397873Y-130370038D01*
X94991255Y-129566866D01*
X95768357Y-128068859D01*
X96122692Y-127396217D01*
X96361305Y-126985084D01*
X96518470Y-126795830D01*
X96628459Y-126788828D01*
X96628459Y-123257856D01*
X96436254Y-123281517D01*
X96153789Y-123372639D01*
X95948389Y-123528054D01*
X95955604Y-123743332D01*
X96069486Y-123986273D01*
X96192914Y-124282539D01*
X96155129Y-124513992D01*
X95918141Y-124801216D01*
X95764905Y-124953038D01*
X95276723Y-125327189D01*
X94841960Y-125422795D01*
X94798150Y-125418277D01*
X94496251Y-125328808D01*
X94416300Y-125098038D01*
X94438449Y-124873742D01*
X94455396Y-124351274D01*
X94403982Y-123963080D01*
X94284860Y-123685856D01*
X94042275Y-123565009D01*
X93625048Y-123540397D01*
X93199196Y-123523665D01*
X93029461Y-123433922D01*
X93035814Y-123211842D01*
X93057746Y-123119867D01*
X93085242Y-122799719D01*
X92920191Y-122700012D01*
X92892739Y-122699337D01*
X92694778Y-122809564D01*
X92623581Y-123177286D01*
X92622186Y-123268980D01*
X92646948Y-123629673D01*
X92783251Y-123814578D01*
X93124120Y-123911728D01*
X93337086Y-123945511D01*
X94051987Y-124052401D01*
X94051987Y-125979470D01*
X94598676Y-126032180D01*
X94991710Y-126123266D01*
X95137136Y-126256249D01*
X95012296Y-126368031D01*
X94730753Y-126400000D01*
X94724835Y-126402057D01*
X94724835Y-126736423D01*
X94808941Y-126820529D01*
X94724835Y-126904635D01*
X94640729Y-126820529D01*
X94724835Y-126736423D01*
X94724835Y-126402057D01*
X94556623Y-126460531D01*
X94556623Y-127072847D01*
X94640729Y-127156953D01*
X94556623Y-127241059D01*
X94472517Y-127156953D01*
X94556623Y-127072847D01*
X94556623Y-126460531D01*
X94307417Y-126547161D01*
X94141954Y-126815769D01*
X94141954Y-131446357D01*
X94312306Y-131561746D01*
X94603467Y-131843322D01*
X94926548Y-132194195D01*
X95192661Y-132517479D01*
X95312916Y-132716285D01*
X95313577Y-132723418D01*
X95275913Y-132925576D01*
X95180701Y-133335090D01*
X95125395Y-133558624D01*
X94937214Y-134305960D01*
X94096514Y-134305960D01*
X93602137Y-134294246D01*
X93368710Y-134233553D01*
X93320930Y-134085548D01*
X93352954Y-133927483D01*
X93628524Y-132880948D01*
X93841054Y-132138295D01*
X93998482Y-131674557D01*
X94108750Y-131464767D01*
X94141954Y-131446357D01*
X94141954Y-126815769D01*
X94047191Y-126969605D01*
X93967881Y-127566424D01*
X93921630Y-127935747D01*
X93735714Y-128072522D01*
X93589404Y-128083970D01*
X93166071Y-128112873D01*
X92647011Y-128179638D01*
X92647011Y-128924679D01*
X93016598Y-128953162D01*
X93170266Y-129022694D01*
X93225371Y-129191003D01*
X93169292Y-129522854D01*
X93155879Y-129564241D01*
X93155879Y-135042245D01*
X93856251Y-135071835D01*
X94312641Y-135095293D01*
X94606540Y-135118154D01*
X94646228Y-135124223D01*
X94674005Y-135285003D01*
X94681839Y-135679881D01*
X94673150Y-136207341D01*
X94651354Y-136765869D01*
X94619870Y-137253951D01*
X94582114Y-137570072D01*
X94561793Y-137632105D01*
X94394257Y-137620715D01*
X94247679Y-137573361D01*
X93908808Y-137301104D01*
X93582615Y-136808527D01*
X93330714Y-136208155D01*
X93221181Y-135698655D01*
X93155879Y-135042245D01*
X93155879Y-129564241D01*
X92989363Y-130078051D01*
X92888518Y-130352980D01*
X92725227Y-130884944D01*
X92635894Y-131359945D01*
X92630681Y-131446357D01*
X92598366Y-131932345D01*
X92523547Y-132539982D01*
X92421677Y-133182977D01*
X92308210Y-133775041D01*
X92198599Y-134229880D01*
X92108298Y-134461206D01*
X92088446Y-134474172D01*
X92034745Y-134316813D01*
X91990675Y-133888069D01*
X91960715Y-133252939D01*
X91949345Y-132476422D01*
X91949338Y-132455629D01*
X91954006Y-131597456D01*
X91973330Y-131020380D01*
X92015293Y-130669140D01*
X92087876Y-130488477D01*
X92199061Y-130423130D01*
X92243709Y-130417573D01*
X92451021Y-130394077D01*
X92331569Y-130344424D01*
X92243709Y-130321133D01*
X92007498Y-130155977D01*
X91962637Y-129926410D01*
X92119808Y-129773878D01*
X92201656Y-129764238D01*
X92424666Y-129629590D01*
X92453974Y-129511920D01*
X92318549Y-129291277D01*
X92191729Y-129259602D01*
X92033444Y-129185466D01*
X92033444Y-129427814D01*
X92117550Y-129511920D01*
X92033444Y-129596026D01*
X91949338Y-129511920D01*
X92033444Y-129427814D01*
X92033444Y-129185466D01*
X92017620Y-129178054D01*
X92033444Y-129091390D01*
X92261357Y-128974256D01*
X92647011Y-128924679D01*
X92647011Y-128179638D01*
X92636796Y-128180952D01*
X92580133Y-128190085D01*
X92169653Y-128240906D01*
X91992193Y-128166098D01*
X91950141Y-127902213D01*
X91949338Y-127780038D01*
X92037744Y-127344023D01*
X92243709Y-127188800D01*
X92451021Y-127124870D01*
X92331569Y-127098515D01*
X92243709Y-127092360D01*
X92011249Y-126971072D01*
X91958528Y-126751172D01*
X92097795Y-126585316D01*
X92201656Y-126568211D01*
X92428266Y-126485011D01*
X92401446Y-126314051D01*
X92159603Y-126179528D01*
X91952291Y-126115598D01*
X92071743Y-126089243D01*
X92159603Y-126083088D01*
X92394062Y-125945324D01*
X92444750Y-125674356D01*
X92311666Y-125418779D01*
X92159603Y-125338469D01*
X91952291Y-125274539D01*
X92071743Y-125248184D01*
X92159603Y-125242029D01*
X92295358Y-125196593D01*
X92382051Y-125041646D01*
X92430277Y-124716655D01*
X92450629Y-124161087D01*
X92453974Y-123560016D01*
X92444942Y-122749031D01*
X92394124Y-122215881D01*
X92265935Y-121902034D01*
X92024792Y-121748957D01*
X91635110Y-121698120D01*
X91318543Y-121692363D01*
X91023077Y-121627178D01*
X90940067Y-121521854D01*
X90800699Y-121373424D01*
X90645696Y-121341819D01*
X90447875Y-121319521D01*
X90560907Y-121248185D01*
X90658143Y-121209093D01*
X90912434Y-121040318D01*
X90964962Y-120933112D01*
X90829297Y-120751125D01*
X90658143Y-120657132D01*
X90449219Y-120561033D01*
X90552552Y-120528954D01*
X90645696Y-120524405D01*
X90827485Y-120452725D01*
X90916341Y-120204463D01*
X90940064Y-119701165D01*
X90940067Y-119693671D01*
X90940067Y-118874760D01*
X91654967Y-118731786D01*
X92102887Y-118676118D01*
X92792824Y-118630454D01*
X93630411Y-118599535D01*
X94514570Y-118588104D01*
X96659272Y-118587396D01*
X96659272Y-117862591D01*
X96600222Y-117303736D01*
X96420231Y-117046548D01*
X96406954Y-117040962D01*
X96184362Y-116875850D01*
X96154636Y-116793923D01*
X96291145Y-116660573D01*
X96406954Y-116643708D01*
X96629964Y-116509060D01*
X96659272Y-116391390D01*
X96524624Y-116168380D01*
X96406954Y-116139072D01*
X96202610Y-116020230D01*
X96166574Y-115760830D01*
X96290398Y-115506559D01*
X96449007Y-115413966D01*
X96656319Y-115350036D01*
X96536867Y-115323681D01*
X96449007Y-115317526D01*
X96250800Y-115222882D01*
X96165557Y-114921523D01*
X96154636Y-114625165D01*
X96189203Y-114172481D01*
X96315534Y-113972264D01*
X96449007Y-113940495D01*
X96629045Y-113913132D01*
X96507560Y-113828608D01*
X96406954Y-113784105D01*
X96166558Y-113670637D01*
X96235256Y-113628991D01*
X96406954Y-113614436D01*
X96596278Y-113564779D01*
X96523026Y-113501128D01*
X96176925Y-113289345D01*
X95844199Y-112977657D01*
X95611351Y-112662522D01*
X95564885Y-112440398D01*
X95567562Y-112435712D01*
X95524510Y-112254142D01*
X95288448Y-112142216D01*
X94893047Y-112036878D01*
X95313577Y-111917988D01*
X95595452Y-111830492D01*
X95563115Y-111795024D01*
X95355630Y-111782330D01*
X95059835Y-111710073D01*
X94977153Y-111609050D01*
X95119684Y-111459445D01*
X95355630Y-111379639D01*
X95734106Y-111306742D01*
X95355630Y-111283834D01*
X95096332Y-111210987D01*
X94991476Y-110969726D01*
X94977153Y-110672185D01*
X94922438Y-110236742D01*
X94747815Y-110084507D01*
X94724835Y-110083443D01*
X94494707Y-110011054D01*
X94519948Y-109857238D01*
X94769495Y-109717024D01*
X94850994Y-109697520D01*
X95229471Y-109624622D01*
X94850994Y-109601715D01*
X94646871Y-109562658D01*
X94533197Y-109425286D01*
X94483812Y-109112441D01*
X94472554Y-108546964D01*
X94472517Y-108485430D01*
X94462032Y-107893711D01*
X94415327Y-107563814D01*
X94309529Y-107421400D01*
X94136093Y-107392053D01*
X93932597Y-107437348D01*
X93832162Y-107628767D01*
X93800739Y-108049615D01*
X93799669Y-108215115D01*
X93842634Y-108794402D01*
X93979368Y-109090291D01*
X94051987Y-109135002D01*
X94262090Y-109330060D01*
X94284096Y-109581687D01*
X94118005Y-109739705D01*
X94051987Y-109747019D01*
X93828977Y-109881667D01*
X93799669Y-109999337D01*
X93934317Y-110222347D01*
X94051987Y-110251655D01*
X94274997Y-110386303D01*
X94304305Y-110503973D01*
X94438953Y-110726983D01*
X94556623Y-110756291D01*
X94746223Y-110892233D01*
X94822628Y-111213454D01*
X94790280Y-111590049D01*
X94653621Y-111892109D01*
X94514570Y-111986034D01*
X94307258Y-112049964D01*
X94426710Y-112076318D01*
X94514570Y-112082473D01*
X94739617Y-112212430D01*
X94808925Y-112598191D01*
X94808941Y-112606622D01*
X94884167Y-113007255D01*
X95061259Y-113111258D01*
X95175081Y-113128454D01*
X95253906Y-113214092D01*
X95303448Y-113419242D01*
X95329422Y-113794977D01*
X95337544Y-114392370D01*
X95333530Y-115262492D01*
X95331334Y-115524659D01*
X95332866Y-116245977D01*
X95361180Y-116698452D01*
X95428991Y-116949373D01*
X95549015Y-117066027D01*
X95627867Y-117093817D01*
X95857747Y-117268816D01*
X95917360Y-117673010D01*
X95916213Y-117708230D01*
X95895112Y-118241721D01*
X93039112Y-118344144D01*
X92097770Y-118379145D01*
X91282107Y-118411836D01*
X90647808Y-118439795D01*
X90250555Y-118460596D01*
X90141060Y-118470303D01*
X90115895Y-118636008D01*
X90100871Y-119027478D01*
X90099007Y-119250993D01*
X90065986Y-119749911D01*
X89953707Y-119977168D01*
X89846689Y-120007947D01*
X89680383Y-120107009D01*
X89604631Y-120443846D01*
X89594371Y-120764900D01*
X89632539Y-121278671D01*
X89755268Y-121503729D01*
X89828692Y-121521854D01*
X90086025Y-121657966D01*
X90163864Y-121784666D01*
X90299742Y-121942429D01*
X90596226Y-121980731D01*
X91022920Y-121933779D01*
X91781126Y-121820079D01*
X91781126Y-122680238D01*
X91764206Y-123191668D01*
X91744330Y-123262698D01*
X91744330Y-135186376D01*
X91909400Y-135243860D01*
X91912542Y-135341514D01*
X92011878Y-135533342D01*
X92201656Y-135591721D01*
X92596625Y-135628926D01*
X92758550Y-135688302D01*
X92790375Y-135809144D01*
X92790398Y-135816448D01*
X92653540Y-135984937D01*
X92307617Y-136220273D01*
X92107460Y-136329651D01*
X91424522Y-136678060D01*
X91476665Y-135967666D01*
X91555370Y-135513066D01*
X91690139Y-135225228D01*
X91744330Y-135186376D01*
X91744330Y-123262698D01*
X91692069Y-123449462D01*
X91532645Y-123535609D01*
X91444702Y-123540397D01*
X91156554Y-123611819D01*
X91146626Y-123764787D01*
X91404898Y-123907356D01*
X91486755Y-123926320D01*
X91730392Y-123982978D01*
X91652458Y-124012154D01*
X91528808Y-124021963D01*
X91416939Y-124041800D01*
X91333898Y-124112530D01*
X91276218Y-124276832D01*
X91240430Y-124577384D01*
X91223065Y-125056864D01*
X91220655Y-125757950D01*
X91229730Y-126723320D01*
X91240861Y-127564780D01*
X91289337Y-131084851D01*
X90904437Y-131158591D01*
X90519537Y-131232330D01*
X90898014Y-131255238D01*
X91195764Y-131366156D01*
X91276490Y-131686976D01*
X91169239Y-132039100D01*
X90898014Y-132168704D01*
X90519537Y-132241602D01*
X90898014Y-132264509D01*
X91173278Y-132351526D01*
X91271062Y-132631594D01*
X91276490Y-132792052D01*
X91224978Y-133160457D01*
X91022895Y-133300159D01*
X90898014Y-133313456D01*
X90647937Y-133333592D01*
X90700766Y-133384674D01*
X90940067Y-133464900D01*
X91179343Y-133567309D01*
X91086679Y-133614970D01*
X91066226Y-133616345D01*
X90816118Y-133704517D01*
X90771855Y-133788990D01*
X90910416Y-133957292D01*
X91066226Y-134021795D01*
X91273538Y-134085725D01*
X91154086Y-134112080D01*
X91066226Y-134118235D01*
X90818713Y-134276273D01*
X90771855Y-134474172D01*
X90663470Y-134750780D01*
X90512503Y-134810596D01*
X90205694Y-134918517D01*
X89896894Y-135142501D01*
X89540635Y-135474406D01*
X89945980Y-135627764D01*
X90383024Y-135688146D01*
X90561590Y-135611686D01*
X90734510Y-135552548D01*
X90771855Y-135720444D01*
X90639152Y-136016095D01*
X90519537Y-136095461D01*
X90296159Y-136297214D01*
X90267219Y-136408609D01*
X90402561Y-136652057D01*
X90519537Y-136721757D01*
X90753486Y-136905884D01*
X90694252Y-137092854D01*
X90393378Y-137182330D01*
X90133283Y-137203500D01*
X90198092Y-137255692D01*
X90357108Y-137308489D01*
X90576637Y-137448455D01*
X90688247Y-137747551D01*
X90727383Y-138216887D01*
X90716967Y-138729577D01*
X90627751Y-138972948D01*
X90511335Y-139015894D01*
X90284773Y-139087022D01*
X90254719Y-139142052D01*
X90124995Y-139811850D01*
X89903196Y-140196161D01*
X89841942Y-140239758D01*
X89615703Y-140445389D01*
X89714322Y-140636897D01*
X90141060Y-140824719D01*
X90687749Y-141000092D01*
X90141060Y-141017264D01*
X89748180Y-141078736D01*
X89602258Y-141263008D01*
X89594371Y-141358526D01*
X89462386Y-141662970D01*
X89300000Y-141759543D01*
X89092688Y-141823473D01*
X89212140Y-141849828D01*
X89300000Y-141855983D01*
X89445092Y-141906512D01*
X89533521Y-142077892D01*
X89578615Y-142435185D01*
X89593703Y-143043451D01*
X89594371Y-143292964D01*
X89584777Y-143999347D01*
X89547129Y-144437125D01*
X89468133Y-144673789D01*
X89334495Y-144776834D01*
X89300000Y-144787358D01*
X89092688Y-144851288D01*
X89212140Y-144877643D01*
G04 #@! TO.C,D3*
D17*
X99283333Y-36816666D02*
X99283333Y-36116666D01*
X99450000Y-36116666D01*
X99550000Y-36150000D01*
X99616666Y-36216666D01*
X99650000Y-36283333D01*
X99683333Y-36416666D01*
X99683333Y-36516666D01*
X99650000Y-36650000D01*
X99616666Y-36716666D01*
X99550000Y-36783333D01*
X99450000Y-36816666D01*
X99283333Y-36816666D01*
X99916666Y-36116666D02*
X100350000Y-36116666D01*
X100116666Y-36383333D01*
X100216666Y-36383333D01*
X100283333Y-36416666D01*
X100316666Y-36450000D01*
X100350000Y-36516666D01*
X100350000Y-36683333D01*
X100316666Y-36750000D01*
X100283333Y-36783333D01*
X100216666Y-36816666D01*
X100016666Y-36816666D01*
X99950000Y-36783333D01*
X99916666Y-36750000D01*
G04 #@! TO.C,X1*
X88116666Y-42366666D02*
X88816666Y-41900000D01*
X88116666Y-41900000D02*
X88816666Y-42366666D01*
X88816666Y-41266666D02*
X88816666Y-41666666D01*
X88816666Y-41466666D02*
X88116666Y-41466666D01*
X88216666Y-41533333D01*
X88283333Y-41600000D01*
X88316666Y-41666666D01*
G04 #@! TO.C,D2*
X98483333Y-56816666D02*
X98483333Y-56116666D01*
X98650000Y-56116666D01*
X98750000Y-56150000D01*
X98816666Y-56216666D01*
X98850000Y-56283333D01*
X98883333Y-56416666D01*
X98883333Y-56516666D01*
X98850000Y-56650000D01*
X98816666Y-56716666D01*
X98750000Y-56783333D01*
X98650000Y-56816666D01*
X98483333Y-56816666D01*
X99150000Y-56183333D02*
X99183333Y-56150000D01*
X99250000Y-56116666D01*
X99416666Y-56116666D01*
X99483333Y-56150000D01*
X99516666Y-56183333D01*
X99550000Y-56250000D01*
X99550000Y-56316666D01*
X99516666Y-56416666D01*
X99116666Y-56816666D01*
X99550000Y-56816666D01*
G04 #@! TO.C,D1*
X97183333Y-56816666D02*
X97183333Y-56116666D01*
X97350000Y-56116666D01*
X97450000Y-56150000D01*
X97516666Y-56216666D01*
X97550000Y-56283333D01*
X97583333Y-56416666D01*
X97583333Y-56516666D01*
X97550000Y-56650000D01*
X97516666Y-56716666D01*
X97450000Y-56783333D01*
X97350000Y-56816666D01*
X97183333Y-56816666D01*
X98250000Y-56816666D02*
X97850000Y-56816666D01*
X98050000Y-56816666D02*
X98050000Y-56116666D01*
X97983333Y-56216666D01*
X97916666Y-56283333D01*
X97850000Y-56316666D01*
G04 #@! TO.C,C1*
X88433333Y-44950000D02*
X88400000Y-44983333D01*
X88300000Y-45016666D01*
X88233333Y-45016666D01*
X88133333Y-44983333D01*
X88066666Y-44916666D01*
X88033333Y-44850000D01*
X88000000Y-44716666D01*
X88000000Y-44616666D01*
X88033333Y-44483333D01*
X88066666Y-44416666D01*
X88133333Y-44350000D01*
X88233333Y-44316666D01*
X88300000Y-44316666D01*
X88400000Y-44350000D01*
X88433333Y-44383333D01*
X89100000Y-45016666D02*
X88700000Y-45016666D01*
X88900000Y-45016666D02*
X88900000Y-44316666D01*
X88833333Y-44416666D01*
X88766666Y-44483333D01*
X88700000Y-44516666D01*
G04 #@! TO.C,C2*
X88433333Y-39150000D02*
X88400000Y-39183333D01*
X88300000Y-39216666D01*
X88233333Y-39216666D01*
X88133333Y-39183333D01*
X88066666Y-39116666D01*
X88033333Y-39050000D01*
X88000000Y-38916666D01*
X88000000Y-38816666D01*
X88033333Y-38683333D01*
X88066666Y-38616666D01*
X88133333Y-38550000D01*
X88233333Y-38516666D01*
X88300000Y-38516666D01*
X88400000Y-38550000D01*
X88433333Y-38583333D01*
X88700000Y-38583333D02*
X88733333Y-38550000D01*
X88800000Y-38516666D01*
X88966666Y-38516666D01*
X89033333Y-38550000D01*
X89066666Y-38583333D01*
X89100000Y-38650000D01*
X89100000Y-38716666D01*
X89066666Y-38816666D01*
X88666666Y-39216666D01*
X89100000Y-39216666D01*
G04 #@! TO.C,C3*
X92133333Y-38576000D02*
X92100000Y-38609333D01*
X92000000Y-38642666D01*
X91933333Y-38642666D01*
X91833333Y-38609333D01*
X91766666Y-38542666D01*
X91733333Y-38476000D01*
X91700000Y-38342666D01*
X91700000Y-38242666D01*
X91733333Y-38109333D01*
X91766666Y-38042666D01*
X91833333Y-37976000D01*
X91933333Y-37942666D01*
X92000000Y-37942666D01*
X92100000Y-37976000D01*
X92133333Y-38009333D01*
X92366666Y-37942666D02*
X92800000Y-37942666D01*
X92566666Y-38209333D01*
X92666666Y-38209333D01*
X92733333Y-38242666D01*
X92766666Y-38276000D01*
X92800000Y-38342666D01*
X92800000Y-38509333D01*
X92766666Y-38576000D01*
X92733333Y-38609333D01*
X92666666Y-38642666D01*
X92466666Y-38642666D01*
X92400000Y-38609333D01*
X92366666Y-38576000D01*
G04 #@! TO.C,C4*
X88983333Y-55450000D02*
X88950000Y-55483333D01*
X88850000Y-55516666D01*
X88783333Y-55516666D01*
X88683333Y-55483333D01*
X88616666Y-55416666D01*
X88583333Y-55350000D01*
X88550000Y-55216666D01*
X88550000Y-55116666D01*
X88583333Y-54983333D01*
X88616666Y-54916666D01*
X88683333Y-54850000D01*
X88783333Y-54816666D01*
X88850000Y-54816666D01*
X88950000Y-54850000D01*
X88983333Y-54883333D01*
X89583333Y-55050000D02*
X89583333Y-55516666D01*
X89416666Y-54783333D02*
X89250000Y-55283333D01*
X89683333Y-55283333D01*
G04 #@! TO.C,C5*
X90583333Y-55450000D02*
X90550000Y-55483333D01*
X90450000Y-55516666D01*
X90383333Y-55516666D01*
X90283333Y-55483333D01*
X90216666Y-55416666D01*
X90183333Y-55350000D01*
X90150000Y-55216666D01*
X90150000Y-55116666D01*
X90183333Y-54983333D01*
X90216666Y-54916666D01*
X90283333Y-54850000D01*
X90383333Y-54816666D01*
X90450000Y-54816666D01*
X90550000Y-54850000D01*
X90583333Y-54883333D01*
X91216666Y-54816666D02*
X90883333Y-54816666D01*
X90850000Y-55150000D01*
X90883333Y-55116666D01*
X90950000Y-55083333D01*
X91116666Y-55083333D01*
X91183333Y-55116666D01*
X91216666Y-55150000D01*
X91250000Y-55216666D01*
X91250000Y-55383333D01*
X91216666Y-55450000D01*
X91183333Y-55483333D01*
X91116666Y-55516666D01*
X90950000Y-55516666D01*
X90883333Y-55483333D01*
X90850000Y-55450000D01*
G04 #@! TO.C,C6*
X92333333Y-34882000D02*
X92300000Y-34915333D01*
X92200000Y-34948666D01*
X92133333Y-34948666D01*
X92033333Y-34915333D01*
X91966666Y-34848666D01*
X91933333Y-34782000D01*
X91900000Y-34648666D01*
X91900000Y-34548666D01*
X91933333Y-34415333D01*
X91966666Y-34348666D01*
X92033333Y-34282000D01*
X92133333Y-34248666D01*
X92200000Y-34248666D01*
X92300000Y-34282000D01*
X92333333Y-34315333D01*
X92933333Y-34248666D02*
X92800000Y-34248666D01*
X92733333Y-34282000D01*
X92700000Y-34315333D01*
X92633333Y-34415333D01*
X92600000Y-34548666D01*
X92600000Y-34815333D01*
X92633333Y-34882000D01*
X92666666Y-34915333D01*
X92733333Y-34948666D01*
X92866666Y-34948666D01*
X92933333Y-34915333D01*
X92966666Y-34882000D01*
X93000000Y-34815333D01*
X93000000Y-34648666D01*
X92966666Y-34582000D01*
X92933333Y-34548666D01*
X92866666Y-34515333D01*
X92733333Y-34515333D01*
X92666666Y-34548666D01*
X92633333Y-34582000D01*
X92600000Y-34648666D01*
G04 #@! TO.C,R1*
X92283333Y-36716666D02*
X92050000Y-36383333D01*
X91883333Y-36716666D02*
X91883333Y-36016666D01*
X92150000Y-36016666D01*
X92216666Y-36050000D01*
X92250000Y-36083333D01*
X92283333Y-36150000D01*
X92283333Y-36250000D01*
X92250000Y-36316666D01*
X92216666Y-36350000D01*
X92150000Y-36383333D01*
X91883333Y-36383333D01*
X92950000Y-36716666D02*
X92550000Y-36716666D01*
X92750000Y-36716666D02*
X92750000Y-36016666D01*
X92683333Y-36116666D01*
X92616666Y-36183333D01*
X92550000Y-36216666D01*
G04 #@! TO.C,R2*
X98883333Y-50066666D02*
X98650000Y-49733333D01*
X98483333Y-50066666D02*
X98483333Y-49366666D01*
X98750000Y-49366666D01*
X98816666Y-49400000D01*
X98850000Y-49433333D01*
X98883333Y-49500000D01*
X98883333Y-49600000D01*
X98850000Y-49666666D01*
X98816666Y-49700000D01*
X98750000Y-49733333D01*
X98483333Y-49733333D01*
X99150000Y-49433333D02*
X99183333Y-49400000D01*
X99250000Y-49366666D01*
X99416666Y-49366666D01*
X99483333Y-49400000D01*
X99516666Y-49433333D01*
X99550000Y-49500000D01*
X99550000Y-49566666D01*
X99516666Y-49666666D01*
X99116666Y-50066666D01*
X99550000Y-50066666D01*
G04 #@! TO.C,R4*
X89583333Y-58516666D02*
X89350000Y-58183333D01*
X89183333Y-58516666D02*
X89183333Y-57816666D01*
X89450000Y-57816666D01*
X89516666Y-57850000D01*
X89550000Y-57883333D01*
X89583333Y-57950000D01*
X89583333Y-58050000D01*
X89550000Y-58116666D01*
X89516666Y-58150000D01*
X89450000Y-58183333D01*
X89183333Y-58183333D01*
X90183333Y-58050000D02*
X90183333Y-58516666D01*
X90016666Y-57783333D02*
X89850000Y-58283333D01*
X90283333Y-58283333D01*
G04 #@! TO.C,R5*
X88983333Y-51916666D02*
X88750000Y-51583333D01*
X88583333Y-51916666D02*
X88583333Y-51216666D01*
X88850000Y-51216666D01*
X88916666Y-51250000D01*
X88950000Y-51283333D01*
X88983333Y-51350000D01*
X88983333Y-51450000D01*
X88950000Y-51516666D01*
X88916666Y-51550000D01*
X88850000Y-51583333D01*
X88583333Y-51583333D01*
X89616666Y-51216666D02*
X89283333Y-51216666D01*
X89250000Y-51550000D01*
X89283333Y-51516666D01*
X89350000Y-51483333D01*
X89516666Y-51483333D01*
X89583333Y-51516666D01*
X89616666Y-51550000D01*
X89650000Y-51616666D01*
X89650000Y-51783333D01*
X89616666Y-51850000D01*
X89583333Y-51883333D01*
X89516666Y-51916666D01*
X89350000Y-51916666D01*
X89283333Y-51883333D01*
X89250000Y-51850000D01*
G04 #@! TO.C,R6*
X90583333Y-51916666D02*
X90350000Y-51583333D01*
X90183333Y-51916666D02*
X90183333Y-51216666D01*
X90450000Y-51216666D01*
X90516666Y-51250000D01*
X90550000Y-51283333D01*
X90583333Y-51350000D01*
X90583333Y-51450000D01*
X90550000Y-51516666D01*
X90516666Y-51550000D01*
X90450000Y-51583333D01*
X90183333Y-51583333D01*
X91183333Y-51216666D02*
X91050000Y-51216666D01*
X90983333Y-51250000D01*
X90950000Y-51283333D01*
X90883333Y-51383333D01*
X90850000Y-51516666D01*
X90850000Y-51783333D01*
X90883333Y-51850000D01*
X90916666Y-51883333D01*
X90983333Y-51916666D01*
X91116666Y-51916666D01*
X91183333Y-51883333D01*
X91216666Y-51850000D01*
X91250000Y-51783333D01*
X91250000Y-51616666D01*
X91216666Y-51550000D01*
X91183333Y-51516666D01*
X91116666Y-51483333D01*
X90983333Y-51483333D01*
X90916666Y-51516666D01*
X90883333Y-51550000D01*
X90850000Y-51616666D01*
G04 #@! TO.C,R7*
X88983333Y-53716666D02*
X88750000Y-53383333D01*
X88583333Y-53716666D02*
X88583333Y-53016666D01*
X88850000Y-53016666D01*
X88916666Y-53050000D01*
X88950000Y-53083333D01*
X88983333Y-53150000D01*
X88983333Y-53250000D01*
X88950000Y-53316666D01*
X88916666Y-53350000D01*
X88850000Y-53383333D01*
X88583333Y-53383333D01*
X89216666Y-53016666D02*
X89683333Y-53016666D01*
X89383333Y-53716666D01*
G04 #@! TO.C,R8*
X90583333Y-53716666D02*
X90350000Y-53383333D01*
X90183333Y-53716666D02*
X90183333Y-53016666D01*
X90450000Y-53016666D01*
X90516666Y-53050000D01*
X90550000Y-53083333D01*
X90583333Y-53150000D01*
X90583333Y-53250000D01*
X90550000Y-53316666D01*
X90516666Y-53350000D01*
X90450000Y-53383333D01*
X90183333Y-53383333D01*
X90983333Y-53316666D02*
X90916666Y-53283333D01*
X90883333Y-53250000D01*
X90850000Y-53183333D01*
X90850000Y-53150000D01*
X90883333Y-53083333D01*
X90916666Y-53050000D01*
X90983333Y-53016666D01*
X91116666Y-53016666D01*
X91183333Y-53050000D01*
X91216666Y-53083333D01*
X91250000Y-53150000D01*
X91250000Y-53183333D01*
X91216666Y-53250000D01*
X91183333Y-53283333D01*
X91116666Y-53316666D01*
X90983333Y-53316666D01*
X90916666Y-53350000D01*
X90883333Y-53383333D01*
X90850000Y-53450000D01*
X90850000Y-53583333D01*
X90883333Y-53650000D01*
X90916666Y-53683333D01*
X90983333Y-53716666D01*
X91116666Y-53716666D01*
X91183333Y-53683333D01*
X91216666Y-53650000D01*
X91250000Y-53583333D01*
X91250000Y-53450000D01*
X91216666Y-53383333D01*
X91183333Y-53350000D01*
X91116666Y-53316666D01*
G04 #@! TO.C,R9*
X99733333Y-38566666D02*
X99500000Y-38233333D01*
X99333333Y-38566666D02*
X99333333Y-37866666D01*
X99600000Y-37866666D01*
X99666666Y-37900000D01*
X99700000Y-37933333D01*
X99733333Y-38000000D01*
X99733333Y-38100000D01*
X99700000Y-38166666D01*
X99666666Y-38200000D01*
X99600000Y-38233333D01*
X99333333Y-38233333D01*
X100066666Y-38566666D02*
X100200000Y-38566666D01*
X100266666Y-38533333D01*
X100300000Y-38500000D01*
X100366666Y-38400000D01*
X100400000Y-38266666D01*
X100400000Y-38000000D01*
X100366666Y-37933333D01*
X100333333Y-37900000D01*
X100266666Y-37866666D01*
X100133333Y-37866666D01*
X100066666Y-37900000D01*
X100033333Y-37933333D01*
X100000000Y-38000000D01*
X100000000Y-38166666D01*
X100033333Y-38233333D01*
X100066666Y-38266666D01*
X100133333Y-38300000D01*
X100266666Y-38300000D01*
X100333333Y-38266666D01*
X100366666Y-38233333D01*
X100400000Y-38166666D01*
G04 #@! TO.C,TH1*
X100200000Y-51116666D02*
X100600000Y-51116666D01*
X100400000Y-51816666D02*
X100400000Y-51116666D01*
X100833333Y-51816666D02*
X100833333Y-51116666D01*
X100833333Y-51450000D02*
X101233333Y-51450000D01*
X101233333Y-51816666D02*
X101233333Y-51116666D01*
X101933333Y-51816666D02*
X101533333Y-51816666D01*
X101733333Y-51816666D02*
X101733333Y-51116666D01*
X101666666Y-51216666D01*
X101600000Y-51283333D01*
X101533333Y-51316666D01*
G04 #@! TO.C,IC1*
X91316666Y-48216666D02*
X91316666Y-47516666D01*
X92050000Y-48150000D02*
X92016666Y-48183333D01*
X91916666Y-48216666D01*
X91850000Y-48216666D01*
X91750000Y-48183333D01*
X91683333Y-48116666D01*
X91650000Y-48050000D01*
X91616666Y-47916666D01*
X91616666Y-47816666D01*
X91650000Y-47683333D01*
X91683333Y-47616666D01*
X91750000Y-47550000D01*
X91850000Y-47516666D01*
X91916666Y-47516666D01*
X92016666Y-47550000D01*
X92050000Y-47583333D01*
X92716666Y-48216666D02*
X92316666Y-48216666D01*
X92516666Y-48216666D02*
X92516666Y-47516666D01*
X92450000Y-47616666D01*
X92383333Y-47683333D01*
X92316666Y-47716666D01*
G04 #@! TD*
%LPC*%
D18*
G04 #@! TO.C,D3*
G36*
X98727691Y-36026053D02*
G01*
X98748926Y-36029203D01*
X98769750Y-36034419D01*
X98789962Y-36041651D01*
X98809368Y-36050830D01*
X98827781Y-36061866D01*
X98845024Y-36074654D01*
X98860930Y-36089070D01*
X98875346Y-36104976D01*
X98888134Y-36122219D01*
X98899170Y-36140632D01*
X98908349Y-36160038D01*
X98915581Y-36180250D01*
X98920797Y-36201074D01*
X98923947Y-36222309D01*
X98925000Y-36243750D01*
X98925000Y-36756250D01*
X98923947Y-36777691D01*
X98920797Y-36798926D01*
X98915581Y-36819750D01*
X98908349Y-36839962D01*
X98899170Y-36859368D01*
X98888134Y-36877781D01*
X98875346Y-36895024D01*
X98860930Y-36910930D01*
X98845024Y-36925346D01*
X98827781Y-36938134D01*
X98809368Y-36949170D01*
X98789962Y-36958349D01*
X98769750Y-36965581D01*
X98748926Y-36970797D01*
X98727691Y-36973947D01*
X98706250Y-36975000D01*
X98268750Y-36975000D01*
X98247309Y-36973947D01*
X98226074Y-36970797D01*
X98205250Y-36965581D01*
X98185038Y-36958349D01*
X98165632Y-36949170D01*
X98147219Y-36938134D01*
X98129976Y-36925346D01*
X98114070Y-36910930D01*
X98099654Y-36895024D01*
X98086866Y-36877781D01*
X98075830Y-36859368D01*
X98066651Y-36839962D01*
X98059419Y-36819750D01*
X98054203Y-36798926D01*
X98051053Y-36777691D01*
X98050000Y-36756250D01*
X98050000Y-36243750D01*
X98051053Y-36222309D01*
X98054203Y-36201074D01*
X98059419Y-36180250D01*
X98066651Y-36160038D01*
X98075830Y-36140632D01*
X98086866Y-36122219D01*
X98099654Y-36104976D01*
X98114070Y-36089070D01*
X98129976Y-36074654D01*
X98147219Y-36061866D01*
X98165632Y-36050830D01*
X98185038Y-36041651D01*
X98205250Y-36034419D01*
X98226074Y-36029203D01*
X98247309Y-36026053D01*
X98268750Y-36025000D01*
X98706250Y-36025000D01*
X98727691Y-36026053D01*
X98727691Y-36026053D01*
G37*
D19*
X98487500Y-36500000D03*
D18*
G36*
X97152691Y-36026053D02*
G01*
X97173926Y-36029203D01*
X97194750Y-36034419D01*
X97214962Y-36041651D01*
X97234368Y-36050830D01*
X97252781Y-36061866D01*
X97270024Y-36074654D01*
X97285930Y-36089070D01*
X97300346Y-36104976D01*
X97313134Y-36122219D01*
X97324170Y-36140632D01*
X97333349Y-36160038D01*
X97340581Y-36180250D01*
X97345797Y-36201074D01*
X97348947Y-36222309D01*
X97350000Y-36243750D01*
X97350000Y-36756250D01*
X97348947Y-36777691D01*
X97345797Y-36798926D01*
X97340581Y-36819750D01*
X97333349Y-36839962D01*
X97324170Y-36859368D01*
X97313134Y-36877781D01*
X97300346Y-36895024D01*
X97285930Y-36910930D01*
X97270024Y-36925346D01*
X97252781Y-36938134D01*
X97234368Y-36949170D01*
X97214962Y-36958349D01*
X97194750Y-36965581D01*
X97173926Y-36970797D01*
X97152691Y-36973947D01*
X97131250Y-36975000D01*
X96693750Y-36975000D01*
X96672309Y-36973947D01*
X96651074Y-36970797D01*
X96630250Y-36965581D01*
X96610038Y-36958349D01*
X96590632Y-36949170D01*
X96572219Y-36938134D01*
X96554976Y-36925346D01*
X96539070Y-36910930D01*
X96524654Y-36895024D01*
X96511866Y-36877781D01*
X96500830Y-36859368D01*
X96491651Y-36839962D01*
X96484419Y-36819750D01*
X96479203Y-36798926D01*
X96476053Y-36777691D01*
X96475000Y-36756250D01*
X96475000Y-36243750D01*
X96476053Y-36222309D01*
X96479203Y-36201074D01*
X96484419Y-36180250D01*
X96491651Y-36160038D01*
X96500830Y-36140632D01*
X96511866Y-36122219D01*
X96524654Y-36104976D01*
X96539070Y-36089070D01*
X96554976Y-36074654D01*
X96572219Y-36061866D01*
X96590632Y-36050830D01*
X96610038Y-36041651D01*
X96630250Y-36034419D01*
X96651074Y-36029203D01*
X96672309Y-36026053D01*
X96693750Y-36025000D01*
X97131250Y-36025000D01*
X97152691Y-36026053D01*
X97152691Y-36026053D01*
G37*
D19*
X96912500Y-36500000D03*
G04 #@! TD*
D20*
G04 #@! TO.C,X1*
X91800000Y-42900000D03*
X91800000Y-40700000D03*
X90100000Y-40700000D03*
X90100000Y-42900000D03*
G04 #@! TD*
D21*
G04 #@! TO.C,D2*
X96204000Y-56642000D03*
X94804000Y-56642000D03*
G04 #@! TD*
G04 #@! TO.C,D1*
X93410000Y-56642000D03*
X92010000Y-56642000D03*
G04 #@! TD*
D22*
G04 #@! TO.C,C1*
X91700000Y-44700000D03*
X90200000Y-44700000D03*
G04 #@! TD*
G04 #@! TO.C,C2*
X90000000Y-38900000D03*
X91500000Y-38900000D03*
G04 #@! TD*
G04 #@! TO.C,C3*
X93650000Y-38200000D03*
X95150000Y-38200000D03*
G04 #@! TD*
G04 #@! TO.C,C4*
X93400000Y-55150000D03*
X91900000Y-55150000D03*
G04 #@! TD*
G04 #@! TO.C,C5*
X94800000Y-55150000D03*
X96300000Y-55150000D03*
G04 #@! TD*
G04 #@! TO.C,C6*
X95250000Y-34700000D03*
X93750000Y-34700000D03*
G04 #@! TD*
D23*
G04 #@! TO.C,R1*
X95200000Y-36300000D03*
X93700000Y-36300000D03*
G04 #@! TD*
G04 #@! TO.C,R2*
X96278000Y-49784000D03*
X97778000Y-49784000D03*
G04 #@! TD*
G04 #@! TO.C,R4*
X88950000Y-56750000D03*
X90450000Y-56750000D03*
G04 #@! TD*
G04 #@! TO.C,R5*
X93460000Y-51562000D03*
X91960000Y-51562000D03*
G04 #@! TD*
G04 #@! TO.C,R6*
X94754000Y-51562000D03*
X96254000Y-51562000D03*
G04 #@! TD*
G04 #@! TO.C,R7*
X91960000Y-53340000D03*
X93460000Y-53340000D03*
G04 #@! TD*
G04 #@! TO.C,R8*
X96254000Y-53340000D03*
X94754000Y-53340000D03*
G04 #@! TD*
G04 #@! TO.C,R9*
X98550000Y-38200000D03*
X97050000Y-38200000D03*
G04 #@! TD*
G04 #@! TO.C,TH1*
X97750000Y-51500000D03*
X99250000Y-51500000D03*
G04 #@! TD*
D24*
G04 #@! TO.C,IC1*
X94100000Y-39990000D03*
X94100000Y-41260000D03*
X94100000Y-42530000D03*
X94100000Y-43800000D03*
X94100000Y-45070000D03*
X94100000Y-46340000D03*
X94100000Y-47610000D03*
X99500000Y-47610000D03*
X99500000Y-46340000D03*
X99500000Y-45070000D03*
X99500000Y-43800000D03*
X99500000Y-42530000D03*
X99500000Y-41260000D03*
X99500000Y-39990000D03*
G04 #@! TD*
M02*
