G04 #@! TF.GenerationSoftware,KiCad,Pcbnew,6.0.0-rc1-unknown-bc47f08~65~ubuntu16.04.1*
G04 #@! TF.CreationDate,2018-07-24T22:08:04+03:00*
G04 #@! TF.ProjectId,i2c-moist-sensor,6932632D6D6F6973742D73656E736F72,rev?*
G04 #@! TF.SameCoordinates,Original*
G04 #@! TF.FileFunction,Copper,L2,Inr,Signal*
G04 #@! TF.FilePolarity,Positive*
%FSLAX46Y46*%
G04 Gerber Fmt 4.6, Leading zero omitted, Abs format (unit mm)*
G04 Created by KiCad (PCBNEW 6.0.0-rc1-unknown-bc47f08~65~ubuntu16.04.1) date Tue Jul 24 22:08:04 2018*
%MOMM*%
%LPD*%
G01*
G04 APERTURE LIST*
G04 #@! TA.AperFunction,ViaPad*
%ADD10C,0.700000*%
G04 #@! TD*
G04 #@! TA.AperFunction,Conductor*
%ADD11C,1.270000*%
G04 #@! TD*
G04 #@! TA.AperFunction,Conductor*
%ADD12C,0.254000*%
G04 #@! TD*
G04 #@! TA.AperFunction,Conductor*
%ADD13C,0.508000*%
G04 #@! TD*
G04 #@! TA.AperFunction,Conductor*
%ADD14C,5.000000*%
G04 #@! TD*
G04 APERTURE END LIST*
D10*
G04 #@! TO.N,GND*
X99800000Y-51500000D03*
X95300000Y-39000000D03*
X95200000Y-37400000D03*
X93100000Y-34700000D03*
X95294552Y-41900000D03*
X91550000Y-39700000D03*
X90150000Y-44000000D03*
X91500000Y-22500000D03*
X100745190Y-40200000D03*
X100750000Y-39500000D03*
X100000000Y-39250006D03*
X91900000Y-54200000D03*
X96300000Y-54200000D03*
G04 #@! TO.N,VCC*
X93700000Y-37300000D03*
X101400000Y-42000000D03*
X93650000Y-39540000D03*
G04 #@! TO.N,/SENSOR_TRACK*
X88750000Y-57500000D03*
X96204000Y-57246000D03*
G04 #@! TO.N,/RESET*
X95460000Y-44270000D03*
G04 #@! TO.N,/EXCITATION*
X90250000Y-55749996D03*
X91050000Y-48750002D03*
G04 #@! TO.N,/SCK/SCL*
X98000000Y-45200000D03*
G04 #@! TO.N,/MOSI/SDA*
X97300000Y-42400000D03*
G04 #@! TO.N,/MISO/SENSE_HIGH*
X101400000Y-44300000D03*
X100000000Y-48200000D03*
G04 #@! TO.N,Net-(IC1-Pad11)*
X95500000Y-50100000D03*
X99100000Y-50500000D03*
X92710000Y-50038000D03*
G04 #@! TD*
D11*
G04 #@! TO.N,VCC*
X94847199Y-40737199D02*
X93650000Y-39540000D01*
X97358145Y-40737199D02*
X94847199Y-40737199D01*
X98620946Y-42000000D02*
X97358145Y-40737199D01*
X101400000Y-42000000D02*
X98620946Y-42000000D01*
D12*
G04 #@! TO.N,/SENSOR_TRACK*
X88750000Y-91750000D02*
X89000000Y-92000000D01*
X89000000Y-92000000D02*
X93500000Y-96500000D01*
X93500000Y-96500000D02*
X95000000Y-98000000D01*
D13*
X96204000Y-95796000D02*
X94128468Y-97871532D01*
X94128468Y-97871532D02*
X94000000Y-98000000D01*
X95000000Y-98000000D02*
X94256936Y-98000000D01*
X94256936Y-98000000D02*
X94128468Y-97871532D01*
D12*
X88750000Y-57500000D02*
X88750000Y-91750000D01*
D14*
X95000000Y-98000000D02*
X95000000Y-146000000D01*
D12*
X96204000Y-56642000D02*
X96204000Y-92959962D01*
X96204000Y-92959962D02*
X96204000Y-95796000D01*
G04 #@! TD*
G04 #@! TO.N,GND*
G36*
X102873000Y-19709747D02*
X102873000Y-148958702D01*
X95000000Y-159784077D01*
X87127000Y-148958702D01*
X87127000Y-92206606D01*
X89973000Y-95052606D01*
X89973000Y-148000000D01*
X89982667Y-148048601D01*
X90010197Y-148089803D01*
X92910197Y-150989803D01*
X92951399Y-151017333D01*
X93000000Y-151027000D01*
X97000000Y-151027000D01*
X97048601Y-151017333D01*
X97086654Y-150992844D01*
X98586654Y-149592844D01*
X98589803Y-149589803D01*
X99989803Y-148189803D01*
X100017333Y-148148601D01*
X100027000Y-148100236D01*
X100127000Y-94300236D01*
X100117423Y-94251617D01*
X100089969Y-94210365D01*
X100048819Y-94182758D01*
X100000000Y-94173000D01*
X97927000Y-94173000D01*
X97927000Y-56500000D01*
X97917333Y-56451399D01*
X97889803Y-56410197D01*
X97848601Y-56382667D01*
X97800000Y-56373000D01*
X97021223Y-56373000D01*
X97008450Y-56308786D01*
X96819699Y-56026301D01*
X96537213Y-55837550D01*
X96204000Y-55771270D01*
X95870786Y-55837550D01*
X95588301Y-56026301D01*
X95399550Y-56308787D01*
X95386777Y-56373000D01*
X94600000Y-56373000D01*
X94551399Y-56382667D01*
X94510197Y-56410197D01*
X94482667Y-56451399D01*
X94473000Y-56499664D01*
X94373335Y-94173000D01*
X93853719Y-94173000D01*
X90627000Y-90848502D01*
X90627000Y-56600000D01*
X90617333Y-56551399D01*
X90589803Y-56510197D01*
X90548601Y-56482667D01*
X90500000Y-56473000D01*
X90414709Y-56473000D01*
X90664078Y-56369708D01*
X90869712Y-56164074D01*
X90981000Y-55895401D01*
X90981000Y-55604591D01*
X90869712Y-55335918D01*
X90664078Y-55130284D01*
X90395405Y-55018996D01*
X90104595Y-55018996D01*
X89835922Y-55130284D01*
X89630288Y-55335918D01*
X89519000Y-55604591D01*
X89519000Y-55895401D01*
X89630288Y-56164074D01*
X89835922Y-56369708D01*
X90085291Y-56473000D01*
X89084940Y-56473000D01*
X88964229Y-56423000D01*
X88535771Y-56423000D01*
X88415060Y-56473000D01*
X87127000Y-56473000D01*
X87127000Y-49892595D01*
X91979000Y-49892595D01*
X91979000Y-50183405D01*
X92090288Y-50452078D01*
X92295922Y-50657712D01*
X92564595Y-50769000D01*
X92855405Y-50769000D01*
X93124078Y-50657712D01*
X93329712Y-50452078D01*
X93441000Y-50183405D01*
X93441000Y-49954595D01*
X94769000Y-49954595D01*
X94769000Y-50245405D01*
X94880288Y-50514078D01*
X95085922Y-50719712D01*
X95354595Y-50831000D01*
X95645405Y-50831000D01*
X95914078Y-50719712D01*
X96119712Y-50514078D01*
X96185772Y-50354595D01*
X98369000Y-50354595D01*
X98369000Y-50645405D01*
X98480288Y-50914078D01*
X98685922Y-51119712D01*
X98954595Y-51231000D01*
X99245405Y-51231000D01*
X99514078Y-51119712D01*
X99719712Y-50914078D01*
X99831000Y-50645405D01*
X99831000Y-50354595D01*
X99719712Y-50085922D01*
X99514078Y-49880288D01*
X99245405Y-49769000D01*
X98954595Y-49769000D01*
X98685922Y-49880288D01*
X98480288Y-50085922D01*
X98369000Y-50354595D01*
X96185772Y-50354595D01*
X96231000Y-50245405D01*
X96231000Y-49954595D01*
X96119712Y-49685922D01*
X95914078Y-49480288D01*
X95645405Y-49369000D01*
X95354595Y-49369000D01*
X95085922Y-49480288D01*
X94880288Y-49685922D01*
X94769000Y-49954595D01*
X93441000Y-49954595D01*
X93441000Y-49892595D01*
X93329712Y-49623922D01*
X93124078Y-49418288D01*
X92855405Y-49307000D01*
X92564595Y-49307000D01*
X92295922Y-49418288D01*
X92090288Y-49623922D01*
X91979000Y-49892595D01*
X87127000Y-49892595D01*
X87127000Y-48604597D01*
X90319000Y-48604597D01*
X90319000Y-48895407D01*
X90430288Y-49164080D01*
X90635922Y-49369714D01*
X90904595Y-49481002D01*
X91195405Y-49481002D01*
X91464078Y-49369714D01*
X91669712Y-49164080D01*
X91781000Y-48895407D01*
X91781000Y-48604597D01*
X91669712Y-48335924D01*
X91464078Y-48130290D01*
X91281335Y-48054595D01*
X99269000Y-48054595D01*
X99269000Y-48345405D01*
X99380288Y-48614078D01*
X99585922Y-48819712D01*
X99854595Y-48931000D01*
X100145405Y-48931000D01*
X100414078Y-48819712D01*
X100619712Y-48614078D01*
X100731000Y-48345405D01*
X100731000Y-48054595D01*
X100619712Y-47785922D01*
X100414078Y-47580288D01*
X100145405Y-47469000D01*
X99854595Y-47469000D01*
X99585922Y-47580288D01*
X99380288Y-47785922D01*
X99269000Y-48054595D01*
X91281335Y-48054595D01*
X91195405Y-48019002D01*
X90904595Y-48019002D01*
X90635922Y-48130290D01*
X90430288Y-48335924D01*
X90319000Y-48604597D01*
X87127000Y-48604597D01*
X87127000Y-45054595D01*
X97269000Y-45054595D01*
X97269000Y-45345405D01*
X97380288Y-45614078D01*
X97585922Y-45819712D01*
X97854595Y-45931000D01*
X98145405Y-45931000D01*
X98414078Y-45819712D01*
X98619712Y-45614078D01*
X98731000Y-45345405D01*
X98731000Y-45054595D01*
X98619712Y-44785922D01*
X98414078Y-44580288D01*
X98145405Y-44469000D01*
X97854595Y-44469000D01*
X97585922Y-44580288D01*
X97380288Y-44785922D01*
X97269000Y-45054595D01*
X87127000Y-45054595D01*
X87127000Y-44124595D01*
X94729000Y-44124595D01*
X94729000Y-44415405D01*
X94840288Y-44684078D01*
X95045922Y-44889712D01*
X95314595Y-45001000D01*
X95605405Y-45001000D01*
X95874078Y-44889712D01*
X96079712Y-44684078D01*
X96191000Y-44415405D01*
X96191000Y-44154595D01*
X100669000Y-44154595D01*
X100669000Y-44445405D01*
X100780288Y-44714078D01*
X100985922Y-44919712D01*
X101254595Y-45031000D01*
X101545405Y-45031000D01*
X101814078Y-44919712D01*
X102019712Y-44714078D01*
X102131000Y-44445405D01*
X102131000Y-44154595D01*
X102019712Y-43885922D01*
X101814078Y-43680288D01*
X101545405Y-43569000D01*
X101254595Y-43569000D01*
X100985922Y-43680288D01*
X100780288Y-43885922D01*
X100669000Y-44154595D01*
X96191000Y-44154595D01*
X96191000Y-44124595D01*
X96079712Y-43855922D01*
X95874078Y-43650288D01*
X95605405Y-43539000D01*
X95314595Y-43539000D01*
X95045922Y-43650288D01*
X94840288Y-43855922D01*
X94729000Y-44124595D01*
X87127000Y-44124595D01*
X87127000Y-39540000D01*
X92614096Y-39540000D01*
X92692950Y-39936423D01*
X92860823Y-40187663D01*
X94058021Y-41384862D01*
X94114704Y-41469694D01*
X94450776Y-41694250D01*
X94747134Y-41753199D01*
X94747135Y-41753199D01*
X94847198Y-41773103D01*
X94947262Y-41753199D01*
X96937305Y-41753199D01*
X96941410Y-41757304D01*
X96885922Y-41780288D01*
X96680288Y-41985922D01*
X96569000Y-42254595D01*
X96569000Y-42545405D01*
X96680288Y-42814078D01*
X96885922Y-43019712D01*
X97154595Y-43131000D01*
X97445405Y-43131000D01*
X97714078Y-43019712D01*
X97919712Y-42814078D01*
X97939403Y-42766540D01*
X98010549Y-42814078D01*
X98224521Y-42957050D01*
X98224522Y-42957050D01*
X98224523Y-42957051D01*
X98520881Y-43016000D01*
X98620945Y-43035904D01*
X98721009Y-43016000D01*
X101500065Y-43016000D01*
X101796423Y-42957051D01*
X102132495Y-42732495D01*
X102357051Y-42396423D01*
X102435904Y-42000000D01*
X102357051Y-41603577D01*
X102132495Y-41267505D01*
X101796423Y-41042949D01*
X101500065Y-40984000D01*
X99041787Y-40984000D01*
X98147325Y-40089538D01*
X98090640Y-40004704D01*
X97754568Y-39780148D01*
X97458210Y-39721199D01*
X97458208Y-39721199D01*
X97358145Y-39701295D01*
X97258082Y-39721199D01*
X95268040Y-39721199D01*
X94297663Y-38750823D01*
X94046423Y-38582950D01*
X93650000Y-38504096D01*
X93253577Y-38582950D01*
X92917506Y-38807506D01*
X92692950Y-39143577D01*
X92614096Y-39540000D01*
X87127000Y-39540000D01*
X87127000Y-37154595D01*
X92969000Y-37154595D01*
X92969000Y-37445405D01*
X93080288Y-37714078D01*
X93285922Y-37919712D01*
X93554595Y-38031000D01*
X93845405Y-38031000D01*
X94114078Y-37919712D01*
X94319712Y-37714078D01*
X94431000Y-37445405D01*
X94431000Y-37154595D01*
X94319712Y-36885922D01*
X94114078Y-36680288D01*
X93845405Y-36569000D01*
X93554595Y-36569000D01*
X93285922Y-36680288D01*
X93080288Y-36885922D01*
X92969000Y-37154595D01*
X87127000Y-37154595D01*
X87127000Y-19709745D01*
X88668936Y-16625872D01*
X89619130Y-16625872D01*
X89619130Y-17374128D01*
X89905476Y-18065427D01*
X90434573Y-18594524D01*
X91125872Y-18880870D01*
X91874128Y-18880870D01*
X92565427Y-18594524D01*
X93094524Y-18065427D01*
X93380870Y-17374128D01*
X93380870Y-16625872D01*
X96619130Y-16625872D01*
X96619130Y-17374128D01*
X96905476Y-18065427D01*
X97434573Y-18594524D01*
X98125872Y-18880870D01*
X98874128Y-18880870D01*
X99565427Y-18594524D01*
X100094524Y-18065427D01*
X100380870Y-17374128D01*
X100380870Y-16625872D01*
X100094524Y-15934573D01*
X99565427Y-15405476D01*
X98874128Y-15119130D01*
X98125872Y-15119130D01*
X97434573Y-15405476D01*
X96905476Y-15934573D01*
X96619130Y-16625872D01*
X93380870Y-16625872D01*
X93094524Y-15934573D01*
X92565427Y-15405476D01*
X91874128Y-15119130D01*
X91125872Y-15119130D01*
X90434573Y-15405476D01*
X89905476Y-15934573D01*
X89619130Y-16625872D01*
X88668936Y-16625872D01*
X90266373Y-13431000D01*
X99733627Y-13431000D01*
X102873000Y-19709747D01*
X102873000Y-19709747D01*
G37*
X102873000Y-19709747D02*
X102873000Y-148958702D01*
X95000000Y-159784077D01*
X87127000Y-148958702D01*
X87127000Y-92206606D01*
X89973000Y-95052606D01*
X89973000Y-148000000D01*
X89982667Y-148048601D01*
X90010197Y-148089803D01*
X92910197Y-150989803D01*
X92951399Y-151017333D01*
X93000000Y-151027000D01*
X97000000Y-151027000D01*
X97048601Y-151017333D01*
X97086654Y-150992844D01*
X98586654Y-149592844D01*
X98589803Y-149589803D01*
X99989803Y-148189803D01*
X100017333Y-148148601D01*
X100027000Y-148100236D01*
X100127000Y-94300236D01*
X100117423Y-94251617D01*
X100089969Y-94210365D01*
X100048819Y-94182758D01*
X100000000Y-94173000D01*
X97927000Y-94173000D01*
X97927000Y-56500000D01*
X97917333Y-56451399D01*
X97889803Y-56410197D01*
X97848601Y-56382667D01*
X97800000Y-56373000D01*
X97021223Y-56373000D01*
X97008450Y-56308786D01*
X96819699Y-56026301D01*
X96537213Y-55837550D01*
X96204000Y-55771270D01*
X95870786Y-55837550D01*
X95588301Y-56026301D01*
X95399550Y-56308787D01*
X95386777Y-56373000D01*
X94600000Y-56373000D01*
X94551399Y-56382667D01*
X94510197Y-56410197D01*
X94482667Y-56451399D01*
X94473000Y-56499664D01*
X94373335Y-94173000D01*
X93853719Y-94173000D01*
X90627000Y-90848502D01*
X90627000Y-56600000D01*
X90617333Y-56551399D01*
X90589803Y-56510197D01*
X90548601Y-56482667D01*
X90500000Y-56473000D01*
X90414709Y-56473000D01*
X90664078Y-56369708D01*
X90869712Y-56164074D01*
X90981000Y-55895401D01*
X90981000Y-55604591D01*
X90869712Y-55335918D01*
X90664078Y-55130284D01*
X90395405Y-55018996D01*
X90104595Y-55018996D01*
X89835922Y-55130284D01*
X89630288Y-55335918D01*
X89519000Y-55604591D01*
X89519000Y-55895401D01*
X89630288Y-56164074D01*
X89835922Y-56369708D01*
X90085291Y-56473000D01*
X89084940Y-56473000D01*
X88964229Y-56423000D01*
X88535771Y-56423000D01*
X88415060Y-56473000D01*
X87127000Y-56473000D01*
X87127000Y-49892595D01*
X91979000Y-49892595D01*
X91979000Y-50183405D01*
X92090288Y-50452078D01*
X92295922Y-50657712D01*
X92564595Y-50769000D01*
X92855405Y-50769000D01*
X93124078Y-50657712D01*
X93329712Y-50452078D01*
X93441000Y-50183405D01*
X93441000Y-49954595D01*
X94769000Y-49954595D01*
X94769000Y-50245405D01*
X94880288Y-50514078D01*
X95085922Y-50719712D01*
X95354595Y-50831000D01*
X95645405Y-50831000D01*
X95914078Y-50719712D01*
X96119712Y-50514078D01*
X96185772Y-50354595D01*
X98369000Y-50354595D01*
X98369000Y-50645405D01*
X98480288Y-50914078D01*
X98685922Y-51119712D01*
X98954595Y-51231000D01*
X99245405Y-51231000D01*
X99514078Y-51119712D01*
X99719712Y-50914078D01*
X99831000Y-50645405D01*
X99831000Y-50354595D01*
X99719712Y-50085922D01*
X99514078Y-49880288D01*
X99245405Y-49769000D01*
X98954595Y-49769000D01*
X98685922Y-49880288D01*
X98480288Y-50085922D01*
X98369000Y-50354595D01*
X96185772Y-50354595D01*
X96231000Y-50245405D01*
X96231000Y-49954595D01*
X96119712Y-49685922D01*
X95914078Y-49480288D01*
X95645405Y-49369000D01*
X95354595Y-49369000D01*
X95085922Y-49480288D01*
X94880288Y-49685922D01*
X94769000Y-49954595D01*
X93441000Y-49954595D01*
X93441000Y-49892595D01*
X93329712Y-49623922D01*
X93124078Y-49418288D01*
X92855405Y-49307000D01*
X92564595Y-49307000D01*
X92295922Y-49418288D01*
X92090288Y-49623922D01*
X91979000Y-49892595D01*
X87127000Y-49892595D01*
X87127000Y-48604597D01*
X90319000Y-48604597D01*
X90319000Y-48895407D01*
X90430288Y-49164080D01*
X90635922Y-49369714D01*
X90904595Y-49481002D01*
X91195405Y-49481002D01*
X91464078Y-49369714D01*
X91669712Y-49164080D01*
X91781000Y-48895407D01*
X91781000Y-48604597D01*
X91669712Y-48335924D01*
X91464078Y-48130290D01*
X91281335Y-48054595D01*
X99269000Y-48054595D01*
X99269000Y-48345405D01*
X99380288Y-48614078D01*
X99585922Y-48819712D01*
X99854595Y-48931000D01*
X100145405Y-48931000D01*
X100414078Y-48819712D01*
X100619712Y-48614078D01*
X100731000Y-48345405D01*
X100731000Y-48054595D01*
X100619712Y-47785922D01*
X100414078Y-47580288D01*
X100145405Y-47469000D01*
X99854595Y-47469000D01*
X99585922Y-47580288D01*
X99380288Y-47785922D01*
X99269000Y-48054595D01*
X91281335Y-48054595D01*
X91195405Y-48019002D01*
X90904595Y-48019002D01*
X90635922Y-48130290D01*
X90430288Y-48335924D01*
X90319000Y-48604597D01*
X87127000Y-48604597D01*
X87127000Y-45054595D01*
X97269000Y-45054595D01*
X97269000Y-45345405D01*
X97380288Y-45614078D01*
X97585922Y-45819712D01*
X97854595Y-45931000D01*
X98145405Y-45931000D01*
X98414078Y-45819712D01*
X98619712Y-45614078D01*
X98731000Y-45345405D01*
X98731000Y-45054595D01*
X98619712Y-44785922D01*
X98414078Y-44580288D01*
X98145405Y-44469000D01*
X97854595Y-44469000D01*
X97585922Y-44580288D01*
X97380288Y-44785922D01*
X97269000Y-45054595D01*
X87127000Y-45054595D01*
X87127000Y-44124595D01*
X94729000Y-44124595D01*
X94729000Y-44415405D01*
X94840288Y-44684078D01*
X95045922Y-44889712D01*
X95314595Y-45001000D01*
X95605405Y-45001000D01*
X95874078Y-44889712D01*
X96079712Y-44684078D01*
X96191000Y-44415405D01*
X96191000Y-44154595D01*
X100669000Y-44154595D01*
X100669000Y-44445405D01*
X100780288Y-44714078D01*
X100985922Y-44919712D01*
X101254595Y-45031000D01*
X101545405Y-45031000D01*
X101814078Y-44919712D01*
X102019712Y-44714078D01*
X102131000Y-44445405D01*
X102131000Y-44154595D01*
X102019712Y-43885922D01*
X101814078Y-43680288D01*
X101545405Y-43569000D01*
X101254595Y-43569000D01*
X100985922Y-43680288D01*
X100780288Y-43885922D01*
X100669000Y-44154595D01*
X96191000Y-44154595D01*
X96191000Y-44124595D01*
X96079712Y-43855922D01*
X95874078Y-43650288D01*
X95605405Y-43539000D01*
X95314595Y-43539000D01*
X95045922Y-43650288D01*
X94840288Y-43855922D01*
X94729000Y-44124595D01*
X87127000Y-44124595D01*
X87127000Y-39540000D01*
X92614096Y-39540000D01*
X92692950Y-39936423D01*
X92860823Y-40187663D01*
X94058021Y-41384862D01*
X94114704Y-41469694D01*
X94450776Y-41694250D01*
X94747134Y-41753199D01*
X94747135Y-41753199D01*
X94847198Y-41773103D01*
X94947262Y-41753199D01*
X96937305Y-41753199D01*
X96941410Y-41757304D01*
X96885922Y-41780288D01*
X96680288Y-41985922D01*
X96569000Y-42254595D01*
X96569000Y-42545405D01*
X96680288Y-42814078D01*
X96885922Y-43019712D01*
X97154595Y-43131000D01*
X97445405Y-43131000D01*
X97714078Y-43019712D01*
X97919712Y-42814078D01*
X97939403Y-42766540D01*
X98010549Y-42814078D01*
X98224521Y-42957050D01*
X98224522Y-42957050D01*
X98224523Y-42957051D01*
X98520881Y-43016000D01*
X98620945Y-43035904D01*
X98721009Y-43016000D01*
X101500065Y-43016000D01*
X101796423Y-42957051D01*
X102132495Y-42732495D01*
X102357051Y-42396423D01*
X102435904Y-42000000D01*
X102357051Y-41603577D01*
X102132495Y-41267505D01*
X101796423Y-41042949D01*
X101500065Y-40984000D01*
X99041787Y-40984000D01*
X98147325Y-40089538D01*
X98090640Y-40004704D01*
X97754568Y-39780148D01*
X97458210Y-39721199D01*
X97458208Y-39721199D01*
X97358145Y-39701295D01*
X97258082Y-39721199D01*
X95268040Y-39721199D01*
X94297663Y-38750823D01*
X94046423Y-38582950D01*
X93650000Y-38504096D01*
X93253577Y-38582950D01*
X92917506Y-38807506D01*
X92692950Y-39143577D01*
X92614096Y-39540000D01*
X87127000Y-39540000D01*
X87127000Y-37154595D01*
X92969000Y-37154595D01*
X92969000Y-37445405D01*
X93080288Y-37714078D01*
X93285922Y-37919712D01*
X93554595Y-38031000D01*
X93845405Y-38031000D01*
X94114078Y-37919712D01*
X94319712Y-37714078D01*
X94431000Y-37445405D01*
X94431000Y-37154595D01*
X94319712Y-36885922D01*
X94114078Y-36680288D01*
X93845405Y-36569000D01*
X93554595Y-36569000D01*
X93285922Y-36680288D01*
X93080288Y-36885922D01*
X92969000Y-37154595D01*
X87127000Y-37154595D01*
X87127000Y-19709745D01*
X88668936Y-16625872D01*
X89619130Y-16625872D01*
X89619130Y-17374128D01*
X89905476Y-18065427D01*
X90434573Y-18594524D01*
X91125872Y-18880870D01*
X91874128Y-18880870D01*
X92565427Y-18594524D01*
X93094524Y-18065427D01*
X93380870Y-17374128D01*
X93380870Y-16625872D01*
X96619130Y-16625872D01*
X96619130Y-17374128D01*
X96905476Y-18065427D01*
X97434573Y-18594524D01*
X98125872Y-18880870D01*
X98874128Y-18880870D01*
X99565427Y-18594524D01*
X100094524Y-18065427D01*
X100380870Y-17374128D01*
X100380870Y-16625872D01*
X100094524Y-15934573D01*
X99565427Y-15405476D01*
X98874128Y-15119130D01*
X98125872Y-15119130D01*
X97434573Y-15405476D01*
X96905476Y-15934573D01*
X96619130Y-16625872D01*
X93380870Y-16625872D01*
X93094524Y-15934573D01*
X92565427Y-15405476D01*
X91874128Y-15119130D01*
X91125872Y-15119130D01*
X90434573Y-15405476D01*
X89905476Y-15934573D01*
X89619130Y-16625872D01*
X88668936Y-16625872D01*
X90266373Y-13431000D01*
X99733627Y-13431000D01*
X102873000Y-19709747D01*
G04 #@! TD*
M02*
