M48
;DRILL file {KiCad 6.0.0-rc1-unknown-bc47f08~65~ubuntu16.04.1} date Tue Jul 24 22:08:21 2018
;FORMAT={-:-/ absolute / metric / decimal}
FMAT,2
METRIC,TZ
T1C0.400
T2C3.000
%
G90
G05
M71
T1
X88.75Y-57.5
X90.15Y-44.
X90.25Y-55.75
X91.05Y-48.75
X91.5Y-22.5
X91.55Y-39.7
X91.9Y-54.2
X92.71Y-50.038
X93.1Y-34.7
X93.65Y-39.54
X93.7Y-37.3
X95.2Y-37.4
X95.295Y-41.9
X95.3Y-39.
X95.46Y-44.27
X95.5Y-50.1
X96.204Y-57.246
X96.3Y-54.2
X97.3Y-42.4
X98.Y-45.2
X99.1Y-50.5
X99.8Y-51.5
X100.Y-39.25
X100.Y-48.2
X100.745Y-40.2
X100.75Y-39.5
X101.4Y-42.
X101.4Y-44.3
T2
X98.5Y-17.
X91.5Y-17.
T0
M30
