G04 #@! TF.GenerationSoftware,KiCad,Pcbnew,6.0.0-rc1-unknown-bc47f08~65~ubuntu16.04.1*
G04 #@! TF.CreationDate,2018-07-24T22:08:04+03:00*
G04 #@! TF.ProjectId,i2c-moist-sensor,6932632D6D6F6973742D73656E736F72,rev?*
G04 #@! TF.SameCoordinates,Original*
G04 #@! TF.FileFunction,Legend,Bot*
G04 #@! TF.FilePolarity,Positive*
%FSLAX46Y46*%
G04 Gerber Fmt 4.6, Leading zero omitted, Abs format (unit mm)*
G04 Created by KiCad (PCBNEW 6.0.0-rc1-unknown-bc47f08~65~ubuntu16.04.1) date Tue Jul 24 22:08:04 2018*
%MOMM*%
%LPD*%
G01*
G04 APERTURE LIST*
%ADD10C,0.110000*%
%ADD11C,0.300000*%
%ADD12C,1.000000*%
%ADD13C,1.727200*%
%ADD14R,1.727200X1.727200*%
%ADD15O,1.500000X2.500000*%
%ADD16R,1.500000X2.500000*%
G04 APERTURE END LIST*
D10*
X91670000Y-24966666D02*
X91636666Y-24900000D01*
X91636666Y-24800000D01*
X91670000Y-24700000D01*
X91736666Y-24633333D01*
X91803333Y-24600000D01*
X91936666Y-24566666D01*
X92036666Y-24566666D01*
X92170000Y-24600000D01*
X92236666Y-24633333D01*
X92303333Y-24700000D01*
X92336666Y-24800000D01*
X92336666Y-24866666D01*
X92303333Y-24966666D01*
X92270000Y-25000000D01*
X92036666Y-25000000D01*
X92036666Y-24866666D01*
X92336666Y-25300000D02*
X91636666Y-25300000D01*
X92336666Y-25700000D01*
X91636666Y-25700000D01*
X92336666Y-26033333D02*
X91636666Y-26033333D01*
X91636666Y-26200000D01*
X91670000Y-26300000D01*
X91736666Y-26366666D01*
X91803333Y-26400000D01*
X91936666Y-26433333D01*
X92036666Y-26433333D01*
X92170000Y-26400000D01*
X92236666Y-26366666D01*
X92303333Y-26300000D01*
X92336666Y-26200000D01*
X92336666Y-26033333D01*
X94623333Y-24650000D02*
X94656666Y-24750000D01*
X94656666Y-24916666D01*
X94623333Y-24983333D01*
X94590000Y-25016666D01*
X94523333Y-25050000D01*
X94456666Y-25050000D01*
X94390000Y-25016666D01*
X94356666Y-24983333D01*
X94323333Y-24916666D01*
X94290000Y-24783333D01*
X94256666Y-24716666D01*
X94223333Y-24683333D01*
X94156666Y-24650000D01*
X94090000Y-24650000D01*
X94023333Y-24683333D01*
X93990000Y-24716666D01*
X93956666Y-24783333D01*
X93956666Y-24950000D01*
X93990000Y-25050000D01*
X94656666Y-25350000D02*
X93956666Y-25350000D01*
X93956666Y-25516666D01*
X93990000Y-25616666D01*
X94056666Y-25683333D01*
X94123333Y-25716666D01*
X94256666Y-25750000D01*
X94356666Y-25750000D01*
X94490000Y-25716666D01*
X94556666Y-25683333D01*
X94623333Y-25616666D01*
X94656666Y-25516666D01*
X94656666Y-25350000D01*
X94456666Y-26016666D02*
X94456666Y-26350000D01*
X94656666Y-25950000D02*
X93956666Y-26183333D01*
X94656666Y-26416666D01*
X96943333Y-24666666D02*
X96976666Y-24766666D01*
X96976666Y-24933333D01*
X96943333Y-25000000D01*
X96910000Y-25033333D01*
X96843333Y-25066666D01*
X96776666Y-25066666D01*
X96710000Y-25033333D01*
X96676666Y-25000000D01*
X96643333Y-24933333D01*
X96610000Y-24800000D01*
X96576666Y-24733333D01*
X96543333Y-24700000D01*
X96476666Y-24666666D01*
X96410000Y-24666666D01*
X96343333Y-24700000D01*
X96310000Y-24733333D01*
X96276666Y-24800000D01*
X96276666Y-24966666D01*
X96310000Y-25066666D01*
X96910000Y-25766666D02*
X96943333Y-25733333D01*
X96976666Y-25633333D01*
X96976666Y-25566666D01*
X96943333Y-25466666D01*
X96876666Y-25400000D01*
X96810000Y-25366666D01*
X96676666Y-25333333D01*
X96576666Y-25333333D01*
X96443333Y-25366666D01*
X96376666Y-25400000D01*
X96310000Y-25466666D01*
X96276666Y-25566666D01*
X96276666Y-25633333D01*
X96310000Y-25733333D01*
X96343333Y-25766666D01*
X96976666Y-26400000D02*
X96976666Y-26066666D01*
X96276666Y-26066666D01*
X98596666Y-24566666D02*
X99296666Y-24800000D01*
X98596666Y-25033333D01*
X99230000Y-25666666D02*
X99263333Y-25633333D01*
X99296666Y-25533333D01*
X99296666Y-25466666D01*
X99263333Y-25366666D01*
X99196666Y-25300000D01*
X99130000Y-25266666D01*
X98996666Y-25233333D01*
X98896666Y-25233333D01*
X98763333Y-25266666D01*
X98696666Y-25300000D01*
X98630000Y-25366666D01*
X98596666Y-25466666D01*
X98596666Y-25533333D01*
X98630000Y-25633333D01*
X98663333Y-25666666D01*
X99230000Y-26366666D02*
X99263333Y-26333333D01*
X99296666Y-26233333D01*
X99296666Y-26166666D01*
X99263333Y-26066666D01*
X99196666Y-26000000D01*
X99130000Y-25966666D01*
X98996666Y-25933333D01*
X98896666Y-25933333D01*
X98763333Y-25966666D01*
X98696666Y-26000000D01*
X98630000Y-26066666D01*
X98596666Y-26166666D01*
X98596666Y-26233333D01*
X98630000Y-26333333D01*
X98663333Y-26366666D01*
D11*
X97064285Y-139892857D02*
X96992857Y-139964285D01*
X96921428Y-140178571D01*
X96921428Y-140321428D01*
X96992857Y-140535714D01*
X97135714Y-140678571D01*
X97278571Y-140750000D01*
X97564285Y-140821428D01*
X97778571Y-140821428D01*
X98064285Y-140750000D01*
X98207142Y-140678571D01*
X98350000Y-140535714D01*
X98421428Y-140321428D01*
X98421428Y-140178571D01*
X98350000Y-139964285D01*
X98278571Y-139892857D01*
X96921428Y-138607142D02*
X97707142Y-138607142D01*
X97850000Y-138678571D01*
X97921428Y-138821428D01*
X97921428Y-139107142D01*
X97850000Y-139250000D01*
X96992857Y-138607142D02*
X96921428Y-138750000D01*
X96921428Y-139107142D01*
X96992857Y-139250000D01*
X97135714Y-139321428D01*
X97278571Y-139321428D01*
X97421428Y-139250000D01*
X97492857Y-139107142D01*
X97492857Y-138750000D01*
X97564285Y-138607142D01*
X97921428Y-138107142D02*
X97921428Y-137535714D01*
X98421428Y-137892857D02*
X97135714Y-137892857D01*
X96992857Y-137821428D01*
X96921428Y-137678571D01*
X96921428Y-137535714D01*
X97921428Y-137035714D02*
X96921428Y-137035714D01*
X97778571Y-137035714D02*
X97850000Y-136964285D01*
X97921428Y-136821428D01*
X97921428Y-136607142D01*
X97850000Y-136464285D01*
X97707142Y-136392857D01*
X96921428Y-136392857D01*
X96921428Y-135678571D02*
X97921428Y-135678571D01*
X98421428Y-135678571D02*
X98350000Y-135750000D01*
X98278571Y-135678571D01*
X98350000Y-135607142D01*
X98421428Y-135678571D01*
X98278571Y-135678571D01*
X97921428Y-134964285D02*
X96421428Y-134964285D01*
X97850000Y-134964285D02*
X97921428Y-134821428D01*
X97921428Y-134535714D01*
X97850000Y-134392857D01*
X97778571Y-134321428D01*
X97635714Y-134250000D01*
X97207142Y-134250000D01*
X97064285Y-134321428D01*
X96992857Y-134392857D01*
X96921428Y-134535714D01*
X96921428Y-134821428D01*
X96992857Y-134964285D01*
X97707142Y-132464285D02*
X97707142Y-131964285D01*
X96921428Y-131750000D02*
X96921428Y-132464285D01*
X98421428Y-132464285D01*
X98421428Y-131750000D01*
X96921428Y-130892857D02*
X96992857Y-131035714D01*
X97135714Y-131107142D01*
X98421428Y-131107142D01*
X96992857Y-129750000D02*
X96921428Y-129892857D01*
X96921428Y-130178571D01*
X96992857Y-130321428D01*
X97135714Y-130392857D01*
X97707142Y-130392857D01*
X97850000Y-130321428D01*
X97921428Y-130178571D01*
X97921428Y-129892857D01*
X97850000Y-129750000D01*
X97707142Y-129678571D01*
X97564285Y-129678571D01*
X97421428Y-130392857D01*
X96992857Y-128392857D02*
X96921428Y-128535714D01*
X96921428Y-128821428D01*
X96992857Y-128964285D01*
X97064285Y-129035714D01*
X97207142Y-129107142D01*
X97635714Y-129107142D01*
X97778571Y-129035714D01*
X97850000Y-128964285D01*
X97921428Y-128821428D01*
X97921428Y-128535714D01*
X97850000Y-128392857D01*
X97921428Y-127964285D02*
X97921428Y-127392857D01*
X98421428Y-127750000D02*
X97135714Y-127750000D01*
X96992857Y-127678571D01*
X96921428Y-127535714D01*
X96921428Y-127392857D01*
X96921428Y-126892857D02*
X97921428Y-126892857D01*
X97635714Y-126892857D02*
X97778571Y-126821428D01*
X97850000Y-126750000D01*
X97921428Y-126607142D01*
X97921428Y-126464285D01*
X96921428Y-125750000D02*
X96992857Y-125892857D01*
X97064285Y-125964285D01*
X97207142Y-126035714D01*
X97635714Y-126035714D01*
X97778571Y-125964285D01*
X97850000Y-125892857D01*
X97921428Y-125750000D01*
X97921428Y-125535714D01*
X97850000Y-125392857D01*
X97778571Y-125321428D01*
X97635714Y-125250000D01*
X97207142Y-125250000D01*
X97064285Y-125321428D01*
X96992857Y-125392857D01*
X96921428Y-125535714D01*
X96921428Y-125750000D01*
X97921428Y-124607142D02*
X96921428Y-124607142D01*
X97778571Y-124607142D02*
X97850000Y-124535714D01*
X97921428Y-124392857D01*
X97921428Y-124178571D01*
X97850000Y-124035714D01*
X97707142Y-123964285D01*
X96921428Y-123964285D01*
X96921428Y-123250000D02*
X97921428Y-123250000D01*
X98421428Y-123250000D02*
X98350000Y-123321428D01*
X98278571Y-123250000D01*
X98350000Y-123178571D01*
X98421428Y-123250000D01*
X98278571Y-123250000D01*
X96992857Y-121892857D02*
X96921428Y-122035714D01*
X96921428Y-122321428D01*
X96992857Y-122464285D01*
X97064285Y-122535714D01*
X97207142Y-122607142D01*
X97635714Y-122607142D01*
X97778571Y-122535714D01*
X97850000Y-122464285D01*
X97921428Y-122321428D01*
X97921428Y-122035714D01*
X97850000Y-121892857D01*
X96992857Y-121321428D02*
X96921428Y-121178571D01*
X96921428Y-120892857D01*
X96992857Y-120750000D01*
X97135714Y-120678571D01*
X97207142Y-120678571D01*
X97350000Y-120750000D01*
X97421428Y-120892857D01*
X97421428Y-121107142D01*
X97492857Y-121250000D01*
X97635714Y-121321428D01*
X97707142Y-121321428D01*
X97850000Y-121250000D01*
X97921428Y-121107142D01*
X97921428Y-120892857D01*
X97850000Y-120750000D01*
X94371428Y-148035714D02*
X95871428Y-148035714D01*
X94371428Y-147392857D02*
X95157142Y-147392857D01*
X95300000Y-147464285D01*
X95371428Y-147607142D01*
X95371428Y-147821428D01*
X95300000Y-147964285D01*
X95228571Y-148035714D01*
X95371428Y-146892857D02*
X95371428Y-146321428D01*
X95871428Y-146678571D02*
X94585714Y-146678571D01*
X94442857Y-146607142D01*
X94371428Y-146464285D01*
X94371428Y-146321428D01*
X95371428Y-146035714D02*
X95371428Y-145464285D01*
X95871428Y-145821428D02*
X94585714Y-145821428D01*
X94442857Y-145750000D01*
X94371428Y-145607142D01*
X94371428Y-145464285D01*
X95371428Y-144964285D02*
X93871428Y-144964285D01*
X95300000Y-144964285D02*
X95371428Y-144821428D01*
X95371428Y-144535714D01*
X95300000Y-144392857D01*
X95228571Y-144321428D01*
X95085714Y-144250000D01*
X94657142Y-144250000D01*
X94514285Y-144321428D01*
X94442857Y-144392857D01*
X94371428Y-144535714D01*
X94371428Y-144821428D01*
X94442857Y-144964285D01*
X94514285Y-143607142D02*
X94442857Y-143535714D01*
X94371428Y-143607142D01*
X94442857Y-143678571D01*
X94514285Y-143607142D01*
X94371428Y-143607142D01*
X95300000Y-143607142D02*
X95228571Y-143535714D01*
X95157142Y-143607142D01*
X95228571Y-143678571D01*
X95300000Y-143607142D01*
X95157142Y-143607142D01*
X95942857Y-141821428D02*
X94014285Y-143107142D01*
X95942857Y-140250000D02*
X94014285Y-141535714D01*
X95371428Y-139892857D02*
X94371428Y-139607142D01*
X95085714Y-139321428D01*
X94371428Y-139035714D01*
X95371428Y-138750000D01*
X94442857Y-137607142D02*
X94371428Y-137750000D01*
X94371428Y-138035714D01*
X94442857Y-138178571D01*
X94585714Y-138250000D01*
X95157142Y-138250000D01*
X95300000Y-138178571D01*
X95371428Y-138035714D01*
X95371428Y-137750000D01*
X95300000Y-137607142D01*
X95157142Y-137535714D01*
X95014285Y-137535714D01*
X94871428Y-138250000D01*
X94371428Y-136892857D02*
X95371428Y-136892857D01*
X95228571Y-136892857D02*
X95300000Y-136821428D01*
X95371428Y-136678571D01*
X95371428Y-136464285D01*
X95300000Y-136321428D01*
X95157142Y-136250000D01*
X94371428Y-136250000D01*
X95157142Y-136250000D02*
X95300000Y-136178571D01*
X95371428Y-136035714D01*
X95371428Y-135821428D01*
X95300000Y-135678571D01*
X95157142Y-135607142D01*
X94371428Y-135607142D01*
X94371428Y-134250000D02*
X95157142Y-134250000D01*
X95300000Y-134321428D01*
X95371428Y-134464285D01*
X95371428Y-134750000D01*
X95300000Y-134892857D01*
X94442857Y-134250000D02*
X94371428Y-134392857D01*
X94371428Y-134750000D01*
X94442857Y-134892857D01*
X94585714Y-134964285D01*
X94728571Y-134964285D01*
X94871428Y-134892857D01*
X94942857Y-134750000D01*
X94942857Y-134392857D01*
X95014285Y-134250000D01*
X94371428Y-133535714D02*
X95871428Y-133535714D01*
X94942857Y-133392857D02*
X94371428Y-132964285D01*
X95371428Y-132964285D02*
X94800000Y-133535714D01*
X94442857Y-131750000D02*
X94371428Y-131892857D01*
X94371428Y-132178571D01*
X94442857Y-132321428D01*
X94585714Y-132392857D01*
X95157142Y-132392857D01*
X95300000Y-132321428D01*
X95371428Y-132178571D01*
X95371428Y-131892857D01*
X95300000Y-131750000D01*
X95157142Y-131678571D01*
X95014285Y-131678571D01*
X94871428Y-132392857D01*
X95371428Y-131250000D02*
X95371428Y-130678571D01*
X95871428Y-131035714D02*
X94585714Y-131035714D01*
X94442857Y-130964285D01*
X94371428Y-130821428D01*
X94371428Y-130678571D01*
X94371428Y-130178571D02*
X95871428Y-130178571D01*
X94371428Y-129535714D02*
X95157142Y-129535714D01*
X95300000Y-129607142D01*
X95371428Y-129750000D01*
X95371428Y-129964285D01*
X95300000Y-130107142D01*
X95228571Y-130178571D01*
X94371428Y-128821428D02*
X95371428Y-128821428D01*
X95871428Y-128821428D02*
X95800000Y-128892857D01*
X95728571Y-128821428D01*
X95800000Y-128750000D01*
X95871428Y-128821428D01*
X95728571Y-128821428D01*
X95371428Y-128107142D02*
X94371428Y-128107142D01*
X95228571Y-128107142D02*
X95300000Y-128035714D01*
X95371428Y-127892857D01*
X95371428Y-127678571D01*
X95300000Y-127535714D01*
X95157142Y-127464285D01*
X94371428Y-127464285D01*
X95371428Y-126107142D02*
X94157142Y-126107142D01*
X94014285Y-126178571D01*
X93942857Y-126250000D01*
X93871428Y-126392857D01*
X93871428Y-126607142D01*
X93942857Y-126750000D01*
X94442857Y-126107142D02*
X94371428Y-126250000D01*
X94371428Y-126535714D01*
X94442857Y-126678571D01*
X94514285Y-126750000D01*
X94657142Y-126821428D01*
X95085714Y-126821428D01*
X95228571Y-126750000D01*
X95300000Y-126678571D01*
X95371428Y-126535714D01*
X95371428Y-126250000D01*
X95300000Y-126107142D01*
X94442857Y-125464285D02*
X94371428Y-125321428D01*
X94371428Y-125035714D01*
X94442857Y-124892857D01*
X94585714Y-124821428D01*
X94657142Y-124821428D01*
X94800000Y-124892857D01*
X94871428Y-125035714D01*
X94871428Y-125250000D01*
X94942857Y-125392857D01*
X95085714Y-125464285D01*
X95157142Y-125464285D01*
X95300000Y-125392857D01*
X95371428Y-125250000D01*
X95371428Y-125035714D01*
X95300000Y-124892857D01*
X94514285Y-124178571D02*
X94442857Y-124107142D01*
X94371428Y-124178571D01*
X94442857Y-124250000D01*
X94514285Y-124178571D01*
X94371428Y-124178571D01*
X95371428Y-123464285D02*
X94371428Y-123464285D01*
X95228571Y-123464285D02*
X95300000Y-123392857D01*
X95371428Y-123250000D01*
X95371428Y-123035714D01*
X95300000Y-122892857D01*
X95157142Y-122821428D01*
X94371428Y-122821428D01*
X94442857Y-121535714D02*
X94371428Y-121678571D01*
X94371428Y-121964285D01*
X94442857Y-122107142D01*
X94585714Y-122178571D01*
X95157142Y-122178571D01*
X95300000Y-122107142D01*
X95371428Y-121964285D01*
X95371428Y-121678571D01*
X95300000Y-121535714D01*
X95157142Y-121464285D01*
X95014285Y-121464285D01*
X94871428Y-122178571D01*
X95371428Y-121035714D02*
X95371428Y-120464285D01*
X95871428Y-120821428D02*
X94585714Y-120821428D01*
X94442857Y-120750000D01*
X94371428Y-120607142D01*
X94371428Y-120464285D01*
X95942857Y-118892857D02*
X94014285Y-120178571D01*
X94442857Y-117750000D02*
X94371428Y-117892857D01*
X94371428Y-118178571D01*
X94442857Y-118321428D01*
X94514285Y-118392857D01*
X94657142Y-118464285D01*
X95085714Y-118464285D01*
X95228571Y-118392857D01*
X95300000Y-118321428D01*
X95371428Y-118178571D01*
X95371428Y-117892857D01*
X95300000Y-117750000D01*
X94371428Y-117107142D02*
X95871428Y-117107142D01*
X94371428Y-116464285D02*
X95157142Y-116464285D01*
X95300000Y-116535714D01*
X95371428Y-116678571D01*
X95371428Y-116892857D01*
X95300000Y-117035714D01*
X95228571Y-117107142D01*
X94371428Y-115750000D02*
X95371428Y-115750000D01*
X95871428Y-115750000D02*
X95800000Y-115821428D01*
X95728571Y-115750000D01*
X95800000Y-115678571D01*
X95871428Y-115750000D01*
X95728571Y-115750000D01*
X94371428Y-115035714D02*
X95371428Y-115035714D01*
X95085714Y-115035714D02*
X95228571Y-114964285D01*
X95300000Y-114892857D01*
X95371428Y-114750000D01*
X95371428Y-114607142D01*
X95371428Y-114107142D02*
X93871428Y-114107142D01*
X95300000Y-114107142D02*
X95371428Y-113964285D01*
X95371428Y-113678571D01*
X95300000Y-113535714D01*
X95228571Y-113464285D01*
X95085714Y-113392857D01*
X94657142Y-113392857D01*
X94514285Y-113464285D01*
X94442857Y-113535714D01*
X94371428Y-113678571D01*
X94371428Y-113964285D01*
X94442857Y-114107142D01*
X91821428Y-143250000D02*
X92821428Y-143250000D01*
X92678571Y-143250000D02*
X92750000Y-143178571D01*
X92821428Y-143035714D01*
X92821428Y-142821428D01*
X92750000Y-142678571D01*
X92607142Y-142607142D01*
X91821428Y-142607142D01*
X92607142Y-142607142D02*
X92750000Y-142535714D01*
X92821428Y-142392857D01*
X92821428Y-142178571D01*
X92750000Y-142035714D01*
X92607142Y-141964285D01*
X91821428Y-141964285D01*
X91821428Y-141250000D02*
X92821428Y-141250000D01*
X93321428Y-141250000D02*
X93250000Y-141321428D01*
X93178571Y-141250000D01*
X93250000Y-141178571D01*
X93321428Y-141250000D01*
X93178571Y-141250000D01*
X91892857Y-139892857D02*
X91821428Y-140035714D01*
X91821428Y-140321428D01*
X91892857Y-140464285D01*
X91964285Y-140535714D01*
X92107142Y-140607142D01*
X92535714Y-140607142D01*
X92678571Y-140535714D01*
X92750000Y-140464285D01*
X92821428Y-140321428D01*
X92821428Y-140035714D01*
X92750000Y-139892857D01*
X92535714Y-138321428D02*
X92607142Y-138392857D01*
X92678571Y-138535714D01*
X92678571Y-138678571D01*
X92607142Y-138821428D01*
X92535714Y-138892857D01*
X92392857Y-138964285D01*
X92250000Y-138964285D01*
X92107142Y-138892857D01*
X92035714Y-138821428D01*
X91964285Y-138678571D01*
X91964285Y-138535714D01*
X92035714Y-138392857D01*
X92107142Y-138321428D01*
X92678571Y-138321428D02*
X92107142Y-138321428D01*
X92035714Y-138250000D01*
X92035714Y-138178571D01*
X92107142Y-138035714D01*
X92250000Y-137964285D01*
X92607142Y-137964285D01*
X92821428Y-138107142D01*
X92964285Y-138321428D01*
X93035714Y-138607142D01*
X92964285Y-138892857D01*
X92821428Y-139107142D01*
X92607142Y-139250000D01*
X92321428Y-139321428D01*
X92035714Y-139250000D01*
X91821428Y-139107142D01*
X91678571Y-138892857D01*
X91607142Y-138607142D01*
X91678571Y-138321428D01*
X91821428Y-138107142D01*
X92821428Y-137464285D02*
X91821428Y-137178571D01*
X92535714Y-136892857D01*
X91821428Y-136607142D01*
X92821428Y-136321428D01*
X91892857Y-135178571D02*
X91821428Y-135321428D01*
X91821428Y-135607142D01*
X91892857Y-135750000D01*
X92035714Y-135821428D01*
X92607142Y-135821428D01*
X92750000Y-135750000D01*
X92821428Y-135607142D01*
X92821428Y-135321428D01*
X92750000Y-135178571D01*
X92607142Y-135107142D01*
X92464285Y-135107142D01*
X92321428Y-135821428D01*
X91821428Y-134464285D02*
X92821428Y-134464285D01*
X92678571Y-134464285D02*
X92750000Y-134392857D01*
X92821428Y-134250000D01*
X92821428Y-134035714D01*
X92750000Y-133892857D01*
X92607142Y-133821428D01*
X91821428Y-133821428D01*
X92607142Y-133821428D02*
X92750000Y-133750000D01*
X92821428Y-133607142D01*
X92821428Y-133392857D01*
X92750000Y-133250000D01*
X92607142Y-133178571D01*
X91821428Y-133178571D01*
X91821428Y-131821428D02*
X92607142Y-131821428D01*
X92750000Y-131892857D01*
X92821428Y-132035714D01*
X92821428Y-132321428D01*
X92750000Y-132464285D01*
X91892857Y-131821428D02*
X91821428Y-131964285D01*
X91821428Y-132321428D01*
X91892857Y-132464285D01*
X92035714Y-132535714D01*
X92178571Y-132535714D01*
X92321428Y-132464285D01*
X92392857Y-132321428D01*
X92392857Y-131964285D01*
X92464285Y-131821428D01*
X91821428Y-131107142D02*
X93321428Y-131107142D01*
X92392857Y-130964285D02*
X91821428Y-130535714D01*
X92821428Y-130535714D02*
X92250000Y-131107142D01*
X91892857Y-129321428D02*
X91821428Y-129464285D01*
X91821428Y-129750000D01*
X91892857Y-129892857D01*
X92035714Y-129964285D01*
X92607142Y-129964285D01*
X92750000Y-129892857D01*
X92821428Y-129750000D01*
X92821428Y-129464285D01*
X92750000Y-129321428D01*
X92607142Y-129250000D01*
X92464285Y-129250000D01*
X92321428Y-129964285D01*
X92821428Y-128821428D02*
X92821428Y-128250000D01*
X93321428Y-128607142D02*
X92035714Y-128607142D01*
X91892857Y-128535714D01*
X91821428Y-128392857D01*
X91821428Y-128250000D01*
X91821428Y-127750000D02*
X93321428Y-127750000D01*
X91821428Y-127107142D02*
X92607142Y-127107142D01*
X92750000Y-127178571D01*
X92821428Y-127321428D01*
X92821428Y-127535714D01*
X92750000Y-127678571D01*
X92678571Y-127750000D01*
X91821428Y-126392857D02*
X92821428Y-126392857D01*
X93321428Y-126392857D02*
X93250000Y-126464285D01*
X93178571Y-126392857D01*
X93250000Y-126321428D01*
X93321428Y-126392857D01*
X93178571Y-126392857D01*
X92821428Y-125678571D02*
X91821428Y-125678571D01*
X92678571Y-125678571D02*
X92750000Y-125607142D01*
X92821428Y-125464285D01*
X92821428Y-125250000D01*
X92750000Y-125107142D01*
X92607142Y-125035714D01*
X91821428Y-125035714D01*
X92821428Y-123678571D02*
X91607142Y-123678571D01*
X91464285Y-123750000D01*
X91392857Y-123821428D01*
X91321428Y-123964285D01*
X91321428Y-124178571D01*
X91392857Y-124321428D01*
X91892857Y-123678571D02*
X91821428Y-123821428D01*
X91821428Y-124107142D01*
X91892857Y-124250000D01*
X91964285Y-124321428D01*
X92107142Y-124392857D01*
X92535714Y-124392857D01*
X92678571Y-124321428D01*
X92750000Y-124250000D01*
X92821428Y-124107142D01*
X92821428Y-123821428D01*
X92750000Y-123678571D01*
X91892857Y-123035714D02*
X91821428Y-122892857D01*
X91821428Y-122607142D01*
X91892857Y-122464285D01*
X92035714Y-122392857D01*
X92107142Y-122392857D01*
X92250000Y-122464285D01*
X92321428Y-122607142D01*
X92321428Y-122821428D01*
X92392857Y-122964285D01*
X92535714Y-123035714D01*
X92607142Y-123035714D01*
X92750000Y-122964285D01*
X92821428Y-122821428D01*
X92821428Y-122607142D01*
X92750000Y-122464285D01*
X91964285Y-121750000D02*
X91892857Y-121678571D01*
X91821428Y-121750000D01*
X91892857Y-121821428D01*
X91964285Y-121750000D01*
X91821428Y-121750000D01*
X92821428Y-121035714D02*
X91821428Y-121035714D01*
X92678571Y-121035714D02*
X92750000Y-120964285D01*
X92821428Y-120821428D01*
X92821428Y-120607142D01*
X92750000Y-120464285D01*
X92607142Y-120392857D01*
X91821428Y-120392857D01*
X91892857Y-119107142D02*
X91821428Y-119250000D01*
X91821428Y-119535714D01*
X91892857Y-119678571D01*
X92035714Y-119750000D01*
X92607142Y-119750000D01*
X92750000Y-119678571D01*
X92821428Y-119535714D01*
X92821428Y-119250000D01*
X92750000Y-119107142D01*
X92607142Y-119035714D01*
X92464285Y-119035714D01*
X92321428Y-119750000D01*
X92821428Y-118607142D02*
X92821428Y-118035714D01*
X93321428Y-118392857D02*
X92035714Y-118392857D01*
X91892857Y-118321428D01*
X91821428Y-118178571D01*
X91821428Y-118035714D01*
D12*
X87000000Y-91000000D02*
X103000000Y-91000000D01*
%LPC*%
D13*
G04 #@! TO.C,P1*
X95460000Y-41730000D03*
X95460000Y-44270000D03*
X98000000Y-41730000D03*
X98000000Y-44270000D03*
X100540000Y-41730000D03*
D14*
X100540000Y-44270000D03*
G04 #@! TD*
D15*
G04 #@! TO.C,P2*
X99120000Y-22500000D03*
X96580000Y-22500000D03*
X94040000Y-22500000D03*
D16*
X91500000Y-22500000D03*
G04 #@! TD*
M02*
