G04 #@! TF.GenerationSoftware,KiCad,Pcbnew,6.0.0-rc1-unknown-0bceb69~66~ubuntu16.04.1*
G04 #@! TF.CreationDate,2018-12-05T15:47:40+02:00
G04 #@! TF.ProjectId,i2c-moist-sensor,6932632d-6d6f-4697-9374-2d73656e736f,rev?*
G04 #@! TF.SameCoordinates,Original*
G04 #@! TF.FileFunction,Paste,Top*
G04 #@! TF.FilePolarity,Positive*
%FSLAX46Y46*%
G04 Gerber Fmt 4.6, Leading zero omitted, Abs format (unit mm)*
G04 Created by KiCad (PCBNEW 6.0.0-rc1-unknown-0bceb69~66~ubuntu16.04.1) date Wed 05 Dec 2018 03:47:40 PM EET*
%MOMM*%
%LPD*%
G04 APERTURE LIST*
%ADD10C,0.100000*%
%ADD11C,0.869000*%
%ADD12R,1.194000X1.394000*%
%ADD13R,0.594000X0.694000*%
%ADD14R,0.794000X0.744000*%
%ADD15R,0.494000X0.894000*%
%ADD16R,1.494000X0.594000*%
G04 APERTURE END LIST*
D10*
G04 #@! TO.C,D3*
G36*
X98726044Y-36029046D02*
G01*
X98747133Y-36032174D01*
X98767814Y-36037355D01*
X98787888Y-36044537D01*
X98807161Y-36053653D01*
X98825448Y-36064613D01*
X98842572Y-36077313D01*
X98858369Y-36091631D01*
X98872687Y-36107428D01*
X98885387Y-36124552D01*
X98896347Y-36142839D01*
X98905463Y-36162112D01*
X98912645Y-36182186D01*
X98917826Y-36202867D01*
X98920954Y-36223956D01*
X98922000Y-36245250D01*
X98922000Y-36754750D01*
X98920954Y-36776044D01*
X98917826Y-36797133D01*
X98912645Y-36817814D01*
X98905463Y-36837888D01*
X98896347Y-36857161D01*
X98885387Y-36875448D01*
X98872687Y-36892572D01*
X98858369Y-36908369D01*
X98842572Y-36922687D01*
X98825448Y-36935387D01*
X98807161Y-36946347D01*
X98787888Y-36955463D01*
X98767814Y-36962645D01*
X98747133Y-36967826D01*
X98726044Y-36970954D01*
X98704750Y-36972000D01*
X98270250Y-36972000D01*
X98248956Y-36970954D01*
X98227867Y-36967826D01*
X98207186Y-36962645D01*
X98187112Y-36955463D01*
X98167839Y-36946347D01*
X98149552Y-36935387D01*
X98132428Y-36922687D01*
X98116631Y-36908369D01*
X98102313Y-36892572D01*
X98089613Y-36875448D01*
X98078653Y-36857161D01*
X98069537Y-36837888D01*
X98062355Y-36817814D01*
X98057174Y-36797133D01*
X98054046Y-36776044D01*
X98053000Y-36754750D01*
X98053000Y-36245250D01*
X98054046Y-36223956D01*
X98057174Y-36202867D01*
X98062355Y-36182186D01*
X98069537Y-36162112D01*
X98078653Y-36142839D01*
X98089613Y-36124552D01*
X98102313Y-36107428D01*
X98116631Y-36091631D01*
X98132428Y-36077313D01*
X98149552Y-36064613D01*
X98167839Y-36053653D01*
X98187112Y-36044537D01*
X98207186Y-36037355D01*
X98227867Y-36032174D01*
X98248956Y-36029046D01*
X98270250Y-36028000D01*
X98704750Y-36028000D01*
X98726044Y-36029046D01*
X98726044Y-36029046D01*
G37*
D11*
X98487500Y-36500000D03*
D10*
G36*
X97151044Y-36029046D02*
G01*
X97172133Y-36032174D01*
X97192814Y-36037355D01*
X97212888Y-36044537D01*
X97232161Y-36053653D01*
X97250448Y-36064613D01*
X97267572Y-36077313D01*
X97283369Y-36091631D01*
X97297687Y-36107428D01*
X97310387Y-36124552D01*
X97321347Y-36142839D01*
X97330463Y-36162112D01*
X97337645Y-36182186D01*
X97342826Y-36202867D01*
X97345954Y-36223956D01*
X97347000Y-36245250D01*
X97347000Y-36754750D01*
X97345954Y-36776044D01*
X97342826Y-36797133D01*
X97337645Y-36817814D01*
X97330463Y-36837888D01*
X97321347Y-36857161D01*
X97310387Y-36875448D01*
X97297687Y-36892572D01*
X97283369Y-36908369D01*
X97267572Y-36922687D01*
X97250448Y-36935387D01*
X97232161Y-36946347D01*
X97212888Y-36955463D01*
X97192814Y-36962645D01*
X97172133Y-36967826D01*
X97151044Y-36970954D01*
X97129750Y-36972000D01*
X96695250Y-36972000D01*
X96673956Y-36970954D01*
X96652867Y-36967826D01*
X96632186Y-36962645D01*
X96612112Y-36955463D01*
X96592839Y-36946347D01*
X96574552Y-36935387D01*
X96557428Y-36922687D01*
X96541631Y-36908369D01*
X96527313Y-36892572D01*
X96514613Y-36875448D01*
X96503653Y-36857161D01*
X96494537Y-36837888D01*
X96487355Y-36817814D01*
X96482174Y-36797133D01*
X96479046Y-36776044D01*
X96478000Y-36754750D01*
X96478000Y-36245250D01*
X96479046Y-36223956D01*
X96482174Y-36202867D01*
X96487355Y-36182186D01*
X96494537Y-36162112D01*
X96503653Y-36142839D01*
X96514613Y-36124552D01*
X96527313Y-36107428D01*
X96541631Y-36091631D01*
X96557428Y-36077313D01*
X96574552Y-36064613D01*
X96592839Y-36053653D01*
X96612112Y-36044537D01*
X96632186Y-36037355D01*
X96652867Y-36032174D01*
X96673956Y-36029046D01*
X96695250Y-36028000D01*
X97129750Y-36028000D01*
X97151044Y-36029046D01*
X97151044Y-36029046D01*
G37*
D11*
X96912500Y-36500000D03*
G04 #@! TD*
D12*
G04 #@! TO.C,X1*
X91800000Y-42900000D03*
X91800000Y-40700000D03*
X90100000Y-40700000D03*
X90100000Y-42900000D03*
G04 #@! TD*
D13*
G04 #@! TO.C,D2*
X96204000Y-56642000D03*
X94804000Y-56642000D03*
G04 #@! TD*
G04 #@! TO.C,D1*
X93410000Y-56642000D03*
X92010000Y-56642000D03*
G04 #@! TD*
D14*
G04 #@! TO.C,C1*
X91700000Y-44700000D03*
X90200000Y-44700000D03*
G04 #@! TD*
G04 #@! TO.C,C2*
X90000000Y-38900000D03*
X91500000Y-38900000D03*
G04 #@! TD*
G04 #@! TO.C,C3*
X93650000Y-38200000D03*
X95150000Y-38200000D03*
G04 #@! TD*
G04 #@! TO.C,C4*
X93400000Y-55150000D03*
X91900000Y-55150000D03*
G04 #@! TD*
G04 #@! TO.C,C5*
X94800000Y-55150000D03*
X96300000Y-55150000D03*
G04 #@! TD*
G04 #@! TO.C,C6*
X95250000Y-34700000D03*
X93750000Y-34700000D03*
G04 #@! TD*
D15*
G04 #@! TO.C,R1*
X95200000Y-36300000D03*
X93700000Y-36300000D03*
G04 #@! TD*
G04 #@! TO.C,R2*
X96278000Y-49784000D03*
X97778000Y-49784000D03*
G04 #@! TD*
G04 #@! TO.C,R4*
X88950000Y-56750000D03*
X90450000Y-56750000D03*
G04 #@! TD*
G04 #@! TO.C,R5*
X93460000Y-51562000D03*
X91960000Y-51562000D03*
G04 #@! TD*
G04 #@! TO.C,R6*
X94754000Y-51562000D03*
X96254000Y-51562000D03*
G04 #@! TD*
G04 #@! TO.C,R7*
X91960000Y-53340000D03*
X93460000Y-53340000D03*
G04 #@! TD*
G04 #@! TO.C,R8*
X96254000Y-53340000D03*
X94754000Y-53340000D03*
G04 #@! TD*
G04 #@! TO.C,R9*
X98550000Y-38200000D03*
X97050000Y-38200000D03*
G04 #@! TD*
G04 #@! TO.C,TH1*
X97750000Y-51500000D03*
X99250000Y-51500000D03*
G04 #@! TD*
D16*
G04 #@! TO.C,IC1*
X94100000Y-39990000D03*
X94100000Y-41260000D03*
X94100000Y-42530000D03*
X94100000Y-43800000D03*
X94100000Y-45070000D03*
X94100000Y-46340000D03*
X94100000Y-47610000D03*
X99500000Y-47610000D03*
X99500000Y-46340000D03*
X99500000Y-45070000D03*
X99500000Y-43800000D03*
X99500000Y-42530000D03*
X99500000Y-41260000D03*
X99500000Y-39990000D03*
G04 #@! TD*
M02*
