G04 #@! TF.GenerationSoftware,KiCad,Pcbnew,6.0.0-rc1-unknown-bc47f08~65~ubuntu16.04.1*
G04 #@! TF.CreationDate,2018-07-24T22:08:04+03:00*
G04 #@! TF.ProjectId,i2c-moist-sensor,6932632D6D6F6973742D73656E736F72,rev?*
G04 #@! TF.SameCoordinates,Original*
G04 #@! TF.FileFunction,Copper,L1,Top,Signal*
G04 #@! TF.FilePolarity,Positive*
%FSLAX46Y46*%
G04 Gerber Fmt 4.6, Leading zero omitted, Abs format (unit mm)*
G04 Created by KiCad (PCBNEW 6.0.0-rc1-unknown-bc47f08~65~ubuntu16.04.1) date Tue Jul 24 22:08:04 2018*
%MOMM*%
%LPD*%
G01*
G04 APERTURE LIST*
G04 #@! TA.AperFunction,SMDPad,CuDef*
%ADD10R,1.200000X1.400000*%
G04 #@! TD*
G04 #@! TA.AperFunction,SMDPad,CuDef*
%ADD11R,0.800000X0.800000*%
G04 #@! TD*
G04 #@! TA.AperFunction,SMDPad,CuDef*
%ADD12R,0.600000X0.700000*%
G04 #@! TD*
G04 #@! TA.AperFunction,SMDPad,CuDef*
%ADD13R,0.800000X0.750000*%
G04 #@! TD*
G04 #@! TA.AperFunction,SMDPad,CuDef*
%ADD14R,0.500000X0.900000*%
G04 #@! TD*
G04 #@! TA.AperFunction,SMDPad,CuDef*
%ADD15R,1.500000X0.600000*%
G04 #@! TD*
G04 #@! TA.AperFunction,ViaPad*
%ADD16C,0.700000*%
G04 #@! TD*
G04 #@! TA.AperFunction,Conductor*
%ADD17C,0.508000*%
G04 #@! TD*
G04 #@! TA.AperFunction,Conductor*
%ADD18C,0.254000*%
G04 #@! TD*
G04 #@! TA.AperFunction,Conductor*
%ADD19C,1.270000*%
G04 #@! TD*
G04 APERTURE END LIST*
D10*
G04 #@! TO.P,X1,1*
G04 #@! TO.N,Net-(C1-Pad1)*
X91800000Y-42900000D03*
G04 #@! TO.P,X1,2*
G04 #@! TO.N,GND*
X91800000Y-40700000D03*
G04 #@! TO.P,X1,3*
G04 #@! TO.N,Net-(C2-Pad1)*
X90100000Y-40700000D03*
G04 #@! TO.P,X1,4*
G04 #@! TO.N,GND*
X90100000Y-42900000D03*
G04 #@! TD*
D11*
G04 #@! TO.P,D3,1*
G04 #@! TO.N,Net-(D3-Pad1)*
X100225000Y-36500000D03*
G04 #@! TO.P,D3,2*
G04 #@! TO.N,Net-(D3-Pad2)*
X98575000Y-36500000D03*
G04 #@! TD*
D12*
G04 #@! TO.P,D2,1*
G04 #@! TO.N,/SENSOR_TRACK*
X96204000Y-56642000D03*
G04 #@! TO.P,D2,2*
G04 #@! TO.N,/MISO/SENSE_HIGH*
X94804000Y-56642000D03*
G04 #@! TD*
G04 #@! TO.P,D1,1*
G04 #@! TO.N,/SENSE_LOW*
X93410000Y-56642000D03*
G04 #@! TO.P,D1,2*
G04 #@! TO.N,/SENSOR_TRACK*
X92010000Y-56642000D03*
G04 #@! TD*
D13*
G04 #@! TO.P,C1,1*
G04 #@! TO.N,Net-(C1-Pad1)*
X91700000Y-44700000D03*
G04 #@! TO.P,C1,2*
G04 #@! TO.N,GND*
X90200000Y-44700000D03*
G04 #@! TD*
G04 #@! TO.P,C2,1*
G04 #@! TO.N,Net-(C2-Pad1)*
X90000000Y-38900000D03*
G04 #@! TO.P,C2,2*
G04 #@! TO.N,GND*
X91500000Y-38900000D03*
G04 #@! TD*
G04 #@! TO.P,C3,1*
G04 #@! TO.N,VCC*
X93650000Y-38200000D03*
G04 #@! TO.P,C3,2*
G04 #@! TO.N,GND*
X95150000Y-38200000D03*
G04 #@! TD*
G04 #@! TO.P,C4,1*
G04 #@! TO.N,/SENSE_LOW*
X93400000Y-55150000D03*
G04 #@! TO.P,C4,2*
G04 #@! TO.N,GND*
X91900000Y-55150000D03*
G04 #@! TD*
G04 #@! TO.P,C5,1*
G04 #@! TO.N,/MISO/SENSE_HIGH*
X94800000Y-55150000D03*
G04 #@! TO.P,C5,2*
G04 #@! TO.N,GND*
X96300000Y-55150000D03*
G04 #@! TD*
G04 #@! TO.P,C6,1*
G04 #@! TO.N,/RESET*
X95250000Y-34700000D03*
G04 #@! TO.P,C6,2*
G04 #@! TO.N,GND*
X93750000Y-34700000D03*
G04 #@! TD*
D14*
G04 #@! TO.P,R1,1*
G04 #@! TO.N,/RESET*
X95200000Y-36300000D03*
G04 #@! TO.P,R1,2*
G04 #@! TO.N,VCC*
X93700000Y-36300000D03*
G04 #@! TD*
G04 #@! TO.P,R2,1*
G04 #@! TO.N,Net-(IC1-Pad11)*
X96278000Y-49784000D03*
G04 #@! TO.P,R2,2*
G04 #@! TO.N,/THERMISTOR*
X97778000Y-49784000D03*
G04 #@! TD*
G04 #@! TO.P,R4,1*
G04 #@! TO.N,/SENSOR_TRACK*
X88750000Y-56750000D03*
G04 #@! TO.P,R4,2*
G04 #@! TO.N,/EXCITATION*
X90250000Y-56750000D03*
G04 #@! TD*
G04 #@! TO.P,R5,1*
G04 #@! TO.N,/SENSE_LOW*
X93460000Y-51562000D03*
G04 #@! TO.P,R5,2*
G04 #@! TO.N,Net-(IC1-Pad11)*
X91960000Y-51562000D03*
G04 #@! TD*
G04 #@! TO.P,R6,1*
G04 #@! TO.N,/MISO/SENSE_HIGH*
X94754000Y-51562000D03*
G04 #@! TO.P,R6,2*
G04 #@! TO.N,Net-(IC1-Pad11)*
X96254000Y-51562000D03*
G04 #@! TD*
G04 #@! TO.P,R7,1*
G04 #@! TO.N,GND*
X91960000Y-53340000D03*
G04 #@! TO.P,R7,2*
G04 #@! TO.N,/SENSE_LOW*
X93460000Y-53340000D03*
G04 #@! TD*
G04 #@! TO.P,R8,1*
G04 #@! TO.N,GND*
X96254000Y-53340000D03*
G04 #@! TO.P,R8,2*
G04 #@! TO.N,/MISO/SENSE_HIGH*
X94754000Y-53340000D03*
G04 #@! TD*
G04 #@! TO.P,R9,1*
G04 #@! TO.N,Net-(D3-Pad2)*
X100200000Y-38200000D03*
G04 #@! TO.P,R9,2*
G04 #@! TO.N,Net-(IC1-Pad12)*
X98700000Y-38200000D03*
G04 #@! TD*
G04 #@! TO.P,TH1,1*
G04 #@! TO.N,/THERMISTOR*
X97750000Y-51500000D03*
G04 #@! TO.P,TH1,2*
G04 #@! TO.N,GND*
X99250000Y-51500000D03*
G04 #@! TD*
D15*
G04 #@! TO.P,IC1,1*
G04 #@! TO.N,VCC*
X94100000Y-39990000D03*
G04 #@! TO.P,IC1,2*
G04 #@! TO.N,Net-(C2-Pad1)*
X94100000Y-41260000D03*
G04 #@! TO.P,IC1,3*
G04 #@! TO.N,Net-(C1-Pad1)*
X94100000Y-42530000D03*
G04 #@! TO.P,IC1,4*
G04 #@! TO.N,/RESET*
X94100000Y-43800000D03*
G04 #@! TO.P,IC1,5*
G04 #@! TO.N,/EXCITATION*
X94100000Y-45070000D03*
G04 #@! TO.P,IC1,6*
G04 #@! TO.N,/SENSE_LOW*
X94100000Y-46340000D03*
G04 #@! TO.P,IC1,7*
G04 #@! TO.N,/MOSI/SDA*
X94100000Y-47610000D03*
G04 #@! TO.P,IC1,8*
G04 #@! TO.N,/MISO/SENSE_HIGH*
X99500000Y-47610000D03*
G04 #@! TO.P,IC1,9*
G04 #@! TO.N,/SCK/SCL*
X99500000Y-46340000D03*
G04 #@! TO.P,IC1,10*
G04 #@! TO.N,/THERMISTOR*
X99500000Y-45070000D03*
G04 #@! TO.P,IC1,11*
G04 #@! TO.N,Net-(IC1-Pad11)*
X99500000Y-43800000D03*
G04 #@! TO.P,IC1,12*
G04 #@! TO.N,Net-(IC1-Pad12)*
X99500000Y-42530000D03*
G04 #@! TO.P,IC1,13*
G04 #@! TO.N,Net-(D3-Pad1)*
X99500000Y-41260000D03*
G04 #@! TO.P,IC1,14*
G04 #@! TO.N,GND*
X99500000Y-39990000D03*
G04 #@! TD*
D16*
G04 #@! TO.N,GND*
X99800000Y-51500000D03*
X95300000Y-39000000D03*
X95200000Y-37400000D03*
X93100000Y-34700000D03*
X95294552Y-41900000D03*
X91550000Y-39700000D03*
X90150000Y-44000000D03*
X91500000Y-22500000D03*
X100745190Y-40200000D03*
X100750000Y-39500000D03*
X100000000Y-39250006D03*
X91900000Y-54200000D03*
X96300000Y-54200000D03*
G04 #@! TO.N,VCC*
X93700000Y-37300000D03*
X101400000Y-42000000D03*
X93650000Y-39540000D03*
G04 #@! TO.N,/SENSOR_TRACK*
X88750000Y-57500000D03*
X96204000Y-57246000D03*
G04 #@! TO.N,/RESET*
X95460000Y-44270000D03*
G04 #@! TO.N,/EXCITATION*
X90250000Y-55749996D03*
X91050000Y-48750002D03*
G04 #@! TO.N,/SCK/SCL*
X98000000Y-45200000D03*
G04 #@! TO.N,/MOSI/SDA*
X97300000Y-42400000D03*
G04 #@! TO.N,/MISO/SENSE_HIGH*
X101400000Y-44300000D03*
X100000000Y-48200000D03*
G04 #@! TO.N,Net-(IC1-Pad11)*
X95500000Y-50100000D03*
X99100000Y-50500000D03*
X92710000Y-50038000D03*
G04 #@! TD*
D17*
G04 #@! TO.N,Net-(C1-Pad1)*
X91700000Y-43000000D02*
X91800000Y-42900000D01*
X91700000Y-44700000D02*
X91700000Y-43000000D01*
D18*
X92170000Y-42530000D02*
X91800000Y-42900000D01*
X94100000Y-42530000D02*
X92170000Y-42530000D01*
G04 #@! TO.N,GND*
X99250000Y-51500000D02*
X99800000Y-51500000D01*
D17*
X95300000Y-38505026D02*
X95300000Y-39000000D01*
X95300000Y-38350000D02*
X95300000Y-38505026D01*
X95150000Y-38200000D02*
X95300000Y-38350000D01*
X95150000Y-38200000D02*
X95150000Y-37450000D01*
X95150000Y-37450000D02*
X95200000Y-37400000D01*
D18*
X90100000Y-43650000D02*
X90150000Y-43700000D01*
X90100000Y-42900000D02*
X90100000Y-43650000D01*
D17*
X90200000Y-44050000D02*
X90150000Y-44000000D01*
X90200000Y-44700000D02*
X90200000Y-44050000D01*
D18*
X91500000Y-39650000D02*
X91550000Y-39700000D01*
X91500000Y-38900000D02*
X91500000Y-39650000D01*
X91800000Y-39950000D02*
X91550000Y-39700000D01*
X91800000Y-40700000D02*
X91800000Y-39950000D01*
D17*
X91900000Y-53400000D02*
X91960000Y-53340000D01*
X91900000Y-55150000D02*
X91900000Y-53400000D01*
D18*
X91900000Y-55058000D02*
X91900000Y-54694974D01*
X91900000Y-54694974D02*
X91900000Y-54200000D01*
X91960000Y-55118000D02*
X91900000Y-55058000D01*
X91960000Y-54140000D02*
X91900000Y-54200000D01*
X91960000Y-53340000D02*
X91960000Y-54140000D01*
D17*
X96300000Y-53386000D02*
X96254000Y-53340000D01*
X96300000Y-55150000D02*
X96300000Y-53386000D01*
X96300000Y-53374000D02*
X96300000Y-53705026D01*
X96300000Y-53705026D02*
X96300000Y-54200000D01*
X96266000Y-53340000D02*
X96300000Y-53374000D01*
X93750000Y-34700000D02*
X93100000Y-34700000D01*
X99500000Y-39750006D02*
X100000000Y-39250006D01*
X99500000Y-39990000D02*
X99500000Y-39750006D01*
X100535190Y-39990000D02*
X100745190Y-40200000D01*
X99500000Y-39990000D02*
X100535190Y-39990000D01*
X100260000Y-39990000D02*
X100750000Y-39500000D01*
X99500000Y-39990000D02*
X100260000Y-39990000D01*
D18*
G04 #@! TO.N,Net-(C2-Pad1)*
X90000000Y-40600000D02*
X90100000Y-40700000D01*
D17*
X89950000Y-40550000D02*
X90100000Y-40700000D01*
X89950000Y-38950000D02*
X89950000Y-40550000D01*
D18*
X90100000Y-40800000D02*
X90100000Y-40700000D01*
X91004801Y-41704801D02*
X90100000Y-40800000D01*
X93096000Y-41260000D02*
X94100000Y-41260000D01*
X92651199Y-41704801D02*
X93096000Y-41260000D01*
X91004801Y-41704801D02*
X92651199Y-41704801D01*
D19*
G04 #@! TO.N,VCC*
X93650000Y-38200000D02*
X93650000Y-37350000D01*
X93650000Y-37350000D02*
X93700000Y-37300000D01*
X93700000Y-36300000D02*
X93700000Y-37300000D01*
X94100000Y-39990000D02*
X93650000Y-39540000D01*
X93650000Y-39540000D02*
X93650000Y-38200000D01*
D17*
X93800000Y-38350000D02*
X93650000Y-38200000D01*
G04 #@! TO.N,/SENSE_LOW*
X93410000Y-55180000D02*
X93472000Y-55118000D01*
X93410000Y-56642000D02*
X93410000Y-55180000D01*
X93472000Y-55118000D02*
X93472000Y-53340000D01*
X93472000Y-53340000D02*
X93472000Y-51562000D01*
D18*
X93472000Y-51562000D02*
X93472000Y-51308000D01*
X93650000Y-46340000D02*
X94100000Y-46340000D01*
X92945199Y-47044801D02*
X93650000Y-46340000D01*
X92945199Y-49304093D02*
X92945199Y-47044801D01*
X93460000Y-49818894D02*
X92945199Y-49304093D01*
X93460000Y-51562000D02*
X93460000Y-49818894D01*
G04 #@! TO.N,/SENSOR_TRACK*
X96204000Y-56642000D02*
X96204000Y-57246000D01*
X96204000Y-57246000D02*
X95730999Y-57719001D01*
X92483001Y-57719001D02*
X92010000Y-57246000D01*
X95730999Y-57719001D02*
X92483001Y-57719001D01*
X92010000Y-57246000D02*
X92010000Y-56642000D01*
X88750000Y-56750000D02*
X88750000Y-57500000D01*
X96204000Y-57023000D02*
X96204000Y-57246000D01*
X96204000Y-57246000D02*
X96204000Y-57023000D01*
D17*
G04 #@! TO.N,/THERMISTOR*
X97778000Y-49784000D02*
X97778000Y-51472000D01*
X97778000Y-51472000D02*
X97750000Y-51500000D01*
D18*
X97778000Y-49784000D02*
X99416000Y-49784000D01*
X100800000Y-45500000D02*
X100370000Y-45070000D01*
X99416000Y-49784000D02*
X100800000Y-48400000D01*
X100800000Y-48400000D02*
X100800000Y-45500000D01*
X100370000Y-45070000D02*
X99500000Y-45070000D01*
G04 #@! TO.N,/RESET*
X94100000Y-43800000D02*
X94800000Y-43800000D01*
X94800000Y-43800000D02*
X94800000Y-43800000D01*
X95200000Y-34750000D02*
X95250000Y-34700000D01*
X95200000Y-36300000D02*
X95200000Y-34750000D01*
X94990000Y-43800000D02*
X95460000Y-44270000D01*
X94100000Y-43800000D02*
X94990000Y-43800000D01*
X95704000Y-36300000D02*
X95200000Y-36300000D01*
X94100000Y-43800000D02*
X94700000Y-43800000D01*
X94700000Y-43800000D02*
X96200000Y-42300000D01*
X96200000Y-36796000D02*
X95704000Y-36300000D01*
X96200000Y-42300000D02*
X96200000Y-36796000D01*
D17*
G04 #@! TO.N,/EXCITATION*
X90250000Y-55749996D02*
X90250000Y-56750000D01*
X94100000Y-45070000D02*
X93542758Y-45070000D01*
X93542758Y-45070000D02*
X91050000Y-47562758D01*
X91050000Y-48255028D02*
X91050000Y-48750002D01*
X91050000Y-47562758D02*
X91050000Y-48255028D01*
D18*
G04 #@! TO.N,Net-(D3-Pad2)*
X100200000Y-38125000D02*
X98575000Y-36500000D01*
X100200000Y-38200000D02*
X100200000Y-38125000D01*
G04 #@! TO.N,Net-(D3-Pad1)*
X100200000Y-36550700D02*
X100149300Y-36500000D01*
X99500000Y-41260000D02*
X100940000Y-41260000D01*
X100940000Y-41260000D02*
X101500000Y-40700000D01*
X100879000Y-36500000D02*
X100225000Y-36500000D01*
X101500000Y-37121000D02*
X100879000Y-36500000D01*
X101500000Y-40700000D02*
X101500000Y-37121000D01*
G04 #@! TO.N,/SCK/SCL*
X99500000Y-46340000D02*
X99050000Y-46340000D01*
X99140000Y-46340000D02*
X99500000Y-46340000D01*
X98000000Y-45200000D02*
X99140000Y-46340000D01*
G04 #@! TO.N,/MOSI/SDA*
X94550000Y-47610000D02*
X94100000Y-47610000D01*
X96950001Y-42749999D02*
X96950001Y-45209999D01*
X96950001Y-45209999D02*
X94550000Y-47610000D01*
X97300000Y-42400000D02*
X96950001Y-42749999D01*
G04 #@! TO.N,/MISO/SENSE_HIGH*
X94754000Y-51562000D02*
X94754000Y-49046000D01*
X94754000Y-49046000D02*
X96190000Y-47610000D01*
X98496000Y-47610000D02*
X99500000Y-47610000D01*
X96190000Y-47610000D02*
X98496000Y-47610000D01*
D17*
X94804000Y-55180000D02*
X94742000Y-55118000D01*
X94804000Y-56642000D02*
X94804000Y-55180000D01*
X94742000Y-55118000D02*
X94742000Y-53340000D01*
X94742000Y-53340000D02*
X94742000Y-51562000D01*
D18*
X99110000Y-47610000D02*
X99500000Y-47610000D01*
X99500000Y-47700000D02*
X100000000Y-48200000D01*
X99500000Y-47610000D02*
X99500000Y-47700000D01*
G04 #@! TO.N,Net-(IC1-Pad11)*
X95500000Y-50100000D02*
X95962000Y-50100000D01*
X95962000Y-50100000D02*
X96278000Y-49784000D01*
D17*
X96266000Y-51562000D02*
X95500000Y-50796000D01*
X95500000Y-50796000D02*
X95500000Y-50594974D01*
X95500000Y-50594974D02*
X95500000Y-50100000D01*
D18*
X101500000Y-48700000D02*
X99700000Y-50500000D01*
X99700000Y-50500000D02*
X99100000Y-50500000D01*
X101500000Y-45350000D02*
X101500000Y-48700000D01*
X99500000Y-43800000D02*
X99950000Y-43800000D01*
X99950000Y-43800000D02*
X101500000Y-45350000D01*
D17*
X91960000Y-50788000D02*
X91960000Y-51562000D01*
X92710000Y-50038000D02*
X91960000Y-50788000D01*
D18*
G04 #@! TO.N,Net-(IC1-Pad12)*
X98700000Y-38200000D02*
X98300000Y-38600000D01*
X98300000Y-38600000D02*
X98300000Y-42100000D01*
X98300000Y-42100000D02*
X98730000Y-42530000D01*
X98730000Y-42530000D02*
X99500000Y-42530000D01*
G04 #@! TD*
M02*
