G04 #@! TF.GenerationSoftware,KiCad,Pcbnew,6.0.0-rc1-unknown-bc47f08~65~ubuntu16.04.1*
G04 #@! TF.CreationDate,2018-07-24T22:08:04+03:00*
G04 #@! TF.ProjectId,i2c-moist-sensor,6932632D6D6F6973742D73656E736F72,rev?*
G04 #@! TF.SameCoordinates,Original*
G04 #@! TF.FileFunction,Soldermask,Top*
G04 #@! TF.FilePolarity,Negative*
%FSLAX46Y46*%
G04 Gerber Fmt 4.6, Leading zero omitted, Abs format (unit mm)*
G04 Created by KiCad (PCBNEW 6.0.0-rc1-unknown-bc47f08~65~ubuntu16.04.1) date Tue Jul 24 22:08:04 2018*
%MOMM*%
%LPD*%
G01*
G04 APERTURE LIST*
%ADD10R,1.200000X1.400000*%
%ADD11R,0.800000X0.800000*%
%ADD12R,0.600000X0.700000*%
%ADD13R,0.800000X0.750000*%
%ADD14R,0.500000X0.900000*%
%ADD15R,1.500000X0.600000*%
G04 APERTURE END LIST*
D10*
G04 #@! TO.C,X1*
X91800000Y-42900000D03*
X91800000Y-40700000D03*
X90100000Y-40700000D03*
X90100000Y-42900000D03*
G04 #@! TD*
D11*
G04 #@! TO.C,D3*
X100225000Y-36500000D03*
X98575000Y-36500000D03*
G04 #@! TD*
D12*
G04 #@! TO.C,D2*
X96204000Y-56642000D03*
X94804000Y-56642000D03*
G04 #@! TD*
G04 #@! TO.C,D1*
X93410000Y-56642000D03*
X92010000Y-56642000D03*
G04 #@! TD*
D13*
G04 #@! TO.C,C1*
X91700000Y-44700000D03*
X90200000Y-44700000D03*
G04 #@! TD*
G04 #@! TO.C,C2*
X90000000Y-38900000D03*
X91500000Y-38900000D03*
G04 #@! TD*
G04 #@! TO.C,C3*
X93650000Y-38200000D03*
X95150000Y-38200000D03*
G04 #@! TD*
G04 #@! TO.C,C4*
X93400000Y-55150000D03*
X91900000Y-55150000D03*
G04 #@! TD*
G04 #@! TO.C,C5*
X94800000Y-55150000D03*
X96300000Y-55150000D03*
G04 #@! TD*
G04 #@! TO.C,C6*
X95250000Y-34700000D03*
X93750000Y-34700000D03*
G04 #@! TD*
D14*
G04 #@! TO.C,R1*
X95200000Y-36300000D03*
X93700000Y-36300000D03*
G04 #@! TD*
G04 #@! TO.C,R2*
X96278000Y-49784000D03*
X97778000Y-49784000D03*
G04 #@! TD*
G04 #@! TO.C,R4*
X88750000Y-56750000D03*
X90250000Y-56750000D03*
G04 #@! TD*
G04 #@! TO.C,R5*
X93460000Y-51562000D03*
X91960000Y-51562000D03*
G04 #@! TD*
G04 #@! TO.C,R6*
X94754000Y-51562000D03*
X96254000Y-51562000D03*
G04 #@! TD*
G04 #@! TO.C,R7*
X91960000Y-53340000D03*
X93460000Y-53340000D03*
G04 #@! TD*
G04 #@! TO.C,R8*
X96254000Y-53340000D03*
X94754000Y-53340000D03*
G04 #@! TD*
G04 #@! TO.C,R9*
X100200000Y-38200000D03*
X98700000Y-38200000D03*
G04 #@! TD*
G04 #@! TO.C,TH1*
X97750000Y-51500000D03*
X99250000Y-51500000D03*
G04 #@! TD*
D15*
G04 #@! TO.C,IC1*
X94100000Y-39990000D03*
X94100000Y-41260000D03*
X94100000Y-42530000D03*
X94100000Y-43800000D03*
X94100000Y-45070000D03*
X94100000Y-46340000D03*
X94100000Y-47610000D03*
X99500000Y-47610000D03*
X99500000Y-46340000D03*
X99500000Y-45070000D03*
X99500000Y-43800000D03*
X99500000Y-42530000D03*
X99500000Y-41260000D03*
X99500000Y-39990000D03*
G04 #@! TD*
M02*
