G04 #@! TF.GenerationSoftware,KiCad,Pcbnew,6.0.0-rc1-unknown-0bceb69~66~ubuntu16.04.1*
G04 #@! TF.CreationDate,2018-12-05T15:47:40+02:00
G04 #@! TF.ProjectId,i2c-moist-sensor,6932632d-6d6f-4697-9374-2d73656e736f,rev?*
G04 #@! TF.SameCoordinates,Original*
G04 #@! TF.FileFunction,Profile,NP*
%FSLAX46Y46*%
G04 Gerber Fmt 4.6, Leading zero omitted, Abs format (unit mm)*
G04 Created by KiCad (PCBNEW 6.0.0-rc1-unknown-0bceb69~66~ubuntu16.04.1) date Wed 05 Dec 2018 03:47:40 PM EET*
%MOMM*%
%LPD*%
G04 APERTURE LIST*
%ADD10C,0.100000*%
G04 APERTURE END LIST*
D10*
X87666666Y-13000000D02*
G75*
G03X87666666Y-13000000I-1666666J0D01*
G01*
X83500000Y-13000000D02*
X88500000Y-13000000D01*
X86000000Y-10500000D02*
X86000000Y-15500000D01*
X93000000Y-15000000D02*
G75*
G02X93000000Y-13000000I0J1000000D01*
G01*
X97000000Y-13000000D02*
G75*
G02X97000000Y-15000000I0J-1000000D01*
G01*
X93000000Y-18500000D02*
X93000000Y-15000000D01*
X97000000Y-15000000D02*
X97000000Y-18500000D01*
X102000000Y-36500000D02*
X102000000Y-20500000D01*
X103000000Y-37500000D02*
X102000000Y-36500000D01*
X88000000Y-36500000D02*
X87000000Y-37500000D01*
X88000000Y-20500000D02*
X88000000Y-36500000D01*
X87000000Y-82000000D02*
X87000000Y-37500000D01*
X86000000Y-83000000D02*
X87000000Y-82000000D01*
X103000000Y-82000000D02*
X103000000Y-37500000D01*
X104000000Y-83000000D02*
X103000000Y-82000000D01*
X88000000Y-20500000D02*
X93000000Y-18500000D01*
X102000000Y-20500000D02*
X97000000Y-18500000D01*
X95000000Y-162000000D02*
X86000000Y-149000000D01*
X95000000Y-162000000D02*
X104000000Y-149000000D01*
X86000000Y-83000000D02*
X86000000Y-149000000D01*
X97000000Y-13000000D02*
X93000000Y-13000000D01*
X104000000Y-149000000D02*
X104000000Y-83000000D01*
M02*
