G04 #@! TF.GenerationSoftware,KiCad,Pcbnew,6.0.0-rc1-unknown-0bceb69~66~ubuntu16.04.1*
G04 #@! TF.CreationDate,2018-12-05T15:47:40+02:00
G04 #@! TF.ProjectId,i2c-moist-sensor,6932632d-6d6f-4697-9374-2d73656e736f,rev?*
G04 #@! TF.SameCoordinates,Original*
G04 #@! TF.FileFunction,Soldermask,Bot*
G04 #@! TF.FilePolarity,Negative*
%FSLAX46Y46*%
G04 Gerber Fmt 4.6, Leading zero omitted, Abs format (unit mm)*
G04 Created by KiCad (PCBNEW 6.0.0-rc1-unknown-0bceb69~66~ubuntu16.04.1) date Wed 05 Dec 2018 03:47:40 PM EET*
%MOMM*%
%LPD*%
G04 APERTURE LIST*
%ADD10C,0.100000*%
G04 APERTURE END LIST*
D10*
G36*
X98251903Y-43439587D02*
G01*
X98409068Y-43504687D01*
X98550513Y-43599198D01*
X98670802Y-43719487D01*
X98765313Y-43860932D01*
X98830413Y-44018097D01*
X98863600Y-44184943D01*
X98863600Y-44355057D01*
X98830413Y-44521903D01*
X98765313Y-44679068D01*
X98670802Y-44820513D01*
X98550513Y-44940802D01*
X98409068Y-45035313D01*
X98251903Y-45100413D01*
X98085057Y-45133600D01*
X97914943Y-45133600D01*
X97748097Y-45100413D01*
X97590932Y-45035313D01*
X97449487Y-44940802D01*
X97329198Y-44820513D01*
X97234687Y-44679068D01*
X97169587Y-44521903D01*
X97136400Y-44355057D01*
X97136400Y-44184943D01*
X97169587Y-44018097D01*
X97234687Y-43860932D01*
X97329198Y-43719487D01*
X97449487Y-43599198D01*
X97590932Y-43504687D01*
X97748097Y-43439587D01*
X97914943Y-43406400D01*
X98085057Y-43406400D01*
X98251903Y-43439587D01*
X98251903Y-43439587D01*
G37*
G36*
X95711903Y-43439587D02*
G01*
X95869068Y-43504687D01*
X96010513Y-43599198D01*
X96130802Y-43719487D01*
X96225313Y-43860932D01*
X96290413Y-44018097D01*
X96323600Y-44184943D01*
X96323600Y-44355057D01*
X96290413Y-44521903D01*
X96225313Y-44679068D01*
X96130802Y-44820513D01*
X96010513Y-44940802D01*
X95869068Y-45035313D01*
X95711903Y-45100413D01*
X95545057Y-45133600D01*
X95374943Y-45133600D01*
X95208097Y-45100413D01*
X95050932Y-45035313D01*
X94909487Y-44940802D01*
X94789198Y-44820513D01*
X94694687Y-44679068D01*
X94629587Y-44521903D01*
X94596400Y-44355057D01*
X94596400Y-44184943D01*
X94629587Y-44018097D01*
X94694687Y-43860932D01*
X94789198Y-43719487D01*
X94909487Y-43599198D01*
X95050932Y-43504687D01*
X95208097Y-43439587D01*
X95374943Y-43406400D01*
X95545057Y-43406400D01*
X95711903Y-43439587D01*
X95711903Y-43439587D01*
G37*
G36*
X101403600Y-45133600D02*
G01*
X99676400Y-45133600D01*
X99676400Y-43406400D01*
X101403600Y-43406400D01*
X101403600Y-45133600D01*
X101403600Y-45133600D01*
G37*
G36*
X95711903Y-40899587D02*
G01*
X95869068Y-40964687D01*
X96010513Y-41059198D01*
X96130802Y-41179487D01*
X96225313Y-41320932D01*
X96290413Y-41478097D01*
X96323600Y-41644943D01*
X96323600Y-41815057D01*
X96290413Y-41981903D01*
X96225313Y-42139068D01*
X96130802Y-42280513D01*
X96010513Y-42400802D01*
X95869068Y-42495313D01*
X95711903Y-42560413D01*
X95545057Y-42593600D01*
X95374943Y-42593600D01*
X95208097Y-42560413D01*
X95050932Y-42495313D01*
X94909487Y-42400802D01*
X94789198Y-42280513D01*
X94694687Y-42139068D01*
X94629587Y-41981903D01*
X94596400Y-41815057D01*
X94596400Y-41644943D01*
X94629587Y-41478097D01*
X94694687Y-41320932D01*
X94789198Y-41179487D01*
X94909487Y-41059198D01*
X95050932Y-40964687D01*
X95208097Y-40899587D01*
X95374943Y-40866400D01*
X95545057Y-40866400D01*
X95711903Y-40899587D01*
X95711903Y-40899587D01*
G37*
G36*
X100791903Y-40899587D02*
G01*
X100949068Y-40964687D01*
X101090513Y-41059198D01*
X101210802Y-41179487D01*
X101305313Y-41320932D01*
X101370413Y-41478097D01*
X101403600Y-41644943D01*
X101403600Y-41815057D01*
X101370413Y-41981903D01*
X101305313Y-42139068D01*
X101210802Y-42280513D01*
X101090513Y-42400802D01*
X100949068Y-42495313D01*
X100791903Y-42560413D01*
X100625057Y-42593600D01*
X100454943Y-42593600D01*
X100288097Y-42560413D01*
X100130932Y-42495313D01*
X99989487Y-42400802D01*
X99869198Y-42280513D01*
X99774687Y-42139068D01*
X99709587Y-41981903D01*
X99676400Y-41815057D01*
X99676400Y-41644943D01*
X99709587Y-41478097D01*
X99774687Y-41320932D01*
X99869198Y-41179487D01*
X99989487Y-41059198D01*
X100130932Y-40964687D01*
X100288097Y-40899587D01*
X100454943Y-40866400D01*
X100625057Y-40866400D01*
X100791903Y-40899587D01*
X100791903Y-40899587D01*
G37*
G36*
X98251903Y-40899587D02*
G01*
X98409068Y-40964687D01*
X98550513Y-41059198D01*
X98670802Y-41179487D01*
X98765313Y-41320932D01*
X98830413Y-41478097D01*
X98863600Y-41644943D01*
X98863600Y-41815057D01*
X98830413Y-41981903D01*
X98765313Y-42139068D01*
X98670802Y-42280513D01*
X98550513Y-42400802D01*
X98409068Y-42495313D01*
X98251903Y-42560413D01*
X98085057Y-42593600D01*
X97914943Y-42593600D01*
X97748097Y-42560413D01*
X97590932Y-42495313D01*
X97449487Y-42400802D01*
X97329198Y-42280513D01*
X97234687Y-42139068D01*
X97169587Y-41981903D01*
X97136400Y-41815057D01*
X97136400Y-41644943D01*
X97169587Y-41478097D01*
X97234687Y-41320932D01*
X97329198Y-41179487D01*
X97449487Y-41059198D01*
X97590932Y-40964687D01*
X97748097Y-40899587D01*
X97914943Y-40866400D01*
X98085057Y-40866400D01*
X98251903Y-40899587D01*
X98251903Y-40899587D01*
G37*
G36*
X99267027Y-21260852D02*
G01*
X99408401Y-21303738D01*
X99538694Y-21373380D01*
X99652896Y-21467104D01*
X99746620Y-21581306D01*
X99816262Y-21711599D01*
X99859148Y-21852973D01*
X99870000Y-21963161D01*
X99870000Y-23036839D01*
X99859148Y-23147027D01*
X99816262Y-23288401D01*
X99746620Y-23418694D01*
X99652899Y-23532893D01*
X99538690Y-23626622D01*
X99408400Y-23696262D01*
X99267026Y-23739148D01*
X99120000Y-23753628D01*
X98972973Y-23739148D01*
X98831599Y-23696262D01*
X98701306Y-23626620D01*
X98587107Y-23532899D01*
X98493378Y-23418690D01*
X98423738Y-23288400D01*
X98380852Y-23147026D01*
X98370000Y-23036838D01*
X98370001Y-21963161D01*
X98380853Y-21852973D01*
X98423739Y-21711599D01*
X98493381Y-21581306D01*
X98587105Y-21467104D01*
X98701307Y-21373380D01*
X98831600Y-21303738D01*
X98972974Y-21260852D01*
X99120000Y-21246372D01*
X99267027Y-21260852D01*
X99267027Y-21260852D01*
G37*
G36*
X96727027Y-21260852D02*
G01*
X96868401Y-21303738D01*
X96998694Y-21373380D01*
X97112896Y-21467104D01*
X97206620Y-21581306D01*
X97276262Y-21711599D01*
X97319148Y-21852973D01*
X97330000Y-21963161D01*
X97330000Y-23036839D01*
X97319148Y-23147027D01*
X97276262Y-23288401D01*
X97206620Y-23418694D01*
X97112899Y-23532893D01*
X96998690Y-23626622D01*
X96868400Y-23696262D01*
X96727026Y-23739148D01*
X96580000Y-23753628D01*
X96432973Y-23739148D01*
X96291599Y-23696262D01*
X96161306Y-23626620D01*
X96047107Y-23532899D01*
X95953378Y-23418690D01*
X95883738Y-23288400D01*
X95840852Y-23147026D01*
X95830000Y-23036838D01*
X95830001Y-21963161D01*
X95840853Y-21852973D01*
X95883739Y-21711599D01*
X95953381Y-21581306D01*
X96047105Y-21467104D01*
X96161307Y-21373380D01*
X96291600Y-21303738D01*
X96432974Y-21260852D01*
X96580000Y-21246372D01*
X96727027Y-21260852D01*
X96727027Y-21260852D01*
G37*
G36*
X94187027Y-21260852D02*
G01*
X94328401Y-21303738D01*
X94458694Y-21373380D01*
X94572896Y-21467104D01*
X94666620Y-21581306D01*
X94736262Y-21711599D01*
X94779148Y-21852973D01*
X94790000Y-21963161D01*
X94790000Y-23036839D01*
X94779148Y-23147027D01*
X94736262Y-23288401D01*
X94666620Y-23418694D01*
X94572899Y-23532893D01*
X94458690Y-23626622D01*
X94328400Y-23696262D01*
X94187026Y-23739148D01*
X94040000Y-23753628D01*
X93892973Y-23739148D01*
X93751599Y-23696262D01*
X93621306Y-23626620D01*
X93507107Y-23532899D01*
X93413378Y-23418690D01*
X93343738Y-23288400D01*
X93300852Y-23147026D01*
X93290000Y-23036838D01*
X93290001Y-21963161D01*
X93300853Y-21852973D01*
X93343739Y-21711599D01*
X93413381Y-21581306D01*
X93507105Y-21467104D01*
X93621307Y-21373380D01*
X93751600Y-21303738D01*
X93892974Y-21260852D01*
X94040000Y-21246372D01*
X94187027Y-21260852D01*
X94187027Y-21260852D01*
G37*
G36*
X92250000Y-23750000D02*
G01*
X90750000Y-23750000D01*
X90750000Y-21250000D01*
X92250000Y-21250000D01*
X92250000Y-23750000D01*
X92250000Y-23750000D01*
G37*
M02*
