G04 #@! TF.GenerationSoftware,KiCad,Pcbnew,6.0.0-rc1-unknown-bc47f08~65~ubuntu16.04.1*
G04 #@! TF.CreationDate,2018-07-24T22:08:04+03:00*
G04 #@! TF.ProjectId,i2c-moist-sensor,6932632D6D6F6973742D73656E736F72,rev?*
G04 #@! TF.SameCoordinates,Original*
G04 #@! TF.FileFunction,Copper,L3,Inr,Signal*
G04 #@! TF.FilePolarity,Positive*
%FSLAX46Y46*%
G04 Gerber Fmt 4.6, Leading zero omitted, Abs format (unit mm)*
G04 Created by KiCad (PCBNEW 6.0.0-rc1-unknown-bc47f08~65~ubuntu16.04.1) date Tue Jul 24 22:08:04 2018*
%MOMM*%
%LPD*%
G01*
G04 APERTURE LIST*
G04 #@! TA.AperFunction,ViaPad*
%ADD10C,0.700000*%
G04 #@! TD*
G04 #@! TA.AperFunction,Conductor*
%ADD11C,0.254000*%
G04 #@! TD*
G04 #@! TA.AperFunction,Conductor*
%ADD12C,0.508000*%
G04 #@! TD*
G04 APERTURE END LIST*
D10*
G04 #@! TO.N,GND*
X99800000Y-51500000D03*
X95300000Y-39000000D03*
X95200000Y-37400000D03*
X93100000Y-34700000D03*
X95294552Y-41900000D03*
X91550000Y-39700000D03*
X90150000Y-44000000D03*
X91500000Y-22500000D03*
X100745190Y-40200000D03*
X100750000Y-39500000D03*
X100000000Y-39250006D03*
X91900000Y-54200000D03*
X96300000Y-54200000D03*
G04 #@! TO.N,VCC*
X93700000Y-37300000D03*
X101400000Y-42000000D03*
X93650000Y-39540000D03*
G04 #@! TO.N,/SENSOR_TRACK*
X88750000Y-57500000D03*
X96204000Y-57246000D03*
G04 #@! TO.N,/RESET*
X95460000Y-44270000D03*
G04 #@! TO.N,/EXCITATION*
X90250000Y-55749996D03*
X91050000Y-48750002D03*
G04 #@! TO.N,/SCK/SCL*
X98000000Y-45200000D03*
G04 #@! TO.N,/MOSI/SDA*
X97300000Y-42400000D03*
G04 #@! TO.N,/MISO/SENSE_HIGH*
X101400000Y-44300000D03*
X100000000Y-48200000D03*
G04 #@! TO.N,Net-(IC1-Pad11)*
X95500000Y-50100000D03*
X99100000Y-50500000D03*
X92710000Y-50038000D03*
G04 #@! TD*
D11*
G04 #@! TO.N,GND*
X93027776Y-35227776D02*
X95200000Y-37400000D01*
X93027776Y-33327776D02*
X93027776Y-35227776D01*
X95300000Y-41894552D02*
X95294552Y-41900000D01*
X95300000Y-39000000D02*
X95300000Y-41894552D01*
D12*
G04 #@! TO.N,/EXCITATION*
X90599999Y-55399997D02*
X90250000Y-55749996D01*
X91050000Y-48750002D02*
X91050000Y-54949996D01*
X91050000Y-54949996D02*
X90599999Y-55399997D01*
D11*
G04 #@! TO.N,/MISO/SENSE_HIGH*
X101400000Y-46800000D02*
X101400000Y-44300000D01*
X100000000Y-48200000D02*
X101400000Y-46800000D01*
G04 #@! TO.N,Net-(IC1-Pad11)*
X95994974Y-50100000D02*
X95500000Y-50100000D01*
X98700000Y-50100000D02*
X95994974Y-50100000D01*
X95438000Y-50038000D02*
X95500000Y-50100000D01*
X92710000Y-50038000D02*
X95438000Y-50038000D01*
X99100000Y-50500000D02*
X98700000Y-50100000D01*
G04 #@! TD*
G04 #@! TO.N,GND*
G36*
X102873000Y-19709747D02*
X102873000Y-148958702D01*
X95000000Y-159784077D01*
X87127000Y-148958702D01*
X87127000Y-57285771D01*
X87673000Y-57285771D01*
X87673000Y-57714229D01*
X87836963Y-58110072D01*
X88139928Y-58413037D01*
X88535771Y-58577000D01*
X88964229Y-58577000D01*
X89360072Y-58413037D01*
X89663037Y-58110072D01*
X89827000Y-57714229D01*
X89827000Y-57285771D01*
X89721791Y-57031771D01*
X95127000Y-57031771D01*
X95127000Y-57460229D01*
X95290963Y-57856072D01*
X95593928Y-58159037D01*
X95989771Y-58323000D01*
X96418229Y-58323000D01*
X96814072Y-58159037D01*
X97117037Y-57856072D01*
X97281000Y-57460229D01*
X97281000Y-57031771D01*
X97117037Y-56635928D01*
X96814072Y-56332963D01*
X96418229Y-56169000D01*
X95989771Y-56169000D01*
X95593928Y-56332963D01*
X95290963Y-56635928D01*
X95127000Y-57031771D01*
X89721791Y-57031771D01*
X89663037Y-56889928D01*
X89360072Y-56586963D01*
X88964229Y-56423000D01*
X88535771Y-56423000D01*
X88139928Y-56586963D01*
X87836963Y-56889928D01*
X87673000Y-57285771D01*
X87127000Y-57285771D01*
X87127000Y-55604591D01*
X89519000Y-55604591D01*
X89519000Y-55895401D01*
X89630288Y-56164074D01*
X89835922Y-56369708D01*
X90104595Y-56480996D01*
X90395405Y-56480996D01*
X90664078Y-56369708D01*
X90869712Y-56164074D01*
X90965713Y-55932307D01*
X91093234Y-55804786D01*
X91454791Y-55443231D01*
X91507809Y-55407805D01*
X91543234Y-55354788D01*
X91543236Y-55354786D01*
X91648157Y-55197761D01*
X91697440Y-54949996D01*
X91685000Y-54887455D01*
X91685000Y-49892595D01*
X91979000Y-49892595D01*
X91979000Y-50183405D01*
X92090288Y-50452078D01*
X92295922Y-50657712D01*
X92564595Y-50769000D01*
X92855405Y-50769000D01*
X93124078Y-50657712D01*
X93235790Y-50546000D01*
X94912210Y-50546000D01*
X95085922Y-50719712D01*
X95354595Y-50831000D01*
X95645405Y-50831000D01*
X95914078Y-50719712D01*
X96025790Y-50608000D01*
X98369000Y-50608000D01*
X98369000Y-50645405D01*
X98480288Y-50914078D01*
X98685922Y-51119712D01*
X98954595Y-51231000D01*
X99245405Y-51231000D01*
X99514078Y-51119712D01*
X99719712Y-50914078D01*
X99831000Y-50645405D01*
X99831000Y-50354595D01*
X99719712Y-50085922D01*
X99514078Y-49880288D01*
X99245405Y-49769000D01*
X99089798Y-49769000D01*
X99066247Y-49733753D01*
X98898212Y-49621475D01*
X98750032Y-49592000D01*
X98750028Y-49592000D01*
X98700000Y-49582049D01*
X98649972Y-49592000D01*
X96025790Y-49592000D01*
X95914078Y-49480288D01*
X95645405Y-49369000D01*
X95354595Y-49369000D01*
X95085922Y-49480288D01*
X95036210Y-49530000D01*
X93235790Y-49530000D01*
X93124078Y-49418288D01*
X92855405Y-49307000D01*
X92564595Y-49307000D01*
X92295922Y-49418288D01*
X92090288Y-49623922D01*
X91979000Y-49892595D01*
X91685000Y-49892595D01*
X91685000Y-49127172D01*
X91781000Y-48895407D01*
X91781000Y-48604597D01*
X91669712Y-48335924D01*
X91464078Y-48130290D01*
X91281335Y-48054595D01*
X99269000Y-48054595D01*
X99269000Y-48345405D01*
X99380288Y-48614078D01*
X99585922Y-48819712D01*
X99854595Y-48931000D01*
X100145405Y-48931000D01*
X100414078Y-48819712D01*
X100619712Y-48614078D01*
X100731000Y-48345405D01*
X100731000Y-48187420D01*
X101723836Y-47194585D01*
X101766247Y-47166247D01*
X101794586Y-47123835D01*
X101794588Y-47123833D01*
X101878525Y-46998212D01*
X101878525Y-46998211D01*
X101908000Y-46850032D01*
X101908000Y-46850028D01*
X101917951Y-46800000D01*
X101908000Y-46749972D01*
X101908000Y-44825790D01*
X102019712Y-44714078D01*
X102131000Y-44445405D01*
X102131000Y-44154595D01*
X102019712Y-43885922D01*
X101814078Y-43680288D01*
X101545405Y-43569000D01*
X101254595Y-43569000D01*
X100985922Y-43680288D01*
X100780288Y-43885922D01*
X100669000Y-44154595D01*
X100669000Y-44445405D01*
X100780288Y-44714078D01*
X100892001Y-44825791D01*
X100892000Y-46589579D01*
X100012580Y-47469000D01*
X99854595Y-47469000D01*
X99585922Y-47580288D01*
X99380288Y-47785922D01*
X99269000Y-48054595D01*
X91281335Y-48054595D01*
X91195405Y-48019002D01*
X90904595Y-48019002D01*
X90635922Y-48130290D01*
X90430288Y-48335924D01*
X90319000Y-48604597D01*
X90319000Y-48895407D01*
X90415000Y-49127172D01*
X90415001Y-54686970D01*
X90195210Y-54906762D01*
X90067689Y-55034283D01*
X89835922Y-55130284D01*
X89630288Y-55335918D01*
X89519000Y-55604591D01*
X87127000Y-55604591D01*
X87127000Y-45054595D01*
X97269000Y-45054595D01*
X97269000Y-45345405D01*
X97380288Y-45614078D01*
X97585922Y-45819712D01*
X97854595Y-45931000D01*
X98145405Y-45931000D01*
X98414078Y-45819712D01*
X98619712Y-45614078D01*
X98731000Y-45345405D01*
X98731000Y-45054595D01*
X98619712Y-44785922D01*
X98414078Y-44580288D01*
X98145405Y-44469000D01*
X97854595Y-44469000D01*
X97585922Y-44580288D01*
X97380288Y-44785922D01*
X97269000Y-45054595D01*
X87127000Y-45054595D01*
X87127000Y-44124595D01*
X94729000Y-44124595D01*
X94729000Y-44415405D01*
X94840288Y-44684078D01*
X95045922Y-44889712D01*
X95314595Y-45001000D01*
X95605405Y-45001000D01*
X95874078Y-44889712D01*
X96079712Y-44684078D01*
X96191000Y-44415405D01*
X96191000Y-44124595D01*
X96079712Y-43855922D01*
X95874078Y-43650288D01*
X95605405Y-43539000D01*
X95314595Y-43539000D01*
X95045922Y-43650288D01*
X94840288Y-43855922D01*
X94729000Y-44124595D01*
X87127000Y-44124595D01*
X87127000Y-42254595D01*
X96569000Y-42254595D01*
X96569000Y-42545405D01*
X96680288Y-42814078D01*
X96885922Y-43019712D01*
X97154595Y-43131000D01*
X97445405Y-43131000D01*
X97714078Y-43019712D01*
X97919712Y-42814078D01*
X98031000Y-42545405D01*
X98031000Y-42254595D01*
X97919712Y-41985922D01*
X97788385Y-41854595D01*
X100669000Y-41854595D01*
X100669000Y-42145405D01*
X100780288Y-42414078D01*
X100985922Y-42619712D01*
X101254595Y-42731000D01*
X101545405Y-42731000D01*
X101814078Y-42619712D01*
X102019712Y-42414078D01*
X102131000Y-42145405D01*
X102131000Y-41854595D01*
X102019712Y-41585922D01*
X101814078Y-41380288D01*
X101545405Y-41269000D01*
X101254595Y-41269000D01*
X100985922Y-41380288D01*
X100780288Y-41585922D01*
X100669000Y-41854595D01*
X97788385Y-41854595D01*
X97714078Y-41780288D01*
X97445405Y-41669000D01*
X97154595Y-41669000D01*
X96885922Y-41780288D01*
X96680288Y-41985922D01*
X96569000Y-42254595D01*
X87127000Y-42254595D01*
X87127000Y-39394595D01*
X92919000Y-39394595D01*
X92919000Y-39685405D01*
X93030288Y-39954078D01*
X93235922Y-40159712D01*
X93504595Y-40271000D01*
X93795405Y-40271000D01*
X94064078Y-40159712D01*
X94269712Y-39954078D01*
X94381000Y-39685405D01*
X94381000Y-39394595D01*
X94269712Y-39125922D01*
X94064078Y-38920288D01*
X93795405Y-38809000D01*
X93504595Y-38809000D01*
X93235922Y-38920288D01*
X93030288Y-39125922D01*
X92919000Y-39394595D01*
X87127000Y-39394595D01*
X87127000Y-37154595D01*
X92969000Y-37154595D01*
X92969000Y-37445405D01*
X93080288Y-37714078D01*
X93285922Y-37919712D01*
X93554595Y-38031000D01*
X93845405Y-38031000D01*
X94114078Y-37919712D01*
X94319712Y-37714078D01*
X94431000Y-37445405D01*
X94431000Y-37154595D01*
X94319712Y-36885922D01*
X94114078Y-36680288D01*
X93845405Y-36569000D01*
X93554595Y-36569000D01*
X93285922Y-36680288D01*
X93080288Y-36885922D01*
X92969000Y-37154595D01*
X87127000Y-37154595D01*
X87127000Y-19709745D01*
X88668936Y-16625872D01*
X89619130Y-16625872D01*
X89619130Y-17374128D01*
X89905476Y-18065427D01*
X90434573Y-18594524D01*
X91125872Y-18880870D01*
X91874128Y-18880870D01*
X92565427Y-18594524D01*
X93094524Y-18065427D01*
X93380870Y-17374128D01*
X93380870Y-16625872D01*
X96619130Y-16625872D01*
X96619130Y-17374128D01*
X96905476Y-18065427D01*
X97434573Y-18594524D01*
X98125872Y-18880870D01*
X98874128Y-18880870D01*
X99565427Y-18594524D01*
X100094524Y-18065427D01*
X100380870Y-17374128D01*
X100380870Y-16625872D01*
X100094524Y-15934573D01*
X99565427Y-15405476D01*
X98874128Y-15119130D01*
X98125872Y-15119130D01*
X97434573Y-15405476D01*
X96905476Y-15934573D01*
X96619130Y-16625872D01*
X93380870Y-16625872D01*
X93094524Y-15934573D01*
X92565427Y-15405476D01*
X91874128Y-15119130D01*
X91125872Y-15119130D01*
X90434573Y-15405476D01*
X89905476Y-15934573D01*
X89619130Y-16625872D01*
X88668936Y-16625872D01*
X90266373Y-13431000D01*
X99733627Y-13431000D01*
X102873000Y-19709747D01*
X102873000Y-19709747D01*
G37*
X102873000Y-19709747D02*
X102873000Y-148958702D01*
X95000000Y-159784077D01*
X87127000Y-148958702D01*
X87127000Y-57285771D01*
X87673000Y-57285771D01*
X87673000Y-57714229D01*
X87836963Y-58110072D01*
X88139928Y-58413037D01*
X88535771Y-58577000D01*
X88964229Y-58577000D01*
X89360072Y-58413037D01*
X89663037Y-58110072D01*
X89827000Y-57714229D01*
X89827000Y-57285771D01*
X89721791Y-57031771D01*
X95127000Y-57031771D01*
X95127000Y-57460229D01*
X95290963Y-57856072D01*
X95593928Y-58159037D01*
X95989771Y-58323000D01*
X96418229Y-58323000D01*
X96814072Y-58159037D01*
X97117037Y-57856072D01*
X97281000Y-57460229D01*
X97281000Y-57031771D01*
X97117037Y-56635928D01*
X96814072Y-56332963D01*
X96418229Y-56169000D01*
X95989771Y-56169000D01*
X95593928Y-56332963D01*
X95290963Y-56635928D01*
X95127000Y-57031771D01*
X89721791Y-57031771D01*
X89663037Y-56889928D01*
X89360072Y-56586963D01*
X88964229Y-56423000D01*
X88535771Y-56423000D01*
X88139928Y-56586963D01*
X87836963Y-56889928D01*
X87673000Y-57285771D01*
X87127000Y-57285771D01*
X87127000Y-55604591D01*
X89519000Y-55604591D01*
X89519000Y-55895401D01*
X89630288Y-56164074D01*
X89835922Y-56369708D01*
X90104595Y-56480996D01*
X90395405Y-56480996D01*
X90664078Y-56369708D01*
X90869712Y-56164074D01*
X90965713Y-55932307D01*
X91093234Y-55804786D01*
X91454791Y-55443231D01*
X91507809Y-55407805D01*
X91543234Y-55354788D01*
X91543236Y-55354786D01*
X91648157Y-55197761D01*
X91697440Y-54949996D01*
X91685000Y-54887455D01*
X91685000Y-49892595D01*
X91979000Y-49892595D01*
X91979000Y-50183405D01*
X92090288Y-50452078D01*
X92295922Y-50657712D01*
X92564595Y-50769000D01*
X92855405Y-50769000D01*
X93124078Y-50657712D01*
X93235790Y-50546000D01*
X94912210Y-50546000D01*
X95085922Y-50719712D01*
X95354595Y-50831000D01*
X95645405Y-50831000D01*
X95914078Y-50719712D01*
X96025790Y-50608000D01*
X98369000Y-50608000D01*
X98369000Y-50645405D01*
X98480288Y-50914078D01*
X98685922Y-51119712D01*
X98954595Y-51231000D01*
X99245405Y-51231000D01*
X99514078Y-51119712D01*
X99719712Y-50914078D01*
X99831000Y-50645405D01*
X99831000Y-50354595D01*
X99719712Y-50085922D01*
X99514078Y-49880288D01*
X99245405Y-49769000D01*
X99089798Y-49769000D01*
X99066247Y-49733753D01*
X98898212Y-49621475D01*
X98750032Y-49592000D01*
X98750028Y-49592000D01*
X98700000Y-49582049D01*
X98649972Y-49592000D01*
X96025790Y-49592000D01*
X95914078Y-49480288D01*
X95645405Y-49369000D01*
X95354595Y-49369000D01*
X95085922Y-49480288D01*
X95036210Y-49530000D01*
X93235790Y-49530000D01*
X93124078Y-49418288D01*
X92855405Y-49307000D01*
X92564595Y-49307000D01*
X92295922Y-49418288D01*
X92090288Y-49623922D01*
X91979000Y-49892595D01*
X91685000Y-49892595D01*
X91685000Y-49127172D01*
X91781000Y-48895407D01*
X91781000Y-48604597D01*
X91669712Y-48335924D01*
X91464078Y-48130290D01*
X91281335Y-48054595D01*
X99269000Y-48054595D01*
X99269000Y-48345405D01*
X99380288Y-48614078D01*
X99585922Y-48819712D01*
X99854595Y-48931000D01*
X100145405Y-48931000D01*
X100414078Y-48819712D01*
X100619712Y-48614078D01*
X100731000Y-48345405D01*
X100731000Y-48187420D01*
X101723836Y-47194585D01*
X101766247Y-47166247D01*
X101794586Y-47123835D01*
X101794588Y-47123833D01*
X101878525Y-46998212D01*
X101878525Y-46998211D01*
X101908000Y-46850032D01*
X101908000Y-46850028D01*
X101917951Y-46800000D01*
X101908000Y-46749972D01*
X101908000Y-44825790D01*
X102019712Y-44714078D01*
X102131000Y-44445405D01*
X102131000Y-44154595D01*
X102019712Y-43885922D01*
X101814078Y-43680288D01*
X101545405Y-43569000D01*
X101254595Y-43569000D01*
X100985922Y-43680288D01*
X100780288Y-43885922D01*
X100669000Y-44154595D01*
X100669000Y-44445405D01*
X100780288Y-44714078D01*
X100892001Y-44825791D01*
X100892000Y-46589579D01*
X100012580Y-47469000D01*
X99854595Y-47469000D01*
X99585922Y-47580288D01*
X99380288Y-47785922D01*
X99269000Y-48054595D01*
X91281335Y-48054595D01*
X91195405Y-48019002D01*
X90904595Y-48019002D01*
X90635922Y-48130290D01*
X90430288Y-48335924D01*
X90319000Y-48604597D01*
X90319000Y-48895407D01*
X90415000Y-49127172D01*
X90415001Y-54686970D01*
X90195210Y-54906762D01*
X90067689Y-55034283D01*
X89835922Y-55130284D01*
X89630288Y-55335918D01*
X89519000Y-55604591D01*
X87127000Y-55604591D01*
X87127000Y-45054595D01*
X97269000Y-45054595D01*
X97269000Y-45345405D01*
X97380288Y-45614078D01*
X97585922Y-45819712D01*
X97854595Y-45931000D01*
X98145405Y-45931000D01*
X98414078Y-45819712D01*
X98619712Y-45614078D01*
X98731000Y-45345405D01*
X98731000Y-45054595D01*
X98619712Y-44785922D01*
X98414078Y-44580288D01*
X98145405Y-44469000D01*
X97854595Y-44469000D01*
X97585922Y-44580288D01*
X97380288Y-44785922D01*
X97269000Y-45054595D01*
X87127000Y-45054595D01*
X87127000Y-44124595D01*
X94729000Y-44124595D01*
X94729000Y-44415405D01*
X94840288Y-44684078D01*
X95045922Y-44889712D01*
X95314595Y-45001000D01*
X95605405Y-45001000D01*
X95874078Y-44889712D01*
X96079712Y-44684078D01*
X96191000Y-44415405D01*
X96191000Y-44124595D01*
X96079712Y-43855922D01*
X95874078Y-43650288D01*
X95605405Y-43539000D01*
X95314595Y-43539000D01*
X95045922Y-43650288D01*
X94840288Y-43855922D01*
X94729000Y-44124595D01*
X87127000Y-44124595D01*
X87127000Y-42254595D01*
X96569000Y-42254595D01*
X96569000Y-42545405D01*
X96680288Y-42814078D01*
X96885922Y-43019712D01*
X97154595Y-43131000D01*
X97445405Y-43131000D01*
X97714078Y-43019712D01*
X97919712Y-42814078D01*
X98031000Y-42545405D01*
X98031000Y-42254595D01*
X97919712Y-41985922D01*
X97788385Y-41854595D01*
X100669000Y-41854595D01*
X100669000Y-42145405D01*
X100780288Y-42414078D01*
X100985922Y-42619712D01*
X101254595Y-42731000D01*
X101545405Y-42731000D01*
X101814078Y-42619712D01*
X102019712Y-42414078D01*
X102131000Y-42145405D01*
X102131000Y-41854595D01*
X102019712Y-41585922D01*
X101814078Y-41380288D01*
X101545405Y-41269000D01*
X101254595Y-41269000D01*
X100985922Y-41380288D01*
X100780288Y-41585922D01*
X100669000Y-41854595D01*
X97788385Y-41854595D01*
X97714078Y-41780288D01*
X97445405Y-41669000D01*
X97154595Y-41669000D01*
X96885922Y-41780288D01*
X96680288Y-41985922D01*
X96569000Y-42254595D01*
X87127000Y-42254595D01*
X87127000Y-39394595D01*
X92919000Y-39394595D01*
X92919000Y-39685405D01*
X93030288Y-39954078D01*
X93235922Y-40159712D01*
X93504595Y-40271000D01*
X93795405Y-40271000D01*
X94064078Y-40159712D01*
X94269712Y-39954078D01*
X94381000Y-39685405D01*
X94381000Y-39394595D01*
X94269712Y-39125922D01*
X94064078Y-38920288D01*
X93795405Y-38809000D01*
X93504595Y-38809000D01*
X93235922Y-38920288D01*
X93030288Y-39125922D01*
X92919000Y-39394595D01*
X87127000Y-39394595D01*
X87127000Y-37154595D01*
X92969000Y-37154595D01*
X92969000Y-37445405D01*
X93080288Y-37714078D01*
X93285922Y-37919712D01*
X93554595Y-38031000D01*
X93845405Y-38031000D01*
X94114078Y-37919712D01*
X94319712Y-37714078D01*
X94431000Y-37445405D01*
X94431000Y-37154595D01*
X94319712Y-36885922D01*
X94114078Y-36680288D01*
X93845405Y-36569000D01*
X93554595Y-36569000D01*
X93285922Y-36680288D01*
X93080288Y-36885922D01*
X92969000Y-37154595D01*
X87127000Y-37154595D01*
X87127000Y-19709745D01*
X88668936Y-16625872D01*
X89619130Y-16625872D01*
X89619130Y-17374128D01*
X89905476Y-18065427D01*
X90434573Y-18594524D01*
X91125872Y-18880870D01*
X91874128Y-18880870D01*
X92565427Y-18594524D01*
X93094524Y-18065427D01*
X93380870Y-17374128D01*
X93380870Y-16625872D01*
X96619130Y-16625872D01*
X96619130Y-17374128D01*
X96905476Y-18065427D01*
X97434573Y-18594524D01*
X98125872Y-18880870D01*
X98874128Y-18880870D01*
X99565427Y-18594524D01*
X100094524Y-18065427D01*
X100380870Y-17374128D01*
X100380870Y-16625872D01*
X100094524Y-15934573D01*
X99565427Y-15405476D01*
X98874128Y-15119130D01*
X98125872Y-15119130D01*
X97434573Y-15405476D01*
X96905476Y-15934573D01*
X96619130Y-16625872D01*
X93380870Y-16625872D01*
X93094524Y-15934573D01*
X92565427Y-15405476D01*
X91874128Y-15119130D01*
X91125872Y-15119130D01*
X90434573Y-15405476D01*
X89905476Y-15934573D01*
X89619130Y-16625872D01*
X88668936Y-16625872D01*
X90266373Y-13431000D01*
X99733627Y-13431000D01*
X102873000Y-19709747D01*
G04 #@! TD*
M02*
