G04 #@! TF.GenerationSoftware,KiCad,Pcbnew,(5.0.0-rc2-160-g7b73557)*
G04 #@! TF.CreationDate,2018-07-20T13:29:01+03:00*
G04 #@! TF.ProjectId,i2c-moist-sensor,6932632D6D6F6973742D73656E736F72,rev?*
G04 #@! TF.SameCoordinates,Original*
G04 #@! TF.FileFunction,Legend,Bot*
G04 #@! TF.FilePolarity,Positive*
%FSLAX46Y46*%
G04 Gerber Fmt 4.6, Leading zero omitted, Abs format (unit mm)*
G04 Created by KiCad (PCBNEW (5.0.0-rc2-160-g7b73557)) date 2018 July 20, Friday 13:29:01*
%MOMM*%
%LPD*%
G01*
G04 APERTURE LIST*
%ADD10C,0.300000*%
%ADD11C,1.000000*%
%ADD12C,0.010000*%
%ADD13C,1.727200*%
%ADD14R,1.727200X1.727200*%
G04 APERTURE END LIST*
D10*
X99014285Y-81142857D02*
X98942857Y-81214285D01*
X98871428Y-81428571D01*
X98871428Y-81571428D01*
X98942857Y-81785714D01*
X99085714Y-81928571D01*
X99228571Y-82000000D01*
X99514285Y-82071428D01*
X99728571Y-82071428D01*
X100014285Y-82000000D01*
X100157142Y-81928571D01*
X100300000Y-81785714D01*
X100371428Y-81571428D01*
X100371428Y-81428571D01*
X100300000Y-81214285D01*
X100228571Y-81142857D01*
X98871428Y-79857142D02*
X99657142Y-79857142D01*
X99800000Y-79928571D01*
X99871428Y-80071428D01*
X99871428Y-80357142D01*
X99800000Y-80500000D01*
X98942857Y-79857142D02*
X98871428Y-80000000D01*
X98871428Y-80357142D01*
X98942857Y-80500000D01*
X99085714Y-80571428D01*
X99228571Y-80571428D01*
X99371428Y-80500000D01*
X99442857Y-80357142D01*
X99442857Y-80000000D01*
X99514285Y-79857142D01*
X99871428Y-79357142D02*
X99871428Y-78785714D01*
X100371428Y-79142857D02*
X99085714Y-79142857D01*
X98942857Y-79071428D01*
X98871428Y-78928571D01*
X98871428Y-78785714D01*
X99871428Y-78285714D02*
X98871428Y-78285714D01*
X99728571Y-78285714D02*
X99800000Y-78214285D01*
X99871428Y-78071428D01*
X99871428Y-77857142D01*
X99800000Y-77714285D01*
X99657142Y-77642857D01*
X98871428Y-77642857D01*
X98871428Y-76928571D02*
X99871428Y-76928571D01*
X100371428Y-76928571D02*
X100300000Y-77000000D01*
X100228571Y-76928571D01*
X100300000Y-76857142D01*
X100371428Y-76928571D01*
X100228571Y-76928571D01*
X99871428Y-76214285D02*
X98371428Y-76214285D01*
X99800000Y-76214285D02*
X99871428Y-76071428D01*
X99871428Y-75785714D01*
X99800000Y-75642857D01*
X99728571Y-75571428D01*
X99585714Y-75500000D01*
X99157142Y-75500000D01*
X99014285Y-75571428D01*
X98942857Y-75642857D01*
X98871428Y-75785714D01*
X98871428Y-76071428D01*
X98942857Y-76214285D01*
X99657142Y-73714285D02*
X99657142Y-73214285D01*
X98871428Y-73000000D02*
X98871428Y-73714285D01*
X100371428Y-73714285D01*
X100371428Y-73000000D01*
X98871428Y-72142857D02*
X98942857Y-72285714D01*
X99085714Y-72357142D01*
X100371428Y-72357142D01*
X98942857Y-71000000D02*
X98871428Y-71142857D01*
X98871428Y-71428571D01*
X98942857Y-71571428D01*
X99085714Y-71642857D01*
X99657142Y-71642857D01*
X99800000Y-71571428D01*
X99871428Y-71428571D01*
X99871428Y-71142857D01*
X99800000Y-71000000D01*
X99657142Y-70928571D01*
X99514285Y-70928571D01*
X99371428Y-71642857D01*
X98942857Y-69642857D02*
X98871428Y-69785714D01*
X98871428Y-70071428D01*
X98942857Y-70214285D01*
X99014285Y-70285714D01*
X99157142Y-70357142D01*
X99585714Y-70357142D01*
X99728571Y-70285714D01*
X99800000Y-70214285D01*
X99871428Y-70071428D01*
X99871428Y-69785714D01*
X99800000Y-69642857D01*
X99871428Y-69214285D02*
X99871428Y-68642857D01*
X100371428Y-69000000D02*
X99085714Y-69000000D01*
X98942857Y-68928571D01*
X98871428Y-68785714D01*
X98871428Y-68642857D01*
X98871428Y-68142857D02*
X99871428Y-68142857D01*
X99585714Y-68142857D02*
X99728571Y-68071428D01*
X99800000Y-68000000D01*
X99871428Y-67857142D01*
X99871428Y-67714285D01*
X98871428Y-67000000D02*
X98942857Y-67142857D01*
X99014285Y-67214285D01*
X99157142Y-67285714D01*
X99585714Y-67285714D01*
X99728571Y-67214285D01*
X99800000Y-67142857D01*
X99871428Y-67000000D01*
X99871428Y-66785714D01*
X99800000Y-66642857D01*
X99728571Y-66571428D01*
X99585714Y-66500000D01*
X99157142Y-66500000D01*
X99014285Y-66571428D01*
X98942857Y-66642857D01*
X98871428Y-66785714D01*
X98871428Y-67000000D01*
X99871428Y-65857142D02*
X98871428Y-65857142D01*
X99728571Y-65857142D02*
X99800000Y-65785714D01*
X99871428Y-65642857D01*
X99871428Y-65428571D01*
X99800000Y-65285714D01*
X99657142Y-65214285D01*
X98871428Y-65214285D01*
X98871428Y-64500000D02*
X99871428Y-64500000D01*
X100371428Y-64500000D02*
X100300000Y-64571428D01*
X100228571Y-64500000D01*
X100300000Y-64428571D01*
X100371428Y-64500000D01*
X100228571Y-64500000D01*
X98942857Y-63142857D02*
X98871428Y-63285714D01*
X98871428Y-63571428D01*
X98942857Y-63714285D01*
X99014285Y-63785714D01*
X99157142Y-63857142D01*
X99585714Y-63857142D01*
X99728571Y-63785714D01*
X99800000Y-63714285D01*
X99871428Y-63571428D01*
X99871428Y-63285714D01*
X99800000Y-63142857D01*
X98942857Y-62571428D02*
X98871428Y-62428571D01*
X98871428Y-62142857D01*
X98942857Y-62000000D01*
X99085714Y-61928571D01*
X99157142Y-61928571D01*
X99300000Y-62000000D01*
X99371428Y-62142857D01*
X99371428Y-62357142D01*
X99442857Y-62500000D01*
X99585714Y-62571428D01*
X99657142Y-62571428D01*
X99800000Y-62500000D01*
X99871428Y-62357142D01*
X99871428Y-62142857D01*
X99800000Y-62000000D01*
X96321428Y-89285714D02*
X97821428Y-89285714D01*
X96321428Y-88642857D02*
X97107142Y-88642857D01*
X97250000Y-88714285D01*
X97321428Y-88857142D01*
X97321428Y-89071428D01*
X97250000Y-89214285D01*
X97178571Y-89285714D01*
X97321428Y-88142857D02*
X97321428Y-87571428D01*
X97821428Y-87928571D02*
X96535714Y-87928571D01*
X96392857Y-87857142D01*
X96321428Y-87714285D01*
X96321428Y-87571428D01*
X97321428Y-87285714D02*
X97321428Y-86714285D01*
X97821428Y-87071428D02*
X96535714Y-87071428D01*
X96392857Y-87000000D01*
X96321428Y-86857142D01*
X96321428Y-86714285D01*
X97321428Y-86214285D02*
X95821428Y-86214285D01*
X97250000Y-86214285D02*
X97321428Y-86071428D01*
X97321428Y-85785714D01*
X97250000Y-85642857D01*
X97178571Y-85571428D01*
X97035714Y-85500000D01*
X96607142Y-85500000D01*
X96464285Y-85571428D01*
X96392857Y-85642857D01*
X96321428Y-85785714D01*
X96321428Y-86071428D01*
X96392857Y-86214285D01*
X96464285Y-84857142D02*
X96392857Y-84785714D01*
X96321428Y-84857142D01*
X96392857Y-84928571D01*
X96464285Y-84857142D01*
X96321428Y-84857142D01*
X97250000Y-84857142D02*
X97178571Y-84785714D01*
X97107142Y-84857142D01*
X97178571Y-84928571D01*
X97250000Y-84857142D01*
X97107142Y-84857142D01*
X97892857Y-83071428D02*
X95964285Y-84357142D01*
X97892857Y-81500000D02*
X95964285Y-82785714D01*
X97321428Y-81142857D02*
X96321428Y-80857142D01*
X97035714Y-80571428D01*
X96321428Y-80285714D01*
X97321428Y-80000000D01*
X96392857Y-78857142D02*
X96321428Y-79000000D01*
X96321428Y-79285714D01*
X96392857Y-79428571D01*
X96535714Y-79500000D01*
X97107142Y-79500000D01*
X97250000Y-79428571D01*
X97321428Y-79285714D01*
X97321428Y-79000000D01*
X97250000Y-78857142D01*
X97107142Y-78785714D01*
X96964285Y-78785714D01*
X96821428Y-79500000D01*
X96321428Y-78142857D02*
X97321428Y-78142857D01*
X97178571Y-78142857D02*
X97250000Y-78071428D01*
X97321428Y-77928571D01*
X97321428Y-77714285D01*
X97250000Y-77571428D01*
X97107142Y-77500000D01*
X96321428Y-77500000D01*
X97107142Y-77500000D02*
X97250000Y-77428571D01*
X97321428Y-77285714D01*
X97321428Y-77071428D01*
X97250000Y-76928571D01*
X97107142Y-76857142D01*
X96321428Y-76857142D01*
X96321428Y-75500000D02*
X97107142Y-75500000D01*
X97250000Y-75571428D01*
X97321428Y-75714285D01*
X97321428Y-76000000D01*
X97250000Y-76142857D01*
X96392857Y-75500000D02*
X96321428Y-75642857D01*
X96321428Y-76000000D01*
X96392857Y-76142857D01*
X96535714Y-76214285D01*
X96678571Y-76214285D01*
X96821428Y-76142857D01*
X96892857Y-76000000D01*
X96892857Y-75642857D01*
X96964285Y-75500000D01*
X96321428Y-74785714D02*
X97821428Y-74785714D01*
X96892857Y-74642857D02*
X96321428Y-74214285D01*
X97321428Y-74214285D02*
X96750000Y-74785714D01*
X96392857Y-73000000D02*
X96321428Y-73142857D01*
X96321428Y-73428571D01*
X96392857Y-73571428D01*
X96535714Y-73642857D01*
X97107142Y-73642857D01*
X97250000Y-73571428D01*
X97321428Y-73428571D01*
X97321428Y-73142857D01*
X97250000Y-73000000D01*
X97107142Y-72928571D01*
X96964285Y-72928571D01*
X96821428Y-73642857D01*
X97321428Y-72500000D02*
X97321428Y-71928571D01*
X97821428Y-72285714D02*
X96535714Y-72285714D01*
X96392857Y-72214285D01*
X96321428Y-72071428D01*
X96321428Y-71928571D01*
X96321428Y-71428571D02*
X97821428Y-71428571D01*
X96321428Y-70785714D02*
X97107142Y-70785714D01*
X97250000Y-70857142D01*
X97321428Y-71000000D01*
X97321428Y-71214285D01*
X97250000Y-71357142D01*
X97178571Y-71428571D01*
X96321428Y-70071428D02*
X97321428Y-70071428D01*
X97821428Y-70071428D02*
X97750000Y-70142857D01*
X97678571Y-70071428D01*
X97750000Y-70000000D01*
X97821428Y-70071428D01*
X97678571Y-70071428D01*
X97321428Y-69357142D02*
X96321428Y-69357142D01*
X97178571Y-69357142D02*
X97250000Y-69285714D01*
X97321428Y-69142857D01*
X97321428Y-68928571D01*
X97250000Y-68785714D01*
X97107142Y-68714285D01*
X96321428Y-68714285D01*
X97321428Y-67357142D02*
X96107142Y-67357142D01*
X95964285Y-67428571D01*
X95892857Y-67500000D01*
X95821428Y-67642857D01*
X95821428Y-67857142D01*
X95892857Y-68000000D01*
X96392857Y-67357142D02*
X96321428Y-67500000D01*
X96321428Y-67785714D01*
X96392857Y-67928571D01*
X96464285Y-68000000D01*
X96607142Y-68071428D01*
X97035714Y-68071428D01*
X97178571Y-68000000D01*
X97250000Y-67928571D01*
X97321428Y-67785714D01*
X97321428Y-67500000D01*
X97250000Y-67357142D01*
X96392857Y-66714285D02*
X96321428Y-66571428D01*
X96321428Y-66285714D01*
X96392857Y-66142857D01*
X96535714Y-66071428D01*
X96607142Y-66071428D01*
X96750000Y-66142857D01*
X96821428Y-66285714D01*
X96821428Y-66500000D01*
X96892857Y-66642857D01*
X97035714Y-66714285D01*
X97107142Y-66714285D01*
X97250000Y-66642857D01*
X97321428Y-66500000D01*
X97321428Y-66285714D01*
X97250000Y-66142857D01*
X96464285Y-65428571D02*
X96392857Y-65357142D01*
X96321428Y-65428571D01*
X96392857Y-65500000D01*
X96464285Y-65428571D01*
X96321428Y-65428571D01*
X97321428Y-64714285D02*
X96321428Y-64714285D01*
X97178571Y-64714285D02*
X97250000Y-64642857D01*
X97321428Y-64500000D01*
X97321428Y-64285714D01*
X97250000Y-64142857D01*
X97107142Y-64071428D01*
X96321428Y-64071428D01*
X96392857Y-62785714D02*
X96321428Y-62928571D01*
X96321428Y-63214285D01*
X96392857Y-63357142D01*
X96535714Y-63428571D01*
X97107142Y-63428571D01*
X97250000Y-63357142D01*
X97321428Y-63214285D01*
X97321428Y-62928571D01*
X97250000Y-62785714D01*
X97107142Y-62714285D01*
X96964285Y-62714285D01*
X96821428Y-63428571D01*
X97321428Y-62285714D02*
X97321428Y-61714285D01*
X97821428Y-62071428D02*
X96535714Y-62071428D01*
X96392857Y-62000000D01*
X96321428Y-61857142D01*
X96321428Y-61714285D01*
X97892857Y-60142857D02*
X95964285Y-61428571D01*
X96392857Y-59000000D02*
X96321428Y-59142857D01*
X96321428Y-59428571D01*
X96392857Y-59571428D01*
X96464285Y-59642857D01*
X96607142Y-59714285D01*
X97035714Y-59714285D01*
X97178571Y-59642857D01*
X97250000Y-59571428D01*
X97321428Y-59428571D01*
X97321428Y-59142857D01*
X97250000Y-59000000D01*
X96321428Y-58357142D02*
X97821428Y-58357142D01*
X96321428Y-57714285D02*
X97107142Y-57714285D01*
X97250000Y-57785714D01*
X97321428Y-57928571D01*
X97321428Y-58142857D01*
X97250000Y-58285714D01*
X97178571Y-58357142D01*
X96321428Y-57000000D02*
X97321428Y-57000000D01*
X97821428Y-57000000D02*
X97750000Y-57071428D01*
X97678571Y-57000000D01*
X97750000Y-56928571D01*
X97821428Y-57000000D01*
X97678571Y-57000000D01*
X96321428Y-56285714D02*
X97321428Y-56285714D01*
X97035714Y-56285714D02*
X97178571Y-56214285D01*
X97250000Y-56142857D01*
X97321428Y-56000000D01*
X97321428Y-55857142D01*
X97321428Y-55357142D02*
X95821428Y-55357142D01*
X97250000Y-55357142D02*
X97321428Y-55214285D01*
X97321428Y-54928571D01*
X97250000Y-54785714D01*
X97178571Y-54714285D01*
X97035714Y-54642857D01*
X96607142Y-54642857D01*
X96464285Y-54714285D01*
X96392857Y-54785714D01*
X96321428Y-54928571D01*
X96321428Y-55214285D01*
X96392857Y-55357142D01*
X93771428Y-84500000D02*
X94771428Y-84500000D01*
X94628571Y-84500000D02*
X94700000Y-84428571D01*
X94771428Y-84285714D01*
X94771428Y-84071428D01*
X94700000Y-83928571D01*
X94557142Y-83857142D01*
X93771428Y-83857142D01*
X94557142Y-83857142D02*
X94700000Y-83785714D01*
X94771428Y-83642857D01*
X94771428Y-83428571D01*
X94700000Y-83285714D01*
X94557142Y-83214285D01*
X93771428Y-83214285D01*
X93771428Y-82500000D02*
X94771428Y-82500000D01*
X95271428Y-82500000D02*
X95200000Y-82571428D01*
X95128571Y-82500000D01*
X95200000Y-82428571D01*
X95271428Y-82500000D01*
X95128571Y-82500000D01*
X93842857Y-81142857D02*
X93771428Y-81285714D01*
X93771428Y-81571428D01*
X93842857Y-81714285D01*
X93914285Y-81785714D01*
X94057142Y-81857142D01*
X94485714Y-81857142D01*
X94628571Y-81785714D01*
X94700000Y-81714285D01*
X94771428Y-81571428D01*
X94771428Y-81285714D01*
X94700000Y-81142857D01*
X94485714Y-79571428D02*
X94557142Y-79642857D01*
X94628571Y-79785714D01*
X94628571Y-79928571D01*
X94557142Y-80071428D01*
X94485714Y-80142857D01*
X94342857Y-80214285D01*
X94200000Y-80214285D01*
X94057142Y-80142857D01*
X93985714Y-80071428D01*
X93914285Y-79928571D01*
X93914285Y-79785714D01*
X93985714Y-79642857D01*
X94057142Y-79571428D01*
X94628571Y-79571428D02*
X94057142Y-79571428D01*
X93985714Y-79500000D01*
X93985714Y-79428571D01*
X94057142Y-79285714D01*
X94200000Y-79214285D01*
X94557142Y-79214285D01*
X94771428Y-79357142D01*
X94914285Y-79571428D01*
X94985714Y-79857142D01*
X94914285Y-80142857D01*
X94771428Y-80357142D01*
X94557142Y-80500000D01*
X94271428Y-80571428D01*
X93985714Y-80500000D01*
X93771428Y-80357142D01*
X93628571Y-80142857D01*
X93557142Y-79857142D01*
X93628571Y-79571428D01*
X93771428Y-79357142D01*
X94771428Y-78714285D02*
X93771428Y-78428571D01*
X94485714Y-78142857D01*
X93771428Y-77857142D01*
X94771428Y-77571428D01*
X93842857Y-76428571D02*
X93771428Y-76571428D01*
X93771428Y-76857142D01*
X93842857Y-77000000D01*
X93985714Y-77071428D01*
X94557142Y-77071428D01*
X94700000Y-77000000D01*
X94771428Y-76857142D01*
X94771428Y-76571428D01*
X94700000Y-76428571D01*
X94557142Y-76357142D01*
X94414285Y-76357142D01*
X94271428Y-77071428D01*
X93771428Y-75714285D02*
X94771428Y-75714285D01*
X94628571Y-75714285D02*
X94700000Y-75642857D01*
X94771428Y-75500000D01*
X94771428Y-75285714D01*
X94700000Y-75142857D01*
X94557142Y-75071428D01*
X93771428Y-75071428D01*
X94557142Y-75071428D02*
X94700000Y-75000000D01*
X94771428Y-74857142D01*
X94771428Y-74642857D01*
X94700000Y-74500000D01*
X94557142Y-74428571D01*
X93771428Y-74428571D01*
X93771428Y-73071428D02*
X94557142Y-73071428D01*
X94700000Y-73142857D01*
X94771428Y-73285714D01*
X94771428Y-73571428D01*
X94700000Y-73714285D01*
X93842857Y-73071428D02*
X93771428Y-73214285D01*
X93771428Y-73571428D01*
X93842857Y-73714285D01*
X93985714Y-73785714D01*
X94128571Y-73785714D01*
X94271428Y-73714285D01*
X94342857Y-73571428D01*
X94342857Y-73214285D01*
X94414285Y-73071428D01*
X93771428Y-72357142D02*
X95271428Y-72357142D01*
X94342857Y-72214285D02*
X93771428Y-71785714D01*
X94771428Y-71785714D02*
X94200000Y-72357142D01*
X93842857Y-70571428D02*
X93771428Y-70714285D01*
X93771428Y-71000000D01*
X93842857Y-71142857D01*
X93985714Y-71214285D01*
X94557142Y-71214285D01*
X94700000Y-71142857D01*
X94771428Y-71000000D01*
X94771428Y-70714285D01*
X94700000Y-70571428D01*
X94557142Y-70500000D01*
X94414285Y-70500000D01*
X94271428Y-71214285D01*
X94771428Y-70071428D02*
X94771428Y-69500000D01*
X95271428Y-69857142D02*
X93985714Y-69857142D01*
X93842857Y-69785714D01*
X93771428Y-69642857D01*
X93771428Y-69500000D01*
X93771428Y-69000000D02*
X95271428Y-69000000D01*
X93771428Y-68357142D02*
X94557142Y-68357142D01*
X94700000Y-68428571D01*
X94771428Y-68571428D01*
X94771428Y-68785714D01*
X94700000Y-68928571D01*
X94628571Y-69000000D01*
X93771428Y-67642857D02*
X94771428Y-67642857D01*
X95271428Y-67642857D02*
X95200000Y-67714285D01*
X95128571Y-67642857D01*
X95200000Y-67571428D01*
X95271428Y-67642857D01*
X95128571Y-67642857D01*
X94771428Y-66928571D02*
X93771428Y-66928571D01*
X94628571Y-66928571D02*
X94700000Y-66857142D01*
X94771428Y-66714285D01*
X94771428Y-66500000D01*
X94700000Y-66357142D01*
X94557142Y-66285714D01*
X93771428Y-66285714D01*
X94771428Y-64928571D02*
X93557142Y-64928571D01*
X93414285Y-65000000D01*
X93342857Y-65071428D01*
X93271428Y-65214285D01*
X93271428Y-65428571D01*
X93342857Y-65571428D01*
X93842857Y-64928571D02*
X93771428Y-65071428D01*
X93771428Y-65357142D01*
X93842857Y-65500000D01*
X93914285Y-65571428D01*
X94057142Y-65642857D01*
X94485714Y-65642857D01*
X94628571Y-65571428D01*
X94700000Y-65500000D01*
X94771428Y-65357142D01*
X94771428Y-65071428D01*
X94700000Y-64928571D01*
X93842857Y-64285714D02*
X93771428Y-64142857D01*
X93771428Y-63857142D01*
X93842857Y-63714285D01*
X93985714Y-63642857D01*
X94057142Y-63642857D01*
X94200000Y-63714285D01*
X94271428Y-63857142D01*
X94271428Y-64071428D01*
X94342857Y-64214285D01*
X94485714Y-64285714D01*
X94557142Y-64285714D01*
X94700000Y-64214285D01*
X94771428Y-64071428D01*
X94771428Y-63857142D01*
X94700000Y-63714285D01*
X93914285Y-63000000D02*
X93842857Y-62928571D01*
X93771428Y-63000000D01*
X93842857Y-63071428D01*
X93914285Y-63000000D01*
X93771428Y-63000000D01*
X94771428Y-62285714D02*
X93771428Y-62285714D01*
X94628571Y-62285714D02*
X94700000Y-62214285D01*
X94771428Y-62071428D01*
X94771428Y-61857142D01*
X94700000Y-61714285D01*
X94557142Y-61642857D01*
X93771428Y-61642857D01*
X93842857Y-60357142D02*
X93771428Y-60500000D01*
X93771428Y-60785714D01*
X93842857Y-60928571D01*
X93985714Y-61000000D01*
X94557142Y-61000000D01*
X94700000Y-60928571D01*
X94771428Y-60785714D01*
X94771428Y-60500000D01*
X94700000Y-60357142D01*
X94557142Y-60285714D01*
X94414285Y-60285714D01*
X94271428Y-61000000D01*
X94771428Y-59857142D02*
X94771428Y-59285714D01*
X95271428Y-59642857D02*
X93985714Y-59642857D01*
X93842857Y-59571428D01*
X93771428Y-59428571D01*
X93771428Y-59285714D01*
D11*
X87000000Y-91000000D02*
X103000000Y-91000000D01*
D12*
G04 #@! TO.C,G\002A\002A\002A*
G36*
X89062140Y-18522357D02*
X89150000Y-18516202D01*
X89400108Y-18419847D01*
X89444371Y-18328477D01*
X89304827Y-18177441D01*
X89150000Y-18143093D01*
X89089739Y-18091009D01*
X89307236Y-17983116D01*
X89405195Y-17949722D01*
X89803414Y-17859065D01*
X90048779Y-17870873D01*
X90061532Y-17880296D01*
X90105629Y-18081949D01*
X90143970Y-18547743D01*
X90172099Y-19205396D01*
X90184814Y-19879654D01*
X90196860Y-20705523D01*
X90222576Y-21254005D01*
X90272089Y-21584118D01*
X90355528Y-21754883D01*
X90483019Y-21825316D01*
X90520111Y-21833620D01*
X90726838Y-21909699D01*
X90620263Y-22033299D01*
X90604217Y-22043600D01*
X90521303Y-22151562D01*
X90746351Y-22193197D01*
X90832120Y-22194776D01*
X91182724Y-22261564D01*
X91293737Y-22494874D01*
X91294702Y-22533775D01*
X91189524Y-22807757D01*
X91042385Y-22870199D01*
X90836898Y-23010437D01*
X90790067Y-23206623D01*
X90895245Y-23480605D01*
X91042385Y-23543047D01*
X91175029Y-23608792D01*
X91253106Y-23846503D01*
X91288661Y-24316891D01*
X91294702Y-24814564D01*
X91313435Y-25437775D01*
X91364405Y-25850510D01*
X91439775Y-25993758D01*
X91450804Y-25989604D01*
X91618692Y-26041761D01*
X91706355Y-26206468D01*
X91881159Y-26450209D01*
X92184347Y-26678455D01*
X92503717Y-26828730D01*
X92727064Y-26838565D01*
X92762723Y-26794630D01*
X93076716Y-26190285D01*
X93525347Y-25714962D01*
X93994872Y-25475556D01*
X94425675Y-25444083D01*
X94682115Y-25613978D01*
X94801864Y-26032126D01*
X94824577Y-26508212D01*
X94899255Y-27046786D01*
X95089047Y-27414057D01*
X95349298Y-27544716D01*
X95500000Y-27496027D01*
X95767070Y-27493096D01*
X95920530Y-27580133D01*
X96204395Y-27696230D01*
X96333396Y-27668975D01*
X96586209Y-27675055D01*
X96882829Y-27822706D01*
X97345281Y-28025721D01*
X97724184Y-28084769D01*
X98066339Y-28138152D01*
X98183991Y-28362827D01*
X98191391Y-28521398D01*
X98111543Y-29004214D01*
X97959565Y-29404510D01*
X97719550Y-29896545D01*
X97552605Y-30271524D01*
X97387593Y-30654079D01*
X97143979Y-31203733D01*
X96947768Y-31639562D01*
X96761590Y-32071973D01*
X96761590Y-30439736D01*
X96845696Y-30355630D01*
X96761590Y-30271524D01*
X96677484Y-30355630D01*
X96761590Y-30439736D01*
X96761590Y-32071973D01*
X96714885Y-32180449D01*
X96613158Y-32561888D01*
X96628344Y-32927809D01*
X96746198Y-33422145D01*
X96764641Y-33489893D01*
X96948645Y-34188991D01*
X97129397Y-34914981D01*
X97194713Y-35191722D01*
X97326769Y-35654218D01*
X97458868Y-35942689D01*
X97517284Y-35990729D01*
X97608836Y-36143703D01*
X97722417Y-36547600D01*
X97835493Y-37119886D01*
X97850243Y-37210265D01*
X98020065Y-38165003D01*
X98210811Y-38835953D01*
X98475557Y-39274215D01*
X98867379Y-39530886D01*
X99439351Y-39657063D01*
X100244551Y-39703844D01*
X100444977Y-39708300D01*
X101157862Y-39742332D01*
X101654601Y-39803897D01*
X101911295Y-39879415D01*
X101904048Y-39955308D01*
X101608961Y-40017994D01*
X101050994Y-40052657D01*
X99957616Y-40082651D01*
X100881324Y-40181392D01*
X101448106Y-40268818D01*
X101751611Y-40396745D01*
X101863564Y-40588462D01*
X101863833Y-40797136D01*
X101686762Y-40768095D01*
X101581710Y-40714621D01*
X101199347Y-40598098D01*
X100668456Y-40533233D01*
X100515364Y-40528757D01*
X99895231Y-40451483D01*
X99229828Y-40262975D01*
X99045585Y-40187609D01*
X98492904Y-39984963D01*
X98174946Y-39989801D01*
X98128830Y-40023092D01*
X97845547Y-40133316D01*
X97358707Y-40186128D01*
X97182120Y-40184603D01*
X97182120Y-39691391D01*
X97320577Y-39629845D01*
X97294261Y-39579250D01*
X97094633Y-39559118D01*
X97069978Y-39579250D01*
X97093069Y-39679252D01*
X97182120Y-39691391D01*
X97182120Y-40184603D01*
X96796284Y-40181269D01*
X96478459Y-40142144D01*
X96478459Y-36611172D01*
X96575547Y-36475551D01*
X96587745Y-36451992D01*
X96687765Y-36105480D01*
X96637354Y-35661627D01*
X96539728Y-35317881D01*
X96351541Y-34692966D01*
X96146990Y-33967106D01*
X96058471Y-33635762D01*
X95984669Y-33358406D01*
X95984669Y-31533113D01*
X96331077Y-31136001D01*
X96611671Y-30786346D01*
X96667855Y-30627836D01*
X96612724Y-30607948D01*
X96509272Y-30715905D01*
X96509272Y-28589404D01*
X96647729Y-28527858D01*
X96621413Y-28477263D01*
X96421785Y-28457131D01*
X96397131Y-28477263D01*
X96420221Y-28577265D01*
X96509272Y-28589404D01*
X96509272Y-30715905D01*
X96490627Y-30735362D01*
X96282170Y-31044658D01*
X96266317Y-31070530D01*
X95984669Y-31533113D01*
X95984669Y-33358406D01*
X95911084Y-33081865D01*
X95854435Y-32878597D01*
X95854435Y-30079723D01*
X96019059Y-29924881D01*
X96085130Y-29838714D01*
X96301590Y-29489228D01*
X96247371Y-29314901D01*
X95899094Y-29262806D01*
X95830506Y-29262252D01*
X95486701Y-29284831D01*
X95467186Y-29317013D01*
X95467186Y-28475384D01*
X95707442Y-28459673D01*
X95960274Y-28377753D01*
X95897489Y-28299964D01*
X95743310Y-28236543D01*
X95360810Y-28123170D01*
X95185033Y-28096592D01*
X95043000Y-28141015D01*
X95149165Y-28319721D01*
X95467186Y-28475384D01*
X95467186Y-29317013D01*
X95414051Y-29404641D01*
X95516867Y-29640729D01*
X95716549Y-29995288D01*
X95854435Y-30079723D01*
X95854435Y-32878597D01*
X95788151Y-32640755D01*
X95736003Y-32468694D01*
X95623671Y-32452083D01*
X95417216Y-32721760D01*
X95247873Y-33029962D01*
X94841255Y-33833134D01*
X95618357Y-35331141D01*
X95972692Y-36003783D01*
X96211305Y-36414916D01*
X96368470Y-36604170D01*
X96478459Y-36611172D01*
X96478459Y-40142144D01*
X96286254Y-40118483D01*
X96003789Y-40027361D01*
X95798389Y-39871946D01*
X95805604Y-39656668D01*
X95919486Y-39413727D01*
X96042914Y-39117461D01*
X96005129Y-38886008D01*
X95768141Y-38598784D01*
X95614905Y-38446962D01*
X95126723Y-38072811D01*
X94691960Y-37977205D01*
X94648150Y-37981723D01*
X94346251Y-38071192D01*
X94266300Y-38301962D01*
X94288449Y-38526258D01*
X94305396Y-39048726D01*
X94253982Y-39436920D01*
X94134860Y-39714144D01*
X93892275Y-39834991D01*
X93475048Y-39859603D01*
X93049196Y-39876335D01*
X92879461Y-39966078D01*
X92885814Y-40188158D01*
X92907746Y-40280133D01*
X92935242Y-40600281D01*
X92770191Y-40699988D01*
X92742739Y-40700663D01*
X92544778Y-40590436D01*
X92473581Y-40222714D01*
X92472186Y-40131020D01*
X92496948Y-39770327D01*
X92633251Y-39585422D01*
X92974120Y-39488272D01*
X93187086Y-39454489D01*
X93901987Y-39347599D01*
X93901987Y-37420530D01*
X94448676Y-37367820D01*
X94841710Y-37276734D01*
X94987136Y-37143751D01*
X94862296Y-37031969D01*
X94580753Y-37000000D01*
X94574835Y-36997943D01*
X94574835Y-36663577D01*
X94658941Y-36579471D01*
X94574835Y-36495365D01*
X94490729Y-36579471D01*
X94574835Y-36663577D01*
X94574835Y-36997943D01*
X94406623Y-36939469D01*
X94406623Y-36327153D01*
X94490729Y-36243047D01*
X94406623Y-36158941D01*
X94322517Y-36243047D01*
X94406623Y-36327153D01*
X94406623Y-36939469D01*
X94157417Y-36852839D01*
X93991954Y-36584231D01*
X93991954Y-31953643D01*
X94162306Y-31838254D01*
X94453467Y-31556678D01*
X94776548Y-31205805D01*
X95042661Y-30882521D01*
X95162916Y-30683715D01*
X95163577Y-30676582D01*
X95125913Y-30474424D01*
X95030701Y-30064910D01*
X94975395Y-29841376D01*
X94787214Y-29094040D01*
X93946514Y-29094040D01*
X93452137Y-29105754D01*
X93218710Y-29166447D01*
X93170930Y-29314452D01*
X93202954Y-29472517D01*
X93478524Y-30519052D01*
X93691054Y-31261705D01*
X93848482Y-31725443D01*
X93958750Y-31935233D01*
X93991954Y-31953643D01*
X93991954Y-36584231D01*
X93897191Y-36430395D01*
X93817881Y-35833576D01*
X93771630Y-35464253D01*
X93585714Y-35327478D01*
X93439404Y-35316030D01*
X93016071Y-35287127D01*
X92497011Y-35220362D01*
X92497011Y-34475321D01*
X92866598Y-34446838D01*
X93020266Y-34377306D01*
X93075371Y-34208997D01*
X93019292Y-33877146D01*
X93005879Y-33835759D01*
X93005879Y-28357755D01*
X93706251Y-28328165D01*
X94162641Y-28304707D01*
X94456540Y-28281846D01*
X94496228Y-28275777D01*
X94524005Y-28114997D01*
X94531839Y-27720119D01*
X94523150Y-27192659D01*
X94501354Y-26634131D01*
X94469870Y-26146049D01*
X94432114Y-25829928D01*
X94411793Y-25767895D01*
X94244257Y-25779285D01*
X94097679Y-25826639D01*
X93758808Y-26098896D01*
X93432615Y-26591473D01*
X93180714Y-27191845D01*
X93071181Y-27701345D01*
X93005879Y-28357755D01*
X93005879Y-33835759D01*
X92839363Y-33321949D01*
X92738518Y-33047020D01*
X92575227Y-32515056D01*
X92485894Y-32040055D01*
X92480681Y-31953643D01*
X92448366Y-31467655D01*
X92373547Y-30860018D01*
X92271677Y-30217023D01*
X92158210Y-29624959D01*
X92048599Y-29170120D01*
X91958298Y-28938794D01*
X91938446Y-28925828D01*
X91884745Y-29083187D01*
X91840675Y-29511931D01*
X91810715Y-30147061D01*
X91799345Y-30923578D01*
X91799338Y-30944371D01*
X91804006Y-31802544D01*
X91823330Y-32379620D01*
X91865293Y-32730860D01*
X91937876Y-32911523D01*
X92049061Y-32976870D01*
X92093709Y-32982427D01*
X92301021Y-33005923D01*
X92181569Y-33055576D01*
X92093709Y-33078867D01*
X91857498Y-33244023D01*
X91812637Y-33473590D01*
X91969808Y-33626122D01*
X92051656Y-33635762D01*
X92274666Y-33770410D01*
X92303974Y-33888080D01*
X92168549Y-34108723D01*
X92041729Y-34140398D01*
X91883444Y-34214534D01*
X91883444Y-33972186D01*
X91967550Y-33888080D01*
X91883444Y-33803974D01*
X91799338Y-33888080D01*
X91883444Y-33972186D01*
X91883444Y-34214534D01*
X91867620Y-34221946D01*
X91883444Y-34308610D01*
X92111357Y-34425744D01*
X92497011Y-34475321D01*
X92497011Y-35220362D01*
X92486796Y-35219048D01*
X92430133Y-35209915D01*
X92019653Y-35159094D01*
X91842193Y-35233902D01*
X91800141Y-35497787D01*
X91799338Y-35619962D01*
X91887744Y-36055977D01*
X92093709Y-36211200D01*
X92301021Y-36275130D01*
X92181569Y-36301485D01*
X92093709Y-36307640D01*
X91861249Y-36428928D01*
X91808528Y-36648828D01*
X91947795Y-36814684D01*
X92051656Y-36831789D01*
X92278266Y-36914989D01*
X92251446Y-37085949D01*
X92009603Y-37220472D01*
X91802291Y-37284402D01*
X91921743Y-37310757D01*
X92009603Y-37316912D01*
X92244062Y-37454676D01*
X92294750Y-37725644D01*
X92161666Y-37981221D01*
X92009603Y-38061531D01*
X91802291Y-38125461D01*
X91921743Y-38151816D01*
X92009603Y-38157971D01*
X92145358Y-38203407D01*
X92232051Y-38358354D01*
X92280277Y-38683345D01*
X92300629Y-39238913D01*
X92303974Y-39839984D01*
X92294942Y-40650969D01*
X92244124Y-41184119D01*
X92115935Y-41497966D01*
X91874792Y-41651043D01*
X91485110Y-41701880D01*
X91168543Y-41707637D01*
X90873077Y-41772822D01*
X90790067Y-41878146D01*
X90650699Y-42026576D01*
X90495696Y-42058181D01*
X90297875Y-42080479D01*
X90410907Y-42151815D01*
X90508143Y-42190907D01*
X90762434Y-42359682D01*
X90814962Y-42466888D01*
X90679297Y-42648875D01*
X90508143Y-42742868D01*
X90299219Y-42838967D01*
X90402552Y-42871046D01*
X90495696Y-42875595D01*
X90677485Y-42947275D01*
X90766341Y-43195537D01*
X90790064Y-43698835D01*
X90790067Y-43706329D01*
X90790067Y-44525240D01*
X91504967Y-44668214D01*
X91952887Y-44723882D01*
X92642824Y-44769546D01*
X93480411Y-44800465D01*
X94364570Y-44811896D01*
X96509272Y-44812604D01*
X96509272Y-45537409D01*
X96450222Y-46096264D01*
X96270231Y-46353452D01*
X96256954Y-46359038D01*
X96034362Y-46524150D01*
X96004636Y-46606077D01*
X96141145Y-46739427D01*
X96256954Y-46756292D01*
X96479964Y-46890940D01*
X96509272Y-47008610D01*
X96374624Y-47231620D01*
X96256954Y-47260928D01*
X96052610Y-47379770D01*
X96016574Y-47639170D01*
X96140398Y-47893441D01*
X96299007Y-47986034D01*
X96506319Y-48049964D01*
X96386867Y-48076319D01*
X96299007Y-48082474D01*
X96100800Y-48177118D01*
X96015557Y-48478477D01*
X96004636Y-48774835D01*
X96039203Y-49227519D01*
X96165534Y-49427736D01*
X96299007Y-49459505D01*
X96479045Y-49486868D01*
X96357560Y-49571392D01*
X96256954Y-49615895D01*
X96016558Y-49729363D01*
X96085256Y-49771009D01*
X96256954Y-49785564D01*
X96446278Y-49835221D01*
X96373026Y-49898872D01*
X96026925Y-50110655D01*
X95694199Y-50422343D01*
X95461351Y-50737478D01*
X95414885Y-50959602D01*
X95417562Y-50964288D01*
X95374510Y-51145858D01*
X95138448Y-51257784D01*
X94743047Y-51363122D01*
X95163577Y-51482012D01*
X95445452Y-51569508D01*
X95413115Y-51604976D01*
X95205630Y-51617670D01*
X94909835Y-51689927D01*
X94827153Y-51790950D01*
X94969684Y-51940555D01*
X95205630Y-52020361D01*
X95584106Y-52093258D01*
X95205630Y-52116166D01*
X94946332Y-52189013D01*
X94841476Y-52430274D01*
X94827153Y-52727815D01*
X94772438Y-53163258D01*
X94597815Y-53315493D01*
X94574835Y-53316557D01*
X94344707Y-53388946D01*
X94369948Y-53542762D01*
X94619495Y-53682976D01*
X94700994Y-53702480D01*
X95079471Y-53775378D01*
X94700994Y-53798285D01*
X94496871Y-53837342D01*
X94383197Y-53974714D01*
X94333812Y-54287559D01*
X94322554Y-54853036D01*
X94322517Y-54914570D01*
X94312032Y-55506289D01*
X94265327Y-55836186D01*
X94159529Y-55978600D01*
X93986093Y-56007947D01*
X93782597Y-55962652D01*
X93682162Y-55771233D01*
X93650739Y-55350385D01*
X93649669Y-55184885D01*
X93692634Y-54605598D01*
X93829368Y-54309709D01*
X93901987Y-54264998D01*
X94112090Y-54069940D01*
X94134096Y-53818313D01*
X93968005Y-53660295D01*
X93901987Y-53652981D01*
X93678977Y-53518333D01*
X93649669Y-53400663D01*
X93784317Y-53177653D01*
X93901987Y-53148345D01*
X94124997Y-53013697D01*
X94154305Y-52896027D01*
X94288953Y-52673017D01*
X94406623Y-52643709D01*
X94596223Y-52507767D01*
X94672628Y-52186546D01*
X94640280Y-51809951D01*
X94503621Y-51507891D01*
X94364570Y-51413966D01*
X94157258Y-51350036D01*
X94276710Y-51323682D01*
X94364570Y-51317527D01*
X94589617Y-51187570D01*
X94658925Y-50801809D01*
X94658941Y-50793378D01*
X94734167Y-50392745D01*
X94911259Y-50288742D01*
X95025081Y-50271546D01*
X95103906Y-50185908D01*
X95153448Y-49980758D01*
X95179422Y-49605023D01*
X95187544Y-49007630D01*
X95183530Y-48137508D01*
X95181334Y-47875341D01*
X95182866Y-47154023D01*
X95211180Y-46701548D01*
X95278991Y-46450627D01*
X95399015Y-46333973D01*
X95477867Y-46306183D01*
X95707747Y-46131184D01*
X95767360Y-45726990D01*
X95766213Y-45691770D01*
X95745112Y-45158279D01*
X92889112Y-45055856D01*
X91947770Y-45020855D01*
X91132107Y-44988164D01*
X90497808Y-44960205D01*
X90100555Y-44939404D01*
X89991060Y-44929697D01*
X89965895Y-44763992D01*
X89950871Y-44372522D01*
X89949007Y-44149007D01*
X89915986Y-43650089D01*
X89803707Y-43422832D01*
X89696689Y-43392053D01*
X89530383Y-43292991D01*
X89454631Y-42956154D01*
X89444371Y-42635100D01*
X89482539Y-42121329D01*
X89605268Y-41896271D01*
X89678692Y-41878146D01*
X89936025Y-41742034D01*
X90013864Y-41615334D01*
X90149742Y-41457571D01*
X90446226Y-41419269D01*
X90872920Y-41466221D01*
X91631126Y-41579921D01*
X91631126Y-40719762D01*
X91614206Y-40208332D01*
X91594330Y-40137302D01*
X91594330Y-28213624D01*
X91759400Y-28156140D01*
X91762542Y-28058486D01*
X91861878Y-27866658D01*
X92051656Y-27808279D01*
X92446625Y-27771074D01*
X92608550Y-27711698D01*
X92640375Y-27590856D01*
X92640398Y-27583552D01*
X92503540Y-27415063D01*
X92157617Y-27179727D01*
X91957460Y-27070349D01*
X91274522Y-26721940D01*
X91326665Y-27432334D01*
X91405370Y-27886934D01*
X91540139Y-28174772D01*
X91594330Y-28213624D01*
X91594330Y-40137302D01*
X91542069Y-39950538D01*
X91382645Y-39864391D01*
X91294702Y-39859603D01*
X91006554Y-39788181D01*
X90996626Y-39635213D01*
X91254898Y-39492644D01*
X91336755Y-39473680D01*
X91580392Y-39417022D01*
X91502458Y-39387846D01*
X91378808Y-39378037D01*
X91266939Y-39358200D01*
X91183898Y-39287470D01*
X91126218Y-39123168D01*
X91090430Y-38822616D01*
X91073065Y-38343136D01*
X91070655Y-37642050D01*
X91079730Y-36676680D01*
X91090861Y-35835220D01*
X91139337Y-32315149D01*
X90754437Y-32241409D01*
X90369537Y-32167670D01*
X90748014Y-32144762D01*
X91045764Y-32033844D01*
X91126490Y-31713024D01*
X91019239Y-31360900D01*
X90748014Y-31231296D01*
X90369537Y-31158398D01*
X90748014Y-31135491D01*
X91023278Y-31048474D01*
X91121062Y-30768406D01*
X91126490Y-30607948D01*
X91074978Y-30239543D01*
X90872895Y-30099841D01*
X90748014Y-30086544D01*
X90497937Y-30066408D01*
X90550766Y-30015326D01*
X90790067Y-29935100D01*
X91029343Y-29832691D01*
X90936679Y-29785030D01*
X90916226Y-29783655D01*
X90666118Y-29695483D01*
X90621855Y-29611010D01*
X90760416Y-29442708D01*
X90916226Y-29378205D01*
X91123538Y-29314275D01*
X91004086Y-29287920D01*
X90916226Y-29281765D01*
X90668713Y-29123727D01*
X90621855Y-28925828D01*
X90513470Y-28649220D01*
X90362503Y-28589404D01*
X90055694Y-28481483D01*
X89746894Y-28257499D01*
X89390635Y-27925594D01*
X89795980Y-27772236D01*
X90233024Y-27711854D01*
X90411590Y-27788314D01*
X90584510Y-27847452D01*
X90621855Y-27679556D01*
X90489152Y-27383905D01*
X90369537Y-27304539D01*
X90146159Y-27102786D01*
X90117219Y-26991391D01*
X90252561Y-26747943D01*
X90369537Y-26678243D01*
X90603486Y-26494116D01*
X90544252Y-26307146D01*
X90243378Y-26217670D01*
X89983283Y-26196500D01*
X90048092Y-26144308D01*
X90207108Y-26091511D01*
X90426637Y-25951545D01*
X90538247Y-25652449D01*
X90577383Y-25183113D01*
X90566967Y-24670423D01*
X90477751Y-24427052D01*
X90361335Y-24384106D01*
X90134773Y-24312978D01*
X90104719Y-24257948D01*
X89974995Y-23588150D01*
X89753196Y-23203839D01*
X89691942Y-23160242D01*
X89465703Y-22954611D01*
X89564322Y-22763103D01*
X89991060Y-22575281D01*
X90537749Y-22399908D01*
X89991060Y-22382736D01*
X89598180Y-22321264D01*
X89452258Y-22136992D01*
X89444371Y-22041474D01*
X89312386Y-21737030D01*
X89150000Y-21640457D01*
X88942688Y-21576527D01*
X89062140Y-21550172D01*
X89150000Y-21544017D01*
X89295092Y-21493488D01*
X89383521Y-21322108D01*
X89428615Y-20964815D01*
X89443703Y-20356549D01*
X89444371Y-20107036D01*
X89434777Y-19400653D01*
X89397129Y-18962875D01*
X89318133Y-18726211D01*
X89184495Y-18623166D01*
X89150000Y-18612642D01*
X88942688Y-18548712D01*
X89062140Y-18522357D01*
X89062140Y-18522357D01*
G37*
X89062140Y-18522357D02*
X89150000Y-18516202D01*
X89400108Y-18419847D01*
X89444371Y-18328477D01*
X89304827Y-18177441D01*
X89150000Y-18143093D01*
X89089739Y-18091009D01*
X89307236Y-17983116D01*
X89405195Y-17949722D01*
X89803414Y-17859065D01*
X90048779Y-17870873D01*
X90061532Y-17880296D01*
X90105629Y-18081949D01*
X90143970Y-18547743D01*
X90172099Y-19205396D01*
X90184814Y-19879654D01*
X90196860Y-20705523D01*
X90222576Y-21254005D01*
X90272089Y-21584118D01*
X90355528Y-21754883D01*
X90483019Y-21825316D01*
X90520111Y-21833620D01*
X90726838Y-21909699D01*
X90620263Y-22033299D01*
X90604217Y-22043600D01*
X90521303Y-22151562D01*
X90746351Y-22193197D01*
X90832120Y-22194776D01*
X91182724Y-22261564D01*
X91293737Y-22494874D01*
X91294702Y-22533775D01*
X91189524Y-22807757D01*
X91042385Y-22870199D01*
X90836898Y-23010437D01*
X90790067Y-23206623D01*
X90895245Y-23480605D01*
X91042385Y-23543047D01*
X91175029Y-23608792D01*
X91253106Y-23846503D01*
X91288661Y-24316891D01*
X91294702Y-24814564D01*
X91313435Y-25437775D01*
X91364405Y-25850510D01*
X91439775Y-25993758D01*
X91450804Y-25989604D01*
X91618692Y-26041761D01*
X91706355Y-26206468D01*
X91881159Y-26450209D01*
X92184347Y-26678455D01*
X92503717Y-26828730D01*
X92727064Y-26838565D01*
X92762723Y-26794630D01*
X93076716Y-26190285D01*
X93525347Y-25714962D01*
X93994872Y-25475556D01*
X94425675Y-25444083D01*
X94682115Y-25613978D01*
X94801864Y-26032126D01*
X94824577Y-26508212D01*
X94899255Y-27046786D01*
X95089047Y-27414057D01*
X95349298Y-27544716D01*
X95500000Y-27496027D01*
X95767070Y-27493096D01*
X95920530Y-27580133D01*
X96204395Y-27696230D01*
X96333396Y-27668975D01*
X96586209Y-27675055D01*
X96882829Y-27822706D01*
X97345281Y-28025721D01*
X97724184Y-28084769D01*
X98066339Y-28138152D01*
X98183991Y-28362827D01*
X98191391Y-28521398D01*
X98111543Y-29004214D01*
X97959565Y-29404510D01*
X97719550Y-29896545D01*
X97552605Y-30271524D01*
X97387593Y-30654079D01*
X97143979Y-31203733D01*
X96947768Y-31639562D01*
X96761590Y-32071973D01*
X96761590Y-30439736D01*
X96845696Y-30355630D01*
X96761590Y-30271524D01*
X96677484Y-30355630D01*
X96761590Y-30439736D01*
X96761590Y-32071973D01*
X96714885Y-32180449D01*
X96613158Y-32561888D01*
X96628344Y-32927809D01*
X96746198Y-33422145D01*
X96764641Y-33489893D01*
X96948645Y-34188991D01*
X97129397Y-34914981D01*
X97194713Y-35191722D01*
X97326769Y-35654218D01*
X97458868Y-35942689D01*
X97517284Y-35990729D01*
X97608836Y-36143703D01*
X97722417Y-36547600D01*
X97835493Y-37119886D01*
X97850243Y-37210265D01*
X98020065Y-38165003D01*
X98210811Y-38835953D01*
X98475557Y-39274215D01*
X98867379Y-39530886D01*
X99439351Y-39657063D01*
X100244551Y-39703844D01*
X100444977Y-39708300D01*
X101157862Y-39742332D01*
X101654601Y-39803897D01*
X101911295Y-39879415D01*
X101904048Y-39955308D01*
X101608961Y-40017994D01*
X101050994Y-40052657D01*
X99957616Y-40082651D01*
X100881324Y-40181392D01*
X101448106Y-40268818D01*
X101751611Y-40396745D01*
X101863564Y-40588462D01*
X101863833Y-40797136D01*
X101686762Y-40768095D01*
X101581710Y-40714621D01*
X101199347Y-40598098D01*
X100668456Y-40533233D01*
X100515364Y-40528757D01*
X99895231Y-40451483D01*
X99229828Y-40262975D01*
X99045585Y-40187609D01*
X98492904Y-39984963D01*
X98174946Y-39989801D01*
X98128830Y-40023092D01*
X97845547Y-40133316D01*
X97358707Y-40186128D01*
X97182120Y-40184603D01*
X97182120Y-39691391D01*
X97320577Y-39629845D01*
X97294261Y-39579250D01*
X97094633Y-39559118D01*
X97069978Y-39579250D01*
X97093069Y-39679252D01*
X97182120Y-39691391D01*
X97182120Y-40184603D01*
X96796284Y-40181269D01*
X96478459Y-40142144D01*
X96478459Y-36611172D01*
X96575547Y-36475551D01*
X96587745Y-36451992D01*
X96687765Y-36105480D01*
X96637354Y-35661627D01*
X96539728Y-35317881D01*
X96351541Y-34692966D01*
X96146990Y-33967106D01*
X96058471Y-33635762D01*
X95984669Y-33358406D01*
X95984669Y-31533113D01*
X96331077Y-31136001D01*
X96611671Y-30786346D01*
X96667855Y-30627836D01*
X96612724Y-30607948D01*
X96509272Y-30715905D01*
X96509272Y-28589404D01*
X96647729Y-28527858D01*
X96621413Y-28477263D01*
X96421785Y-28457131D01*
X96397131Y-28477263D01*
X96420221Y-28577265D01*
X96509272Y-28589404D01*
X96509272Y-30715905D01*
X96490627Y-30735362D01*
X96282170Y-31044658D01*
X96266317Y-31070530D01*
X95984669Y-31533113D01*
X95984669Y-33358406D01*
X95911084Y-33081865D01*
X95854435Y-32878597D01*
X95854435Y-30079723D01*
X96019059Y-29924881D01*
X96085130Y-29838714D01*
X96301590Y-29489228D01*
X96247371Y-29314901D01*
X95899094Y-29262806D01*
X95830506Y-29262252D01*
X95486701Y-29284831D01*
X95467186Y-29317013D01*
X95467186Y-28475384D01*
X95707442Y-28459673D01*
X95960274Y-28377753D01*
X95897489Y-28299964D01*
X95743310Y-28236543D01*
X95360810Y-28123170D01*
X95185033Y-28096592D01*
X95043000Y-28141015D01*
X95149165Y-28319721D01*
X95467186Y-28475384D01*
X95467186Y-29317013D01*
X95414051Y-29404641D01*
X95516867Y-29640729D01*
X95716549Y-29995288D01*
X95854435Y-30079723D01*
X95854435Y-32878597D01*
X95788151Y-32640755D01*
X95736003Y-32468694D01*
X95623671Y-32452083D01*
X95417216Y-32721760D01*
X95247873Y-33029962D01*
X94841255Y-33833134D01*
X95618357Y-35331141D01*
X95972692Y-36003783D01*
X96211305Y-36414916D01*
X96368470Y-36604170D01*
X96478459Y-36611172D01*
X96478459Y-40142144D01*
X96286254Y-40118483D01*
X96003789Y-40027361D01*
X95798389Y-39871946D01*
X95805604Y-39656668D01*
X95919486Y-39413727D01*
X96042914Y-39117461D01*
X96005129Y-38886008D01*
X95768141Y-38598784D01*
X95614905Y-38446962D01*
X95126723Y-38072811D01*
X94691960Y-37977205D01*
X94648150Y-37981723D01*
X94346251Y-38071192D01*
X94266300Y-38301962D01*
X94288449Y-38526258D01*
X94305396Y-39048726D01*
X94253982Y-39436920D01*
X94134860Y-39714144D01*
X93892275Y-39834991D01*
X93475048Y-39859603D01*
X93049196Y-39876335D01*
X92879461Y-39966078D01*
X92885814Y-40188158D01*
X92907746Y-40280133D01*
X92935242Y-40600281D01*
X92770191Y-40699988D01*
X92742739Y-40700663D01*
X92544778Y-40590436D01*
X92473581Y-40222714D01*
X92472186Y-40131020D01*
X92496948Y-39770327D01*
X92633251Y-39585422D01*
X92974120Y-39488272D01*
X93187086Y-39454489D01*
X93901987Y-39347599D01*
X93901987Y-37420530D01*
X94448676Y-37367820D01*
X94841710Y-37276734D01*
X94987136Y-37143751D01*
X94862296Y-37031969D01*
X94580753Y-37000000D01*
X94574835Y-36997943D01*
X94574835Y-36663577D01*
X94658941Y-36579471D01*
X94574835Y-36495365D01*
X94490729Y-36579471D01*
X94574835Y-36663577D01*
X94574835Y-36997943D01*
X94406623Y-36939469D01*
X94406623Y-36327153D01*
X94490729Y-36243047D01*
X94406623Y-36158941D01*
X94322517Y-36243047D01*
X94406623Y-36327153D01*
X94406623Y-36939469D01*
X94157417Y-36852839D01*
X93991954Y-36584231D01*
X93991954Y-31953643D01*
X94162306Y-31838254D01*
X94453467Y-31556678D01*
X94776548Y-31205805D01*
X95042661Y-30882521D01*
X95162916Y-30683715D01*
X95163577Y-30676582D01*
X95125913Y-30474424D01*
X95030701Y-30064910D01*
X94975395Y-29841376D01*
X94787214Y-29094040D01*
X93946514Y-29094040D01*
X93452137Y-29105754D01*
X93218710Y-29166447D01*
X93170930Y-29314452D01*
X93202954Y-29472517D01*
X93478524Y-30519052D01*
X93691054Y-31261705D01*
X93848482Y-31725443D01*
X93958750Y-31935233D01*
X93991954Y-31953643D01*
X93991954Y-36584231D01*
X93897191Y-36430395D01*
X93817881Y-35833576D01*
X93771630Y-35464253D01*
X93585714Y-35327478D01*
X93439404Y-35316030D01*
X93016071Y-35287127D01*
X92497011Y-35220362D01*
X92497011Y-34475321D01*
X92866598Y-34446838D01*
X93020266Y-34377306D01*
X93075371Y-34208997D01*
X93019292Y-33877146D01*
X93005879Y-33835759D01*
X93005879Y-28357755D01*
X93706251Y-28328165D01*
X94162641Y-28304707D01*
X94456540Y-28281846D01*
X94496228Y-28275777D01*
X94524005Y-28114997D01*
X94531839Y-27720119D01*
X94523150Y-27192659D01*
X94501354Y-26634131D01*
X94469870Y-26146049D01*
X94432114Y-25829928D01*
X94411793Y-25767895D01*
X94244257Y-25779285D01*
X94097679Y-25826639D01*
X93758808Y-26098896D01*
X93432615Y-26591473D01*
X93180714Y-27191845D01*
X93071181Y-27701345D01*
X93005879Y-28357755D01*
X93005879Y-33835759D01*
X92839363Y-33321949D01*
X92738518Y-33047020D01*
X92575227Y-32515056D01*
X92485894Y-32040055D01*
X92480681Y-31953643D01*
X92448366Y-31467655D01*
X92373547Y-30860018D01*
X92271677Y-30217023D01*
X92158210Y-29624959D01*
X92048599Y-29170120D01*
X91958298Y-28938794D01*
X91938446Y-28925828D01*
X91884745Y-29083187D01*
X91840675Y-29511931D01*
X91810715Y-30147061D01*
X91799345Y-30923578D01*
X91799338Y-30944371D01*
X91804006Y-31802544D01*
X91823330Y-32379620D01*
X91865293Y-32730860D01*
X91937876Y-32911523D01*
X92049061Y-32976870D01*
X92093709Y-32982427D01*
X92301021Y-33005923D01*
X92181569Y-33055576D01*
X92093709Y-33078867D01*
X91857498Y-33244023D01*
X91812637Y-33473590D01*
X91969808Y-33626122D01*
X92051656Y-33635762D01*
X92274666Y-33770410D01*
X92303974Y-33888080D01*
X92168549Y-34108723D01*
X92041729Y-34140398D01*
X91883444Y-34214534D01*
X91883444Y-33972186D01*
X91967550Y-33888080D01*
X91883444Y-33803974D01*
X91799338Y-33888080D01*
X91883444Y-33972186D01*
X91883444Y-34214534D01*
X91867620Y-34221946D01*
X91883444Y-34308610D01*
X92111357Y-34425744D01*
X92497011Y-34475321D01*
X92497011Y-35220362D01*
X92486796Y-35219048D01*
X92430133Y-35209915D01*
X92019653Y-35159094D01*
X91842193Y-35233902D01*
X91800141Y-35497787D01*
X91799338Y-35619962D01*
X91887744Y-36055977D01*
X92093709Y-36211200D01*
X92301021Y-36275130D01*
X92181569Y-36301485D01*
X92093709Y-36307640D01*
X91861249Y-36428928D01*
X91808528Y-36648828D01*
X91947795Y-36814684D01*
X92051656Y-36831789D01*
X92278266Y-36914989D01*
X92251446Y-37085949D01*
X92009603Y-37220472D01*
X91802291Y-37284402D01*
X91921743Y-37310757D01*
X92009603Y-37316912D01*
X92244062Y-37454676D01*
X92294750Y-37725644D01*
X92161666Y-37981221D01*
X92009603Y-38061531D01*
X91802291Y-38125461D01*
X91921743Y-38151816D01*
X92009603Y-38157971D01*
X92145358Y-38203407D01*
X92232051Y-38358354D01*
X92280277Y-38683345D01*
X92300629Y-39238913D01*
X92303974Y-39839984D01*
X92294942Y-40650969D01*
X92244124Y-41184119D01*
X92115935Y-41497966D01*
X91874792Y-41651043D01*
X91485110Y-41701880D01*
X91168543Y-41707637D01*
X90873077Y-41772822D01*
X90790067Y-41878146D01*
X90650699Y-42026576D01*
X90495696Y-42058181D01*
X90297875Y-42080479D01*
X90410907Y-42151815D01*
X90508143Y-42190907D01*
X90762434Y-42359682D01*
X90814962Y-42466888D01*
X90679297Y-42648875D01*
X90508143Y-42742868D01*
X90299219Y-42838967D01*
X90402552Y-42871046D01*
X90495696Y-42875595D01*
X90677485Y-42947275D01*
X90766341Y-43195537D01*
X90790064Y-43698835D01*
X90790067Y-43706329D01*
X90790067Y-44525240D01*
X91504967Y-44668214D01*
X91952887Y-44723882D01*
X92642824Y-44769546D01*
X93480411Y-44800465D01*
X94364570Y-44811896D01*
X96509272Y-44812604D01*
X96509272Y-45537409D01*
X96450222Y-46096264D01*
X96270231Y-46353452D01*
X96256954Y-46359038D01*
X96034362Y-46524150D01*
X96004636Y-46606077D01*
X96141145Y-46739427D01*
X96256954Y-46756292D01*
X96479964Y-46890940D01*
X96509272Y-47008610D01*
X96374624Y-47231620D01*
X96256954Y-47260928D01*
X96052610Y-47379770D01*
X96016574Y-47639170D01*
X96140398Y-47893441D01*
X96299007Y-47986034D01*
X96506319Y-48049964D01*
X96386867Y-48076319D01*
X96299007Y-48082474D01*
X96100800Y-48177118D01*
X96015557Y-48478477D01*
X96004636Y-48774835D01*
X96039203Y-49227519D01*
X96165534Y-49427736D01*
X96299007Y-49459505D01*
X96479045Y-49486868D01*
X96357560Y-49571392D01*
X96256954Y-49615895D01*
X96016558Y-49729363D01*
X96085256Y-49771009D01*
X96256954Y-49785564D01*
X96446278Y-49835221D01*
X96373026Y-49898872D01*
X96026925Y-50110655D01*
X95694199Y-50422343D01*
X95461351Y-50737478D01*
X95414885Y-50959602D01*
X95417562Y-50964288D01*
X95374510Y-51145858D01*
X95138448Y-51257784D01*
X94743047Y-51363122D01*
X95163577Y-51482012D01*
X95445452Y-51569508D01*
X95413115Y-51604976D01*
X95205630Y-51617670D01*
X94909835Y-51689927D01*
X94827153Y-51790950D01*
X94969684Y-51940555D01*
X95205630Y-52020361D01*
X95584106Y-52093258D01*
X95205630Y-52116166D01*
X94946332Y-52189013D01*
X94841476Y-52430274D01*
X94827153Y-52727815D01*
X94772438Y-53163258D01*
X94597815Y-53315493D01*
X94574835Y-53316557D01*
X94344707Y-53388946D01*
X94369948Y-53542762D01*
X94619495Y-53682976D01*
X94700994Y-53702480D01*
X95079471Y-53775378D01*
X94700994Y-53798285D01*
X94496871Y-53837342D01*
X94383197Y-53974714D01*
X94333812Y-54287559D01*
X94322554Y-54853036D01*
X94322517Y-54914570D01*
X94312032Y-55506289D01*
X94265327Y-55836186D01*
X94159529Y-55978600D01*
X93986093Y-56007947D01*
X93782597Y-55962652D01*
X93682162Y-55771233D01*
X93650739Y-55350385D01*
X93649669Y-55184885D01*
X93692634Y-54605598D01*
X93829368Y-54309709D01*
X93901987Y-54264998D01*
X94112090Y-54069940D01*
X94134096Y-53818313D01*
X93968005Y-53660295D01*
X93901987Y-53652981D01*
X93678977Y-53518333D01*
X93649669Y-53400663D01*
X93784317Y-53177653D01*
X93901987Y-53148345D01*
X94124997Y-53013697D01*
X94154305Y-52896027D01*
X94288953Y-52673017D01*
X94406623Y-52643709D01*
X94596223Y-52507767D01*
X94672628Y-52186546D01*
X94640280Y-51809951D01*
X94503621Y-51507891D01*
X94364570Y-51413966D01*
X94157258Y-51350036D01*
X94276710Y-51323682D01*
X94364570Y-51317527D01*
X94589617Y-51187570D01*
X94658925Y-50801809D01*
X94658941Y-50793378D01*
X94734167Y-50392745D01*
X94911259Y-50288742D01*
X95025081Y-50271546D01*
X95103906Y-50185908D01*
X95153448Y-49980758D01*
X95179422Y-49605023D01*
X95187544Y-49007630D01*
X95183530Y-48137508D01*
X95181334Y-47875341D01*
X95182866Y-47154023D01*
X95211180Y-46701548D01*
X95278991Y-46450627D01*
X95399015Y-46333973D01*
X95477867Y-46306183D01*
X95707747Y-46131184D01*
X95767360Y-45726990D01*
X95766213Y-45691770D01*
X95745112Y-45158279D01*
X92889112Y-45055856D01*
X91947770Y-45020855D01*
X91132107Y-44988164D01*
X90497808Y-44960205D01*
X90100555Y-44939404D01*
X89991060Y-44929697D01*
X89965895Y-44763992D01*
X89950871Y-44372522D01*
X89949007Y-44149007D01*
X89915986Y-43650089D01*
X89803707Y-43422832D01*
X89696689Y-43392053D01*
X89530383Y-43292991D01*
X89454631Y-42956154D01*
X89444371Y-42635100D01*
X89482539Y-42121329D01*
X89605268Y-41896271D01*
X89678692Y-41878146D01*
X89936025Y-41742034D01*
X90013864Y-41615334D01*
X90149742Y-41457571D01*
X90446226Y-41419269D01*
X90872920Y-41466221D01*
X91631126Y-41579921D01*
X91631126Y-40719762D01*
X91614206Y-40208332D01*
X91594330Y-40137302D01*
X91594330Y-28213624D01*
X91759400Y-28156140D01*
X91762542Y-28058486D01*
X91861878Y-27866658D01*
X92051656Y-27808279D01*
X92446625Y-27771074D01*
X92608550Y-27711698D01*
X92640375Y-27590856D01*
X92640398Y-27583552D01*
X92503540Y-27415063D01*
X92157617Y-27179727D01*
X91957460Y-27070349D01*
X91274522Y-26721940D01*
X91326665Y-27432334D01*
X91405370Y-27886934D01*
X91540139Y-28174772D01*
X91594330Y-28213624D01*
X91594330Y-40137302D01*
X91542069Y-39950538D01*
X91382645Y-39864391D01*
X91294702Y-39859603D01*
X91006554Y-39788181D01*
X90996626Y-39635213D01*
X91254898Y-39492644D01*
X91336755Y-39473680D01*
X91580392Y-39417022D01*
X91502458Y-39387846D01*
X91378808Y-39378037D01*
X91266939Y-39358200D01*
X91183898Y-39287470D01*
X91126218Y-39123168D01*
X91090430Y-38822616D01*
X91073065Y-38343136D01*
X91070655Y-37642050D01*
X91079730Y-36676680D01*
X91090861Y-35835220D01*
X91139337Y-32315149D01*
X90754437Y-32241409D01*
X90369537Y-32167670D01*
X90748014Y-32144762D01*
X91045764Y-32033844D01*
X91126490Y-31713024D01*
X91019239Y-31360900D01*
X90748014Y-31231296D01*
X90369537Y-31158398D01*
X90748014Y-31135491D01*
X91023278Y-31048474D01*
X91121062Y-30768406D01*
X91126490Y-30607948D01*
X91074978Y-30239543D01*
X90872895Y-30099841D01*
X90748014Y-30086544D01*
X90497937Y-30066408D01*
X90550766Y-30015326D01*
X90790067Y-29935100D01*
X91029343Y-29832691D01*
X90936679Y-29785030D01*
X90916226Y-29783655D01*
X90666118Y-29695483D01*
X90621855Y-29611010D01*
X90760416Y-29442708D01*
X90916226Y-29378205D01*
X91123538Y-29314275D01*
X91004086Y-29287920D01*
X90916226Y-29281765D01*
X90668713Y-29123727D01*
X90621855Y-28925828D01*
X90513470Y-28649220D01*
X90362503Y-28589404D01*
X90055694Y-28481483D01*
X89746894Y-28257499D01*
X89390635Y-27925594D01*
X89795980Y-27772236D01*
X90233024Y-27711854D01*
X90411590Y-27788314D01*
X90584510Y-27847452D01*
X90621855Y-27679556D01*
X90489152Y-27383905D01*
X90369537Y-27304539D01*
X90146159Y-27102786D01*
X90117219Y-26991391D01*
X90252561Y-26747943D01*
X90369537Y-26678243D01*
X90603486Y-26494116D01*
X90544252Y-26307146D01*
X90243378Y-26217670D01*
X89983283Y-26196500D01*
X90048092Y-26144308D01*
X90207108Y-26091511D01*
X90426637Y-25951545D01*
X90538247Y-25652449D01*
X90577383Y-25183113D01*
X90566967Y-24670423D01*
X90477751Y-24427052D01*
X90361335Y-24384106D01*
X90134773Y-24312978D01*
X90104719Y-24257948D01*
X89974995Y-23588150D01*
X89753196Y-23203839D01*
X89691942Y-23160242D01*
X89465703Y-22954611D01*
X89564322Y-22763103D01*
X89991060Y-22575281D01*
X90537749Y-22399908D01*
X89991060Y-22382736D01*
X89598180Y-22321264D01*
X89452258Y-22136992D01*
X89444371Y-22041474D01*
X89312386Y-21737030D01*
X89150000Y-21640457D01*
X88942688Y-21576527D01*
X89062140Y-21550172D01*
X89150000Y-21544017D01*
X89295092Y-21493488D01*
X89383521Y-21322108D01*
X89428615Y-20964815D01*
X89443703Y-20356549D01*
X89444371Y-20107036D01*
X89434777Y-19400653D01*
X89397129Y-18962875D01*
X89318133Y-18726211D01*
X89184495Y-18623166D01*
X89150000Y-18612642D01*
X88942688Y-18548712D01*
X89062140Y-18522357D01*
G04 #@! TD*
%LPC*%
D13*
G04 #@! TO.C,P1*
X95460000Y-41730000D03*
X95460000Y-44270000D03*
X98000000Y-41730000D03*
X98000000Y-44270000D03*
X100540000Y-41730000D03*
D14*
X100540000Y-44270000D03*
G04 #@! TD*
M02*
