G04 #@! TF.GenerationSoftware,KiCad,Pcbnew,(5.0.0-rc2-160-g7b73557)*
G04 #@! TF.CreationDate,2018-07-20T13:29:01+03:00*
G04 #@! TF.ProjectId,i2c-moist-sensor,6932632D6D6F6973742D73656E736F72,rev?*
G04 #@! TF.SameCoordinates,Original*
G04 #@! TF.FileFunction,Copper,L4,Bot,Signal*
G04 #@! TF.FilePolarity,Positive*
%FSLAX46Y46*%
G04 Gerber Fmt 4.6, Leading zero omitted, Abs format (unit mm)*
G04 Created by KiCad (PCBNEW (5.0.0-rc2-160-g7b73557)) date 2018 July 20, Friday 13:29:01*
%MOMM*%
%LPD*%
G01*
G04 APERTURE LIST*
G04 #@! TA.AperFunction,BGAPad,CuDef*
%ADD10C,1.727200*%
G04 #@! TD*
G04 #@! TA.AperFunction,SMDPad,CuDef*
%ADD11R,1.727200X1.727200*%
G04 #@! TD*
G04 #@! TA.AperFunction,ViaPad*
%ADD12C,0.700000*%
G04 #@! TD*
G04 #@! TA.AperFunction,Conductor*
%ADD13C,0.254000*%
G04 #@! TD*
G04 APERTURE END LIST*
D10*
G04 #@! TO.P,P1,6*
G04 #@! TO.N,GND*
X95460000Y-41730000D03*
G04 #@! TO.P,P1,5*
G04 #@! TO.N,/RESET*
X95460000Y-44270000D03*
G04 #@! TO.P,P1,4*
G04 #@! TO.N,/MOSI/SDA*
X98000000Y-41730000D03*
G04 #@! TO.P,P1,3*
G04 #@! TO.N,/SCK/SCL*
X98000000Y-44270000D03*
G04 #@! TO.P,P1,2*
G04 #@! TO.N,VCC*
X100540000Y-41730000D03*
D11*
G04 #@! TO.P,P1,1*
G04 #@! TO.N,/MISO/SENSE_HIGH*
X100540000Y-44270000D03*
G04 #@! TD*
D12*
G04 #@! TO.N,GND*
X96800004Y-53300004D03*
X99800000Y-51500000D03*
X99500000Y-34000000D03*
X92000000Y-54200000D03*
X95300000Y-39000000D03*
X95200000Y-37400000D03*
X100800000Y-40200000D03*
X100500000Y-39300000D03*
X99500000Y-39200000D03*
X97300000Y-55150000D03*
X90450000Y-32700000D03*
X90150000Y-52400000D03*
X93027776Y-33327776D03*
X95294552Y-41900000D03*
X91400000Y-40700000D03*
X89100000Y-43700000D03*
G04 #@! TO.N,VCC*
X93700000Y-37300000D03*
X101400000Y-42000000D03*
X93650000Y-39540000D03*
G04 #@! TO.N,/SENSOR_TRACK*
X88750000Y-57500000D03*
X96204000Y-57246000D03*
G04 #@! TO.N,/RESET*
X94800000Y-43800000D03*
G04 #@! TO.N,/EXCITATION*
X90250000Y-55749996D03*
X91050000Y-48750002D03*
G04 #@! TO.N,/SCK/SCL*
X98000000Y-45200000D03*
G04 #@! TO.N,/MOSI/SDA*
X97300000Y-42400000D03*
G04 #@! TO.N,/MISO/SENSE_HIGH*
X101400000Y-44300000D03*
X100000000Y-48200000D03*
G04 #@! TO.N,Net-(IC1-Pad11)*
X95500000Y-50100000D03*
X99100000Y-50500000D03*
X92710000Y-50038000D03*
G04 #@! TD*
D13*
G04 #@! TO.N,VCC*
X101130000Y-41730000D02*
X101400000Y-42000000D01*
X100540000Y-41730000D02*
X101130000Y-41730000D01*
G04 #@! TO.N,/SCK/SCL*
X98000000Y-44270000D02*
X98000000Y-45200000D01*
G04 #@! TO.N,/MOSI/SDA*
X97970000Y-41730000D02*
X97300000Y-42400000D01*
X98000000Y-41730000D02*
X97970000Y-41730000D01*
G04 #@! TO.N,/MISO/SENSE_HIGH*
X101370000Y-44270000D02*
X101400000Y-44300000D01*
X100540000Y-44270000D02*
X101370000Y-44270000D01*
G04 #@! TD*
M02*
