G04 #@! TF.GenerationSoftware,KiCad,Pcbnew,(5.0.0-rc2-160-g7b73557)*
G04 #@! TF.CreationDate,2018-07-03T19:16:21+03:00*
G04 #@! TF.ProjectId,i2c-moist-sensor,6932632D6D6F6973742D73656E736F72,rev?*
G04 #@! TF.SameCoordinates,Original*
G04 #@! TF.FileFunction,Soldermask,Top*
G04 #@! TF.FilePolarity,Negative*
%FSLAX46Y46*%
G04 Gerber Fmt 4.6, Leading zero omitted, Abs format (unit mm)*
G04 Created by KiCad (PCBNEW (5.0.0-rc2-160-g7b73557)) date 2018 July 03, Tuesday 19:16:21*
%MOMM*%
%LPD*%
G01*
G04 APERTURE LIST*
%ADD10R,0.800000X0.800000*%
%ADD11R,1.500000X5.500000*%
%ADD12R,0.600000X0.700000*%
%ADD13R,1.727200X1.727200*%
%ADD14C,1.727200*%
%ADD15R,0.800000X0.750000*%
%ADD16R,0.500000X0.900000*%
%ADD17R,1.500000X0.600000*%
G04 APERTURE END LIST*
D10*
G04 #@! TO.C,D3*
X98575000Y-36500000D03*
X100225000Y-36500000D03*
G04 #@! TD*
D11*
G04 #@! TO.C,X1*
X89000000Y-47250000D03*
X89000000Y-38750000D03*
G04 #@! TD*
D12*
G04 #@! TO.C,D2*
X96204000Y-56642000D03*
X94804000Y-56642000D03*
G04 #@! TD*
G04 #@! TO.C,D1*
X93410000Y-56642000D03*
X92010000Y-56642000D03*
G04 #@! TD*
D13*
G04 #@! TO.C,P1*
X97540000Y-25460000D03*
D14*
X97540000Y-28000000D03*
X95000000Y-25460000D03*
X95000000Y-28000000D03*
X92460000Y-25460000D03*
X92460000Y-28000000D03*
G04 #@! TD*
D15*
G04 #@! TO.C,C1*
X88650000Y-51700000D03*
X90150000Y-51700000D03*
G04 #@! TD*
G04 #@! TO.C,C2*
X88450000Y-34000000D03*
X89950000Y-34000000D03*
G04 #@! TD*
G04 #@! TO.C,C3*
X93650000Y-38200000D03*
X95150000Y-38200000D03*
G04 #@! TD*
G04 #@! TO.C,C4*
X93460000Y-55118000D03*
X91960000Y-55118000D03*
G04 #@! TD*
G04 #@! TO.C,C5*
X94754000Y-55118000D03*
X96254000Y-55118000D03*
G04 #@! TD*
G04 #@! TO.C,C6*
X95050000Y-34600000D03*
X93550000Y-34600000D03*
G04 #@! TD*
D16*
G04 #@! TO.C,R1*
X95200000Y-36300000D03*
X93700000Y-36300000D03*
G04 #@! TD*
G04 #@! TO.C,R2*
X96278000Y-49784000D03*
X97778000Y-49784000D03*
G04 #@! TD*
G04 #@! TO.C,R4*
X88750000Y-56750000D03*
X90250000Y-56750000D03*
G04 #@! TD*
G04 #@! TO.C,R5*
X93460000Y-51562000D03*
X91960000Y-51562000D03*
G04 #@! TD*
G04 #@! TO.C,R6*
X94754000Y-51562000D03*
X96254000Y-51562000D03*
G04 #@! TD*
G04 #@! TO.C,R7*
X91960000Y-53340000D03*
X93460000Y-53340000D03*
G04 #@! TD*
G04 #@! TO.C,R8*
X96254000Y-53340000D03*
X94754000Y-53340000D03*
G04 #@! TD*
G04 #@! TO.C,R9*
X100200000Y-38200000D03*
X98700000Y-38200000D03*
G04 #@! TD*
G04 #@! TO.C,TH1*
X97750000Y-51500000D03*
X99250000Y-51500000D03*
G04 #@! TD*
D17*
G04 #@! TO.C,IC1*
X94100000Y-39990000D03*
X94100000Y-41260000D03*
X94100000Y-42530000D03*
X94100000Y-43800000D03*
X94100000Y-45070000D03*
X94100000Y-46340000D03*
X94100000Y-47610000D03*
X99500000Y-47610000D03*
X99500000Y-46340000D03*
X99500000Y-45070000D03*
X99500000Y-43800000D03*
X99500000Y-42530000D03*
X99500000Y-41260000D03*
X99500000Y-39990000D03*
G04 #@! TD*
M02*
