G04 #@! TF.GenerationSoftware,KiCad,Pcbnew,(5.0.0-rc2-160-g7b73557)*
G04 #@! TF.CreationDate,2018-07-20T13:29:01+03:00*
G04 #@! TF.ProjectId,i2c-moist-sensor,6932632D6D6F6973742D73656E736F72,rev?*
G04 #@! TF.SameCoordinates,Original*
G04 #@! TF.FileFunction,Copper,L1,Top,Signal*
G04 #@! TF.FilePolarity,Positive*
%FSLAX46Y46*%
G04 Gerber Fmt 4.6, Leading zero omitted, Abs format (unit mm)*
G04 Created by KiCad (PCBNEW (5.0.0-rc2-160-g7b73557)) date 2018 July 20, Friday 13:29:01*
%MOMM*%
%LPD*%
G01*
G04 APERTURE LIST*
G04 #@! TA.AperFunction,SMDPad,CuDef*
%ADD10R,1.200000X1.400000*%
G04 #@! TD*
G04 #@! TA.AperFunction,SMDPad,CuDef*
%ADD11R,0.800000X0.800000*%
G04 #@! TD*
G04 #@! TA.AperFunction,SMDPad,CuDef*
%ADD12R,0.600000X0.700000*%
G04 #@! TD*
G04 #@! TA.AperFunction,SMDPad,CuDef*
%ADD13R,0.800000X0.750000*%
G04 #@! TD*
G04 #@! TA.AperFunction,SMDPad,CuDef*
%ADD14R,0.500000X0.900000*%
G04 #@! TD*
G04 #@! TA.AperFunction,SMDPad,CuDef*
%ADD15R,1.500000X0.600000*%
G04 #@! TD*
G04 #@! TA.AperFunction,ViaPad*
%ADD16C,0.700000*%
G04 #@! TD*
G04 #@! TA.AperFunction,Conductor*
%ADD17C,0.508000*%
G04 #@! TD*
G04 #@! TA.AperFunction,Conductor*
%ADD18C,0.254000*%
G04 #@! TD*
G04 #@! TA.AperFunction,Conductor*
%ADD19C,1.270000*%
G04 #@! TD*
G04 APERTURE END LIST*
D10*
G04 #@! TO.P,X1,1*
G04 #@! TO.N,Net-(C1-Pad1)*
X90750000Y-42900000D03*
G04 #@! TO.P,X1,2*
G04 #@! TO.N,GND*
X90750000Y-40700000D03*
G04 #@! TO.P,X1,3*
G04 #@! TO.N,Net-(C2-Pad1)*
X89050000Y-40700000D03*
G04 #@! TO.P,X1,4*
G04 #@! TO.N,GND*
X89050000Y-42900000D03*
G04 #@! TD*
D11*
G04 #@! TO.P,D3,1*
G04 #@! TO.N,Net-(D3-Pad1)*
X98575000Y-36500000D03*
G04 #@! TO.P,D3,2*
G04 #@! TO.N,Net-(D3-Pad2)*
X100225000Y-36500000D03*
G04 #@! TD*
D12*
G04 #@! TO.P,D2,1*
G04 #@! TO.N,/SENSOR_TRACK*
X96204000Y-56642000D03*
G04 #@! TO.P,D2,2*
G04 #@! TO.N,/MISO/SENSE_HIGH*
X94804000Y-56642000D03*
G04 #@! TD*
G04 #@! TO.P,D1,1*
G04 #@! TO.N,/SENSE_LOW*
X93410000Y-56642000D03*
G04 #@! TO.P,D1,2*
G04 #@! TO.N,/SENSOR_TRACK*
X92010000Y-56642000D03*
G04 #@! TD*
D13*
G04 #@! TO.P,C1,1*
G04 #@! TO.N,Net-(C1-Pad1)*
X88650000Y-51700000D03*
G04 #@! TO.P,C1,2*
G04 #@! TO.N,GND*
X90150000Y-51700000D03*
G04 #@! TD*
G04 #@! TO.P,C2,1*
G04 #@! TO.N,Net-(C2-Pad1)*
X88950000Y-33400000D03*
G04 #@! TO.P,C2,2*
G04 #@! TO.N,GND*
X90450000Y-33400000D03*
G04 #@! TD*
G04 #@! TO.P,C3,1*
G04 #@! TO.N,VCC*
X93650000Y-38200000D03*
G04 #@! TO.P,C3,2*
G04 #@! TO.N,GND*
X95150000Y-38200000D03*
G04 #@! TD*
G04 #@! TO.P,C4,1*
G04 #@! TO.N,/SENSE_LOW*
X93460000Y-55118000D03*
G04 #@! TO.P,C4,2*
G04 #@! TO.N,GND*
X91960000Y-55118000D03*
G04 #@! TD*
G04 #@! TO.P,C5,1*
G04 #@! TO.N,/MISO/SENSE_HIGH*
X94754000Y-55118000D03*
G04 #@! TO.P,C5,2*
G04 #@! TO.N,GND*
X96254000Y-55118000D03*
G04 #@! TD*
G04 #@! TO.P,C6,1*
G04 #@! TO.N,/RESET*
X95050000Y-33400000D03*
G04 #@! TO.P,C6,2*
G04 #@! TO.N,GND*
X93550000Y-33400000D03*
G04 #@! TD*
D14*
G04 #@! TO.P,R1,1*
G04 #@! TO.N,/RESET*
X95200000Y-36300000D03*
G04 #@! TO.P,R1,2*
G04 #@! TO.N,VCC*
X93700000Y-36300000D03*
G04 #@! TD*
G04 #@! TO.P,R2,1*
G04 #@! TO.N,Net-(IC1-Pad11)*
X96278000Y-49784000D03*
G04 #@! TO.P,R2,2*
G04 #@! TO.N,/THERMISTOR*
X97778000Y-49784000D03*
G04 #@! TD*
G04 #@! TO.P,R4,1*
G04 #@! TO.N,/SENSOR_TRACK*
X88750000Y-56750000D03*
G04 #@! TO.P,R4,2*
G04 #@! TO.N,/EXCITATION*
X90250000Y-56750000D03*
G04 #@! TD*
G04 #@! TO.P,R5,1*
G04 #@! TO.N,/SENSE_LOW*
X93460000Y-51562000D03*
G04 #@! TO.P,R5,2*
G04 #@! TO.N,Net-(IC1-Pad11)*
X91960000Y-51562000D03*
G04 #@! TD*
G04 #@! TO.P,R6,1*
G04 #@! TO.N,/MISO/SENSE_HIGH*
X94754000Y-51562000D03*
G04 #@! TO.P,R6,2*
G04 #@! TO.N,Net-(IC1-Pad11)*
X96254000Y-51562000D03*
G04 #@! TD*
G04 #@! TO.P,R7,1*
G04 #@! TO.N,GND*
X91960000Y-53340000D03*
G04 #@! TO.P,R7,2*
G04 #@! TO.N,/SENSE_LOW*
X93460000Y-53340000D03*
G04 #@! TD*
G04 #@! TO.P,R8,1*
G04 #@! TO.N,GND*
X96254000Y-53340000D03*
G04 #@! TO.P,R8,2*
G04 #@! TO.N,/MISO/SENSE_HIGH*
X94754000Y-53340000D03*
G04 #@! TD*
G04 #@! TO.P,R9,1*
G04 #@! TO.N,Net-(D3-Pad2)*
X100200000Y-38200000D03*
G04 #@! TO.P,R9,2*
G04 #@! TO.N,Net-(IC1-Pad12)*
X98700000Y-38200000D03*
G04 #@! TD*
G04 #@! TO.P,TH1,1*
G04 #@! TO.N,/THERMISTOR*
X97750000Y-51500000D03*
G04 #@! TO.P,TH1,2*
G04 #@! TO.N,GND*
X99250000Y-51500000D03*
G04 #@! TD*
D15*
G04 #@! TO.P,IC1,1*
G04 #@! TO.N,VCC*
X94100000Y-39990000D03*
G04 #@! TO.P,IC1,2*
G04 #@! TO.N,Net-(C2-Pad1)*
X94100000Y-41260000D03*
G04 #@! TO.P,IC1,3*
G04 #@! TO.N,Net-(C1-Pad1)*
X94100000Y-42530000D03*
G04 #@! TO.P,IC1,4*
G04 #@! TO.N,/RESET*
X94100000Y-43800000D03*
G04 #@! TO.P,IC1,5*
G04 #@! TO.N,/EXCITATION*
X94100000Y-45070000D03*
G04 #@! TO.P,IC1,6*
G04 #@! TO.N,/SENSE_LOW*
X94100000Y-46340000D03*
G04 #@! TO.P,IC1,7*
G04 #@! TO.N,/MOSI/SDA*
X94100000Y-47610000D03*
G04 #@! TO.P,IC1,8*
G04 #@! TO.N,/MISO/SENSE_HIGH*
X99500000Y-47610000D03*
G04 #@! TO.P,IC1,9*
G04 #@! TO.N,/SCK/SCL*
X99500000Y-46340000D03*
G04 #@! TO.P,IC1,10*
G04 #@! TO.N,/THERMISTOR*
X99500000Y-45070000D03*
G04 #@! TO.P,IC1,11*
G04 #@! TO.N,Net-(IC1-Pad11)*
X99500000Y-43800000D03*
G04 #@! TO.P,IC1,12*
G04 #@! TO.N,Net-(IC1-Pad12)*
X99500000Y-42530000D03*
G04 #@! TO.P,IC1,13*
G04 #@! TO.N,Net-(D3-Pad1)*
X99500000Y-41260000D03*
G04 #@! TO.P,IC1,14*
G04 #@! TO.N,GND*
X99500000Y-39990000D03*
G04 #@! TD*
D16*
G04 #@! TO.N,GND*
X96800004Y-53300004D03*
X99800000Y-51500000D03*
X99500000Y-34000000D03*
X92000000Y-54200000D03*
X95300000Y-39000000D03*
X95200000Y-37400000D03*
X100800000Y-40200000D03*
X100500000Y-39300000D03*
X99500000Y-39200000D03*
X97300000Y-55150000D03*
X90450000Y-32700000D03*
X90150000Y-52400000D03*
X93027776Y-33327776D03*
X95294552Y-41900000D03*
X91400000Y-40700000D03*
X89100000Y-43700000D03*
G04 #@! TO.N,VCC*
X93700000Y-37300000D03*
X101400000Y-42000000D03*
X93650000Y-39540000D03*
G04 #@! TO.N,/SENSOR_TRACK*
X88750000Y-57500000D03*
X96204000Y-57246000D03*
G04 #@! TO.N,/RESET*
X94800000Y-43800000D03*
G04 #@! TO.N,/EXCITATION*
X90250000Y-55749996D03*
X91050000Y-48750002D03*
G04 #@! TO.N,/SCK/SCL*
X98000000Y-45200000D03*
G04 #@! TO.N,/MOSI/SDA*
X97300000Y-42400000D03*
G04 #@! TO.N,/MISO/SENSE_HIGH*
X101400000Y-44300000D03*
X100000000Y-48200000D03*
G04 #@! TO.N,Net-(IC1-Pad11)*
X95500000Y-50100000D03*
X99100000Y-50500000D03*
X92710000Y-50038000D03*
G04 #@! TD*
D17*
G04 #@! TO.N,Net-(C1-Pad1)*
X91120000Y-42530000D02*
X90750000Y-42900000D01*
X94100000Y-42530000D02*
X91120000Y-42530000D01*
D18*
X88650000Y-51071000D02*
X88650000Y-51700000D01*
X88650000Y-45954000D02*
X88650000Y-51071000D01*
X90750000Y-43854000D02*
X88650000Y-45954000D01*
X90750000Y-42900000D02*
X90750000Y-43854000D01*
D17*
G04 #@! TO.N,GND*
X96305030Y-53300004D02*
X96800004Y-53300004D01*
X96266000Y-53339034D02*
X96305030Y-53300004D01*
X96266000Y-53340000D02*
X96266000Y-53339034D01*
D18*
X99250000Y-51500000D02*
X99800000Y-51500000D01*
X91960000Y-55118000D02*
X91960000Y-54240000D01*
X91960000Y-54240000D02*
X92000000Y-54200000D01*
D17*
X95300000Y-38505026D02*
X95300000Y-39000000D01*
X95300000Y-38350000D02*
X95300000Y-38505026D01*
X95150000Y-38200000D02*
X95300000Y-38350000D01*
X95150000Y-38200000D02*
X95150000Y-37450000D01*
X95150000Y-37450000D02*
X95200000Y-37400000D01*
D18*
X99500000Y-39990000D02*
X100590000Y-39990000D01*
X100590000Y-39990000D02*
X100800000Y-40200000D01*
X99500000Y-39990000D02*
X99810000Y-39990000D01*
X99810000Y-39990000D02*
X100500000Y-39300000D01*
X99500000Y-39990000D02*
X99500000Y-39200000D01*
D17*
X96254000Y-55118000D02*
X97268000Y-55118000D01*
X97268000Y-55118000D02*
X97300000Y-55150000D01*
D18*
X90150000Y-51700000D02*
X90150000Y-52400000D01*
D17*
X90450000Y-33400000D02*
X90450000Y-32700000D01*
D18*
X91960000Y-54160000D02*
X92000000Y-54200000D01*
X91960000Y-53340000D02*
X91960000Y-54160000D01*
X93100000Y-33400000D02*
X93027776Y-33327776D01*
X93550000Y-33400000D02*
X93100000Y-33400000D01*
X90750000Y-40700000D02*
X91400000Y-40700000D01*
X89050000Y-43650000D02*
X89100000Y-43700000D01*
X89050000Y-42900000D02*
X89050000Y-43650000D01*
D17*
G04 #@! TO.N,Net-(C2-Pad1)*
X89050000Y-40322758D02*
X89050000Y-40700000D01*
X89804559Y-39568199D02*
X89050000Y-40322758D01*
X91958199Y-39568199D02*
X89804559Y-39568199D01*
X93650000Y-41260000D02*
X91958199Y-39568199D01*
X94100000Y-41260000D02*
X93650000Y-41260000D01*
D18*
X88950000Y-40600000D02*
X89050000Y-40700000D01*
X88950000Y-33400000D02*
X88950000Y-40600000D01*
D19*
G04 #@! TO.N,VCC*
X93650000Y-38200000D02*
X93650000Y-37350000D01*
X93650000Y-37350000D02*
X93700000Y-37300000D01*
X93700000Y-36300000D02*
X93700000Y-37300000D01*
X94100000Y-39990000D02*
X93650000Y-39540000D01*
X93650000Y-39540000D02*
X93650000Y-38200000D01*
D17*
X93800000Y-38350000D02*
X93650000Y-38200000D01*
G04 #@! TO.N,/SENSE_LOW*
X93410000Y-55180000D02*
X93472000Y-55118000D01*
X93410000Y-56642000D02*
X93410000Y-55180000D01*
X93472000Y-55118000D02*
X93472000Y-53340000D01*
X93472000Y-53340000D02*
X93472000Y-51562000D01*
D18*
X93472000Y-51562000D02*
X93472000Y-51308000D01*
X93650000Y-46340000D02*
X94100000Y-46340000D01*
X92945199Y-47044801D02*
X93650000Y-46340000D01*
X92945199Y-49304093D02*
X92945199Y-47044801D01*
X93460000Y-49818894D02*
X92945199Y-49304093D01*
X93460000Y-51562000D02*
X93460000Y-49818894D01*
G04 #@! TO.N,/SENSOR_TRACK*
X96204000Y-56642000D02*
X96204000Y-57246000D01*
X96204000Y-57246000D02*
X95730999Y-57719001D01*
X92483001Y-57719001D02*
X92010000Y-57246000D01*
X95730999Y-57719001D02*
X92483001Y-57719001D01*
X92010000Y-57246000D02*
X92010000Y-56642000D01*
X88750000Y-56750000D02*
X88750000Y-57500000D01*
X96204000Y-57023000D02*
X96204000Y-57246000D01*
X96204000Y-57246000D02*
X96204000Y-57023000D01*
D17*
G04 #@! TO.N,/THERMISTOR*
X97778000Y-49784000D02*
X97778000Y-51472000D01*
X97778000Y-51472000D02*
X97750000Y-51500000D01*
D18*
X97778000Y-49784000D02*
X99416000Y-49784000D01*
X100800000Y-45500000D02*
X100370000Y-45070000D01*
X99416000Y-49784000D02*
X100800000Y-48400000D01*
X100800000Y-48400000D02*
X100800000Y-45500000D01*
X100370000Y-45070000D02*
X99500000Y-45070000D01*
G04 #@! TO.N,/RESET*
X94100000Y-43800000D02*
X94800000Y-43800000D01*
X94800000Y-43800000D02*
X96200000Y-42400000D01*
X96200000Y-42400000D02*
X96200000Y-34621178D01*
X95050000Y-34600000D02*
X95704000Y-34600000D01*
X95704000Y-34600000D02*
X95725178Y-34621178D01*
X95725178Y-34621178D02*
X96200000Y-34621178D01*
X95200000Y-36300000D02*
X95200000Y-34750000D01*
X95200000Y-34750000D02*
X95050000Y-34600000D01*
X95050000Y-33400000D02*
X95050000Y-34600000D01*
X94800000Y-43800000D02*
X94800000Y-43800000D01*
D17*
G04 #@! TO.N,/EXCITATION*
X90250000Y-55749996D02*
X90250000Y-56750000D01*
X94100000Y-45070000D02*
X93542758Y-45070000D01*
X93542758Y-45070000D02*
X91050000Y-47562758D01*
X91050000Y-48255028D02*
X91050000Y-48750002D01*
X91050000Y-47562758D02*
X91050000Y-48255028D01*
D18*
G04 #@! TO.N,Net-(D3-Pad2)*
X100200000Y-38200000D02*
X100200000Y-36550700D01*
X100200000Y-36550700D02*
X100149300Y-36500000D01*
G04 #@! TO.N,Net-(D3-Pad1)*
X100600000Y-35400000D02*
X99000000Y-35400000D01*
X99000000Y-35400000D02*
X98650700Y-35749300D01*
X98650700Y-35749300D02*
X98650700Y-36500000D01*
X99500000Y-41260000D02*
X101040000Y-41260000D01*
X101040000Y-41260000D02*
X101500000Y-40800000D01*
X101500000Y-40800000D02*
X101500000Y-36300000D01*
X101500000Y-36300000D02*
X100600000Y-35400000D01*
G04 #@! TO.N,/SCK/SCL*
X99500000Y-46340000D02*
X99050000Y-46340000D01*
X99140000Y-46340000D02*
X99500000Y-46340000D01*
X98000000Y-45200000D02*
X99140000Y-46340000D01*
G04 #@! TO.N,/MOSI/SDA*
X94550000Y-47610000D02*
X94100000Y-47610000D01*
X96950001Y-42749999D02*
X96950001Y-45209999D01*
X96950001Y-45209999D02*
X94550000Y-47610000D01*
X97300000Y-42400000D02*
X96950001Y-42749999D01*
G04 #@! TO.N,/MISO/SENSE_HIGH*
X94754000Y-51562000D02*
X94754000Y-49046000D01*
X94754000Y-49046000D02*
X96190000Y-47610000D01*
X98496000Y-47610000D02*
X99500000Y-47610000D01*
X96190000Y-47610000D02*
X98496000Y-47610000D01*
D17*
X94804000Y-55180000D02*
X94742000Y-55118000D01*
X94804000Y-56642000D02*
X94804000Y-55180000D01*
X94742000Y-55118000D02*
X94742000Y-53340000D01*
X94742000Y-53340000D02*
X94742000Y-51562000D01*
D18*
X99110000Y-47610000D02*
X99500000Y-47610000D01*
X99500000Y-47700000D02*
X100000000Y-48200000D01*
X99500000Y-47610000D02*
X99500000Y-47700000D01*
G04 #@! TO.N,Net-(IC1-Pad11)*
X95500000Y-50100000D02*
X95962000Y-50100000D01*
X95962000Y-50100000D02*
X96278000Y-49784000D01*
D17*
X96266000Y-51562000D02*
X95500000Y-50796000D01*
X95500000Y-50796000D02*
X95500000Y-50594974D01*
X95500000Y-50594974D02*
X95500000Y-50100000D01*
D18*
X101500000Y-48700000D02*
X99700000Y-50500000D01*
X99700000Y-50500000D02*
X99100000Y-50500000D01*
X101500000Y-45350000D02*
X101500000Y-48700000D01*
X99500000Y-43800000D02*
X99950000Y-43800000D01*
X99950000Y-43800000D02*
X101500000Y-45350000D01*
D17*
X91960000Y-50788000D02*
X91960000Y-51562000D01*
X92710000Y-50038000D02*
X91960000Y-50788000D01*
D18*
G04 #@! TO.N,Net-(IC1-Pad12)*
X98700000Y-38200000D02*
X98300000Y-38600000D01*
X98300000Y-38600000D02*
X98300000Y-42100000D01*
X98300000Y-42100000D02*
X98730000Y-42530000D01*
X98730000Y-42530000D02*
X99500000Y-42530000D01*
G04 #@! TD*
M02*
