M48
;DRILL file {pcbnew (2015-04-12 BZR 5595)-product} date Tue 28 Apr 2015 09:26:09 PM EEST
;FORMAT={-:-/ absolute / metric / decimal}
FMAT,2
METRIC,TZ
T1C0.400
T2C0.900
T3C3.000
%
G90
G05
M71
T1
X88.95Y-42.3
X89.15Y-61.4
X89.15Y-62.35
X89.85Y-52.9
X90.05Y-57.75
X90.337Y-45.846
X91.5Y-46.8
X91.71Y-59.038
X92.3Y-44.3
X92.6Y-39.2
X92.726Y-103.234
X92.9Y-55.8
X93.Y-161.
X93.4Y-49.4
X94.003Y-43.697
X94.286Y-55.533
X94.504Y-58.784
X94.9Y-44.
X95.Y-54.6
X96.Y-44.
X96.282Y-62.34
X96.3Y-64.15
X106.95Y-42.3
X107.15Y-61.4
X107.15Y-62.35
X107.85Y-52.9
X108.05Y-57.75
X108.337Y-45.846
X109.5Y-46.8
X109.71Y-59.038
X110.3Y-44.3
X110.6Y-39.2
X110.726Y-103.234
X110.9Y-55.8
X111.Y-161.
X111.4Y-49.4
X112.003Y-43.697
X112.286Y-55.533
X112.504Y-58.784
X112.9Y-44.
X113.Y-54.6
X114.Y-44.
X114.282Y-62.34
X114.3Y-64.15
X124.95Y-42.3
X125.15Y-61.4
X125.15Y-62.35
X125.85Y-52.9
X126.05Y-57.75
X126.337Y-45.846
X127.5Y-46.8
X127.71Y-59.038
X128.3Y-44.3
X128.6Y-39.2
X128.726Y-103.234
X128.9Y-55.8
X129.Y-161.
X129.4Y-49.4
X130.003Y-43.697
X130.286Y-55.533
X130.504Y-58.784
X130.9Y-44.
X131.Y-54.6
X132.Y-44.
X132.282Y-62.34
X132.3Y-64.15
X142.95Y-42.3
X143.15Y-61.4
X143.15Y-62.35
X143.85Y-52.9
X144.05Y-57.75
X144.337Y-45.846
X145.5Y-46.8
X145.71Y-59.038
X146.3Y-44.3
X146.6Y-39.2
X146.726Y-103.234
X146.9Y-55.8
X147.Y-161.
X147.4Y-49.4
X148.003Y-43.697
X148.286Y-55.533
X148.504Y-58.784
X148.9Y-44.
X149.Y-54.6
X150.Y-44.
X150.282Y-62.34
X150.3Y-64.15
X160.95Y-42.3
X161.15Y-61.4
X161.15Y-62.35
X161.85Y-52.9
X162.05Y-57.75
X162.337Y-45.846
X163.5Y-46.8
X163.71Y-59.038
X164.3Y-44.3
X164.6Y-39.2
X164.726Y-103.234
X164.9Y-55.8
X165.Y-161.
X165.4Y-49.4
X166.003Y-43.697
X166.286Y-55.533
X166.504Y-58.784
X166.9Y-44.
X167.Y-54.6
X168.Y-44.
X168.282Y-62.34
X168.3Y-64.15
T2
X91.46Y-34.46
X91.46Y-37.
X94.Y-34.46
X94.Y-37.
X96.54Y-34.46
X96.54Y-37.
X109.46Y-34.46
X109.46Y-37.
X112.Y-34.46
X112.Y-37.
X114.54Y-34.46
X114.54Y-37.
X127.46Y-34.46
X127.46Y-37.
X130.Y-34.46
X130.Y-37.
X132.54Y-34.46
X132.54Y-37.
X145.46Y-34.46
X145.46Y-37.
X148.Y-34.46
X148.Y-37.
X150.54Y-34.46
X150.54Y-37.
X163.46Y-34.46
X163.46Y-37.
X166.Y-34.46
X166.Y-37.
X168.54Y-34.46
X168.54Y-37.
T3
X89.Y-26.
X99.Y-26.
X107.Y-26.
X117.Y-26.
X125.Y-26.
X135.Y-26.
X143.Y-26.
X153.Y-26.
X161.Y-26.
X171.Y-26.
T0
M30
