G04 #@! TF.FileFunction,Profile,NP*
%FSLAX46Y46*%
G04 Gerber Fmt 4.6, Leading zero omitted, Abs format (unit mm)*
G04 Created by KiCad (PCBNEW 0.201510251816+6278~30~ubuntu14.04.1-product) date Mon 26 Oct 2015 05:58:35 PM EET*
%MOMM*%
G01*
G04 APERTURE LIST*
%ADD10C,0.100000*%
%ADD11C,1.000000*%
G04 APERTURE END LIST*
D10*
X121000000Y-22000000D02*
X121000000Y-158500000D01*
X175000000Y-172000000D02*
X175000000Y-22000000D01*
X80000000Y-172000000D02*
X85000000Y-172000000D01*
X80000000Y-22000000D02*
X80000000Y-172000000D01*
X85000000Y-22000000D02*
X80000000Y-22000000D01*
X180000000Y-22000000D02*
X175000000Y-22000000D01*
X180000000Y-172000000D02*
X180000000Y-22000000D01*
X175000000Y-172000000D02*
X180000000Y-172000000D01*
D11*
X112000000Y-171500000D02*
X103000000Y-159000000D01*
X121000000Y-159000000D02*
X112000000Y-171500000D01*
X130000000Y-171500000D02*
X121000000Y-159000000D01*
X139000000Y-159000000D02*
X130000000Y-171500000D01*
X148000000Y-171500000D02*
X139000000Y-159000000D01*
X157000000Y-159000000D02*
X148000000Y-171500000D01*
X166000000Y-171500000D02*
X157000000Y-159000000D01*
X166000000Y-171500000D02*
X175500000Y-158000000D01*
D10*
X139000000Y-22000000D02*
X139000000Y-158500000D01*
X80000000Y-172000000D02*
X85000000Y-172000000D01*
X80000000Y-22000000D02*
X80000000Y-172000000D01*
X85000000Y-22000000D02*
X80000000Y-22000000D01*
X180000000Y-22000000D02*
X175000000Y-22000000D01*
X180000000Y-172000000D02*
X180000000Y-22000000D01*
X175000000Y-172000000D02*
X180000000Y-172000000D01*
D11*
X94000000Y-171500000D02*
X84500000Y-158000000D01*
X103000000Y-159000000D02*
X94000000Y-171500000D01*
X112000000Y-171500000D02*
X103000000Y-159000000D01*
X121000000Y-159000000D02*
X112000000Y-171500000D01*
X130000000Y-171500000D02*
X121000000Y-159000000D01*
X139000000Y-159000000D02*
X130000000Y-171500000D01*
X148000000Y-171500000D02*
X139000000Y-159000000D01*
X157000000Y-159000000D02*
X148000000Y-171500000D01*
X166000000Y-171500000D02*
X157000000Y-159000000D01*
X166000000Y-171500000D02*
X175500000Y-158000000D01*
D10*
X85000000Y-22000000D02*
X85000000Y-172000000D01*
X157000000Y-22000000D02*
X139000000Y-22000000D01*
X175000000Y-22000000D02*
X157000000Y-22000000D01*
X157000000Y-22000000D02*
X139000000Y-22000000D01*
X121000000Y-22000000D02*
X103000000Y-22000000D01*
X94000000Y-171000000D02*
X85000000Y-158000000D01*
X85000000Y-22000000D02*
X85000000Y-158000000D01*
X103000000Y-22000000D02*
X85000000Y-22000000D01*
X103000000Y-158750000D02*
X103000000Y-22000000D01*
X103000000Y-22000000D02*
X103000000Y-158000000D01*
X121000000Y-22000000D02*
X103000000Y-22000000D01*
X139000000Y-22000000D02*
X121000000Y-22000000D01*
X157000000Y-22000000D02*
X139000000Y-22000000D01*
X157000000Y-158500000D02*
X157000000Y-22000000D01*
X166000000Y-171000000D02*
X175000000Y-158000000D01*
X175000000Y-22000000D02*
X157000000Y-22000000D01*
M02*
