G04 #@! TF.FileFunction,Copper,L2,Bot,Signal*
%FSLAX46Y46*%
G04 Gerber Fmt 4.6, Leading zero omitted, Abs format (unit mm)*
G04 Created by KiCad (PCBNEW 0.201510251816+6278~30~ubuntu14.04.1-product) date Mon 26 Oct 2015 05:58:35 PM EET*
%MOMM*%
G01*
G04 APERTURE LIST*
%ADD10C,0.100000*%
%ADD11R,1.727200X1.727200*%
%ADD12C,1.727200*%
%ADD13C,0.700000*%
%ADD14C,0.254000*%
%ADD15C,0.508000*%
%ADD16C,1.270000*%
G04 APERTURE END LIST*
D10*
D11*
X96540000Y-34460000D03*
D12*
X96540000Y-37000000D03*
X94000000Y-34460000D03*
X94000000Y-37000000D03*
X91460000Y-34460000D03*
X91460000Y-37000000D03*
D11*
X114540000Y-34460000D03*
D12*
X114540000Y-37000000D03*
X112000000Y-34460000D03*
X112000000Y-37000000D03*
X109460000Y-34460000D03*
X109460000Y-37000000D03*
D11*
X132540000Y-34460000D03*
D12*
X132540000Y-37000000D03*
X130000000Y-34460000D03*
X130000000Y-37000000D03*
X127460000Y-34460000D03*
X127460000Y-37000000D03*
D11*
X150540000Y-34460000D03*
D12*
X150540000Y-37000000D03*
X148000000Y-34460000D03*
X148000000Y-37000000D03*
X145460000Y-34460000D03*
X145460000Y-37000000D03*
D11*
X168540000Y-34460000D03*
D12*
X168540000Y-37000000D03*
X166000000Y-34460000D03*
X166000000Y-37000000D03*
X163460000Y-34460000D03*
X163460000Y-37000000D03*
D13*
X89024757Y-66754951D03*
X89000000Y-67750000D03*
X91345119Y-102595119D03*
X89758622Y-101008622D03*
X88702737Y-103702737D03*
X87228329Y-102228329D03*
X86500000Y-100250000D03*
X86500000Y-97750000D03*
X89000000Y-97750000D03*
X86500000Y-95250000D03*
X89000000Y-95249994D03*
X86500000Y-92750000D03*
X89000000Y-92750006D03*
X86500000Y-87750000D03*
X89000000Y-87749992D03*
X89000000Y-90250000D03*
X86500000Y-90250010D03*
X86500000Y-85250006D03*
X89000000Y-85250006D03*
X86500000Y-82750000D03*
X89000000Y-82750000D03*
X86500000Y-80250000D03*
X89000000Y-80250006D03*
X86500000Y-77750000D03*
X89000000Y-77750000D03*
X86500000Y-75250004D03*
X89000000Y-75250000D03*
X89000000Y-72750000D03*
X86500000Y-72750000D03*
X89000000Y-70257938D03*
X86500000Y-70273302D03*
X86500000Y-67753515D03*
X96500000Y-87750000D03*
X94000000Y-87750000D03*
X94000004Y-85250000D03*
X96499996Y-85250000D03*
X94000000Y-82750000D03*
X96500000Y-82749994D03*
X96500000Y-80250000D03*
X94000000Y-80250000D03*
X96500000Y-77750000D03*
X94000000Y-77750000D03*
X96500006Y-70250000D03*
X94000000Y-70250006D03*
X94000000Y-72750000D03*
X96500000Y-72750000D03*
X96500000Y-75250000D03*
X94000000Y-75250006D03*
X96500000Y-90250000D03*
X94000000Y-90250000D03*
X94000000Y-92749984D03*
X96500000Y-92750000D03*
X94000000Y-95248063D03*
X96500000Y-95248063D03*
X94000000Y-97746139D03*
X96500000Y-97763982D03*
X94000000Y-100246781D03*
X96500000Y-100262214D03*
X96500000Y-102746856D03*
X94000000Y-102505330D03*
X89500000Y-104500000D03*
X88000000Y-103000000D03*
X92250000Y-103500000D03*
X90500000Y-101750000D03*
X89000000Y-100250000D03*
X86500000Y-101500000D03*
X94000000Y-103549990D03*
X96500000Y-104000000D03*
X91000000Y-57000000D03*
X86449997Y-66500000D03*
X86500000Y-69000000D03*
X86500000Y-71500000D03*
X86500000Y-74000000D03*
X86500000Y-76500000D03*
X86500000Y-79000000D03*
X86500000Y-81500000D03*
X86500000Y-84000000D03*
X86500000Y-86500000D03*
X86500000Y-89000000D03*
X86500000Y-91500000D03*
X86500000Y-94000000D03*
X86500000Y-96500000D03*
X86500000Y-99000000D03*
X89000000Y-99000000D03*
X89000000Y-96500000D03*
X89000000Y-94000000D03*
X89000000Y-91500000D03*
X89000000Y-89000000D03*
X89000000Y-86500000D03*
X89000000Y-84000000D03*
X89000000Y-81500000D03*
X89000000Y-79000000D03*
X89000000Y-76500000D03*
X89000000Y-74000000D03*
X89000000Y-71500000D03*
X89000000Y-69000000D03*
X96500000Y-66500000D03*
X96500000Y-69000000D03*
X96500000Y-71500000D03*
X96500000Y-74000000D03*
X96500000Y-76500000D03*
X96500000Y-79000000D03*
X96500000Y-81500000D03*
X96500000Y-84000000D03*
X96500000Y-86500000D03*
X96500000Y-89000000D03*
X96500000Y-91500000D03*
X96500000Y-94000000D03*
X96500000Y-96500000D03*
X96500000Y-99000000D03*
X96500000Y-101500000D03*
X94000000Y-101500000D03*
X94000000Y-99000000D03*
X94000000Y-96500000D03*
X94000000Y-94000000D03*
X94000000Y-91500000D03*
X94000000Y-89000000D03*
X94000000Y-86500000D03*
X94000000Y-84000000D03*
X94000000Y-81500000D03*
X94000000Y-79000000D03*
X94000000Y-76500000D03*
X94000000Y-74000000D03*
X94000000Y-71500000D03*
X94000000Y-69000000D03*
X89053888Y-63623844D03*
X98500000Y-43000000D03*
X97600000Y-57800000D03*
X95243021Y-55843021D03*
X94800000Y-52800000D03*
X91700000Y-53500000D03*
X90900000Y-54300000D03*
X90100000Y-55100000D03*
X91000000Y-63200000D03*
X94300000Y-48000000D03*
X94200000Y-46400000D03*
X99800000Y-49200000D03*
X99500000Y-48300000D03*
X98500000Y-48200000D03*
X89150000Y-62350000D03*
X96300000Y-64150000D03*
X88950000Y-42300000D03*
X89150000Y-61400000D03*
X96282000Y-62340000D03*
X93400000Y-42300000D03*
X91710000Y-59038000D03*
X94504000Y-58784000D03*
X92700000Y-46300000D03*
X92500000Y-105500000D03*
X87750000Y-66500000D03*
X89250000Y-64749996D03*
X90050000Y-57750002D03*
X96800000Y-52900000D03*
X96800000Y-55300000D03*
X107024757Y-66754951D03*
X107000000Y-67750000D03*
X109345119Y-102595119D03*
X107758622Y-101008622D03*
X106702737Y-103702737D03*
X105228329Y-102228329D03*
X104500000Y-100250000D03*
X104500000Y-97750000D03*
X107000000Y-97750000D03*
X104500000Y-95250000D03*
X107000000Y-95249994D03*
X104500000Y-92750000D03*
X107000000Y-92750006D03*
X104500000Y-87750000D03*
X107000000Y-87749992D03*
X107000000Y-90250000D03*
X104500000Y-90250010D03*
X104500000Y-85250006D03*
X107000000Y-85250006D03*
X104500000Y-82750000D03*
X107000000Y-82750000D03*
X104500000Y-80250000D03*
X107000000Y-80250006D03*
X104500000Y-77750000D03*
X107000000Y-77750000D03*
X104500000Y-75250004D03*
X107000000Y-75250000D03*
X107000000Y-72750000D03*
X104500000Y-72750000D03*
X107000000Y-70257938D03*
X104500000Y-70273302D03*
X104500000Y-67753515D03*
X114500000Y-87750000D03*
X112000000Y-87750000D03*
X112000004Y-85250000D03*
X114499996Y-85250000D03*
X112000000Y-82750000D03*
X114500000Y-82749994D03*
X114500000Y-80250000D03*
X112000000Y-80250000D03*
X114500000Y-77750000D03*
X112000000Y-77750000D03*
X114500006Y-70250000D03*
X112000000Y-70250006D03*
X112000000Y-72750000D03*
X114500000Y-72750000D03*
X114500000Y-75250000D03*
X112000000Y-75250006D03*
X114500000Y-90250000D03*
X112000000Y-90250000D03*
X112000000Y-92749984D03*
X114500000Y-92750000D03*
X112000000Y-95248063D03*
X114500000Y-95248063D03*
X112000000Y-97746139D03*
X114500000Y-97763982D03*
X112000000Y-100246781D03*
X114500000Y-100262214D03*
X114500000Y-102746856D03*
X112000000Y-102505330D03*
X107500000Y-104500000D03*
X106000000Y-103000000D03*
X110250000Y-103500000D03*
X108500000Y-101750000D03*
X107000000Y-100250000D03*
X104500000Y-101500000D03*
X112000000Y-103549990D03*
X114500000Y-104000000D03*
X109000000Y-57000000D03*
X104449997Y-66500000D03*
X104500000Y-69000000D03*
X104500000Y-71500000D03*
X104500000Y-74000000D03*
X104500000Y-76500000D03*
X104500000Y-79000000D03*
X104500000Y-81500000D03*
X104500000Y-84000000D03*
X104500000Y-86500000D03*
X104500000Y-89000000D03*
X104500000Y-91500000D03*
X104500000Y-94000000D03*
X104500000Y-96500000D03*
X104500000Y-99000000D03*
X107000000Y-99000000D03*
X107000000Y-96500000D03*
X107000000Y-94000000D03*
X107000000Y-91500000D03*
X107000000Y-89000000D03*
X107000000Y-86500000D03*
X107000000Y-84000000D03*
X107000000Y-81500000D03*
X107000000Y-79000000D03*
X107000000Y-76500000D03*
X107000000Y-74000000D03*
X107000000Y-71500000D03*
X107000000Y-69000000D03*
X114500000Y-66500000D03*
X114500000Y-69000000D03*
X114500000Y-71500000D03*
X114500000Y-74000000D03*
X114500000Y-76500000D03*
X114500000Y-79000000D03*
X114500000Y-81500000D03*
X114500000Y-84000000D03*
X114500000Y-86500000D03*
X114500000Y-89000000D03*
X114500000Y-91500000D03*
X114500000Y-94000000D03*
X114500000Y-96500000D03*
X114500000Y-99000000D03*
X114500000Y-101500000D03*
X112000000Y-101500000D03*
X112000000Y-99000000D03*
X112000000Y-96500000D03*
X112000000Y-94000000D03*
X112000000Y-91500000D03*
X112000000Y-89000000D03*
X112000000Y-86500000D03*
X112000000Y-84000000D03*
X112000000Y-81500000D03*
X112000000Y-79000000D03*
X112000000Y-76500000D03*
X112000000Y-74000000D03*
X112000000Y-71500000D03*
X112000000Y-69000000D03*
X107053888Y-63623844D03*
X116500000Y-43000000D03*
X115600000Y-57800000D03*
X113243021Y-55843021D03*
X112800000Y-52800000D03*
X109700000Y-53500000D03*
X108900000Y-54300000D03*
X108100000Y-55100000D03*
X109000000Y-63200000D03*
X112300000Y-48000000D03*
X112200000Y-46400000D03*
X117800000Y-49200000D03*
X117500000Y-48300000D03*
X116500000Y-48200000D03*
X107150000Y-62350000D03*
X114300000Y-64150000D03*
X106950000Y-42300000D03*
X107150000Y-61400000D03*
X114282000Y-62340000D03*
X111400000Y-42300000D03*
X109710000Y-59038000D03*
X112504000Y-58784000D03*
X110700000Y-46300000D03*
X110500000Y-105500000D03*
X105750000Y-66500000D03*
X107250000Y-64749996D03*
X108050000Y-57750002D03*
X114800000Y-52900000D03*
X114800000Y-55300000D03*
X125024757Y-66754951D03*
X125000000Y-67750000D03*
X127345119Y-102595119D03*
X125758622Y-101008622D03*
X124702737Y-103702737D03*
X123228329Y-102228329D03*
X122500000Y-100250000D03*
X122500000Y-97750000D03*
X125000000Y-97750000D03*
X122500000Y-95250000D03*
X125000000Y-95249994D03*
X122500000Y-92750000D03*
X125000000Y-92750006D03*
X122500000Y-87750000D03*
X125000000Y-87749992D03*
X125000000Y-90250000D03*
X122500000Y-90250010D03*
X122500000Y-85250006D03*
X125000000Y-85250006D03*
X122500000Y-82750000D03*
X125000000Y-82750000D03*
X122500000Y-80250000D03*
X125000000Y-80250006D03*
X122500000Y-77750000D03*
X125000000Y-77750000D03*
X122500000Y-75250004D03*
X125000000Y-75250000D03*
X125000000Y-72750000D03*
X122500000Y-72750000D03*
X125000000Y-70257938D03*
X122500000Y-70273302D03*
X122500000Y-67753515D03*
X132500000Y-87750000D03*
X130000000Y-87750000D03*
X130000004Y-85250000D03*
X132499996Y-85250000D03*
X130000000Y-82750000D03*
X132500000Y-82749994D03*
X132500000Y-80250000D03*
X130000000Y-80250000D03*
X132500000Y-77750000D03*
X130000000Y-77750000D03*
X132500006Y-70250000D03*
X130000000Y-70250006D03*
X130000000Y-72750000D03*
X132500000Y-72750000D03*
X132500000Y-75250000D03*
X130000000Y-75250006D03*
X132500000Y-90250000D03*
X130000000Y-90250000D03*
X130000000Y-92749984D03*
X132500000Y-92750000D03*
X130000000Y-95248063D03*
X132500000Y-95248063D03*
X130000000Y-97746139D03*
X132500000Y-97763982D03*
X130000000Y-100246781D03*
X132500000Y-100262214D03*
X132500000Y-102746856D03*
X130000000Y-102505330D03*
X125500000Y-104500000D03*
X124000000Y-103000000D03*
X128250000Y-103500000D03*
X126500000Y-101750000D03*
X125000000Y-100250000D03*
X122500000Y-101500000D03*
X130000000Y-103549990D03*
X132500000Y-104000000D03*
X127000000Y-57000000D03*
X122449997Y-66500000D03*
X122500000Y-69000000D03*
X122500000Y-71500000D03*
X122500000Y-74000000D03*
X122500000Y-76500000D03*
X122500000Y-79000000D03*
X122500000Y-81500000D03*
X122500000Y-84000000D03*
X122500000Y-86500000D03*
X122500000Y-89000000D03*
X122500000Y-91500000D03*
X122500000Y-94000000D03*
X122500000Y-96500000D03*
X122500000Y-99000000D03*
X125000000Y-99000000D03*
X125000000Y-96500000D03*
X125000000Y-94000000D03*
X125000000Y-91500000D03*
X125000000Y-89000000D03*
X125000000Y-86500000D03*
X125000000Y-84000000D03*
X125000000Y-81500000D03*
X125000000Y-79000000D03*
X125000000Y-76500000D03*
X125000000Y-74000000D03*
X125000000Y-71500000D03*
X125000000Y-69000000D03*
X132500000Y-66500000D03*
X132500000Y-69000000D03*
X132500000Y-71500000D03*
X132500000Y-74000000D03*
X132500000Y-76500000D03*
X132500000Y-79000000D03*
X132500000Y-81500000D03*
X132500000Y-84000000D03*
X132500000Y-86500000D03*
X132500000Y-89000000D03*
X132500000Y-91500000D03*
X132500000Y-94000000D03*
X132500000Y-96500000D03*
X132500000Y-99000000D03*
X132500000Y-101500000D03*
X130000000Y-101500000D03*
X130000000Y-99000000D03*
X130000000Y-96500000D03*
X130000000Y-94000000D03*
X130000000Y-91500000D03*
X130000000Y-89000000D03*
X130000000Y-86500000D03*
X130000000Y-84000000D03*
X130000000Y-81500000D03*
X130000000Y-79000000D03*
X130000000Y-76500000D03*
X130000000Y-74000000D03*
X130000000Y-71500000D03*
X130000000Y-69000000D03*
X125053888Y-63623844D03*
X134500000Y-43000000D03*
X133600000Y-57800000D03*
X131243021Y-55843021D03*
X130800000Y-52800000D03*
X127700000Y-53500000D03*
X126900000Y-54300000D03*
X126100000Y-55100000D03*
X127000000Y-63200000D03*
X130300000Y-48000000D03*
X130200000Y-46400000D03*
X135800000Y-49200000D03*
X135500000Y-48300000D03*
X134500000Y-48200000D03*
X125150000Y-62350000D03*
X132300000Y-64150000D03*
X124950000Y-42300000D03*
X125150000Y-61400000D03*
X132282000Y-62340000D03*
X129400000Y-42300000D03*
X127710000Y-59038000D03*
X130504000Y-58784000D03*
X128700000Y-46300000D03*
X128500000Y-105500000D03*
X123750000Y-66500000D03*
X125250000Y-64749996D03*
X126050000Y-57750002D03*
X132800000Y-52900000D03*
X132800000Y-55300000D03*
X143024757Y-66754951D03*
X143000000Y-67750000D03*
X145345119Y-102595119D03*
X143758622Y-101008622D03*
X142702737Y-103702737D03*
X141228329Y-102228329D03*
X140500000Y-100250000D03*
X140500000Y-97750000D03*
X143000000Y-97750000D03*
X140500000Y-95250000D03*
X143000000Y-95249994D03*
X140500000Y-92750000D03*
X143000000Y-92750006D03*
X140500000Y-87750000D03*
X143000000Y-87749992D03*
X143000000Y-90250000D03*
X140500000Y-90250010D03*
X140500000Y-85250006D03*
X143000000Y-85250006D03*
X140500000Y-82750000D03*
X143000000Y-82750000D03*
X140500000Y-80250000D03*
X143000000Y-80250006D03*
X140500000Y-77750000D03*
X143000000Y-77750000D03*
X140500000Y-75250004D03*
X143000000Y-75250000D03*
X143000000Y-72750000D03*
X140500000Y-72750000D03*
X143000000Y-70257938D03*
X140500000Y-70273302D03*
X140500000Y-67753515D03*
X150500000Y-87750000D03*
X148000000Y-87750000D03*
X148000004Y-85250000D03*
X150499996Y-85250000D03*
X148000000Y-82750000D03*
X150500000Y-82749994D03*
X150500000Y-80250000D03*
X148000000Y-80250000D03*
X150500000Y-77750000D03*
X148000000Y-77750000D03*
X150500006Y-70250000D03*
X148000000Y-70250006D03*
X148000000Y-72750000D03*
X150500000Y-72750000D03*
X150500000Y-75250000D03*
X148000000Y-75250006D03*
X150500000Y-90250000D03*
X148000000Y-90250000D03*
X148000000Y-92749984D03*
X150500000Y-92750000D03*
X148000000Y-95248063D03*
X150500000Y-95248063D03*
X148000000Y-97746139D03*
X150500000Y-97763982D03*
X148000000Y-100246781D03*
X150500000Y-100262214D03*
X150500000Y-102746856D03*
X148000000Y-102505330D03*
X143500000Y-104500000D03*
X142000000Y-103000000D03*
X146250000Y-103500000D03*
X144500000Y-101750000D03*
X143000000Y-100250000D03*
X140500000Y-101500000D03*
X148000000Y-103549990D03*
X150500000Y-104000000D03*
X145000000Y-57000000D03*
X140449997Y-66500000D03*
X140500000Y-69000000D03*
X140500000Y-71500000D03*
X140500000Y-74000000D03*
X140500000Y-76500000D03*
X140500000Y-79000000D03*
X140500000Y-81500000D03*
X140500000Y-84000000D03*
X140500000Y-86500000D03*
X140500000Y-89000000D03*
X140500000Y-91500000D03*
X140500000Y-94000000D03*
X140500000Y-96500000D03*
X140500000Y-99000000D03*
X143000000Y-99000000D03*
X143000000Y-96500000D03*
X143000000Y-94000000D03*
X143000000Y-91500000D03*
X143000000Y-89000000D03*
X143000000Y-86500000D03*
X143000000Y-84000000D03*
X143000000Y-81500000D03*
X143000000Y-79000000D03*
X143000000Y-76500000D03*
X143000000Y-74000000D03*
X143000000Y-71500000D03*
X143000000Y-69000000D03*
X150500000Y-66500000D03*
X150500000Y-69000000D03*
X150500000Y-71500000D03*
X150500000Y-74000000D03*
X150500000Y-76500000D03*
X150500000Y-79000000D03*
X150500000Y-81500000D03*
X150500000Y-84000000D03*
X150500000Y-86500000D03*
X150500000Y-89000000D03*
X150500000Y-91500000D03*
X150500000Y-94000000D03*
X150500000Y-96500000D03*
X150500000Y-99000000D03*
X150500000Y-101500000D03*
X148000000Y-101500000D03*
X148000000Y-99000000D03*
X148000000Y-96500000D03*
X148000000Y-94000000D03*
X148000000Y-91500000D03*
X148000000Y-89000000D03*
X148000000Y-86500000D03*
X148000000Y-84000000D03*
X148000000Y-81500000D03*
X148000000Y-79000000D03*
X148000000Y-76500000D03*
X148000000Y-74000000D03*
X148000000Y-71500000D03*
X148000000Y-69000000D03*
X143053888Y-63623844D03*
X152500000Y-43000000D03*
X151600000Y-57800000D03*
X149243021Y-55843021D03*
X148800000Y-52800000D03*
X145700000Y-53500000D03*
X144900000Y-54300000D03*
X144100000Y-55100000D03*
X145000000Y-63200000D03*
X148300000Y-48000000D03*
X148200000Y-46400000D03*
X153800000Y-49200000D03*
X153500000Y-48300000D03*
X152500000Y-48200000D03*
X143150000Y-62350000D03*
X150300000Y-64150000D03*
X142950000Y-42300000D03*
X143150000Y-61400000D03*
X150282000Y-62340000D03*
X147400000Y-42300000D03*
X145710000Y-59038000D03*
X148504000Y-58784000D03*
X146700000Y-46300000D03*
X146500000Y-105500000D03*
X141750000Y-66500000D03*
X143250000Y-64749996D03*
X144050000Y-57750002D03*
X150800000Y-52900000D03*
X150800000Y-55300000D03*
X161024757Y-66754951D03*
X161000000Y-67750000D03*
X163345119Y-102595119D03*
X161758622Y-101008622D03*
X160702737Y-103702737D03*
X159228329Y-102228329D03*
X158500000Y-100250000D03*
X158500000Y-97750000D03*
X161000000Y-97750000D03*
X158500000Y-95250000D03*
X161000000Y-95249994D03*
X158500000Y-92750000D03*
X161000000Y-92750006D03*
X158500000Y-87750000D03*
X161000000Y-87749992D03*
X161000000Y-90250000D03*
X158500000Y-90250010D03*
X158500000Y-85250006D03*
X161000000Y-85250006D03*
X158500000Y-82750000D03*
X161000000Y-82750000D03*
X158500000Y-80250000D03*
X161000000Y-80250006D03*
X158500000Y-77750000D03*
X161000000Y-77750000D03*
X158500000Y-75250004D03*
X161000000Y-75250000D03*
X161000000Y-72750000D03*
X158500000Y-72750000D03*
X161000000Y-70257938D03*
X158500000Y-70273302D03*
X158500000Y-67753515D03*
X168500000Y-87750000D03*
X166000000Y-87750000D03*
X166000004Y-85250000D03*
X168499996Y-85250000D03*
X166000000Y-82750000D03*
X168500000Y-82749994D03*
X168500000Y-80250000D03*
X166000000Y-80250000D03*
X168500000Y-77750000D03*
X166000000Y-77750000D03*
X168500006Y-70250000D03*
X166000000Y-70250006D03*
X166000000Y-72750000D03*
X168500000Y-72750000D03*
X168500000Y-75250000D03*
X166000000Y-75250006D03*
X168500000Y-90250000D03*
X166000000Y-90250000D03*
X166000000Y-92749984D03*
X168500000Y-92750000D03*
X166000000Y-95248063D03*
X168500000Y-95248063D03*
X166000000Y-97746139D03*
X168500000Y-97763982D03*
X166000000Y-100246781D03*
X168500000Y-100262214D03*
X168500000Y-102746856D03*
X166000000Y-102505330D03*
X161500000Y-104500000D03*
X160000000Y-103000000D03*
X164250000Y-103500000D03*
X162500000Y-101750000D03*
X161000000Y-100250000D03*
X158500000Y-101500000D03*
X166000000Y-103549990D03*
X168500000Y-104000000D03*
X163000000Y-57000000D03*
X158449997Y-66500000D03*
X158500000Y-69000000D03*
X158500000Y-71500000D03*
X158500000Y-74000000D03*
X158500000Y-76500000D03*
X158500000Y-79000000D03*
X158500000Y-81500000D03*
X158500000Y-84000000D03*
X158500000Y-86500000D03*
X158500000Y-89000000D03*
X158500000Y-91500000D03*
X158500000Y-94000000D03*
X158500000Y-96500000D03*
X158500000Y-99000000D03*
X161000000Y-99000000D03*
X161000000Y-96500000D03*
X161000000Y-94000000D03*
X161000000Y-91500000D03*
X161000000Y-89000000D03*
X161000000Y-86500000D03*
X161000000Y-84000000D03*
X161000000Y-81500000D03*
X161000000Y-79000000D03*
X161000000Y-76500000D03*
X161000000Y-74000000D03*
X161000000Y-71500000D03*
X161000000Y-69000000D03*
X168500000Y-66500000D03*
X168500000Y-69000000D03*
X168500000Y-71500000D03*
X168500000Y-74000000D03*
X168500000Y-76500000D03*
X168500000Y-79000000D03*
X168500000Y-81500000D03*
X168500000Y-84000000D03*
X168500000Y-86500000D03*
X168500000Y-89000000D03*
X168500000Y-91500000D03*
X168500000Y-94000000D03*
X168500000Y-96500000D03*
X168500000Y-99000000D03*
X168500000Y-101500000D03*
X166000000Y-101500000D03*
X166000000Y-99000000D03*
X166000000Y-96500000D03*
X166000000Y-94000000D03*
X166000000Y-91500000D03*
X166000000Y-89000000D03*
X166000000Y-86500000D03*
X166000000Y-84000000D03*
X166000000Y-81500000D03*
X166000000Y-79000000D03*
X166000000Y-76500000D03*
X166000000Y-74000000D03*
X166000000Y-71500000D03*
X166000000Y-69000000D03*
X161053888Y-63623844D03*
X170500000Y-43000000D03*
X169600000Y-57800000D03*
X167243021Y-55843021D03*
X166800000Y-52800000D03*
X163700000Y-53500000D03*
X162900000Y-54300000D03*
X162100000Y-55100000D03*
X163000000Y-63200000D03*
X166300000Y-48000000D03*
X166200000Y-46400000D03*
X171800000Y-49200000D03*
X171500000Y-48300000D03*
X170500000Y-48200000D03*
X161150000Y-62350000D03*
X168300000Y-64150000D03*
X160950000Y-42300000D03*
X161150000Y-61400000D03*
X168282000Y-62340000D03*
X165400000Y-42300000D03*
X163710000Y-59038000D03*
X166504000Y-58784000D03*
X164700000Y-46300000D03*
X164500000Y-105500000D03*
X159750000Y-66500000D03*
X161250000Y-64749996D03*
X162050000Y-57750002D03*
X168800000Y-52900000D03*
X168800000Y-55300000D03*
D14*
X89000000Y-69000000D02*
X89000000Y-67750000D01*
X90500000Y-101750000D02*
X91345119Y-102595119D01*
X89758622Y-101008622D02*
X90500000Y-101750000D01*
X87228329Y-102228329D02*
X88000000Y-103000000D01*
X86500000Y-99000000D02*
X86500000Y-97750000D01*
X86500000Y-94000000D02*
X86500000Y-95250000D01*
X89000000Y-94000000D02*
X89000000Y-95249994D01*
X86500000Y-94000000D02*
X86500000Y-92750000D01*
X89000000Y-94000000D02*
X89000000Y-92750006D01*
X86500000Y-89000000D02*
X86500000Y-87750000D01*
X86500000Y-86500000D02*
X86500000Y-87750000D01*
X86500000Y-84000000D02*
X86500000Y-85250006D01*
X89000000Y-84000000D02*
X89000000Y-85250006D01*
X86500000Y-84000000D02*
X86500000Y-82750000D01*
X86500000Y-81500000D02*
X86500000Y-82750000D01*
X89000000Y-84000000D02*
X89000000Y-82750000D01*
X89000000Y-81500000D02*
X89000000Y-82750000D01*
X89000000Y-79000000D02*
X89000000Y-80250006D01*
X89000000Y-79000000D02*
X89000000Y-77750000D01*
X89000000Y-74000000D02*
X89000000Y-72750000D01*
X86500000Y-67753515D02*
X86500000Y-66550003D01*
X94000000Y-89000000D02*
X94000000Y-87750000D01*
X94000000Y-85249996D02*
X94000004Y-85250000D01*
X94000000Y-84000000D02*
X94000000Y-85249996D01*
X94000000Y-84000000D02*
X94000000Y-82750000D01*
X94000000Y-81500000D02*
X94000000Y-82750000D01*
X96500000Y-84000000D02*
X96500000Y-82749994D01*
X96500000Y-81500000D02*
X96500000Y-82749994D01*
X96500000Y-79000000D02*
X96500000Y-80250000D01*
X94000000Y-79000000D02*
X94000000Y-80250000D01*
X96500000Y-76500000D02*
X96500000Y-77750000D01*
X96500000Y-79000000D02*
X96500000Y-77750000D01*
X94000000Y-79000000D02*
X94000000Y-77750000D01*
X94000000Y-76500000D02*
X94000000Y-77750000D01*
X94000000Y-74000000D02*
X94000000Y-72750000D01*
X96500000Y-74000000D02*
X96500000Y-72750000D01*
X96500000Y-71500000D02*
X96500000Y-72750000D01*
X96500000Y-74000000D02*
X96500000Y-75250000D01*
X94000000Y-74000000D02*
X94000000Y-75250006D01*
X94000000Y-91500000D02*
X94000000Y-92749984D01*
X96500000Y-91500000D02*
X96500000Y-92750000D01*
X94000000Y-96500000D02*
X94000000Y-97746139D01*
X96500000Y-97763982D02*
X96500000Y-96500000D01*
X94000000Y-101500000D02*
X94000000Y-100246781D01*
X96500000Y-101500000D02*
X96500000Y-102746856D01*
X86500000Y-99000000D02*
X86500000Y-101500000D01*
X96500000Y-66500000D02*
X96500000Y-64350000D01*
X96500000Y-64350000D02*
X96300000Y-64150000D01*
X90100000Y-55100000D02*
X90100000Y-56100000D01*
X90100000Y-56100000D02*
X91000000Y-57000000D01*
X86500000Y-66550003D02*
X86449997Y-66500000D01*
X86500000Y-74000000D02*
X86500000Y-71500000D01*
X86500000Y-79000000D02*
X86500000Y-76500000D01*
X89000000Y-96500000D02*
X89000000Y-99000000D01*
X89000000Y-86500000D02*
X89000000Y-89000000D01*
X91000000Y-63200000D02*
X91000000Y-67000000D01*
X91000000Y-67000000D02*
X89000000Y-69000000D01*
X96500000Y-69000000D02*
X96500000Y-66500000D01*
X96500000Y-89000000D02*
X96500000Y-86500000D01*
X91000000Y-63200000D02*
X91000000Y-66000000D01*
X91000000Y-66000000D02*
X94000000Y-69000000D01*
X91000000Y-63200000D02*
X91000000Y-65000000D01*
D15*
X98500000Y-48200000D02*
X98500000Y-43000000D01*
D14*
X95243021Y-55843021D02*
X97200000Y-57800000D01*
X97200000Y-57800000D02*
X97600000Y-57800000D01*
X94800000Y-52800000D02*
X94800000Y-55400000D01*
X94800000Y-55400000D02*
X95243021Y-55843021D01*
X94300000Y-48000000D02*
X94300000Y-52300000D01*
X94300000Y-52300000D02*
X94800000Y-52800000D01*
X90900000Y-54300000D02*
X91700000Y-53500000D01*
X89150000Y-61400000D02*
X89150000Y-56050000D01*
X89150000Y-56050000D02*
X90100000Y-55100000D01*
D15*
X89150000Y-61400000D02*
X89150000Y-62350000D01*
X92700000Y-46300000D02*
X92700000Y-58048000D01*
X92700000Y-58048000D02*
X91710000Y-59038000D01*
D16*
X94846688Y-42353312D02*
X92700000Y-44500000D01*
X96540000Y-40660000D02*
X94846688Y-42353312D01*
D15*
X94846688Y-42353312D02*
X93453312Y-42353312D01*
X93453312Y-42353312D02*
X93400000Y-42300000D01*
D16*
X96540000Y-37000000D02*
X96540000Y-40660000D01*
X92700000Y-44500000D02*
X92700000Y-46300000D01*
D15*
X94250000Y-59038000D02*
X94504000Y-58784000D01*
X91710000Y-59038000D02*
X94250000Y-59038000D01*
D14*
X87750000Y-100750000D02*
X88000000Y-101000000D01*
X88000000Y-101000000D02*
X92500000Y-105500000D01*
X87750000Y-66500000D02*
X87750000Y-100750000D01*
D15*
X89599999Y-64399997D02*
X89250000Y-64749996D01*
X90050000Y-57750002D02*
X90050000Y-63949996D01*
X90050000Y-63949996D02*
X89599999Y-64399997D01*
D14*
X96800000Y-52900000D02*
X96800000Y-55300000D01*
X107000000Y-69000000D02*
X107000000Y-67750000D01*
X108500000Y-101750000D02*
X109345119Y-102595119D01*
X107758622Y-101008622D02*
X108500000Y-101750000D01*
X105228329Y-102228329D02*
X106000000Y-103000000D01*
X104500000Y-99000000D02*
X104500000Y-97750000D01*
X104500000Y-94000000D02*
X104500000Y-95250000D01*
X107000000Y-94000000D02*
X107000000Y-95249994D01*
X104500000Y-94000000D02*
X104500000Y-92750000D01*
X107000000Y-94000000D02*
X107000000Y-92750006D01*
X104500000Y-89000000D02*
X104500000Y-87750000D01*
X104500000Y-86500000D02*
X104500000Y-87750000D01*
X104500000Y-84000000D02*
X104500000Y-85250006D01*
X107000000Y-84000000D02*
X107000000Y-85250006D01*
X104500000Y-84000000D02*
X104500000Y-82750000D01*
X104500000Y-81500000D02*
X104500000Y-82750000D01*
X107000000Y-84000000D02*
X107000000Y-82750000D01*
X107000000Y-81500000D02*
X107000000Y-82750000D01*
X107000000Y-79000000D02*
X107000000Y-80250006D01*
X107000000Y-79000000D02*
X107000000Y-77750000D01*
X107000000Y-74000000D02*
X107000000Y-72750000D01*
X104500000Y-67753515D02*
X104500000Y-66550003D01*
X112000000Y-89000000D02*
X112000000Y-87750000D01*
X112000000Y-85249996D02*
X112000004Y-85250000D01*
X112000000Y-84000000D02*
X112000000Y-85249996D01*
X112000000Y-84000000D02*
X112000000Y-82750000D01*
X112000000Y-81500000D02*
X112000000Y-82750000D01*
X114500000Y-84000000D02*
X114500000Y-82749994D01*
X114500000Y-81500000D02*
X114500000Y-82749994D01*
X114500000Y-79000000D02*
X114500000Y-80250000D01*
X112000000Y-79000000D02*
X112000000Y-80250000D01*
X114500000Y-76500000D02*
X114500000Y-77750000D01*
X114500000Y-79000000D02*
X114500000Y-77750000D01*
X112000000Y-79000000D02*
X112000000Y-77750000D01*
X112000000Y-76500000D02*
X112000000Y-77750000D01*
X112000000Y-74000000D02*
X112000000Y-72750000D01*
X114500000Y-74000000D02*
X114500000Y-72750000D01*
X114500000Y-71500000D02*
X114500000Y-72750000D01*
X114500000Y-74000000D02*
X114500000Y-75250000D01*
X112000000Y-74000000D02*
X112000000Y-75250006D01*
X112000000Y-91500000D02*
X112000000Y-92749984D01*
X114500000Y-91500000D02*
X114500000Y-92750000D01*
X112000000Y-96500000D02*
X112000000Y-97746139D01*
X114500000Y-97763982D02*
X114500000Y-96500000D01*
X112000000Y-101500000D02*
X112000000Y-100246781D01*
X114500000Y-101500000D02*
X114500000Y-102746856D01*
X104500000Y-99000000D02*
X104500000Y-101500000D01*
X114500000Y-66500000D02*
X114500000Y-64350000D01*
X114500000Y-64350000D02*
X114300000Y-64150000D01*
X108100000Y-55100000D02*
X108100000Y-56100000D01*
X108100000Y-56100000D02*
X109000000Y-57000000D01*
X104500000Y-66550003D02*
X104449997Y-66500000D01*
X104500000Y-74000000D02*
X104500000Y-71500000D01*
X104500000Y-79000000D02*
X104500000Y-76500000D01*
X107000000Y-96500000D02*
X107000000Y-99000000D01*
X107000000Y-86500000D02*
X107000000Y-89000000D01*
X109000000Y-63200000D02*
X109000000Y-67000000D01*
X109000000Y-67000000D02*
X107000000Y-69000000D01*
X114500000Y-69000000D02*
X114500000Y-66500000D01*
X114500000Y-89000000D02*
X114500000Y-86500000D01*
X109000000Y-63200000D02*
X109000000Y-66000000D01*
X109000000Y-66000000D02*
X112000000Y-69000000D01*
X109000000Y-63200000D02*
X109000000Y-65000000D01*
D15*
X116500000Y-48200000D02*
X116500000Y-43000000D01*
D14*
X113243021Y-55843021D02*
X115200000Y-57800000D01*
X115200000Y-57800000D02*
X115600000Y-57800000D01*
X112800000Y-52800000D02*
X112800000Y-55400000D01*
X112800000Y-55400000D02*
X113243021Y-55843021D01*
X112300000Y-48000000D02*
X112300000Y-52300000D01*
X112300000Y-52300000D02*
X112800000Y-52800000D01*
X108900000Y-54300000D02*
X109700000Y-53500000D01*
X107150000Y-61400000D02*
X107150000Y-56050000D01*
X107150000Y-56050000D02*
X108100000Y-55100000D01*
D15*
X107150000Y-61400000D02*
X107150000Y-62350000D01*
X110700000Y-46300000D02*
X110700000Y-58048000D01*
X110700000Y-58048000D02*
X109710000Y-59038000D01*
D16*
X112846688Y-42353312D02*
X110700000Y-44500000D01*
X114540000Y-40660000D02*
X112846688Y-42353312D01*
D15*
X112846688Y-42353312D02*
X111453312Y-42353312D01*
X111453312Y-42353312D02*
X111400000Y-42300000D01*
D16*
X114540000Y-37000000D02*
X114540000Y-40660000D01*
X110700000Y-44500000D02*
X110700000Y-46300000D01*
D15*
X112250000Y-59038000D02*
X112504000Y-58784000D01*
X109710000Y-59038000D02*
X112250000Y-59038000D01*
D14*
X105750000Y-100750000D02*
X106000000Y-101000000D01*
X106000000Y-101000000D02*
X110500000Y-105500000D01*
X105750000Y-66500000D02*
X105750000Y-100750000D01*
D15*
X107599999Y-64399997D02*
X107250000Y-64749996D01*
X108050000Y-57750002D02*
X108050000Y-63949996D01*
X108050000Y-63949996D02*
X107599999Y-64399997D01*
D14*
X114800000Y-52900000D02*
X114800000Y-55300000D01*
X125000000Y-69000000D02*
X125000000Y-67750000D01*
X126500000Y-101750000D02*
X127345119Y-102595119D01*
X125758622Y-101008622D02*
X126500000Y-101750000D01*
X123228329Y-102228329D02*
X124000000Y-103000000D01*
X122500000Y-99000000D02*
X122500000Y-97750000D01*
X122500000Y-94000000D02*
X122500000Y-95250000D01*
X125000000Y-94000000D02*
X125000000Y-95249994D01*
X122500000Y-94000000D02*
X122500000Y-92750000D01*
X125000000Y-94000000D02*
X125000000Y-92750006D01*
X122500000Y-89000000D02*
X122500000Y-87750000D01*
X122500000Y-86500000D02*
X122500000Y-87750000D01*
X122500000Y-84000000D02*
X122500000Y-85250006D01*
X125000000Y-84000000D02*
X125000000Y-85250006D01*
X122500000Y-84000000D02*
X122500000Y-82750000D01*
X122500000Y-81500000D02*
X122500000Y-82750000D01*
X125000000Y-84000000D02*
X125000000Y-82750000D01*
X125000000Y-81500000D02*
X125000000Y-82750000D01*
X125000000Y-79000000D02*
X125000000Y-80250006D01*
X125000000Y-79000000D02*
X125000000Y-77750000D01*
X125000000Y-74000000D02*
X125000000Y-72750000D01*
X122500000Y-67753515D02*
X122500000Y-66550003D01*
X130000000Y-89000000D02*
X130000000Y-87750000D01*
X130000000Y-85249996D02*
X130000004Y-85250000D01*
X130000000Y-84000000D02*
X130000000Y-85249996D01*
X130000000Y-84000000D02*
X130000000Y-82750000D01*
X130000000Y-81500000D02*
X130000000Y-82750000D01*
X132500000Y-84000000D02*
X132500000Y-82749994D01*
X132500000Y-81500000D02*
X132500000Y-82749994D01*
X132500000Y-79000000D02*
X132500000Y-80250000D01*
X130000000Y-79000000D02*
X130000000Y-80250000D01*
X132500000Y-76500000D02*
X132500000Y-77750000D01*
X132500000Y-79000000D02*
X132500000Y-77750000D01*
X130000000Y-79000000D02*
X130000000Y-77750000D01*
X130000000Y-76500000D02*
X130000000Y-77750000D01*
X130000000Y-74000000D02*
X130000000Y-72750000D01*
X132500000Y-74000000D02*
X132500000Y-72750000D01*
X132500000Y-71500000D02*
X132500000Y-72750000D01*
X132500000Y-74000000D02*
X132500000Y-75250000D01*
X130000000Y-74000000D02*
X130000000Y-75250006D01*
X130000000Y-91500000D02*
X130000000Y-92749984D01*
X132500000Y-91500000D02*
X132500000Y-92750000D01*
X130000000Y-96500000D02*
X130000000Y-97746139D01*
X132500000Y-97763982D02*
X132500000Y-96500000D01*
X130000000Y-101500000D02*
X130000000Y-100246781D01*
X132500000Y-101500000D02*
X132500000Y-102746856D01*
X122500000Y-99000000D02*
X122500000Y-101500000D01*
X132500000Y-66500000D02*
X132500000Y-64350000D01*
X132500000Y-64350000D02*
X132300000Y-64150000D01*
X126100000Y-55100000D02*
X126100000Y-56100000D01*
X126100000Y-56100000D02*
X127000000Y-57000000D01*
X122500000Y-66550003D02*
X122449997Y-66500000D01*
X122500000Y-74000000D02*
X122500000Y-71500000D01*
X122500000Y-79000000D02*
X122500000Y-76500000D01*
X125000000Y-96500000D02*
X125000000Y-99000000D01*
X125000000Y-86500000D02*
X125000000Y-89000000D01*
X127000000Y-63200000D02*
X127000000Y-67000000D01*
X127000000Y-67000000D02*
X125000000Y-69000000D01*
X132500000Y-69000000D02*
X132500000Y-66500000D01*
X132500000Y-89000000D02*
X132500000Y-86500000D01*
X127000000Y-63200000D02*
X127000000Y-66000000D01*
X127000000Y-66000000D02*
X130000000Y-69000000D01*
X127000000Y-63200000D02*
X127000000Y-65000000D01*
D15*
X134500000Y-48200000D02*
X134500000Y-43000000D01*
D14*
X131243021Y-55843021D02*
X133200000Y-57800000D01*
X133200000Y-57800000D02*
X133600000Y-57800000D01*
X130800000Y-52800000D02*
X130800000Y-55400000D01*
X130800000Y-55400000D02*
X131243021Y-55843021D01*
X130300000Y-48000000D02*
X130300000Y-52300000D01*
X130300000Y-52300000D02*
X130800000Y-52800000D01*
X126900000Y-54300000D02*
X127700000Y-53500000D01*
X125150000Y-61400000D02*
X125150000Y-56050000D01*
X125150000Y-56050000D02*
X126100000Y-55100000D01*
D15*
X125150000Y-61400000D02*
X125150000Y-62350000D01*
X128700000Y-46300000D02*
X128700000Y-58048000D01*
X128700000Y-58048000D02*
X127710000Y-59038000D01*
D16*
X130846688Y-42353312D02*
X128700000Y-44500000D01*
X132540000Y-40660000D02*
X130846688Y-42353312D01*
D15*
X130846688Y-42353312D02*
X129453312Y-42353312D01*
X129453312Y-42353312D02*
X129400000Y-42300000D01*
D16*
X132540000Y-37000000D02*
X132540000Y-40660000D01*
X128700000Y-44500000D02*
X128700000Y-46300000D01*
D15*
X130250000Y-59038000D02*
X130504000Y-58784000D01*
X127710000Y-59038000D02*
X130250000Y-59038000D01*
D14*
X123750000Y-100750000D02*
X124000000Y-101000000D01*
X124000000Y-101000000D02*
X128500000Y-105500000D01*
X123750000Y-66500000D02*
X123750000Y-100750000D01*
D15*
X125599999Y-64399997D02*
X125250000Y-64749996D01*
X126050000Y-57750002D02*
X126050000Y-63949996D01*
X126050000Y-63949996D02*
X125599999Y-64399997D01*
D14*
X132800000Y-52900000D02*
X132800000Y-55300000D01*
X143000000Y-69000000D02*
X143000000Y-67750000D01*
X144500000Y-101750000D02*
X145345119Y-102595119D01*
X143758622Y-101008622D02*
X144500000Y-101750000D01*
X141228329Y-102228329D02*
X142000000Y-103000000D01*
X140500000Y-99000000D02*
X140500000Y-97750000D01*
X140500000Y-94000000D02*
X140500000Y-95250000D01*
X143000000Y-94000000D02*
X143000000Y-95249994D01*
X140500000Y-94000000D02*
X140500000Y-92750000D01*
X143000000Y-94000000D02*
X143000000Y-92750006D01*
X140500000Y-89000000D02*
X140500000Y-87750000D01*
X140500000Y-86500000D02*
X140500000Y-87750000D01*
X140500000Y-84000000D02*
X140500000Y-85250006D01*
X143000000Y-84000000D02*
X143000000Y-85250006D01*
X140500000Y-84000000D02*
X140500000Y-82750000D01*
X140500000Y-81500000D02*
X140500000Y-82750000D01*
X143000000Y-84000000D02*
X143000000Y-82750000D01*
X143000000Y-81500000D02*
X143000000Y-82750000D01*
X143000000Y-79000000D02*
X143000000Y-80250006D01*
X143000000Y-79000000D02*
X143000000Y-77750000D01*
X143000000Y-74000000D02*
X143000000Y-72750000D01*
X140500000Y-67753515D02*
X140500000Y-66550003D01*
X148000000Y-89000000D02*
X148000000Y-87750000D01*
X148000000Y-85249996D02*
X148000004Y-85250000D01*
X148000000Y-84000000D02*
X148000000Y-85249996D01*
X148000000Y-84000000D02*
X148000000Y-82750000D01*
X148000000Y-81500000D02*
X148000000Y-82750000D01*
X150500000Y-84000000D02*
X150500000Y-82749994D01*
X150500000Y-81500000D02*
X150500000Y-82749994D01*
X150500000Y-79000000D02*
X150500000Y-80250000D01*
X148000000Y-79000000D02*
X148000000Y-80250000D01*
X150500000Y-76500000D02*
X150500000Y-77750000D01*
X150500000Y-79000000D02*
X150500000Y-77750000D01*
X148000000Y-79000000D02*
X148000000Y-77750000D01*
X148000000Y-76500000D02*
X148000000Y-77750000D01*
X148000000Y-74000000D02*
X148000000Y-72750000D01*
X150500000Y-74000000D02*
X150500000Y-72750000D01*
X150500000Y-71500000D02*
X150500000Y-72750000D01*
X150500000Y-74000000D02*
X150500000Y-75250000D01*
X148000000Y-74000000D02*
X148000000Y-75250006D01*
X148000000Y-91500000D02*
X148000000Y-92749984D01*
X150500000Y-91500000D02*
X150500000Y-92750000D01*
X148000000Y-96500000D02*
X148000000Y-97746139D01*
X150500000Y-97763982D02*
X150500000Y-96500000D01*
X148000000Y-101500000D02*
X148000000Y-100246781D01*
X150500000Y-101500000D02*
X150500000Y-102746856D01*
X140500000Y-99000000D02*
X140500000Y-101500000D01*
X150500000Y-66500000D02*
X150500000Y-64350000D01*
X150500000Y-64350000D02*
X150300000Y-64150000D01*
X144100000Y-55100000D02*
X144100000Y-56100000D01*
X144100000Y-56100000D02*
X145000000Y-57000000D01*
X140500000Y-66550003D02*
X140449997Y-66500000D01*
X140500000Y-74000000D02*
X140500000Y-71500000D01*
X140500000Y-79000000D02*
X140500000Y-76500000D01*
X143000000Y-96500000D02*
X143000000Y-99000000D01*
X143000000Y-86500000D02*
X143000000Y-89000000D01*
X145000000Y-63200000D02*
X145000000Y-67000000D01*
X145000000Y-67000000D02*
X143000000Y-69000000D01*
X150500000Y-69000000D02*
X150500000Y-66500000D01*
X150500000Y-89000000D02*
X150500000Y-86500000D01*
X145000000Y-63200000D02*
X145000000Y-66000000D01*
X145000000Y-66000000D02*
X148000000Y-69000000D01*
X145000000Y-63200000D02*
X145000000Y-65000000D01*
D15*
X152500000Y-48200000D02*
X152500000Y-43000000D01*
D14*
X149243021Y-55843021D02*
X151200000Y-57800000D01*
X151200000Y-57800000D02*
X151600000Y-57800000D01*
X148800000Y-52800000D02*
X148800000Y-55400000D01*
X148800000Y-55400000D02*
X149243021Y-55843021D01*
X148300000Y-48000000D02*
X148300000Y-52300000D01*
X148300000Y-52300000D02*
X148800000Y-52800000D01*
X144900000Y-54300000D02*
X145700000Y-53500000D01*
X143150000Y-61400000D02*
X143150000Y-56050000D01*
X143150000Y-56050000D02*
X144100000Y-55100000D01*
D15*
X143150000Y-61400000D02*
X143150000Y-62350000D01*
X146700000Y-46300000D02*
X146700000Y-58048000D01*
X146700000Y-58048000D02*
X145710000Y-59038000D01*
D16*
X148846688Y-42353312D02*
X146700000Y-44500000D01*
X150540000Y-40660000D02*
X148846688Y-42353312D01*
D15*
X148846688Y-42353312D02*
X147453312Y-42353312D01*
X147453312Y-42353312D02*
X147400000Y-42300000D01*
D16*
X150540000Y-37000000D02*
X150540000Y-40660000D01*
X146700000Y-44500000D02*
X146700000Y-46300000D01*
D15*
X148250000Y-59038000D02*
X148504000Y-58784000D01*
X145710000Y-59038000D02*
X148250000Y-59038000D01*
D14*
X141750000Y-100750000D02*
X142000000Y-101000000D01*
X142000000Y-101000000D02*
X146500000Y-105500000D01*
X141750000Y-66500000D02*
X141750000Y-100750000D01*
D15*
X143599999Y-64399997D02*
X143250000Y-64749996D01*
X144050000Y-57750002D02*
X144050000Y-63949996D01*
X144050000Y-63949996D02*
X143599999Y-64399997D01*
D14*
X150800000Y-52900000D02*
X150800000Y-55300000D01*
X161000000Y-69000000D02*
X161000000Y-67750000D01*
X162500000Y-101750000D02*
X163345119Y-102595119D01*
X161758622Y-101008622D02*
X162500000Y-101750000D01*
X159228329Y-102228329D02*
X160000000Y-103000000D01*
X158500000Y-99000000D02*
X158500000Y-97750000D01*
X158500000Y-94000000D02*
X158500000Y-95250000D01*
X161000000Y-94000000D02*
X161000000Y-95249994D01*
X158500000Y-94000000D02*
X158500000Y-92750000D01*
X161000000Y-94000000D02*
X161000000Y-92750006D01*
X158500000Y-89000000D02*
X158500000Y-87750000D01*
X158500000Y-86500000D02*
X158500000Y-87750000D01*
X158500000Y-84000000D02*
X158500000Y-85250006D01*
X161000000Y-84000000D02*
X161000000Y-85250006D01*
X158500000Y-84000000D02*
X158500000Y-82750000D01*
X158500000Y-81500000D02*
X158500000Y-82750000D01*
X161000000Y-84000000D02*
X161000000Y-82750000D01*
X161000000Y-81500000D02*
X161000000Y-82750000D01*
X161000000Y-79000000D02*
X161000000Y-80250006D01*
X161000000Y-79000000D02*
X161000000Y-77750000D01*
X161000000Y-74000000D02*
X161000000Y-72750000D01*
X158500000Y-67753515D02*
X158500000Y-66550003D01*
X166000000Y-89000000D02*
X166000000Y-87750000D01*
X166000000Y-85249996D02*
X166000004Y-85250000D01*
X166000000Y-84000000D02*
X166000000Y-85249996D01*
X166000000Y-84000000D02*
X166000000Y-82750000D01*
X166000000Y-81500000D02*
X166000000Y-82750000D01*
X168500000Y-84000000D02*
X168500000Y-82749994D01*
X168500000Y-81500000D02*
X168500000Y-82749994D01*
X168500000Y-79000000D02*
X168500000Y-80250000D01*
X166000000Y-79000000D02*
X166000000Y-80250000D01*
X168500000Y-76500000D02*
X168500000Y-77750000D01*
X168500000Y-79000000D02*
X168500000Y-77750000D01*
X166000000Y-79000000D02*
X166000000Y-77750000D01*
X166000000Y-76500000D02*
X166000000Y-77750000D01*
X166000000Y-74000000D02*
X166000000Y-72750000D01*
X168500000Y-74000000D02*
X168500000Y-72750000D01*
X168500000Y-71500000D02*
X168500000Y-72750000D01*
X168500000Y-74000000D02*
X168500000Y-75250000D01*
X166000000Y-74000000D02*
X166000000Y-75250006D01*
X166000000Y-91500000D02*
X166000000Y-92749984D01*
X168500000Y-91500000D02*
X168500000Y-92750000D01*
X166000000Y-96500000D02*
X166000000Y-97746139D01*
X168500000Y-97763982D02*
X168500000Y-96500000D01*
X166000000Y-101500000D02*
X166000000Y-100246781D01*
X168500000Y-101500000D02*
X168500000Y-102746856D01*
X158500000Y-99000000D02*
X158500000Y-101500000D01*
X168500000Y-66500000D02*
X168500000Y-64350000D01*
X168500000Y-64350000D02*
X168300000Y-64150000D01*
X162100000Y-55100000D02*
X162100000Y-56100000D01*
X162100000Y-56100000D02*
X163000000Y-57000000D01*
X158500000Y-66550003D02*
X158449997Y-66500000D01*
X158500000Y-74000000D02*
X158500000Y-71500000D01*
X158500000Y-79000000D02*
X158500000Y-76500000D01*
X161000000Y-96500000D02*
X161000000Y-99000000D01*
X161000000Y-86500000D02*
X161000000Y-89000000D01*
X163000000Y-63200000D02*
X163000000Y-67000000D01*
X163000000Y-67000000D02*
X161000000Y-69000000D01*
X168500000Y-69000000D02*
X168500000Y-66500000D01*
X168500000Y-89000000D02*
X168500000Y-86500000D01*
X163000000Y-63200000D02*
X163000000Y-66000000D01*
X163000000Y-66000000D02*
X166000000Y-69000000D01*
X163000000Y-63200000D02*
X163000000Y-65000000D01*
D15*
X170500000Y-48200000D02*
X170500000Y-43000000D01*
D14*
X167243021Y-55843021D02*
X169200000Y-57800000D01*
X169200000Y-57800000D02*
X169600000Y-57800000D01*
X166800000Y-52800000D02*
X166800000Y-55400000D01*
X166800000Y-55400000D02*
X167243021Y-55843021D01*
X166300000Y-48000000D02*
X166300000Y-52300000D01*
X166300000Y-52300000D02*
X166800000Y-52800000D01*
X162900000Y-54300000D02*
X163700000Y-53500000D01*
X161150000Y-61400000D02*
X161150000Y-56050000D01*
X161150000Y-56050000D02*
X162100000Y-55100000D01*
D15*
X161150000Y-61400000D02*
X161150000Y-62350000D01*
X164700000Y-46300000D02*
X164700000Y-58048000D01*
X164700000Y-58048000D02*
X163710000Y-59038000D01*
D16*
X166846688Y-42353312D02*
X164700000Y-44500000D01*
X168540000Y-40660000D02*
X166846688Y-42353312D01*
D15*
X166846688Y-42353312D02*
X165453312Y-42353312D01*
X165453312Y-42353312D02*
X165400000Y-42300000D01*
D16*
X168540000Y-37000000D02*
X168540000Y-40660000D01*
X164700000Y-44500000D02*
X164700000Y-46300000D01*
D15*
X166250000Y-59038000D02*
X166504000Y-58784000D01*
X163710000Y-59038000D02*
X166250000Y-59038000D01*
D14*
X159750000Y-100750000D02*
X160000000Y-101000000D01*
X160000000Y-101000000D02*
X164500000Y-105500000D01*
X159750000Y-66500000D02*
X159750000Y-100750000D01*
D15*
X161599999Y-64399997D02*
X161250000Y-64749996D01*
X162050000Y-57750002D02*
X162050000Y-63949996D01*
X162050000Y-63949996D02*
X161599999Y-64399997D01*
D14*
X168800000Y-52900000D02*
X168800000Y-55300000D01*
G36*
X91422885Y-105630623D02*
X91422813Y-105713289D01*
X91586431Y-106109275D01*
X91889132Y-106412504D01*
X92284832Y-106576813D01*
X92713289Y-106577187D01*
X93109275Y-106413569D01*
X93412504Y-106110868D01*
X93576813Y-105715168D01*
X93577187Y-105286711D01*
X93413569Y-104890725D01*
X93110868Y-104587496D01*
X92724351Y-104427000D01*
X101873000Y-104427000D01*
X101873000Y-157958702D01*
X94000000Y-168784077D01*
X86127000Y-157958702D01*
X86127000Y-104427000D01*
X90219262Y-104427000D01*
X91422885Y-105630623D01*
X91422885Y-105630623D01*
G37*
X91422885Y-105630623D02*
X91422813Y-105713289D01*
X91586431Y-106109275D01*
X91889132Y-106412504D01*
X92284832Y-106576813D01*
X92713289Y-106577187D01*
X93109275Y-106413569D01*
X93412504Y-106110868D01*
X93576813Y-105715168D01*
X93577187Y-105286711D01*
X93413569Y-104890725D01*
X93110868Y-104587496D01*
X92724351Y-104427000D01*
X101873000Y-104427000D01*
X101873000Y-157958702D01*
X94000000Y-168784077D01*
X86127000Y-157958702D01*
X86127000Y-104427000D01*
X90219262Y-104427000D01*
X91422885Y-105630623D01*
G36*
X101873000Y-104273000D02*
X96127000Y-104273000D01*
X96127000Y-65800000D01*
X96116994Y-65750590D01*
X96088553Y-65708965D01*
X96046159Y-65681685D01*
X96000000Y-65673000D01*
X94400000Y-65673000D01*
X94350590Y-65683006D01*
X94308965Y-65711447D01*
X94281685Y-65753841D01*
X94273000Y-65800000D01*
X94273000Y-104273000D01*
X92480738Y-104273000D01*
X88604000Y-100396262D01*
X88604000Y-67169270D01*
X88662504Y-67110868D01*
X88826813Y-66715168D01*
X88827187Y-66286711D01*
X88663569Y-65890725D01*
X88360868Y-65587496D01*
X87965168Y-65423187D01*
X87536711Y-65422813D01*
X87140725Y-65586431D01*
X86837496Y-65889132D01*
X86673187Y-66284832D01*
X86672813Y-66713289D01*
X86836431Y-67109275D01*
X86896000Y-67168948D01*
X86896000Y-100750000D01*
X86961007Y-101076812D01*
X87128051Y-101326811D01*
X87146131Y-101353869D01*
X90065262Y-104273000D01*
X86127000Y-104273000D01*
X86127000Y-64894763D01*
X88518874Y-64894763D01*
X88629927Y-65163533D01*
X88835381Y-65369346D01*
X89103957Y-65480869D01*
X89394767Y-65481122D01*
X89663537Y-65370069D01*
X89869350Y-65164615D01*
X89965883Y-64932139D01*
X90049012Y-64849010D01*
X90499010Y-64399011D01*
X90499013Y-64399009D01*
X90636664Y-64193000D01*
X90649211Y-64129923D01*
X90685001Y-63949996D01*
X90685000Y-63949991D01*
X90685000Y-59182767D01*
X90978874Y-59182767D01*
X91089927Y-59451537D01*
X91295381Y-59657350D01*
X91563957Y-59768873D01*
X91854767Y-59769126D01*
X92087411Y-59673000D01*
X94250000Y-59673000D01*
X94493004Y-59624664D01*
X94670181Y-59506278D01*
X94917537Y-59404073D01*
X95123350Y-59198619D01*
X95234873Y-58930043D01*
X95235126Y-58639233D01*
X95124073Y-58370463D01*
X94918619Y-58164650D01*
X94650043Y-58053127D01*
X94359233Y-58052874D01*
X94090463Y-58163927D01*
X93884650Y-58369381D01*
X93870690Y-58403000D01*
X93211831Y-58403000D01*
X93286664Y-58291005D01*
X93335000Y-58048000D01*
X93335000Y-53044767D01*
X96068874Y-53044767D01*
X96179927Y-53313537D01*
X96292000Y-53425806D01*
X96292000Y-54774225D01*
X96180650Y-54885381D01*
X96069127Y-55153957D01*
X96068874Y-55444767D01*
X96179927Y-55713537D01*
X96385381Y-55919350D01*
X96653957Y-56030873D01*
X96944767Y-56031126D01*
X97213537Y-55920073D01*
X97419350Y-55714619D01*
X97530873Y-55446043D01*
X97531126Y-55155233D01*
X97420073Y-54886463D01*
X97308000Y-54774194D01*
X97308000Y-53425775D01*
X97419350Y-53314619D01*
X97530873Y-53046043D01*
X97531126Y-52755233D01*
X97420073Y-52486463D01*
X97214619Y-52280650D01*
X96946043Y-52169127D01*
X96655233Y-52168874D01*
X96386463Y-52279927D01*
X96180650Y-52485381D01*
X96069127Y-52753957D01*
X96068874Y-53044767D01*
X93335000Y-53044767D01*
X93335000Y-47074160D01*
X93418420Y-47018420D01*
X93638662Y-46688806D01*
X93716000Y-46300000D01*
X93716000Y-44920840D01*
X95565108Y-43071733D01*
X95565110Y-43071730D01*
X97258421Y-41378420D01*
X97478662Y-41048807D01*
X97491493Y-40984300D01*
X97556000Y-40660000D01*
X97556000Y-37744368D01*
X97594505Y-37705930D01*
X97784383Y-37248652D01*
X97784815Y-36753520D01*
X97595736Y-36295912D01*
X97245930Y-35945495D01*
X96788652Y-35755617D01*
X96293520Y-35755185D01*
X95835912Y-35944264D01*
X95485495Y-36294070D01*
X95295617Y-36751348D01*
X95295185Y-37246480D01*
X95484264Y-37704088D01*
X95524000Y-37743893D01*
X95524000Y-40239159D01*
X94128270Y-41634890D01*
X94128267Y-41634892D01*
X94044847Y-41718312D01*
X93852215Y-41718312D01*
X93814619Y-41680650D01*
X93546043Y-41569127D01*
X93255233Y-41568874D01*
X92986463Y-41679927D01*
X92780650Y-41885381D01*
X92669127Y-42153957D01*
X92668874Y-42444767D01*
X92779927Y-42713537D01*
X92914657Y-42848502D01*
X91981580Y-43781580D01*
X91761338Y-44111193D01*
X91761338Y-44111194D01*
X91684000Y-44500000D01*
X91684000Y-46300000D01*
X91761338Y-46688806D01*
X91981580Y-47018420D01*
X92065000Y-47074160D01*
X92065000Y-57784974D01*
X91527516Y-58322458D01*
X91296463Y-58417927D01*
X91090650Y-58623381D01*
X90979127Y-58891957D01*
X90978874Y-59182767D01*
X90685000Y-59182767D01*
X90685000Y-58126932D01*
X90780873Y-57896045D01*
X90781126Y-57605235D01*
X90670073Y-57336465D01*
X90464619Y-57130652D01*
X90196043Y-57019129D01*
X89905233Y-57018876D01*
X89636463Y-57129929D01*
X89430650Y-57335383D01*
X89319127Y-57603959D01*
X89318874Y-57894769D01*
X89415000Y-58127413D01*
X89415000Y-63686971D01*
X89150986Y-63950984D01*
X89067516Y-64034454D01*
X88836463Y-64129923D01*
X88630650Y-64335377D01*
X88519127Y-64603953D01*
X88518874Y-64894763D01*
X86127000Y-64894763D01*
X86127000Y-38053805D01*
X90585800Y-38053805D01*
X90667741Y-38306516D01*
X91228030Y-38510248D01*
X91823635Y-38484058D01*
X92252259Y-38306516D01*
X92334200Y-38053805D01*
X91460000Y-37179605D01*
X90585800Y-38053805D01*
X86127000Y-38053805D01*
X86127000Y-36768030D01*
X89949752Y-36768030D01*
X89975942Y-37363635D01*
X90153484Y-37792259D01*
X90406195Y-37874200D01*
X91280395Y-37000000D01*
X91639605Y-37000000D01*
X92513805Y-37874200D01*
X92766516Y-37792259D01*
X92866772Y-37516542D01*
X92944264Y-37704088D01*
X93294070Y-38054505D01*
X93751348Y-38244383D01*
X94246480Y-38244815D01*
X94704088Y-38055736D01*
X95054505Y-37705930D01*
X95244383Y-37248652D01*
X95244815Y-36753520D01*
X95055736Y-36295912D01*
X94705930Y-35945495D01*
X94248652Y-35755617D01*
X93753520Y-35755185D01*
X93295912Y-35944264D01*
X92945495Y-36294070D01*
X92873797Y-36466739D01*
X92766516Y-36207741D01*
X92513805Y-36125800D01*
X91639605Y-37000000D01*
X91280395Y-37000000D01*
X90406195Y-36125800D01*
X90153484Y-36207741D01*
X89949752Y-36768030D01*
X86127000Y-36768030D01*
X86127000Y-34706480D01*
X90215185Y-34706480D01*
X90404264Y-35164088D01*
X90754070Y-35514505D01*
X90926739Y-35586203D01*
X90667741Y-35693484D01*
X90585800Y-35946195D01*
X91460000Y-36820395D01*
X92334200Y-35946195D01*
X92252259Y-35693484D01*
X91976542Y-35593228D01*
X92164088Y-35515736D01*
X92514505Y-35165930D01*
X92704383Y-34708652D01*
X92704384Y-34706480D01*
X92755185Y-34706480D01*
X92944264Y-35164088D01*
X93294070Y-35514505D01*
X93751348Y-35704383D01*
X94246480Y-35704815D01*
X94704088Y-35515736D01*
X95054505Y-35165930D01*
X95244383Y-34708652D01*
X95244815Y-34213520D01*
X95055736Y-33755912D01*
X94896503Y-33596400D01*
X95287936Y-33596400D01*
X95287936Y-35323600D01*
X95314503Y-35464790D01*
X95397946Y-35594465D01*
X95525266Y-35681459D01*
X95676400Y-35712064D01*
X97403600Y-35712064D01*
X97544790Y-35685497D01*
X97674465Y-35602054D01*
X97761459Y-35474734D01*
X97792064Y-35323600D01*
X97792064Y-33596400D01*
X97765497Y-33455210D01*
X97682054Y-33325535D01*
X97554734Y-33238541D01*
X97403600Y-33207936D01*
X95676400Y-33207936D01*
X95535210Y-33234503D01*
X95405535Y-33317946D01*
X95318541Y-33445266D01*
X95287936Y-33596400D01*
X94896503Y-33596400D01*
X94705930Y-33405495D01*
X94248652Y-33215617D01*
X93753520Y-33215185D01*
X93295912Y-33404264D01*
X92945495Y-33754070D01*
X92755617Y-34211348D01*
X92755185Y-34706480D01*
X92704384Y-34706480D01*
X92704815Y-34213520D01*
X92515736Y-33755912D01*
X92165930Y-33405495D01*
X91708652Y-33215617D01*
X91213520Y-33215185D01*
X90755912Y-33404264D01*
X90405495Y-33754070D01*
X90215617Y-34211348D01*
X90215185Y-34706480D01*
X86127000Y-34706480D01*
X86127000Y-26372487D01*
X87118805Y-26372487D01*
X87404547Y-27064035D01*
X87933182Y-27593594D01*
X88624231Y-27880542D01*
X89372487Y-27881195D01*
X90064035Y-27595453D01*
X90593594Y-27066818D01*
X90880542Y-26375769D01*
X90880544Y-26372487D01*
X97118805Y-26372487D01*
X97404547Y-27064035D01*
X97933182Y-27593594D01*
X98624231Y-27880542D01*
X99372487Y-27881195D01*
X100064035Y-27595453D01*
X100593594Y-27066818D01*
X100880542Y-26375769D01*
X100881195Y-25627513D01*
X100595453Y-24935965D01*
X100066818Y-24406406D01*
X99375769Y-24119458D01*
X98627513Y-24118805D01*
X97935965Y-24404547D01*
X97406406Y-24933182D01*
X97119458Y-25624231D01*
X97118805Y-26372487D01*
X90880544Y-26372487D01*
X90881195Y-25627513D01*
X90595453Y-24935965D01*
X90066818Y-24406406D01*
X89375769Y-24119458D01*
X88627513Y-24118805D01*
X87935965Y-24404547D01*
X87406406Y-24933182D01*
X87119458Y-25624231D01*
X87118805Y-26372487D01*
X86127000Y-26372487D01*
X86127000Y-22431000D01*
X101873000Y-22431000D01*
X101873000Y-104273000D01*
X101873000Y-104273000D01*
G37*
X101873000Y-104273000D02*
X96127000Y-104273000D01*
X96127000Y-65800000D01*
X96116994Y-65750590D01*
X96088553Y-65708965D01*
X96046159Y-65681685D01*
X96000000Y-65673000D01*
X94400000Y-65673000D01*
X94350590Y-65683006D01*
X94308965Y-65711447D01*
X94281685Y-65753841D01*
X94273000Y-65800000D01*
X94273000Y-104273000D01*
X92480738Y-104273000D01*
X88604000Y-100396262D01*
X88604000Y-67169270D01*
X88662504Y-67110868D01*
X88826813Y-66715168D01*
X88827187Y-66286711D01*
X88663569Y-65890725D01*
X88360868Y-65587496D01*
X87965168Y-65423187D01*
X87536711Y-65422813D01*
X87140725Y-65586431D01*
X86837496Y-65889132D01*
X86673187Y-66284832D01*
X86672813Y-66713289D01*
X86836431Y-67109275D01*
X86896000Y-67168948D01*
X86896000Y-100750000D01*
X86961007Y-101076812D01*
X87128051Y-101326811D01*
X87146131Y-101353869D01*
X90065262Y-104273000D01*
X86127000Y-104273000D01*
X86127000Y-64894763D01*
X88518874Y-64894763D01*
X88629927Y-65163533D01*
X88835381Y-65369346D01*
X89103957Y-65480869D01*
X89394767Y-65481122D01*
X89663537Y-65370069D01*
X89869350Y-65164615D01*
X89965883Y-64932139D01*
X90049012Y-64849010D01*
X90499010Y-64399011D01*
X90499013Y-64399009D01*
X90636664Y-64193000D01*
X90649211Y-64129923D01*
X90685001Y-63949996D01*
X90685000Y-63949991D01*
X90685000Y-59182767D01*
X90978874Y-59182767D01*
X91089927Y-59451537D01*
X91295381Y-59657350D01*
X91563957Y-59768873D01*
X91854767Y-59769126D01*
X92087411Y-59673000D01*
X94250000Y-59673000D01*
X94493004Y-59624664D01*
X94670181Y-59506278D01*
X94917537Y-59404073D01*
X95123350Y-59198619D01*
X95234873Y-58930043D01*
X95235126Y-58639233D01*
X95124073Y-58370463D01*
X94918619Y-58164650D01*
X94650043Y-58053127D01*
X94359233Y-58052874D01*
X94090463Y-58163927D01*
X93884650Y-58369381D01*
X93870690Y-58403000D01*
X93211831Y-58403000D01*
X93286664Y-58291005D01*
X93335000Y-58048000D01*
X93335000Y-53044767D01*
X96068874Y-53044767D01*
X96179927Y-53313537D01*
X96292000Y-53425806D01*
X96292000Y-54774225D01*
X96180650Y-54885381D01*
X96069127Y-55153957D01*
X96068874Y-55444767D01*
X96179927Y-55713537D01*
X96385381Y-55919350D01*
X96653957Y-56030873D01*
X96944767Y-56031126D01*
X97213537Y-55920073D01*
X97419350Y-55714619D01*
X97530873Y-55446043D01*
X97531126Y-55155233D01*
X97420073Y-54886463D01*
X97308000Y-54774194D01*
X97308000Y-53425775D01*
X97419350Y-53314619D01*
X97530873Y-53046043D01*
X97531126Y-52755233D01*
X97420073Y-52486463D01*
X97214619Y-52280650D01*
X96946043Y-52169127D01*
X96655233Y-52168874D01*
X96386463Y-52279927D01*
X96180650Y-52485381D01*
X96069127Y-52753957D01*
X96068874Y-53044767D01*
X93335000Y-53044767D01*
X93335000Y-47074160D01*
X93418420Y-47018420D01*
X93638662Y-46688806D01*
X93716000Y-46300000D01*
X93716000Y-44920840D01*
X95565108Y-43071733D01*
X95565110Y-43071730D01*
X97258421Y-41378420D01*
X97478662Y-41048807D01*
X97491493Y-40984300D01*
X97556000Y-40660000D01*
X97556000Y-37744368D01*
X97594505Y-37705930D01*
X97784383Y-37248652D01*
X97784815Y-36753520D01*
X97595736Y-36295912D01*
X97245930Y-35945495D01*
X96788652Y-35755617D01*
X96293520Y-35755185D01*
X95835912Y-35944264D01*
X95485495Y-36294070D01*
X95295617Y-36751348D01*
X95295185Y-37246480D01*
X95484264Y-37704088D01*
X95524000Y-37743893D01*
X95524000Y-40239159D01*
X94128270Y-41634890D01*
X94128267Y-41634892D01*
X94044847Y-41718312D01*
X93852215Y-41718312D01*
X93814619Y-41680650D01*
X93546043Y-41569127D01*
X93255233Y-41568874D01*
X92986463Y-41679927D01*
X92780650Y-41885381D01*
X92669127Y-42153957D01*
X92668874Y-42444767D01*
X92779927Y-42713537D01*
X92914657Y-42848502D01*
X91981580Y-43781580D01*
X91761338Y-44111193D01*
X91761338Y-44111194D01*
X91684000Y-44500000D01*
X91684000Y-46300000D01*
X91761338Y-46688806D01*
X91981580Y-47018420D01*
X92065000Y-47074160D01*
X92065000Y-57784974D01*
X91527516Y-58322458D01*
X91296463Y-58417927D01*
X91090650Y-58623381D01*
X90979127Y-58891957D01*
X90978874Y-59182767D01*
X90685000Y-59182767D01*
X90685000Y-58126932D01*
X90780873Y-57896045D01*
X90781126Y-57605235D01*
X90670073Y-57336465D01*
X90464619Y-57130652D01*
X90196043Y-57019129D01*
X89905233Y-57018876D01*
X89636463Y-57129929D01*
X89430650Y-57335383D01*
X89319127Y-57603959D01*
X89318874Y-57894769D01*
X89415000Y-58127413D01*
X89415000Y-63686971D01*
X89150986Y-63950984D01*
X89067516Y-64034454D01*
X88836463Y-64129923D01*
X88630650Y-64335377D01*
X88519127Y-64603953D01*
X88518874Y-64894763D01*
X86127000Y-64894763D01*
X86127000Y-38053805D01*
X90585800Y-38053805D01*
X90667741Y-38306516D01*
X91228030Y-38510248D01*
X91823635Y-38484058D01*
X92252259Y-38306516D01*
X92334200Y-38053805D01*
X91460000Y-37179605D01*
X90585800Y-38053805D01*
X86127000Y-38053805D01*
X86127000Y-36768030D01*
X89949752Y-36768030D01*
X89975942Y-37363635D01*
X90153484Y-37792259D01*
X90406195Y-37874200D01*
X91280395Y-37000000D01*
X91639605Y-37000000D01*
X92513805Y-37874200D01*
X92766516Y-37792259D01*
X92866772Y-37516542D01*
X92944264Y-37704088D01*
X93294070Y-38054505D01*
X93751348Y-38244383D01*
X94246480Y-38244815D01*
X94704088Y-38055736D01*
X95054505Y-37705930D01*
X95244383Y-37248652D01*
X95244815Y-36753520D01*
X95055736Y-36295912D01*
X94705930Y-35945495D01*
X94248652Y-35755617D01*
X93753520Y-35755185D01*
X93295912Y-35944264D01*
X92945495Y-36294070D01*
X92873797Y-36466739D01*
X92766516Y-36207741D01*
X92513805Y-36125800D01*
X91639605Y-37000000D01*
X91280395Y-37000000D01*
X90406195Y-36125800D01*
X90153484Y-36207741D01*
X89949752Y-36768030D01*
X86127000Y-36768030D01*
X86127000Y-34706480D01*
X90215185Y-34706480D01*
X90404264Y-35164088D01*
X90754070Y-35514505D01*
X90926739Y-35586203D01*
X90667741Y-35693484D01*
X90585800Y-35946195D01*
X91460000Y-36820395D01*
X92334200Y-35946195D01*
X92252259Y-35693484D01*
X91976542Y-35593228D01*
X92164088Y-35515736D01*
X92514505Y-35165930D01*
X92704383Y-34708652D01*
X92704384Y-34706480D01*
X92755185Y-34706480D01*
X92944264Y-35164088D01*
X93294070Y-35514505D01*
X93751348Y-35704383D01*
X94246480Y-35704815D01*
X94704088Y-35515736D01*
X95054505Y-35165930D01*
X95244383Y-34708652D01*
X95244815Y-34213520D01*
X95055736Y-33755912D01*
X94896503Y-33596400D01*
X95287936Y-33596400D01*
X95287936Y-35323600D01*
X95314503Y-35464790D01*
X95397946Y-35594465D01*
X95525266Y-35681459D01*
X95676400Y-35712064D01*
X97403600Y-35712064D01*
X97544790Y-35685497D01*
X97674465Y-35602054D01*
X97761459Y-35474734D01*
X97792064Y-35323600D01*
X97792064Y-33596400D01*
X97765497Y-33455210D01*
X97682054Y-33325535D01*
X97554734Y-33238541D01*
X97403600Y-33207936D01*
X95676400Y-33207936D01*
X95535210Y-33234503D01*
X95405535Y-33317946D01*
X95318541Y-33445266D01*
X95287936Y-33596400D01*
X94896503Y-33596400D01*
X94705930Y-33405495D01*
X94248652Y-33215617D01*
X93753520Y-33215185D01*
X93295912Y-33404264D01*
X92945495Y-33754070D01*
X92755617Y-34211348D01*
X92755185Y-34706480D01*
X92704384Y-34706480D01*
X92704815Y-34213520D01*
X92515736Y-33755912D01*
X92165930Y-33405495D01*
X91708652Y-33215617D01*
X91213520Y-33215185D01*
X90755912Y-33404264D01*
X90405495Y-33754070D01*
X90215617Y-34211348D01*
X90215185Y-34706480D01*
X86127000Y-34706480D01*
X86127000Y-26372487D01*
X87118805Y-26372487D01*
X87404547Y-27064035D01*
X87933182Y-27593594D01*
X88624231Y-27880542D01*
X89372487Y-27881195D01*
X90064035Y-27595453D01*
X90593594Y-27066818D01*
X90880542Y-26375769D01*
X90880544Y-26372487D01*
X97118805Y-26372487D01*
X97404547Y-27064035D01*
X97933182Y-27593594D01*
X98624231Y-27880542D01*
X99372487Y-27881195D01*
X100064035Y-27595453D01*
X100593594Y-27066818D01*
X100880542Y-26375769D01*
X100881195Y-25627513D01*
X100595453Y-24935965D01*
X100066818Y-24406406D01*
X99375769Y-24119458D01*
X98627513Y-24118805D01*
X97935965Y-24404547D01*
X97406406Y-24933182D01*
X97119458Y-25624231D01*
X97118805Y-26372487D01*
X90880544Y-26372487D01*
X90881195Y-25627513D01*
X90595453Y-24935965D01*
X90066818Y-24406406D01*
X89375769Y-24119458D01*
X88627513Y-24118805D01*
X87935965Y-24404547D01*
X87406406Y-24933182D01*
X87119458Y-25624231D01*
X87118805Y-26372487D01*
X86127000Y-26372487D01*
X86127000Y-22431000D01*
X101873000Y-22431000D01*
X101873000Y-104273000D01*
G36*
X109422885Y-105630623D02*
X109422813Y-105713289D01*
X109586431Y-106109275D01*
X109889132Y-106412504D01*
X110284832Y-106576813D01*
X110713289Y-106577187D01*
X111109275Y-106413569D01*
X111412504Y-106110868D01*
X111576813Y-105715168D01*
X111577187Y-105286711D01*
X111413569Y-104890725D01*
X111110868Y-104587496D01*
X110724351Y-104427000D01*
X119873000Y-104427000D01*
X119873000Y-157958702D01*
X112000000Y-168784077D01*
X104127000Y-157958702D01*
X104127000Y-104427000D01*
X108219262Y-104427000D01*
X109422885Y-105630623D01*
X109422885Y-105630623D01*
G37*
X109422885Y-105630623D02*
X109422813Y-105713289D01*
X109586431Y-106109275D01*
X109889132Y-106412504D01*
X110284832Y-106576813D01*
X110713289Y-106577187D01*
X111109275Y-106413569D01*
X111412504Y-106110868D01*
X111576813Y-105715168D01*
X111577187Y-105286711D01*
X111413569Y-104890725D01*
X111110868Y-104587496D01*
X110724351Y-104427000D01*
X119873000Y-104427000D01*
X119873000Y-157958702D01*
X112000000Y-168784077D01*
X104127000Y-157958702D01*
X104127000Y-104427000D01*
X108219262Y-104427000D01*
X109422885Y-105630623D01*
G36*
X119873000Y-104273000D02*
X114127000Y-104273000D01*
X114127000Y-65800000D01*
X114116994Y-65750590D01*
X114088553Y-65708965D01*
X114046159Y-65681685D01*
X114000000Y-65673000D01*
X112400000Y-65673000D01*
X112350590Y-65683006D01*
X112308965Y-65711447D01*
X112281685Y-65753841D01*
X112273000Y-65800000D01*
X112273000Y-104273000D01*
X110480738Y-104273000D01*
X106604000Y-100396262D01*
X106604000Y-67169270D01*
X106662504Y-67110868D01*
X106826813Y-66715168D01*
X106827187Y-66286711D01*
X106663569Y-65890725D01*
X106360868Y-65587496D01*
X105965168Y-65423187D01*
X105536711Y-65422813D01*
X105140725Y-65586431D01*
X104837496Y-65889132D01*
X104673187Y-66284832D01*
X104672813Y-66713289D01*
X104836431Y-67109275D01*
X104896000Y-67168948D01*
X104896000Y-100750000D01*
X104961007Y-101076812D01*
X105128051Y-101326811D01*
X105146131Y-101353869D01*
X108065262Y-104273000D01*
X104127000Y-104273000D01*
X104127000Y-64894763D01*
X106518874Y-64894763D01*
X106629927Y-65163533D01*
X106835381Y-65369346D01*
X107103957Y-65480869D01*
X107394767Y-65481122D01*
X107663537Y-65370069D01*
X107869350Y-65164615D01*
X107965883Y-64932139D01*
X108049012Y-64849010D01*
X108499010Y-64399011D01*
X108499013Y-64399009D01*
X108636664Y-64193000D01*
X108649211Y-64129923D01*
X108685001Y-63949996D01*
X108685000Y-63949991D01*
X108685000Y-59182767D01*
X108978874Y-59182767D01*
X109089927Y-59451537D01*
X109295381Y-59657350D01*
X109563957Y-59768873D01*
X109854767Y-59769126D01*
X110087411Y-59673000D01*
X112250000Y-59673000D01*
X112493004Y-59624664D01*
X112670181Y-59506278D01*
X112917537Y-59404073D01*
X113123350Y-59198619D01*
X113234873Y-58930043D01*
X113235126Y-58639233D01*
X113124073Y-58370463D01*
X112918619Y-58164650D01*
X112650043Y-58053127D01*
X112359233Y-58052874D01*
X112090463Y-58163927D01*
X111884650Y-58369381D01*
X111870690Y-58403000D01*
X111211831Y-58403000D01*
X111286664Y-58291005D01*
X111335000Y-58048000D01*
X111335000Y-53044767D01*
X114068874Y-53044767D01*
X114179927Y-53313537D01*
X114292000Y-53425806D01*
X114292000Y-54774225D01*
X114180650Y-54885381D01*
X114069127Y-55153957D01*
X114068874Y-55444767D01*
X114179927Y-55713537D01*
X114385381Y-55919350D01*
X114653957Y-56030873D01*
X114944767Y-56031126D01*
X115213537Y-55920073D01*
X115419350Y-55714619D01*
X115530873Y-55446043D01*
X115531126Y-55155233D01*
X115420073Y-54886463D01*
X115308000Y-54774194D01*
X115308000Y-53425775D01*
X115419350Y-53314619D01*
X115530873Y-53046043D01*
X115531126Y-52755233D01*
X115420073Y-52486463D01*
X115214619Y-52280650D01*
X114946043Y-52169127D01*
X114655233Y-52168874D01*
X114386463Y-52279927D01*
X114180650Y-52485381D01*
X114069127Y-52753957D01*
X114068874Y-53044767D01*
X111335000Y-53044767D01*
X111335000Y-47074160D01*
X111418420Y-47018420D01*
X111638662Y-46688806D01*
X111716000Y-46300000D01*
X111716000Y-44920840D01*
X113565108Y-43071733D01*
X113565110Y-43071730D01*
X115258421Y-41378420D01*
X115478662Y-41048807D01*
X115491493Y-40984300D01*
X115556000Y-40660000D01*
X115556000Y-37744368D01*
X115594505Y-37705930D01*
X115784383Y-37248652D01*
X115784815Y-36753520D01*
X115595736Y-36295912D01*
X115245930Y-35945495D01*
X114788652Y-35755617D01*
X114293520Y-35755185D01*
X113835912Y-35944264D01*
X113485495Y-36294070D01*
X113295617Y-36751348D01*
X113295185Y-37246480D01*
X113484264Y-37704088D01*
X113524000Y-37743893D01*
X113524000Y-40239159D01*
X112128270Y-41634890D01*
X112128267Y-41634892D01*
X112044847Y-41718312D01*
X111852215Y-41718312D01*
X111814619Y-41680650D01*
X111546043Y-41569127D01*
X111255233Y-41568874D01*
X110986463Y-41679927D01*
X110780650Y-41885381D01*
X110669127Y-42153957D01*
X110668874Y-42444767D01*
X110779927Y-42713537D01*
X110914657Y-42848502D01*
X109981580Y-43781580D01*
X109761338Y-44111193D01*
X109761338Y-44111194D01*
X109684000Y-44500000D01*
X109684000Y-46300000D01*
X109761338Y-46688806D01*
X109981580Y-47018420D01*
X110065000Y-47074160D01*
X110065000Y-57784974D01*
X109527516Y-58322458D01*
X109296463Y-58417927D01*
X109090650Y-58623381D01*
X108979127Y-58891957D01*
X108978874Y-59182767D01*
X108685000Y-59182767D01*
X108685000Y-58126932D01*
X108780873Y-57896045D01*
X108781126Y-57605235D01*
X108670073Y-57336465D01*
X108464619Y-57130652D01*
X108196043Y-57019129D01*
X107905233Y-57018876D01*
X107636463Y-57129929D01*
X107430650Y-57335383D01*
X107319127Y-57603959D01*
X107318874Y-57894769D01*
X107415000Y-58127413D01*
X107415000Y-63686971D01*
X107150986Y-63950984D01*
X107067516Y-64034454D01*
X106836463Y-64129923D01*
X106630650Y-64335377D01*
X106519127Y-64603953D01*
X106518874Y-64894763D01*
X104127000Y-64894763D01*
X104127000Y-38053805D01*
X108585800Y-38053805D01*
X108667741Y-38306516D01*
X109228030Y-38510248D01*
X109823635Y-38484058D01*
X110252259Y-38306516D01*
X110334200Y-38053805D01*
X109460000Y-37179605D01*
X108585800Y-38053805D01*
X104127000Y-38053805D01*
X104127000Y-36768030D01*
X107949752Y-36768030D01*
X107975942Y-37363635D01*
X108153484Y-37792259D01*
X108406195Y-37874200D01*
X109280395Y-37000000D01*
X109639605Y-37000000D01*
X110513805Y-37874200D01*
X110766516Y-37792259D01*
X110866772Y-37516542D01*
X110944264Y-37704088D01*
X111294070Y-38054505D01*
X111751348Y-38244383D01*
X112246480Y-38244815D01*
X112704088Y-38055736D01*
X113054505Y-37705930D01*
X113244383Y-37248652D01*
X113244815Y-36753520D01*
X113055736Y-36295912D01*
X112705930Y-35945495D01*
X112248652Y-35755617D01*
X111753520Y-35755185D01*
X111295912Y-35944264D01*
X110945495Y-36294070D01*
X110873797Y-36466739D01*
X110766516Y-36207741D01*
X110513805Y-36125800D01*
X109639605Y-37000000D01*
X109280395Y-37000000D01*
X108406195Y-36125800D01*
X108153484Y-36207741D01*
X107949752Y-36768030D01*
X104127000Y-36768030D01*
X104127000Y-34706480D01*
X108215185Y-34706480D01*
X108404264Y-35164088D01*
X108754070Y-35514505D01*
X108926739Y-35586203D01*
X108667741Y-35693484D01*
X108585800Y-35946195D01*
X109460000Y-36820395D01*
X110334200Y-35946195D01*
X110252259Y-35693484D01*
X109976542Y-35593228D01*
X110164088Y-35515736D01*
X110514505Y-35165930D01*
X110704383Y-34708652D01*
X110704384Y-34706480D01*
X110755185Y-34706480D01*
X110944264Y-35164088D01*
X111294070Y-35514505D01*
X111751348Y-35704383D01*
X112246480Y-35704815D01*
X112704088Y-35515736D01*
X113054505Y-35165930D01*
X113244383Y-34708652D01*
X113244815Y-34213520D01*
X113055736Y-33755912D01*
X112896503Y-33596400D01*
X113287936Y-33596400D01*
X113287936Y-35323600D01*
X113314503Y-35464790D01*
X113397946Y-35594465D01*
X113525266Y-35681459D01*
X113676400Y-35712064D01*
X115403600Y-35712064D01*
X115544790Y-35685497D01*
X115674465Y-35602054D01*
X115761459Y-35474734D01*
X115792064Y-35323600D01*
X115792064Y-33596400D01*
X115765497Y-33455210D01*
X115682054Y-33325535D01*
X115554734Y-33238541D01*
X115403600Y-33207936D01*
X113676400Y-33207936D01*
X113535210Y-33234503D01*
X113405535Y-33317946D01*
X113318541Y-33445266D01*
X113287936Y-33596400D01*
X112896503Y-33596400D01*
X112705930Y-33405495D01*
X112248652Y-33215617D01*
X111753520Y-33215185D01*
X111295912Y-33404264D01*
X110945495Y-33754070D01*
X110755617Y-34211348D01*
X110755185Y-34706480D01*
X110704384Y-34706480D01*
X110704815Y-34213520D01*
X110515736Y-33755912D01*
X110165930Y-33405495D01*
X109708652Y-33215617D01*
X109213520Y-33215185D01*
X108755912Y-33404264D01*
X108405495Y-33754070D01*
X108215617Y-34211348D01*
X108215185Y-34706480D01*
X104127000Y-34706480D01*
X104127000Y-26372487D01*
X105118805Y-26372487D01*
X105404547Y-27064035D01*
X105933182Y-27593594D01*
X106624231Y-27880542D01*
X107372487Y-27881195D01*
X108064035Y-27595453D01*
X108593594Y-27066818D01*
X108880542Y-26375769D01*
X108880544Y-26372487D01*
X115118805Y-26372487D01*
X115404547Y-27064035D01*
X115933182Y-27593594D01*
X116624231Y-27880542D01*
X117372487Y-27881195D01*
X118064035Y-27595453D01*
X118593594Y-27066818D01*
X118880542Y-26375769D01*
X118881195Y-25627513D01*
X118595453Y-24935965D01*
X118066818Y-24406406D01*
X117375769Y-24119458D01*
X116627513Y-24118805D01*
X115935965Y-24404547D01*
X115406406Y-24933182D01*
X115119458Y-25624231D01*
X115118805Y-26372487D01*
X108880544Y-26372487D01*
X108881195Y-25627513D01*
X108595453Y-24935965D01*
X108066818Y-24406406D01*
X107375769Y-24119458D01*
X106627513Y-24118805D01*
X105935965Y-24404547D01*
X105406406Y-24933182D01*
X105119458Y-25624231D01*
X105118805Y-26372487D01*
X104127000Y-26372487D01*
X104127000Y-22431000D01*
X119873000Y-22431000D01*
X119873000Y-104273000D01*
X119873000Y-104273000D01*
G37*
X119873000Y-104273000D02*
X114127000Y-104273000D01*
X114127000Y-65800000D01*
X114116994Y-65750590D01*
X114088553Y-65708965D01*
X114046159Y-65681685D01*
X114000000Y-65673000D01*
X112400000Y-65673000D01*
X112350590Y-65683006D01*
X112308965Y-65711447D01*
X112281685Y-65753841D01*
X112273000Y-65800000D01*
X112273000Y-104273000D01*
X110480738Y-104273000D01*
X106604000Y-100396262D01*
X106604000Y-67169270D01*
X106662504Y-67110868D01*
X106826813Y-66715168D01*
X106827187Y-66286711D01*
X106663569Y-65890725D01*
X106360868Y-65587496D01*
X105965168Y-65423187D01*
X105536711Y-65422813D01*
X105140725Y-65586431D01*
X104837496Y-65889132D01*
X104673187Y-66284832D01*
X104672813Y-66713289D01*
X104836431Y-67109275D01*
X104896000Y-67168948D01*
X104896000Y-100750000D01*
X104961007Y-101076812D01*
X105128051Y-101326811D01*
X105146131Y-101353869D01*
X108065262Y-104273000D01*
X104127000Y-104273000D01*
X104127000Y-64894763D01*
X106518874Y-64894763D01*
X106629927Y-65163533D01*
X106835381Y-65369346D01*
X107103957Y-65480869D01*
X107394767Y-65481122D01*
X107663537Y-65370069D01*
X107869350Y-65164615D01*
X107965883Y-64932139D01*
X108049012Y-64849010D01*
X108499010Y-64399011D01*
X108499013Y-64399009D01*
X108636664Y-64193000D01*
X108649211Y-64129923D01*
X108685001Y-63949996D01*
X108685000Y-63949991D01*
X108685000Y-59182767D01*
X108978874Y-59182767D01*
X109089927Y-59451537D01*
X109295381Y-59657350D01*
X109563957Y-59768873D01*
X109854767Y-59769126D01*
X110087411Y-59673000D01*
X112250000Y-59673000D01*
X112493004Y-59624664D01*
X112670181Y-59506278D01*
X112917537Y-59404073D01*
X113123350Y-59198619D01*
X113234873Y-58930043D01*
X113235126Y-58639233D01*
X113124073Y-58370463D01*
X112918619Y-58164650D01*
X112650043Y-58053127D01*
X112359233Y-58052874D01*
X112090463Y-58163927D01*
X111884650Y-58369381D01*
X111870690Y-58403000D01*
X111211831Y-58403000D01*
X111286664Y-58291005D01*
X111335000Y-58048000D01*
X111335000Y-53044767D01*
X114068874Y-53044767D01*
X114179927Y-53313537D01*
X114292000Y-53425806D01*
X114292000Y-54774225D01*
X114180650Y-54885381D01*
X114069127Y-55153957D01*
X114068874Y-55444767D01*
X114179927Y-55713537D01*
X114385381Y-55919350D01*
X114653957Y-56030873D01*
X114944767Y-56031126D01*
X115213537Y-55920073D01*
X115419350Y-55714619D01*
X115530873Y-55446043D01*
X115531126Y-55155233D01*
X115420073Y-54886463D01*
X115308000Y-54774194D01*
X115308000Y-53425775D01*
X115419350Y-53314619D01*
X115530873Y-53046043D01*
X115531126Y-52755233D01*
X115420073Y-52486463D01*
X115214619Y-52280650D01*
X114946043Y-52169127D01*
X114655233Y-52168874D01*
X114386463Y-52279927D01*
X114180650Y-52485381D01*
X114069127Y-52753957D01*
X114068874Y-53044767D01*
X111335000Y-53044767D01*
X111335000Y-47074160D01*
X111418420Y-47018420D01*
X111638662Y-46688806D01*
X111716000Y-46300000D01*
X111716000Y-44920840D01*
X113565108Y-43071733D01*
X113565110Y-43071730D01*
X115258421Y-41378420D01*
X115478662Y-41048807D01*
X115491493Y-40984300D01*
X115556000Y-40660000D01*
X115556000Y-37744368D01*
X115594505Y-37705930D01*
X115784383Y-37248652D01*
X115784815Y-36753520D01*
X115595736Y-36295912D01*
X115245930Y-35945495D01*
X114788652Y-35755617D01*
X114293520Y-35755185D01*
X113835912Y-35944264D01*
X113485495Y-36294070D01*
X113295617Y-36751348D01*
X113295185Y-37246480D01*
X113484264Y-37704088D01*
X113524000Y-37743893D01*
X113524000Y-40239159D01*
X112128270Y-41634890D01*
X112128267Y-41634892D01*
X112044847Y-41718312D01*
X111852215Y-41718312D01*
X111814619Y-41680650D01*
X111546043Y-41569127D01*
X111255233Y-41568874D01*
X110986463Y-41679927D01*
X110780650Y-41885381D01*
X110669127Y-42153957D01*
X110668874Y-42444767D01*
X110779927Y-42713537D01*
X110914657Y-42848502D01*
X109981580Y-43781580D01*
X109761338Y-44111193D01*
X109761338Y-44111194D01*
X109684000Y-44500000D01*
X109684000Y-46300000D01*
X109761338Y-46688806D01*
X109981580Y-47018420D01*
X110065000Y-47074160D01*
X110065000Y-57784974D01*
X109527516Y-58322458D01*
X109296463Y-58417927D01*
X109090650Y-58623381D01*
X108979127Y-58891957D01*
X108978874Y-59182767D01*
X108685000Y-59182767D01*
X108685000Y-58126932D01*
X108780873Y-57896045D01*
X108781126Y-57605235D01*
X108670073Y-57336465D01*
X108464619Y-57130652D01*
X108196043Y-57019129D01*
X107905233Y-57018876D01*
X107636463Y-57129929D01*
X107430650Y-57335383D01*
X107319127Y-57603959D01*
X107318874Y-57894769D01*
X107415000Y-58127413D01*
X107415000Y-63686971D01*
X107150986Y-63950984D01*
X107067516Y-64034454D01*
X106836463Y-64129923D01*
X106630650Y-64335377D01*
X106519127Y-64603953D01*
X106518874Y-64894763D01*
X104127000Y-64894763D01*
X104127000Y-38053805D01*
X108585800Y-38053805D01*
X108667741Y-38306516D01*
X109228030Y-38510248D01*
X109823635Y-38484058D01*
X110252259Y-38306516D01*
X110334200Y-38053805D01*
X109460000Y-37179605D01*
X108585800Y-38053805D01*
X104127000Y-38053805D01*
X104127000Y-36768030D01*
X107949752Y-36768030D01*
X107975942Y-37363635D01*
X108153484Y-37792259D01*
X108406195Y-37874200D01*
X109280395Y-37000000D01*
X109639605Y-37000000D01*
X110513805Y-37874200D01*
X110766516Y-37792259D01*
X110866772Y-37516542D01*
X110944264Y-37704088D01*
X111294070Y-38054505D01*
X111751348Y-38244383D01*
X112246480Y-38244815D01*
X112704088Y-38055736D01*
X113054505Y-37705930D01*
X113244383Y-37248652D01*
X113244815Y-36753520D01*
X113055736Y-36295912D01*
X112705930Y-35945495D01*
X112248652Y-35755617D01*
X111753520Y-35755185D01*
X111295912Y-35944264D01*
X110945495Y-36294070D01*
X110873797Y-36466739D01*
X110766516Y-36207741D01*
X110513805Y-36125800D01*
X109639605Y-37000000D01*
X109280395Y-37000000D01*
X108406195Y-36125800D01*
X108153484Y-36207741D01*
X107949752Y-36768030D01*
X104127000Y-36768030D01*
X104127000Y-34706480D01*
X108215185Y-34706480D01*
X108404264Y-35164088D01*
X108754070Y-35514505D01*
X108926739Y-35586203D01*
X108667741Y-35693484D01*
X108585800Y-35946195D01*
X109460000Y-36820395D01*
X110334200Y-35946195D01*
X110252259Y-35693484D01*
X109976542Y-35593228D01*
X110164088Y-35515736D01*
X110514505Y-35165930D01*
X110704383Y-34708652D01*
X110704384Y-34706480D01*
X110755185Y-34706480D01*
X110944264Y-35164088D01*
X111294070Y-35514505D01*
X111751348Y-35704383D01*
X112246480Y-35704815D01*
X112704088Y-35515736D01*
X113054505Y-35165930D01*
X113244383Y-34708652D01*
X113244815Y-34213520D01*
X113055736Y-33755912D01*
X112896503Y-33596400D01*
X113287936Y-33596400D01*
X113287936Y-35323600D01*
X113314503Y-35464790D01*
X113397946Y-35594465D01*
X113525266Y-35681459D01*
X113676400Y-35712064D01*
X115403600Y-35712064D01*
X115544790Y-35685497D01*
X115674465Y-35602054D01*
X115761459Y-35474734D01*
X115792064Y-35323600D01*
X115792064Y-33596400D01*
X115765497Y-33455210D01*
X115682054Y-33325535D01*
X115554734Y-33238541D01*
X115403600Y-33207936D01*
X113676400Y-33207936D01*
X113535210Y-33234503D01*
X113405535Y-33317946D01*
X113318541Y-33445266D01*
X113287936Y-33596400D01*
X112896503Y-33596400D01*
X112705930Y-33405495D01*
X112248652Y-33215617D01*
X111753520Y-33215185D01*
X111295912Y-33404264D01*
X110945495Y-33754070D01*
X110755617Y-34211348D01*
X110755185Y-34706480D01*
X110704384Y-34706480D01*
X110704815Y-34213520D01*
X110515736Y-33755912D01*
X110165930Y-33405495D01*
X109708652Y-33215617D01*
X109213520Y-33215185D01*
X108755912Y-33404264D01*
X108405495Y-33754070D01*
X108215617Y-34211348D01*
X108215185Y-34706480D01*
X104127000Y-34706480D01*
X104127000Y-26372487D01*
X105118805Y-26372487D01*
X105404547Y-27064035D01*
X105933182Y-27593594D01*
X106624231Y-27880542D01*
X107372487Y-27881195D01*
X108064035Y-27595453D01*
X108593594Y-27066818D01*
X108880542Y-26375769D01*
X108880544Y-26372487D01*
X115118805Y-26372487D01*
X115404547Y-27064035D01*
X115933182Y-27593594D01*
X116624231Y-27880542D01*
X117372487Y-27881195D01*
X118064035Y-27595453D01*
X118593594Y-27066818D01*
X118880542Y-26375769D01*
X118881195Y-25627513D01*
X118595453Y-24935965D01*
X118066818Y-24406406D01*
X117375769Y-24119458D01*
X116627513Y-24118805D01*
X115935965Y-24404547D01*
X115406406Y-24933182D01*
X115119458Y-25624231D01*
X115118805Y-26372487D01*
X108880544Y-26372487D01*
X108881195Y-25627513D01*
X108595453Y-24935965D01*
X108066818Y-24406406D01*
X107375769Y-24119458D01*
X106627513Y-24118805D01*
X105935965Y-24404547D01*
X105406406Y-24933182D01*
X105119458Y-25624231D01*
X105118805Y-26372487D01*
X104127000Y-26372487D01*
X104127000Y-22431000D01*
X119873000Y-22431000D01*
X119873000Y-104273000D01*
G36*
X127422885Y-105630623D02*
X127422813Y-105713289D01*
X127586431Y-106109275D01*
X127889132Y-106412504D01*
X128284832Y-106576813D01*
X128713289Y-106577187D01*
X129109275Y-106413569D01*
X129412504Y-106110868D01*
X129576813Y-105715168D01*
X129577187Y-105286711D01*
X129413569Y-104890725D01*
X129110868Y-104587496D01*
X128724351Y-104427000D01*
X137873000Y-104427000D01*
X137873000Y-157958702D01*
X130000000Y-168784077D01*
X122127000Y-157958702D01*
X122127000Y-104427000D01*
X126219262Y-104427000D01*
X127422885Y-105630623D01*
X127422885Y-105630623D01*
G37*
X127422885Y-105630623D02*
X127422813Y-105713289D01*
X127586431Y-106109275D01*
X127889132Y-106412504D01*
X128284832Y-106576813D01*
X128713289Y-106577187D01*
X129109275Y-106413569D01*
X129412504Y-106110868D01*
X129576813Y-105715168D01*
X129577187Y-105286711D01*
X129413569Y-104890725D01*
X129110868Y-104587496D01*
X128724351Y-104427000D01*
X137873000Y-104427000D01*
X137873000Y-157958702D01*
X130000000Y-168784077D01*
X122127000Y-157958702D01*
X122127000Y-104427000D01*
X126219262Y-104427000D01*
X127422885Y-105630623D01*
G36*
X137873000Y-104273000D02*
X132127000Y-104273000D01*
X132127000Y-65800000D01*
X132116994Y-65750590D01*
X132088553Y-65708965D01*
X132046159Y-65681685D01*
X132000000Y-65673000D01*
X130400000Y-65673000D01*
X130350590Y-65683006D01*
X130308965Y-65711447D01*
X130281685Y-65753841D01*
X130273000Y-65800000D01*
X130273000Y-104273000D01*
X128480738Y-104273000D01*
X124604000Y-100396262D01*
X124604000Y-67169270D01*
X124662504Y-67110868D01*
X124826813Y-66715168D01*
X124827187Y-66286711D01*
X124663569Y-65890725D01*
X124360868Y-65587496D01*
X123965168Y-65423187D01*
X123536711Y-65422813D01*
X123140725Y-65586431D01*
X122837496Y-65889132D01*
X122673187Y-66284832D01*
X122672813Y-66713289D01*
X122836431Y-67109275D01*
X122896000Y-67168948D01*
X122896000Y-100750000D01*
X122961007Y-101076812D01*
X123128051Y-101326811D01*
X123146131Y-101353869D01*
X126065262Y-104273000D01*
X122127000Y-104273000D01*
X122127000Y-64894763D01*
X124518874Y-64894763D01*
X124629927Y-65163533D01*
X124835381Y-65369346D01*
X125103957Y-65480869D01*
X125394767Y-65481122D01*
X125663537Y-65370069D01*
X125869350Y-65164615D01*
X125965883Y-64932139D01*
X126049012Y-64849010D01*
X126499010Y-64399011D01*
X126499013Y-64399009D01*
X126636664Y-64193000D01*
X126649211Y-64129923D01*
X126685001Y-63949996D01*
X126685000Y-63949991D01*
X126685000Y-59182767D01*
X126978874Y-59182767D01*
X127089927Y-59451537D01*
X127295381Y-59657350D01*
X127563957Y-59768873D01*
X127854767Y-59769126D01*
X128087411Y-59673000D01*
X130250000Y-59673000D01*
X130493004Y-59624664D01*
X130670181Y-59506278D01*
X130917537Y-59404073D01*
X131123350Y-59198619D01*
X131234873Y-58930043D01*
X131235126Y-58639233D01*
X131124073Y-58370463D01*
X130918619Y-58164650D01*
X130650043Y-58053127D01*
X130359233Y-58052874D01*
X130090463Y-58163927D01*
X129884650Y-58369381D01*
X129870690Y-58403000D01*
X129211831Y-58403000D01*
X129286664Y-58291005D01*
X129335000Y-58048000D01*
X129335000Y-53044767D01*
X132068874Y-53044767D01*
X132179927Y-53313537D01*
X132292000Y-53425806D01*
X132292000Y-54774225D01*
X132180650Y-54885381D01*
X132069127Y-55153957D01*
X132068874Y-55444767D01*
X132179927Y-55713537D01*
X132385381Y-55919350D01*
X132653957Y-56030873D01*
X132944767Y-56031126D01*
X133213537Y-55920073D01*
X133419350Y-55714619D01*
X133530873Y-55446043D01*
X133531126Y-55155233D01*
X133420073Y-54886463D01*
X133308000Y-54774194D01*
X133308000Y-53425775D01*
X133419350Y-53314619D01*
X133530873Y-53046043D01*
X133531126Y-52755233D01*
X133420073Y-52486463D01*
X133214619Y-52280650D01*
X132946043Y-52169127D01*
X132655233Y-52168874D01*
X132386463Y-52279927D01*
X132180650Y-52485381D01*
X132069127Y-52753957D01*
X132068874Y-53044767D01*
X129335000Y-53044767D01*
X129335000Y-47074160D01*
X129418420Y-47018420D01*
X129638662Y-46688806D01*
X129716000Y-46300000D01*
X129716000Y-44920840D01*
X131565108Y-43071733D01*
X131565110Y-43071730D01*
X133258421Y-41378420D01*
X133478662Y-41048807D01*
X133491493Y-40984300D01*
X133556000Y-40660000D01*
X133556000Y-37744368D01*
X133594505Y-37705930D01*
X133784383Y-37248652D01*
X133784815Y-36753520D01*
X133595736Y-36295912D01*
X133245930Y-35945495D01*
X132788652Y-35755617D01*
X132293520Y-35755185D01*
X131835912Y-35944264D01*
X131485495Y-36294070D01*
X131295617Y-36751348D01*
X131295185Y-37246480D01*
X131484264Y-37704088D01*
X131524000Y-37743893D01*
X131524000Y-40239159D01*
X130128270Y-41634890D01*
X130128267Y-41634892D01*
X130044847Y-41718312D01*
X129852215Y-41718312D01*
X129814619Y-41680650D01*
X129546043Y-41569127D01*
X129255233Y-41568874D01*
X128986463Y-41679927D01*
X128780650Y-41885381D01*
X128669127Y-42153957D01*
X128668874Y-42444767D01*
X128779927Y-42713537D01*
X128914657Y-42848502D01*
X127981580Y-43781580D01*
X127761338Y-44111193D01*
X127761338Y-44111194D01*
X127684000Y-44500000D01*
X127684000Y-46300000D01*
X127761338Y-46688806D01*
X127981580Y-47018420D01*
X128065000Y-47074160D01*
X128065000Y-57784974D01*
X127527516Y-58322458D01*
X127296463Y-58417927D01*
X127090650Y-58623381D01*
X126979127Y-58891957D01*
X126978874Y-59182767D01*
X126685000Y-59182767D01*
X126685000Y-58126932D01*
X126780873Y-57896045D01*
X126781126Y-57605235D01*
X126670073Y-57336465D01*
X126464619Y-57130652D01*
X126196043Y-57019129D01*
X125905233Y-57018876D01*
X125636463Y-57129929D01*
X125430650Y-57335383D01*
X125319127Y-57603959D01*
X125318874Y-57894769D01*
X125415000Y-58127413D01*
X125415000Y-63686971D01*
X125150986Y-63950984D01*
X125067516Y-64034454D01*
X124836463Y-64129923D01*
X124630650Y-64335377D01*
X124519127Y-64603953D01*
X124518874Y-64894763D01*
X122127000Y-64894763D01*
X122127000Y-38053805D01*
X126585800Y-38053805D01*
X126667741Y-38306516D01*
X127228030Y-38510248D01*
X127823635Y-38484058D01*
X128252259Y-38306516D01*
X128334200Y-38053805D01*
X127460000Y-37179605D01*
X126585800Y-38053805D01*
X122127000Y-38053805D01*
X122127000Y-36768030D01*
X125949752Y-36768030D01*
X125975942Y-37363635D01*
X126153484Y-37792259D01*
X126406195Y-37874200D01*
X127280395Y-37000000D01*
X127639605Y-37000000D01*
X128513805Y-37874200D01*
X128766516Y-37792259D01*
X128866772Y-37516542D01*
X128944264Y-37704088D01*
X129294070Y-38054505D01*
X129751348Y-38244383D01*
X130246480Y-38244815D01*
X130704088Y-38055736D01*
X131054505Y-37705930D01*
X131244383Y-37248652D01*
X131244815Y-36753520D01*
X131055736Y-36295912D01*
X130705930Y-35945495D01*
X130248652Y-35755617D01*
X129753520Y-35755185D01*
X129295912Y-35944264D01*
X128945495Y-36294070D01*
X128873797Y-36466739D01*
X128766516Y-36207741D01*
X128513805Y-36125800D01*
X127639605Y-37000000D01*
X127280395Y-37000000D01*
X126406195Y-36125800D01*
X126153484Y-36207741D01*
X125949752Y-36768030D01*
X122127000Y-36768030D01*
X122127000Y-34706480D01*
X126215185Y-34706480D01*
X126404264Y-35164088D01*
X126754070Y-35514505D01*
X126926739Y-35586203D01*
X126667741Y-35693484D01*
X126585800Y-35946195D01*
X127460000Y-36820395D01*
X128334200Y-35946195D01*
X128252259Y-35693484D01*
X127976542Y-35593228D01*
X128164088Y-35515736D01*
X128514505Y-35165930D01*
X128704383Y-34708652D01*
X128704384Y-34706480D01*
X128755185Y-34706480D01*
X128944264Y-35164088D01*
X129294070Y-35514505D01*
X129751348Y-35704383D01*
X130246480Y-35704815D01*
X130704088Y-35515736D01*
X131054505Y-35165930D01*
X131244383Y-34708652D01*
X131244815Y-34213520D01*
X131055736Y-33755912D01*
X130896503Y-33596400D01*
X131287936Y-33596400D01*
X131287936Y-35323600D01*
X131314503Y-35464790D01*
X131397946Y-35594465D01*
X131525266Y-35681459D01*
X131676400Y-35712064D01*
X133403600Y-35712064D01*
X133544790Y-35685497D01*
X133674465Y-35602054D01*
X133761459Y-35474734D01*
X133792064Y-35323600D01*
X133792064Y-33596400D01*
X133765497Y-33455210D01*
X133682054Y-33325535D01*
X133554734Y-33238541D01*
X133403600Y-33207936D01*
X131676400Y-33207936D01*
X131535210Y-33234503D01*
X131405535Y-33317946D01*
X131318541Y-33445266D01*
X131287936Y-33596400D01*
X130896503Y-33596400D01*
X130705930Y-33405495D01*
X130248652Y-33215617D01*
X129753520Y-33215185D01*
X129295912Y-33404264D01*
X128945495Y-33754070D01*
X128755617Y-34211348D01*
X128755185Y-34706480D01*
X128704384Y-34706480D01*
X128704815Y-34213520D01*
X128515736Y-33755912D01*
X128165930Y-33405495D01*
X127708652Y-33215617D01*
X127213520Y-33215185D01*
X126755912Y-33404264D01*
X126405495Y-33754070D01*
X126215617Y-34211348D01*
X126215185Y-34706480D01*
X122127000Y-34706480D01*
X122127000Y-26372487D01*
X123118805Y-26372487D01*
X123404547Y-27064035D01*
X123933182Y-27593594D01*
X124624231Y-27880542D01*
X125372487Y-27881195D01*
X126064035Y-27595453D01*
X126593594Y-27066818D01*
X126880542Y-26375769D01*
X126880544Y-26372487D01*
X133118805Y-26372487D01*
X133404547Y-27064035D01*
X133933182Y-27593594D01*
X134624231Y-27880542D01*
X135372487Y-27881195D01*
X136064035Y-27595453D01*
X136593594Y-27066818D01*
X136880542Y-26375769D01*
X136881195Y-25627513D01*
X136595453Y-24935965D01*
X136066818Y-24406406D01*
X135375769Y-24119458D01*
X134627513Y-24118805D01*
X133935965Y-24404547D01*
X133406406Y-24933182D01*
X133119458Y-25624231D01*
X133118805Y-26372487D01*
X126880544Y-26372487D01*
X126881195Y-25627513D01*
X126595453Y-24935965D01*
X126066818Y-24406406D01*
X125375769Y-24119458D01*
X124627513Y-24118805D01*
X123935965Y-24404547D01*
X123406406Y-24933182D01*
X123119458Y-25624231D01*
X123118805Y-26372487D01*
X122127000Y-26372487D01*
X122127000Y-22431000D01*
X137873000Y-22431000D01*
X137873000Y-104273000D01*
X137873000Y-104273000D01*
G37*
X137873000Y-104273000D02*
X132127000Y-104273000D01*
X132127000Y-65800000D01*
X132116994Y-65750590D01*
X132088553Y-65708965D01*
X132046159Y-65681685D01*
X132000000Y-65673000D01*
X130400000Y-65673000D01*
X130350590Y-65683006D01*
X130308965Y-65711447D01*
X130281685Y-65753841D01*
X130273000Y-65800000D01*
X130273000Y-104273000D01*
X128480738Y-104273000D01*
X124604000Y-100396262D01*
X124604000Y-67169270D01*
X124662504Y-67110868D01*
X124826813Y-66715168D01*
X124827187Y-66286711D01*
X124663569Y-65890725D01*
X124360868Y-65587496D01*
X123965168Y-65423187D01*
X123536711Y-65422813D01*
X123140725Y-65586431D01*
X122837496Y-65889132D01*
X122673187Y-66284832D01*
X122672813Y-66713289D01*
X122836431Y-67109275D01*
X122896000Y-67168948D01*
X122896000Y-100750000D01*
X122961007Y-101076812D01*
X123128051Y-101326811D01*
X123146131Y-101353869D01*
X126065262Y-104273000D01*
X122127000Y-104273000D01*
X122127000Y-64894763D01*
X124518874Y-64894763D01*
X124629927Y-65163533D01*
X124835381Y-65369346D01*
X125103957Y-65480869D01*
X125394767Y-65481122D01*
X125663537Y-65370069D01*
X125869350Y-65164615D01*
X125965883Y-64932139D01*
X126049012Y-64849010D01*
X126499010Y-64399011D01*
X126499013Y-64399009D01*
X126636664Y-64193000D01*
X126649211Y-64129923D01*
X126685001Y-63949996D01*
X126685000Y-63949991D01*
X126685000Y-59182767D01*
X126978874Y-59182767D01*
X127089927Y-59451537D01*
X127295381Y-59657350D01*
X127563957Y-59768873D01*
X127854767Y-59769126D01*
X128087411Y-59673000D01*
X130250000Y-59673000D01*
X130493004Y-59624664D01*
X130670181Y-59506278D01*
X130917537Y-59404073D01*
X131123350Y-59198619D01*
X131234873Y-58930043D01*
X131235126Y-58639233D01*
X131124073Y-58370463D01*
X130918619Y-58164650D01*
X130650043Y-58053127D01*
X130359233Y-58052874D01*
X130090463Y-58163927D01*
X129884650Y-58369381D01*
X129870690Y-58403000D01*
X129211831Y-58403000D01*
X129286664Y-58291005D01*
X129335000Y-58048000D01*
X129335000Y-53044767D01*
X132068874Y-53044767D01*
X132179927Y-53313537D01*
X132292000Y-53425806D01*
X132292000Y-54774225D01*
X132180650Y-54885381D01*
X132069127Y-55153957D01*
X132068874Y-55444767D01*
X132179927Y-55713537D01*
X132385381Y-55919350D01*
X132653957Y-56030873D01*
X132944767Y-56031126D01*
X133213537Y-55920073D01*
X133419350Y-55714619D01*
X133530873Y-55446043D01*
X133531126Y-55155233D01*
X133420073Y-54886463D01*
X133308000Y-54774194D01*
X133308000Y-53425775D01*
X133419350Y-53314619D01*
X133530873Y-53046043D01*
X133531126Y-52755233D01*
X133420073Y-52486463D01*
X133214619Y-52280650D01*
X132946043Y-52169127D01*
X132655233Y-52168874D01*
X132386463Y-52279927D01*
X132180650Y-52485381D01*
X132069127Y-52753957D01*
X132068874Y-53044767D01*
X129335000Y-53044767D01*
X129335000Y-47074160D01*
X129418420Y-47018420D01*
X129638662Y-46688806D01*
X129716000Y-46300000D01*
X129716000Y-44920840D01*
X131565108Y-43071733D01*
X131565110Y-43071730D01*
X133258421Y-41378420D01*
X133478662Y-41048807D01*
X133491493Y-40984300D01*
X133556000Y-40660000D01*
X133556000Y-37744368D01*
X133594505Y-37705930D01*
X133784383Y-37248652D01*
X133784815Y-36753520D01*
X133595736Y-36295912D01*
X133245930Y-35945495D01*
X132788652Y-35755617D01*
X132293520Y-35755185D01*
X131835912Y-35944264D01*
X131485495Y-36294070D01*
X131295617Y-36751348D01*
X131295185Y-37246480D01*
X131484264Y-37704088D01*
X131524000Y-37743893D01*
X131524000Y-40239159D01*
X130128270Y-41634890D01*
X130128267Y-41634892D01*
X130044847Y-41718312D01*
X129852215Y-41718312D01*
X129814619Y-41680650D01*
X129546043Y-41569127D01*
X129255233Y-41568874D01*
X128986463Y-41679927D01*
X128780650Y-41885381D01*
X128669127Y-42153957D01*
X128668874Y-42444767D01*
X128779927Y-42713537D01*
X128914657Y-42848502D01*
X127981580Y-43781580D01*
X127761338Y-44111193D01*
X127761338Y-44111194D01*
X127684000Y-44500000D01*
X127684000Y-46300000D01*
X127761338Y-46688806D01*
X127981580Y-47018420D01*
X128065000Y-47074160D01*
X128065000Y-57784974D01*
X127527516Y-58322458D01*
X127296463Y-58417927D01*
X127090650Y-58623381D01*
X126979127Y-58891957D01*
X126978874Y-59182767D01*
X126685000Y-59182767D01*
X126685000Y-58126932D01*
X126780873Y-57896045D01*
X126781126Y-57605235D01*
X126670073Y-57336465D01*
X126464619Y-57130652D01*
X126196043Y-57019129D01*
X125905233Y-57018876D01*
X125636463Y-57129929D01*
X125430650Y-57335383D01*
X125319127Y-57603959D01*
X125318874Y-57894769D01*
X125415000Y-58127413D01*
X125415000Y-63686971D01*
X125150986Y-63950984D01*
X125067516Y-64034454D01*
X124836463Y-64129923D01*
X124630650Y-64335377D01*
X124519127Y-64603953D01*
X124518874Y-64894763D01*
X122127000Y-64894763D01*
X122127000Y-38053805D01*
X126585800Y-38053805D01*
X126667741Y-38306516D01*
X127228030Y-38510248D01*
X127823635Y-38484058D01*
X128252259Y-38306516D01*
X128334200Y-38053805D01*
X127460000Y-37179605D01*
X126585800Y-38053805D01*
X122127000Y-38053805D01*
X122127000Y-36768030D01*
X125949752Y-36768030D01*
X125975942Y-37363635D01*
X126153484Y-37792259D01*
X126406195Y-37874200D01*
X127280395Y-37000000D01*
X127639605Y-37000000D01*
X128513805Y-37874200D01*
X128766516Y-37792259D01*
X128866772Y-37516542D01*
X128944264Y-37704088D01*
X129294070Y-38054505D01*
X129751348Y-38244383D01*
X130246480Y-38244815D01*
X130704088Y-38055736D01*
X131054505Y-37705930D01*
X131244383Y-37248652D01*
X131244815Y-36753520D01*
X131055736Y-36295912D01*
X130705930Y-35945495D01*
X130248652Y-35755617D01*
X129753520Y-35755185D01*
X129295912Y-35944264D01*
X128945495Y-36294070D01*
X128873797Y-36466739D01*
X128766516Y-36207741D01*
X128513805Y-36125800D01*
X127639605Y-37000000D01*
X127280395Y-37000000D01*
X126406195Y-36125800D01*
X126153484Y-36207741D01*
X125949752Y-36768030D01*
X122127000Y-36768030D01*
X122127000Y-34706480D01*
X126215185Y-34706480D01*
X126404264Y-35164088D01*
X126754070Y-35514505D01*
X126926739Y-35586203D01*
X126667741Y-35693484D01*
X126585800Y-35946195D01*
X127460000Y-36820395D01*
X128334200Y-35946195D01*
X128252259Y-35693484D01*
X127976542Y-35593228D01*
X128164088Y-35515736D01*
X128514505Y-35165930D01*
X128704383Y-34708652D01*
X128704384Y-34706480D01*
X128755185Y-34706480D01*
X128944264Y-35164088D01*
X129294070Y-35514505D01*
X129751348Y-35704383D01*
X130246480Y-35704815D01*
X130704088Y-35515736D01*
X131054505Y-35165930D01*
X131244383Y-34708652D01*
X131244815Y-34213520D01*
X131055736Y-33755912D01*
X130896503Y-33596400D01*
X131287936Y-33596400D01*
X131287936Y-35323600D01*
X131314503Y-35464790D01*
X131397946Y-35594465D01*
X131525266Y-35681459D01*
X131676400Y-35712064D01*
X133403600Y-35712064D01*
X133544790Y-35685497D01*
X133674465Y-35602054D01*
X133761459Y-35474734D01*
X133792064Y-35323600D01*
X133792064Y-33596400D01*
X133765497Y-33455210D01*
X133682054Y-33325535D01*
X133554734Y-33238541D01*
X133403600Y-33207936D01*
X131676400Y-33207936D01*
X131535210Y-33234503D01*
X131405535Y-33317946D01*
X131318541Y-33445266D01*
X131287936Y-33596400D01*
X130896503Y-33596400D01*
X130705930Y-33405495D01*
X130248652Y-33215617D01*
X129753520Y-33215185D01*
X129295912Y-33404264D01*
X128945495Y-33754070D01*
X128755617Y-34211348D01*
X128755185Y-34706480D01*
X128704384Y-34706480D01*
X128704815Y-34213520D01*
X128515736Y-33755912D01*
X128165930Y-33405495D01*
X127708652Y-33215617D01*
X127213520Y-33215185D01*
X126755912Y-33404264D01*
X126405495Y-33754070D01*
X126215617Y-34211348D01*
X126215185Y-34706480D01*
X122127000Y-34706480D01*
X122127000Y-26372487D01*
X123118805Y-26372487D01*
X123404547Y-27064035D01*
X123933182Y-27593594D01*
X124624231Y-27880542D01*
X125372487Y-27881195D01*
X126064035Y-27595453D01*
X126593594Y-27066818D01*
X126880542Y-26375769D01*
X126880544Y-26372487D01*
X133118805Y-26372487D01*
X133404547Y-27064035D01*
X133933182Y-27593594D01*
X134624231Y-27880542D01*
X135372487Y-27881195D01*
X136064035Y-27595453D01*
X136593594Y-27066818D01*
X136880542Y-26375769D01*
X136881195Y-25627513D01*
X136595453Y-24935965D01*
X136066818Y-24406406D01*
X135375769Y-24119458D01*
X134627513Y-24118805D01*
X133935965Y-24404547D01*
X133406406Y-24933182D01*
X133119458Y-25624231D01*
X133118805Y-26372487D01*
X126880544Y-26372487D01*
X126881195Y-25627513D01*
X126595453Y-24935965D01*
X126066818Y-24406406D01*
X125375769Y-24119458D01*
X124627513Y-24118805D01*
X123935965Y-24404547D01*
X123406406Y-24933182D01*
X123119458Y-25624231D01*
X123118805Y-26372487D01*
X122127000Y-26372487D01*
X122127000Y-22431000D01*
X137873000Y-22431000D01*
X137873000Y-104273000D01*
G36*
X145422885Y-105630623D02*
X145422813Y-105713289D01*
X145586431Y-106109275D01*
X145889132Y-106412504D01*
X146284832Y-106576813D01*
X146713289Y-106577187D01*
X147109275Y-106413569D01*
X147412504Y-106110868D01*
X147576813Y-105715168D01*
X147577187Y-105286711D01*
X147413569Y-104890725D01*
X147110868Y-104587496D01*
X146724351Y-104427000D01*
X155873000Y-104427000D01*
X155873000Y-157958702D01*
X148000000Y-168784077D01*
X140127000Y-157958702D01*
X140127000Y-104427000D01*
X144219262Y-104427000D01*
X145422885Y-105630623D01*
X145422885Y-105630623D01*
G37*
X145422885Y-105630623D02*
X145422813Y-105713289D01*
X145586431Y-106109275D01*
X145889132Y-106412504D01*
X146284832Y-106576813D01*
X146713289Y-106577187D01*
X147109275Y-106413569D01*
X147412504Y-106110868D01*
X147576813Y-105715168D01*
X147577187Y-105286711D01*
X147413569Y-104890725D01*
X147110868Y-104587496D01*
X146724351Y-104427000D01*
X155873000Y-104427000D01*
X155873000Y-157958702D01*
X148000000Y-168784077D01*
X140127000Y-157958702D01*
X140127000Y-104427000D01*
X144219262Y-104427000D01*
X145422885Y-105630623D01*
G36*
X155873000Y-104273000D02*
X150127000Y-104273000D01*
X150127000Y-65800000D01*
X150116994Y-65750590D01*
X150088553Y-65708965D01*
X150046159Y-65681685D01*
X150000000Y-65673000D01*
X148400000Y-65673000D01*
X148350590Y-65683006D01*
X148308965Y-65711447D01*
X148281685Y-65753841D01*
X148273000Y-65800000D01*
X148273000Y-104273000D01*
X146480738Y-104273000D01*
X142604000Y-100396262D01*
X142604000Y-67169270D01*
X142662504Y-67110868D01*
X142826813Y-66715168D01*
X142827187Y-66286711D01*
X142663569Y-65890725D01*
X142360868Y-65587496D01*
X141965168Y-65423187D01*
X141536711Y-65422813D01*
X141140725Y-65586431D01*
X140837496Y-65889132D01*
X140673187Y-66284832D01*
X140672813Y-66713289D01*
X140836431Y-67109275D01*
X140896000Y-67168948D01*
X140896000Y-100750000D01*
X140961007Y-101076812D01*
X141128051Y-101326811D01*
X141146131Y-101353869D01*
X144065262Y-104273000D01*
X140127000Y-104273000D01*
X140127000Y-64894763D01*
X142518874Y-64894763D01*
X142629927Y-65163533D01*
X142835381Y-65369346D01*
X143103957Y-65480869D01*
X143394767Y-65481122D01*
X143663537Y-65370069D01*
X143869350Y-65164615D01*
X143965883Y-64932139D01*
X144049012Y-64849010D01*
X144499010Y-64399011D01*
X144499013Y-64399009D01*
X144636664Y-64193000D01*
X144649211Y-64129923D01*
X144685001Y-63949996D01*
X144685000Y-63949991D01*
X144685000Y-59182767D01*
X144978874Y-59182767D01*
X145089927Y-59451537D01*
X145295381Y-59657350D01*
X145563957Y-59768873D01*
X145854767Y-59769126D01*
X146087411Y-59673000D01*
X148250000Y-59673000D01*
X148493004Y-59624664D01*
X148670181Y-59506278D01*
X148917537Y-59404073D01*
X149123350Y-59198619D01*
X149234873Y-58930043D01*
X149235126Y-58639233D01*
X149124073Y-58370463D01*
X148918619Y-58164650D01*
X148650043Y-58053127D01*
X148359233Y-58052874D01*
X148090463Y-58163927D01*
X147884650Y-58369381D01*
X147870690Y-58403000D01*
X147211831Y-58403000D01*
X147286664Y-58291005D01*
X147335000Y-58048000D01*
X147335000Y-53044767D01*
X150068874Y-53044767D01*
X150179927Y-53313537D01*
X150292000Y-53425806D01*
X150292000Y-54774225D01*
X150180650Y-54885381D01*
X150069127Y-55153957D01*
X150068874Y-55444767D01*
X150179927Y-55713537D01*
X150385381Y-55919350D01*
X150653957Y-56030873D01*
X150944767Y-56031126D01*
X151213537Y-55920073D01*
X151419350Y-55714619D01*
X151530873Y-55446043D01*
X151531126Y-55155233D01*
X151420073Y-54886463D01*
X151308000Y-54774194D01*
X151308000Y-53425775D01*
X151419350Y-53314619D01*
X151530873Y-53046043D01*
X151531126Y-52755233D01*
X151420073Y-52486463D01*
X151214619Y-52280650D01*
X150946043Y-52169127D01*
X150655233Y-52168874D01*
X150386463Y-52279927D01*
X150180650Y-52485381D01*
X150069127Y-52753957D01*
X150068874Y-53044767D01*
X147335000Y-53044767D01*
X147335000Y-47074160D01*
X147418420Y-47018420D01*
X147638662Y-46688806D01*
X147716000Y-46300000D01*
X147716000Y-44920840D01*
X149565108Y-43071733D01*
X149565110Y-43071730D01*
X151258421Y-41378420D01*
X151478662Y-41048807D01*
X151491493Y-40984300D01*
X151556000Y-40660000D01*
X151556000Y-37744368D01*
X151594505Y-37705930D01*
X151784383Y-37248652D01*
X151784815Y-36753520D01*
X151595736Y-36295912D01*
X151245930Y-35945495D01*
X150788652Y-35755617D01*
X150293520Y-35755185D01*
X149835912Y-35944264D01*
X149485495Y-36294070D01*
X149295617Y-36751348D01*
X149295185Y-37246480D01*
X149484264Y-37704088D01*
X149524000Y-37743893D01*
X149524000Y-40239159D01*
X148128270Y-41634890D01*
X148128267Y-41634892D01*
X148044847Y-41718312D01*
X147852215Y-41718312D01*
X147814619Y-41680650D01*
X147546043Y-41569127D01*
X147255233Y-41568874D01*
X146986463Y-41679927D01*
X146780650Y-41885381D01*
X146669127Y-42153957D01*
X146668874Y-42444767D01*
X146779927Y-42713537D01*
X146914657Y-42848502D01*
X145981580Y-43781580D01*
X145761338Y-44111193D01*
X145761338Y-44111194D01*
X145684000Y-44500000D01*
X145684000Y-46300000D01*
X145761338Y-46688806D01*
X145981580Y-47018420D01*
X146065000Y-47074160D01*
X146065000Y-57784974D01*
X145527516Y-58322458D01*
X145296463Y-58417927D01*
X145090650Y-58623381D01*
X144979127Y-58891957D01*
X144978874Y-59182767D01*
X144685000Y-59182767D01*
X144685000Y-58126932D01*
X144780873Y-57896045D01*
X144781126Y-57605235D01*
X144670073Y-57336465D01*
X144464619Y-57130652D01*
X144196043Y-57019129D01*
X143905233Y-57018876D01*
X143636463Y-57129929D01*
X143430650Y-57335383D01*
X143319127Y-57603959D01*
X143318874Y-57894769D01*
X143415000Y-58127413D01*
X143415000Y-63686971D01*
X143150986Y-63950984D01*
X143067516Y-64034454D01*
X142836463Y-64129923D01*
X142630650Y-64335377D01*
X142519127Y-64603953D01*
X142518874Y-64894763D01*
X140127000Y-64894763D01*
X140127000Y-38053805D01*
X144585800Y-38053805D01*
X144667741Y-38306516D01*
X145228030Y-38510248D01*
X145823635Y-38484058D01*
X146252259Y-38306516D01*
X146334200Y-38053805D01*
X145460000Y-37179605D01*
X144585800Y-38053805D01*
X140127000Y-38053805D01*
X140127000Y-36768030D01*
X143949752Y-36768030D01*
X143975942Y-37363635D01*
X144153484Y-37792259D01*
X144406195Y-37874200D01*
X145280395Y-37000000D01*
X145639605Y-37000000D01*
X146513805Y-37874200D01*
X146766516Y-37792259D01*
X146866772Y-37516542D01*
X146944264Y-37704088D01*
X147294070Y-38054505D01*
X147751348Y-38244383D01*
X148246480Y-38244815D01*
X148704088Y-38055736D01*
X149054505Y-37705930D01*
X149244383Y-37248652D01*
X149244815Y-36753520D01*
X149055736Y-36295912D01*
X148705930Y-35945495D01*
X148248652Y-35755617D01*
X147753520Y-35755185D01*
X147295912Y-35944264D01*
X146945495Y-36294070D01*
X146873797Y-36466739D01*
X146766516Y-36207741D01*
X146513805Y-36125800D01*
X145639605Y-37000000D01*
X145280395Y-37000000D01*
X144406195Y-36125800D01*
X144153484Y-36207741D01*
X143949752Y-36768030D01*
X140127000Y-36768030D01*
X140127000Y-34706480D01*
X144215185Y-34706480D01*
X144404264Y-35164088D01*
X144754070Y-35514505D01*
X144926739Y-35586203D01*
X144667741Y-35693484D01*
X144585800Y-35946195D01*
X145460000Y-36820395D01*
X146334200Y-35946195D01*
X146252259Y-35693484D01*
X145976542Y-35593228D01*
X146164088Y-35515736D01*
X146514505Y-35165930D01*
X146704383Y-34708652D01*
X146704384Y-34706480D01*
X146755185Y-34706480D01*
X146944264Y-35164088D01*
X147294070Y-35514505D01*
X147751348Y-35704383D01*
X148246480Y-35704815D01*
X148704088Y-35515736D01*
X149054505Y-35165930D01*
X149244383Y-34708652D01*
X149244815Y-34213520D01*
X149055736Y-33755912D01*
X148896503Y-33596400D01*
X149287936Y-33596400D01*
X149287936Y-35323600D01*
X149314503Y-35464790D01*
X149397946Y-35594465D01*
X149525266Y-35681459D01*
X149676400Y-35712064D01*
X151403600Y-35712064D01*
X151544790Y-35685497D01*
X151674465Y-35602054D01*
X151761459Y-35474734D01*
X151792064Y-35323600D01*
X151792064Y-33596400D01*
X151765497Y-33455210D01*
X151682054Y-33325535D01*
X151554734Y-33238541D01*
X151403600Y-33207936D01*
X149676400Y-33207936D01*
X149535210Y-33234503D01*
X149405535Y-33317946D01*
X149318541Y-33445266D01*
X149287936Y-33596400D01*
X148896503Y-33596400D01*
X148705930Y-33405495D01*
X148248652Y-33215617D01*
X147753520Y-33215185D01*
X147295912Y-33404264D01*
X146945495Y-33754070D01*
X146755617Y-34211348D01*
X146755185Y-34706480D01*
X146704384Y-34706480D01*
X146704815Y-34213520D01*
X146515736Y-33755912D01*
X146165930Y-33405495D01*
X145708652Y-33215617D01*
X145213520Y-33215185D01*
X144755912Y-33404264D01*
X144405495Y-33754070D01*
X144215617Y-34211348D01*
X144215185Y-34706480D01*
X140127000Y-34706480D01*
X140127000Y-26372487D01*
X141118805Y-26372487D01*
X141404547Y-27064035D01*
X141933182Y-27593594D01*
X142624231Y-27880542D01*
X143372487Y-27881195D01*
X144064035Y-27595453D01*
X144593594Y-27066818D01*
X144880542Y-26375769D01*
X144880544Y-26372487D01*
X151118805Y-26372487D01*
X151404547Y-27064035D01*
X151933182Y-27593594D01*
X152624231Y-27880542D01*
X153372487Y-27881195D01*
X154064035Y-27595453D01*
X154593594Y-27066818D01*
X154880542Y-26375769D01*
X154881195Y-25627513D01*
X154595453Y-24935965D01*
X154066818Y-24406406D01*
X153375769Y-24119458D01*
X152627513Y-24118805D01*
X151935965Y-24404547D01*
X151406406Y-24933182D01*
X151119458Y-25624231D01*
X151118805Y-26372487D01*
X144880544Y-26372487D01*
X144881195Y-25627513D01*
X144595453Y-24935965D01*
X144066818Y-24406406D01*
X143375769Y-24119458D01*
X142627513Y-24118805D01*
X141935965Y-24404547D01*
X141406406Y-24933182D01*
X141119458Y-25624231D01*
X141118805Y-26372487D01*
X140127000Y-26372487D01*
X140127000Y-22431000D01*
X155873000Y-22431000D01*
X155873000Y-104273000D01*
X155873000Y-104273000D01*
G37*
X155873000Y-104273000D02*
X150127000Y-104273000D01*
X150127000Y-65800000D01*
X150116994Y-65750590D01*
X150088553Y-65708965D01*
X150046159Y-65681685D01*
X150000000Y-65673000D01*
X148400000Y-65673000D01*
X148350590Y-65683006D01*
X148308965Y-65711447D01*
X148281685Y-65753841D01*
X148273000Y-65800000D01*
X148273000Y-104273000D01*
X146480738Y-104273000D01*
X142604000Y-100396262D01*
X142604000Y-67169270D01*
X142662504Y-67110868D01*
X142826813Y-66715168D01*
X142827187Y-66286711D01*
X142663569Y-65890725D01*
X142360868Y-65587496D01*
X141965168Y-65423187D01*
X141536711Y-65422813D01*
X141140725Y-65586431D01*
X140837496Y-65889132D01*
X140673187Y-66284832D01*
X140672813Y-66713289D01*
X140836431Y-67109275D01*
X140896000Y-67168948D01*
X140896000Y-100750000D01*
X140961007Y-101076812D01*
X141128051Y-101326811D01*
X141146131Y-101353869D01*
X144065262Y-104273000D01*
X140127000Y-104273000D01*
X140127000Y-64894763D01*
X142518874Y-64894763D01*
X142629927Y-65163533D01*
X142835381Y-65369346D01*
X143103957Y-65480869D01*
X143394767Y-65481122D01*
X143663537Y-65370069D01*
X143869350Y-65164615D01*
X143965883Y-64932139D01*
X144049012Y-64849010D01*
X144499010Y-64399011D01*
X144499013Y-64399009D01*
X144636664Y-64193000D01*
X144649211Y-64129923D01*
X144685001Y-63949996D01*
X144685000Y-63949991D01*
X144685000Y-59182767D01*
X144978874Y-59182767D01*
X145089927Y-59451537D01*
X145295381Y-59657350D01*
X145563957Y-59768873D01*
X145854767Y-59769126D01*
X146087411Y-59673000D01*
X148250000Y-59673000D01*
X148493004Y-59624664D01*
X148670181Y-59506278D01*
X148917537Y-59404073D01*
X149123350Y-59198619D01*
X149234873Y-58930043D01*
X149235126Y-58639233D01*
X149124073Y-58370463D01*
X148918619Y-58164650D01*
X148650043Y-58053127D01*
X148359233Y-58052874D01*
X148090463Y-58163927D01*
X147884650Y-58369381D01*
X147870690Y-58403000D01*
X147211831Y-58403000D01*
X147286664Y-58291005D01*
X147335000Y-58048000D01*
X147335000Y-53044767D01*
X150068874Y-53044767D01*
X150179927Y-53313537D01*
X150292000Y-53425806D01*
X150292000Y-54774225D01*
X150180650Y-54885381D01*
X150069127Y-55153957D01*
X150068874Y-55444767D01*
X150179927Y-55713537D01*
X150385381Y-55919350D01*
X150653957Y-56030873D01*
X150944767Y-56031126D01*
X151213537Y-55920073D01*
X151419350Y-55714619D01*
X151530873Y-55446043D01*
X151531126Y-55155233D01*
X151420073Y-54886463D01*
X151308000Y-54774194D01*
X151308000Y-53425775D01*
X151419350Y-53314619D01*
X151530873Y-53046043D01*
X151531126Y-52755233D01*
X151420073Y-52486463D01*
X151214619Y-52280650D01*
X150946043Y-52169127D01*
X150655233Y-52168874D01*
X150386463Y-52279927D01*
X150180650Y-52485381D01*
X150069127Y-52753957D01*
X150068874Y-53044767D01*
X147335000Y-53044767D01*
X147335000Y-47074160D01*
X147418420Y-47018420D01*
X147638662Y-46688806D01*
X147716000Y-46300000D01*
X147716000Y-44920840D01*
X149565108Y-43071733D01*
X149565110Y-43071730D01*
X151258421Y-41378420D01*
X151478662Y-41048807D01*
X151491493Y-40984300D01*
X151556000Y-40660000D01*
X151556000Y-37744368D01*
X151594505Y-37705930D01*
X151784383Y-37248652D01*
X151784815Y-36753520D01*
X151595736Y-36295912D01*
X151245930Y-35945495D01*
X150788652Y-35755617D01*
X150293520Y-35755185D01*
X149835912Y-35944264D01*
X149485495Y-36294070D01*
X149295617Y-36751348D01*
X149295185Y-37246480D01*
X149484264Y-37704088D01*
X149524000Y-37743893D01*
X149524000Y-40239159D01*
X148128270Y-41634890D01*
X148128267Y-41634892D01*
X148044847Y-41718312D01*
X147852215Y-41718312D01*
X147814619Y-41680650D01*
X147546043Y-41569127D01*
X147255233Y-41568874D01*
X146986463Y-41679927D01*
X146780650Y-41885381D01*
X146669127Y-42153957D01*
X146668874Y-42444767D01*
X146779927Y-42713537D01*
X146914657Y-42848502D01*
X145981580Y-43781580D01*
X145761338Y-44111193D01*
X145761338Y-44111194D01*
X145684000Y-44500000D01*
X145684000Y-46300000D01*
X145761338Y-46688806D01*
X145981580Y-47018420D01*
X146065000Y-47074160D01*
X146065000Y-57784974D01*
X145527516Y-58322458D01*
X145296463Y-58417927D01*
X145090650Y-58623381D01*
X144979127Y-58891957D01*
X144978874Y-59182767D01*
X144685000Y-59182767D01*
X144685000Y-58126932D01*
X144780873Y-57896045D01*
X144781126Y-57605235D01*
X144670073Y-57336465D01*
X144464619Y-57130652D01*
X144196043Y-57019129D01*
X143905233Y-57018876D01*
X143636463Y-57129929D01*
X143430650Y-57335383D01*
X143319127Y-57603959D01*
X143318874Y-57894769D01*
X143415000Y-58127413D01*
X143415000Y-63686971D01*
X143150986Y-63950984D01*
X143067516Y-64034454D01*
X142836463Y-64129923D01*
X142630650Y-64335377D01*
X142519127Y-64603953D01*
X142518874Y-64894763D01*
X140127000Y-64894763D01*
X140127000Y-38053805D01*
X144585800Y-38053805D01*
X144667741Y-38306516D01*
X145228030Y-38510248D01*
X145823635Y-38484058D01*
X146252259Y-38306516D01*
X146334200Y-38053805D01*
X145460000Y-37179605D01*
X144585800Y-38053805D01*
X140127000Y-38053805D01*
X140127000Y-36768030D01*
X143949752Y-36768030D01*
X143975942Y-37363635D01*
X144153484Y-37792259D01*
X144406195Y-37874200D01*
X145280395Y-37000000D01*
X145639605Y-37000000D01*
X146513805Y-37874200D01*
X146766516Y-37792259D01*
X146866772Y-37516542D01*
X146944264Y-37704088D01*
X147294070Y-38054505D01*
X147751348Y-38244383D01*
X148246480Y-38244815D01*
X148704088Y-38055736D01*
X149054505Y-37705930D01*
X149244383Y-37248652D01*
X149244815Y-36753520D01*
X149055736Y-36295912D01*
X148705930Y-35945495D01*
X148248652Y-35755617D01*
X147753520Y-35755185D01*
X147295912Y-35944264D01*
X146945495Y-36294070D01*
X146873797Y-36466739D01*
X146766516Y-36207741D01*
X146513805Y-36125800D01*
X145639605Y-37000000D01*
X145280395Y-37000000D01*
X144406195Y-36125800D01*
X144153484Y-36207741D01*
X143949752Y-36768030D01*
X140127000Y-36768030D01*
X140127000Y-34706480D01*
X144215185Y-34706480D01*
X144404264Y-35164088D01*
X144754070Y-35514505D01*
X144926739Y-35586203D01*
X144667741Y-35693484D01*
X144585800Y-35946195D01*
X145460000Y-36820395D01*
X146334200Y-35946195D01*
X146252259Y-35693484D01*
X145976542Y-35593228D01*
X146164088Y-35515736D01*
X146514505Y-35165930D01*
X146704383Y-34708652D01*
X146704384Y-34706480D01*
X146755185Y-34706480D01*
X146944264Y-35164088D01*
X147294070Y-35514505D01*
X147751348Y-35704383D01*
X148246480Y-35704815D01*
X148704088Y-35515736D01*
X149054505Y-35165930D01*
X149244383Y-34708652D01*
X149244815Y-34213520D01*
X149055736Y-33755912D01*
X148896503Y-33596400D01*
X149287936Y-33596400D01*
X149287936Y-35323600D01*
X149314503Y-35464790D01*
X149397946Y-35594465D01*
X149525266Y-35681459D01*
X149676400Y-35712064D01*
X151403600Y-35712064D01*
X151544790Y-35685497D01*
X151674465Y-35602054D01*
X151761459Y-35474734D01*
X151792064Y-35323600D01*
X151792064Y-33596400D01*
X151765497Y-33455210D01*
X151682054Y-33325535D01*
X151554734Y-33238541D01*
X151403600Y-33207936D01*
X149676400Y-33207936D01*
X149535210Y-33234503D01*
X149405535Y-33317946D01*
X149318541Y-33445266D01*
X149287936Y-33596400D01*
X148896503Y-33596400D01*
X148705930Y-33405495D01*
X148248652Y-33215617D01*
X147753520Y-33215185D01*
X147295912Y-33404264D01*
X146945495Y-33754070D01*
X146755617Y-34211348D01*
X146755185Y-34706480D01*
X146704384Y-34706480D01*
X146704815Y-34213520D01*
X146515736Y-33755912D01*
X146165930Y-33405495D01*
X145708652Y-33215617D01*
X145213520Y-33215185D01*
X144755912Y-33404264D01*
X144405495Y-33754070D01*
X144215617Y-34211348D01*
X144215185Y-34706480D01*
X140127000Y-34706480D01*
X140127000Y-26372487D01*
X141118805Y-26372487D01*
X141404547Y-27064035D01*
X141933182Y-27593594D01*
X142624231Y-27880542D01*
X143372487Y-27881195D01*
X144064035Y-27595453D01*
X144593594Y-27066818D01*
X144880542Y-26375769D01*
X144880544Y-26372487D01*
X151118805Y-26372487D01*
X151404547Y-27064035D01*
X151933182Y-27593594D01*
X152624231Y-27880542D01*
X153372487Y-27881195D01*
X154064035Y-27595453D01*
X154593594Y-27066818D01*
X154880542Y-26375769D01*
X154881195Y-25627513D01*
X154595453Y-24935965D01*
X154066818Y-24406406D01*
X153375769Y-24119458D01*
X152627513Y-24118805D01*
X151935965Y-24404547D01*
X151406406Y-24933182D01*
X151119458Y-25624231D01*
X151118805Y-26372487D01*
X144880544Y-26372487D01*
X144881195Y-25627513D01*
X144595453Y-24935965D01*
X144066818Y-24406406D01*
X143375769Y-24119458D01*
X142627513Y-24118805D01*
X141935965Y-24404547D01*
X141406406Y-24933182D01*
X141119458Y-25624231D01*
X141118805Y-26372487D01*
X140127000Y-26372487D01*
X140127000Y-22431000D01*
X155873000Y-22431000D01*
X155873000Y-104273000D01*
G36*
X163422885Y-105630623D02*
X163422813Y-105713289D01*
X163586431Y-106109275D01*
X163889132Y-106412504D01*
X164284832Y-106576813D01*
X164713289Y-106577187D01*
X165109275Y-106413569D01*
X165412504Y-106110868D01*
X165576813Y-105715168D01*
X165577187Y-105286711D01*
X165413569Y-104890725D01*
X165110868Y-104587496D01*
X164724351Y-104427000D01*
X173873000Y-104427000D01*
X173873000Y-157958702D01*
X166000000Y-168784077D01*
X158127000Y-157958702D01*
X158127000Y-104427000D01*
X162219262Y-104427000D01*
X163422885Y-105630623D01*
X163422885Y-105630623D01*
G37*
X163422885Y-105630623D02*
X163422813Y-105713289D01*
X163586431Y-106109275D01*
X163889132Y-106412504D01*
X164284832Y-106576813D01*
X164713289Y-106577187D01*
X165109275Y-106413569D01*
X165412504Y-106110868D01*
X165576813Y-105715168D01*
X165577187Y-105286711D01*
X165413569Y-104890725D01*
X165110868Y-104587496D01*
X164724351Y-104427000D01*
X173873000Y-104427000D01*
X173873000Y-157958702D01*
X166000000Y-168784077D01*
X158127000Y-157958702D01*
X158127000Y-104427000D01*
X162219262Y-104427000D01*
X163422885Y-105630623D01*
G36*
X173873000Y-104273000D02*
X168127000Y-104273000D01*
X168127000Y-65800000D01*
X168116994Y-65750590D01*
X168088553Y-65708965D01*
X168046159Y-65681685D01*
X168000000Y-65673000D01*
X166400000Y-65673000D01*
X166350590Y-65683006D01*
X166308965Y-65711447D01*
X166281685Y-65753841D01*
X166273000Y-65800000D01*
X166273000Y-104273000D01*
X164480738Y-104273000D01*
X160604000Y-100396262D01*
X160604000Y-67169270D01*
X160662504Y-67110868D01*
X160826813Y-66715168D01*
X160827187Y-66286711D01*
X160663569Y-65890725D01*
X160360868Y-65587496D01*
X159965168Y-65423187D01*
X159536711Y-65422813D01*
X159140725Y-65586431D01*
X158837496Y-65889132D01*
X158673187Y-66284832D01*
X158672813Y-66713289D01*
X158836431Y-67109275D01*
X158896000Y-67168948D01*
X158896000Y-100750000D01*
X158961007Y-101076812D01*
X159128051Y-101326811D01*
X159146131Y-101353869D01*
X162065262Y-104273000D01*
X158127000Y-104273000D01*
X158127000Y-64894763D01*
X160518874Y-64894763D01*
X160629927Y-65163533D01*
X160835381Y-65369346D01*
X161103957Y-65480869D01*
X161394767Y-65481122D01*
X161663537Y-65370069D01*
X161869350Y-65164615D01*
X161965883Y-64932139D01*
X162049012Y-64849010D01*
X162499010Y-64399011D01*
X162499013Y-64399009D01*
X162636664Y-64193000D01*
X162649211Y-64129923D01*
X162685001Y-63949996D01*
X162685000Y-63949991D01*
X162685000Y-59182767D01*
X162978874Y-59182767D01*
X163089927Y-59451537D01*
X163295381Y-59657350D01*
X163563957Y-59768873D01*
X163854767Y-59769126D01*
X164087411Y-59673000D01*
X166250000Y-59673000D01*
X166493004Y-59624664D01*
X166670181Y-59506278D01*
X166917537Y-59404073D01*
X167123350Y-59198619D01*
X167234873Y-58930043D01*
X167235126Y-58639233D01*
X167124073Y-58370463D01*
X166918619Y-58164650D01*
X166650043Y-58053127D01*
X166359233Y-58052874D01*
X166090463Y-58163927D01*
X165884650Y-58369381D01*
X165870690Y-58403000D01*
X165211831Y-58403000D01*
X165286664Y-58291005D01*
X165335000Y-58048000D01*
X165335000Y-53044767D01*
X168068874Y-53044767D01*
X168179927Y-53313537D01*
X168292000Y-53425806D01*
X168292000Y-54774225D01*
X168180650Y-54885381D01*
X168069127Y-55153957D01*
X168068874Y-55444767D01*
X168179927Y-55713537D01*
X168385381Y-55919350D01*
X168653957Y-56030873D01*
X168944767Y-56031126D01*
X169213537Y-55920073D01*
X169419350Y-55714619D01*
X169530873Y-55446043D01*
X169531126Y-55155233D01*
X169420073Y-54886463D01*
X169308000Y-54774194D01*
X169308000Y-53425775D01*
X169419350Y-53314619D01*
X169530873Y-53046043D01*
X169531126Y-52755233D01*
X169420073Y-52486463D01*
X169214619Y-52280650D01*
X168946043Y-52169127D01*
X168655233Y-52168874D01*
X168386463Y-52279927D01*
X168180650Y-52485381D01*
X168069127Y-52753957D01*
X168068874Y-53044767D01*
X165335000Y-53044767D01*
X165335000Y-47074160D01*
X165418420Y-47018420D01*
X165638662Y-46688806D01*
X165716000Y-46300000D01*
X165716000Y-44920840D01*
X167565108Y-43071733D01*
X167565110Y-43071730D01*
X169258421Y-41378420D01*
X169478662Y-41048807D01*
X169491493Y-40984300D01*
X169556000Y-40660000D01*
X169556000Y-37744368D01*
X169594505Y-37705930D01*
X169784383Y-37248652D01*
X169784815Y-36753520D01*
X169595736Y-36295912D01*
X169245930Y-35945495D01*
X168788652Y-35755617D01*
X168293520Y-35755185D01*
X167835912Y-35944264D01*
X167485495Y-36294070D01*
X167295617Y-36751348D01*
X167295185Y-37246480D01*
X167484264Y-37704088D01*
X167524000Y-37743893D01*
X167524000Y-40239159D01*
X166128270Y-41634890D01*
X166128267Y-41634892D01*
X166044847Y-41718312D01*
X165852215Y-41718312D01*
X165814619Y-41680650D01*
X165546043Y-41569127D01*
X165255233Y-41568874D01*
X164986463Y-41679927D01*
X164780650Y-41885381D01*
X164669127Y-42153957D01*
X164668874Y-42444767D01*
X164779927Y-42713537D01*
X164914657Y-42848502D01*
X163981580Y-43781580D01*
X163761338Y-44111193D01*
X163761338Y-44111194D01*
X163684000Y-44500000D01*
X163684000Y-46300000D01*
X163761338Y-46688806D01*
X163981580Y-47018420D01*
X164065000Y-47074160D01*
X164065000Y-57784974D01*
X163527516Y-58322458D01*
X163296463Y-58417927D01*
X163090650Y-58623381D01*
X162979127Y-58891957D01*
X162978874Y-59182767D01*
X162685000Y-59182767D01*
X162685000Y-58126932D01*
X162780873Y-57896045D01*
X162781126Y-57605235D01*
X162670073Y-57336465D01*
X162464619Y-57130652D01*
X162196043Y-57019129D01*
X161905233Y-57018876D01*
X161636463Y-57129929D01*
X161430650Y-57335383D01*
X161319127Y-57603959D01*
X161318874Y-57894769D01*
X161415000Y-58127413D01*
X161415000Y-63686971D01*
X161150986Y-63950984D01*
X161067516Y-64034454D01*
X160836463Y-64129923D01*
X160630650Y-64335377D01*
X160519127Y-64603953D01*
X160518874Y-64894763D01*
X158127000Y-64894763D01*
X158127000Y-38053805D01*
X162585800Y-38053805D01*
X162667741Y-38306516D01*
X163228030Y-38510248D01*
X163823635Y-38484058D01*
X164252259Y-38306516D01*
X164334200Y-38053805D01*
X163460000Y-37179605D01*
X162585800Y-38053805D01*
X158127000Y-38053805D01*
X158127000Y-36768030D01*
X161949752Y-36768030D01*
X161975942Y-37363635D01*
X162153484Y-37792259D01*
X162406195Y-37874200D01*
X163280395Y-37000000D01*
X163639605Y-37000000D01*
X164513805Y-37874200D01*
X164766516Y-37792259D01*
X164866772Y-37516542D01*
X164944264Y-37704088D01*
X165294070Y-38054505D01*
X165751348Y-38244383D01*
X166246480Y-38244815D01*
X166704088Y-38055736D01*
X167054505Y-37705930D01*
X167244383Y-37248652D01*
X167244815Y-36753520D01*
X167055736Y-36295912D01*
X166705930Y-35945495D01*
X166248652Y-35755617D01*
X165753520Y-35755185D01*
X165295912Y-35944264D01*
X164945495Y-36294070D01*
X164873797Y-36466739D01*
X164766516Y-36207741D01*
X164513805Y-36125800D01*
X163639605Y-37000000D01*
X163280395Y-37000000D01*
X162406195Y-36125800D01*
X162153484Y-36207741D01*
X161949752Y-36768030D01*
X158127000Y-36768030D01*
X158127000Y-34706480D01*
X162215185Y-34706480D01*
X162404264Y-35164088D01*
X162754070Y-35514505D01*
X162926739Y-35586203D01*
X162667741Y-35693484D01*
X162585800Y-35946195D01*
X163460000Y-36820395D01*
X164334200Y-35946195D01*
X164252259Y-35693484D01*
X163976542Y-35593228D01*
X164164088Y-35515736D01*
X164514505Y-35165930D01*
X164704383Y-34708652D01*
X164704384Y-34706480D01*
X164755185Y-34706480D01*
X164944264Y-35164088D01*
X165294070Y-35514505D01*
X165751348Y-35704383D01*
X166246480Y-35704815D01*
X166704088Y-35515736D01*
X167054505Y-35165930D01*
X167244383Y-34708652D01*
X167244815Y-34213520D01*
X167055736Y-33755912D01*
X166896503Y-33596400D01*
X167287936Y-33596400D01*
X167287936Y-35323600D01*
X167314503Y-35464790D01*
X167397946Y-35594465D01*
X167525266Y-35681459D01*
X167676400Y-35712064D01*
X169403600Y-35712064D01*
X169544790Y-35685497D01*
X169674465Y-35602054D01*
X169761459Y-35474734D01*
X169792064Y-35323600D01*
X169792064Y-33596400D01*
X169765497Y-33455210D01*
X169682054Y-33325535D01*
X169554734Y-33238541D01*
X169403600Y-33207936D01*
X167676400Y-33207936D01*
X167535210Y-33234503D01*
X167405535Y-33317946D01*
X167318541Y-33445266D01*
X167287936Y-33596400D01*
X166896503Y-33596400D01*
X166705930Y-33405495D01*
X166248652Y-33215617D01*
X165753520Y-33215185D01*
X165295912Y-33404264D01*
X164945495Y-33754070D01*
X164755617Y-34211348D01*
X164755185Y-34706480D01*
X164704384Y-34706480D01*
X164704815Y-34213520D01*
X164515736Y-33755912D01*
X164165930Y-33405495D01*
X163708652Y-33215617D01*
X163213520Y-33215185D01*
X162755912Y-33404264D01*
X162405495Y-33754070D01*
X162215617Y-34211348D01*
X162215185Y-34706480D01*
X158127000Y-34706480D01*
X158127000Y-26372487D01*
X159118805Y-26372487D01*
X159404547Y-27064035D01*
X159933182Y-27593594D01*
X160624231Y-27880542D01*
X161372487Y-27881195D01*
X162064035Y-27595453D01*
X162593594Y-27066818D01*
X162880542Y-26375769D01*
X162880544Y-26372487D01*
X169118805Y-26372487D01*
X169404547Y-27064035D01*
X169933182Y-27593594D01*
X170624231Y-27880542D01*
X171372487Y-27881195D01*
X172064035Y-27595453D01*
X172593594Y-27066818D01*
X172880542Y-26375769D01*
X172881195Y-25627513D01*
X172595453Y-24935965D01*
X172066818Y-24406406D01*
X171375769Y-24119458D01*
X170627513Y-24118805D01*
X169935965Y-24404547D01*
X169406406Y-24933182D01*
X169119458Y-25624231D01*
X169118805Y-26372487D01*
X162880544Y-26372487D01*
X162881195Y-25627513D01*
X162595453Y-24935965D01*
X162066818Y-24406406D01*
X161375769Y-24119458D01*
X160627513Y-24118805D01*
X159935965Y-24404547D01*
X159406406Y-24933182D01*
X159119458Y-25624231D01*
X159118805Y-26372487D01*
X158127000Y-26372487D01*
X158127000Y-22431000D01*
X173873000Y-22431000D01*
X173873000Y-104273000D01*
X173873000Y-104273000D01*
G37*
X173873000Y-104273000D02*
X168127000Y-104273000D01*
X168127000Y-65800000D01*
X168116994Y-65750590D01*
X168088553Y-65708965D01*
X168046159Y-65681685D01*
X168000000Y-65673000D01*
X166400000Y-65673000D01*
X166350590Y-65683006D01*
X166308965Y-65711447D01*
X166281685Y-65753841D01*
X166273000Y-65800000D01*
X166273000Y-104273000D01*
X164480738Y-104273000D01*
X160604000Y-100396262D01*
X160604000Y-67169270D01*
X160662504Y-67110868D01*
X160826813Y-66715168D01*
X160827187Y-66286711D01*
X160663569Y-65890725D01*
X160360868Y-65587496D01*
X159965168Y-65423187D01*
X159536711Y-65422813D01*
X159140725Y-65586431D01*
X158837496Y-65889132D01*
X158673187Y-66284832D01*
X158672813Y-66713289D01*
X158836431Y-67109275D01*
X158896000Y-67168948D01*
X158896000Y-100750000D01*
X158961007Y-101076812D01*
X159128051Y-101326811D01*
X159146131Y-101353869D01*
X162065262Y-104273000D01*
X158127000Y-104273000D01*
X158127000Y-64894763D01*
X160518874Y-64894763D01*
X160629927Y-65163533D01*
X160835381Y-65369346D01*
X161103957Y-65480869D01*
X161394767Y-65481122D01*
X161663537Y-65370069D01*
X161869350Y-65164615D01*
X161965883Y-64932139D01*
X162049012Y-64849010D01*
X162499010Y-64399011D01*
X162499013Y-64399009D01*
X162636664Y-64193000D01*
X162649211Y-64129923D01*
X162685001Y-63949996D01*
X162685000Y-63949991D01*
X162685000Y-59182767D01*
X162978874Y-59182767D01*
X163089927Y-59451537D01*
X163295381Y-59657350D01*
X163563957Y-59768873D01*
X163854767Y-59769126D01*
X164087411Y-59673000D01*
X166250000Y-59673000D01*
X166493004Y-59624664D01*
X166670181Y-59506278D01*
X166917537Y-59404073D01*
X167123350Y-59198619D01*
X167234873Y-58930043D01*
X167235126Y-58639233D01*
X167124073Y-58370463D01*
X166918619Y-58164650D01*
X166650043Y-58053127D01*
X166359233Y-58052874D01*
X166090463Y-58163927D01*
X165884650Y-58369381D01*
X165870690Y-58403000D01*
X165211831Y-58403000D01*
X165286664Y-58291005D01*
X165335000Y-58048000D01*
X165335000Y-53044767D01*
X168068874Y-53044767D01*
X168179927Y-53313537D01*
X168292000Y-53425806D01*
X168292000Y-54774225D01*
X168180650Y-54885381D01*
X168069127Y-55153957D01*
X168068874Y-55444767D01*
X168179927Y-55713537D01*
X168385381Y-55919350D01*
X168653957Y-56030873D01*
X168944767Y-56031126D01*
X169213537Y-55920073D01*
X169419350Y-55714619D01*
X169530873Y-55446043D01*
X169531126Y-55155233D01*
X169420073Y-54886463D01*
X169308000Y-54774194D01*
X169308000Y-53425775D01*
X169419350Y-53314619D01*
X169530873Y-53046043D01*
X169531126Y-52755233D01*
X169420073Y-52486463D01*
X169214619Y-52280650D01*
X168946043Y-52169127D01*
X168655233Y-52168874D01*
X168386463Y-52279927D01*
X168180650Y-52485381D01*
X168069127Y-52753957D01*
X168068874Y-53044767D01*
X165335000Y-53044767D01*
X165335000Y-47074160D01*
X165418420Y-47018420D01*
X165638662Y-46688806D01*
X165716000Y-46300000D01*
X165716000Y-44920840D01*
X167565108Y-43071733D01*
X167565110Y-43071730D01*
X169258421Y-41378420D01*
X169478662Y-41048807D01*
X169491493Y-40984300D01*
X169556000Y-40660000D01*
X169556000Y-37744368D01*
X169594505Y-37705930D01*
X169784383Y-37248652D01*
X169784815Y-36753520D01*
X169595736Y-36295912D01*
X169245930Y-35945495D01*
X168788652Y-35755617D01*
X168293520Y-35755185D01*
X167835912Y-35944264D01*
X167485495Y-36294070D01*
X167295617Y-36751348D01*
X167295185Y-37246480D01*
X167484264Y-37704088D01*
X167524000Y-37743893D01*
X167524000Y-40239159D01*
X166128270Y-41634890D01*
X166128267Y-41634892D01*
X166044847Y-41718312D01*
X165852215Y-41718312D01*
X165814619Y-41680650D01*
X165546043Y-41569127D01*
X165255233Y-41568874D01*
X164986463Y-41679927D01*
X164780650Y-41885381D01*
X164669127Y-42153957D01*
X164668874Y-42444767D01*
X164779927Y-42713537D01*
X164914657Y-42848502D01*
X163981580Y-43781580D01*
X163761338Y-44111193D01*
X163761338Y-44111194D01*
X163684000Y-44500000D01*
X163684000Y-46300000D01*
X163761338Y-46688806D01*
X163981580Y-47018420D01*
X164065000Y-47074160D01*
X164065000Y-57784974D01*
X163527516Y-58322458D01*
X163296463Y-58417927D01*
X163090650Y-58623381D01*
X162979127Y-58891957D01*
X162978874Y-59182767D01*
X162685000Y-59182767D01*
X162685000Y-58126932D01*
X162780873Y-57896045D01*
X162781126Y-57605235D01*
X162670073Y-57336465D01*
X162464619Y-57130652D01*
X162196043Y-57019129D01*
X161905233Y-57018876D01*
X161636463Y-57129929D01*
X161430650Y-57335383D01*
X161319127Y-57603959D01*
X161318874Y-57894769D01*
X161415000Y-58127413D01*
X161415000Y-63686971D01*
X161150986Y-63950984D01*
X161067516Y-64034454D01*
X160836463Y-64129923D01*
X160630650Y-64335377D01*
X160519127Y-64603953D01*
X160518874Y-64894763D01*
X158127000Y-64894763D01*
X158127000Y-38053805D01*
X162585800Y-38053805D01*
X162667741Y-38306516D01*
X163228030Y-38510248D01*
X163823635Y-38484058D01*
X164252259Y-38306516D01*
X164334200Y-38053805D01*
X163460000Y-37179605D01*
X162585800Y-38053805D01*
X158127000Y-38053805D01*
X158127000Y-36768030D01*
X161949752Y-36768030D01*
X161975942Y-37363635D01*
X162153484Y-37792259D01*
X162406195Y-37874200D01*
X163280395Y-37000000D01*
X163639605Y-37000000D01*
X164513805Y-37874200D01*
X164766516Y-37792259D01*
X164866772Y-37516542D01*
X164944264Y-37704088D01*
X165294070Y-38054505D01*
X165751348Y-38244383D01*
X166246480Y-38244815D01*
X166704088Y-38055736D01*
X167054505Y-37705930D01*
X167244383Y-37248652D01*
X167244815Y-36753520D01*
X167055736Y-36295912D01*
X166705930Y-35945495D01*
X166248652Y-35755617D01*
X165753520Y-35755185D01*
X165295912Y-35944264D01*
X164945495Y-36294070D01*
X164873797Y-36466739D01*
X164766516Y-36207741D01*
X164513805Y-36125800D01*
X163639605Y-37000000D01*
X163280395Y-37000000D01*
X162406195Y-36125800D01*
X162153484Y-36207741D01*
X161949752Y-36768030D01*
X158127000Y-36768030D01*
X158127000Y-34706480D01*
X162215185Y-34706480D01*
X162404264Y-35164088D01*
X162754070Y-35514505D01*
X162926739Y-35586203D01*
X162667741Y-35693484D01*
X162585800Y-35946195D01*
X163460000Y-36820395D01*
X164334200Y-35946195D01*
X164252259Y-35693484D01*
X163976542Y-35593228D01*
X164164088Y-35515736D01*
X164514505Y-35165930D01*
X164704383Y-34708652D01*
X164704384Y-34706480D01*
X164755185Y-34706480D01*
X164944264Y-35164088D01*
X165294070Y-35514505D01*
X165751348Y-35704383D01*
X166246480Y-35704815D01*
X166704088Y-35515736D01*
X167054505Y-35165930D01*
X167244383Y-34708652D01*
X167244815Y-34213520D01*
X167055736Y-33755912D01*
X166896503Y-33596400D01*
X167287936Y-33596400D01*
X167287936Y-35323600D01*
X167314503Y-35464790D01*
X167397946Y-35594465D01*
X167525266Y-35681459D01*
X167676400Y-35712064D01*
X169403600Y-35712064D01*
X169544790Y-35685497D01*
X169674465Y-35602054D01*
X169761459Y-35474734D01*
X169792064Y-35323600D01*
X169792064Y-33596400D01*
X169765497Y-33455210D01*
X169682054Y-33325535D01*
X169554734Y-33238541D01*
X169403600Y-33207936D01*
X167676400Y-33207936D01*
X167535210Y-33234503D01*
X167405535Y-33317946D01*
X167318541Y-33445266D01*
X167287936Y-33596400D01*
X166896503Y-33596400D01*
X166705930Y-33405495D01*
X166248652Y-33215617D01*
X165753520Y-33215185D01*
X165295912Y-33404264D01*
X164945495Y-33754070D01*
X164755617Y-34211348D01*
X164755185Y-34706480D01*
X164704384Y-34706480D01*
X164704815Y-34213520D01*
X164515736Y-33755912D01*
X164165930Y-33405495D01*
X163708652Y-33215617D01*
X163213520Y-33215185D01*
X162755912Y-33404264D01*
X162405495Y-33754070D01*
X162215617Y-34211348D01*
X162215185Y-34706480D01*
X158127000Y-34706480D01*
X158127000Y-26372487D01*
X159118805Y-26372487D01*
X159404547Y-27064035D01*
X159933182Y-27593594D01*
X160624231Y-27880542D01*
X161372487Y-27881195D01*
X162064035Y-27595453D01*
X162593594Y-27066818D01*
X162880542Y-26375769D01*
X162880544Y-26372487D01*
X169118805Y-26372487D01*
X169404547Y-27064035D01*
X169933182Y-27593594D01*
X170624231Y-27880542D01*
X171372487Y-27881195D01*
X172064035Y-27595453D01*
X172593594Y-27066818D01*
X172880542Y-26375769D01*
X172881195Y-25627513D01*
X172595453Y-24935965D01*
X172066818Y-24406406D01*
X171375769Y-24119458D01*
X170627513Y-24118805D01*
X169935965Y-24404547D01*
X169406406Y-24933182D01*
X169119458Y-25624231D01*
X169118805Y-26372487D01*
X162880544Y-26372487D01*
X162881195Y-25627513D01*
X162595453Y-24935965D01*
X162066818Y-24406406D01*
X161375769Y-24119458D01*
X160627513Y-24118805D01*
X159935965Y-24404547D01*
X159406406Y-24933182D01*
X159119458Y-25624231D01*
X159118805Y-26372487D01*
X158127000Y-26372487D01*
X158127000Y-22431000D01*
X173873000Y-22431000D01*
X173873000Y-104273000D01*
M02*
