G04 #@! TF.GenerationSoftware,KiCad,Pcbnew,no-vcs-found-7440~57~ubuntu14.04.1*
G04 #@! TF.CreationDate,2017-01-10T11:37:30+02:00*
G04 #@! TF.ProjectId,i2c-moist-sensor-pannel,6932632D6D6F6973742D73656E736F72,rev?*
G04 #@! TF.FileFunction,Soldermask,Bot*
G04 #@! TF.FilePolarity,Negative*
%FSLAX46Y46*%
G04 Gerber Fmt 4.6, Leading zero omitted, Abs format (unit mm)*
G04 Created by KiCad (PCBNEW no-vcs-found-7440~57~ubuntu14.04.1) date Tue Jan 10 11:37:30 2017*
%MOMM*%
%LPD*%
G01*
G04 APERTURE LIST*
%ADD10C,0.100000*%
%ADD11O,1.524000X2.199640*%
%ADD12R,1.524000X2.199640*%
%ADD13C,1.727200*%
%ADD14R,1.727200X1.727200*%
G04 APERTURE END LIST*
D10*
D11*
X97810000Y-31500000D03*
X95270000Y-31500000D03*
X92730000Y-31500000D03*
D12*
X90190000Y-31500000D03*
X108190000Y-31500000D03*
D11*
X110730000Y-31500000D03*
X113270000Y-31500000D03*
X115810000Y-31500000D03*
X133810000Y-31500000D03*
X131270000Y-31500000D03*
X128730000Y-31500000D03*
D12*
X126190000Y-31500000D03*
X144190000Y-31500000D03*
D11*
X146730000Y-31500000D03*
X149270000Y-31500000D03*
X151810000Y-31500000D03*
X169810000Y-31500000D03*
X167270000Y-31500000D03*
X164730000Y-31500000D03*
D12*
X162190000Y-31500000D03*
D13*
X91460000Y-37000000D03*
X91460000Y-34460000D03*
X94000000Y-37000000D03*
X94000000Y-34460000D03*
X96540000Y-37000000D03*
D14*
X96540000Y-34460000D03*
D13*
X109460000Y-37000000D03*
X109460000Y-34460000D03*
X112000000Y-37000000D03*
X112000000Y-34460000D03*
X114540000Y-37000000D03*
D14*
X114540000Y-34460000D03*
D13*
X127460000Y-37000000D03*
X127460000Y-34460000D03*
X130000000Y-37000000D03*
X130000000Y-34460000D03*
X132540000Y-37000000D03*
D14*
X132540000Y-34460000D03*
D13*
X145460000Y-37000000D03*
X145460000Y-34460000D03*
X148000000Y-37000000D03*
X148000000Y-34460000D03*
X150540000Y-37000000D03*
D14*
X150540000Y-34460000D03*
D13*
X163460000Y-37000000D03*
X163460000Y-34460000D03*
X166000000Y-37000000D03*
X166000000Y-34460000D03*
X168540000Y-37000000D03*
D14*
X168540000Y-34460000D03*
M02*
