G04 #@! TF.GenerationSoftware,KiCad,Pcbnew,no-vcs-found-34abef3~59~ubuntu16.04.1*
G04 #@! TF.CreationDate,2017-08-04T13:41:36+03:00*
G04 #@! TF.ProjectId,i2c-moist-sensor-pannel,6932632D6D6F6973742D73656E736F72,rev?*
G04 #@! TF.SameCoordinates,Original*
G04 #@! TF.FileFunction,Copper,L2,Bot,Signal*
G04 #@! TF.FilePolarity,Positive*
%FSLAX46Y46*%
G04 Gerber Fmt 4.6, Leading zero omitted, Abs format (unit mm)*
G04 Created by KiCad (PCBNEW no-vcs-found-34abef3~59~ubuntu16.04.1) date Fri Aug  4 13:41:36 2017*
%MOMM*%
%LPD*%
G01*
G04 APERTURE LIST*
%ADD10C,1.727200*%
%ADD11R,1.727200X1.727200*%
%ADD12O,1.524000X2.199640*%
%ADD13R,1.524000X2.199640*%
%ADD14C,0.700000*%
%ADD15C,0.600000*%
%ADD16C,0.254000*%
%ADD17C,0.508000*%
%ADD18C,1.270000*%
%ADD19C,0.400000*%
%ADD20C,0.700000*%
%ADD21C,0.500000*%
G04 APERTURE END LIST*
D10*
X145460000Y-38500000D03*
X145460000Y-35960000D03*
X148000000Y-38500000D03*
X148000000Y-35960000D03*
X150540000Y-38500000D03*
D11*
X150540000Y-35960000D03*
D10*
X127460000Y-38500000D03*
X127460000Y-35960000D03*
X130000000Y-38500000D03*
X130000000Y-35960000D03*
X132540000Y-38500000D03*
D11*
X132540000Y-35960000D03*
D10*
X91460000Y-38500000D03*
X91460000Y-35960000D03*
X94000000Y-38500000D03*
X94000000Y-35960000D03*
X96540000Y-38500000D03*
D11*
X96540000Y-35960000D03*
D12*
X97810000Y-31000000D03*
X95270000Y-31000000D03*
X92730000Y-31000000D03*
D13*
X90190000Y-31000000D03*
X108190000Y-31000000D03*
D12*
X110730000Y-31000000D03*
X113270000Y-31000000D03*
X115810000Y-31000000D03*
X133810000Y-31000000D03*
X131270000Y-31000000D03*
X128730000Y-31000000D03*
D13*
X126190000Y-31000000D03*
X144190000Y-31000000D03*
D12*
X146730000Y-31000000D03*
X149270000Y-31000000D03*
X151810000Y-31000000D03*
X169810000Y-31000000D03*
X167270000Y-31000000D03*
X164730000Y-31000000D03*
D13*
X162190000Y-31000000D03*
D10*
X109460000Y-38500000D03*
X109460000Y-35960000D03*
X112000000Y-38500000D03*
X112000000Y-35960000D03*
X114540000Y-38500000D03*
D11*
X114540000Y-35960000D03*
D10*
X163460000Y-38500000D03*
X163460000Y-35960000D03*
X166000000Y-38500000D03*
X166000000Y-35960000D03*
X168540000Y-38500000D03*
D11*
X168540000Y-35960000D03*
D14*
X162200000Y-32900000D03*
X160600000Y-31000000D03*
X144200000Y-32900000D03*
X142700000Y-31000000D03*
X126200000Y-32900000D03*
X124600000Y-31000000D03*
X108200000Y-32900000D03*
X106600000Y-31000000D03*
X90200000Y-33000000D03*
X88600000Y-31000000D03*
X116700000Y-60500000D03*
X134650000Y-60500000D03*
X152800000Y-60550000D03*
X98700000Y-60550000D03*
X161050010Y-66754951D03*
X158449990Y-67749775D03*
X161050010Y-67746436D03*
X143050010Y-67743775D03*
X140449990Y-67747332D03*
X143050010Y-66754951D03*
X122449990Y-67748690D03*
X125050010Y-67745110D03*
X125050010Y-66754951D03*
X104449990Y-67748690D03*
X107050010Y-66754951D03*
X107050010Y-67745110D03*
X86449990Y-67747332D03*
X89050010Y-67743775D03*
X89050010Y-66754951D03*
X86449997Y-66500000D03*
X158449997Y-66500000D03*
X146250000Y-103500000D03*
X142900000Y-42800000D03*
X124900000Y-42900000D03*
X106900000Y-42900000D03*
X91345119Y-102595119D03*
X89758622Y-101008622D03*
X88702737Y-103702737D03*
X87228329Y-102228329D03*
X86500000Y-100250000D03*
X86500000Y-97750000D03*
X89000000Y-97750000D03*
X86500000Y-95250000D03*
X89000000Y-95249994D03*
X86500000Y-92750000D03*
X89000000Y-92750006D03*
X86500000Y-87750000D03*
X89000000Y-87749992D03*
X89000000Y-90250000D03*
X86500000Y-90250010D03*
X86500000Y-85250006D03*
X89000000Y-85250006D03*
X86500000Y-82750000D03*
X89000000Y-82750000D03*
X86500000Y-80250000D03*
X89000000Y-80250006D03*
X86500000Y-77750000D03*
X89000000Y-77750000D03*
X86500000Y-75250004D03*
X89000000Y-75250000D03*
X89000000Y-72750000D03*
X86500000Y-72750000D03*
X89000000Y-70257938D03*
X86500000Y-70273302D03*
X96500000Y-87750000D03*
X94000000Y-87750000D03*
X94000004Y-85250000D03*
X96499996Y-85250000D03*
X94000000Y-82750000D03*
X96500000Y-82749994D03*
X96500000Y-80250000D03*
X94000000Y-80250000D03*
X96500000Y-77750000D03*
X94000000Y-77750000D03*
X96500006Y-70250000D03*
X94000000Y-70250006D03*
X94000000Y-72750000D03*
X96500000Y-72750000D03*
X96500000Y-75250000D03*
X94000000Y-75250006D03*
X96500000Y-90250000D03*
X94000000Y-90250000D03*
X94000000Y-92749984D03*
X96500000Y-92750000D03*
X94000000Y-95248063D03*
X96500000Y-95248063D03*
X94000000Y-97746139D03*
X96500000Y-97763982D03*
X94000000Y-100246781D03*
X96500000Y-100262214D03*
X96500000Y-102746856D03*
X94000000Y-102505330D03*
X89500000Y-104500000D03*
X88000000Y-103000000D03*
X92250000Y-103500000D03*
X90500000Y-101750000D03*
X89000000Y-100250000D03*
X86500000Y-101500000D03*
X94000000Y-103549990D03*
X96500000Y-104000000D03*
X91000000Y-57000000D03*
X86500000Y-69000000D03*
X86500000Y-71500000D03*
X86500000Y-74000000D03*
X86500000Y-76500000D03*
X86500000Y-79000000D03*
X86500000Y-81500000D03*
X86500000Y-84000000D03*
X86500000Y-86500000D03*
X86500000Y-89000000D03*
X86500000Y-91500000D03*
X86500000Y-94000000D03*
X86500000Y-96500000D03*
X86500000Y-99000000D03*
X89000000Y-99000000D03*
X89000000Y-96500000D03*
X89000000Y-94000000D03*
X89000000Y-91500000D03*
X89000000Y-89000000D03*
X89000000Y-86500000D03*
X89000000Y-84000000D03*
X89000000Y-81500000D03*
X89000000Y-79000000D03*
X89000000Y-76500000D03*
X89000000Y-74000000D03*
X89000000Y-71500000D03*
X89000000Y-69000000D03*
X96500000Y-66500000D03*
X96500000Y-69000000D03*
X96500000Y-71500000D03*
X96500000Y-74000000D03*
X96500000Y-76500000D03*
X96500000Y-79000000D03*
X96500000Y-81500000D03*
X96500000Y-84000000D03*
X96500000Y-86500000D03*
X96500000Y-89000000D03*
X96500000Y-91500000D03*
X96500000Y-94000000D03*
X96500000Y-96500000D03*
X96500000Y-99000000D03*
X96500000Y-101500000D03*
X94000000Y-101500000D03*
X94000000Y-99000000D03*
X94000000Y-96500000D03*
X94000000Y-94000000D03*
X94000000Y-91500000D03*
X94000000Y-89000000D03*
X94000000Y-86500000D03*
X94000000Y-84000000D03*
X94000000Y-81500000D03*
X94000000Y-79000000D03*
X94000000Y-76500000D03*
X94000000Y-74000000D03*
X94000000Y-71500000D03*
X94000000Y-69000000D03*
X89053888Y-63623844D03*
X98500000Y-43000000D03*
X97600000Y-57800000D03*
X95243021Y-55843021D03*
X94800000Y-52800000D03*
X91700000Y-53500000D03*
X90900000Y-54300000D03*
X90100000Y-55100000D03*
X91000000Y-63200000D03*
X94300000Y-48000000D03*
X94200000Y-46400000D03*
X99800000Y-49200000D03*
X99500000Y-48300000D03*
X98500000Y-48200000D03*
X89150000Y-62350000D03*
X96300000Y-64150000D03*
X89450000Y-42900000D03*
X89150000Y-61400000D03*
X96282000Y-62340000D03*
X109345119Y-102595119D03*
X107758622Y-101008622D03*
X106702737Y-103702737D03*
X105228329Y-102228329D03*
X104500000Y-100250000D03*
X104500000Y-97750000D03*
X107000000Y-97750000D03*
X104500000Y-95250000D03*
X107000000Y-95249994D03*
X104500000Y-92750000D03*
X107000000Y-92750006D03*
X104500000Y-87750000D03*
X107000000Y-87749992D03*
X107000000Y-90250000D03*
X104500000Y-90250010D03*
X104500000Y-85250006D03*
X107000000Y-85250006D03*
X104500000Y-82750000D03*
X107000000Y-82750000D03*
X104500000Y-80250000D03*
X107000000Y-80250006D03*
X104500000Y-77750000D03*
X107000000Y-77750000D03*
X104500000Y-75250004D03*
X107000000Y-75250000D03*
X107000000Y-72750000D03*
X104500000Y-72750000D03*
X107000000Y-70257938D03*
X104500000Y-70273302D03*
X114500000Y-87750000D03*
X112000000Y-87750000D03*
X112000004Y-85250000D03*
X114499996Y-85250000D03*
X112000000Y-82750000D03*
X114500000Y-82749994D03*
X114500000Y-80250000D03*
X112000000Y-80250000D03*
X114500000Y-77750000D03*
X112000000Y-77750000D03*
X114500006Y-70250000D03*
X112000000Y-70250006D03*
X112000000Y-72750000D03*
X114500000Y-72750000D03*
X114500000Y-75250000D03*
X112000000Y-75250006D03*
X114500000Y-90250000D03*
X112000000Y-90250000D03*
X112000000Y-92749984D03*
X114500000Y-92750000D03*
X112000000Y-95248063D03*
X114500000Y-95248063D03*
X112000000Y-97746139D03*
X114500000Y-97763982D03*
X112000000Y-100246781D03*
X114500000Y-100262214D03*
X114500000Y-102746856D03*
X112000000Y-102505330D03*
X107500000Y-104500000D03*
X106000000Y-103000000D03*
X110250000Y-103500000D03*
X108500000Y-101750000D03*
X107000000Y-100250000D03*
X104500000Y-101500000D03*
X112000000Y-103549990D03*
X114500000Y-104000000D03*
X109000000Y-57000000D03*
X104449997Y-66500000D03*
X104500000Y-69000000D03*
X104500000Y-71500000D03*
X104500000Y-74000000D03*
X104500000Y-76500000D03*
X104500000Y-79000000D03*
X104500000Y-81500000D03*
X104500000Y-84000000D03*
X104500000Y-86500000D03*
X104500000Y-89000000D03*
X104500000Y-91500000D03*
X104500000Y-94000000D03*
X104500000Y-96500000D03*
X104500000Y-99000000D03*
X107000000Y-99000000D03*
X107000000Y-96500000D03*
X107000000Y-94000000D03*
X107000000Y-91500000D03*
X107000000Y-89000000D03*
X107000000Y-86500000D03*
X107000000Y-84000000D03*
X107000000Y-81500000D03*
X107000000Y-79000000D03*
X107000000Y-76500000D03*
X107000000Y-74000000D03*
X107000000Y-71500000D03*
X107000000Y-69000000D03*
X114500000Y-66500000D03*
X114500000Y-69000000D03*
X114500000Y-71500000D03*
X114500000Y-74000000D03*
X114500000Y-76500000D03*
X114500000Y-79000000D03*
X114500000Y-81500000D03*
X114500000Y-84000000D03*
X114500000Y-86500000D03*
X114500000Y-89000000D03*
X114500000Y-91500000D03*
X114500000Y-94000000D03*
X114500000Y-96500000D03*
X114500000Y-99000000D03*
X114500000Y-101500000D03*
X112000000Y-101500000D03*
X112000000Y-99000000D03*
X112000000Y-96500000D03*
X112000000Y-94000000D03*
X112000000Y-91500000D03*
X112000000Y-89000000D03*
X112000000Y-86500000D03*
X112000000Y-84000000D03*
X112000000Y-81500000D03*
X112000000Y-79000000D03*
X112000000Y-76500000D03*
X112000000Y-74000000D03*
X112000000Y-71500000D03*
X112000000Y-69000000D03*
X107053888Y-63623844D03*
X116500000Y-43000000D03*
X115600000Y-57800000D03*
X113243021Y-55843021D03*
X112800000Y-52800000D03*
X109700000Y-53500000D03*
X108900000Y-54300000D03*
X108100000Y-55100000D03*
X109000000Y-63200000D03*
X112300000Y-48000000D03*
X112200000Y-46400000D03*
X117800000Y-49200000D03*
X117500000Y-48300000D03*
X116500000Y-48200000D03*
X107150000Y-62350000D03*
X114300000Y-64150000D03*
X107150000Y-61400000D03*
X114282000Y-62340000D03*
X127345119Y-102595119D03*
X125758622Y-101008622D03*
X124702737Y-103702737D03*
X123228329Y-102228329D03*
X122500000Y-100250000D03*
X122500000Y-97750000D03*
X125000000Y-97750000D03*
X122500000Y-95250000D03*
X125000000Y-95249994D03*
X122500000Y-92750000D03*
X125000000Y-92750006D03*
X122500000Y-87750000D03*
X125000000Y-87749992D03*
X125000000Y-90250000D03*
X122500000Y-90250010D03*
X122500000Y-85250006D03*
X125000000Y-85250006D03*
X122500000Y-82750000D03*
X125000000Y-82750000D03*
X122500000Y-80250000D03*
X125000000Y-80250006D03*
X122500000Y-77750000D03*
X125000000Y-77750000D03*
X122500000Y-75250004D03*
X125000000Y-75250000D03*
X125000000Y-72750000D03*
X122500000Y-72750000D03*
X125000000Y-70257938D03*
X122500000Y-70273302D03*
X132500000Y-87750000D03*
X130000000Y-87750000D03*
X130000004Y-85250000D03*
X132499996Y-85250000D03*
X130000000Y-82750000D03*
X132500000Y-82749994D03*
X132500000Y-80250000D03*
X130000000Y-80250000D03*
X132500000Y-77750000D03*
X130000000Y-77750000D03*
X132500006Y-70250000D03*
X130000000Y-70250006D03*
X130000000Y-72750000D03*
X132500000Y-72750000D03*
X132500000Y-75250000D03*
X130000000Y-75250006D03*
X132500000Y-90250000D03*
X130000000Y-90250000D03*
X130000000Y-92749984D03*
X132500000Y-92750000D03*
X130000000Y-95248063D03*
X132500000Y-95248063D03*
X130000000Y-97746139D03*
X132500000Y-97763982D03*
X130000000Y-100246781D03*
X132500000Y-100262214D03*
X132500000Y-102746856D03*
X130000000Y-102505330D03*
X125500000Y-104500000D03*
X124000000Y-103000000D03*
X128250000Y-103500000D03*
X126500000Y-101750000D03*
X125000000Y-100250000D03*
X122500000Y-101500000D03*
X130000000Y-103549990D03*
X132500000Y-104000000D03*
X127000000Y-57000000D03*
X122449997Y-66500000D03*
X122500000Y-69000000D03*
X122500000Y-71500000D03*
X122500000Y-74000000D03*
X122500000Y-76500000D03*
X122500000Y-79000000D03*
X122500000Y-81500000D03*
X122500000Y-84000000D03*
X122500000Y-86500000D03*
X122500000Y-89000000D03*
X122500000Y-91500000D03*
X122500000Y-94000000D03*
X122500000Y-96500000D03*
X122500000Y-99000000D03*
X125000000Y-99000000D03*
X125000000Y-96500000D03*
X125000000Y-94000000D03*
X125000000Y-91500000D03*
X125000000Y-89000000D03*
X125000000Y-86500000D03*
X125000000Y-84000000D03*
X125000000Y-81500000D03*
X125000000Y-79000000D03*
X125000000Y-76500000D03*
X125000000Y-74000000D03*
X125000000Y-71500000D03*
X125000000Y-69000000D03*
X132500000Y-66500000D03*
X132500000Y-69000000D03*
X132500000Y-71500000D03*
X132500000Y-74000000D03*
X132500000Y-76500000D03*
X132500000Y-79000000D03*
X132500000Y-81500000D03*
X132500000Y-84000000D03*
X132500000Y-86500000D03*
X132500000Y-89000000D03*
X132500000Y-91500000D03*
X132500000Y-94000000D03*
X132500000Y-96500000D03*
X132500000Y-99000000D03*
X132500000Y-101500000D03*
X130000000Y-101500000D03*
X130000000Y-99000000D03*
X130000000Y-96500000D03*
X130000000Y-94000000D03*
X130000000Y-91500000D03*
X130000000Y-89000000D03*
X130000000Y-86500000D03*
X130000000Y-84000000D03*
X130000000Y-81500000D03*
X130000000Y-79000000D03*
X130000000Y-76500000D03*
X130000000Y-74000000D03*
X130000000Y-71500000D03*
X130000000Y-69000000D03*
X125053888Y-63623844D03*
X134500000Y-43000000D03*
X133600000Y-57800000D03*
X131243021Y-55843021D03*
X130800000Y-52800000D03*
X127700000Y-53500000D03*
X126900000Y-54300000D03*
X126100000Y-55100000D03*
X127000000Y-63200000D03*
X130300000Y-48000000D03*
X130200000Y-46400000D03*
X135800000Y-49200000D03*
X135500000Y-48300000D03*
X134500000Y-48200000D03*
X125150000Y-62350000D03*
X132300000Y-64150000D03*
X125150000Y-61400000D03*
X132282000Y-62340000D03*
X145345119Y-102595119D03*
X143758622Y-101008622D03*
X142702737Y-103702737D03*
X141228329Y-102228329D03*
X140500000Y-100250000D03*
X140500000Y-97750000D03*
X143000000Y-97750000D03*
X140500000Y-95250000D03*
X143000000Y-95249994D03*
X140500000Y-92750000D03*
X143000000Y-92750006D03*
X140500000Y-87750000D03*
X143000000Y-87749992D03*
X143000000Y-90250000D03*
X140500000Y-90250010D03*
X140500000Y-85250006D03*
X143000000Y-85250006D03*
X140500000Y-82750000D03*
X143000000Y-82750000D03*
X140500000Y-80250000D03*
X143000000Y-80250006D03*
X140500000Y-77750000D03*
X143000000Y-77750000D03*
X140500000Y-75250004D03*
X143000000Y-75250000D03*
X143000000Y-72750000D03*
X140500000Y-72750000D03*
X143000000Y-70257938D03*
X140500000Y-70273302D03*
X150500000Y-87750000D03*
X148000000Y-87750000D03*
X148000004Y-85250000D03*
X150499996Y-85250000D03*
X148000000Y-82750000D03*
X150500000Y-82749994D03*
X150500000Y-80250000D03*
X148000000Y-80250000D03*
X150500000Y-77750000D03*
X148000000Y-77750000D03*
X150500006Y-70250000D03*
X148000000Y-70250006D03*
X148000000Y-72750000D03*
X150500000Y-72750000D03*
X150500000Y-75250000D03*
X148000000Y-75250006D03*
X150500000Y-90250000D03*
X148000000Y-90250000D03*
X148000000Y-92749984D03*
X150500000Y-92750000D03*
X148000000Y-95248063D03*
X150500000Y-95248063D03*
X148000000Y-97746139D03*
X150500000Y-97763982D03*
X148000000Y-100246781D03*
X150500000Y-100262214D03*
X150500000Y-102746856D03*
X148000000Y-102505330D03*
X143500000Y-104500000D03*
X142000000Y-103000000D03*
X144500000Y-101750000D03*
X143000000Y-100250000D03*
X140500000Y-101500000D03*
X148000000Y-103549990D03*
X150500000Y-104000000D03*
X145000000Y-57000000D03*
X140449997Y-66500000D03*
X140500000Y-69000000D03*
X140500000Y-71500000D03*
X140500000Y-74000000D03*
X140500000Y-76500000D03*
X140500000Y-79000000D03*
X140500000Y-81500000D03*
X140500000Y-84000000D03*
X140500000Y-86500000D03*
X140500000Y-89000000D03*
X140500000Y-91500000D03*
X140500000Y-94000000D03*
X140500000Y-96500000D03*
X140500000Y-99000000D03*
X143000000Y-99000000D03*
X143000000Y-96500000D03*
X143000000Y-94000000D03*
X143000000Y-91500000D03*
X143000000Y-89000000D03*
X143000000Y-86500000D03*
X143000000Y-84000000D03*
X143000000Y-81500000D03*
X143000000Y-79000000D03*
X143000000Y-76500000D03*
X143000000Y-74000000D03*
X143000000Y-71500000D03*
X143000000Y-69000000D03*
X150500000Y-66500000D03*
X150500000Y-69000000D03*
X150500000Y-71500000D03*
X150500000Y-74000000D03*
X150500000Y-76500000D03*
X150500000Y-79000000D03*
X150500000Y-81500000D03*
X150500000Y-84000000D03*
X150500000Y-86500000D03*
X150500000Y-89000000D03*
X150500000Y-91500000D03*
X150500000Y-94000000D03*
X150500000Y-96500000D03*
X150500000Y-99000000D03*
X150500000Y-101500000D03*
X148000000Y-101500000D03*
X148000000Y-99000000D03*
X148000000Y-96500000D03*
X148000000Y-94000000D03*
X148000000Y-91500000D03*
X148000000Y-89000000D03*
X148000000Y-86500000D03*
X148000000Y-84000000D03*
X148000000Y-81500000D03*
X148000000Y-79000000D03*
X148000000Y-76500000D03*
X148000000Y-74000000D03*
X148000000Y-71500000D03*
X148000000Y-69000000D03*
X143053888Y-63623844D03*
X152500000Y-43000000D03*
X151600000Y-57800000D03*
X149243021Y-55843021D03*
X148800000Y-52800000D03*
X145700000Y-53500000D03*
X144900000Y-54300000D03*
X144100000Y-55100000D03*
X145000000Y-63200000D03*
X148300000Y-48000000D03*
X148200000Y-46400000D03*
X153800000Y-49200000D03*
X153500000Y-48300000D03*
X152500000Y-48200000D03*
X143150000Y-62350000D03*
X150300000Y-64150000D03*
X143150000Y-61400000D03*
X150282000Y-62340000D03*
X163345119Y-102595119D03*
X161758622Y-101008622D03*
X160702737Y-103702737D03*
X159228329Y-102228329D03*
X158500000Y-100250000D03*
X158500000Y-97750000D03*
X161000000Y-97750000D03*
X158500000Y-95250000D03*
X161000000Y-95249994D03*
X158500000Y-92750000D03*
X161000000Y-92750006D03*
X158500000Y-87750000D03*
X161000000Y-87749992D03*
X161000000Y-90250000D03*
X158500000Y-90250010D03*
X158500000Y-85250006D03*
X161000000Y-85250006D03*
X158500000Y-82750000D03*
X161000000Y-82750000D03*
X158500000Y-80250000D03*
X161000000Y-80250006D03*
X158500000Y-77750000D03*
X161000000Y-77750000D03*
X158500000Y-75250004D03*
X161000000Y-75250000D03*
X161000000Y-72750000D03*
X158500000Y-72750000D03*
X161000000Y-70257938D03*
X158500000Y-70273302D03*
X168500000Y-87750000D03*
X166000000Y-87750000D03*
X166000004Y-85250000D03*
X168499996Y-85250000D03*
X166000000Y-82750000D03*
X168500000Y-82749994D03*
X168500000Y-80250000D03*
X166000000Y-80250000D03*
X168500000Y-77750000D03*
X166000000Y-77750000D03*
X168500006Y-70250000D03*
X166000000Y-70250006D03*
X166000000Y-72750000D03*
X168500000Y-72750000D03*
X168500000Y-75250000D03*
X166000000Y-75250006D03*
X168500000Y-90250000D03*
X166000000Y-90250000D03*
X166000000Y-92749984D03*
X168500000Y-92750000D03*
X166000000Y-95248063D03*
X168500000Y-95248063D03*
X166000000Y-97746139D03*
X168500000Y-97763982D03*
X166000000Y-100246781D03*
X168500000Y-100262214D03*
X168500000Y-102746856D03*
X166000000Y-102505330D03*
X161500000Y-104500000D03*
X160000000Y-103000000D03*
X164250000Y-103500000D03*
X162500000Y-101750000D03*
X161000000Y-100250000D03*
X158500000Y-101500000D03*
X166000000Y-103549990D03*
X168500000Y-104000000D03*
X163000000Y-57000000D03*
X158500000Y-69000000D03*
X158500000Y-71500000D03*
X158500000Y-74000000D03*
X158500000Y-76500000D03*
X158500000Y-79000000D03*
X158500000Y-81500000D03*
X158500000Y-84000000D03*
X158500000Y-86500000D03*
X158500000Y-89000000D03*
X158500000Y-91500000D03*
X158500000Y-94000000D03*
X158500000Y-96500000D03*
X158500000Y-99000000D03*
X161000000Y-99000000D03*
X161000000Y-96500000D03*
X161000000Y-94000000D03*
X161000000Y-91500000D03*
X161000000Y-89000000D03*
X161000000Y-86500000D03*
X161000000Y-84000000D03*
X161000000Y-81500000D03*
X161000000Y-79000000D03*
X161000000Y-76500000D03*
X161000000Y-74000000D03*
X161000000Y-71500000D03*
X161000000Y-69000000D03*
X168500000Y-66500000D03*
X168500000Y-69000000D03*
X168500000Y-71500000D03*
X168500000Y-74000000D03*
X168500000Y-76500000D03*
X168500000Y-79000000D03*
X168500000Y-81500000D03*
X168500000Y-84000000D03*
X168500000Y-86500000D03*
X168500000Y-89000000D03*
X168500000Y-91500000D03*
X168500000Y-94000000D03*
X168500000Y-96500000D03*
X168500000Y-99000000D03*
X168500000Y-101500000D03*
X166000000Y-101500000D03*
X166000000Y-99000000D03*
X166000000Y-96500000D03*
X166000000Y-94000000D03*
X166000000Y-91500000D03*
X166000000Y-89000000D03*
X166000000Y-86500000D03*
X166000000Y-84000000D03*
X166000000Y-81500000D03*
X166000000Y-79000000D03*
X166000000Y-76500000D03*
X166000000Y-74000000D03*
X166000000Y-71500000D03*
X166000000Y-69000000D03*
X161053888Y-63623844D03*
X170500000Y-43000000D03*
X169600000Y-57800000D03*
X167243021Y-55843021D03*
X166800000Y-52800000D03*
X163700000Y-53500000D03*
X162900000Y-54300000D03*
X162100000Y-55100000D03*
X163000000Y-63200000D03*
X166300000Y-48000000D03*
X166200000Y-46400000D03*
X171800000Y-49200000D03*
X171500000Y-48300000D03*
X170500000Y-48200000D03*
X161150000Y-62350000D03*
X168300000Y-64150000D03*
X160950000Y-42900000D03*
X161150000Y-61400000D03*
X168282000Y-62340000D03*
X91700000Y-59700000D03*
X95300000Y-59700000D03*
X113300000Y-59600000D03*
X131300000Y-59700000D03*
X167300000Y-59700000D03*
X149300000Y-59599992D03*
X109700000Y-59400000D03*
X163800000Y-59700000D03*
X169700000Y-59500000D03*
X145800000Y-59600000D03*
X151650000Y-59500000D03*
X127700000Y-59600000D03*
X133650000Y-59550000D03*
X92700000Y-46300000D03*
X115750000Y-59450000D03*
X98400000Y-59450000D03*
X110700000Y-46300000D03*
X128700000Y-46300000D03*
X146700000Y-46300000D03*
X164700000Y-46300000D03*
X87750000Y-67900000D03*
X87750000Y-67200000D03*
X105750000Y-67900000D03*
X105750000Y-67200000D03*
X123750000Y-67900000D03*
X123750000Y-67200000D03*
X141750000Y-67900000D03*
X141750000Y-67200000D03*
X93100000Y-105100010D03*
X92100000Y-106100000D03*
X110100002Y-106050000D03*
X111050000Y-105100000D03*
X128050000Y-106050000D03*
X129000000Y-105150000D03*
X146100000Y-106100002D03*
X147100000Y-105100000D03*
X165250000Y-105150000D03*
X164150000Y-106200000D03*
X159750000Y-68000000D03*
X159750000Y-67250000D03*
X92500000Y-105500000D03*
X87750000Y-66500000D03*
X110500000Y-105500000D03*
X105750000Y-66500000D03*
X128500000Y-105500000D03*
X123750000Y-66500000D03*
X146500000Y-105500000D03*
X141750000Y-66500000D03*
X164500000Y-105500000D03*
X159750000Y-66500000D03*
X89250000Y-64749996D03*
X90050000Y-57750002D03*
X107250000Y-64749996D03*
X108050000Y-57750002D03*
X125250000Y-64749996D03*
X126050000Y-57750002D03*
X143250000Y-64749996D03*
X144050000Y-57750002D03*
X161250000Y-64749996D03*
X162050000Y-57750002D03*
X96800000Y-52900000D03*
X96800000Y-55300000D03*
X114800000Y-52900000D03*
X114800000Y-55300000D03*
X132800000Y-52900000D03*
X132800000Y-55300000D03*
X150800000Y-52900000D03*
X150800000Y-55300000D03*
X168800000Y-52900000D03*
X168800000Y-55300000D03*
D15*
X162190000Y-31000000D02*
X162190000Y-32890000D01*
X162190000Y-32890000D02*
X162200000Y-32900000D01*
X162190000Y-31000000D02*
X160600000Y-31000000D01*
X144190000Y-31000000D02*
X144190000Y-32890000D01*
X144190000Y-32890000D02*
X144200000Y-32900000D01*
X144190000Y-31000000D02*
X142700000Y-31000000D01*
X126190000Y-31000000D02*
X126190000Y-32890000D01*
X126190000Y-32890000D02*
X126200000Y-32900000D01*
X126190000Y-31000000D02*
X124600000Y-31000000D01*
X108190000Y-31000000D02*
X108190000Y-32890000D01*
X108190000Y-32890000D02*
X108200000Y-32900000D01*
X108190000Y-31000000D02*
X106600000Y-31000000D01*
X90190000Y-31000000D02*
X90190000Y-32990000D01*
X90190000Y-32990000D02*
X90200000Y-33000000D01*
X90190000Y-31000000D02*
X88600000Y-31000000D01*
D16*
X161000000Y-67796446D02*
X161050010Y-67746436D01*
X161000000Y-69000000D02*
X161000000Y-67796446D01*
X158449997Y-67749768D02*
X158449990Y-67749775D01*
X158449997Y-66500000D02*
X158449997Y-67749768D01*
X140449997Y-66500000D02*
X140449997Y-67747325D01*
X143000000Y-67793785D02*
X143050010Y-67743775D01*
X143000000Y-69000000D02*
X143000000Y-67793785D01*
X140449997Y-67747325D02*
X140449990Y-67747332D01*
X122449997Y-66500000D02*
X122449997Y-67748683D01*
X125000000Y-67795120D02*
X125050010Y-67745110D01*
X125000000Y-69000000D02*
X125000000Y-67795120D01*
X122449997Y-67748683D02*
X122449990Y-67748690D01*
X107000000Y-67795120D02*
X107050010Y-67745110D01*
X107000000Y-69000000D02*
X107000000Y-67795120D01*
X104449997Y-67748683D02*
X104449990Y-67748690D01*
X104449997Y-66500000D02*
X104449997Y-67748683D01*
X86449997Y-67747325D02*
X86449990Y-67747332D01*
X89000000Y-67793785D02*
X89050010Y-67743775D01*
X89000000Y-69000000D02*
X89000000Y-67793785D01*
X86449997Y-66500000D02*
X86449997Y-67747325D01*
X90500000Y-101750000D02*
X91345119Y-102595119D01*
X89758622Y-101008622D02*
X90500000Y-101750000D01*
X87228329Y-102228329D02*
X88000000Y-103000000D01*
X86500000Y-99000000D02*
X86500000Y-97750000D01*
X86500000Y-94000000D02*
X86500000Y-95250000D01*
X89000000Y-94000000D02*
X89000000Y-95249994D01*
X86500000Y-94000000D02*
X86500000Y-92750000D01*
X89000000Y-94000000D02*
X89000000Y-92750006D01*
X86500000Y-89000000D02*
X86500000Y-87750000D01*
X86500000Y-86500000D02*
X86500000Y-87750000D01*
X86500000Y-84000000D02*
X86500000Y-85250006D01*
X89000000Y-84000000D02*
X89000000Y-85250006D01*
X86500000Y-84000000D02*
X86500000Y-82750000D01*
X86500000Y-81500000D02*
X86500000Y-82750000D01*
X89000000Y-84000000D02*
X89000000Y-82750000D01*
X89000000Y-81500000D02*
X89000000Y-82750000D01*
X89000000Y-79000000D02*
X89000000Y-80250006D01*
X89000000Y-79000000D02*
X89000000Y-77750000D01*
X89000000Y-74000000D02*
X89000000Y-72750000D01*
X94000000Y-89000000D02*
X94000000Y-87750000D01*
X94000000Y-85249996D02*
X94000004Y-85250000D01*
X94000000Y-84000000D02*
X94000000Y-85249996D01*
X94000000Y-84000000D02*
X94000000Y-82750000D01*
X94000000Y-81500000D02*
X94000000Y-82750000D01*
X96500000Y-84000000D02*
X96500000Y-82749994D01*
X96500000Y-81500000D02*
X96500000Y-82749994D01*
X96500000Y-79000000D02*
X96500000Y-80250000D01*
X94000000Y-79000000D02*
X94000000Y-80250000D01*
X96500000Y-76500000D02*
X96500000Y-77750000D01*
X96500000Y-79000000D02*
X96500000Y-77750000D01*
X94000000Y-79000000D02*
X94000000Y-77750000D01*
X94000000Y-76500000D02*
X94000000Y-77750000D01*
X94000000Y-74000000D02*
X94000000Y-72750000D01*
X96500000Y-74000000D02*
X96500000Y-72750000D01*
X96500000Y-71500000D02*
X96500000Y-72750000D01*
X96500000Y-74000000D02*
X96500000Y-75250000D01*
X94000000Y-74000000D02*
X94000000Y-75250006D01*
X94000000Y-91500000D02*
X94000000Y-92749984D01*
X96500000Y-91500000D02*
X96500000Y-92750000D01*
X94000000Y-96500000D02*
X94000000Y-97746139D01*
X96500000Y-97763982D02*
X96500000Y-96500000D01*
X94000000Y-101500000D02*
X94000000Y-100246781D01*
X96500000Y-101500000D02*
X96500000Y-102746856D01*
X86500000Y-99000000D02*
X86500000Y-101500000D01*
X96500000Y-66500000D02*
X96500000Y-64350000D01*
X96500000Y-64350000D02*
X96300000Y-64150000D01*
X90100000Y-55100000D02*
X90100000Y-56100000D01*
X90100000Y-56100000D02*
X91000000Y-57000000D01*
X86500000Y-74000000D02*
X86500000Y-71500000D01*
X86500000Y-79000000D02*
X86500000Y-76500000D01*
X89000000Y-96500000D02*
X89000000Y-99000000D01*
X89000000Y-86500000D02*
X89000000Y-89000000D01*
X91000000Y-63200000D02*
X91000000Y-67000000D01*
X91000000Y-67000000D02*
X89000000Y-69000000D01*
X96500000Y-69000000D02*
X96500000Y-66500000D01*
X96500000Y-89000000D02*
X96500000Y-86500000D01*
X91000000Y-63200000D02*
X91000000Y-66000000D01*
X91000000Y-66000000D02*
X94000000Y-69000000D01*
X91000000Y-63200000D02*
X91000000Y-65000000D01*
D17*
X98500000Y-48200000D02*
X98500000Y-43000000D01*
D16*
X95243021Y-55843021D02*
X97200000Y-57800000D01*
X97200000Y-57800000D02*
X97600000Y-57800000D01*
X94800000Y-52800000D02*
X94800000Y-55400000D01*
X94800000Y-55400000D02*
X95243021Y-55843021D01*
X94300000Y-48000000D02*
X94300000Y-52300000D01*
X94300000Y-52300000D02*
X94800000Y-52800000D01*
X90900000Y-54300000D02*
X91700000Y-53500000D01*
X89150000Y-61400000D02*
X89150000Y-56050000D01*
X89150000Y-56050000D02*
X90100000Y-55100000D01*
D17*
X89150000Y-61400000D02*
X89150000Y-62350000D01*
D16*
X108500000Y-101750000D02*
X109345119Y-102595119D01*
X107758622Y-101008622D02*
X108500000Y-101750000D01*
X105228329Y-102228329D02*
X106000000Y-103000000D01*
X104500000Y-99000000D02*
X104500000Y-97750000D01*
X104500000Y-94000000D02*
X104500000Y-95250000D01*
X107000000Y-94000000D02*
X107000000Y-95249994D01*
X104500000Y-94000000D02*
X104500000Y-92750000D01*
X107000000Y-94000000D02*
X107000000Y-92750006D01*
X104500000Y-89000000D02*
X104500000Y-87750000D01*
X104500000Y-86500000D02*
X104500000Y-87750000D01*
X104500000Y-84000000D02*
X104500000Y-85250006D01*
X107000000Y-84000000D02*
X107000000Y-85250006D01*
X104500000Y-84000000D02*
X104500000Y-82750000D01*
X104500000Y-81500000D02*
X104500000Y-82750000D01*
X107000000Y-84000000D02*
X107000000Y-82750000D01*
X107000000Y-81500000D02*
X107000000Y-82750000D01*
X107000000Y-79000000D02*
X107000000Y-80250006D01*
X107000000Y-79000000D02*
X107000000Y-77750000D01*
X107000000Y-74000000D02*
X107000000Y-72750000D01*
X112000000Y-89000000D02*
X112000000Y-87750000D01*
X112000000Y-85249996D02*
X112000004Y-85250000D01*
X112000000Y-84000000D02*
X112000000Y-85249996D01*
X112000000Y-84000000D02*
X112000000Y-82750000D01*
X112000000Y-81500000D02*
X112000000Y-82750000D01*
X114500000Y-84000000D02*
X114500000Y-82749994D01*
X114500000Y-81500000D02*
X114500000Y-82749994D01*
X114500000Y-79000000D02*
X114500000Y-80250000D01*
X112000000Y-79000000D02*
X112000000Y-80250000D01*
X114500000Y-76500000D02*
X114500000Y-77750000D01*
X114500000Y-79000000D02*
X114500000Y-77750000D01*
X112000000Y-79000000D02*
X112000000Y-77750000D01*
X112000000Y-76500000D02*
X112000000Y-77750000D01*
X112000000Y-74000000D02*
X112000000Y-72750000D01*
X114500000Y-74000000D02*
X114500000Y-72750000D01*
X114500000Y-71500000D02*
X114500000Y-72750000D01*
X114500000Y-74000000D02*
X114500000Y-75250000D01*
X112000000Y-74000000D02*
X112000000Y-75250006D01*
X112000000Y-91500000D02*
X112000000Y-92749984D01*
X114500000Y-91500000D02*
X114500000Y-92750000D01*
X112000000Y-96500000D02*
X112000000Y-97746139D01*
X114500000Y-97763982D02*
X114500000Y-96500000D01*
X112000000Y-101500000D02*
X112000000Y-100246781D01*
X114500000Y-101500000D02*
X114500000Y-102746856D01*
X104500000Y-99000000D02*
X104500000Y-101500000D01*
X114500000Y-66500000D02*
X114500000Y-64350000D01*
X114500000Y-64350000D02*
X114300000Y-64150000D01*
X108100000Y-55100000D02*
X108100000Y-56100000D01*
X108100000Y-56100000D02*
X109000000Y-57000000D01*
X104500000Y-74000000D02*
X104500000Y-71500000D01*
X104500000Y-79000000D02*
X104500000Y-76500000D01*
X107000000Y-96500000D02*
X107000000Y-99000000D01*
X107000000Y-86500000D02*
X107000000Y-89000000D01*
X109000000Y-63200000D02*
X109000000Y-67000000D01*
X109000000Y-67000000D02*
X107000000Y-69000000D01*
X114500000Y-69000000D02*
X114500000Y-66500000D01*
X114500000Y-89000000D02*
X114500000Y-86500000D01*
X109000000Y-63200000D02*
X109000000Y-66000000D01*
X109000000Y-66000000D02*
X112000000Y-69000000D01*
X109000000Y-63200000D02*
X109000000Y-65000000D01*
D17*
X116500000Y-48200000D02*
X116500000Y-43000000D01*
D16*
X113243021Y-55843021D02*
X115200000Y-57800000D01*
X115200000Y-57800000D02*
X115600000Y-57800000D01*
X112800000Y-52800000D02*
X112800000Y-55400000D01*
X112800000Y-55400000D02*
X113243021Y-55843021D01*
X112300000Y-48000000D02*
X112300000Y-52300000D01*
X112300000Y-52300000D02*
X112800000Y-52800000D01*
X108900000Y-54300000D02*
X109700000Y-53500000D01*
X107150000Y-61400000D02*
X107150000Y-56050000D01*
X107150000Y-56050000D02*
X108100000Y-55100000D01*
D17*
X107150000Y-61400000D02*
X107150000Y-62350000D01*
D16*
X126500000Y-101750000D02*
X127345119Y-102595119D01*
X125758622Y-101008622D02*
X126500000Y-101750000D01*
X123228329Y-102228329D02*
X124000000Y-103000000D01*
X122500000Y-99000000D02*
X122500000Y-97750000D01*
X122500000Y-94000000D02*
X122500000Y-95250000D01*
X125000000Y-94000000D02*
X125000000Y-95249994D01*
X122500000Y-94000000D02*
X122500000Y-92750000D01*
X125000000Y-94000000D02*
X125000000Y-92750006D01*
X122500000Y-89000000D02*
X122500000Y-87750000D01*
X122500000Y-86500000D02*
X122500000Y-87750000D01*
X122500000Y-84000000D02*
X122500000Y-85250006D01*
X125000000Y-84000000D02*
X125000000Y-85250006D01*
X122500000Y-84000000D02*
X122500000Y-82750000D01*
X122500000Y-81500000D02*
X122500000Y-82750000D01*
X125000000Y-84000000D02*
X125000000Y-82750000D01*
X125000000Y-81500000D02*
X125000000Y-82750000D01*
X125000000Y-79000000D02*
X125000000Y-80250006D01*
X125000000Y-79000000D02*
X125000000Y-77750000D01*
X125000000Y-74000000D02*
X125000000Y-72750000D01*
X130000000Y-89000000D02*
X130000000Y-87750000D01*
X130000000Y-85249996D02*
X130000004Y-85250000D01*
X130000000Y-84000000D02*
X130000000Y-85249996D01*
X130000000Y-84000000D02*
X130000000Y-82750000D01*
X130000000Y-81500000D02*
X130000000Y-82750000D01*
X132500000Y-84000000D02*
X132500000Y-82749994D01*
X132500000Y-81500000D02*
X132500000Y-82749994D01*
X132500000Y-79000000D02*
X132500000Y-80250000D01*
X130000000Y-79000000D02*
X130000000Y-80250000D01*
X132500000Y-76500000D02*
X132500000Y-77750000D01*
X132500000Y-79000000D02*
X132500000Y-77750000D01*
X130000000Y-79000000D02*
X130000000Y-77750000D01*
X130000000Y-76500000D02*
X130000000Y-77750000D01*
X130000000Y-74000000D02*
X130000000Y-72750000D01*
X132500000Y-74000000D02*
X132500000Y-72750000D01*
X132500000Y-71500000D02*
X132500000Y-72750000D01*
X132500000Y-74000000D02*
X132500000Y-75250000D01*
X130000000Y-74000000D02*
X130000000Y-75250006D01*
X130000000Y-91500000D02*
X130000000Y-92749984D01*
X132500000Y-91500000D02*
X132500000Y-92750000D01*
X130000000Y-96500000D02*
X130000000Y-97746139D01*
X132500000Y-97763982D02*
X132500000Y-96500000D01*
X130000000Y-101500000D02*
X130000000Y-100246781D01*
X132500000Y-101500000D02*
X132500000Y-102746856D01*
X122500000Y-99000000D02*
X122500000Y-101500000D01*
X132500000Y-66500000D02*
X132500000Y-64350000D01*
X132500000Y-64350000D02*
X132300000Y-64150000D01*
X126100000Y-55100000D02*
X126100000Y-56100000D01*
X126100000Y-56100000D02*
X127000000Y-57000000D01*
X122500000Y-74000000D02*
X122500000Y-71500000D01*
X122500000Y-79000000D02*
X122500000Y-76500000D01*
X125000000Y-96500000D02*
X125000000Y-99000000D01*
X125000000Y-86500000D02*
X125000000Y-89000000D01*
X127000000Y-63200000D02*
X127000000Y-67000000D01*
X127000000Y-67000000D02*
X125000000Y-69000000D01*
X132500000Y-69000000D02*
X132500000Y-66500000D01*
X132500000Y-89000000D02*
X132500000Y-86500000D01*
X127000000Y-63200000D02*
X127000000Y-66000000D01*
X127000000Y-66000000D02*
X130000000Y-69000000D01*
X127000000Y-63200000D02*
X127000000Y-65000000D01*
D17*
X134500000Y-48200000D02*
X134500000Y-43000000D01*
D16*
X131243021Y-55843021D02*
X133200000Y-57800000D01*
X133200000Y-57800000D02*
X133600000Y-57800000D01*
X130800000Y-52800000D02*
X130800000Y-55400000D01*
X130800000Y-55400000D02*
X131243021Y-55843021D01*
X130300000Y-48000000D02*
X130300000Y-52300000D01*
X130300000Y-52300000D02*
X130800000Y-52800000D01*
X126900000Y-54300000D02*
X127700000Y-53500000D01*
X125150000Y-61400000D02*
X125150000Y-56050000D01*
X125150000Y-56050000D02*
X126100000Y-55100000D01*
D17*
X125150000Y-61400000D02*
X125150000Y-62350000D01*
D16*
X144500000Y-101750000D02*
X145345119Y-102595119D01*
X143758622Y-101008622D02*
X144500000Y-101750000D01*
X141228329Y-102228329D02*
X142000000Y-103000000D01*
X140500000Y-99000000D02*
X140500000Y-97750000D01*
X140500000Y-94000000D02*
X140500000Y-95250000D01*
X143000000Y-94000000D02*
X143000000Y-95249994D01*
X140500000Y-94000000D02*
X140500000Y-92750000D01*
X143000000Y-94000000D02*
X143000000Y-92750006D01*
X140500000Y-89000000D02*
X140500000Y-87750000D01*
X140500000Y-86500000D02*
X140500000Y-87750000D01*
X140500000Y-84000000D02*
X140500000Y-85250006D01*
X143000000Y-84000000D02*
X143000000Y-85250006D01*
X140500000Y-84000000D02*
X140500000Y-82750000D01*
X140500000Y-81500000D02*
X140500000Y-82750000D01*
X143000000Y-84000000D02*
X143000000Y-82750000D01*
X143000000Y-81500000D02*
X143000000Y-82750000D01*
X143000000Y-79000000D02*
X143000000Y-80250006D01*
X143000000Y-79000000D02*
X143000000Y-77750000D01*
X143000000Y-74000000D02*
X143000000Y-72750000D01*
X148000000Y-89000000D02*
X148000000Y-87750000D01*
X148000000Y-85249996D02*
X148000004Y-85250000D01*
X148000000Y-84000000D02*
X148000000Y-85249996D01*
X148000000Y-84000000D02*
X148000000Y-82750000D01*
X148000000Y-81500000D02*
X148000000Y-82750000D01*
X150500000Y-84000000D02*
X150500000Y-82749994D01*
X150500000Y-81500000D02*
X150500000Y-82749994D01*
X150500000Y-79000000D02*
X150500000Y-80250000D01*
X148000000Y-79000000D02*
X148000000Y-80250000D01*
X150500000Y-76500000D02*
X150500000Y-77750000D01*
X150500000Y-79000000D02*
X150500000Y-77750000D01*
X148000000Y-79000000D02*
X148000000Y-77750000D01*
X148000000Y-76500000D02*
X148000000Y-77750000D01*
X148000000Y-74000000D02*
X148000000Y-72750000D01*
X150500000Y-74000000D02*
X150500000Y-72750000D01*
X150500000Y-71500000D02*
X150500000Y-72750000D01*
X150500000Y-74000000D02*
X150500000Y-75250000D01*
X148000000Y-74000000D02*
X148000000Y-75250006D01*
X148000000Y-91500000D02*
X148000000Y-92749984D01*
X150500000Y-91500000D02*
X150500000Y-92750000D01*
X148000000Y-96500000D02*
X148000000Y-97746139D01*
X150500000Y-97763982D02*
X150500000Y-96500000D01*
X148000000Y-101500000D02*
X148000000Y-100246781D01*
X150500000Y-101500000D02*
X150500000Y-102746856D01*
X140500000Y-99000000D02*
X140500000Y-101500000D01*
X150500000Y-66500000D02*
X150500000Y-64350000D01*
X150500000Y-64350000D02*
X150300000Y-64150000D01*
X144100000Y-55100000D02*
X144100000Y-56100000D01*
X144100000Y-56100000D02*
X145000000Y-57000000D01*
X140500000Y-74000000D02*
X140500000Y-71500000D01*
X140500000Y-79000000D02*
X140500000Y-76500000D01*
X143000000Y-96500000D02*
X143000000Y-99000000D01*
X143000000Y-86500000D02*
X143000000Y-89000000D01*
X145000000Y-63200000D02*
X145000000Y-67000000D01*
X145000000Y-67000000D02*
X143000000Y-69000000D01*
X150500000Y-69000000D02*
X150500000Y-66500000D01*
X150500000Y-89000000D02*
X150500000Y-86500000D01*
X145000000Y-63200000D02*
X145000000Y-66000000D01*
X145000000Y-66000000D02*
X148000000Y-69000000D01*
X145000000Y-63200000D02*
X145000000Y-65000000D01*
D17*
X152500000Y-48200000D02*
X152500000Y-43000000D01*
D16*
X149243021Y-55843021D02*
X151200000Y-57800000D01*
X151200000Y-57800000D02*
X151600000Y-57800000D01*
X148800000Y-52800000D02*
X148800000Y-55400000D01*
X148800000Y-55400000D02*
X149243021Y-55843021D01*
X148300000Y-48000000D02*
X148300000Y-52300000D01*
X148300000Y-52300000D02*
X148800000Y-52800000D01*
X144900000Y-54300000D02*
X145700000Y-53500000D01*
X143150000Y-61400000D02*
X143150000Y-56050000D01*
X143150000Y-56050000D02*
X144100000Y-55100000D01*
D17*
X143150000Y-61400000D02*
X143150000Y-62350000D01*
D16*
X162500000Y-101750000D02*
X163345119Y-102595119D01*
X161758622Y-101008622D02*
X162500000Y-101750000D01*
X159228329Y-102228329D02*
X160000000Y-103000000D01*
X158500000Y-99000000D02*
X158500000Y-97750000D01*
X158500000Y-94000000D02*
X158500000Y-95250000D01*
X161000000Y-94000000D02*
X161000000Y-95249994D01*
X158500000Y-94000000D02*
X158500000Y-92750000D01*
X161000000Y-94000000D02*
X161000000Y-92750006D01*
X158500000Y-89000000D02*
X158500000Y-87750000D01*
X158500000Y-86500000D02*
X158500000Y-87750000D01*
X158500000Y-84000000D02*
X158500000Y-85250006D01*
X161000000Y-84000000D02*
X161000000Y-85250006D01*
X158500000Y-84000000D02*
X158500000Y-82750000D01*
X158500000Y-81500000D02*
X158500000Y-82750000D01*
X161000000Y-84000000D02*
X161000000Y-82750000D01*
X161000000Y-81500000D02*
X161000000Y-82750000D01*
X161000000Y-79000000D02*
X161000000Y-80250006D01*
X161000000Y-79000000D02*
X161000000Y-77750000D01*
X161000000Y-74000000D02*
X161000000Y-72750000D01*
X166000000Y-89000000D02*
X166000000Y-87750000D01*
X166000000Y-85249996D02*
X166000004Y-85250000D01*
X166000000Y-84000000D02*
X166000000Y-85249996D01*
X166000000Y-84000000D02*
X166000000Y-82750000D01*
X166000000Y-81500000D02*
X166000000Y-82750000D01*
X168500000Y-84000000D02*
X168500000Y-82749994D01*
X168500000Y-81500000D02*
X168500000Y-82749994D01*
X168500000Y-79000000D02*
X168500000Y-80250000D01*
X166000000Y-79000000D02*
X166000000Y-80250000D01*
X168500000Y-76500000D02*
X168500000Y-77750000D01*
X168500000Y-79000000D02*
X168500000Y-77750000D01*
X166000000Y-79000000D02*
X166000000Y-77750000D01*
X166000000Y-76500000D02*
X166000000Y-77750000D01*
X166000000Y-74000000D02*
X166000000Y-72750000D01*
X168500000Y-74000000D02*
X168500000Y-72750000D01*
X168500000Y-71500000D02*
X168500000Y-72750000D01*
X168500000Y-74000000D02*
X168500000Y-75250000D01*
X166000000Y-74000000D02*
X166000000Y-75250006D01*
X166000000Y-91500000D02*
X166000000Y-92749984D01*
X168500000Y-91500000D02*
X168500000Y-92750000D01*
X166000000Y-96500000D02*
X166000000Y-97746139D01*
X168500000Y-97763982D02*
X168500000Y-96500000D01*
X166000000Y-101500000D02*
X166000000Y-100246781D01*
X168500000Y-101500000D02*
X168500000Y-102746856D01*
X158500000Y-99000000D02*
X158500000Y-101500000D01*
X168500000Y-66500000D02*
X168500000Y-64350000D01*
X168500000Y-64350000D02*
X168300000Y-64150000D01*
X162100000Y-55100000D02*
X162100000Y-56100000D01*
X162100000Y-56100000D02*
X163000000Y-57000000D01*
X158500000Y-74000000D02*
X158500000Y-71500000D01*
X158500000Y-79000000D02*
X158500000Y-76500000D01*
X161000000Y-96500000D02*
X161000000Y-99000000D01*
X161000000Y-86500000D02*
X161000000Y-89000000D01*
X163000000Y-63200000D02*
X163000000Y-67000000D01*
X163000000Y-67000000D02*
X161000000Y-69000000D01*
X168500000Y-69000000D02*
X168500000Y-66500000D01*
X168500000Y-89000000D02*
X168500000Y-86500000D01*
X163000000Y-63200000D02*
X163000000Y-66000000D01*
X163000000Y-66000000D02*
X166000000Y-69000000D01*
X163000000Y-63200000D02*
X163000000Y-65000000D01*
D17*
X170500000Y-48200000D02*
X170500000Y-43000000D01*
D16*
X167243021Y-55843021D02*
X169200000Y-57800000D01*
X169200000Y-57800000D02*
X169600000Y-57800000D01*
X166800000Y-52800000D02*
X166800000Y-55400000D01*
X166800000Y-55400000D02*
X167243021Y-55843021D01*
X166300000Y-48000000D02*
X166300000Y-52300000D01*
X166300000Y-52300000D02*
X166800000Y-52800000D01*
X162900000Y-54300000D02*
X163700000Y-53500000D01*
X161150000Y-61400000D02*
X161150000Y-56050000D01*
X161150000Y-56050000D02*
X162100000Y-55100000D01*
D17*
X161150000Y-61400000D02*
X161150000Y-62350000D01*
D18*
X114540000Y-38500000D02*
X115200000Y-38500000D01*
X115200000Y-38500000D02*
X116400000Y-37300000D01*
X116400000Y-37300000D02*
X116400000Y-32000000D01*
X116400000Y-32000000D02*
X115810000Y-31410000D01*
X115810000Y-31410000D02*
X115810000Y-31000000D01*
X133810000Y-31000000D02*
X133810000Y-31310000D01*
X134500000Y-37200000D02*
X133200000Y-38500000D01*
X133200000Y-38500000D02*
X132540000Y-38500000D01*
X133810000Y-31310000D02*
X134500000Y-32000000D01*
X134500000Y-32000000D02*
X134500000Y-37200000D01*
X150540000Y-38500000D02*
X151300000Y-38500000D01*
X151300000Y-38500000D02*
X152500000Y-37300000D01*
X152500000Y-37300000D02*
X152500000Y-31690000D01*
X152500000Y-31690000D02*
X151810000Y-31000000D01*
X97810000Y-31000000D02*
X97810000Y-31337820D01*
X97810000Y-31337820D02*
X98400000Y-31927820D01*
X97100000Y-38500000D02*
X96540000Y-38500000D01*
X98400000Y-31927820D02*
X98400000Y-37200000D01*
X98400000Y-37200000D02*
X97100000Y-38500000D01*
X169810000Y-31500000D02*
X169810000Y-31810000D01*
X169810000Y-31810000D02*
X170500000Y-32500000D01*
X170500000Y-32500000D02*
X170500000Y-37000000D01*
X170500000Y-37000000D02*
X168800000Y-38700000D01*
X168500000Y-38500000D02*
X168540000Y-38540000D01*
X168540000Y-38540000D02*
X168540000Y-40660000D01*
X164700000Y-44500000D02*
X164700000Y-46300000D01*
X168540000Y-40660000D02*
X164700000Y-44500000D01*
X150540000Y-40660000D02*
X150540000Y-38500000D01*
X150540000Y-38560000D02*
X150540000Y-40660000D01*
X150540000Y-40660000D02*
X146700000Y-44500000D01*
X146700000Y-44500000D02*
X146700000Y-46300000D01*
X132500000Y-38500000D02*
X132540000Y-38540000D01*
X132540000Y-38540000D02*
X132540000Y-40660000D01*
X132540000Y-40660000D02*
X128700000Y-44500000D01*
X128700000Y-44500000D02*
X128700000Y-46300000D01*
X110700000Y-46300000D02*
X110700000Y-44500000D01*
X110700000Y-44500000D02*
X114540000Y-40660000D01*
X114540000Y-40660000D02*
X114540000Y-38500000D01*
X96500000Y-38500000D02*
X96540000Y-38540000D01*
X96540000Y-38540000D02*
X96540000Y-40660000D01*
X96540000Y-40660000D02*
X92700000Y-44500000D01*
X92700000Y-44500000D02*
X92700000Y-46300000D01*
D15*
X94000000Y-35960000D02*
X94040000Y-35960000D01*
X94040000Y-35960000D02*
X95270000Y-34730000D01*
X95270000Y-34730000D02*
X95270000Y-31000000D01*
X167270000Y-31500000D02*
X167270000Y-34730000D01*
X167270000Y-34730000D02*
X166000000Y-36000000D01*
X149270000Y-31500000D02*
X149270000Y-34630000D01*
X149270000Y-34630000D02*
X148000000Y-35900000D01*
X131270000Y-31500000D02*
X131270000Y-34730000D01*
X131270000Y-34730000D02*
X130000000Y-36000000D01*
X113270000Y-31500000D02*
X113270000Y-34690000D01*
X113270000Y-34690000D02*
X112000000Y-35960000D01*
D19*
X128730000Y-31500000D02*
X128701401Y-31528599D01*
X128701401Y-31528599D02*
X128701401Y-37201401D01*
X128701401Y-37201401D02*
X130000000Y-38500000D01*
X166000000Y-38600000D02*
X164730000Y-37330000D01*
X164730000Y-37330000D02*
X164730000Y-31500000D01*
X146730000Y-31500000D02*
X146730000Y-37330000D01*
X146730000Y-37330000D02*
X147900000Y-38500000D01*
X110730000Y-31500000D02*
X110730000Y-37230000D01*
X110730000Y-37230000D02*
X112000000Y-38500000D01*
X94000000Y-38500000D02*
X92730000Y-37230000D01*
X92730000Y-37230000D02*
X92730000Y-31000000D01*
D16*
X91700000Y-59700000D02*
X94805026Y-59700000D01*
X94805026Y-59700000D02*
X95300000Y-59700000D01*
X98400000Y-59450000D02*
X95550000Y-59450000D01*
X95550000Y-59450000D02*
X95300000Y-59700000D01*
X95300000Y-59600000D02*
X95300000Y-59700000D01*
X95200004Y-59500004D02*
X95300000Y-59600000D01*
X113450000Y-59450000D02*
X113300000Y-59600000D01*
X115750000Y-59450000D02*
X113450000Y-59450000D01*
X109700000Y-59400000D02*
X113100000Y-59400000D01*
X113100000Y-59400000D02*
X113300000Y-59600000D01*
X131450000Y-59550000D02*
X131300000Y-59700000D01*
X131200000Y-59600000D02*
X131300000Y-59700000D01*
X133650000Y-59550000D02*
X131450000Y-59550000D01*
X127700000Y-59600000D02*
X131200000Y-59600000D01*
X167500000Y-59500000D02*
X167300000Y-59700000D01*
X169700000Y-59500000D02*
X167500000Y-59500000D01*
X163800000Y-59700000D02*
X167300000Y-59700000D01*
X149399992Y-59500000D02*
X149300000Y-59599992D01*
X145800000Y-59600000D02*
X149299992Y-59600000D01*
X149299992Y-59600000D02*
X149300000Y-59599992D01*
X151650000Y-59500000D02*
X149399992Y-59500000D01*
X127550000Y-59600000D02*
X127700000Y-59600000D01*
D20*
X159750000Y-66500000D02*
X159750000Y-68400000D01*
D16*
X159750000Y-67250000D02*
X159750000Y-68400000D01*
X159750000Y-68400000D02*
X159750000Y-100750000D01*
X141750000Y-68300000D02*
X141750000Y-100750000D01*
D20*
X141750000Y-66500000D02*
X141750000Y-68300000D01*
D16*
X123750000Y-67900000D02*
X123750000Y-68250000D01*
X123750000Y-68250000D02*
X123750000Y-100750000D01*
D20*
X123750000Y-66500000D02*
X123750000Y-68250000D01*
X105750000Y-66500000D02*
X105750000Y-68300000D01*
D16*
X105750000Y-68300000D02*
X105750000Y-100750000D01*
X105750000Y-67900000D02*
X105750000Y-68300000D01*
X87750000Y-67900000D02*
X87750000Y-68300000D01*
X87750000Y-68300000D02*
X87750000Y-100750000D01*
D20*
X87750000Y-66500000D02*
X87750000Y-68300000D01*
D16*
X159750000Y-66500000D02*
X159750000Y-68000000D01*
D15*
X123750000Y-67900000D02*
X123750000Y-66500000D01*
D16*
X105750000Y-67200000D02*
X105750000Y-67900000D01*
X105750000Y-66500000D02*
X105750000Y-67200000D01*
X123750000Y-67200000D02*
X123750000Y-67900000D01*
D15*
X92100010Y-105100010D02*
X92100000Y-105100020D01*
X92100000Y-105100020D02*
X92100000Y-106100000D01*
D16*
X88000000Y-101000000D02*
X92100000Y-105100000D01*
X92100000Y-105100000D02*
X92500000Y-105500000D01*
D15*
X93100000Y-105100010D02*
X92100010Y-105100010D01*
X92100010Y-105100010D02*
X92100000Y-105100000D01*
X93100000Y-105100010D02*
X92899990Y-105100010D01*
X92899990Y-105100010D02*
X92500000Y-105500000D01*
X92100000Y-105900000D02*
X92100000Y-106100000D01*
X92500000Y-105500000D02*
X92100000Y-105900000D01*
X111050000Y-105100000D02*
X111050000Y-105100002D01*
X111050000Y-105100002D02*
X110100002Y-106050000D01*
X110100002Y-105100002D02*
X110100004Y-105100000D01*
X110100004Y-105100000D02*
X111050000Y-105100000D01*
D16*
X106000000Y-101000000D02*
X110100000Y-105100000D01*
D15*
X110100002Y-105100002D02*
X110100000Y-105100000D01*
D16*
X110100000Y-105100000D02*
X110500000Y-105500000D01*
D15*
X110100002Y-106050000D02*
X110100002Y-105100002D01*
X110100002Y-105899998D02*
X110100002Y-106050000D01*
X110500000Y-105500000D02*
X110100002Y-105899998D01*
X110900000Y-105100000D02*
X111050000Y-105100000D01*
X110500000Y-105500000D02*
X110900000Y-105100000D01*
X129000000Y-105150000D02*
X128950000Y-105150000D01*
X128950000Y-105150000D02*
X128050000Y-106050000D01*
X128050000Y-105050000D02*
X128150000Y-105150000D01*
X128150000Y-105150000D02*
X129000000Y-105150000D01*
D16*
X124000000Y-101000000D02*
X128050000Y-105050000D01*
X128050000Y-105050000D02*
X128500000Y-105500000D01*
D15*
X128050000Y-106050000D02*
X128050000Y-105050000D01*
X128500000Y-105500000D02*
X128050000Y-105950000D01*
X128050000Y-105950000D02*
X128050000Y-106050000D01*
X128850000Y-105150000D02*
X129000000Y-105150000D01*
X128500000Y-105500000D02*
X128850000Y-105150000D01*
X146100000Y-106100002D02*
X146100000Y-106100000D01*
X146100000Y-106100000D02*
X147100000Y-105100000D01*
X146150000Y-105150000D02*
X146200000Y-105100000D01*
X146200000Y-105100000D02*
X147100000Y-105100000D01*
X146150000Y-105150000D02*
X146100000Y-105200000D01*
X146100000Y-105605028D02*
X146100000Y-106100002D01*
X146100000Y-105200000D02*
X146100000Y-105605028D01*
X146900000Y-105100000D02*
X147100000Y-105100000D01*
X146500000Y-105500000D02*
X146900000Y-105100000D01*
X146150000Y-105150000D02*
X146500000Y-105500000D01*
X146000000Y-105000000D02*
X146150000Y-105150000D01*
D16*
X146000000Y-105000000D02*
X146500000Y-105500000D01*
X142000000Y-101000000D02*
X146000000Y-105000000D01*
D21*
X165200000Y-105150000D02*
X164150000Y-106200000D01*
D16*
X164500000Y-105500000D02*
X164500000Y-105850000D01*
X164500000Y-105850000D02*
X164150000Y-106200000D01*
X164500000Y-105500000D02*
X164900000Y-105500000D01*
X164900000Y-105500000D02*
X165250000Y-105150000D01*
X164050000Y-105050000D02*
X164150000Y-105150000D01*
D21*
X164150000Y-105150000D02*
X165250000Y-105150000D01*
X164150000Y-105150000D02*
X164150000Y-106200000D01*
D16*
X160000000Y-101000000D02*
X164050000Y-105050000D01*
X164050000Y-105050000D02*
X164500000Y-105500000D01*
X159750000Y-66500000D02*
X159750000Y-67250000D01*
X87750000Y-100750000D02*
X88000000Y-101000000D01*
X105750000Y-100750000D02*
X106000000Y-101000000D01*
X123750000Y-100750000D02*
X124000000Y-101000000D01*
X141750000Y-100750000D02*
X142000000Y-101000000D01*
X159750000Y-100750000D02*
X160000000Y-101000000D01*
D17*
X89599999Y-64399997D02*
X89250000Y-64749996D01*
X90050000Y-57750002D02*
X90050000Y-63949996D01*
X90050000Y-63949996D02*
X89599999Y-64399997D01*
X107599999Y-64399997D02*
X107250000Y-64749996D01*
X108050000Y-57750002D02*
X108050000Y-63949996D01*
X108050000Y-63949996D02*
X107599999Y-64399997D01*
X125599999Y-64399997D02*
X125250000Y-64749996D01*
X126050000Y-57750002D02*
X126050000Y-63949996D01*
X126050000Y-63949996D02*
X125599999Y-64399997D01*
X143599999Y-64399997D02*
X143250000Y-64749996D01*
X144050000Y-57750002D02*
X144050000Y-63949996D01*
X144050000Y-63949996D02*
X143599999Y-64399997D01*
X161599999Y-64399997D02*
X161250000Y-64749996D01*
X162050000Y-57750002D02*
X162050000Y-63949996D01*
X162050000Y-63949996D02*
X161599999Y-64399997D01*
D16*
X96800000Y-52900000D02*
X96800000Y-55300000D01*
X114800000Y-52900000D02*
X114800000Y-55300000D01*
X132800000Y-52900000D02*
X132800000Y-55300000D01*
X150800000Y-52900000D02*
X150800000Y-55300000D01*
X168800000Y-52900000D02*
X168800000Y-55300000D01*
G36*
X91073000Y-105280738D02*
X91073000Y-105764869D01*
X91023187Y-105884832D01*
X91022813Y-106313289D01*
X91186431Y-106709275D01*
X91489132Y-107012504D01*
X91884832Y-107176813D01*
X92313289Y-107177187D01*
X92709275Y-107013569D01*
X93012504Y-106710868D01*
X93154841Y-106368082D01*
X93369203Y-106154094D01*
X93709275Y-106013579D01*
X94012504Y-105710878D01*
X94176813Y-105315178D01*
X94177187Y-104886721D01*
X94013569Y-104490735D01*
X93949945Y-104427000D01*
X101873000Y-104427000D01*
X101873000Y-157958702D01*
X94000000Y-168784077D01*
X86127000Y-157958702D01*
X86127000Y-104427000D01*
X90219262Y-104427000D01*
X91073000Y-105280738D01*
X91073000Y-105280738D01*
G37*
X91073000Y-105280738D02*
X91073000Y-105764869D01*
X91023187Y-105884832D01*
X91022813Y-106313289D01*
X91186431Y-106709275D01*
X91489132Y-107012504D01*
X91884832Y-107176813D01*
X92313289Y-107177187D01*
X92709275Y-107013569D01*
X93012504Y-106710868D01*
X93154841Y-106368082D01*
X93369203Y-106154094D01*
X93709275Y-106013579D01*
X94012504Y-105710878D01*
X94176813Y-105315178D01*
X94177187Y-104886721D01*
X94013569Y-104490735D01*
X93949945Y-104427000D01*
X101873000Y-104427000D01*
X101873000Y-157958702D01*
X94000000Y-168784077D01*
X86127000Y-157958702D01*
X86127000Y-104427000D01*
X90219262Y-104427000D01*
X91073000Y-105280738D01*
G36*
X98619850Y-22538688D02*
X98701653Y-22872562D01*
X101873000Y-29668306D01*
X101873000Y-104273000D01*
X96127000Y-104273000D01*
X96127000Y-65800000D01*
X96117333Y-65751399D01*
X96089803Y-65710197D01*
X96048601Y-65682667D01*
X96000000Y-65673000D01*
X94400000Y-65673000D01*
X94351399Y-65682667D01*
X94310197Y-65710197D01*
X94282667Y-65751399D01*
X94273000Y-65800000D01*
X94273000Y-104273000D01*
X93796213Y-104273000D01*
X93710868Y-104187506D01*
X93315168Y-104023197D01*
X92886711Y-104022823D01*
X92765249Y-104073010D01*
X92280748Y-104073010D01*
X88604000Y-100396262D01*
X88604000Y-68923199D01*
X88745018Y-68712150D01*
X88827000Y-68300000D01*
X88827000Y-67900940D01*
X88827187Y-67686711D01*
X88827000Y-67686258D01*
X88827000Y-67200940D01*
X88827187Y-66986711D01*
X88827000Y-66986258D01*
X88827000Y-66500940D01*
X88827187Y-66286711D01*
X88663569Y-65890725D01*
X88360868Y-65587496D01*
X87965168Y-65423187D01*
X87536711Y-65422813D01*
X87140725Y-65586431D01*
X86837496Y-65889132D01*
X86673187Y-66284832D01*
X86672813Y-66713289D01*
X86673000Y-66713742D01*
X86673000Y-67199061D01*
X86672813Y-67413289D01*
X86673000Y-67413742D01*
X86673000Y-67899061D01*
X86672813Y-68113289D01*
X86673000Y-68113742D01*
X86673000Y-68300000D01*
X86754982Y-68712150D01*
X86896000Y-68923199D01*
X86896000Y-100750000D01*
X86961007Y-101076812D01*
X87128051Y-101326811D01*
X87146131Y-101353869D01*
X90065262Y-104273000D01*
X86127000Y-104273000D01*
X86127000Y-64894763D01*
X88518874Y-64894763D01*
X88629927Y-65163533D01*
X88835381Y-65369346D01*
X89103957Y-65480869D01*
X89394767Y-65481122D01*
X89663537Y-65370069D01*
X89869350Y-65164615D01*
X89965883Y-64932139D01*
X90049012Y-64849010D01*
X90499010Y-64399011D01*
X90499013Y-64399009D01*
X90636664Y-64193000D01*
X90649211Y-64129923D01*
X90685001Y-63949996D01*
X90685000Y-63949991D01*
X90685000Y-59844767D01*
X90968874Y-59844767D01*
X91079927Y-60113537D01*
X91285381Y-60319350D01*
X91553957Y-60430873D01*
X91844767Y-60431126D01*
X92113537Y-60320073D01*
X92225806Y-60208000D01*
X94774225Y-60208000D01*
X94885381Y-60319350D01*
X95153957Y-60430873D01*
X95444767Y-60431126D01*
X95713537Y-60320073D01*
X95919350Y-60114619D01*
X95984384Y-59958000D01*
X97874225Y-59958000D01*
X97985381Y-60069350D01*
X98253957Y-60180873D01*
X98544767Y-60181126D01*
X98813537Y-60070073D01*
X99019350Y-59864619D01*
X99130873Y-59596043D01*
X99131126Y-59305233D01*
X99020073Y-59036463D01*
X98814619Y-58830650D01*
X98546043Y-58719127D01*
X98255233Y-58718874D01*
X97986463Y-58829927D01*
X97874194Y-58942000D01*
X95550000Y-58942000D01*
X95413764Y-58969099D01*
X95155233Y-58968874D01*
X95005729Y-59030648D01*
X95005601Y-59030673D01*
X95005494Y-59030745D01*
X94886463Y-59079927D01*
X94774194Y-59192000D01*
X92225775Y-59192000D01*
X92114619Y-59080650D01*
X91846043Y-58969127D01*
X91555233Y-58968874D01*
X91286463Y-59079927D01*
X91080650Y-59285381D01*
X90969127Y-59553957D01*
X90968874Y-59844767D01*
X90685000Y-59844767D01*
X90685000Y-58126932D01*
X90780873Y-57896045D01*
X90781126Y-57605235D01*
X90670073Y-57336465D01*
X90464619Y-57130652D01*
X90196043Y-57019129D01*
X89905233Y-57018876D01*
X89636463Y-57129929D01*
X89430650Y-57335383D01*
X89319127Y-57603959D01*
X89318874Y-57894769D01*
X89415000Y-58127413D01*
X89415000Y-63686971D01*
X89150986Y-63950984D01*
X89067516Y-64034454D01*
X88836463Y-64129923D01*
X88630650Y-64335377D01*
X88519127Y-64603953D01*
X88518874Y-64894763D01*
X86127000Y-64894763D01*
X86127000Y-53044767D01*
X96068874Y-53044767D01*
X96179927Y-53313537D01*
X96292000Y-53425806D01*
X96292000Y-54774225D01*
X96180650Y-54885381D01*
X96069127Y-55153957D01*
X96068874Y-55444767D01*
X96179927Y-55713537D01*
X96385381Y-55919350D01*
X96653957Y-56030873D01*
X96944767Y-56031126D01*
X97213537Y-55920073D01*
X97419350Y-55714619D01*
X97530873Y-55446043D01*
X97531126Y-55155233D01*
X97420073Y-54886463D01*
X97308000Y-54774194D01*
X97308000Y-53425775D01*
X97419350Y-53314619D01*
X97530873Y-53046043D01*
X97531126Y-52755233D01*
X97420073Y-52486463D01*
X97214619Y-52280650D01*
X96946043Y-52169127D01*
X96655233Y-52168874D01*
X96386463Y-52279927D01*
X96180650Y-52485381D01*
X96069127Y-52753957D01*
X96068874Y-53044767D01*
X86127000Y-53044767D01*
X86127000Y-39553805D01*
X90585800Y-39553805D01*
X90667741Y-39806516D01*
X91228030Y-40010248D01*
X91823635Y-39984058D01*
X92252259Y-39806516D01*
X92334200Y-39553805D01*
X91460000Y-38679605D01*
X90585800Y-39553805D01*
X86127000Y-39553805D01*
X86127000Y-38268030D01*
X89949752Y-38268030D01*
X89975942Y-38863635D01*
X90153484Y-39292259D01*
X90406195Y-39374200D01*
X91280395Y-38500000D01*
X90406195Y-37625800D01*
X90153484Y-37707741D01*
X89949752Y-38268030D01*
X86127000Y-38268030D01*
X86127000Y-36206480D01*
X90215185Y-36206480D01*
X90404264Y-36664088D01*
X90754070Y-37014505D01*
X90926739Y-37086203D01*
X90667741Y-37193484D01*
X90585800Y-37446195D01*
X91460000Y-38320395D01*
X91474143Y-38306253D01*
X91653748Y-38485858D01*
X91639605Y-38500000D01*
X92513805Y-39374200D01*
X92766516Y-39292259D01*
X92866772Y-39016542D01*
X92944264Y-39204088D01*
X93294070Y-39554505D01*
X93751348Y-39744383D01*
X94246480Y-39744815D01*
X94704088Y-39555736D01*
X95054505Y-39205930D01*
X95244383Y-38748652D01*
X95244815Y-38253520D01*
X95055736Y-37795912D01*
X94705930Y-37445495D01*
X94248652Y-37255617D01*
X93753520Y-37255185D01*
X93628500Y-37306842D01*
X93366053Y-37044395D01*
X93751348Y-37204383D01*
X94246480Y-37204815D01*
X94704088Y-37015736D01*
X95054505Y-36665930D01*
X95244383Y-36208652D01*
X95244811Y-35718269D01*
X95287936Y-35675143D01*
X95287936Y-36823600D01*
X95317506Y-36972259D01*
X95401714Y-37098286D01*
X95527741Y-37182494D01*
X95676400Y-37212064D01*
X96951096Y-37212064D01*
X96872660Y-37290500D01*
X96788652Y-37255617D01*
X96293520Y-37255185D01*
X95835912Y-37444264D01*
X95485495Y-37794070D01*
X95295617Y-38251348D01*
X95295185Y-38746480D01*
X95484264Y-39204088D01*
X95524000Y-39243893D01*
X95524000Y-40239159D01*
X91981580Y-43781580D01*
X91761338Y-44111193D01*
X91761338Y-44111194D01*
X91684000Y-44500000D01*
X91684000Y-46300000D01*
X91761338Y-46688806D01*
X91981580Y-47018420D01*
X92311194Y-47238662D01*
X92700000Y-47316000D01*
X93088806Y-47238662D01*
X93418420Y-47018420D01*
X93638662Y-46688806D01*
X93716000Y-46300000D01*
X93716000Y-44920840D01*
X97258420Y-41378421D01*
X97478662Y-41048807D01*
X97491493Y-40984300D01*
X97556000Y-40660000D01*
X97556000Y-39393765D01*
X97818420Y-39218420D01*
X99118421Y-37918420D01*
X99338662Y-37588807D01*
X99416000Y-37200000D01*
X99416000Y-31927820D01*
X99338662Y-31539014D01*
X99338662Y-31539013D01*
X99118420Y-31209400D01*
X98953000Y-31043980D01*
X98953000Y-30633169D01*
X98865994Y-30195762D01*
X98618223Y-29824946D01*
X98247407Y-29577175D01*
X97810000Y-29490169D01*
X97372593Y-29577175D01*
X97001777Y-29824946D01*
X96754006Y-30195762D01*
X96667000Y-30633169D01*
X96667000Y-31366831D01*
X96754006Y-31804238D01*
X97001777Y-32175054D01*
X97372593Y-32422825D01*
X97384000Y-32425094D01*
X97384000Y-34707936D01*
X95951000Y-34707936D01*
X95951000Y-32260062D01*
X96078223Y-32175054D01*
X96325994Y-31804238D01*
X96413000Y-31366831D01*
X96413000Y-30633169D01*
X96325994Y-30195762D01*
X96078223Y-29824946D01*
X95707407Y-29577175D01*
X95270000Y-29490169D01*
X94832593Y-29577175D01*
X94461777Y-29824946D01*
X94214006Y-30195762D01*
X94127000Y-30633169D01*
X94127000Y-31366831D01*
X94214006Y-31804238D01*
X94461777Y-32175054D01*
X94589000Y-32260062D01*
X94589000Y-34447921D01*
X94299987Y-34736933D01*
X94248652Y-34715617D01*
X93753520Y-34715185D01*
X93311000Y-34898030D01*
X93311000Y-32326879D01*
X93538223Y-32175054D01*
X93785994Y-31804238D01*
X93873000Y-31366831D01*
X93873000Y-30633169D01*
X93785994Y-30195762D01*
X93538223Y-29824946D01*
X93167407Y-29577175D01*
X92730000Y-29490169D01*
X92292593Y-29577175D01*
X91921777Y-29824946D01*
X91674006Y-30195762D01*
X91587000Y-30633169D01*
X91587000Y-29773870D01*
X91490327Y-29540481D01*
X91311698Y-29361853D01*
X91078309Y-29265180D01*
X90475750Y-29265180D01*
X90317000Y-29423930D01*
X90317000Y-30873000D01*
X91428250Y-30873000D01*
X91587000Y-30714250D01*
X91587000Y-31285750D01*
X91428250Y-31127000D01*
X90317000Y-31127000D01*
X90317000Y-32576070D01*
X90475750Y-32734820D01*
X91078309Y-32734820D01*
X91311698Y-32638147D01*
X91490327Y-32459519D01*
X91587000Y-32226130D01*
X91587000Y-31366831D01*
X91674006Y-31804238D01*
X91921777Y-32175054D01*
X92149000Y-32326879D01*
X92149000Y-34898465D01*
X91708652Y-34715617D01*
X91213520Y-34715185D01*
X90755912Y-34904264D01*
X90405495Y-35254070D01*
X90215617Y-35711348D01*
X90215185Y-36206480D01*
X86127000Y-36206480D01*
X86127000Y-31285750D01*
X88793000Y-31285750D01*
X88793000Y-32226130D01*
X88889673Y-32459519D01*
X89068302Y-32638147D01*
X89301691Y-32734820D01*
X89904250Y-32734820D01*
X90063000Y-32576070D01*
X90063000Y-31127000D01*
X88951750Y-31127000D01*
X88793000Y-31285750D01*
X86127000Y-31285750D01*
X86127000Y-29773870D01*
X88793000Y-29773870D01*
X88793000Y-30714250D01*
X88951750Y-30873000D01*
X90063000Y-30873000D01*
X90063000Y-29423930D01*
X89904250Y-29265180D01*
X89301691Y-29265180D01*
X89068302Y-29361853D01*
X88889673Y-29540481D01*
X88793000Y-29773870D01*
X86127000Y-29773870D01*
X86127000Y-29668306D01*
X87665048Y-26372487D01*
X88618805Y-26372487D01*
X88904547Y-27064035D01*
X89433182Y-27593594D01*
X90124231Y-27880542D01*
X90872487Y-27881195D01*
X91564035Y-27595453D01*
X92093594Y-27066818D01*
X92380542Y-26375769D01*
X92380544Y-26372487D01*
X95618805Y-26372487D01*
X95904547Y-27064035D01*
X96433182Y-27593594D01*
X97124231Y-27880542D01*
X97872487Y-27881195D01*
X98564035Y-27595453D01*
X99093594Y-27066818D01*
X99380542Y-26375769D01*
X99381195Y-25627513D01*
X99095453Y-24935965D01*
X98566818Y-24406406D01*
X97875769Y-24119458D01*
X97127513Y-24118805D01*
X96435965Y-24404547D01*
X95906406Y-24933182D01*
X95619458Y-25624231D01*
X95618805Y-26372487D01*
X92380544Y-26372487D01*
X92381195Y-25627513D01*
X92095453Y-24935965D01*
X91566818Y-24406406D01*
X90875769Y-24119458D01*
X90127513Y-24118805D01*
X89435965Y-24404547D01*
X88906406Y-24933182D01*
X88619458Y-25624231D01*
X88618805Y-26372487D01*
X87665048Y-26372487D01*
X89298347Y-22872562D01*
X89380150Y-22538688D01*
X89363608Y-22431000D01*
X98636392Y-22431000D01*
X98619850Y-22538688D01*
X98619850Y-22538688D01*
G37*
X98619850Y-22538688D02*
X98701653Y-22872562D01*
X101873000Y-29668306D01*
X101873000Y-104273000D01*
X96127000Y-104273000D01*
X96127000Y-65800000D01*
X96117333Y-65751399D01*
X96089803Y-65710197D01*
X96048601Y-65682667D01*
X96000000Y-65673000D01*
X94400000Y-65673000D01*
X94351399Y-65682667D01*
X94310197Y-65710197D01*
X94282667Y-65751399D01*
X94273000Y-65800000D01*
X94273000Y-104273000D01*
X93796213Y-104273000D01*
X93710868Y-104187506D01*
X93315168Y-104023197D01*
X92886711Y-104022823D01*
X92765249Y-104073010D01*
X92280748Y-104073010D01*
X88604000Y-100396262D01*
X88604000Y-68923199D01*
X88745018Y-68712150D01*
X88827000Y-68300000D01*
X88827000Y-67900940D01*
X88827187Y-67686711D01*
X88827000Y-67686258D01*
X88827000Y-67200940D01*
X88827187Y-66986711D01*
X88827000Y-66986258D01*
X88827000Y-66500940D01*
X88827187Y-66286711D01*
X88663569Y-65890725D01*
X88360868Y-65587496D01*
X87965168Y-65423187D01*
X87536711Y-65422813D01*
X87140725Y-65586431D01*
X86837496Y-65889132D01*
X86673187Y-66284832D01*
X86672813Y-66713289D01*
X86673000Y-66713742D01*
X86673000Y-67199061D01*
X86672813Y-67413289D01*
X86673000Y-67413742D01*
X86673000Y-67899061D01*
X86672813Y-68113289D01*
X86673000Y-68113742D01*
X86673000Y-68300000D01*
X86754982Y-68712150D01*
X86896000Y-68923199D01*
X86896000Y-100750000D01*
X86961007Y-101076812D01*
X87128051Y-101326811D01*
X87146131Y-101353869D01*
X90065262Y-104273000D01*
X86127000Y-104273000D01*
X86127000Y-64894763D01*
X88518874Y-64894763D01*
X88629927Y-65163533D01*
X88835381Y-65369346D01*
X89103957Y-65480869D01*
X89394767Y-65481122D01*
X89663537Y-65370069D01*
X89869350Y-65164615D01*
X89965883Y-64932139D01*
X90049012Y-64849010D01*
X90499010Y-64399011D01*
X90499013Y-64399009D01*
X90636664Y-64193000D01*
X90649211Y-64129923D01*
X90685001Y-63949996D01*
X90685000Y-63949991D01*
X90685000Y-59844767D01*
X90968874Y-59844767D01*
X91079927Y-60113537D01*
X91285381Y-60319350D01*
X91553957Y-60430873D01*
X91844767Y-60431126D01*
X92113537Y-60320073D01*
X92225806Y-60208000D01*
X94774225Y-60208000D01*
X94885381Y-60319350D01*
X95153957Y-60430873D01*
X95444767Y-60431126D01*
X95713537Y-60320073D01*
X95919350Y-60114619D01*
X95984384Y-59958000D01*
X97874225Y-59958000D01*
X97985381Y-60069350D01*
X98253957Y-60180873D01*
X98544767Y-60181126D01*
X98813537Y-60070073D01*
X99019350Y-59864619D01*
X99130873Y-59596043D01*
X99131126Y-59305233D01*
X99020073Y-59036463D01*
X98814619Y-58830650D01*
X98546043Y-58719127D01*
X98255233Y-58718874D01*
X97986463Y-58829927D01*
X97874194Y-58942000D01*
X95550000Y-58942000D01*
X95413764Y-58969099D01*
X95155233Y-58968874D01*
X95005729Y-59030648D01*
X95005601Y-59030673D01*
X95005494Y-59030745D01*
X94886463Y-59079927D01*
X94774194Y-59192000D01*
X92225775Y-59192000D01*
X92114619Y-59080650D01*
X91846043Y-58969127D01*
X91555233Y-58968874D01*
X91286463Y-59079927D01*
X91080650Y-59285381D01*
X90969127Y-59553957D01*
X90968874Y-59844767D01*
X90685000Y-59844767D01*
X90685000Y-58126932D01*
X90780873Y-57896045D01*
X90781126Y-57605235D01*
X90670073Y-57336465D01*
X90464619Y-57130652D01*
X90196043Y-57019129D01*
X89905233Y-57018876D01*
X89636463Y-57129929D01*
X89430650Y-57335383D01*
X89319127Y-57603959D01*
X89318874Y-57894769D01*
X89415000Y-58127413D01*
X89415000Y-63686971D01*
X89150986Y-63950984D01*
X89067516Y-64034454D01*
X88836463Y-64129923D01*
X88630650Y-64335377D01*
X88519127Y-64603953D01*
X88518874Y-64894763D01*
X86127000Y-64894763D01*
X86127000Y-53044767D01*
X96068874Y-53044767D01*
X96179927Y-53313537D01*
X96292000Y-53425806D01*
X96292000Y-54774225D01*
X96180650Y-54885381D01*
X96069127Y-55153957D01*
X96068874Y-55444767D01*
X96179927Y-55713537D01*
X96385381Y-55919350D01*
X96653957Y-56030873D01*
X96944767Y-56031126D01*
X97213537Y-55920073D01*
X97419350Y-55714619D01*
X97530873Y-55446043D01*
X97531126Y-55155233D01*
X97420073Y-54886463D01*
X97308000Y-54774194D01*
X97308000Y-53425775D01*
X97419350Y-53314619D01*
X97530873Y-53046043D01*
X97531126Y-52755233D01*
X97420073Y-52486463D01*
X97214619Y-52280650D01*
X96946043Y-52169127D01*
X96655233Y-52168874D01*
X96386463Y-52279927D01*
X96180650Y-52485381D01*
X96069127Y-52753957D01*
X96068874Y-53044767D01*
X86127000Y-53044767D01*
X86127000Y-39553805D01*
X90585800Y-39553805D01*
X90667741Y-39806516D01*
X91228030Y-40010248D01*
X91823635Y-39984058D01*
X92252259Y-39806516D01*
X92334200Y-39553805D01*
X91460000Y-38679605D01*
X90585800Y-39553805D01*
X86127000Y-39553805D01*
X86127000Y-38268030D01*
X89949752Y-38268030D01*
X89975942Y-38863635D01*
X90153484Y-39292259D01*
X90406195Y-39374200D01*
X91280395Y-38500000D01*
X90406195Y-37625800D01*
X90153484Y-37707741D01*
X89949752Y-38268030D01*
X86127000Y-38268030D01*
X86127000Y-36206480D01*
X90215185Y-36206480D01*
X90404264Y-36664088D01*
X90754070Y-37014505D01*
X90926739Y-37086203D01*
X90667741Y-37193484D01*
X90585800Y-37446195D01*
X91460000Y-38320395D01*
X91474143Y-38306253D01*
X91653748Y-38485858D01*
X91639605Y-38500000D01*
X92513805Y-39374200D01*
X92766516Y-39292259D01*
X92866772Y-39016542D01*
X92944264Y-39204088D01*
X93294070Y-39554505D01*
X93751348Y-39744383D01*
X94246480Y-39744815D01*
X94704088Y-39555736D01*
X95054505Y-39205930D01*
X95244383Y-38748652D01*
X95244815Y-38253520D01*
X95055736Y-37795912D01*
X94705930Y-37445495D01*
X94248652Y-37255617D01*
X93753520Y-37255185D01*
X93628500Y-37306842D01*
X93366053Y-37044395D01*
X93751348Y-37204383D01*
X94246480Y-37204815D01*
X94704088Y-37015736D01*
X95054505Y-36665930D01*
X95244383Y-36208652D01*
X95244811Y-35718269D01*
X95287936Y-35675143D01*
X95287936Y-36823600D01*
X95317506Y-36972259D01*
X95401714Y-37098286D01*
X95527741Y-37182494D01*
X95676400Y-37212064D01*
X96951096Y-37212064D01*
X96872660Y-37290500D01*
X96788652Y-37255617D01*
X96293520Y-37255185D01*
X95835912Y-37444264D01*
X95485495Y-37794070D01*
X95295617Y-38251348D01*
X95295185Y-38746480D01*
X95484264Y-39204088D01*
X95524000Y-39243893D01*
X95524000Y-40239159D01*
X91981580Y-43781580D01*
X91761338Y-44111193D01*
X91761338Y-44111194D01*
X91684000Y-44500000D01*
X91684000Y-46300000D01*
X91761338Y-46688806D01*
X91981580Y-47018420D01*
X92311194Y-47238662D01*
X92700000Y-47316000D01*
X93088806Y-47238662D01*
X93418420Y-47018420D01*
X93638662Y-46688806D01*
X93716000Y-46300000D01*
X93716000Y-44920840D01*
X97258420Y-41378421D01*
X97478662Y-41048807D01*
X97491493Y-40984300D01*
X97556000Y-40660000D01*
X97556000Y-39393765D01*
X97818420Y-39218420D01*
X99118421Y-37918420D01*
X99338662Y-37588807D01*
X99416000Y-37200000D01*
X99416000Y-31927820D01*
X99338662Y-31539014D01*
X99338662Y-31539013D01*
X99118420Y-31209400D01*
X98953000Y-31043980D01*
X98953000Y-30633169D01*
X98865994Y-30195762D01*
X98618223Y-29824946D01*
X98247407Y-29577175D01*
X97810000Y-29490169D01*
X97372593Y-29577175D01*
X97001777Y-29824946D01*
X96754006Y-30195762D01*
X96667000Y-30633169D01*
X96667000Y-31366831D01*
X96754006Y-31804238D01*
X97001777Y-32175054D01*
X97372593Y-32422825D01*
X97384000Y-32425094D01*
X97384000Y-34707936D01*
X95951000Y-34707936D01*
X95951000Y-32260062D01*
X96078223Y-32175054D01*
X96325994Y-31804238D01*
X96413000Y-31366831D01*
X96413000Y-30633169D01*
X96325994Y-30195762D01*
X96078223Y-29824946D01*
X95707407Y-29577175D01*
X95270000Y-29490169D01*
X94832593Y-29577175D01*
X94461777Y-29824946D01*
X94214006Y-30195762D01*
X94127000Y-30633169D01*
X94127000Y-31366831D01*
X94214006Y-31804238D01*
X94461777Y-32175054D01*
X94589000Y-32260062D01*
X94589000Y-34447921D01*
X94299987Y-34736933D01*
X94248652Y-34715617D01*
X93753520Y-34715185D01*
X93311000Y-34898030D01*
X93311000Y-32326879D01*
X93538223Y-32175054D01*
X93785994Y-31804238D01*
X93873000Y-31366831D01*
X93873000Y-30633169D01*
X93785994Y-30195762D01*
X93538223Y-29824946D01*
X93167407Y-29577175D01*
X92730000Y-29490169D01*
X92292593Y-29577175D01*
X91921777Y-29824946D01*
X91674006Y-30195762D01*
X91587000Y-30633169D01*
X91587000Y-29773870D01*
X91490327Y-29540481D01*
X91311698Y-29361853D01*
X91078309Y-29265180D01*
X90475750Y-29265180D01*
X90317000Y-29423930D01*
X90317000Y-30873000D01*
X91428250Y-30873000D01*
X91587000Y-30714250D01*
X91587000Y-31285750D01*
X91428250Y-31127000D01*
X90317000Y-31127000D01*
X90317000Y-32576070D01*
X90475750Y-32734820D01*
X91078309Y-32734820D01*
X91311698Y-32638147D01*
X91490327Y-32459519D01*
X91587000Y-32226130D01*
X91587000Y-31366831D01*
X91674006Y-31804238D01*
X91921777Y-32175054D01*
X92149000Y-32326879D01*
X92149000Y-34898465D01*
X91708652Y-34715617D01*
X91213520Y-34715185D01*
X90755912Y-34904264D01*
X90405495Y-35254070D01*
X90215617Y-35711348D01*
X90215185Y-36206480D01*
X86127000Y-36206480D01*
X86127000Y-31285750D01*
X88793000Y-31285750D01*
X88793000Y-32226130D01*
X88889673Y-32459519D01*
X89068302Y-32638147D01*
X89301691Y-32734820D01*
X89904250Y-32734820D01*
X90063000Y-32576070D01*
X90063000Y-31127000D01*
X88951750Y-31127000D01*
X88793000Y-31285750D01*
X86127000Y-31285750D01*
X86127000Y-29773870D01*
X88793000Y-29773870D01*
X88793000Y-30714250D01*
X88951750Y-30873000D01*
X90063000Y-30873000D01*
X90063000Y-29423930D01*
X89904250Y-29265180D01*
X89301691Y-29265180D01*
X89068302Y-29361853D01*
X88889673Y-29540481D01*
X88793000Y-29773870D01*
X86127000Y-29773870D01*
X86127000Y-29668306D01*
X87665048Y-26372487D01*
X88618805Y-26372487D01*
X88904547Y-27064035D01*
X89433182Y-27593594D01*
X90124231Y-27880542D01*
X90872487Y-27881195D01*
X91564035Y-27595453D01*
X92093594Y-27066818D01*
X92380542Y-26375769D01*
X92380544Y-26372487D01*
X95618805Y-26372487D01*
X95904547Y-27064035D01*
X96433182Y-27593594D01*
X97124231Y-27880542D01*
X97872487Y-27881195D01*
X98564035Y-27595453D01*
X99093594Y-27066818D01*
X99380542Y-26375769D01*
X99381195Y-25627513D01*
X99095453Y-24935965D01*
X98566818Y-24406406D01*
X97875769Y-24119458D01*
X97127513Y-24118805D01*
X96435965Y-24404547D01*
X95906406Y-24933182D01*
X95619458Y-25624231D01*
X95618805Y-26372487D01*
X92380544Y-26372487D01*
X92381195Y-25627513D01*
X92095453Y-24935965D01*
X91566818Y-24406406D01*
X90875769Y-24119458D01*
X90127513Y-24118805D01*
X89435965Y-24404547D01*
X88906406Y-24933182D01*
X88619458Y-25624231D01*
X88618805Y-26372487D01*
X87665048Y-26372487D01*
X89298347Y-22872562D01*
X89380150Y-22538688D01*
X89363608Y-22431000D01*
X98636392Y-22431000D01*
X98619850Y-22538688D01*
G36*
X109073002Y-105280740D02*
X109073002Y-105714869D01*
X109023189Y-105834832D01*
X109022815Y-106263289D01*
X109186433Y-106659275D01*
X109489134Y-106962504D01*
X109884834Y-107126813D01*
X110313291Y-107127187D01*
X110709277Y-106963569D01*
X111012506Y-106660868D01*
X111062904Y-106539496D01*
X111539229Y-106063171D01*
X111659275Y-106013569D01*
X111962504Y-105710868D01*
X112126813Y-105315168D01*
X112127187Y-104886711D01*
X111963569Y-104490725D01*
X111899955Y-104427000D01*
X119873000Y-104427000D01*
X119873000Y-157958702D01*
X112000000Y-168784077D01*
X104127000Y-157958702D01*
X104127000Y-104427000D01*
X108219262Y-104427000D01*
X109073002Y-105280740D01*
X109073002Y-105280740D01*
G37*
X109073002Y-105280740D02*
X109073002Y-105714869D01*
X109023189Y-105834832D01*
X109022815Y-106263289D01*
X109186433Y-106659275D01*
X109489134Y-106962504D01*
X109884834Y-107126813D01*
X110313291Y-107127187D01*
X110709277Y-106963569D01*
X111012506Y-106660868D01*
X111062904Y-106539496D01*
X111539229Y-106063171D01*
X111659275Y-106013569D01*
X111962504Y-105710868D01*
X112126813Y-105315168D01*
X112127187Y-104886711D01*
X111963569Y-104490725D01*
X111899955Y-104427000D01*
X119873000Y-104427000D01*
X119873000Y-157958702D01*
X112000000Y-168784077D01*
X104127000Y-157958702D01*
X104127000Y-104427000D01*
X108219262Y-104427000D01*
X109073002Y-105280740D01*
G36*
X116619850Y-22538688D02*
X116701653Y-22872562D01*
X119873000Y-29668306D01*
X119873000Y-104273000D01*
X114127000Y-104273000D01*
X114127000Y-65800000D01*
X114117333Y-65751399D01*
X114089803Y-65710197D01*
X114048601Y-65682667D01*
X114000000Y-65673000D01*
X112400000Y-65673000D01*
X112351399Y-65682667D01*
X112310197Y-65710197D01*
X112282667Y-65751399D01*
X112273000Y-65800000D01*
X112273000Y-104273000D01*
X111746223Y-104273000D01*
X111660868Y-104187496D01*
X111265168Y-104023187D01*
X110836711Y-104022813D01*
X110715249Y-104073000D01*
X110280738Y-104073000D01*
X106604000Y-100396262D01*
X106604000Y-68923199D01*
X106745018Y-68712150D01*
X106827000Y-68300000D01*
X106827000Y-67900940D01*
X106827187Y-67686711D01*
X106827000Y-67686258D01*
X106827000Y-67200940D01*
X106827187Y-66986711D01*
X106827000Y-66986258D01*
X106827000Y-66500940D01*
X106827187Y-66286711D01*
X106663569Y-65890725D01*
X106360868Y-65587496D01*
X105965168Y-65423187D01*
X105536711Y-65422813D01*
X105140725Y-65586431D01*
X104837496Y-65889132D01*
X104673187Y-66284832D01*
X104672813Y-66713289D01*
X104673000Y-66713742D01*
X104673000Y-67199061D01*
X104672813Y-67413289D01*
X104673000Y-67413742D01*
X104673000Y-67899061D01*
X104672813Y-68113289D01*
X104673000Y-68113742D01*
X104673000Y-68300000D01*
X104754982Y-68712150D01*
X104896000Y-68923199D01*
X104896000Y-100750000D01*
X104961007Y-101076812D01*
X105128051Y-101326811D01*
X105146131Y-101353869D01*
X108065262Y-104273000D01*
X104127000Y-104273000D01*
X104127000Y-64894763D01*
X106518874Y-64894763D01*
X106629927Y-65163533D01*
X106835381Y-65369346D01*
X107103957Y-65480869D01*
X107394767Y-65481122D01*
X107663537Y-65370069D01*
X107869350Y-65164615D01*
X107965883Y-64932139D01*
X108049012Y-64849010D01*
X108499010Y-64399011D01*
X108499013Y-64399009D01*
X108636664Y-64193000D01*
X108649211Y-64129923D01*
X108685001Y-63949996D01*
X108685000Y-63949991D01*
X108685000Y-59544767D01*
X108968874Y-59544767D01*
X109079927Y-59813537D01*
X109285381Y-60019350D01*
X109553957Y-60130873D01*
X109844767Y-60131126D01*
X110113537Y-60020073D01*
X110225806Y-59908000D01*
X112636320Y-59908000D01*
X112679927Y-60013537D01*
X112885381Y-60219350D01*
X113153957Y-60330873D01*
X113444767Y-60331126D01*
X113713537Y-60220073D01*
X113919350Y-60014619D01*
X113942860Y-59958000D01*
X115224225Y-59958000D01*
X115335381Y-60069350D01*
X115603957Y-60180873D01*
X115894767Y-60181126D01*
X116163537Y-60070073D01*
X116369350Y-59864619D01*
X116480873Y-59596043D01*
X116481126Y-59305233D01*
X116370073Y-59036463D01*
X116164619Y-58830650D01*
X115896043Y-58719127D01*
X115605233Y-58718874D01*
X115336463Y-58829927D01*
X115224194Y-58942000D01*
X113621540Y-58942000D01*
X113446043Y-58869127D01*
X113155233Y-58868874D01*
X113099264Y-58892000D01*
X110225775Y-58892000D01*
X110114619Y-58780650D01*
X109846043Y-58669127D01*
X109555233Y-58668874D01*
X109286463Y-58779927D01*
X109080650Y-58985381D01*
X108969127Y-59253957D01*
X108968874Y-59544767D01*
X108685000Y-59544767D01*
X108685000Y-58126932D01*
X108780873Y-57896045D01*
X108781126Y-57605235D01*
X108670073Y-57336465D01*
X108464619Y-57130652D01*
X108196043Y-57019129D01*
X107905233Y-57018876D01*
X107636463Y-57129929D01*
X107430650Y-57335383D01*
X107319127Y-57603959D01*
X107318874Y-57894769D01*
X107415000Y-58127413D01*
X107415000Y-63686971D01*
X107150986Y-63950984D01*
X107067516Y-64034454D01*
X106836463Y-64129923D01*
X106630650Y-64335377D01*
X106519127Y-64603953D01*
X106518874Y-64894763D01*
X104127000Y-64894763D01*
X104127000Y-53044767D01*
X114068874Y-53044767D01*
X114179927Y-53313537D01*
X114292000Y-53425806D01*
X114292000Y-54774225D01*
X114180650Y-54885381D01*
X114069127Y-55153957D01*
X114068874Y-55444767D01*
X114179927Y-55713537D01*
X114385381Y-55919350D01*
X114653957Y-56030873D01*
X114944767Y-56031126D01*
X115213537Y-55920073D01*
X115419350Y-55714619D01*
X115530873Y-55446043D01*
X115531126Y-55155233D01*
X115420073Y-54886463D01*
X115308000Y-54774194D01*
X115308000Y-53425775D01*
X115419350Y-53314619D01*
X115530873Y-53046043D01*
X115531126Y-52755233D01*
X115420073Y-52486463D01*
X115214619Y-52280650D01*
X114946043Y-52169127D01*
X114655233Y-52168874D01*
X114386463Y-52279927D01*
X114180650Y-52485381D01*
X114069127Y-52753957D01*
X114068874Y-53044767D01*
X104127000Y-53044767D01*
X104127000Y-39553805D01*
X108585800Y-39553805D01*
X108667741Y-39806516D01*
X109228030Y-40010248D01*
X109823635Y-39984058D01*
X110252259Y-39806516D01*
X110334200Y-39553805D01*
X109460000Y-38679605D01*
X108585800Y-39553805D01*
X104127000Y-39553805D01*
X104127000Y-38268030D01*
X107949752Y-38268030D01*
X107975942Y-38863635D01*
X108153484Y-39292259D01*
X108406195Y-39374200D01*
X109280395Y-38500000D01*
X108406195Y-37625800D01*
X108153484Y-37707741D01*
X107949752Y-38268030D01*
X104127000Y-38268030D01*
X104127000Y-36206480D01*
X108215185Y-36206480D01*
X108404264Y-36664088D01*
X108754070Y-37014505D01*
X108926739Y-37086203D01*
X108667741Y-37193484D01*
X108585800Y-37446195D01*
X109460000Y-38320395D01*
X109474143Y-38306253D01*
X109653748Y-38485858D01*
X109639605Y-38500000D01*
X110513805Y-39374200D01*
X110766516Y-39292259D01*
X110866772Y-39016542D01*
X110944264Y-39204088D01*
X111294070Y-39554505D01*
X111751348Y-39744383D01*
X112246480Y-39744815D01*
X112704088Y-39555736D01*
X113054505Y-39205930D01*
X113244383Y-38748652D01*
X113244815Y-38253520D01*
X113055736Y-37795912D01*
X112705930Y-37445495D01*
X112248652Y-37255617D01*
X111753520Y-37255185D01*
X111628500Y-37306842D01*
X111366053Y-37044395D01*
X111751348Y-37204383D01*
X112246480Y-37204815D01*
X112704088Y-37015736D01*
X113054505Y-36665930D01*
X113244383Y-36208652D01*
X113244815Y-35713520D01*
X113234507Y-35688573D01*
X113287936Y-35635144D01*
X113287936Y-36823600D01*
X113317506Y-36972259D01*
X113401714Y-37098286D01*
X113527741Y-37182494D01*
X113676400Y-37212064D01*
X115051096Y-37212064D01*
X114943319Y-37319840D01*
X114788652Y-37255617D01*
X114293520Y-37255185D01*
X113835912Y-37444264D01*
X113485495Y-37794070D01*
X113295617Y-38251348D01*
X113295185Y-38746480D01*
X113484264Y-39204088D01*
X113524000Y-39243893D01*
X113524000Y-40239159D01*
X109981580Y-43781580D01*
X109761338Y-44111193D01*
X109761338Y-44111194D01*
X109684000Y-44500000D01*
X109684000Y-46300000D01*
X109761338Y-46688806D01*
X109981580Y-47018420D01*
X110311194Y-47238662D01*
X110700000Y-47316000D01*
X111088806Y-47238662D01*
X111418420Y-47018420D01*
X111638662Y-46688806D01*
X111716000Y-46300000D01*
X111716000Y-44920840D01*
X115258420Y-41378421D01*
X115478662Y-41048807D01*
X115491493Y-40984300D01*
X115556000Y-40660000D01*
X115556000Y-39445188D01*
X115588807Y-39438662D01*
X115918420Y-39218420D01*
X117118420Y-38018421D01*
X117338661Y-37688807D01*
X117338662Y-37688806D01*
X117416000Y-37300000D01*
X117416000Y-32000000D01*
X117338662Y-31611194D01*
X117338662Y-31611193D01*
X117118420Y-31281580D01*
X116953000Y-31116160D01*
X116953000Y-30633169D01*
X116865994Y-30195762D01*
X116618223Y-29824946D01*
X116247407Y-29577175D01*
X115810000Y-29490169D01*
X115372593Y-29577175D01*
X115001777Y-29824946D01*
X114754006Y-30195762D01*
X114667000Y-30633169D01*
X114667000Y-31366831D01*
X114754006Y-31804238D01*
X115001777Y-32175054D01*
X115372593Y-32422825D01*
X115384000Y-32425094D01*
X115384000Y-34707936D01*
X113947432Y-34707936D01*
X113951000Y-34690000D01*
X113951000Y-32260062D01*
X114078223Y-32175054D01*
X114325994Y-31804238D01*
X114413000Y-31366831D01*
X114413000Y-30633169D01*
X114325994Y-30195762D01*
X114078223Y-29824946D01*
X113707407Y-29577175D01*
X113270000Y-29490169D01*
X112832593Y-29577175D01*
X112461777Y-29824946D01*
X112214006Y-30195762D01*
X112127000Y-30633169D01*
X112127000Y-31366831D01*
X112214006Y-31804238D01*
X112461777Y-32175054D01*
X112589000Y-32260062D01*
X112589000Y-34407920D01*
X112271723Y-34725197D01*
X112248652Y-34715617D01*
X111753520Y-34715185D01*
X111311000Y-34898030D01*
X111311000Y-32326879D01*
X111538223Y-32175054D01*
X111785994Y-31804238D01*
X111873000Y-31366831D01*
X111873000Y-30633169D01*
X111785994Y-30195762D01*
X111538223Y-29824946D01*
X111167407Y-29577175D01*
X110730000Y-29490169D01*
X110292593Y-29577175D01*
X109921777Y-29824946D01*
X109674006Y-30195762D01*
X109587000Y-30633169D01*
X109587000Y-29773870D01*
X109490327Y-29540481D01*
X109311698Y-29361853D01*
X109078309Y-29265180D01*
X108475750Y-29265180D01*
X108317000Y-29423930D01*
X108317000Y-30873000D01*
X109428250Y-30873000D01*
X109587000Y-30714250D01*
X109587000Y-31285750D01*
X109428250Y-31127000D01*
X108317000Y-31127000D01*
X108317000Y-32576070D01*
X108475750Y-32734820D01*
X109078309Y-32734820D01*
X109311698Y-32638147D01*
X109490327Y-32459519D01*
X109587000Y-32226130D01*
X109587000Y-31366831D01*
X109674006Y-31804238D01*
X109921777Y-32175054D01*
X110149000Y-32326879D01*
X110149000Y-34898465D01*
X109708652Y-34715617D01*
X109213520Y-34715185D01*
X108755912Y-34904264D01*
X108405495Y-35254070D01*
X108215617Y-35711348D01*
X108215185Y-36206480D01*
X104127000Y-36206480D01*
X104127000Y-31285750D01*
X106793000Y-31285750D01*
X106793000Y-32226130D01*
X106889673Y-32459519D01*
X107068302Y-32638147D01*
X107301691Y-32734820D01*
X107904250Y-32734820D01*
X108063000Y-32576070D01*
X108063000Y-31127000D01*
X106951750Y-31127000D01*
X106793000Y-31285750D01*
X104127000Y-31285750D01*
X104127000Y-29773870D01*
X106793000Y-29773870D01*
X106793000Y-30714250D01*
X106951750Y-30873000D01*
X108063000Y-30873000D01*
X108063000Y-29423930D01*
X107904250Y-29265180D01*
X107301691Y-29265180D01*
X107068302Y-29361853D01*
X106889673Y-29540481D01*
X106793000Y-29773870D01*
X104127000Y-29773870D01*
X104127000Y-29668306D01*
X105665048Y-26372487D01*
X106618805Y-26372487D01*
X106904547Y-27064035D01*
X107433182Y-27593594D01*
X108124231Y-27880542D01*
X108872487Y-27881195D01*
X109564035Y-27595453D01*
X110093594Y-27066818D01*
X110380542Y-26375769D01*
X110380544Y-26372487D01*
X113618805Y-26372487D01*
X113904547Y-27064035D01*
X114433182Y-27593594D01*
X115124231Y-27880542D01*
X115872487Y-27881195D01*
X116564035Y-27595453D01*
X117093594Y-27066818D01*
X117380542Y-26375769D01*
X117381195Y-25627513D01*
X117095453Y-24935965D01*
X116566818Y-24406406D01*
X115875769Y-24119458D01*
X115127513Y-24118805D01*
X114435965Y-24404547D01*
X113906406Y-24933182D01*
X113619458Y-25624231D01*
X113618805Y-26372487D01*
X110380544Y-26372487D01*
X110381195Y-25627513D01*
X110095453Y-24935965D01*
X109566818Y-24406406D01*
X108875769Y-24119458D01*
X108127513Y-24118805D01*
X107435965Y-24404547D01*
X106906406Y-24933182D01*
X106619458Y-25624231D01*
X106618805Y-26372487D01*
X105665048Y-26372487D01*
X107298347Y-22872562D01*
X107380150Y-22538688D01*
X107363608Y-22431000D01*
X116636392Y-22431000D01*
X116619850Y-22538688D01*
X116619850Y-22538688D01*
G37*
X116619850Y-22538688D02*
X116701653Y-22872562D01*
X119873000Y-29668306D01*
X119873000Y-104273000D01*
X114127000Y-104273000D01*
X114127000Y-65800000D01*
X114117333Y-65751399D01*
X114089803Y-65710197D01*
X114048601Y-65682667D01*
X114000000Y-65673000D01*
X112400000Y-65673000D01*
X112351399Y-65682667D01*
X112310197Y-65710197D01*
X112282667Y-65751399D01*
X112273000Y-65800000D01*
X112273000Y-104273000D01*
X111746223Y-104273000D01*
X111660868Y-104187496D01*
X111265168Y-104023187D01*
X110836711Y-104022813D01*
X110715249Y-104073000D01*
X110280738Y-104073000D01*
X106604000Y-100396262D01*
X106604000Y-68923199D01*
X106745018Y-68712150D01*
X106827000Y-68300000D01*
X106827000Y-67900940D01*
X106827187Y-67686711D01*
X106827000Y-67686258D01*
X106827000Y-67200940D01*
X106827187Y-66986711D01*
X106827000Y-66986258D01*
X106827000Y-66500940D01*
X106827187Y-66286711D01*
X106663569Y-65890725D01*
X106360868Y-65587496D01*
X105965168Y-65423187D01*
X105536711Y-65422813D01*
X105140725Y-65586431D01*
X104837496Y-65889132D01*
X104673187Y-66284832D01*
X104672813Y-66713289D01*
X104673000Y-66713742D01*
X104673000Y-67199061D01*
X104672813Y-67413289D01*
X104673000Y-67413742D01*
X104673000Y-67899061D01*
X104672813Y-68113289D01*
X104673000Y-68113742D01*
X104673000Y-68300000D01*
X104754982Y-68712150D01*
X104896000Y-68923199D01*
X104896000Y-100750000D01*
X104961007Y-101076812D01*
X105128051Y-101326811D01*
X105146131Y-101353869D01*
X108065262Y-104273000D01*
X104127000Y-104273000D01*
X104127000Y-64894763D01*
X106518874Y-64894763D01*
X106629927Y-65163533D01*
X106835381Y-65369346D01*
X107103957Y-65480869D01*
X107394767Y-65481122D01*
X107663537Y-65370069D01*
X107869350Y-65164615D01*
X107965883Y-64932139D01*
X108049012Y-64849010D01*
X108499010Y-64399011D01*
X108499013Y-64399009D01*
X108636664Y-64193000D01*
X108649211Y-64129923D01*
X108685001Y-63949996D01*
X108685000Y-63949991D01*
X108685000Y-59544767D01*
X108968874Y-59544767D01*
X109079927Y-59813537D01*
X109285381Y-60019350D01*
X109553957Y-60130873D01*
X109844767Y-60131126D01*
X110113537Y-60020073D01*
X110225806Y-59908000D01*
X112636320Y-59908000D01*
X112679927Y-60013537D01*
X112885381Y-60219350D01*
X113153957Y-60330873D01*
X113444767Y-60331126D01*
X113713537Y-60220073D01*
X113919350Y-60014619D01*
X113942860Y-59958000D01*
X115224225Y-59958000D01*
X115335381Y-60069350D01*
X115603957Y-60180873D01*
X115894767Y-60181126D01*
X116163537Y-60070073D01*
X116369350Y-59864619D01*
X116480873Y-59596043D01*
X116481126Y-59305233D01*
X116370073Y-59036463D01*
X116164619Y-58830650D01*
X115896043Y-58719127D01*
X115605233Y-58718874D01*
X115336463Y-58829927D01*
X115224194Y-58942000D01*
X113621540Y-58942000D01*
X113446043Y-58869127D01*
X113155233Y-58868874D01*
X113099264Y-58892000D01*
X110225775Y-58892000D01*
X110114619Y-58780650D01*
X109846043Y-58669127D01*
X109555233Y-58668874D01*
X109286463Y-58779927D01*
X109080650Y-58985381D01*
X108969127Y-59253957D01*
X108968874Y-59544767D01*
X108685000Y-59544767D01*
X108685000Y-58126932D01*
X108780873Y-57896045D01*
X108781126Y-57605235D01*
X108670073Y-57336465D01*
X108464619Y-57130652D01*
X108196043Y-57019129D01*
X107905233Y-57018876D01*
X107636463Y-57129929D01*
X107430650Y-57335383D01*
X107319127Y-57603959D01*
X107318874Y-57894769D01*
X107415000Y-58127413D01*
X107415000Y-63686971D01*
X107150986Y-63950984D01*
X107067516Y-64034454D01*
X106836463Y-64129923D01*
X106630650Y-64335377D01*
X106519127Y-64603953D01*
X106518874Y-64894763D01*
X104127000Y-64894763D01*
X104127000Y-53044767D01*
X114068874Y-53044767D01*
X114179927Y-53313537D01*
X114292000Y-53425806D01*
X114292000Y-54774225D01*
X114180650Y-54885381D01*
X114069127Y-55153957D01*
X114068874Y-55444767D01*
X114179927Y-55713537D01*
X114385381Y-55919350D01*
X114653957Y-56030873D01*
X114944767Y-56031126D01*
X115213537Y-55920073D01*
X115419350Y-55714619D01*
X115530873Y-55446043D01*
X115531126Y-55155233D01*
X115420073Y-54886463D01*
X115308000Y-54774194D01*
X115308000Y-53425775D01*
X115419350Y-53314619D01*
X115530873Y-53046043D01*
X115531126Y-52755233D01*
X115420073Y-52486463D01*
X115214619Y-52280650D01*
X114946043Y-52169127D01*
X114655233Y-52168874D01*
X114386463Y-52279927D01*
X114180650Y-52485381D01*
X114069127Y-52753957D01*
X114068874Y-53044767D01*
X104127000Y-53044767D01*
X104127000Y-39553805D01*
X108585800Y-39553805D01*
X108667741Y-39806516D01*
X109228030Y-40010248D01*
X109823635Y-39984058D01*
X110252259Y-39806516D01*
X110334200Y-39553805D01*
X109460000Y-38679605D01*
X108585800Y-39553805D01*
X104127000Y-39553805D01*
X104127000Y-38268030D01*
X107949752Y-38268030D01*
X107975942Y-38863635D01*
X108153484Y-39292259D01*
X108406195Y-39374200D01*
X109280395Y-38500000D01*
X108406195Y-37625800D01*
X108153484Y-37707741D01*
X107949752Y-38268030D01*
X104127000Y-38268030D01*
X104127000Y-36206480D01*
X108215185Y-36206480D01*
X108404264Y-36664088D01*
X108754070Y-37014505D01*
X108926739Y-37086203D01*
X108667741Y-37193484D01*
X108585800Y-37446195D01*
X109460000Y-38320395D01*
X109474143Y-38306253D01*
X109653748Y-38485858D01*
X109639605Y-38500000D01*
X110513805Y-39374200D01*
X110766516Y-39292259D01*
X110866772Y-39016542D01*
X110944264Y-39204088D01*
X111294070Y-39554505D01*
X111751348Y-39744383D01*
X112246480Y-39744815D01*
X112704088Y-39555736D01*
X113054505Y-39205930D01*
X113244383Y-38748652D01*
X113244815Y-38253520D01*
X113055736Y-37795912D01*
X112705930Y-37445495D01*
X112248652Y-37255617D01*
X111753520Y-37255185D01*
X111628500Y-37306842D01*
X111366053Y-37044395D01*
X111751348Y-37204383D01*
X112246480Y-37204815D01*
X112704088Y-37015736D01*
X113054505Y-36665930D01*
X113244383Y-36208652D01*
X113244815Y-35713520D01*
X113234507Y-35688573D01*
X113287936Y-35635144D01*
X113287936Y-36823600D01*
X113317506Y-36972259D01*
X113401714Y-37098286D01*
X113527741Y-37182494D01*
X113676400Y-37212064D01*
X115051096Y-37212064D01*
X114943319Y-37319840D01*
X114788652Y-37255617D01*
X114293520Y-37255185D01*
X113835912Y-37444264D01*
X113485495Y-37794070D01*
X113295617Y-38251348D01*
X113295185Y-38746480D01*
X113484264Y-39204088D01*
X113524000Y-39243893D01*
X113524000Y-40239159D01*
X109981580Y-43781580D01*
X109761338Y-44111193D01*
X109761338Y-44111194D01*
X109684000Y-44500000D01*
X109684000Y-46300000D01*
X109761338Y-46688806D01*
X109981580Y-47018420D01*
X110311194Y-47238662D01*
X110700000Y-47316000D01*
X111088806Y-47238662D01*
X111418420Y-47018420D01*
X111638662Y-46688806D01*
X111716000Y-46300000D01*
X111716000Y-44920840D01*
X115258420Y-41378421D01*
X115478662Y-41048807D01*
X115491493Y-40984300D01*
X115556000Y-40660000D01*
X115556000Y-39445188D01*
X115588807Y-39438662D01*
X115918420Y-39218420D01*
X117118420Y-38018421D01*
X117338661Y-37688807D01*
X117338662Y-37688806D01*
X117416000Y-37300000D01*
X117416000Y-32000000D01*
X117338662Y-31611194D01*
X117338662Y-31611193D01*
X117118420Y-31281580D01*
X116953000Y-31116160D01*
X116953000Y-30633169D01*
X116865994Y-30195762D01*
X116618223Y-29824946D01*
X116247407Y-29577175D01*
X115810000Y-29490169D01*
X115372593Y-29577175D01*
X115001777Y-29824946D01*
X114754006Y-30195762D01*
X114667000Y-30633169D01*
X114667000Y-31366831D01*
X114754006Y-31804238D01*
X115001777Y-32175054D01*
X115372593Y-32422825D01*
X115384000Y-32425094D01*
X115384000Y-34707936D01*
X113947432Y-34707936D01*
X113951000Y-34690000D01*
X113951000Y-32260062D01*
X114078223Y-32175054D01*
X114325994Y-31804238D01*
X114413000Y-31366831D01*
X114413000Y-30633169D01*
X114325994Y-30195762D01*
X114078223Y-29824946D01*
X113707407Y-29577175D01*
X113270000Y-29490169D01*
X112832593Y-29577175D01*
X112461777Y-29824946D01*
X112214006Y-30195762D01*
X112127000Y-30633169D01*
X112127000Y-31366831D01*
X112214006Y-31804238D01*
X112461777Y-32175054D01*
X112589000Y-32260062D01*
X112589000Y-34407920D01*
X112271723Y-34725197D01*
X112248652Y-34715617D01*
X111753520Y-34715185D01*
X111311000Y-34898030D01*
X111311000Y-32326879D01*
X111538223Y-32175054D01*
X111785994Y-31804238D01*
X111873000Y-31366831D01*
X111873000Y-30633169D01*
X111785994Y-30195762D01*
X111538223Y-29824946D01*
X111167407Y-29577175D01*
X110730000Y-29490169D01*
X110292593Y-29577175D01*
X109921777Y-29824946D01*
X109674006Y-30195762D01*
X109587000Y-30633169D01*
X109587000Y-29773870D01*
X109490327Y-29540481D01*
X109311698Y-29361853D01*
X109078309Y-29265180D01*
X108475750Y-29265180D01*
X108317000Y-29423930D01*
X108317000Y-30873000D01*
X109428250Y-30873000D01*
X109587000Y-30714250D01*
X109587000Y-31285750D01*
X109428250Y-31127000D01*
X108317000Y-31127000D01*
X108317000Y-32576070D01*
X108475750Y-32734820D01*
X109078309Y-32734820D01*
X109311698Y-32638147D01*
X109490327Y-32459519D01*
X109587000Y-32226130D01*
X109587000Y-31366831D01*
X109674006Y-31804238D01*
X109921777Y-32175054D01*
X110149000Y-32326879D01*
X110149000Y-34898465D01*
X109708652Y-34715617D01*
X109213520Y-34715185D01*
X108755912Y-34904264D01*
X108405495Y-35254070D01*
X108215617Y-35711348D01*
X108215185Y-36206480D01*
X104127000Y-36206480D01*
X104127000Y-31285750D01*
X106793000Y-31285750D01*
X106793000Y-32226130D01*
X106889673Y-32459519D01*
X107068302Y-32638147D01*
X107301691Y-32734820D01*
X107904250Y-32734820D01*
X108063000Y-32576070D01*
X108063000Y-31127000D01*
X106951750Y-31127000D01*
X106793000Y-31285750D01*
X104127000Y-31285750D01*
X104127000Y-29773870D01*
X106793000Y-29773870D01*
X106793000Y-30714250D01*
X106951750Y-30873000D01*
X108063000Y-30873000D01*
X108063000Y-29423930D01*
X107904250Y-29265180D01*
X107301691Y-29265180D01*
X107068302Y-29361853D01*
X106889673Y-29540481D01*
X106793000Y-29773870D01*
X104127000Y-29773870D01*
X104127000Y-29668306D01*
X105665048Y-26372487D01*
X106618805Y-26372487D01*
X106904547Y-27064035D01*
X107433182Y-27593594D01*
X108124231Y-27880542D01*
X108872487Y-27881195D01*
X109564035Y-27595453D01*
X110093594Y-27066818D01*
X110380542Y-26375769D01*
X110380544Y-26372487D01*
X113618805Y-26372487D01*
X113904547Y-27064035D01*
X114433182Y-27593594D01*
X115124231Y-27880542D01*
X115872487Y-27881195D01*
X116564035Y-27595453D01*
X117093594Y-27066818D01*
X117380542Y-26375769D01*
X117381195Y-25627513D01*
X117095453Y-24935965D01*
X116566818Y-24406406D01*
X115875769Y-24119458D01*
X115127513Y-24118805D01*
X114435965Y-24404547D01*
X113906406Y-24933182D01*
X113619458Y-25624231D01*
X113618805Y-26372487D01*
X110380544Y-26372487D01*
X110381195Y-25627513D01*
X110095453Y-24935965D01*
X109566818Y-24406406D01*
X108875769Y-24119458D01*
X108127513Y-24118805D01*
X107435965Y-24404547D01*
X106906406Y-24933182D01*
X106619458Y-25624231D01*
X106618805Y-26372487D01*
X105665048Y-26372487D01*
X107298347Y-22872562D01*
X107380150Y-22538688D01*
X107363608Y-22431000D01*
X116636392Y-22431000D01*
X116619850Y-22538688D01*
G36*
X127023000Y-105230738D02*
X127023000Y-105714869D01*
X126973187Y-105834832D01*
X126972813Y-106263289D01*
X127136431Y-106659275D01*
X127439132Y-106962504D01*
X127834832Y-107126813D01*
X128263289Y-107127187D01*
X128659275Y-106963569D01*
X128962504Y-106660868D01*
X129012902Y-106539496D01*
X129404019Y-106148379D01*
X129609275Y-106063569D01*
X129912504Y-105760868D01*
X130076813Y-105365168D01*
X130077187Y-104936711D01*
X129913569Y-104540725D01*
X129800042Y-104427000D01*
X137873000Y-104427000D01*
X137873000Y-157958702D01*
X130000000Y-168784077D01*
X122127000Y-157958702D01*
X122127000Y-104427000D01*
X126219262Y-104427000D01*
X127023000Y-105230738D01*
X127023000Y-105230738D01*
G37*
X127023000Y-105230738D02*
X127023000Y-105714869D01*
X126973187Y-105834832D01*
X126972813Y-106263289D01*
X127136431Y-106659275D01*
X127439132Y-106962504D01*
X127834832Y-107126813D01*
X128263289Y-107127187D01*
X128659275Y-106963569D01*
X128962504Y-106660868D01*
X129012902Y-106539496D01*
X129404019Y-106148379D01*
X129609275Y-106063569D01*
X129912504Y-105760868D01*
X130076813Y-105365168D01*
X130077187Y-104936711D01*
X129913569Y-104540725D01*
X129800042Y-104427000D01*
X137873000Y-104427000D01*
X137873000Y-157958702D01*
X130000000Y-168784077D01*
X122127000Y-157958702D01*
X122127000Y-104427000D01*
X126219262Y-104427000D01*
X127023000Y-105230738D01*
G36*
X134619850Y-22538688D02*
X134701653Y-22872562D01*
X137873000Y-29668306D01*
X137873000Y-104273000D01*
X132127000Y-104273000D01*
X132127000Y-65800000D01*
X132117333Y-65751399D01*
X132089803Y-65710197D01*
X132048601Y-65682667D01*
X132000000Y-65673000D01*
X130400000Y-65673000D01*
X130351399Y-65682667D01*
X130310197Y-65710197D01*
X130282667Y-65751399D01*
X130273000Y-65800000D01*
X130273000Y-104273000D01*
X129646310Y-104273000D01*
X129610868Y-104237496D01*
X129215168Y-104073187D01*
X128786711Y-104072813D01*
X128665249Y-104123000D01*
X128475678Y-104123000D01*
X128443016Y-104101176D01*
X128275616Y-104067878D01*
X124604000Y-100396262D01*
X124604000Y-68873199D01*
X124745018Y-68662150D01*
X124827000Y-68250000D01*
X124827000Y-67900940D01*
X124827187Y-67686711D01*
X124827000Y-67686258D01*
X124827000Y-67200940D01*
X124827187Y-66986711D01*
X124827000Y-66986258D01*
X124827000Y-66500940D01*
X124827187Y-66286711D01*
X124663569Y-65890725D01*
X124360868Y-65587496D01*
X123965168Y-65423187D01*
X123536711Y-65422813D01*
X123140725Y-65586431D01*
X122837496Y-65889132D01*
X122673187Y-66284832D01*
X122672813Y-66713289D01*
X122673000Y-66713742D01*
X122673000Y-67199061D01*
X122672813Y-67413289D01*
X122673000Y-67413742D01*
X122673000Y-67899061D01*
X122672813Y-68113289D01*
X122673000Y-68113742D01*
X122673000Y-68250000D01*
X122754982Y-68662150D01*
X122896000Y-68873199D01*
X122896000Y-100750000D01*
X122961007Y-101076812D01*
X123128051Y-101326811D01*
X123146131Y-101353869D01*
X126065262Y-104273000D01*
X122127000Y-104273000D01*
X122127000Y-64894763D01*
X124518874Y-64894763D01*
X124629927Y-65163533D01*
X124835381Y-65369346D01*
X125103957Y-65480869D01*
X125394767Y-65481122D01*
X125663537Y-65370069D01*
X125869350Y-65164615D01*
X125965883Y-64932139D01*
X126049012Y-64849010D01*
X126499010Y-64399011D01*
X126499013Y-64399009D01*
X126636664Y-64193000D01*
X126649211Y-64129923D01*
X126685001Y-63949996D01*
X126685000Y-63949991D01*
X126685000Y-59744767D01*
X126968874Y-59744767D01*
X127079927Y-60013537D01*
X127285381Y-60219350D01*
X127553957Y-60330873D01*
X127844767Y-60331126D01*
X128113537Y-60220073D01*
X128225806Y-60108000D01*
X130677639Y-60108000D01*
X130679927Y-60113537D01*
X130885381Y-60319350D01*
X131153957Y-60430873D01*
X131444767Y-60431126D01*
X131713537Y-60320073D01*
X131919350Y-60114619D01*
X131942860Y-60058000D01*
X133124225Y-60058000D01*
X133235381Y-60169350D01*
X133503957Y-60280873D01*
X133794767Y-60281126D01*
X134063537Y-60170073D01*
X134269350Y-59964619D01*
X134380873Y-59696043D01*
X134381126Y-59405233D01*
X134270073Y-59136463D01*
X134064619Y-58930650D01*
X133796043Y-58819127D01*
X133505233Y-58818874D01*
X133236463Y-58929927D01*
X133124194Y-59042000D01*
X131621540Y-59042000D01*
X131446043Y-58969127D01*
X131155233Y-58968874D01*
X130886463Y-59079927D01*
X130874369Y-59092000D01*
X128225775Y-59092000D01*
X128114619Y-58980650D01*
X127846043Y-58869127D01*
X127555233Y-58868874D01*
X127286463Y-58979927D01*
X127080650Y-59185381D01*
X126969127Y-59453957D01*
X126968874Y-59744767D01*
X126685000Y-59744767D01*
X126685000Y-58126932D01*
X126780873Y-57896045D01*
X126781126Y-57605235D01*
X126670073Y-57336465D01*
X126464619Y-57130652D01*
X126196043Y-57019129D01*
X125905233Y-57018876D01*
X125636463Y-57129929D01*
X125430650Y-57335383D01*
X125319127Y-57603959D01*
X125318874Y-57894769D01*
X125415000Y-58127413D01*
X125415000Y-63686971D01*
X125150986Y-63950984D01*
X125067516Y-64034454D01*
X124836463Y-64129923D01*
X124630650Y-64335377D01*
X124519127Y-64603953D01*
X124518874Y-64894763D01*
X122127000Y-64894763D01*
X122127000Y-53044767D01*
X132068874Y-53044767D01*
X132179927Y-53313537D01*
X132292000Y-53425806D01*
X132292000Y-54774225D01*
X132180650Y-54885381D01*
X132069127Y-55153957D01*
X132068874Y-55444767D01*
X132179927Y-55713537D01*
X132385381Y-55919350D01*
X132653957Y-56030873D01*
X132944767Y-56031126D01*
X133213537Y-55920073D01*
X133419350Y-55714619D01*
X133530873Y-55446043D01*
X133531126Y-55155233D01*
X133420073Y-54886463D01*
X133308000Y-54774194D01*
X133308000Y-53425775D01*
X133419350Y-53314619D01*
X133530873Y-53046043D01*
X133531126Y-52755233D01*
X133420073Y-52486463D01*
X133214619Y-52280650D01*
X132946043Y-52169127D01*
X132655233Y-52168874D01*
X132386463Y-52279927D01*
X132180650Y-52485381D01*
X132069127Y-52753957D01*
X132068874Y-53044767D01*
X122127000Y-53044767D01*
X122127000Y-39553805D01*
X126585800Y-39553805D01*
X126667741Y-39806516D01*
X127228030Y-40010248D01*
X127823635Y-39984058D01*
X128252259Y-39806516D01*
X128334200Y-39553805D01*
X127460000Y-38679605D01*
X126585800Y-39553805D01*
X122127000Y-39553805D01*
X122127000Y-38268030D01*
X125949752Y-38268030D01*
X125975942Y-38863635D01*
X126153484Y-39292259D01*
X126406195Y-39374200D01*
X127280395Y-38500000D01*
X126406195Y-37625800D01*
X126153484Y-37707741D01*
X125949752Y-38268030D01*
X122127000Y-38268030D01*
X122127000Y-36206480D01*
X126215185Y-36206480D01*
X126404264Y-36664088D01*
X126754070Y-37014505D01*
X126926739Y-37086203D01*
X126667741Y-37193484D01*
X126585800Y-37446195D01*
X127460000Y-38320395D01*
X127474143Y-38306253D01*
X127653748Y-38485858D01*
X127639605Y-38500000D01*
X128513805Y-39374200D01*
X128766516Y-39292259D01*
X128866772Y-39016542D01*
X128944264Y-39204088D01*
X129294070Y-39554505D01*
X129751348Y-39744383D01*
X130246480Y-39744815D01*
X130704088Y-39555736D01*
X131054505Y-39205930D01*
X131244383Y-38748652D01*
X131244815Y-38253520D01*
X131055736Y-37795912D01*
X130705930Y-37445495D01*
X130248652Y-37255617D01*
X129753520Y-37255185D01*
X129628500Y-37306842D01*
X129366053Y-37044395D01*
X129751348Y-37204383D01*
X130246480Y-37204815D01*
X130704088Y-37015736D01*
X131054505Y-36665930D01*
X131244383Y-36208652D01*
X131244811Y-35718269D01*
X131287936Y-35675144D01*
X131287936Y-36823600D01*
X131317506Y-36972259D01*
X131401714Y-37098286D01*
X131527741Y-37182494D01*
X131676400Y-37212064D01*
X133051096Y-37212064D01*
X132943319Y-37319840D01*
X132788652Y-37255617D01*
X132293520Y-37255185D01*
X131835912Y-37444264D01*
X131485495Y-37794070D01*
X131295617Y-38251348D01*
X131295185Y-38746480D01*
X131484264Y-39204088D01*
X131524000Y-39243893D01*
X131524000Y-40239159D01*
X127981580Y-43781580D01*
X127761338Y-44111193D01*
X127761338Y-44111194D01*
X127684000Y-44500000D01*
X127684000Y-46300000D01*
X127761338Y-46688806D01*
X127981580Y-47018420D01*
X128311194Y-47238662D01*
X128700000Y-47316000D01*
X129088806Y-47238662D01*
X129418420Y-47018420D01*
X129638662Y-46688806D01*
X129716000Y-46300000D01*
X129716000Y-44920840D01*
X133258420Y-41378421D01*
X133478662Y-41048807D01*
X133491493Y-40984300D01*
X133556000Y-40660000D01*
X133556000Y-39445188D01*
X133588807Y-39438662D01*
X133918420Y-39218420D01*
X135218421Y-37918420D01*
X135438662Y-37588807D01*
X135516000Y-37200000D01*
X135516000Y-32000000D01*
X135438662Y-31611194D01*
X135364364Y-31500000D01*
X135218420Y-31281579D01*
X134953000Y-31016159D01*
X134953000Y-30633169D01*
X134865994Y-30195762D01*
X134618223Y-29824946D01*
X134247407Y-29577175D01*
X133810000Y-29490169D01*
X133372593Y-29577175D01*
X133001777Y-29824946D01*
X132754006Y-30195762D01*
X132667000Y-30633169D01*
X132667000Y-31366831D01*
X132754006Y-31804238D01*
X133001777Y-32175054D01*
X133372593Y-32422825D01*
X133484000Y-32444985D01*
X133484000Y-34723928D01*
X133403600Y-34707936D01*
X131951000Y-34707936D01*
X131951000Y-32260062D01*
X132078223Y-32175054D01*
X132325994Y-31804238D01*
X132413000Y-31366831D01*
X132413000Y-30633169D01*
X132325994Y-30195762D01*
X132078223Y-29824946D01*
X131707407Y-29577175D01*
X131270000Y-29490169D01*
X130832593Y-29577175D01*
X130461777Y-29824946D01*
X130214006Y-30195762D01*
X130127000Y-30633169D01*
X130127000Y-31366831D01*
X130214006Y-31804238D01*
X130461777Y-32175054D01*
X130589000Y-32260062D01*
X130589000Y-34447920D01*
X130299987Y-34736933D01*
X130248652Y-34715617D01*
X129753520Y-34715185D01*
X129295912Y-34904264D01*
X129282401Y-34917751D01*
X129282401Y-32345989D01*
X129538223Y-32175054D01*
X129785994Y-31804238D01*
X129873000Y-31366831D01*
X129873000Y-30633169D01*
X129785994Y-30195762D01*
X129538223Y-29824946D01*
X129167407Y-29577175D01*
X128730000Y-29490169D01*
X128292593Y-29577175D01*
X127921777Y-29824946D01*
X127674006Y-30195762D01*
X127587000Y-30633169D01*
X127587000Y-29773870D01*
X127490327Y-29540481D01*
X127311698Y-29361853D01*
X127078309Y-29265180D01*
X126475750Y-29265180D01*
X126317000Y-29423930D01*
X126317000Y-30873000D01*
X127428250Y-30873000D01*
X127587000Y-30714250D01*
X127587000Y-31285750D01*
X127428250Y-31127000D01*
X126317000Y-31127000D01*
X126317000Y-32576070D01*
X126475750Y-32734820D01*
X127078309Y-32734820D01*
X127311698Y-32638147D01*
X127490327Y-32459519D01*
X127587000Y-32226130D01*
X127587000Y-31366831D01*
X127674006Y-31804238D01*
X127921777Y-32175054D01*
X128120401Y-32307770D01*
X128120401Y-34886590D01*
X127708652Y-34715617D01*
X127213520Y-34715185D01*
X126755912Y-34904264D01*
X126405495Y-35254070D01*
X126215617Y-35711348D01*
X126215185Y-36206480D01*
X122127000Y-36206480D01*
X122127000Y-31285750D01*
X124793000Y-31285750D01*
X124793000Y-32226130D01*
X124889673Y-32459519D01*
X125068302Y-32638147D01*
X125301691Y-32734820D01*
X125904250Y-32734820D01*
X126063000Y-32576070D01*
X126063000Y-31127000D01*
X124951750Y-31127000D01*
X124793000Y-31285750D01*
X122127000Y-31285750D01*
X122127000Y-29773870D01*
X124793000Y-29773870D01*
X124793000Y-30714250D01*
X124951750Y-30873000D01*
X126063000Y-30873000D01*
X126063000Y-29423930D01*
X125904250Y-29265180D01*
X125301691Y-29265180D01*
X125068302Y-29361853D01*
X124889673Y-29540481D01*
X124793000Y-29773870D01*
X122127000Y-29773870D01*
X122127000Y-29668306D01*
X123665048Y-26372487D01*
X124618805Y-26372487D01*
X124904547Y-27064035D01*
X125433182Y-27593594D01*
X126124231Y-27880542D01*
X126872487Y-27881195D01*
X127564035Y-27595453D01*
X128093594Y-27066818D01*
X128380542Y-26375769D01*
X128380544Y-26372487D01*
X131618805Y-26372487D01*
X131904547Y-27064035D01*
X132433182Y-27593594D01*
X133124231Y-27880542D01*
X133872487Y-27881195D01*
X134564035Y-27595453D01*
X135093594Y-27066818D01*
X135380542Y-26375769D01*
X135381195Y-25627513D01*
X135095453Y-24935965D01*
X134566818Y-24406406D01*
X133875769Y-24119458D01*
X133127513Y-24118805D01*
X132435965Y-24404547D01*
X131906406Y-24933182D01*
X131619458Y-25624231D01*
X131618805Y-26372487D01*
X128380544Y-26372487D01*
X128381195Y-25627513D01*
X128095453Y-24935965D01*
X127566818Y-24406406D01*
X126875769Y-24119458D01*
X126127513Y-24118805D01*
X125435965Y-24404547D01*
X124906406Y-24933182D01*
X124619458Y-25624231D01*
X124618805Y-26372487D01*
X123665048Y-26372487D01*
X125298347Y-22872562D01*
X125380150Y-22538688D01*
X125363608Y-22431000D01*
X134636392Y-22431000D01*
X134619850Y-22538688D01*
X134619850Y-22538688D01*
G37*
X134619850Y-22538688D02*
X134701653Y-22872562D01*
X137873000Y-29668306D01*
X137873000Y-104273000D01*
X132127000Y-104273000D01*
X132127000Y-65800000D01*
X132117333Y-65751399D01*
X132089803Y-65710197D01*
X132048601Y-65682667D01*
X132000000Y-65673000D01*
X130400000Y-65673000D01*
X130351399Y-65682667D01*
X130310197Y-65710197D01*
X130282667Y-65751399D01*
X130273000Y-65800000D01*
X130273000Y-104273000D01*
X129646310Y-104273000D01*
X129610868Y-104237496D01*
X129215168Y-104073187D01*
X128786711Y-104072813D01*
X128665249Y-104123000D01*
X128475678Y-104123000D01*
X128443016Y-104101176D01*
X128275616Y-104067878D01*
X124604000Y-100396262D01*
X124604000Y-68873199D01*
X124745018Y-68662150D01*
X124827000Y-68250000D01*
X124827000Y-67900940D01*
X124827187Y-67686711D01*
X124827000Y-67686258D01*
X124827000Y-67200940D01*
X124827187Y-66986711D01*
X124827000Y-66986258D01*
X124827000Y-66500940D01*
X124827187Y-66286711D01*
X124663569Y-65890725D01*
X124360868Y-65587496D01*
X123965168Y-65423187D01*
X123536711Y-65422813D01*
X123140725Y-65586431D01*
X122837496Y-65889132D01*
X122673187Y-66284832D01*
X122672813Y-66713289D01*
X122673000Y-66713742D01*
X122673000Y-67199061D01*
X122672813Y-67413289D01*
X122673000Y-67413742D01*
X122673000Y-67899061D01*
X122672813Y-68113289D01*
X122673000Y-68113742D01*
X122673000Y-68250000D01*
X122754982Y-68662150D01*
X122896000Y-68873199D01*
X122896000Y-100750000D01*
X122961007Y-101076812D01*
X123128051Y-101326811D01*
X123146131Y-101353869D01*
X126065262Y-104273000D01*
X122127000Y-104273000D01*
X122127000Y-64894763D01*
X124518874Y-64894763D01*
X124629927Y-65163533D01*
X124835381Y-65369346D01*
X125103957Y-65480869D01*
X125394767Y-65481122D01*
X125663537Y-65370069D01*
X125869350Y-65164615D01*
X125965883Y-64932139D01*
X126049012Y-64849010D01*
X126499010Y-64399011D01*
X126499013Y-64399009D01*
X126636664Y-64193000D01*
X126649211Y-64129923D01*
X126685001Y-63949996D01*
X126685000Y-63949991D01*
X126685000Y-59744767D01*
X126968874Y-59744767D01*
X127079927Y-60013537D01*
X127285381Y-60219350D01*
X127553957Y-60330873D01*
X127844767Y-60331126D01*
X128113537Y-60220073D01*
X128225806Y-60108000D01*
X130677639Y-60108000D01*
X130679927Y-60113537D01*
X130885381Y-60319350D01*
X131153957Y-60430873D01*
X131444767Y-60431126D01*
X131713537Y-60320073D01*
X131919350Y-60114619D01*
X131942860Y-60058000D01*
X133124225Y-60058000D01*
X133235381Y-60169350D01*
X133503957Y-60280873D01*
X133794767Y-60281126D01*
X134063537Y-60170073D01*
X134269350Y-59964619D01*
X134380873Y-59696043D01*
X134381126Y-59405233D01*
X134270073Y-59136463D01*
X134064619Y-58930650D01*
X133796043Y-58819127D01*
X133505233Y-58818874D01*
X133236463Y-58929927D01*
X133124194Y-59042000D01*
X131621540Y-59042000D01*
X131446043Y-58969127D01*
X131155233Y-58968874D01*
X130886463Y-59079927D01*
X130874369Y-59092000D01*
X128225775Y-59092000D01*
X128114619Y-58980650D01*
X127846043Y-58869127D01*
X127555233Y-58868874D01*
X127286463Y-58979927D01*
X127080650Y-59185381D01*
X126969127Y-59453957D01*
X126968874Y-59744767D01*
X126685000Y-59744767D01*
X126685000Y-58126932D01*
X126780873Y-57896045D01*
X126781126Y-57605235D01*
X126670073Y-57336465D01*
X126464619Y-57130652D01*
X126196043Y-57019129D01*
X125905233Y-57018876D01*
X125636463Y-57129929D01*
X125430650Y-57335383D01*
X125319127Y-57603959D01*
X125318874Y-57894769D01*
X125415000Y-58127413D01*
X125415000Y-63686971D01*
X125150986Y-63950984D01*
X125067516Y-64034454D01*
X124836463Y-64129923D01*
X124630650Y-64335377D01*
X124519127Y-64603953D01*
X124518874Y-64894763D01*
X122127000Y-64894763D01*
X122127000Y-53044767D01*
X132068874Y-53044767D01*
X132179927Y-53313537D01*
X132292000Y-53425806D01*
X132292000Y-54774225D01*
X132180650Y-54885381D01*
X132069127Y-55153957D01*
X132068874Y-55444767D01*
X132179927Y-55713537D01*
X132385381Y-55919350D01*
X132653957Y-56030873D01*
X132944767Y-56031126D01*
X133213537Y-55920073D01*
X133419350Y-55714619D01*
X133530873Y-55446043D01*
X133531126Y-55155233D01*
X133420073Y-54886463D01*
X133308000Y-54774194D01*
X133308000Y-53425775D01*
X133419350Y-53314619D01*
X133530873Y-53046043D01*
X133531126Y-52755233D01*
X133420073Y-52486463D01*
X133214619Y-52280650D01*
X132946043Y-52169127D01*
X132655233Y-52168874D01*
X132386463Y-52279927D01*
X132180650Y-52485381D01*
X132069127Y-52753957D01*
X132068874Y-53044767D01*
X122127000Y-53044767D01*
X122127000Y-39553805D01*
X126585800Y-39553805D01*
X126667741Y-39806516D01*
X127228030Y-40010248D01*
X127823635Y-39984058D01*
X128252259Y-39806516D01*
X128334200Y-39553805D01*
X127460000Y-38679605D01*
X126585800Y-39553805D01*
X122127000Y-39553805D01*
X122127000Y-38268030D01*
X125949752Y-38268030D01*
X125975942Y-38863635D01*
X126153484Y-39292259D01*
X126406195Y-39374200D01*
X127280395Y-38500000D01*
X126406195Y-37625800D01*
X126153484Y-37707741D01*
X125949752Y-38268030D01*
X122127000Y-38268030D01*
X122127000Y-36206480D01*
X126215185Y-36206480D01*
X126404264Y-36664088D01*
X126754070Y-37014505D01*
X126926739Y-37086203D01*
X126667741Y-37193484D01*
X126585800Y-37446195D01*
X127460000Y-38320395D01*
X127474143Y-38306253D01*
X127653748Y-38485858D01*
X127639605Y-38500000D01*
X128513805Y-39374200D01*
X128766516Y-39292259D01*
X128866772Y-39016542D01*
X128944264Y-39204088D01*
X129294070Y-39554505D01*
X129751348Y-39744383D01*
X130246480Y-39744815D01*
X130704088Y-39555736D01*
X131054505Y-39205930D01*
X131244383Y-38748652D01*
X131244815Y-38253520D01*
X131055736Y-37795912D01*
X130705930Y-37445495D01*
X130248652Y-37255617D01*
X129753520Y-37255185D01*
X129628500Y-37306842D01*
X129366053Y-37044395D01*
X129751348Y-37204383D01*
X130246480Y-37204815D01*
X130704088Y-37015736D01*
X131054505Y-36665930D01*
X131244383Y-36208652D01*
X131244811Y-35718269D01*
X131287936Y-35675144D01*
X131287936Y-36823600D01*
X131317506Y-36972259D01*
X131401714Y-37098286D01*
X131527741Y-37182494D01*
X131676400Y-37212064D01*
X133051096Y-37212064D01*
X132943319Y-37319840D01*
X132788652Y-37255617D01*
X132293520Y-37255185D01*
X131835912Y-37444264D01*
X131485495Y-37794070D01*
X131295617Y-38251348D01*
X131295185Y-38746480D01*
X131484264Y-39204088D01*
X131524000Y-39243893D01*
X131524000Y-40239159D01*
X127981580Y-43781580D01*
X127761338Y-44111193D01*
X127761338Y-44111194D01*
X127684000Y-44500000D01*
X127684000Y-46300000D01*
X127761338Y-46688806D01*
X127981580Y-47018420D01*
X128311194Y-47238662D01*
X128700000Y-47316000D01*
X129088806Y-47238662D01*
X129418420Y-47018420D01*
X129638662Y-46688806D01*
X129716000Y-46300000D01*
X129716000Y-44920840D01*
X133258420Y-41378421D01*
X133478662Y-41048807D01*
X133491493Y-40984300D01*
X133556000Y-40660000D01*
X133556000Y-39445188D01*
X133588807Y-39438662D01*
X133918420Y-39218420D01*
X135218421Y-37918420D01*
X135438662Y-37588807D01*
X135516000Y-37200000D01*
X135516000Y-32000000D01*
X135438662Y-31611194D01*
X135364364Y-31500000D01*
X135218420Y-31281579D01*
X134953000Y-31016159D01*
X134953000Y-30633169D01*
X134865994Y-30195762D01*
X134618223Y-29824946D01*
X134247407Y-29577175D01*
X133810000Y-29490169D01*
X133372593Y-29577175D01*
X133001777Y-29824946D01*
X132754006Y-30195762D01*
X132667000Y-30633169D01*
X132667000Y-31366831D01*
X132754006Y-31804238D01*
X133001777Y-32175054D01*
X133372593Y-32422825D01*
X133484000Y-32444985D01*
X133484000Y-34723928D01*
X133403600Y-34707936D01*
X131951000Y-34707936D01*
X131951000Y-32260062D01*
X132078223Y-32175054D01*
X132325994Y-31804238D01*
X132413000Y-31366831D01*
X132413000Y-30633169D01*
X132325994Y-30195762D01*
X132078223Y-29824946D01*
X131707407Y-29577175D01*
X131270000Y-29490169D01*
X130832593Y-29577175D01*
X130461777Y-29824946D01*
X130214006Y-30195762D01*
X130127000Y-30633169D01*
X130127000Y-31366831D01*
X130214006Y-31804238D01*
X130461777Y-32175054D01*
X130589000Y-32260062D01*
X130589000Y-34447920D01*
X130299987Y-34736933D01*
X130248652Y-34715617D01*
X129753520Y-34715185D01*
X129295912Y-34904264D01*
X129282401Y-34917751D01*
X129282401Y-32345989D01*
X129538223Y-32175054D01*
X129785994Y-31804238D01*
X129873000Y-31366831D01*
X129873000Y-30633169D01*
X129785994Y-30195762D01*
X129538223Y-29824946D01*
X129167407Y-29577175D01*
X128730000Y-29490169D01*
X128292593Y-29577175D01*
X127921777Y-29824946D01*
X127674006Y-30195762D01*
X127587000Y-30633169D01*
X127587000Y-29773870D01*
X127490327Y-29540481D01*
X127311698Y-29361853D01*
X127078309Y-29265180D01*
X126475750Y-29265180D01*
X126317000Y-29423930D01*
X126317000Y-30873000D01*
X127428250Y-30873000D01*
X127587000Y-30714250D01*
X127587000Y-31285750D01*
X127428250Y-31127000D01*
X126317000Y-31127000D01*
X126317000Y-32576070D01*
X126475750Y-32734820D01*
X127078309Y-32734820D01*
X127311698Y-32638147D01*
X127490327Y-32459519D01*
X127587000Y-32226130D01*
X127587000Y-31366831D01*
X127674006Y-31804238D01*
X127921777Y-32175054D01*
X128120401Y-32307770D01*
X128120401Y-34886590D01*
X127708652Y-34715617D01*
X127213520Y-34715185D01*
X126755912Y-34904264D01*
X126405495Y-35254070D01*
X126215617Y-35711348D01*
X126215185Y-36206480D01*
X122127000Y-36206480D01*
X122127000Y-31285750D01*
X124793000Y-31285750D01*
X124793000Y-32226130D01*
X124889673Y-32459519D01*
X125068302Y-32638147D01*
X125301691Y-32734820D01*
X125904250Y-32734820D01*
X126063000Y-32576070D01*
X126063000Y-31127000D01*
X124951750Y-31127000D01*
X124793000Y-31285750D01*
X122127000Y-31285750D01*
X122127000Y-29773870D01*
X124793000Y-29773870D01*
X124793000Y-30714250D01*
X124951750Y-30873000D01*
X126063000Y-30873000D01*
X126063000Y-29423930D01*
X125904250Y-29265180D01*
X125301691Y-29265180D01*
X125068302Y-29361853D01*
X124889673Y-29540481D01*
X124793000Y-29773870D01*
X122127000Y-29773870D01*
X122127000Y-29668306D01*
X123665048Y-26372487D01*
X124618805Y-26372487D01*
X124904547Y-27064035D01*
X125433182Y-27593594D01*
X126124231Y-27880542D01*
X126872487Y-27881195D01*
X127564035Y-27595453D01*
X128093594Y-27066818D01*
X128380542Y-26375769D01*
X128380544Y-26372487D01*
X131618805Y-26372487D01*
X131904547Y-27064035D01*
X132433182Y-27593594D01*
X133124231Y-27880542D01*
X133872487Y-27881195D01*
X134564035Y-27595453D01*
X135093594Y-27066818D01*
X135380542Y-26375769D01*
X135381195Y-25627513D01*
X135095453Y-24935965D01*
X134566818Y-24406406D01*
X133875769Y-24119458D01*
X133127513Y-24118805D01*
X132435965Y-24404547D01*
X131906406Y-24933182D01*
X131619458Y-25624231D01*
X131618805Y-26372487D01*
X128380544Y-26372487D01*
X128381195Y-25627513D01*
X128095453Y-24935965D01*
X127566818Y-24406406D01*
X126875769Y-24119458D01*
X126127513Y-24118805D01*
X125435965Y-24404547D01*
X124906406Y-24933182D01*
X124619458Y-25624231D01*
X124618805Y-26372487D01*
X123665048Y-26372487D01*
X125298347Y-22872562D01*
X125380150Y-22538688D01*
X125363608Y-22431000D01*
X134636392Y-22431000D01*
X134619850Y-22538688D01*
G36*
X145017878Y-105225616D02*
X145051176Y-105393016D01*
X145073000Y-105425678D01*
X145073000Y-105764871D01*
X145023187Y-105884834D01*
X145022813Y-106313291D01*
X145186431Y-106709277D01*
X145489132Y-107012506D01*
X145884832Y-107176815D01*
X146313289Y-107177189D01*
X146709275Y-107013571D01*
X147012504Y-106710870D01*
X147062904Y-106589494D01*
X147589224Y-106063173D01*
X147709275Y-106013569D01*
X148012504Y-105710868D01*
X148176813Y-105315168D01*
X148177187Y-104886711D01*
X148013569Y-104490725D01*
X147949955Y-104427000D01*
X155873000Y-104427000D01*
X155873000Y-157958702D01*
X148000000Y-168784077D01*
X140127000Y-157958702D01*
X140127000Y-104427000D01*
X144219262Y-104427000D01*
X145017878Y-105225616D01*
X145017878Y-105225616D01*
G37*
X145017878Y-105225616D02*
X145051176Y-105393016D01*
X145073000Y-105425678D01*
X145073000Y-105764871D01*
X145023187Y-105884834D01*
X145022813Y-106313291D01*
X145186431Y-106709277D01*
X145489132Y-107012506D01*
X145884832Y-107176815D01*
X146313289Y-107177189D01*
X146709275Y-107013571D01*
X147012504Y-106710870D01*
X147062904Y-106589494D01*
X147589224Y-106063173D01*
X147709275Y-106013569D01*
X148012504Y-105710868D01*
X148176813Y-105315168D01*
X148177187Y-104886711D01*
X148013569Y-104490725D01*
X147949955Y-104427000D01*
X155873000Y-104427000D01*
X155873000Y-157958702D01*
X148000000Y-168784077D01*
X140127000Y-157958702D01*
X140127000Y-104427000D01*
X144219262Y-104427000D01*
X145017878Y-105225616D01*
G36*
X152619850Y-22538688D02*
X152701653Y-22872562D01*
X155873000Y-29668306D01*
X155873000Y-104273000D01*
X150127000Y-104273000D01*
X150127000Y-65800000D01*
X150117333Y-65751399D01*
X150089803Y-65710197D01*
X150048601Y-65682667D01*
X150000000Y-65673000D01*
X148400000Y-65673000D01*
X148351399Y-65682667D01*
X148310197Y-65710197D01*
X148282667Y-65751399D01*
X148273000Y-65800000D01*
X148273000Y-104273000D01*
X147796223Y-104273000D01*
X147710868Y-104187496D01*
X147315168Y-104023187D01*
X146886711Y-104022813D01*
X146765249Y-104073000D01*
X146425678Y-104073000D01*
X146393016Y-104051176D01*
X146225616Y-104017878D01*
X142604000Y-100396262D01*
X142604000Y-68923199D01*
X142745018Y-68712150D01*
X142827000Y-68300000D01*
X142827000Y-67900940D01*
X142827187Y-67686711D01*
X142827000Y-67686258D01*
X142827000Y-67200940D01*
X142827187Y-66986711D01*
X142827000Y-66986258D01*
X142827000Y-66500940D01*
X142827187Y-66286711D01*
X142663569Y-65890725D01*
X142360868Y-65587496D01*
X141965168Y-65423187D01*
X141536711Y-65422813D01*
X141140725Y-65586431D01*
X140837496Y-65889132D01*
X140673187Y-66284832D01*
X140672813Y-66713289D01*
X140673000Y-66713742D01*
X140673000Y-67199061D01*
X140672813Y-67413289D01*
X140673000Y-67413742D01*
X140673000Y-67899061D01*
X140672813Y-68113289D01*
X140673000Y-68113742D01*
X140673000Y-68300000D01*
X140754982Y-68712150D01*
X140896000Y-68923199D01*
X140896000Y-100750000D01*
X140961007Y-101076812D01*
X141128051Y-101326811D01*
X141146131Y-101353869D01*
X144065262Y-104273000D01*
X140127000Y-104273000D01*
X140127000Y-64894763D01*
X142518874Y-64894763D01*
X142629927Y-65163533D01*
X142835381Y-65369346D01*
X143103957Y-65480869D01*
X143394767Y-65481122D01*
X143663537Y-65370069D01*
X143869350Y-65164615D01*
X143965883Y-64932139D01*
X144049012Y-64849010D01*
X144499010Y-64399011D01*
X144499013Y-64399009D01*
X144636664Y-64193000D01*
X144649211Y-64129923D01*
X144685001Y-63949996D01*
X144685000Y-63949991D01*
X144685000Y-59744767D01*
X145068874Y-59744767D01*
X145179927Y-60013537D01*
X145385381Y-60219350D01*
X145653957Y-60330873D01*
X145944767Y-60331126D01*
X146213537Y-60220073D01*
X146325806Y-60108000D01*
X148774233Y-60108000D01*
X148885381Y-60219342D01*
X149153957Y-60330865D01*
X149444767Y-60331118D01*
X149713537Y-60220065D01*
X149919350Y-60014611D01*
X149922095Y-60008000D01*
X151124225Y-60008000D01*
X151235381Y-60119350D01*
X151503957Y-60230873D01*
X151794767Y-60231126D01*
X152063537Y-60120073D01*
X152269350Y-59914619D01*
X152380873Y-59646043D01*
X152381126Y-59355233D01*
X152270073Y-59086463D01*
X152064619Y-58880650D01*
X151796043Y-58769127D01*
X151505233Y-58768874D01*
X151236463Y-58879927D01*
X151124194Y-58992000D01*
X149725957Y-58992000D01*
X149714619Y-58980642D01*
X149446043Y-58869119D01*
X149155233Y-58868866D01*
X148886463Y-58979919D01*
X148774186Y-59092000D01*
X146325775Y-59092000D01*
X146214619Y-58980650D01*
X145946043Y-58869127D01*
X145655233Y-58868874D01*
X145386463Y-58979927D01*
X145180650Y-59185381D01*
X145069127Y-59453957D01*
X145068874Y-59744767D01*
X144685000Y-59744767D01*
X144685000Y-58126932D01*
X144780873Y-57896045D01*
X144781126Y-57605235D01*
X144670073Y-57336465D01*
X144464619Y-57130652D01*
X144196043Y-57019129D01*
X143905233Y-57018876D01*
X143636463Y-57129929D01*
X143430650Y-57335383D01*
X143319127Y-57603959D01*
X143318874Y-57894769D01*
X143415000Y-58127413D01*
X143415000Y-63686971D01*
X143150986Y-63950984D01*
X143067516Y-64034454D01*
X142836463Y-64129923D01*
X142630650Y-64335377D01*
X142519127Y-64603953D01*
X142518874Y-64894763D01*
X140127000Y-64894763D01*
X140127000Y-53044767D01*
X150068874Y-53044767D01*
X150179927Y-53313537D01*
X150292000Y-53425806D01*
X150292000Y-54774225D01*
X150180650Y-54885381D01*
X150069127Y-55153957D01*
X150068874Y-55444767D01*
X150179927Y-55713537D01*
X150385381Y-55919350D01*
X150653957Y-56030873D01*
X150944767Y-56031126D01*
X151213537Y-55920073D01*
X151419350Y-55714619D01*
X151530873Y-55446043D01*
X151531126Y-55155233D01*
X151420073Y-54886463D01*
X151308000Y-54774194D01*
X151308000Y-53425775D01*
X151419350Y-53314619D01*
X151530873Y-53046043D01*
X151531126Y-52755233D01*
X151420073Y-52486463D01*
X151214619Y-52280650D01*
X150946043Y-52169127D01*
X150655233Y-52168874D01*
X150386463Y-52279927D01*
X150180650Y-52485381D01*
X150069127Y-52753957D01*
X150068874Y-53044767D01*
X140127000Y-53044767D01*
X140127000Y-39553805D01*
X144585800Y-39553805D01*
X144667741Y-39806516D01*
X145228030Y-40010248D01*
X145823635Y-39984058D01*
X146252259Y-39806516D01*
X146334200Y-39553805D01*
X145460000Y-38679605D01*
X144585800Y-39553805D01*
X140127000Y-39553805D01*
X140127000Y-38268030D01*
X143949752Y-38268030D01*
X143975942Y-38863635D01*
X144153484Y-39292259D01*
X144406195Y-39374200D01*
X145280395Y-38500000D01*
X144406195Y-37625800D01*
X144153484Y-37707741D01*
X143949752Y-38268030D01*
X140127000Y-38268030D01*
X140127000Y-36206480D01*
X144215185Y-36206480D01*
X144404264Y-36664088D01*
X144754070Y-37014505D01*
X144926739Y-37086203D01*
X144667741Y-37193484D01*
X144585800Y-37446195D01*
X145460000Y-38320395D01*
X145474143Y-38306253D01*
X145653748Y-38485858D01*
X145639605Y-38500000D01*
X146513805Y-39374200D01*
X146766516Y-39292259D01*
X146866772Y-39016542D01*
X146944264Y-39204088D01*
X147294070Y-39554505D01*
X147751348Y-39744383D01*
X148246480Y-39744815D01*
X148704088Y-39555736D01*
X149054505Y-39205930D01*
X149244383Y-38748652D01*
X149244815Y-38253520D01*
X149055736Y-37795912D01*
X148705930Y-37445495D01*
X148248652Y-37255617D01*
X147753520Y-37255185D01*
X147557738Y-37336080D01*
X147311000Y-37089342D01*
X147311000Y-37021535D01*
X147751348Y-37204383D01*
X148246480Y-37204815D01*
X148704088Y-37015736D01*
X149054505Y-36665930D01*
X149244383Y-36208652D01*
X149244815Y-35713520D01*
X149216964Y-35646116D01*
X149287936Y-35575144D01*
X149287936Y-36823600D01*
X149317506Y-36972259D01*
X149401714Y-37098286D01*
X149527741Y-37182494D01*
X149676400Y-37212064D01*
X151151096Y-37212064D01*
X151013979Y-37349181D01*
X150788652Y-37255617D01*
X150293520Y-37255185D01*
X149835912Y-37444264D01*
X149485495Y-37794070D01*
X149295617Y-38251348D01*
X149295185Y-38746480D01*
X149484264Y-39204088D01*
X149524000Y-39243893D01*
X149524000Y-40239159D01*
X145981580Y-43781580D01*
X145761338Y-44111193D01*
X145761338Y-44111194D01*
X145684000Y-44500000D01*
X145684000Y-46300000D01*
X145761338Y-46688806D01*
X145981580Y-47018420D01*
X146311194Y-47238662D01*
X146700000Y-47316000D01*
X147088806Y-47238662D01*
X147418420Y-47018420D01*
X147638662Y-46688806D01*
X147716000Y-46300000D01*
X147716000Y-44920840D01*
X151258420Y-41378421D01*
X151478662Y-41048807D01*
X151491493Y-40984300D01*
X151556000Y-40660000D01*
X151556000Y-39465079D01*
X151624300Y-39451493D01*
X151688807Y-39438662D01*
X152018420Y-39218420D01*
X153218420Y-38018421D01*
X153438661Y-37688807D01*
X153438662Y-37688806D01*
X153516000Y-37300000D01*
X153516000Y-31690000D01*
X153438662Y-31301194D01*
X153296992Y-31089171D01*
X153218420Y-30971579D01*
X152953000Y-30706159D01*
X152953000Y-30633169D01*
X152865994Y-30195762D01*
X152618223Y-29824946D01*
X152247407Y-29577175D01*
X151810000Y-29490169D01*
X151372593Y-29577175D01*
X151001777Y-29824946D01*
X150754006Y-30195762D01*
X150667000Y-30633169D01*
X150667000Y-31366831D01*
X150754006Y-31804238D01*
X151001777Y-32175054D01*
X151372593Y-32422825D01*
X151484000Y-32444985D01*
X151484000Y-34723928D01*
X151403600Y-34707936D01*
X149935498Y-34707936D01*
X149951000Y-34630000D01*
X149951000Y-32260062D01*
X150078223Y-32175054D01*
X150325994Y-31804238D01*
X150413000Y-31366831D01*
X150413000Y-30633169D01*
X150325994Y-30195762D01*
X150078223Y-29824946D01*
X149707407Y-29577175D01*
X149270000Y-29490169D01*
X148832593Y-29577175D01*
X148461777Y-29824946D01*
X148214006Y-30195762D01*
X148127000Y-30633169D01*
X148127000Y-31366831D01*
X148214006Y-31804238D01*
X148461777Y-32175054D01*
X148589000Y-32260062D01*
X148589000Y-34347920D01*
X148221327Y-34715593D01*
X147753520Y-34715185D01*
X147311000Y-34898030D01*
X147311000Y-32326879D01*
X147538223Y-32175054D01*
X147785994Y-31804238D01*
X147873000Y-31366831D01*
X147873000Y-30633169D01*
X147785994Y-30195762D01*
X147538223Y-29824946D01*
X147167407Y-29577175D01*
X146730000Y-29490169D01*
X146292593Y-29577175D01*
X145921777Y-29824946D01*
X145674006Y-30195762D01*
X145587000Y-30633169D01*
X145587000Y-29773870D01*
X145490327Y-29540481D01*
X145311698Y-29361853D01*
X145078309Y-29265180D01*
X144475750Y-29265180D01*
X144317000Y-29423930D01*
X144317000Y-30873000D01*
X145428250Y-30873000D01*
X145587000Y-30714250D01*
X145587000Y-31285750D01*
X145428250Y-31127000D01*
X144317000Y-31127000D01*
X144317000Y-32576070D01*
X144475750Y-32734820D01*
X145078309Y-32734820D01*
X145311698Y-32638147D01*
X145490327Y-32459519D01*
X145587000Y-32226130D01*
X145587000Y-31366831D01*
X145674006Y-31804238D01*
X145921777Y-32175054D01*
X146149000Y-32326879D01*
X146149000Y-34898465D01*
X145708652Y-34715617D01*
X145213520Y-34715185D01*
X144755912Y-34904264D01*
X144405495Y-35254070D01*
X144215617Y-35711348D01*
X144215185Y-36206480D01*
X140127000Y-36206480D01*
X140127000Y-31285750D01*
X142793000Y-31285750D01*
X142793000Y-32226130D01*
X142889673Y-32459519D01*
X143068302Y-32638147D01*
X143301691Y-32734820D01*
X143904250Y-32734820D01*
X144063000Y-32576070D01*
X144063000Y-31127000D01*
X142951750Y-31127000D01*
X142793000Y-31285750D01*
X140127000Y-31285750D01*
X140127000Y-29773870D01*
X142793000Y-29773870D01*
X142793000Y-30714250D01*
X142951750Y-30873000D01*
X144063000Y-30873000D01*
X144063000Y-29423930D01*
X143904250Y-29265180D01*
X143301691Y-29265180D01*
X143068302Y-29361853D01*
X142889673Y-29540481D01*
X142793000Y-29773870D01*
X140127000Y-29773870D01*
X140127000Y-29668306D01*
X141665048Y-26372487D01*
X142618805Y-26372487D01*
X142904547Y-27064035D01*
X143433182Y-27593594D01*
X144124231Y-27880542D01*
X144872487Y-27881195D01*
X145564035Y-27595453D01*
X146093594Y-27066818D01*
X146380542Y-26375769D01*
X146380544Y-26372487D01*
X149618805Y-26372487D01*
X149904547Y-27064035D01*
X150433182Y-27593594D01*
X151124231Y-27880542D01*
X151872487Y-27881195D01*
X152564035Y-27595453D01*
X153093594Y-27066818D01*
X153380542Y-26375769D01*
X153381195Y-25627513D01*
X153095453Y-24935965D01*
X152566818Y-24406406D01*
X151875769Y-24119458D01*
X151127513Y-24118805D01*
X150435965Y-24404547D01*
X149906406Y-24933182D01*
X149619458Y-25624231D01*
X149618805Y-26372487D01*
X146380544Y-26372487D01*
X146381195Y-25627513D01*
X146095453Y-24935965D01*
X145566818Y-24406406D01*
X144875769Y-24119458D01*
X144127513Y-24118805D01*
X143435965Y-24404547D01*
X142906406Y-24933182D01*
X142619458Y-25624231D01*
X142618805Y-26372487D01*
X141665048Y-26372487D01*
X143298347Y-22872562D01*
X143380150Y-22538688D01*
X143363608Y-22431000D01*
X152636392Y-22431000D01*
X152619850Y-22538688D01*
X152619850Y-22538688D01*
G37*
X152619850Y-22538688D02*
X152701653Y-22872562D01*
X155873000Y-29668306D01*
X155873000Y-104273000D01*
X150127000Y-104273000D01*
X150127000Y-65800000D01*
X150117333Y-65751399D01*
X150089803Y-65710197D01*
X150048601Y-65682667D01*
X150000000Y-65673000D01*
X148400000Y-65673000D01*
X148351399Y-65682667D01*
X148310197Y-65710197D01*
X148282667Y-65751399D01*
X148273000Y-65800000D01*
X148273000Y-104273000D01*
X147796223Y-104273000D01*
X147710868Y-104187496D01*
X147315168Y-104023187D01*
X146886711Y-104022813D01*
X146765249Y-104073000D01*
X146425678Y-104073000D01*
X146393016Y-104051176D01*
X146225616Y-104017878D01*
X142604000Y-100396262D01*
X142604000Y-68923199D01*
X142745018Y-68712150D01*
X142827000Y-68300000D01*
X142827000Y-67900940D01*
X142827187Y-67686711D01*
X142827000Y-67686258D01*
X142827000Y-67200940D01*
X142827187Y-66986711D01*
X142827000Y-66986258D01*
X142827000Y-66500940D01*
X142827187Y-66286711D01*
X142663569Y-65890725D01*
X142360868Y-65587496D01*
X141965168Y-65423187D01*
X141536711Y-65422813D01*
X141140725Y-65586431D01*
X140837496Y-65889132D01*
X140673187Y-66284832D01*
X140672813Y-66713289D01*
X140673000Y-66713742D01*
X140673000Y-67199061D01*
X140672813Y-67413289D01*
X140673000Y-67413742D01*
X140673000Y-67899061D01*
X140672813Y-68113289D01*
X140673000Y-68113742D01*
X140673000Y-68300000D01*
X140754982Y-68712150D01*
X140896000Y-68923199D01*
X140896000Y-100750000D01*
X140961007Y-101076812D01*
X141128051Y-101326811D01*
X141146131Y-101353869D01*
X144065262Y-104273000D01*
X140127000Y-104273000D01*
X140127000Y-64894763D01*
X142518874Y-64894763D01*
X142629927Y-65163533D01*
X142835381Y-65369346D01*
X143103957Y-65480869D01*
X143394767Y-65481122D01*
X143663537Y-65370069D01*
X143869350Y-65164615D01*
X143965883Y-64932139D01*
X144049012Y-64849010D01*
X144499010Y-64399011D01*
X144499013Y-64399009D01*
X144636664Y-64193000D01*
X144649211Y-64129923D01*
X144685001Y-63949996D01*
X144685000Y-63949991D01*
X144685000Y-59744767D01*
X145068874Y-59744767D01*
X145179927Y-60013537D01*
X145385381Y-60219350D01*
X145653957Y-60330873D01*
X145944767Y-60331126D01*
X146213537Y-60220073D01*
X146325806Y-60108000D01*
X148774233Y-60108000D01*
X148885381Y-60219342D01*
X149153957Y-60330865D01*
X149444767Y-60331118D01*
X149713537Y-60220065D01*
X149919350Y-60014611D01*
X149922095Y-60008000D01*
X151124225Y-60008000D01*
X151235381Y-60119350D01*
X151503957Y-60230873D01*
X151794767Y-60231126D01*
X152063537Y-60120073D01*
X152269350Y-59914619D01*
X152380873Y-59646043D01*
X152381126Y-59355233D01*
X152270073Y-59086463D01*
X152064619Y-58880650D01*
X151796043Y-58769127D01*
X151505233Y-58768874D01*
X151236463Y-58879927D01*
X151124194Y-58992000D01*
X149725957Y-58992000D01*
X149714619Y-58980642D01*
X149446043Y-58869119D01*
X149155233Y-58868866D01*
X148886463Y-58979919D01*
X148774186Y-59092000D01*
X146325775Y-59092000D01*
X146214619Y-58980650D01*
X145946043Y-58869127D01*
X145655233Y-58868874D01*
X145386463Y-58979927D01*
X145180650Y-59185381D01*
X145069127Y-59453957D01*
X145068874Y-59744767D01*
X144685000Y-59744767D01*
X144685000Y-58126932D01*
X144780873Y-57896045D01*
X144781126Y-57605235D01*
X144670073Y-57336465D01*
X144464619Y-57130652D01*
X144196043Y-57019129D01*
X143905233Y-57018876D01*
X143636463Y-57129929D01*
X143430650Y-57335383D01*
X143319127Y-57603959D01*
X143318874Y-57894769D01*
X143415000Y-58127413D01*
X143415000Y-63686971D01*
X143150986Y-63950984D01*
X143067516Y-64034454D01*
X142836463Y-64129923D01*
X142630650Y-64335377D01*
X142519127Y-64603953D01*
X142518874Y-64894763D01*
X140127000Y-64894763D01*
X140127000Y-53044767D01*
X150068874Y-53044767D01*
X150179927Y-53313537D01*
X150292000Y-53425806D01*
X150292000Y-54774225D01*
X150180650Y-54885381D01*
X150069127Y-55153957D01*
X150068874Y-55444767D01*
X150179927Y-55713537D01*
X150385381Y-55919350D01*
X150653957Y-56030873D01*
X150944767Y-56031126D01*
X151213537Y-55920073D01*
X151419350Y-55714619D01*
X151530873Y-55446043D01*
X151531126Y-55155233D01*
X151420073Y-54886463D01*
X151308000Y-54774194D01*
X151308000Y-53425775D01*
X151419350Y-53314619D01*
X151530873Y-53046043D01*
X151531126Y-52755233D01*
X151420073Y-52486463D01*
X151214619Y-52280650D01*
X150946043Y-52169127D01*
X150655233Y-52168874D01*
X150386463Y-52279927D01*
X150180650Y-52485381D01*
X150069127Y-52753957D01*
X150068874Y-53044767D01*
X140127000Y-53044767D01*
X140127000Y-39553805D01*
X144585800Y-39553805D01*
X144667741Y-39806516D01*
X145228030Y-40010248D01*
X145823635Y-39984058D01*
X146252259Y-39806516D01*
X146334200Y-39553805D01*
X145460000Y-38679605D01*
X144585800Y-39553805D01*
X140127000Y-39553805D01*
X140127000Y-38268030D01*
X143949752Y-38268030D01*
X143975942Y-38863635D01*
X144153484Y-39292259D01*
X144406195Y-39374200D01*
X145280395Y-38500000D01*
X144406195Y-37625800D01*
X144153484Y-37707741D01*
X143949752Y-38268030D01*
X140127000Y-38268030D01*
X140127000Y-36206480D01*
X144215185Y-36206480D01*
X144404264Y-36664088D01*
X144754070Y-37014505D01*
X144926739Y-37086203D01*
X144667741Y-37193484D01*
X144585800Y-37446195D01*
X145460000Y-38320395D01*
X145474143Y-38306253D01*
X145653748Y-38485858D01*
X145639605Y-38500000D01*
X146513805Y-39374200D01*
X146766516Y-39292259D01*
X146866772Y-39016542D01*
X146944264Y-39204088D01*
X147294070Y-39554505D01*
X147751348Y-39744383D01*
X148246480Y-39744815D01*
X148704088Y-39555736D01*
X149054505Y-39205930D01*
X149244383Y-38748652D01*
X149244815Y-38253520D01*
X149055736Y-37795912D01*
X148705930Y-37445495D01*
X148248652Y-37255617D01*
X147753520Y-37255185D01*
X147557738Y-37336080D01*
X147311000Y-37089342D01*
X147311000Y-37021535D01*
X147751348Y-37204383D01*
X148246480Y-37204815D01*
X148704088Y-37015736D01*
X149054505Y-36665930D01*
X149244383Y-36208652D01*
X149244815Y-35713520D01*
X149216964Y-35646116D01*
X149287936Y-35575144D01*
X149287936Y-36823600D01*
X149317506Y-36972259D01*
X149401714Y-37098286D01*
X149527741Y-37182494D01*
X149676400Y-37212064D01*
X151151096Y-37212064D01*
X151013979Y-37349181D01*
X150788652Y-37255617D01*
X150293520Y-37255185D01*
X149835912Y-37444264D01*
X149485495Y-37794070D01*
X149295617Y-38251348D01*
X149295185Y-38746480D01*
X149484264Y-39204088D01*
X149524000Y-39243893D01*
X149524000Y-40239159D01*
X145981580Y-43781580D01*
X145761338Y-44111193D01*
X145761338Y-44111194D01*
X145684000Y-44500000D01*
X145684000Y-46300000D01*
X145761338Y-46688806D01*
X145981580Y-47018420D01*
X146311194Y-47238662D01*
X146700000Y-47316000D01*
X147088806Y-47238662D01*
X147418420Y-47018420D01*
X147638662Y-46688806D01*
X147716000Y-46300000D01*
X147716000Y-44920840D01*
X151258420Y-41378421D01*
X151478662Y-41048807D01*
X151491493Y-40984300D01*
X151556000Y-40660000D01*
X151556000Y-39465079D01*
X151624300Y-39451493D01*
X151688807Y-39438662D01*
X152018420Y-39218420D01*
X153218420Y-38018421D01*
X153438661Y-37688807D01*
X153438662Y-37688806D01*
X153516000Y-37300000D01*
X153516000Y-31690000D01*
X153438662Y-31301194D01*
X153296992Y-31089171D01*
X153218420Y-30971579D01*
X152953000Y-30706159D01*
X152953000Y-30633169D01*
X152865994Y-30195762D01*
X152618223Y-29824946D01*
X152247407Y-29577175D01*
X151810000Y-29490169D01*
X151372593Y-29577175D01*
X151001777Y-29824946D01*
X150754006Y-30195762D01*
X150667000Y-30633169D01*
X150667000Y-31366831D01*
X150754006Y-31804238D01*
X151001777Y-32175054D01*
X151372593Y-32422825D01*
X151484000Y-32444985D01*
X151484000Y-34723928D01*
X151403600Y-34707936D01*
X149935498Y-34707936D01*
X149951000Y-34630000D01*
X149951000Y-32260062D01*
X150078223Y-32175054D01*
X150325994Y-31804238D01*
X150413000Y-31366831D01*
X150413000Y-30633169D01*
X150325994Y-30195762D01*
X150078223Y-29824946D01*
X149707407Y-29577175D01*
X149270000Y-29490169D01*
X148832593Y-29577175D01*
X148461777Y-29824946D01*
X148214006Y-30195762D01*
X148127000Y-30633169D01*
X148127000Y-31366831D01*
X148214006Y-31804238D01*
X148461777Y-32175054D01*
X148589000Y-32260062D01*
X148589000Y-34347920D01*
X148221327Y-34715593D01*
X147753520Y-34715185D01*
X147311000Y-34898030D01*
X147311000Y-32326879D01*
X147538223Y-32175054D01*
X147785994Y-31804238D01*
X147873000Y-31366831D01*
X147873000Y-30633169D01*
X147785994Y-30195762D01*
X147538223Y-29824946D01*
X147167407Y-29577175D01*
X146730000Y-29490169D01*
X146292593Y-29577175D01*
X145921777Y-29824946D01*
X145674006Y-30195762D01*
X145587000Y-30633169D01*
X145587000Y-29773870D01*
X145490327Y-29540481D01*
X145311698Y-29361853D01*
X145078309Y-29265180D01*
X144475750Y-29265180D01*
X144317000Y-29423930D01*
X144317000Y-30873000D01*
X145428250Y-30873000D01*
X145587000Y-30714250D01*
X145587000Y-31285750D01*
X145428250Y-31127000D01*
X144317000Y-31127000D01*
X144317000Y-32576070D01*
X144475750Y-32734820D01*
X145078309Y-32734820D01*
X145311698Y-32638147D01*
X145490327Y-32459519D01*
X145587000Y-32226130D01*
X145587000Y-31366831D01*
X145674006Y-31804238D01*
X145921777Y-32175054D01*
X146149000Y-32326879D01*
X146149000Y-34898465D01*
X145708652Y-34715617D01*
X145213520Y-34715185D01*
X144755912Y-34904264D01*
X144405495Y-35254070D01*
X144215617Y-35711348D01*
X144215185Y-36206480D01*
X140127000Y-36206480D01*
X140127000Y-31285750D01*
X142793000Y-31285750D01*
X142793000Y-32226130D01*
X142889673Y-32459519D01*
X143068302Y-32638147D01*
X143301691Y-32734820D01*
X143904250Y-32734820D01*
X144063000Y-32576070D01*
X144063000Y-31127000D01*
X142951750Y-31127000D01*
X142793000Y-31285750D01*
X140127000Y-31285750D01*
X140127000Y-29773870D01*
X142793000Y-29773870D01*
X142793000Y-30714250D01*
X142951750Y-30873000D01*
X144063000Y-30873000D01*
X144063000Y-29423930D01*
X143904250Y-29265180D01*
X143301691Y-29265180D01*
X143068302Y-29361853D01*
X142889673Y-29540481D01*
X142793000Y-29773870D01*
X140127000Y-29773870D01*
X140127000Y-29668306D01*
X141665048Y-26372487D01*
X142618805Y-26372487D01*
X142904547Y-27064035D01*
X143433182Y-27593594D01*
X144124231Y-27880542D01*
X144872487Y-27881195D01*
X145564035Y-27595453D01*
X146093594Y-27066818D01*
X146380542Y-26375769D01*
X146380544Y-26372487D01*
X149618805Y-26372487D01*
X149904547Y-27064035D01*
X150433182Y-27593594D01*
X151124231Y-27880542D01*
X151872487Y-27881195D01*
X152564035Y-27595453D01*
X153093594Y-27066818D01*
X153380542Y-26375769D01*
X153381195Y-25627513D01*
X153095453Y-24935965D01*
X152566818Y-24406406D01*
X151875769Y-24119458D01*
X151127513Y-24118805D01*
X150435965Y-24404547D01*
X149906406Y-24933182D01*
X149619458Y-25624231D01*
X149618805Y-26372487D01*
X146380544Y-26372487D01*
X146381195Y-25627513D01*
X146095453Y-24935965D01*
X145566818Y-24406406D01*
X144875769Y-24119458D01*
X144127513Y-24118805D01*
X143435965Y-24404547D01*
X142906406Y-24933182D01*
X142619458Y-25624231D01*
X142618805Y-26372487D01*
X141665048Y-26372487D01*
X143298347Y-22872562D01*
X143380150Y-22538688D01*
X143363608Y-22431000D01*
X152636392Y-22431000D01*
X152619850Y-22538688D01*
G36*
X163173000Y-105380738D02*
X163173000Y-105744456D01*
X163073187Y-105984832D01*
X163072813Y-106413289D01*
X163236431Y-106809275D01*
X163539132Y-107112504D01*
X163934832Y-107276813D01*
X164363289Y-107277187D01*
X164759275Y-107113569D01*
X165062504Y-106810868D01*
X165163114Y-106568572D01*
X165533516Y-106198170D01*
X165859275Y-106063569D01*
X166162504Y-105760868D01*
X166326813Y-105365168D01*
X166327187Y-104936711D01*
X166163569Y-104540725D01*
X166050042Y-104427000D01*
X173873000Y-104427000D01*
X173873000Y-157958702D01*
X166000000Y-168784077D01*
X158127000Y-157958702D01*
X158127000Y-104427000D01*
X162219262Y-104427000D01*
X163173000Y-105380738D01*
X163173000Y-105380738D01*
G37*
X163173000Y-105380738D02*
X163173000Y-105744456D01*
X163073187Y-105984832D01*
X163072813Y-106413289D01*
X163236431Y-106809275D01*
X163539132Y-107112504D01*
X163934832Y-107276813D01*
X164363289Y-107277187D01*
X164759275Y-107113569D01*
X165062504Y-106810868D01*
X165163114Y-106568572D01*
X165533516Y-106198170D01*
X165859275Y-106063569D01*
X166162504Y-105760868D01*
X166326813Y-105365168D01*
X166327187Y-104936711D01*
X166163569Y-104540725D01*
X166050042Y-104427000D01*
X173873000Y-104427000D01*
X173873000Y-157958702D01*
X166000000Y-168784077D01*
X158127000Y-157958702D01*
X158127000Y-104427000D01*
X162219262Y-104427000D01*
X163173000Y-105380738D01*
G36*
X170619850Y-22538688D02*
X170701653Y-22872562D01*
X173873000Y-29668306D01*
X173873000Y-104273000D01*
X168127000Y-104273000D01*
X168127000Y-65800000D01*
X168117333Y-65751399D01*
X168089803Y-65710197D01*
X168048601Y-65682667D01*
X168000000Y-65673000D01*
X166400000Y-65673000D01*
X166351399Y-65682667D01*
X166310197Y-65710197D01*
X166282667Y-65751399D01*
X166273000Y-65800000D01*
X166273000Y-104273000D01*
X165896310Y-104273000D01*
X165860868Y-104237496D01*
X165465168Y-104073187D01*
X165036711Y-104072813D01*
X164794240Y-104173000D01*
X164380738Y-104173000D01*
X160604000Y-100396262D01*
X160604000Y-69023199D01*
X160745018Y-68812150D01*
X160827000Y-68400000D01*
X160827000Y-68000940D01*
X160827187Y-67786711D01*
X160827000Y-67786258D01*
X160827000Y-67250940D01*
X160827187Y-67036711D01*
X160827000Y-67036258D01*
X160827000Y-66500940D01*
X160827187Y-66286711D01*
X160663569Y-65890725D01*
X160360868Y-65587496D01*
X159965168Y-65423187D01*
X159536711Y-65422813D01*
X159140725Y-65586431D01*
X158837496Y-65889132D01*
X158673187Y-66284832D01*
X158672813Y-66713289D01*
X158673000Y-66713742D01*
X158673000Y-67249061D01*
X158672813Y-67463289D01*
X158673000Y-67463742D01*
X158673000Y-67999061D01*
X158672813Y-68213289D01*
X158673000Y-68213742D01*
X158673000Y-68400000D01*
X158754982Y-68812150D01*
X158896000Y-69023199D01*
X158896000Y-100750000D01*
X158961007Y-101076812D01*
X159128051Y-101326811D01*
X159146131Y-101353869D01*
X162065262Y-104273000D01*
X158127000Y-104273000D01*
X158127000Y-64894763D01*
X160518874Y-64894763D01*
X160629927Y-65163533D01*
X160835381Y-65369346D01*
X161103957Y-65480869D01*
X161394767Y-65481122D01*
X161663537Y-65370069D01*
X161869350Y-65164615D01*
X161965883Y-64932139D01*
X162049012Y-64849010D01*
X162499010Y-64399011D01*
X162499013Y-64399009D01*
X162636664Y-64193000D01*
X162649211Y-64129923D01*
X162685001Y-63949996D01*
X162685000Y-63949991D01*
X162685000Y-59844767D01*
X163068874Y-59844767D01*
X163179927Y-60113537D01*
X163385381Y-60319350D01*
X163653957Y-60430873D01*
X163944767Y-60431126D01*
X164213537Y-60320073D01*
X164325806Y-60208000D01*
X166774225Y-60208000D01*
X166885381Y-60319350D01*
X167153957Y-60430873D01*
X167444767Y-60431126D01*
X167713537Y-60320073D01*
X167919350Y-60114619D01*
X167963622Y-60008000D01*
X169174225Y-60008000D01*
X169285381Y-60119350D01*
X169553957Y-60230873D01*
X169844767Y-60231126D01*
X170113537Y-60120073D01*
X170319350Y-59914619D01*
X170430873Y-59646043D01*
X170431126Y-59355233D01*
X170320073Y-59086463D01*
X170114619Y-58880650D01*
X169846043Y-58769127D01*
X169555233Y-58768874D01*
X169286463Y-58879927D01*
X169174194Y-58992000D01*
X167501127Y-58992000D01*
X167446043Y-58969127D01*
X167155233Y-58968874D01*
X166886463Y-59079927D01*
X166774194Y-59192000D01*
X164325775Y-59192000D01*
X164214619Y-59080650D01*
X163946043Y-58969127D01*
X163655233Y-58968874D01*
X163386463Y-59079927D01*
X163180650Y-59285381D01*
X163069127Y-59553957D01*
X163068874Y-59844767D01*
X162685000Y-59844767D01*
X162685000Y-58126932D01*
X162780873Y-57896045D01*
X162781126Y-57605235D01*
X162670073Y-57336465D01*
X162464619Y-57130652D01*
X162196043Y-57019129D01*
X161905233Y-57018876D01*
X161636463Y-57129929D01*
X161430650Y-57335383D01*
X161319127Y-57603959D01*
X161318874Y-57894769D01*
X161415000Y-58127413D01*
X161415000Y-63686971D01*
X161150986Y-63950984D01*
X161067516Y-64034454D01*
X160836463Y-64129923D01*
X160630650Y-64335377D01*
X160519127Y-64603953D01*
X160518874Y-64894763D01*
X158127000Y-64894763D01*
X158127000Y-53044767D01*
X168068874Y-53044767D01*
X168179927Y-53313537D01*
X168292000Y-53425806D01*
X168292000Y-54774225D01*
X168180650Y-54885381D01*
X168069127Y-55153957D01*
X168068874Y-55444767D01*
X168179927Y-55713537D01*
X168385381Y-55919350D01*
X168653957Y-56030873D01*
X168944767Y-56031126D01*
X169213537Y-55920073D01*
X169419350Y-55714619D01*
X169530873Y-55446043D01*
X169531126Y-55155233D01*
X169420073Y-54886463D01*
X169308000Y-54774194D01*
X169308000Y-53425775D01*
X169419350Y-53314619D01*
X169530873Y-53046043D01*
X169531126Y-52755233D01*
X169420073Y-52486463D01*
X169214619Y-52280650D01*
X168946043Y-52169127D01*
X168655233Y-52168874D01*
X168386463Y-52279927D01*
X168180650Y-52485381D01*
X168069127Y-52753957D01*
X168068874Y-53044767D01*
X158127000Y-53044767D01*
X158127000Y-39553805D01*
X162585800Y-39553805D01*
X162667741Y-39806516D01*
X163228030Y-40010248D01*
X163823635Y-39984058D01*
X164252259Y-39806516D01*
X164334200Y-39553805D01*
X163460000Y-38679605D01*
X162585800Y-39553805D01*
X158127000Y-39553805D01*
X158127000Y-38268030D01*
X161949752Y-38268030D01*
X161975942Y-38863635D01*
X162153484Y-39292259D01*
X162406195Y-39374200D01*
X163280395Y-38500000D01*
X162406195Y-37625800D01*
X162153484Y-37707741D01*
X161949752Y-38268030D01*
X158127000Y-38268030D01*
X158127000Y-36206480D01*
X162215185Y-36206480D01*
X162404264Y-36664088D01*
X162754070Y-37014505D01*
X162926739Y-37086203D01*
X162667741Y-37193484D01*
X162585800Y-37446195D01*
X163460000Y-38320395D01*
X163474143Y-38306253D01*
X163653748Y-38485858D01*
X163639605Y-38500000D01*
X164513805Y-39374200D01*
X164766516Y-39292259D01*
X164866772Y-39016542D01*
X164944264Y-39204088D01*
X165294070Y-39554505D01*
X165751348Y-39744383D01*
X166246480Y-39744815D01*
X166704088Y-39555736D01*
X167054505Y-39205930D01*
X167244383Y-38748652D01*
X167244815Y-38253520D01*
X167055736Y-37795912D01*
X166705930Y-37445495D01*
X166248652Y-37255617D01*
X165753520Y-37255185D01*
X165557738Y-37336080D01*
X165311000Y-37089342D01*
X165311000Y-37021535D01*
X165751348Y-37204383D01*
X166246480Y-37204815D01*
X166704088Y-37015736D01*
X167054505Y-36665930D01*
X167244383Y-36208652D01*
X167244811Y-35718269D01*
X167287936Y-35675144D01*
X167287936Y-36823600D01*
X167317506Y-36972259D01*
X167401714Y-37098286D01*
X167527741Y-37182494D01*
X167676400Y-37212064D01*
X168851096Y-37212064D01*
X168802000Y-37261160D01*
X168788652Y-37255617D01*
X168293520Y-37255185D01*
X167835912Y-37444264D01*
X167485495Y-37794070D01*
X167295617Y-38251348D01*
X167295185Y-38746480D01*
X167484264Y-39204088D01*
X167524000Y-39243893D01*
X167524000Y-40239159D01*
X163981580Y-43781580D01*
X163761338Y-44111193D01*
X163761338Y-44111194D01*
X163684000Y-44500000D01*
X163684000Y-46300000D01*
X163761338Y-46688806D01*
X163981580Y-47018420D01*
X164311194Y-47238662D01*
X164700000Y-47316000D01*
X165088806Y-47238662D01*
X165418420Y-47018420D01*
X165638662Y-46688806D01*
X165716000Y-46300000D01*
X165716000Y-44920840D01*
X169258420Y-41378421D01*
X169478662Y-41048807D01*
X169491493Y-40984300D01*
X169556000Y-40660000D01*
X169556000Y-39380840D01*
X171218420Y-37718421D01*
X171438662Y-37388807D01*
X171475260Y-37204815D01*
X171516000Y-37000000D01*
X171516000Y-32500000D01*
X171438662Y-32111194D01*
X171233560Y-31804238D01*
X171218420Y-31781579D01*
X170928225Y-31491384D01*
X170953000Y-31366831D01*
X170953000Y-30633169D01*
X170865994Y-30195762D01*
X170618223Y-29824946D01*
X170247407Y-29577175D01*
X169810000Y-29490169D01*
X169372593Y-29577175D01*
X169001777Y-29824946D01*
X168754006Y-30195762D01*
X168667000Y-30633169D01*
X168667000Y-31366831D01*
X168754006Y-31804238D01*
X168809321Y-31887022D01*
X168853911Y-32111193D01*
X168871338Y-32198807D01*
X169091580Y-32528420D01*
X169484000Y-32920841D01*
X169484000Y-34723928D01*
X169403600Y-34707936D01*
X167951000Y-34707936D01*
X167951000Y-32260062D01*
X168078223Y-32175054D01*
X168325994Y-31804238D01*
X168413000Y-31366831D01*
X168413000Y-30633169D01*
X168325994Y-30195762D01*
X168078223Y-29824946D01*
X167707407Y-29577175D01*
X167270000Y-29490169D01*
X166832593Y-29577175D01*
X166461777Y-29824946D01*
X166214006Y-30195762D01*
X166127000Y-30633169D01*
X166127000Y-31366831D01*
X166214006Y-31804238D01*
X166461777Y-32175054D01*
X166589000Y-32260062D01*
X166589000Y-34447920D01*
X166299987Y-34736933D01*
X166248652Y-34715617D01*
X165753520Y-34715185D01*
X165311000Y-34898030D01*
X165311000Y-32326879D01*
X165538223Y-32175054D01*
X165785994Y-31804238D01*
X165873000Y-31366831D01*
X165873000Y-30633169D01*
X165785994Y-30195762D01*
X165538223Y-29824946D01*
X165167407Y-29577175D01*
X164730000Y-29490169D01*
X164292593Y-29577175D01*
X163921777Y-29824946D01*
X163674006Y-30195762D01*
X163587000Y-30633169D01*
X163587000Y-29773870D01*
X163490327Y-29540481D01*
X163311698Y-29361853D01*
X163078309Y-29265180D01*
X162475750Y-29265180D01*
X162317000Y-29423930D01*
X162317000Y-30873000D01*
X163428250Y-30873000D01*
X163587000Y-30714250D01*
X163587000Y-31285750D01*
X163428250Y-31127000D01*
X162317000Y-31127000D01*
X162317000Y-32576070D01*
X162475750Y-32734820D01*
X163078309Y-32734820D01*
X163311698Y-32638147D01*
X163490327Y-32459519D01*
X163587000Y-32226130D01*
X163587000Y-31366831D01*
X163674006Y-31804238D01*
X163921777Y-32175054D01*
X164149000Y-32326879D01*
X164149000Y-34898465D01*
X163708652Y-34715617D01*
X163213520Y-34715185D01*
X162755912Y-34904264D01*
X162405495Y-35254070D01*
X162215617Y-35711348D01*
X162215185Y-36206480D01*
X158127000Y-36206480D01*
X158127000Y-31285750D01*
X160793000Y-31285750D01*
X160793000Y-32226130D01*
X160889673Y-32459519D01*
X161068302Y-32638147D01*
X161301691Y-32734820D01*
X161904250Y-32734820D01*
X162063000Y-32576070D01*
X162063000Y-31127000D01*
X160951750Y-31127000D01*
X160793000Y-31285750D01*
X158127000Y-31285750D01*
X158127000Y-29773870D01*
X160793000Y-29773870D01*
X160793000Y-30714250D01*
X160951750Y-30873000D01*
X162063000Y-30873000D01*
X162063000Y-29423930D01*
X161904250Y-29265180D01*
X161301691Y-29265180D01*
X161068302Y-29361853D01*
X160889673Y-29540481D01*
X160793000Y-29773870D01*
X158127000Y-29773870D01*
X158127000Y-29668306D01*
X159665048Y-26372487D01*
X160618805Y-26372487D01*
X160904547Y-27064035D01*
X161433182Y-27593594D01*
X162124231Y-27880542D01*
X162872487Y-27881195D01*
X163564035Y-27595453D01*
X164093594Y-27066818D01*
X164380542Y-26375769D01*
X164380544Y-26372487D01*
X167618805Y-26372487D01*
X167904547Y-27064035D01*
X168433182Y-27593594D01*
X169124231Y-27880542D01*
X169872487Y-27881195D01*
X170564035Y-27595453D01*
X171093594Y-27066818D01*
X171380542Y-26375769D01*
X171381195Y-25627513D01*
X171095453Y-24935965D01*
X170566818Y-24406406D01*
X169875769Y-24119458D01*
X169127513Y-24118805D01*
X168435965Y-24404547D01*
X167906406Y-24933182D01*
X167619458Y-25624231D01*
X167618805Y-26372487D01*
X164380544Y-26372487D01*
X164381195Y-25627513D01*
X164095453Y-24935965D01*
X163566818Y-24406406D01*
X162875769Y-24119458D01*
X162127513Y-24118805D01*
X161435965Y-24404547D01*
X160906406Y-24933182D01*
X160619458Y-25624231D01*
X160618805Y-26372487D01*
X159665048Y-26372487D01*
X161298347Y-22872562D01*
X161380150Y-22538688D01*
X161363608Y-22431000D01*
X170636392Y-22431000D01*
X170619850Y-22538688D01*
X170619850Y-22538688D01*
G37*
X170619850Y-22538688D02*
X170701653Y-22872562D01*
X173873000Y-29668306D01*
X173873000Y-104273000D01*
X168127000Y-104273000D01*
X168127000Y-65800000D01*
X168117333Y-65751399D01*
X168089803Y-65710197D01*
X168048601Y-65682667D01*
X168000000Y-65673000D01*
X166400000Y-65673000D01*
X166351399Y-65682667D01*
X166310197Y-65710197D01*
X166282667Y-65751399D01*
X166273000Y-65800000D01*
X166273000Y-104273000D01*
X165896310Y-104273000D01*
X165860868Y-104237496D01*
X165465168Y-104073187D01*
X165036711Y-104072813D01*
X164794240Y-104173000D01*
X164380738Y-104173000D01*
X160604000Y-100396262D01*
X160604000Y-69023199D01*
X160745018Y-68812150D01*
X160827000Y-68400000D01*
X160827000Y-68000940D01*
X160827187Y-67786711D01*
X160827000Y-67786258D01*
X160827000Y-67250940D01*
X160827187Y-67036711D01*
X160827000Y-67036258D01*
X160827000Y-66500940D01*
X160827187Y-66286711D01*
X160663569Y-65890725D01*
X160360868Y-65587496D01*
X159965168Y-65423187D01*
X159536711Y-65422813D01*
X159140725Y-65586431D01*
X158837496Y-65889132D01*
X158673187Y-66284832D01*
X158672813Y-66713289D01*
X158673000Y-66713742D01*
X158673000Y-67249061D01*
X158672813Y-67463289D01*
X158673000Y-67463742D01*
X158673000Y-67999061D01*
X158672813Y-68213289D01*
X158673000Y-68213742D01*
X158673000Y-68400000D01*
X158754982Y-68812150D01*
X158896000Y-69023199D01*
X158896000Y-100750000D01*
X158961007Y-101076812D01*
X159128051Y-101326811D01*
X159146131Y-101353869D01*
X162065262Y-104273000D01*
X158127000Y-104273000D01*
X158127000Y-64894763D01*
X160518874Y-64894763D01*
X160629927Y-65163533D01*
X160835381Y-65369346D01*
X161103957Y-65480869D01*
X161394767Y-65481122D01*
X161663537Y-65370069D01*
X161869350Y-65164615D01*
X161965883Y-64932139D01*
X162049012Y-64849010D01*
X162499010Y-64399011D01*
X162499013Y-64399009D01*
X162636664Y-64193000D01*
X162649211Y-64129923D01*
X162685001Y-63949996D01*
X162685000Y-63949991D01*
X162685000Y-59844767D01*
X163068874Y-59844767D01*
X163179927Y-60113537D01*
X163385381Y-60319350D01*
X163653957Y-60430873D01*
X163944767Y-60431126D01*
X164213537Y-60320073D01*
X164325806Y-60208000D01*
X166774225Y-60208000D01*
X166885381Y-60319350D01*
X167153957Y-60430873D01*
X167444767Y-60431126D01*
X167713537Y-60320073D01*
X167919350Y-60114619D01*
X167963622Y-60008000D01*
X169174225Y-60008000D01*
X169285381Y-60119350D01*
X169553957Y-60230873D01*
X169844767Y-60231126D01*
X170113537Y-60120073D01*
X170319350Y-59914619D01*
X170430873Y-59646043D01*
X170431126Y-59355233D01*
X170320073Y-59086463D01*
X170114619Y-58880650D01*
X169846043Y-58769127D01*
X169555233Y-58768874D01*
X169286463Y-58879927D01*
X169174194Y-58992000D01*
X167501127Y-58992000D01*
X167446043Y-58969127D01*
X167155233Y-58968874D01*
X166886463Y-59079927D01*
X166774194Y-59192000D01*
X164325775Y-59192000D01*
X164214619Y-59080650D01*
X163946043Y-58969127D01*
X163655233Y-58968874D01*
X163386463Y-59079927D01*
X163180650Y-59285381D01*
X163069127Y-59553957D01*
X163068874Y-59844767D01*
X162685000Y-59844767D01*
X162685000Y-58126932D01*
X162780873Y-57896045D01*
X162781126Y-57605235D01*
X162670073Y-57336465D01*
X162464619Y-57130652D01*
X162196043Y-57019129D01*
X161905233Y-57018876D01*
X161636463Y-57129929D01*
X161430650Y-57335383D01*
X161319127Y-57603959D01*
X161318874Y-57894769D01*
X161415000Y-58127413D01*
X161415000Y-63686971D01*
X161150986Y-63950984D01*
X161067516Y-64034454D01*
X160836463Y-64129923D01*
X160630650Y-64335377D01*
X160519127Y-64603953D01*
X160518874Y-64894763D01*
X158127000Y-64894763D01*
X158127000Y-53044767D01*
X168068874Y-53044767D01*
X168179927Y-53313537D01*
X168292000Y-53425806D01*
X168292000Y-54774225D01*
X168180650Y-54885381D01*
X168069127Y-55153957D01*
X168068874Y-55444767D01*
X168179927Y-55713537D01*
X168385381Y-55919350D01*
X168653957Y-56030873D01*
X168944767Y-56031126D01*
X169213537Y-55920073D01*
X169419350Y-55714619D01*
X169530873Y-55446043D01*
X169531126Y-55155233D01*
X169420073Y-54886463D01*
X169308000Y-54774194D01*
X169308000Y-53425775D01*
X169419350Y-53314619D01*
X169530873Y-53046043D01*
X169531126Y-52755233D01*
X169420073Y-52486463D01*
X169214619Y-52280650D01*
X168946043Y-52169127D01*
X168655233Y-52168874D01*
X168386463Y-52279927D01*
X168180650Y-52485381D01*
X168069127Y-52753957D01*
X168068874Y-53044767D01*
X158127000Y-53044767D01*
X158127000Y-39553805D01*
X162585800Y-39553805D01*
X162667741Y-39806516D01*
X163228030Y-40010248D01*
X163823635Y-39984058D01*
X164252259Y-39806516D01*
X164334200Y-39553805D01*
X163460000Y-38679605D01*
X162585800Y-39553805D01*
X158127000Y-39553805D01*
X158127000Y-38268030D01*
X161949752Y-38268030D01*
X161975942Y-38863635D01*
X162153484Y-39292259D01*
X162406195Y-39374200D01*
X163280395Y-38500000D01*
X162406195Y-37625800D01*
X162153484Y-37707741D01*
X161949752Y-38268030D01*
X158127000Y-38268030D01*
X158127000Y-36206480D01*
X162215185Y-36206480D01*
X162404264Y-36664088D01*
X162754070Y-37014505D01*
X162926739Y-37086203D01*
X162667741Y-37193484D01*
X162585800Y-37446195D01*
X163460000Y-38320395D01*
X163474143Y-38306253D01*
X163653748Y-38485858D01*
X163639605Y-38500000D01*
X164513805Y-39374200D01*
X164766516Y-39292259D01*
X164866772Y-39016542D01*
X164944264Y-39204088D01*
X165294070Y-39554505D01*
X165751348Y-39744383D01*
X166246480Y-39744815D01*
X166704088Y-39555736D01*
X167054505Y-39205930D01*
X167244383Y-38748652D01*
X167244815Y-38253520D01*
X167055736Y-37795912D01*
X166705930Y-37445495D01*
X166248652Y-37255617D01*
X165753520Y-37255185D01*
X165557738Y-37336080D01*
X165311000Y-37089342D01*
X165311000Y-37021535D01*
X165751348Y-37204383D01*
X166246480Y-37204815D01*
X166704088Y-37015736D01*
X167054505Y-36665930D01*
X167244383Y-36208652D01*
X167244811Y-35718269D01*
X167287936Y-35675144D01*
X167287936Y-36823600D01*
X167317506Y-36972259D01*
X167401714Y-37098286D01*
X167527741Y-37182494D01*
X167676400Y-37212064D01*
X168851096Y-37212064D01*
X168802000Y-37261160D01*
X168788652Y-37255617D01*
X168293520Y-37255185D01*
X167835912Y-37444264D01*
X167485495Y-37794070D01*
X167295617Y-38251348D01*
X167295185Y-38746480D01*
X167484264Y-39204088D01*
X167524000Y-39243893D01*
X167524000Y-40239159D01*
X163981580Y-43781580D01*
X163761338Y-44111193D01*
X163761338Y-44111194D01*
X163684000Y-44500000D01*
X163684000Y-46300000D01*
X163761338Y-46688806D01*
X163981580Y-47018420D01*
X164311194Y-47238662D01*
X164700000Y-47316000D01*
X165088806Y-47238662D01*
X165418420Y-47018420D01*
X165638662Y-46688806D01*
X165716000Y-46300000D01*
X165716000Y-44920840D01*
X169258420Y-41378421D01*
X169478662Y-41048807D01*
X169491493Y-40984300D01*
X169556000Y-40660000D01*
X169556000Y-39380840D01*
X171218420Y-37718421D01*
X171438662Y-37388807D01*
X171475260Y-37204815D01*
X171516000Y-37000000D01*
X171516000Y-32500000D01*
X171438662Y-32111194D01*
X171233560Y-31804238D01*
X171218420Y-31781579D01*
X170928225Y-31491384D01*
X170953000Y-31366831D01*
X170953000Y-30633169D01*
X170865994Y-30195762D01*
X170618223Y-29824946D01*
X170247407Y-29577175D01*
X169810000Y-29490169D01*
X169372593Y-29577175D01*
X169001777Y-29824946D01*
X168754006Y-30195762D01*
X168667000Y-30633169D01*
X168667000Y-31366831D01*
X168754006Y-31804238D01*
X168809321Y-31887022D01*
X168853911Y-32111193D01*
X168871338Y-32198807D01*
X169091580Y-32528420D01*
X169484000Y-32920841D01*
X169484000Y-34723928D01*
X169403600Y-34707936D01*
X167951000Y-34707936D01*
X167951000Y-32260062D01*
X168078223Y-32175054D01*
X168325994Y-31804238D01*
X168413000Y-31366831D01*
X168413000Y-30633169D01*
X168325994Y-30195762D01*
X168078223Y-29824946D01*
X167707407Y-29577175D01*
X167270000Y-29490169D01*
X166832593Y-29577175D01*
X166461777Y-29824946D01*
X166214006Y-30195762D01*
X166127000Y-30633169D01*
X166127000Y-31366831D01*
X166214006Y-31804238D01*
X166461777Y-32175054D01*
X166589000Y-32260062D01*
X166589000Y-34447920D01*
X166299987Y-34736933D01*
X166248652Y-34715617D01*
X165753520Y-34715185D01*
X165311000Y-34898030D01*
X165311000Y-32326879D01*
X165538223Y-32175054D01*
X165785994Y-31804238D01*
X165873000Y-31366831D01*
X165873000Y-30633169D01*
X165785994Y-30195762D01*
X165538223Y-29824946D01*
X165167407Y-29577175D01*
X164730000Y-29490169D01*
X164292593Y-29577175D01*
X163921777Y-29824946D01*
X163674006Y-30195762D01*
X163587000Y-30633169D01*
X163587000Y-29773870D01*
X163490327Y-29540481D01*
X163311698Y-29361853D01*
X163078309Y-29265180D01*
X162475750Y-29265180D01*
X162317000Y-29423930D01*
X162317000Y-30873000D01*
X163428250Y-30873000D01*
X163587000Y-30714250D01*
X163587000Y-31285750D01*
X163428250Y-31127000D01*
X162317000Y-31127000D01*
X162317000Y-32576070D01*
X162475750Y-32734820D01*
X163078309Y-32734820D01*
X163311698Y-32638147D01*
X163490327Y-32459519D01*
X163587000Y-32226130D01*
X163587000Y-31366831D01*
X163674006Y-31804238D01*
X163921777Y-32175054D01*
X164149000Y-32326879D01*
X164149000Y-34898465D01*
X163708652Y-34715617D01*
X163213520Y-34715185D01*
X162755912Y-34904264D01*
X162405495Y-35254070D01*
X162215617Y-35711348D01*
X162215185Y-36206480D01*
X158127000Y-36206480D01*
X158127000Y-31285750D01*
X160793000Y-31285750D01*
X160793000Y-32226130D01*
X160889673Y-32459519D01*
X161068302Y-32638147D01*
X161301691Y-32734820D01*
X161904250Y-32734820D01*
X162063000Y-32576070D01*
X162063000Y-31127000D01*
X160951750Y-31127000D01*
X160793000Y-31285750D01*
X158127000Y-31285750D01*
X158127000Y-29773870D01*
X160793000Y-29773870D01*
X160793000Y-30714250D01*
X160951750Y-30873000D01*
X162063000Y-30873000D01*
X162063000Y-29423930D01*
X161904250Y-29265180D01*
X161301691Y-29265180D01*
X161068302Y-29361853D01*
X160889673Y-29540481D01*
X160793000Y-29773870D01*
X158127000Y-29773870D01*
X158127000Y-29668306D01*
X159665048Y-26372487D01*
X160618805Y-26372487D01*
X160904547Y-27064035D01*
X161433182Y-27593594D01*
X162124231Y-27880542D01*
X162872487Y-27881195D01*
X163564035Y-27595453D01*
X164093594Y-27066818D01*
X164380542Y-26375769D01*
X164380544Y-26372487D01*
X167618805Y-26372487D01*
X167904547Y-27064035D01*
X168433182Y-27593594D01*
X169124231Y-27880542D01*
X169872487Y-27881195D01*
X170564035Y-27595453D01*
X171093594Y-27066818D01*
X171380542Y-26375769D01*
X171381195Y-25627513D01*
X171095453Y-24935965D01*
X170566818Y-24406406D01*
X169875769Y-24119458D01*
X169127513Y-24118805D01*
X168435965Y-24404547D01*
X167906406Y-24933182D01*
X167619458Y-25624231D01*
X167618805Y-26372487D01*
X164380544Y-26372487D01*
X164381195Y-25627513D01*
X164095453Y-24935965D01*
X163566818Y-24406406D01*
X162875769Y-24119458D01*
X162127513Y-24118805D01*
X161435965Y-24404547D01*
X160906406Y-24933182D01*
X160619458Y-25624231D01*
X160618805Y-26372487D01*
X159665048Y-26372487D01*
X161298347Y-22872562D01*
X161380150Y-22538688D01*
X161363608Y-22431000D01*
X170636392Y-22431000D01*
X170619850Y-22538688D01*
M02*
