M48
;DRILL file {KiCad no-vcs-found-34abef3~59~ubuntu16.04.1} date Thu Aug  3 15:06:29 2017
;FORMAT={-:-/ absolute / metric / decimal}
FMAT,2
METRIC,TZ
T1C0.400
T2C2.500
T3C3.000
%
G90
G05
M71
T1
X86.45Y-67.747
X86.45Y-66.5
X86.5Y-69.
X86.5Y-70.273
X86.5Y-71.5
X86.5Y-72.75
X86.5Y-74.
X86.5Y-75.25
X86.5Y-76.5
X86.5Y-77.75
X86.5Y-79.
X86.5Y-80.25
X86.5Y-81.5
X86.5Y-82.75
X86.5Y-84.
X86.5Y-85.25
X86.5Y-86.5
X86.5Y-87.75
X86.5Y-89.
X86.5Y-90.25
X86.5Y-91.5
X86.5Y-92.75
X86.5Y-94.
X86.5Y-95.25
X86.5Y-96.5
X86.5Y-97.75
X86.5Y-99.
X86.5Y-100.25
X86.5Y-101.5
X87.228Y-102.228
X87.75Y-66.5
X87.75Y-67.2
X87.75Y-67.9
X88.Y-103.
X88.6Y-31.
X88.703Y-103.703
X89.Y-69.
X89.Y-70.258
X89.Y-71.5
X89.Y-72.75
X89.Y-74.
X89.Y-75.25
X89.Y-76.5
X89.Y-77.75
X89.Y-79.
X89.Y-80.25
X89.Y-81.5
X89.Y-82.75
X89.Y-84.
X89.Y-85.25
X89.Y-86.5
X89.Y-87.75
X89.Y-89.
X89.Y-90.25
X89.Y-91.5
X89.Y-92.75
X89.Y-94.
X89.Y-95.25
X89.Y-96.5
X89.Y-97.75
X89.Y-99.
X89.Y-100.25
X89.05Y-66.755
X89.05Y-67.744
X89.054Y-63.624
X89.15Y-61.4
X89.15Y-62.35
X89.25Y-64.75
X89.45Y-42.9
X89.5Y-104.5
X89.759Y-101.009
X90.05Y-57.75
X90.1Y-55.1
X90.2Y-33.
X90.5Y-101.75
X90.9Y-54.3
X91.Y-57.
X91.Y-63.2
X91.345Y-102.595
X91.7Y-53.5
X91.7Y-59.7
X92.1Y-106.1
X92.25Y-103.5
X92.5Y-105.5
X92.7Y-46.3
X93.1Y-105.1
X94.Y-69.
X94.Y-70.25
X94.Y-71.5
X94.Y-72.75
X94.Y-74.
X94.Y-75.25
X94.Y-76.5
X94.Y-77.75
X94.Y-79.
X94.Y-80.25
X94.Y-81.5
X94.Y-82.75
X94.Y-84.
X94.Y-86.5
X94.Y-87.75
X94.Y-89.
X94.Y-90.25
X94.Y-91.5
X94.Y-92.75
X94.Y-94.
X94.Y-95.248
X94.Y-96.5
X94.Y-97.746
X94.Y-99.
X94.Y-100.247
X94.Y-101.5
X94.Y-102.505
X94.Y-103.55
X94.Y-85.25
X94.2Y-46.4
X94.3Y-48.
X94.8Y-52.8
X95.243Y-55.843
X95.3Y-59.7
X96.282Y-62.34
X96.3Y-64.15
X96.5Y-85.25
X96.5Y-66.5
X96.5Y-69.
X96.5Y-71.5
X96.5Y-72.75
X96.5Y-74.
X96.5Y-75.25
X96.5Y-76.5
X96.5Y-77.75
X96.5Y-79.
X96.5Y-80.25
X96.5Y-81.5
X96.5Y-82.75
X96.5Y-84.
X96.5Y-86.5
X96.5Y-87.75
X96.5Y-89.
X96.5Y-90.25
X96.5Y-91.5
X96.5Y-92.75
X96.5Y-94.
X96.5Y-95.248
X96.5Y-96.5
X96.5Y-97.764
X96.5Y-99.
X96.5Y-100.262
X96.5Y-101.5
X96.5Y-102.747
X96.5Y-104.
X96.5Y-70.25
X96.8Y-52.9
X96.8Y-55.3
X97.6Y-57.8
X98.4Y-59.45
X98.5Y-43.
X98.5Y-48.2
X98.7Y-60.55
X99.5Y-48.3
X99.8Y-49.2
X104.45Y-67.749
X104.45Y-66.5
X104.5Y-69.
X104.5Y-70.273
X104.5Y-71.5
X104.5Y-72.75
X104.5Y-74.
X104.5Y-75.25
X104.5Y-76.5
X104.5Y-77.75
X104.5Y-79.
X104.5Y-80.25
X104.5Y-81.5
X104.5Y-82.75
X104.5Y-84.
X104.5Y-85.25
X104.5Y-86.5
X104.5Y-87.75
X104.5Y-89.
X104.5Y-90.25
X104.5Y-91.5
X104.5Y-92.75
X104.5Y-94.
X104.5Y-95.25
X104.5Y-96.5
X104.5Y-97.75
X104.5Y-99.
X104.5Y-100.25
X104.5Y-101.5
X105.228Y-102.228
X105.75Y-66.5
X105.75Y-67.2
X105.75Y-67.9
X106.Y-103.
X106.6Y-31.
X106.703Y-103.703
X106.9Y-42.9
X107.Y-69.
X107.Y-70.258
X107.Y-71.5
X107.Y-72.75
X107.Y-74.
X107.Y-75.25
X107.Y-76.5
X107.Y-77.75
X107.Y-79.
X107.Y-80.25
X107.Y-81.5
X107.Y-82.75
X107.Y-84.
X107.Y-85.25
X107.Y-86.5
X107.Y-87.75
X107.Y-89.
X107.Y-90.25
X107.Y-91.5
X107.Y-92.75
X107.Y-94.
X107.Y-95.25
X107.Y-96.5
X107.Y-97.75
X107.Y-99.
X107.Y-100.25
X107.05Y-66.755
X107.05Y-67.745
X107.054Y-63.624
X107.15Y-61.4
X107.15Y-62.35
X107.25Y-64.75
X107.5Y-104.5
X107.759Y-101.009
X108.05Y-57.75
X108.1Y-55.1
X108.2Y-32.9
X108.5Y-101.75
X108.9Y-54.3
X109.Y-57.
X109.Y-63.2
X109.345Y-102.595
X109.7Y-53.5
X109.7Y-59.4
X110.1Y-106.05
X110.25Y-103.5
X110.5Y-105.5
X110.7Y-46.3
X111.05Y-105.1
X112.Y-69.
X112.Y-70.25
X112.Y-71.5
X112.Y-72.75
X112.Y-74.
X112.Y-75.25
X112.Y-76.5
X112.Y-77.75
X112.Y-79.
X112.Y-80.25
X112.Y-81.5
X112.Y-82.75
X112.Y-84.
X112.Y-86.5
X112.Y-87.75
X112.Y-89.
X112.Y-90.25
X112.Y-91.5
X112.Y-92.75
X112.Y-94.
X112.Y-95.248
X112.Y-96.5
X112.Y-97.746
X112.Y-99.
X112.Y-100.247
X112.Y-101.5
X112.Y-102.505
X112.Y-103.55
X112.Y-85.25
X112.2Y-46.4
X112.3Y-48.
X112.8Y-52.8
X113.243Y-55.843
X113.3Y-59.6
X114.282Y-62.34
X114.3Y-64.15
X114.5Y-85.25
X114.5Y-66.5
X114.5Y-69.
X114.5Y-71.5
X114.5Y-72.75
X114.5Y-74.
X114.5Y-75.25
X114.5Y-76.5
X114.5Y-77.75
X114.5Y-79.
X114.5Y-80.25
X114.5Y-81.5
X114.5Y-82.75
X114.5Y-84.
X114.5Y-86.5
X114.5Y-87.75
X114.5Y-89.
X114.5Y-90.25
X114.5Y-91.5
X114.5Y-92.75
X114.5Y-94.
X114.5Y-95.248
X114.5Y-96.5
X114.5Y-97.764
X114.5Y-99.
X114.5Y-100.262
X114.5Y-101.5
X114.5Y-102.747
X114.5Y-104.
X114.5Y-70.25
X114.8Y-52.9
X114.8Y-55.3
X115.6Y-57.8
X115.75Y-59.45
X116.5Y-43.
X116.5Y-48.2
X116.7Y-60.5
X117.5Y-48.3
X117.8Y-49.2
X122.45Y-67.749
X122.45Y-66.5
X122.5Y-69.
X122.5Y-70.273
X122.5Y-71.5
X122.5Y-72.75
X122.5Y-74.
X122.5Y-75.25
X122.5Y-76.5
X122.5Y-77.75
X122.5Y-79.
X122.5Y-80.25
X122.5Y-81.5
X122.5Y-82.75
X122.5Y-84.
X122.5Y-85.25
X122.5Y-86.5
X122.5Y-87.75
X122.5Y-89.
X122.5Y-90.25
X122.5Y-91.5
X122.5Y-92.75
X122.5Y-94.
X122.5Y-95.25
X122.5Y-96.5
X122.5Y-97.75
X122.5Y-99.
X122.5Y-100.25
X122.5Y-101.5
X123.228Y-102.228
X123.75Y-66.5
X123.75Y-67.2
X123.75Y-67.9
X124.Y-103.
X124.6Y-31.
X124.703Y-103.703
X124.9Y-42.9
X125.Y-69.
X125.Y-70.258
X125.Y-71.5
X125.Y-72.75
X125.Y-74.
X125.Y-75.25
X125.Y-76.5
X125.Y-77.75
X125.Y-79.
X125.Y-80.25
X125.Y-81.5
X125.Y-82.75
X125.Y-84.
X125.Y-85.25
X125.Y-86.5
X125.Y-87.75
X125.Y-89.
X125.Y-90.25
X125.Y-91.5
X125.Y-92.75
X125.Y-94.
X125.Y-95.25
X125.Y-96.5
X125.Y-97.75
X125.Y-99.
X125.Y-100.25
X125.05Y-66.755
X125.05Y-67.745
X125.054Y-63.624
X125.15Y-61.4
X125.15Y-62.35
X125.25Y-64.75
X125.5Y-104.5
X125.759Y-101.009
X126.05Y-57.75
X126.1Y-55.1
X126.2Y-32.9
X126.5Y-101.75
X126.9Y-54.3
X127.Y-57.
X127.Y-63.2
X127.345Y-102.595
X127.7Y-53.5
X127.7Y-59.6
X128.05Y-106.05
X128.25Y-103.5
X128.5Y-105.5
X128.7Y-46.3
X129.Y-105.15
X130.Y-69.
X130.Y-70.25
X130.Y-71.5
X130.Y-72.75
X130.Y-74.
X130.Y-75.25
X130.Y-76.5
X130.Y-77.75
X130.Y-79.
X130.Y-80.25
X130.Y-81.5
X130.Y-82.75
X130.Y-84.
X130.Y-86.5
X130.Y-87.75
X130.Y-89.
X130.Y-90.25
X130.Y-91.5
X130.Y-92.75
X130.Y-94.
X130.Y-95.248
X130.Y-96.5
X130.Y-97.746
X130.Y-99.
X130.Y-100.247
X130.Y-101.5
X130.Y-102.505
X130.Y-103.55
X130.Y-85.25
X130.2Y-46.4
X130.3Y-48.
X130.8Y-52.8
X131.243Y-55.843
X131.3Y-59.7
X132.282Y-62.34
X132.3Y-64.15
X132.5Y-85.25
X132.5Y-66.5
X132.5Y-69.
X132.5Y-71.5
X132.5Y-72.75
X132.5Y-74.
X132.5Y-75.25
X132.5Y-76.5
X132.5Y-77.75
X132.5Y-79.
X132.5Y-80.25
X132.5Y-81.5
X132.5Y-82.75
X132.5Y-84.
X132.5Y-86.5
X132.5Y-87.75
X132.5Y-89.
X132.5Y-90.25
X132.5Y-91.5
X132.5Y-92.75
X132.5Y-94.
X132.5Y-95.248
X132.5Y-96.5
X132.5Y-97.764
X132.5Y-99.
X132.5Y-100.262
X132.5Y-101.5
X132.5Y-102.747
X132.5Y-104.
X132.5Y-70.25
X132.8Y-52.9
X132.8Y-55.3
X133.6Y-57.8
X133.65Y-59.55
X134.5Y-43.
X134.5Y-48.2
X134.65Y-60.5
X135.5Y-48.3
X135.8Y-49.2
X140.45Y-67.747
X140.45Y-66.5
X140.5Y-69.
X140.5Y-70.273
X140.5Y-71.5
X140.5Y-72.75
X140.5Y-74.
X140.5Y-75.25
X140.5Y-76.5
X140.5Y-77.75
X140.5Y-79.
X140.5Y-80.25
X140.5Y-81.5
X140.5Y-82.75
X140.5Y-84.
X140.5Y-85.25
X140.5Y-86.5
X140.5Y-87.75
X140.5Y-89.
X140.5Y-90.25
X140.5Y-91.5
X140.5Y-92.75
X140.5Y-94.
X140.5Y-95.25
X140.5Y-96.5
X140.5Y-97.75
X140.5Y-99.
X140.5Y-100.25
X140.5Y-101.5
X141.228Y-102.228
X141.75Y-66.5
X141.75Y-67.2
X141.75Y-67.9
X142.Y-103.
X142.7Y-31.
X142.703Y-103.703
X142.9Y-42.8
X143.Y-69.
X143.Y-70.258
X143.Y-71.5
X143.Y-72.75
X143.Y-74.
X143.Y-75.25
X143.Y-76.5
X143.Y-77.75
X143.Y-79.
X143.Y-80.25
X143.Y-81.5
X143.Y-82.75
X143.Y-84.
X143.Y-85.25
X143.Y-86.5
X143.Y-87.75
X143.Y-89.
X143.Y-90.25
X143.Y-91.5
X143.Y-92.75
X143.Y-94.
X143.Y-95.25
X143.Y-96.5
X143.Y-97.75
X143.Y-99.
X143.Y-100.25
X143.05Y-66.755
X143.05Y-67.744
X143.054Y-63.624
X143.15Y-61.4
X143.15Y-62.35
X143.25Y-64.75
X143.5Y-104.5
X143.759Y-101.009
X144.05Y-57.75
X144.1Y-55.1
X144.2Y-32.9
X144.5Y-101.75
X144.9Y-54.3
X145.Y-57.
X145.Y-63.2
X145.345Y-102.595
X145.7Y-53.5
X145.8Y-59.6
X146.1Y-106.1
X146.25Y-103.5
X146.5Y-105.5
X146.7Y-46.3
X147.1Y-105.1
X148.Y-69.
X148.Y-70.25
X148.Y-71.5
X148.Y-72.75
X148.Y-74.
X148.Y-75.25
X148.Y-76.5
X148.Y-77.75
X148.Y-79.
X148.Y-80.25
X148.Y-81.5
X148.Y-82.75
X148.Y-84.
X148.Y-86.5
X148.Y-87.75
X148.Y-89.
X148.Y-90.25
X148.Y-91.5
X148.Y-92.75
X148.Y-94.
X148.Y-95.248
X148.Y-96.5
X148.Y-97.746
X148.Y-99.
X148.Y-100.247
X148.Y-101.5
X148.Y-102.505
X148.Y-103.55
X148.Y-85.25
X148.2Y-46.4
X148.3Y-48.
X148.8Y-52.8
X149.243Y-55.843
X149.3Y-59.6
X150.282Y-62.34
X150.3Y-64.15
X150.5Y-85.25
X150.5Y-66.5
X150.5Y-69.
X150.5Y-71.5
X150.5Y-72.75
X150.5Y-74.
X150.5Y-75.25
X150.5Y-76.5
X150.5Y-77.75
X150.5Y-79.
X150.5Y-80.25
X150.5Y-81.5
X150.5Y-82.75
X150.5Y-84.
X150.5Y-86.5
X150.5Y-87.75
X150.5Y-89.
X150.5Y-90.25
X150.5Y-91.5
X150.5Y-92.75
X150.5Y-94.
X150.5Y-95.248
X150.5Y-96.5
X150.5Y-97.764
X150.5Y-99.
X150.5Y-100.262
X150.5Y-101.5
X150.5Y-102.747
X150.5Y-104.
X150.5Y-70.25
X150.8Y-52.9
X150.8Y-55.3
X151.6Y-57.8
X151.65Y-59.5
X152.5Y-43.
X152.5Y-48.2
X152.8Y-60.55
X153.5Y-48.3
X153.8Y-49.2
X158.45Y-67.75
X158.45Y-66.5
X158.5Y-69.
X158.5Y-70.273
X158.5Y-71.5
X158.5Y-72.75
X158.5Y-74.
X158.5Y-75.25
X158.5Y-76.5
X158.5Y-77.75
X158.5Y-79.
X158.5Y-80.25
X158.5Y-81.5
X158.5Y-82.75
X158.5Y-84.
X158.5Y-85.25
X158.5Y-86.5
X158.5Y-87.75
X158.5Y-89.
X158.5Y-90.25
X158.5Y-91.5
X158.5Y-92.75
X158.5Y-94.
X158.5Y-95.25
X158.5Y-96.5
X158.5Y-97.75
X158.5Y-99.
X158.5Y-100.25
X158.5Y-101.5
X159.228Y-102.228
X159.75Y-66.5
X159.75Y-67.25
X159.75Y-68.
X160.Y-103.
X160.6Y-31.
X160.703Y-103.703
X160.95Y-42.9
X161.Y-69.
X161.Y-70.258
X161.Y-71.5
X161.Y-72.75
X161.Y-74.
X161.Y-75.25
X161.Y-76.5
X161.Y-77.75
X161.Y-79.
X161.Y-80.25
X161.Y-81.5
X161.Y-82.75
X161.Y-84.
X161.Y-85.25
X161.Y-86.5
X161.Y-87.75
X161.Y-89.
X161.Y-90.25
X161.Y-91.5
X161.Y-92.75
X161.Y-94.
X161.Y-95.25
X161.Y-96.5
X161.Y-97.75
X161.Y-99.
X161.Y-100.25
X161.05Y-66.755
X161.05Y-67.746
X161.054Y-63.624
X161.15Y-61.4
X161.15Y-62.35
X161.25Y-64.75
X161.5Y-104.5
X161.759Y-101.009
X162.05Y-57.75
X162.1Y-55.1
X162.2Y-32.9
X162.5Y-101.75
X162.9Y-54.3
X163.Y-57.
X163.Y-63.2
X163.345Y-102.595
X163.7Y-53.5
X163.8Y-59.7
X164.15Y-106.2
X164.25Y-103.5
X164.5Y-105.5
X164.7Y-46.3
X165.25Y-105.15
X166.Y-69.
X166.Y-70.25
X166.Y-71.5
X166.Y-72.75
X166.Y-74.
X166.Y-75.25
X166.Y-76.5
X166.Y-77.75
X166.Y-79.
X166.Y-80.25
X166.Y-81.5
X166.Y-82.75
X166.Y-84.
X166.Y-86.5
X166.Y-87.75
X166.Y-89.
X166.Y-90.25
X166.Y-91.5
X166.Y-92.75
X166.Y-94.
X166.Y-95.248
X166.Y-96.5
X166.Y-97.746
X166.Y-99.
X166.Y-100.247
X166.Y-101.5
X166.Y-102.505
X166.Y-103.55
X166.Y-85.25
X166.2Y-46.4
X166.3Y-48.
X166.8Y-52.8
X167.243Y-55.843
X167.3Y-59.7
X168.282Y-62.34
X168.3Y-64.15
X168.5Y-85.25
X168.5Y-66.5
X168.5Y-69.
X168.5Y-71.5
X168.5Y-72.75
X168.5Y-74.
X168.5Y-75.25
X168.5Y-76.5
X168.5Y-77.75
X168.5Y-79.
X168.5Y-80.25
X168.5Y-81.5
X168.5Y-82.75
X168.5Y-84.
X168.5Y-86.5
X168.5Y-87.75
X168.5Y-89.
X168.5Y-90.25
X168.5Y-91.5
X168.5Y-92.75
X168.5Y-94.
X168.5Y-95.248
X168.5Y-96.5
X168.5Y-97.764
X168.5Y-99.
X168.5Y-100.262
X168.5Y-101.5
X168.5Y-102.747
X168.5Y-104.
X168.5Y-70.25
X168.8Y-52.9
X168.8Y-55.3
X169.6Y-57.8
X169.7Y-59.5
X170.5Y-43.
X170.5Y-48.2
X171.5Y-48.3
X171.8Y-49.2
X163.46Y-35.96
X163.46Y-38.5
X166.Y-35.96
X166.Y-38.5
X168.54Y-35.96
X168.54Y-38.5
X109.46Y-35.96
X109.46Y-38.5
X112.Y-35.96
X112.Y-38.5
X114.54Y-35.96
X114.54Y-38.5
X127.46Y-35.96
X127.46Y-38.5
X130.Y-35.96
X130.Y-38.5
X132.54Y-35.96
X132.54Y-38.5
X145.46Y-35.96
X145.46Y-38.5
X148.Y-35.96
X148.Y-38.5
X150.54Y-35.96
X150.54Y-38.5
X91.46Y-35.96
X91.46Y-38.5
X94.Y-35.96
X94.Y-38.5
X96.54Y-35.96
X96.54Y-38.5
T2
X177.5Y-152.5
X82.5Y-40.
X177.5Y-152.5
X82.5Y-40.
T3
X97.5Y-26.
X126.5Y-26.
X162.5Y-26.
X108.5Y-26.
X133.5Y-26.
X90.5Y-26.
X169.5Y-26.
X151.5Y-26.
X144.5Y-26.
X115.5Y-26.
T0
M30
