G04 #@! TF.FileFunction,Legend,Bot*
%FSLAX46Y46*%
G04 Gerber Fmt 4.6, Leading zero omitted, Abs format (unit mm)*
G04 Created by KiCad (PCBNEW (2015-05-18 BZR 5668)-product) date Fri 05 Jun 2015 08:01:52 AM EEST*
%MOMM*%
G01*
G04 APERTURE LIST*
%ADD10C,0.100000*%
%ADD11C,0.300000*%
%ADD12R,1.727200X1.727200*%
%ADD13C,1.727200*%
G04 APERTURE END LIST*
D10*
D11*
X163835714Y-54157143D02*
X163907143Y-54085714D01*
X163978571Y-53871428D01*
X163978571Y-53728571D01*
X163907143Y-53514286D01*
X163764286Y-53371428D01*
X163621429Y-53300000D01*
X163335714Y-53228571D01*
X163121429Y-53228571D01*
X162835714Y-53300000D01*
X162692857Y-53371428D01*
X162550000Y-53514286D01*
X162478571Y-53728571D01*
X162478571Y-53871428D01*
X162550000Y-54085714D01*
X162621429Y-54157143D01*
X163978571Y-55442857D02*
X163192857Y-55442857D01*
X163050000Y-55371428D01*
X162978571Y-55228571D01*
X162978571Y-54942857D01*
X163050000Y-54800000D01*
X163907143Y-55442857D02*
X163978571Y-55300000D01*
X163978571Y-54942857D01*
X163907143Y-54800000D01*
X163764286Y-54728571D01*
X163621429Y-54728571D01*
X163478571Y-54800000D01*
X163407143Y-54942857D01*
X163407143Y-55300000D01*
X163335714Y-55442857D01*
X162978571Y-55942857D02*
X162978571Y-56514286D01*
X162478571Y-56157143D02*
X163764286Y-56157143D01*
X163907143Y-56228571D01*
X163978571Y-56371429D01*
X163978571Y-56514286D01*
X162978571Y-57014286D02*
X163978571Y-57014286D01*
X163121429Y-57014286D02*
X163050000Y-57085714D01*
X162978571Y-57228572D01*
X162978571Y-57442857D01*
X163050000Y-57585714D01*
X163192857Y-57657143D01*
X163978571Y-57657143D01*
X163978571Y-58371429D02*
X162978571Y-58371429D01*
X162478571Y-58371429D02*
X162550000Y-58300000D01*
X162621429Y-58371429D01*
X162550000Y-58442857D01*
X162478571Y-58371429D01*
X162621429Y-58371429D01*
X162978571Y-59085715D02*
X164478571Y-59085715D01*
X163050000Y-59085715D02*
X162978571Y-59228572D01*
X162978571Y-59514286D01*
X163050000Y-59657143D01*
X163121429Y-59728572D01*
X163264286Y-59800001D01*
X163692857Y-59800001D01*
X163835714Y-59728572D01*
X163907143Y-59657143D01*
X163978571Y-59514286D01*
X163978571Y-59228572D01*
X163907143Y-59085715D01*
X163192857Y-61585715D02*
X163192857Y-62085715D01*
X163978571Y-62300001D02*
X163978571Y-61585715D01*
X162478571Y-61585715D01*
X162478571Y-62300001D01*
X163978571Y-63157144D02*
X163907143Y-63014286D01*
X163764286Y-62942858D01*
X162478571Y-62942858D01*
X163907143Y-64300000D02*
X163978571Y-64157143D01*
X163978571Y-63871429D01*
X163907143Y-63728572D01*
X163764286Y-63657143D01*
X163192857Y-63657143D01*
X163050000Y-63728572D01*
X162978571Y-63871429D01*
X162978571Y-64157143D01*
X163050000Y-64300000D01*
X163192857Y-64371429D01*
X163335714Y-64371429D01*
X163478571Y-63657143D01*
X163907143Y-65657143D02*
X163978571Y-65514286D01*
X163978571Y-65228572D01*
X163907143Y-65085714D01*
X163835714Y-65014286D01*
X163692857Y-64942857D01*
X163264286Y-64942857D01*
X163121429Y-65014286D01*
X163050000Y-65085714D01*
X162978571Y-65228572D01*
X162978571Y-65514286D01*
X163050000Y-65657143D01*
X162978571Y-66085714D02*
X162978571Y-66657143D01*
X162478571Y-66300000D02*
X163764286Y-66300000D01*
X163907143Y-66371428D01*
X163978571Y-66514286D01*
X163978571Y-66657143D01*
X163978571Y-67157143D02*
X162978571Y-67157143D01*
X163264286Y-67157143D02*
X163121429Y-67228571D01*
X163050000Y-67300000D01*
X162978571Y-67442857D01*
X162978571Y-67585714D01*
X163978571Y-68300000D02*
X163907143Y-68157142D01*
X163835714Y-68085714D01*
X163692857Y-68014285D01*
X163264286Y-68014285D01*
X163121429Y-68085714D01*
X163050000Y-68157142D01*
X162978571Y-68300000D01*
X162978571Y-68514285D01*
X163050000Y-68657142D01*
X163121429Y-68728571D01*
X163264286Y-68800000D01*
X163692857Y-68800000D01*
X163835714Y-68728571D01*
X163907143Y-68657142D01*
X163978571Y-68514285D01*
X163978571Y-68300000D01*
X162978571Y-69442857D02*
X163978571Y-69442857D01*
X163121429Y-69442857D02*
X163050000Y-69514285D01*
X162978571Y-69657143D01*
X162978571Y-69871428D01*
X163050000Y-70014285D01*
X163192857Y-70085714D01*
X163978571Y-70085714D01*
X163978571Y-70800000D02*
X162978571Y-70800000D01*
X162478571Y-70800000D02*
X162550000Y-70728571D01*
X162621429Y-70800000D01*
X162550000Y-70871428D01*
X162478571Y-70800000D01*
X162621429Y-70800000D01*
X163907143Y-72157143D02*
X163978571Y-72014286D01*
X163978571Y-71728572D01*
X163907143Y-71585714D01*
X163835714Y-71514286D01*
X163692857Y-71442857D01*
X163264286Y-71442857D01*
X163121429Y-71514286D01*
X163050000Y-71585714D01*
X162978571Y-71728572D01*
X162978571Y-72014286D01*
X163050000Y-72157143D01*
X163907143Y-72728571D02*
X163978571Y-72871428D01*
X163978571Y-73157143D01*
X163907143Y-73300000D01*
X163764286Y-73371428D01*
X163692857Y-73371428D01*
X163550000Y-73300000D01*
X163478571Y-73157143D01*
X163478571Y-72942857D01*
X163407143Y-72800000D01*
X163264286Y-72728571D01*
X163192857Y-72728571D01*
X163050000Y-72800000D01*
X162978571Y-72942857D01*
X162978571Y-73157143D01*
X163050000Y-73300000D01*
X166378571Y-46014284D02*
X164878571Y-46014284D01*
X166378571Y-46657141D02*
X165592857Y-46657141D01*
X165450000Y-46585712D01*
X165378571Y-46442855D01*
X165378571Y-46228570D01*
X165450000Y-46085712D01*
X165521429Y-46014284D01*
X165378571Y-47157141D02*
X165378571Y-47728570D01*
X164878571Y-47371427D02*
X166164286Y-47371427D01*
X166307143Y-47442855D01*
X166378571Y-47585713D01*
X166378571Y-47728570D01*
X165378571Y-48014284D02*
X165378571Y-48585713D01*
X164878571Y-48228570D02*
X166164286Y-48228570D01*
X166307143Y-48299998D01*
X166378571Y-48442856D01*
X166378571Y-48585713D01*
X165378571Y-49085713D02*
X166878571Y-49085713D01*
X165450000Y-49085713D02*
X165378571Y-49228570D01*
X165378571Y-49514284D01*
X165450000Y-49657141D01*
X165521429Y-49728570D01*
X165664286Y-49799999D01*
X166092857Y-49799999D01*
X166235714Y-49728570D01*
X166307143Y-49657141D01*
X166378571Y-49514284D01*
X166378571Y-49228570D01*
X166307143Y-49085713D01*
X166235714Y-50442856D02*
X166307143Y-50514284D01*
X166378571Y-50442856D01*
X166307143Y-50371427D01*
X166235714Y-50442856D01*
X166378571Y-50442856D01*
X165450000Y-50442856D02*
X165521429Y-50514284D01*
X165592857Y-50442856D01*
X165521429Y-50371427D01*
X165450000Y-50442856D01*
X165592857Y-50442856D01*
X164807143Y-52228570D02*
X166735714Y-50942856D01*
X164807143Y-53799999D02*
X166735714Y-52514285D01*
X165378571Y-54157143D02*
X166378571Y-54442857D01*
X165664286Y-54728571D01*
X166378571Y-55014286D01*
X165378571Y-55300000D01*
X166307143Y-56442857D02*
X166378571Y-56300000D01*
X166378571Y-56014286D01*
X166307143Y-55871429D01*
X166164286Y-55800000D01*
X165592857Y-55800000D01*
X165450000Y-55871429D01*
X165378571Y-56014286D01*
X165378571Y-56300000D01*
X165450000Y-56442857D01*
X165592857Y-56514286D01*
X165735714Y-56514286D01*
X165878571Y-55800000D01*
X166378571Y-57157143D02*
X165378571Y-57157143D01*
X165521429Y-57157143D02*
X165450000Y-57228571D01*
X165378571Y-57371429D01*
X165378571Y-57585714D01*
X165450000Y-57728571D01*
X165592857Y-57800000D01*
X166378571Y-57800000D01*
X165592857Y-57800000D02*
X165450000Y-57871429D01*
X165378571Y-58014286D01*
X165378571Y-58228571D01*
X165450000Y-58371429D01*
X165592857Y-58442857D01*
X166378571Y-58442857D01*
X166378571Y-59800000D02*
X165592857Y-59800000D01*
X165450000Y-59728571D01*
X165378571Y-59585714D01*
X165378571Y-59300000D01*
X165450000Y-59157143D01*
X166307143Y-59800000D02*
X166378571Y-59657143D01*
X166378571Y-59300000D01*
X166307143Y-59157143D01*
X166164286Y-59085714D01*
X166021429Y-59085714D01*
X165878571Y-59157143D01*
X165807143Y-59300000D01*
X165807143Y-59657143D01*
X165735714Y-59800000D01*
X166378571Y-60514286D02*
X164878571Y-60514286D01*
X165807143Y-60657143D02*
X166378571Y-61085714D01*
X165378571Y-61085714D02*
X165950000Y-60514286D01*
X166307143Y-62300000D02*
X166378571Y-62157143D01*
X166378571Y-61871429D01*
X166307143Y-61728572D01*
X166164286Y-61657143D01*
X165592857Y-61657143D01*
X165450000Y-61728572D01*
X165378571Y-61871429D01*
X165378571Y-62157143D01*
X165450000Y-62300000D01*
X165592857Y-62371429D01*
X165735714Y-62371429D01*
X165878571Y-61657143D01*
X165378571Y-62800000D02*
X165378571Y-63371429D01*
X164878571Y-63014286D02*
X166164286Y-63014286D01*
X166307143Y-63085714D01*
X166378571Y-63228572D01*
X166378571Y-63371429D01*
X166378571Y-63871429D02*
X164878571Y-63871429D01*
X166378571Y-64514286D02*
X165592857Y-64514286D01*
X165450000Y-64442857D01*
X165378571Y-64300000D01*
X165378571Y-64085715D01*
X165450000Y-63942857D01*
X165521429Y-63871429D01*
X166378571Y-65228572D02*
X165378571Y-65228572D01*
X164878571Y-65228572D02*
X164950000Y-65157143D01*
X165021429Y-65228572D01*
X164950000Y-65300000D01*
X164878571Y-65228572D01*
X165021429Y-65228572D01*
X165378571Y-65942858D02*
X166378571Y-65942858D01*
X165521429Y-65942858D02*
X165450000Y-66014286D01*
X165378571Y-66157144D01*
X165378571Y-66371429D01*
X165450000Y-66514286D01*
X165592857Y-66585715D01*
X166378571Y-66585715D01*
X165378571Y-67942858D02*
X166592857Y-67942858D01*
X166735714Y-67871429D01*
X166807143Y-67800001D01*
X166878571Y-67657144D01*
X166878571Y-67442858D01*
X166807143Y-67300001D01*
X166307143Y-67942858D02*
X166378571Y-67800001D01*
X166378571Y-67514287D01*
X166307143Y-67371429D01*
X166235714Y-67300001D01*
X166092857Y-67228572D01*
X165664286Y-67228572D01*
X165521429Y-67300001D01*
X165450000Y-67371429D01*
X165378571Y-67514287D01*
X165378571Y-67800001D01*
X165450000Y-67942858D01*
X166307143Y-68585715D02*
X166378571Y-68728572D01*
X166378571Y-69014287D01*
X166307143Y-69157144D01*
X166164286Y-69228572D01*
X166092857Y-69228572D01*
X165950000Y-69157144D01*
X165878571Y-69014287D01*
X165878571Y-68800001D01*
X165807143Y-68657144D01*
X165664286Y-68585715D01*
X165592857Y-68585715D01*
X165450000Y-68657144D01*
X165378571Y-68800001D01*
X165378571Y-69014287D01*
X165450000Y-69157144D01*
X166235714Y-69871430D02*
X166307143Y-69942858D01*
X166378571Y-69871430D01*
X166307143Y-69800001D01*
X166235714Y-69871430D01*
X166378571Y-69871430D01*
X165378571Y-70585716D02*
X166378571Y-70585716D01*
X165521429Y-70585716D02*
X165450000Y-70657144D01*
X165378571Y-70800002D01*
X165378571Y-71014287D01*
X165450000Y-71157144D01*
X165592857Y-71228573D01*
X166378571Y-71228573D01*
X166307143Y-72514287D02*
X166378571Y-72371430D01*
X166378571Y-72085716D01*
X166307143Y-71942859D01*
X166164286Y-71871430D01*
X165592857Y-71871430D01*
X165450000Y-71942859D01*
X165378571Y-72085716D01*
X165378571Y-72371430D01*
X165450000Y-72514287D01*
X165592857Y-72585716D01*
X165735714Y-72585716D01*
X165878571Y-71871430D01*
X165378571Y-73014287D02*
X165378571Y-73585716D01*
X164878571Y-73228573D02*
X166164286Y-73228573D01*
X166307143Y-73300001D01*
X166378571Y-73442859D01*
X166378571Y-73585716D01*
X164807143Y-75157144D02*
X166735714Y-73871430D01*
X166307143Y-76300002D02*
X166378571Y-76157145D01*
X166378571Y-75871431D01*
X166307143Y-75728573D01*
X166235714Y-75657145D01*
X166092857Y-75585716D01*
X165664286Y-75585716D01*
X165521429Y-75657145D01*
X165450000Y-75728573D01*
X165378571Y-75871431D01*
X165378571Y-76157145D01*
X165450000Y-76300002D01*
X166378571Y-76942859D02*
X164878571Y-76942859D01*
X166378571Y-77585716D02*
X165592857Y-77585716D01*
X165450000Y-77514287D01*
X165378571Y-77371430D01*
X165378571Y-77157145D01*
X165450000Y-77014287D01*
X165521429Y-76942859D01*
X166378571Y-78300002D02*
X165378571Y-78300002D01*
X164878571Y-78300002D02*
X164950000Y-78228573D01*
X165021429Y-78300002D01*
X164950000Y-78371430D01*
X164878571Y-78300002D01*
X165021429Y-78300002D01*
X166378571Y-79014288D02*
X165378571Y-79014288D01*
X165664286Y-79014288D02*
X165521429Y-79085716D01*
X165450000Y-79157145D01*
X165378571Y-79300002D01*
X165378571Y-79442859D01*
X165378571Y-79942859D02*
X166878571Y-79942859D01*
X165450000Y-79942859D02*
X165378571Y-80085716D01*
X165378571Y-80371430D01*
X165450000Y-80514287D01*
X165521429Y-80585716D01*
X165664286Y-80657145D01*
X166092857Y-80657145D01*
X166235714Y-80585716D01*
X166307143Y-80514287D01*
X166378571Y-80371430D01*
X166378571Y-80085716D01*
X166307143Y-79942859D01*
X168778571Y-50800000D02*
X167778571Y-50800000D01*
X167921429Y-50800000D02*
X167850000Y-50871428D01*
X167778571Y-51014286D01*
X167778571Y-51228571D01*
X167850000Y-51371428D01*
X167992857Y-51442857D01*
X168778571Y-51442857D01*
X167992857Y-51442857D02*
X167850000Y-51514286D01*
X167778571Y-51657143D01*
X167778571Y-51871428D01*
X167850000Y-52014286D01*
X167992857Y-52085714D01*
X168778571Y-52085714D01*
X168778571Y-52800000D02*
X167778571Y-52800000D01*
X167278571Y-52800000D02*
X167350000Y-52728571D01*
X167421429Y-52800000D01*
X167350000Y-52871428D01*
X167278571Y-52800000D01*
X167421429Y-52800000D01*
X168707143Y-54157143D02*
X168778571Y-54014286D01*
X168778571Y-53728572D01*
X168707143Y-53585714D01*
X168635714Y-53514286D01*
X168492857Y-53442857D01*
X168064286Y-53442857D01*
X167921429Y-53514286D01*
X167850000Y-53585714D01*
X167778571Y-53728572D01*
X167778571Y-54014286D01*
X167850000Y-54157143D01*
X168064286Y-55728571D02*
X167992857Y-55657143D01*
X167921429Y-55514286D01*
X167921429Y-55371428D01*
X167992857Y-55228571D01*
X168064286Y-55157143D01*
X168207143Y-55085714D01*
X168350000Y-55085714D01*
X168492857Y-55157143D01*
X168564286Y-55228571D01*
X168635714Y-55371428D01*
X168635714Y-55514286D01*
X168564286Y-55657143D01*
X168492857Y-55728571D01*
X167921429Y-55728571D02*
X168492857Y-55728571D01*
X168564286Y-55800000D01*
X168564286Y-55871428D01*
X168492857Y-56014286D01*
X168350000Y-56085714D01*
X167992857Y-56085714D01*
X167778571Y-55942857D01*
X167635714Y-55728571D01*
X167564286Y-55442857D01*
X167635714Y-55157143D01*
X167778571Y-54942857D01*
X167992857Y-54800000D01*
X168278571Y-54728571D01*
X168564286Y-54800000D01*
X168778571Y-54942857D01*
X168921429Y-55157143D01*
X168992857Y-55442857D01*
X168921429Y-55728571D01*
X168778571Y-55942857D01*
X167778571Y-56585714D02*
X168778571Y-56871428D01*
X168064286Y-57157142D01*
X168778571Y-57442857D01*
X167778571Y-57728571D01*
X168707143Y-58871428D02*
X168778571Y-58728571D01*
X168778571Y-58442857D01*
X168707143Y-58300000D01*
X168564286Y-58228571D01*
X167992857Y-58228571D01*
X167850000Y-58300000D01*
X167778571Y-58442857D01*
X167778571Y-58728571D01*
X167850000Y-58871428D01*
X167992857Y-58942857D01*
X168135714Y-58942857D01*
X168278571Y-58228571D01*
X168778571Y-59585714D02*
X167778571Y-59585714D01*
X167921429Y-59585714D02*
X167850000Y-59657142D01*
X167778571Y-59800000D01*
X167778571Y-60014285D01*
X167850000Y-60157142D01*
X167992857Y-60228571D01*
X168778571Y-60228571D01*
X167992857Y-60228571D02*
X167850000Y-60300000D01*
X167778571Y-60442857D01*
X167778571Y-60657142D01*
X167850000Y-60800000D01*
X167992857Y-60871428D01*
X168778571Y-60871428D01*
X168778571Y-62228571D02*
X167992857Y-62228571D01*
X167850000Y-62157142D01*
X167778571Y-62014285D01*
X167778571Y-61728571D01*
X167850000Y-61585714D01*
X168707143Y-62228571D02*
X168778571Y-62085714D01*
X168778571Y-61728571D01*
X168707143Y-61585714D01*
X168564286Y-61514285D01*
X168421429Y-61514285D01*
X168278571Y-61585714D01*
X168207143Y-61728571D01*
X168207143Y-62085714D01*
X168135714Y-62228571D01*
X168778571Y-62942857D02*
X167278571Y-62942857D01*
X168207143Y-63085714D02*
X168778571Y-63514285D01*
X167778571Y-63514285D02*
X168350000Y-62942857D01*
X168707143Y-64728571D02*
X168778571Y-64585714D01*
X168778571Y-64300000D01*
X168707143Y-64157143D01*
X168564286Y-64085714D01*
X167992857Y-64085714D01*
X167850000Y-64157143D01*
X167778571Y-64300000D01*
X167778571Y-64585714D01*
X167850000Y-64728571D01*
X167992857Y-64800000D01*
X168135714Y-64800000D01*
X168278571Y-64085714D01*
X167778571Y-65228571D02*
X167778571Y-65800000D01*
X167278571Y-65442857D02*
X168564286Y-65442857D01*
X168707143Y-65514285D01*
X168778571Y-65657143D01*
X168778571Y-65800000D01*
X168778571Y-66300000D02*
X167278571Y-66300000D01*
X168778571Y-66942857D02*
X167992857Y-66942857D01*
X167850000Y-66871428D01*
X167778571Y-66728571D01*
X167778571Y-66514286D01*
X167850000Y-66371428D01*
X167921429Y-66300000D01*
X168778571Y-67657143D02*
X167778571Y-67657143D01*
X167278571Y-67657143D02*
X167350000Y-67585714D01*
X167421429Y-67657143D01*
X167350000Y-67728571D01*
X167278571Y-67657143D01*
X167421429Y-67657143D01*
X167778571Y-68371429D02*
X168778571Y-68371429D01*
X167921429Y-68371429D02*
X167850000Y-68442857D01*
X167778571Y-68585715D01*
X167778571Y-68800000D01*
X167850000Y-68942857D01*
X167992857Y-69014286D01*
X168778571Y-69014286D01*
X167778571Y-70371429D02*
X168992857Y-70371429D01*
X169135714Y-70300000D01*
X169207143Y-70228572D01*
X169278571Y-70085715D01*
X169278571Y-69871429D01*
X169207143Y-69728572D01*
X168707143Y-70371429D02*
X168778571Y-70228572D01*
X168778571Y-69942858D01*
X168707143Y-69800000D01*
X168635714Y-69728572D01*
X168492857Y-69657143D01*
X168064286Y-69657143D01*
X167921429Y-69728572D01*
X167850000Y-69800000D01*
X167778571Y-69942858D01*
X167778571Y-70228572D01*
X167850000Y-70371429D01*
X168707143Y-71014286D02*
X168778571Y-71157143D01*
X168778571Y-71442858D01*
X168707143Y-71585715D01*
X168564286Y-71657143D01*
X168492857Y-71657143D01*
X168350000Y-71585715D01*
X168278571Y-71442858D01*
X168278571Y-71228572D01*
X168207143Y-71085715D01*
X168064286Y-71014286D01*
X167992857Y-71014286D01*
X167850000Y-71085715D01*
X167778571Y-71228572D01*
X167778571Y-71442858D01*
X167850000Y-71585715D01*
X168635714Y-72300001D02*
X168707143Y-72371429D01*
X168778571Y-72300001D01*
X168707143Y-72228572D01*
X168635714Y-72300001D01*
X168778571Y-72300001D01*
X167778571Y-73014287D02*
X168778571Y-73014287D01*
X167921429Y-73014287D02*
X167850000Y-73085715D01*
X167778571Y-73228573D01*
X167778571Y-73442858D01*
X167850000Y-73585715D01*
X167992857Y-73657144D01*
X168778571Y-73657144D01*
X168707143Y-74942858D02*
X168778571Y-74800001D01*
X168778571Y-74514287D01*
X168707143Y-74371430D01*
X168564286Y-74300001D01*
X167992857Y-74300001D01*
X167850000Y-74371430D01*
X167778571Y-74514287D01*
X167778571Y-74800001D01*
X167850000Y-74942858D01*
X167992857Y-75014287D01*
X168135714Y-75014287D01*
X168278571Y-74300001D01*
X167778571Y-75442858D02*
X167778571Y-76014287D01*
X167278571Y-75657144D02*
X168564286Y-75657144D01*
X168707143Y-75728572D01*
X168778571Y-75871430D01*
X168778571Y-76014287D01*
X163835714Y-54157143D02*
X163907143Y-54085714D01*
X163978571Y-53871428D01*
X163978571Y-53728571D01*
X163907143Y-53514286D01*
X163764286Y-53371428D01*
X163621429Y-53300000D01*
X163335714Y-53228571D01*
X163121429Y-53228571D01*
X162835714Y-53300000D01*
X162692857Y-53371428D01*
X162550000Y-53514286D01*
X162478571Y-53728571D01*
X162478571Y-53871428D01*
X162550000Y-54085714D01*
X162621429Y-54157143D01*
X163978571Y-55442857D02*
X163192857Y-55442857D01*
X163050000Y-55371428D01*
X162978571Y-55228571D01*
X162978571Y-54942857D01*
X163050000Y-54800000D01*
X163907143Y-55442857D02*
X163978571Y-55300000D01*
X163978571Y-54942857D01*
X163907143Y-54800000D01*
X163764286Y-54728571D01*
X163621429Y-54728571D01*
X163478571Y-54800000D01*
X163407143Y-54942857D01*
X163407143Y-55300000D01*
X163335714Y-55442857D01*
X162978571Y-55942857D02*
X162978571Y-56514286D01*
X162478571Y-56157143D02*
X163764286Y-56157143D01*
X163907143Y-56228571D01*
X163978571Y-56371429D01*
X163978571Y-56514286D01*
X162978571Y-57014286D02*
X163978571Y-57014286D01*
X163121429Y-57014286D02*
X163050000Y-57085714D01*
X162978571Y-57228572D01*
X162978571Y-57442857D01*
X163050000Y-57585714D01*
X163192857Y-57657143D01*
X163978571Y-57657143D01*
X163978571Y-58371429D02*
X162978571Y-58371429D01*
X162478571Y-58371429D02*
X162550000Y-58300000D01*
X162621429Y-58371429D01*
X162550000Y-58442857D01*
X162478571Y-58371429D01*
X162621429Y-58371429D01*
X162978571Y-59085715D02*
X164478571Y-59085715D01*
X163050000Y-59085715D02*
X162978571Y-59228572D01*
X162978571Y-59514286D01*
X163050000Y-59657143D01*
X163121429Y-59728572D01*
X163264286Y-59800001D01*
X163692857Y-59800001D01*
X163835714Y-59728572D01*
X163907143Y-59657143D01*
X163978571Y-59514286D01*
X163978571Y-59228572D01*
X163907143Y-59085715D01*
X163192857Y-61585715D02*
X163192857Y-62085715D01*
X163978571Y-62300001D02*
X163978571Y-61585715D01*
X162478571Y-61585715D01*
X162478571Y-62300001D01*
X163978571Y-63157144D02*
X163907143Y-63014286D01*
X163764286Y-62942858D01*
X162478571Y-62942858D01*
X163907143Y-64300000D02*
X163978571Y-64157143D01*
X163978571Y-63871429D01*
X163907143Y-63728572D01*
X163764286Y-63657143D01*
X163192857Y-63657143D01*
X163050000Y-63728572D01*
X162978571Y-63871429D01*
X162978571Y-64157143D01*
X163050000Y-64300000D01*
X163192857Y-64371429D01*
X163335714Y-64371429D01*
X163478571Y-63657143D01*
X163907143Y-65657143D02*
X163978571Y-65514286D01*
X163978571Y-65228572D01*
X163907143Y-65085714D01*
X163835714Y-65014286D01*
X163692857Y-64942857D01*
X163264286Y-64942857D01*
X163121429Y-65014286D01*
X163050000Y-65085714D01*
X162978571Y-65228572D01*
X162978571Y-65514286D01*
X163050000Y-65657143D01*
X162978571Y-66085714D02*
X162978571Y-66657143D01*
X162478571Y-66300000D02*
X163764286Y-66300000D01*
X163907143Y-66371428D01*
X163978571Y-66514286D01*
X163978571Y-66657143D01*
X163978571Y-67157143D02*
X162978571Y-67157143D01*
X163264286Y-67157143D02*
X163121429Y-67228571D01*
X163050000Y-67300000D01*
X162978571Y-67442857D01*
X162978571Y-67585714D01*
X163978571Y-68300000D02*
X163907143Y-68157142D01*
X163835714Y-68085714D01*
X163692857Y-68014285D01*
X163264286Y-68014285D01*
X163121429Y-68085714D01*
X163050000Y-68157142D01*
X162978571Y-68300000D01*
X162978571Y-68514285D01*
X163050000Y-68657142D01*
X163121429Y-68728571D01*
X163264286Y-68800000D01*
X163692857Y-68800000D01*
X163835714Y-68728571D01*
X163907143Y-68657142D01*
X163978571Y-68514285D01*
X163978571Y-68300000D01*
X162978571Y-69442857D02*
X163978571Y-69442857D01*
X163121429Y-69442857D02*
X163050000Y-69514285D01*
X162978571Y-69657143D01*
X162978571Y-69871428D01*
X163050000Y-70014285D01*
X163192857Y-70085714D01*
X163978571Y-70085714D01*
X163978571Y-70800000D02*
X162978571Y-70800000D01*
X162478571Y-70800000D02*
X162550000Y-70728571D01*
X162621429Y-70800000D01*
X162550000Y-70871428D01*
X162478571Y-70800000D01*
X162621429Y-70800000D01*
X163907143Y-72157143D02*
X163978571Y-72014286D01*
X163978571Y-71728572D01*
X163907143Y-71585714D01*
X163835714Y-71514286D01*
X163692857Y-71442857D01*
X163264286Y-71442857D01*
X163121429Y-71514286D01*
X163050000Y-71585714D01*
X162978571Y-71728572D01*
X162978571Y-72014286D01*
X163050000Y-72157143D01*
X163907143Y-72728571D02*
X163978571Y-72871428D01*
X163978571Y-73157143D01*
X163907143Y-73300000D01*
X163764286Y-73371428D01*
X163692857Y-73371428D01*
X163550000Y-73300000D01*
X163478571Y-73157143D01*
X163478571Y-72942857D01*
X163407143Y-72800000D01*
X163264286Y-72728571D01*
X163192857Y-72728571D01*
X163050000Y-72800000D01*
X162978571Y-72942857D01*
X162978571Y-73157143D01*
X163050000Y-73300000D01*
X166378571Y-46014284D02*
X164878571Y-46014284D01*
X166378571Y-46657141D02*
X165592857Y-46657141D01*
X165450000Y-46585712D01*
X165378571Y-46442855D01*
X165378571Y-46228570D01*
X165450000Y-46085712D01*
X165521429Y-46014284D01*
X165378571Y-47157141D02*
X165378571Y-47728570D01*
X164878571Y-47371427D02*
X166164286Y-47371427D01*
X166307143Y-47442855D01*
X166378571Y-47585713D01*
X166378571Y-47728570D01*
X165378571Y-48014284D02*
X165378571Y-48585713D01*
X164878571Y-48228570D02*
X166164286Y-48228570D01*
X166307143Y-48299998D01*
X166378571Y-48442856D01*
X166378571Y-48585713D01*
X165378571Y-49085713D02*
X166878571Y-49085713D01*
X165450000Y-49085713D02*
X165378571Y-49228570D01*
X165378571Y-49514284D01*
X165450000Y-49657141D01*
X165521429Y-49728570D01*
X165664286Y-49799999D01*
X166092857Y-49799999D01*
X166235714Y-49728570D01*
X166307143Y-49657141D01*
X166378571Y-49514284D01*
X166378571Y-49228570D01*
X166307143Y-49085713D01*
X166235714Y-50442856D02*
X166307143Y-50514284D01*
X166378571Y-50442856D01*
X166307143Y-50371427D01*
X166235714Y-50442856D01*
X166378571Y-50442856D01*
X165450000Y-50442856D02*
X165521429Y-50514284D01*
X165592857Y-50442856D01*
X165521429Y-50371427D01*
X165450000Y-50442856D01*
X165592857Y-50442856D01*
X164807143Y-52228570D02*
X166735714Y-50942856D01*
X164807143Y-53799999D02*
X166735714Y-52514285D01*
X165378571Y-54157143D02*
X166378571Y-54442857D01*
X165664286Y-54728571D01*
X166378571Y-55014286D01*
X165378571Y-55300000D01*
X166307143Y-56442857D02*
X166378571Y-56300000D01*
X166378571Y-56014286D01*
X166307143Y-55871429D01*
X166164286Y-55800000D01*
X165592857Y-55800000D01*
X165450000Y-55871429D01*
X165378571Y-56014286D01*
X165378571Y-56300000D01*
X165450000Y-56442857D01*
X165592857Y-56514286D01*
X165735714Y-56514286D01*
X165878571Y-55800000D01*
X166378571Y-57157143D02*
X165378571Y-57157143D01*
X165521429Y-57157143D02*
X165450000Y-57228571D01*
X165378571Y-57371429D01*
X165378571Y-57585714D01*
X165450000Y-57728571D01*
X165592857Y-57800000D01*
X166378571Y-57800000D01*
X165592857Y-57800000D02*
X165450000Y-57871429D01*
X165378571Y-58014286D01*
X165378571Y-58228571D01*
X165450000Y-58371429D01*
X165592857Y-58442857D01*
X166378571Y-58442857D01*
X166378571Y-59800000D02*
X165592857Y-59800000D01*
X165450000Y-59728571D01*
X165378571Y-59585714D01*
X165378571Y-59300000D01*
X165450000Y-59157143D01*
X166307143Y-59800000D02*
X166378571Y-59657143D01*
X166378571Y-59300000D01*
X166307143Y-59157143D01*
X166164286Y-59085714D01*
X166021429Y-59085714D01*
X165878571Y-59157143D01*
X165807143Y-59300000D01*
X165807143Y-59657143D01*
X165735714Y-59800000D01*
X166378571Y-60514286D02*
X164878571Y-60514286D01*
X165807143Y-60657143D02*
X166378571Y-61085714D01*
X165378571Y-61085714D02*
X165950000Y-60514286D01*
X166307143Y-62300000D02*
X166378571Y-62157143D01*
X166378571Y-61871429D01*
X166307143Y-61728572D01*
X166164286Y-61657143D01*
X165592857Y-61657143D01*
X165450000Y-61728572D01*
X165378571Y-61871429D01*
X165378571Y-62157143D01*
X165450000Y-62300000D01*
X165592857Y-62371429D01*
X165735714Y-62371429D01*
X165878571Y-61657143D01*
X165378571Y-62800000D02*
X165378571Y-63371429D01*
X164878571Y-63014286D02*
X166164286Y-63014286D01*
X166307143Y-63085714D01*
X166378571Y-63228572D01*
X166378571Y-63371429D01*
X166378571Y-63871429D02*
X164878571Y-63871429D01*
X166378571Y-64514286D02*
X165592857Y-64514286D01*
X165450000Y-64442857D01*
X165378571Y-64300000D01*
X165378571Y-64085715D01*
X165450000Y-63942857D01*
X165521429Y-63871429D01*
X166378571Y-65228572D02*
X165378571Y-65228572D01*
X164878571Y-65228572D02*
X164950000Y-65157143D01*
X165021429Y-65228572D01*
X164950000Y-65300000D01*
X164878571Y-65228572D01*
X165021429Y-65228572D01*
X165378571Y-65942858D02*
X166378571Y-65942858D01*
X165521429Y-65942858D02*
X165450000Y-66014286D01*
X165378571Y-66157144D01*
X165378571Y-66371429D01*
X165450000Y-66514286D01*
X165592857Y-66585715D01*
X166378571Y-66585715D01*
X165378571Y-67942858D02*
X166592857Y-67942858D01*
X166735714Y-67871429D01*
X166807143Y-67800001D01*
X166878571Y-67657144D01*
X166878571Y-67442858D01*
X166807143Y-67300001D01*
X166307143Y-67942858D02*
X166378571Y-67800001D01*
X166378571Y-67514287D01*
X166307143Y-67371429D01*
X166235714Y-67300001D01*
X166092857Y-67228572D01*
X165664286Y-67228572D01*
X165521429Y-67300001D01*
X165450000Y-67371429D01*
X165378571Y-67514287D01*
X165378571Y-67800001D01*
X165450000Y-67942858D01*
X166307143Y-68585715D02*
X166378571Y-68728572D01*
X166378571Y-69014287D01*
X166307143Y-69157144D01*
X166164286Y-69228572D01*
X166092857Y-69228572D01*
X165950000Y-69157144D01*
X165878571Y-69014287D01*
X165878571Y-68800001D01*
X165807143Y-68657144D01*
X165664286Y-68585715D01*
X165592857Y-68585715D01*
X165450000Y-68657144D01*
X165378571Y-68800001D01*
X165378571Y-69014287D01*
X165450000Y-69157144D01*
X166235714Y-69871430D02*
X166307143Y-69942858D01*
X166378571Y-69871430D01*
X166307143Y-69800001D01*
X166235714Y-69871430D01*
X166378571Y-69871430D01*
X165378571Y-70585716D02*
X166378571Y-70585716D01*
X165521429Y-70585716D02*
X165450000Y-70657144D01*
X165378571Y-70800002D01*
X165378571Y-71014287D01*
X165450000Y-71157144D01*
X165592857Y-71228573D01*
X166378571Y-71228573D01*
X166307143Y-72514287D02*
X166378571Y-72371430D01*
X166378571Y-72085716D01*
X166307143Y-71942859D01*
X166164286Y-71871430D01*
X165592857Y-71871430D01*
X165450000Y-71942859D01*
X165378571Y-72085716D01*
X165378571Y-72371430D01*
X165450000Y-72514287D01*
X165592857Y-72585716D01*
X165735714Y-72585716D01*
X165878571Y-71871430D01*
X165378571Y-73014287D02*
X165378571Y-73585716D01*
X164878571Y-73228573D02*
X166164286Y-73228573D01*
X166307143Y-73300001D01*
X166378571Y-73442859D01*
X166378571Y-73585716D01*
X164807143Y-75157144D02*
X166735714Y-73871430D01*
X166307143Y-76300002D02*
X166378571Y-76157145D01*
X166378571Y-75871431D01*
X166307143Y-75728573D01*
X166235714Y-75657145D01*
X166092857Y-75585716D01*
X165664286Y-75585716D01*
X165521429Y-75657145D01*
X165450000Y-75728573D01*
X165378571Y-75871431D01*
X165378571Y-76157145D01*
X165450000Y-76300002D01*
X166378571Y-76942859D02*
X164878571Y-76942859D01*
X166378571Y-77585716D02*
X165592857Y-77585716D01*
X165450000Y-77514287D01*
X165378571Y-77371430D01*
X165378571Y-77157145D01*
X165450000Y-77014287D01*
X165521429Y-76942859D01*
X166378571Y-78300002D02*
X165378571Y-78300002D01*
X164878571Y-78300002D02*
X164950000Y-78228573D01*
X165021429Y-78300002D01*
X164950000Y-78371430D01*
X164878571Y-78300002D01*
X165021429Y-78300002D01*
X166378571Y-79014288D02*
X165378571Y-79014288D01*
X165664286Y-79014288D02*
X165521429Y-79085716D01*
X165450000Y-79157145D01*
X165378571Y-79300002D01*
X165378571Y-79442859D01*
X165378571Y-79942859D02*
X166878571Y-79942859D01*
X165450000Y-79942859D02*
X165378571Y-80085716D01*
X165378571Y-80371430D01*
X165450000Y-80514287D01*
X165521429Y-80585716D01*
X165664286Y-80657145D01*
X166092857Y-80657145D01*
X166235714Y-80585716D01*
X166307143Y-80514287D01*
X166378571Y-80371430D01*
X166378571Y-80085716D01*
X166307143Y-79942859D01*
X168778571Y-50800000D02*
X167778571Y-50800000D01*
X167921429Y-50800000D02*
X167850000Y-50871428D01*
X167778571Y-51014286D01*
X167778571Y-51228571D01*
X167850000Y-51371428D01*
X167992857Y-51442857D01*
X168778571Y-51442857D01*
X167992857Y-51442857D02*
X167850000Y-51514286D01*
X167778571Y-51657143D01*
X167778571Y-51871428D01*
X167850000Y-52014286D01*
X167992857Y-52085714D01*
X168778571Y-52085714D01*
X168778571Y-52800000D02*
X167778571Y-52800000D01*
X167278571Y-52800000D02*
X167350000Y-52728571D01*
X167421429Y-52800000D01*
X167350000Y-52871428D01*
X167278571Y-52800000D01*
X167421429Y-52800000D01*
X168707143Y-54157143D02*
X168778571Y-54014286D01*
X168778571Y-53728572D01*
X168707143Y-53585714D01*
X168635714Y-53514286D01*
X168492857Y-53442857D01*
X168064286Y-53442857D01*
X167921429Y-53514286D01*
X167850000Y-53585714D01*
X167778571Y-53728572D01*
X167778571Y-54014286D01*
X167850000Y-54157143D01*
X168064286Y-55728571D02*
X167992857Y-55657143D01*
X167921429Y-55514286D01*
X167921429Y-55371428D01*
X167992857Y-55228571D01*
X168064286Y-55157143D01*
X168207143Y-55085714D01*
X168350000Y-55085714D01*
X168492857Y-55157143D01*
X168564286Y-55228571D01*
X168635714Y-55371428D01*
X168635714Y-55514286D01*
X168564286Y-55657143D01*
X168492857Y-55728571D01*
X167921429Y-55728571D02*
X168492857Y-55728571D01*
X168564286Y-55800000D01*
X168564286Y-55871428D01*
X168492857Y-56014286D01*
X168350000Y-56085714D01*
X167992857Y-56085714D01*
X167778571Y-55942857D01*
X167635714Y-55728571D01*
X167564286Y-55442857D01*
X167635714Y-55157143D01*
X167778571Y-54942857D01*
X167992857Y-54800000D01*
X168278571Y-54728571D01*
X168564286Y-54800000D01*
X168778571Y-54942857D01*
X168921429Y-55157143D01*
X168992857Y-55442857D01*
X168921429Y-55728571D01*
X168778571Y-55942857D01*
X167778571Y-56585714D02*
X168778571Y-56871428D01*
X168064286Y-57157142D01*
X168778571Y-57442857D01*
X167778571Y-57728571D01*
X168707143Y-58871428D02*
X168778571Y-58728571D01*
X168778571Y-58442857D01*
X168707143Y-58300000D01*
X168564286Y-58228571D01*
X167992857Y-58228571D01*
X167850000Y-58300000D01*
X167778571Y-58442857D01*
X167778571Y-58728571D01*
X167850000Y-58871428D01*
X167992857Y-58942857D01*
X168135714Y-58942857D01*
X168278571Y-58228571D01*
X168778571Y-59585714D02*
X167778571Y-59585714D01*
X167921429Y-59585714D02*
X167850000Y-59657142D01*
X167778571Y-59800000D01*
X167778571Y-60014285D01*
X167850000Y-60157142D01*
X167992857Y-60228571D01*
X168778571Y-60228571D01*
X167992857Y-60228571D02*
X167850000Y-60300000D01*
X167778571Y-60442857D01*
X167778571Y-60657142D01*
X167850000Y-60800000D01*
X167992857Y-60871428D01*
X168778571Y-60871428D01*
X168778571Y-62228571D02*
X167992857Y-62228571D01*
X167850000Y-62157142D01*
X167778571Y-62014285D01*
X167778571Y-61728571D01*
X167850000Y-61585714D01*
X168707143Y-62228571D02*
X168778571Y-62085714D01*
X168778571Y-61728571D01*
X168707143Y-61585714D01*
X168564286Y-61514285D01*
X168421429Y-61514285D01*
X168278571Y-61585714D01*
X168207143Y-61728571D01*
X168207143Y-62085714D01*
X168135714Y-62228571D01*
X168778571Y-62942857D02*
X167278571Y-62942857D01*
X168207143Y-63085714D02*
X168778571Y-63514285D01*
X167778571Y-63514285D02*
X168350000Y-62942857D01*
X168707143Y-64728571D02*
X168778571Y-64585714D01*
X168778571Y-64300000D01*
X168707143Y-64157143D01*
X168564286Y-64085714D01*
X167992857Y-64085714D01*
X167850000Y-64157143D01*
X167778571Y-64300000D01*
X167778571Y-64585714D01*
X167850000Y-64728571D01*
X167992857Y-64800000D01*
X168135714Y-64800000D01*
X168278571Y-64085714D01*
X167778571Y-65228571D02*
X167778571Y-65800000D01*
X167278571Y-65442857D02*
X168564286Y-65442857D01*
X168707143Y-65514285D01*
X168778571Y-65657143D01*
X168778571Y-65800000D01*
X168778571Y-66300000D02*
X167278571Y-66300000D01*
X168778571Y-66942857D02*
X167992857Y-66942857D01*
X167850000Y-66871428D01*
X167778571Y-66728571D01*
X167778571Y-66514286D01*
X167850000Y-66371428D01*
X167921429Y-66300000D01*
X168778571Y-67657143D02*
X167778571Y-67657143D01*
X167278571Y-67657143D02*
X167350000Y-67585714D01*
X167421429Y-67657143D01*
X167350000Y-67728571D01*
X167278571Y-67657143D01*
X167421429Y-67657143D01*
X167778571Y-68371429D02*
X168778571Y-68371429D01*
X167921429Y-68371429D02*
X167850000Y-68442857D01*
X167778571Y-68585715D01*
X167778571Y-68800000D01*
X167850000Y-68942857D01*
X167992857Y-69014286D01*
X168778571Y-69014286D01*
X167778571Y-70371429D02*
X168992857Y-70371429D01*
X169135714Y-70300000D01*
X169207143Y-70228572D01*
X169278571Y-70085715D01*
X169278571Y-69871429D01*
X169207143Y-69728572D01*
X168707143Y-70371429D02*
X168778571Y-70228572D01*
X168778571Y-69942858D01*
X168707143Y-69800000D01*
X168635714Y-69728572D01*
X168492857Y-69657143D01*
X168064286Y-69657143D01*
X167921429Y-69728572D01*
X167850000Y-69800000D01*
X167778571Y-69942858D01*
X167778571Y-70228572D01*
X167850000Y-70371429D01*
X168707143Y-71014286D02*
X168778571Y-71157143D01*
X168778571Y-71442858D01*
X168707143Y-71585715D01*
X168564286Y-71657143D01*
X168492857Y-71657143D01*
X168350000Y-71585715D01*
X168278571Y-71442858D01*
X168278571Y-71228572D01*
X168207143Y-71085715D01*
X168064286Y-71014286D01*
X167992857Y-71014286D01*
X167850000Y-71085715D01*
X167778571Y-71228572D01*
X167778571Y-71442858D01*
X167850000Y-71585715D01*
X168635714Y-72300001D02*
X168707143Y-72371429D01*
X168778571Y-72300001D01*
X168707143Y-72228572D01*
X168635714Y-72300001D01*
X168778571Y-72300001D01*
X167778571Y-73014287D02*
X168778571Y-73014287D01*
X167921429Y-73014287D02*
X167850000Y-73085715D01*
X167778571Y-73228573D01*
X167778571Y-73442858D01*
X167850000Y-73585715D01*
X167992857Y-73657144D01*
X168778571Y-73657144D01*
X168707143Y-74942858D02*
X168778571Y-74800001D01*
X168778571Y-74514287D01*
X168707143Y-74371430D01*
X168564286Y-74300001D01*
X167992857Y-74300001D01*
X167850000Y-74371430D01*
X167778571Y-74514287D01*
X167778571Y-74800001D01*
X167850000Y-74942858D01*
X167992857Y-75014287D01*
X168135714Y-75014287D01*
X168278571Y-74300001D01*
X167778571Y-75442858D02*
X167778571Y-76014287D01*
X167278571Y-75657144D02*
X168564286Y-75657144D01*
X168707143Y-75728572D01*
X168778571Y-75871430D01*
X168778571Y-76014287D01*
X145835714Y-54157143D02*
X145907143Y-54085714D01*
X145978571Y-53871428D01*
X145978571Y-53728571D01*
X145907143Y-53514286D01*
X145764286Y-53371428D01*
X145621429Y-53300000D01*
X145335714Y-53228571D01*
X145121429Y-53228571D01*
X144835714Y-53300000D01*
X144692857Y-53371428D01*
X144550000Y-53514286D01*
X144478571Y-53728571D01*
X144478571Y-53871428D01*
X144550000Y-54085714D01*
X144621429Y-54157143D01*
X145978571Y-55442857D02*
X145192857Y-55442857D01*
X145050000Y-55371428D01*
X144978571Y-55228571D01*
X144978571Y-54942857D01*
X145050000Y-54800000D01*
X145907143Y-55442857D02*
X145978571Y-55300000D01*
X145978571Y-54942857D01*
X145907143Y-54800000D01*
X145764286Y-54728571D01*
X145621429Y-54728571D01*
X145478571Y-54800000D01*
X145407143Y-54942857D01*
X145407143Y-55300000D01*
X145335714Y-55442857D01*
X144978571Y-55942857D02*
X144978571Y-56514286D01*
X144478571Y-56157143D02*
X145764286Y-56157143D01*
X145907143Y-56228571D01*
X145978571Y-56371429D01*
X145978571Y-56514286D01*
X144978571Y-57014286D02*
X145978571Y-57014286D01*
X145121429Y-57014286D02*
X145050000Y-57085714D01*
X144978571Y-57228572D01*
X144978571Y-57442857D01*
X145050000Y-57585714D01*
X145192857Y-57657143D01*
X145978571Y-57657143D01*
X145978571Y-58371429D02*
X144978571Y-58371429D01*
X144478571Y-58371429D02*
X144550000Y-58300000D01*
X144621429Y-58371429D01*
X144550000Y-58442857D01*
X144478571Y-58371429D01*
X144621429Y-58371429D01*
X144978571Y-59085715D02*
X146478571Y-59085715D01*
X145050000Y-59085715D02*
X144978571Y-59228572D01*
X144978571Y-59514286D01*
X145050000Y-59657143D01*
X145121429Y-59728572D01*
X145264286Y-59800001D01*
X145692857Y-59800001D01*
X145835714Y-59728572D01*
X145907143Y-59657143D01*
X145978571Y-59514286D01*
X145978571Y-59228572D01*
X145907143Y-59085715D01*
X145192857Y-61585715D02*
X145192857Y-62085715D01*
X145978571Y-62300001D02*
X145978571Y-61585715D01*
X144478571Y-61585715D01*
X144478571Y-62300001D01*
X145978571Y-63157144D02*
X145907143Y-63014286D01*
X145764286Y-62942858D01*
X144478571Y-62942858D01*
X145907143Y-64300000D02*
X145978571Y-64157143D01*
X145978571Y-63871429D01*
X145907143Y-63728572D01*
X145764286Y-63657143D01*
X145192857Y-63657143D01*
X145050000Y-63728572D01*
X144978571Y-63871429D01*
X144978571Y-64157143D01*
X145050000Y-64300000D01*
X145192857Y-64371429D01*
X145335714Y-64371429D01*
X145478571Y-63657143D01*
X145907143Y-65657143D02*
X145978571Y-65514286D01*
X145978571Y-65228572D01*
X145907143Y-65085714D01*
X145835714Y-65014286D01*
X145692857Y-64942857D01*
X145264286Y-64942857D01*
X145121429Y-65014286D01*
X145050000Y-65085714D01*
X144978571Y-65228572D01*
X144978571Y-65514286D01*
X145050000Y-65657143D01*
X144978571Y-66085714D02*
X144978571Y-66657143D01*
X144478571Y-66300000D02*
X145764286Y-66300000D01*
X145907143Y-66371428D01*
X145978571Y-66514286D01*
X145978571Y-66657143D01*
X145978571Y-67157143D02*
X144978571Y-67157143D01*
X145264286Y-67157143D02*
X145121429Y-67228571D01*
X145050000Y-67300000D01*
X144978571Y-67442857D01*
X144978571Y-67585714D01*
X145978571Y-68300000D02*
X145907143Y-68157142D01*
X145835714Y-68085714D01*
X145692857Y-68014285D01*
X145264286Y-68014285D01*
X145121429Y-68085714D01*
X145050000Y-68157142D01*
X144978571Y-68300000D01*
X144978571Y-68514285D01*
X145050000Y-68657142D01*
X145121429Y-68728571D01*
X145264286Y-68800000D01*
X145692857Y-68800000D01*
X145835714Y-68728571D01*
X145907143Y-68657142D01*
X145978571Y-68514285D01*
X145978571Y-68300000D01*
X144978571Y-69442857D02*
X145978571Y-69442857D01*
X145121429Y-69442857D02*
X145050000Y-69514285D01*
X144978571Y-69657143D01*
X144978571Y-69871428D01*
X145050000Y-70014285D01*
X145192857Y-70085714D01*
X145978571Y-70085714D01*
X145978571Y-70800000D02*
X144978571Y-70800000D01*
X144478571Y-70800000D02*
X144550000Y-70728571D01*
X144621429Y-70800000D01*
X144550000Y-70871428D01*
X144478571Y-70800000D01*
X144621429Y-70800000D01*
X145907143Y-72157143D02*
X145978571Y-72014286D01*
X145978571Y-71728572D01*
X145907143Y-71585714D01*
X145835714Y-71514286D01*
X145692857Y-71442857D01*
X145264286Y-71442857D01*
X145121429Y-71514286D01*
X145050000Y-71585714D01*
X144978571Y-71728572D01*
X144978571Y-72014286D01*
X145050000Y-72157143D01*
X145907143Y-72728571D02*
X145978571Y-72871428D01*
X145978571Y-73157143D01*
X145907143Y-73300000D01*
X145764286Y-73371428D01*
X145692857Y-73371428D01*
X145550000Y-73300000D01*
X145478571Y-73157143D01*
X145478571Y-72942857D01*
X145407143Y-72800000D01*
X145264286Y-72728571D01*
X145192857Y-72728571D01*
X145050000Y-72800000D01*
X144978571Y-72942857D01*
X144978571Y-73157143D01*
X145050000Y-73300000D01*
X148378571Y-46014284D02*
X146878571Y-46014284D01*
X148378571Y-46657141D02*
X147592857Y-46657141D01*
X147450000Y-46585712D01*
X147378571Y-46442855D01*
X147378571Y-46228570D01*
X147450000Y-46085712D01*
X147521429Y-46014284D01*
X147378571Y-47157141D02*
X147378571Y-47728570D01*
X146878571Y-47371427D02*
X148164286Y-47371427D01*
X148307143Y-47442855D01*
X148378571Y-47585713D01*
X148378571Y-47728570D01*
X147378571Y-48014284D02*
X147378571Y-48585713D01*
X146878571Y-48228570D02*
X148164286Y-48228570D01*
X148307143Y-48299998D01*
X148378571Y-48442856D01*
X148378571Y-48585713D01*
X147378571Y-49085713D02*
X148878571Y-49085713D01*
X147450000Y-49085713D02*
X147378571Y-49228570D01*
X147378571Y-49514284D01*
X147450000Y-49657141D01*
X147521429Y-49728570D01*
X147664286Y-49799999D01*
X148092857Y-49799999D01*
X148235714Y-49728570D01*
X148307143Y-49657141D01*
X148378571Y-49514284D01*
X148378571Y-49228570D01*
X148307143Y-49085713D01*
X148235714Y-50442856D02*
X148307143Y-50514284D01*
X148378571Y-50442856D01*
X148307143Y-50371427D01*
X148235714Y-50442856D01*
X148378571Y-50442856D01*
X147450000Y-50442856D02*
X147521429Y-50514284D01*
X147592857Y-50442856D01*
X147521429Y-50371427D01*
X147450000Y-50442856D01*
X147592857Y-50442856D01*
X146807143Y-52228570D02*
X148735714Y-50942856D01*
X146807143Y-53799999D02*
X148735714Y-52514285D01*
X147378571Y-54157143D02*
X148378571Y-54442857D01*
X147664286Y-54728571D01*
X148378571Y-55014286D01*
X147378571Y-55300000D01*
X148307143Y-56442857D02*
X148378571Y-56300000D01*
X148378571Y-56014286D01*
X148307143Y-55871429D01*
X148164286Y-55800000D01*
X147592857Y-55800000D01*
X147450000Y-55871429D01*
X147378571Y-56014286D01*
X147378571Y-56300000D01*
X147450000Y-56442857D01*
X147592857Y-56514286D01*
X147735714Y-56514286D01*
X147878571Y-55800000D01*
X148378571Y-57157143D02*
X147378571Y-57157143D01*
X147521429Y-57157143D02*
X147450000Y-57228571D01*
X147378571Y-57371429D01*
X147378571Y-57585714D01*
X147450000Y-57728571D01*
X147592857Y-57800000D01*
X148378571Y-57800000D01*
X147592857Y-57800000D02*
X147450000Y-57871429D01*
X147378571Y-58014286D01*
X147378571Y-58228571D01*
X147450000Y-58371429D01*
X147592857Y-58442857D01*
X148378571Y-58442857D01*
X148378571Y-59800000D02*
X147592857Y-59800000D01*
X147450000Y-59728571D01*
X147378571Y-59585714D01*
X147378571Y-59300000D01*
X147450000Y-59157143D01*
X148307143Y-59800000D02*
X148378571Y-59657143D01*
X148378571Y-59300000D01*
X148307143Y-59157143D01*
X148164286Y-59085714D01*
X148021429Y-59085714D01*
X147878571Y-59157143D01*
X147807143Y-59300000D01*
X147807143Y-59657143D01*
X147735714Y-59800000D01*
X148378571Y-60514286D02*
X146878571Y-60514286D01*
X147807143Y-60657143D02*
X148378571Y-61085714D01*
X147378571Y-61085714D02*
X147950000Y-60514286D01*
X148307143Y-62300000D02*
X148378571Y-62157143D01*
X148378571Y-61871429D01*
X148307143Y-61728572D01*
X148164286Y-61657143D01*
X147592857Y-61657143D01*
X147450000Y-61728572D01*
X147378571Y-61871429D01*
X147378571Y-62157143D01*
X147450000Y-62300000D01*
X147592857Y-62371429D01*
X147735714Y-62371429D01*
X147878571Y-61657143D01*
X147378571Y-62800000D02*
X147378571Y-63371429D01*
X146878571Y-63014286D02*
X148164286Y-63014286D01*
X148307143Y-63085714D01*
X148378571Y-63228572D01*
X148378571Y-63371429D01*
X148378571Y-63871429D02*
X146878571Y-63871429D01*
X148378571Y-64514286D02*
X147592857Y-64514286D01*
X147450000Y-64442857D01*
X147378571Y-64300000D01*
X147378571Y-64085715D01*
X147450000Y-63942857D01*
X147521429Y-63871429D01*
X148378571Y-65228572D02*
X147378571Y-65228572D01*
X146878571Y-65228572D02*
X146950000Y-65157143D01*
X147021429Y-65228572D01*
X146950000Y-65300000D01*
X146878571Y-65228572D01*
X147021429Y-65228572D01*
X147378571Y-65942858D02*
X148378571Y-65942858D01*
X147521429Y-65942858D02*
X147450000Y-66014286D01*
X147378571Y-66157144D01*
X147378571Y-66371429D01*
X147450000Y-66514286D01*
X147592857Y-66585715D01*
X148378571Y-66585715D01*
X147378571Y-67942858D02*
X148592857Y-67942858D01*
X148735714Y-67871429D01*
X148807143Y-67800001D01*
X148878571Y-67657144D01*
X148878571Y-67442858D01*
X148807143Y-67300001D01*
X148307143Y-67942858D02*
X148378571Y-67800001D01*
X148378571Y-67514287D01*
X148307143Y-67371429D01*
X148235714Y-67300001D01*
X148092857Y-67228572D01*
X147664286Y-67228572D01*
X147521429Y-67300001D01*
X147450000Y-67371429D01*
X147378571Y-67514287D01*
X147378571Y-67800001D01*
X147450000Y-67942858D01*
X148307143Y-68585715D02*
X148378571Y-68728572D01*
X148378571Y-69014287D01*
X148307143Y-69157144D01*
X148164286Y-69228572D01*
X148092857Y-69228572D01*
X147950000Y-69157144D01*
X147878571Y-69014287D01*
X147878571Y-68800001D01*
X147807143Y-68657144D01*
X147664286Y-68585715D01*
X147592857Y-68585715D01*
X147450000Y-68657144D01*
X147378571Y-68800001D01*
X147378571Y-69014287D01*
X147450000Y-69157144D01*
X148235714Y-69871430D02*
X148307143Y-69942858D01*
X148378571Y-69871430D01*
X148307143Y-69800001D01*
X148235714Y-69871430D01*
X148378571Y-69871430D01*
X147378571Y-70585716D02*
X148378571Y-70585716D01*
X147521429Y-70585716D02*
X147450000Y-70657144D01*
X147378571Y-70800002D01*
X147378571Y-71014287D01*
X147450000Y-71157144D01*
X147592857Y-71228573D01*
X148378571Y-71228573D01*
X148307143Y-72514287D02*
X148378571Y-72371430D01*
X148378571Y-72085716D01*
X148307143Y-71942859D01*
X148164286Y-71871430D01*
X147592857Y-71871430D01*
X147450000Y-71942859D01*
X147378571Y-72085716D01*
X147378571Y-72371430D01*
X147450000Y-72514287D01*
X147592857Y-72585716D01*
X147735714Y-72585716D01*
X147878571Y-71871430D01*
X147378571Y-73014287D02*
X147378571Y-73585716D01*
X146878571Y-73228573D02*
X148164286Y-73228573D01*
X148307143Y-73300001D01*
X148378571Y-73442859D01*
X148378571Y-73585716D01*
X146807143Y-75157144D02*
X148735714Y-73871430D01*
X148307143Y-76300002D02*
X148378571Y-76157145D01*
X148378571Y-75871431D01*
X148307143Y-75728573D01*
X148235714Y-75657145D01*
X148092857Y-75585716D01*
X147664286Y-75585716D01*
X147521429Y-75657145D01*
X147450000Y-75728573D01*
X147378571Y-75871431D01*
X147378571Y-76157145D01*
X147450000Y-76300002D01*
X148378571Y-76942859D02*
X146878571Y-76942859D01*
X148378571Y-77585716D02*
X147592857Y-77585716D01*
X147450000Y-77514287D01*
X147378571Y-77371430D01*
X147378571Y-77157145D01*
X147450000Y-77014287D01*
X147521429Y-76942859D01*
X148378571Y-78300002D02*
X147378571Y-78300002D01*
X146878571Y-78300002D02*
X146950000Y-78228573D01*
X147021429Y-78300002D01*
X146950000Y-78371430D01*
X146878571Y-78300002D01*
X147021429Y-78300002D01*
X148378571Y-79014288D02*
X147378571Y-79014288D01*
X147664286Y-79014288D02*
X147521429Y-79085716D01*
X147450000Y-79157145D01*
X147378571Y-79300002D01*
X147378571Y-79442859D01*
X147378571Y-79942859D02*
X148878571Y-79942859D01*
X147450000Y-79942859D02*
X147378571Y-80085716D01*
X147378571Y-80371430D01*
X147450000Y-80514287D01*
X147521429Y-80585716D01*
X147664286Y-80657145D01*
X148092857Y-80657145D01*
X148235714Y-80585716D01*
X148307143Y-80514287D01*
X148378571Y-80371430D01*
X148378571Y-80085716D01*
X148307143Y-79942859D01*
X150778571Y-50800000D02*
X149778571Y-50800000D01*
X149921429Y-50800000D02*
X149850000Y-50871428D01*
X149778571Y-51014286D01*
X149778571Y-51228571D01*
X149850000Y-51371428D01*
X149992857Y-51442857D01*
X150778571Y-51442857D01*
X149992857Y-51442857D02*
X149850000Y-51514286D01*
X149778571Y-51657143D01*
X149778571Y-51871428D01*
X149850000Y-52014286D01*
X149992857Y-52085714D01*
X150778571Y-52085714D01*
X150778571Y-52800000D02*
X149778571Y-52800000D01*
X149278571Y-52800000D02*
X149350000Y-52728571D01*
X149421429Y-52800000D01*
X149350000Y-52871428D01*
X149278571Y-52800000D01*
X149421429Y-52800000D01*
X150707143Y-54157143D02*
X150778571Y-54014286D01*
X150778571Y-53728572D01*
X150707143Y-53585714D01*
X150635714Y-53514286D01*
X150492857Y-53442857D01*
X150064286Y-53442857D01*
X149921429Y-53514286D01*
X149850000Y-53585714D01*
X149778571Y-53728572D01*
X149778571Y-54014286D01*
X149850000Y-54157143D01*
X150064286Y-55728571D02*
X149992857Y-55657143D01*
X149921429Y-55514286D01*
X149921429Y-55371428D01*
X149992857Y-55228571D01*
X150064286Y-55157143D01*
X150207143Y-55085714D01*
X150350000Y-55085714D01*
X150492857Y-55157143D01*
X150564286Y-55228571D01*
X150635714Y-55371428D01*
X150635714Y-55514286D01*
X150564286Y-55657143D01*
X150492857Y-55728571D01*
X149921429Y-55728571D02*
X150492857Y-55728571D01*
X150564286Y-55800000D01*
X150564286Y-55871428D01*
X150492857Y-56014286D01*
X150350000Y-56085714D01*
X149992857Y-56085714D01*
X149778571Y-55942857D01*
X149635714Y-55728571D01*
X149564286Y-55442857D01*
X149635714Y-55157143D01*
X149778571Y-54942857D01*
X149992857Y-54800000D01*
X150278571Y-54728571D01*
X150564286Y-54800000D01*
X150778571Y-54942857D01*
X150921429Y-55157143D01*
X150992857Y-55442857D01*
X150921429Y-55728571D01*
X150778571Y-55942857D01*
X149778571Y-56585714D02*
X150778571Y-56871428D01*
X150064286Y-57157142D01*
X150778571Y-57442857D01*
X149778571Y-57728571D01*
X150707143Y-58871428D02*
X150778571Y-58728571D01*
X150778571Y-58442857D01*
X150707143Y-58300000D01*
X150564286Y-58228571D01*
X149992857Y-58228571D01*
X149850000Y-58300000D01*
X149778571Y-58442857D01*
X149778571Y-58728571D01*
X149850000Y-58871428D01*
X149992857Y-58942857D01*
X150135714Y-58942857D01*
X150278571Y-58228571D01*
X150778571Y-59585714D02*
X149778571Y-59585714D01*
X149921429Y-59585714D02*
X149850000Y-59657142D01*
X149778571Y-59800000D01*
X149778571Y-60014285D01*
X149850000Y-60157142D01*
X149992857Y-60228571D01*
X150778571Y-60228571D01*
X149992857Y-60228571D02*
X149850000Y-60300000D01*
X149778571Y-60442857D01*
X149778571Y-60657142D01*
X149850000Y-60800000D01*
X149992857Y-60871428D01*
X150778571Y-60871428D01*
X150778571Y-62228571D02*
X149992857Y-62228571D01*
X149850000Y-62157142D01*
X149778571Y-62014285D01*
X149778571Y-61728571D01*
X149850000Y-61585714D01*
X150707143Y-62228571D02*
X150778571Y-62085714D01*
X150778571Y-61728571D01*
X150707143Y-61585714D01*
X150564286Y-61514285D01*
X150421429Y-61514285D01*
X150278571Y-61585714D01*
X150207143Y-61728571D01*
X150207143Y-62085714D01*
X150135714Y-62228571D01*
X150778571Y-62942857D02*
X149278571Y-62942857D01*
X150207143Y-63085714D02*
X150778571Y-63514285D01*
X149778571Y-63514285D02*
X150350000Y-62942857D01*
X150707143Y-64728571D02*
X150778571Y-64585714D01*
X150778571Y-64300000D01*
X150707143Y-64157143D01*
X150564286Y-64085714D01*
X149992857Y-64085714D01*
X149850000Y-64157143D01*
X149778571Y-64300000D01*
X149778571Y-64585714D01*
X149850000Y-64728571D01*
X149992857Y-64800000D01*
X150135714Y-64800000D01*
X150278571Y-64085714D01*
X149778571Y-65228571D02*
X149778571Y-65800000D01*
X149278571Y-65442857D02*
X150564286Y-65442857D01*
X150707143Y-65514285D01*
X150778571Y-65657143D01*
X150778571Y-65800000D01*
X150778571Y-66300000D02*
X149278571Y-66300000D01*
X150778571Y-66942857D02*
X149992857Y-66942857D01*
X149850000Y-66871428D01*
X149778571Y-66728571D01*
X149778571Y-66514286D01*
X149850000Y-66371428D01*
X149921429Y-66300000D01*
X150778571Y-67657143D02*
X149778571Y-67657143D01*
X149278571Y-67657143D02*
X149350000Y-67585714D01*
X149421429Y-67657143D01*
X149350000Y-67728571D01*
X149278571Y-67657143D01*
X149421429Y-67657143D01*
X149778571Y-68371429D02*
X150778571Y-68371429D01*
X149921429Y-68371429D02*
X149850000Y-68442857D01*
X149778571Y-68585715D01*
X149778571Y-68800000D01*
X149850000Y-68942857D01*
X149992857Y-69014286D01*
X150778571Y-69014286D01*
X149778571Y-70371429D02*
X150992857Y-70371429D01*
X151135714Y-70300000D01*
X151207143Y-70228572D01*
X151278571Y-70085715D01*
X151278571Y-69871429D01*
X151207143Y-69728572D01*
X150707143Y-70371429D02*
X150778571Y-70228572D01*
X150778571Y-69942858D01*
X150707143Y-69800000D01*
X150635714Y-69728572D01*
X150492857Y-69657143D01*
X150064286Y-69657143D01*
X149921429Y-69728572D01*
X149850000Y-69800000D01*
X149778571Y-69942858D01*
X149778571Y-70228572D01*
X149850000Y-70371429D01*
X150707143Y-71014286D02*
X150778571Y-71157143D01*
X150778571Y-71442858D01*
X150707143Y-71585715D01*
X150564286Y-71657143D01*
X150492857Y-71657143D01*
X150350000Y-71585715D01*
X150278571Y-71442858D01*
X150278571Y-71228572D01*
X150207143Y-71085715D01*
X150064286Y-71014286D01*
X149992857Y-71014286D01*
X149850000Y-71085715D01*
X149778571Y-71228572D01*
X149778571Y-71442858D01*
X149850000Y-71585715D01*
X150635714Y-72300001D02*
X150707143Y-72371429D01*
X150778571Y-72300001D01*
X150707143Y-72228572D01*
X150635714Y-72300001D01*
X150778571Y-72300001D01*
X149778571Y-73014287D02*
X150778571Y-73014287D01*
X149921429Y-73014287D02*
X149850000Y-73085715D01*
X149778571Y-73228573D01*
X149778571Y-73442858D01*
X149850000Y-73585715D01*
X149992857Y-73657144D01*
X150778571Y-73657144D01*
X150707143Y-74942858D02*
X150778571Y-74800001D01*
X150778571Y-74514287D01*
X150707143Y-74371430D01*
X150564286Y-74300001D01*
X149992857Y-74300001D01*
X149850000Y-74371430D01*
X149778571Y-74514287D01*
X149778571Y-74800001D01*
X149850000Y-74942858D01*
X149992857Y-75014287D01*
X150135714Y-75014287D01*
X150278571Y-74300001D01*
X149778571Y-75442858D02*
X149778571Y-76014287D01*
X149278571Y-75657144D02*
X150564286Y-75657144D01*
X150707143Y-75728572D01*
X150778571Y-75871430D01*
X150778571Y-76014287D01*
X109835714Y-54157143D02*
X109907143Y-54085714D01*
X109978571Y-53871428D01*
X109978571Y-53728571D01*
X109907143Y-53514286D01*
X109764286Y-53371428D01*
X109621429Y-53300000D01*
X109335714Y-53228571D01*
X109121429Y-53228571D01*
X108835714Y-53300000D01*
X108692857Y-53371428D01*
X108550000Y-53514286D01*
X108478571Y-53728571D01*
X108478571Y-53871428D01*
X108550000Y-54085714D01*
X108621429Y-54157143D01*
X109978571Y-55442857D02*
X109192857Y-55442857D01*
X109050000Y-55371428D01*
X108978571Y-55228571D01*
X108978571Y-54942857D01*
X109050000Y-54800000D01*
X109907143Y-55442857D02*
X109978571Y-55300000D01*
X109978571Y-54942857D01*
X109907143Y-54800000D01*
X109764286Y-54728571D01*
X109621429Y-54728571D01*
X109478571Y-54800000D01*
X109407143Y-54942857D01*
X109407143Y-55300000D01*
X109335714Y-55442857D01*
X108978571Y-55942857D02*
X108978571Y-56514286D01*
X108478571Y-56157143D02*
X109764286Y-56157143D01*
X109907143Y-56228571D01*
X109978571Y-56371429D01*
X109978571Y-56514286D01*
X108978571Y-57014286D02*
X109978571Y-57014286D01*
X109121429Y-57014286D02*
X109050000Y-57085714D01*
X108978571Y-57228572D01*
X108978571Y-57442857D01*
X109050000Y-57585714D01*
X109192857Y-57657143D01*
X109978571Y-57657143D01*
X109978571Y-58371429D02*
X108978571Y-58371429D01*
X108478571Y-58371429D02*
X108550000Y-58300000D01*
X108621429Y-58371429D01*
X108550000Y-58442857D01*
X108478571Y-58371429D01*
X108621429Y-58371429D01*
X108978571Y-59085715D02*
X110478571Y-59085715D01*
X109050000Y-59085715D02*
X108978571Y-59228572D01*
X108978571Y-59514286D01*
X109050000Y-59657143D01*
X109121429Y-59728572D01*
X109264286Y-59800001D01*
X109692857Y-59800001D01*
X109835714Y-59728572D01*
X109907143Y-59657143D01*
X109978571Y-59514286D01*
X109978571Y-59228572D01*
X109907143Y-59085715D01*
X109192857Y-61585715D02*
X109192857Y-62085715D01*
X109978571Y-62300001D02*
X109978571Y-61585715D01*
X108478571Y-61585715D01*
X108478571Y-62300001D01*
X109978571Y-63157144D02*
X109907143Y-63014286D01*
X109764286Y-62942858D01*
X108478571Y-62942858D01*
X109907143Y-64300000D02*
X109978571Y-64157143D01*
X109978571Y-63871429D01*
X109907143Y-63728572D01*
X109764286Y-63657143D01*
X109192857Y-63657143D01*
X109050000Y-63728572D01*
X108978571Y-63871429D01*
X108978571Y-64157143D01*
X109050000Y-64300000D01*
X109192857Y-64371429D01*
X109335714Y-64371429D01*
X109478571Y-63657143D01*
X109907143Y-65657143D02*
X109978571Y-65514286D01*
X109978571Y-65228572D01*
X109907143Y-65085714D01*
X109835714Y-65014286D01*
X109692857Y-64942857D01*
X109264286Y-64942857D01*
X109121429Y-65014286D01*
X109050000Y-65085714D01*
X108978571Y-65228572D01*
X108978571Y-65514286D01*
X109050000Y-65657143D01*
X108978571Y-66085714D02*
X108978571Y-66657143D01*
X108478571Y-66300000D02*
X109764286Y-66300000D01*
X109907143Y-66371428D01*
X109978571Y-66514286D01*
X109978571Y-66657143D01*
X109978571Y-67157143D02*
X108978571Y-67157143D01*
X109264286Y-67157143D02*
X109121429Y-67228571D01*
X109050000Y-67300000D01*
X108978571Y-67442857D01*
X108978571Y-67585714D01*
X109978571Y-68300000D02*
X109907143Y-68157142D01*
X109835714Y-68085714D01*
X109692857Y-68014285D01*
X109264286Y-68014285D01*
X109121429Y-68085714D01*
X109050000Y-68157142D01*
X108978571Y-68300000D01*
X108978571Y-68514285D01*
X109050000Y-68657142D01*
X109121429Y-68728571D01*
X109264286Y-68800000D01*
X109692857Y-68800000D01*
X109835714Y-68728571D01*
X109907143Y-68657142D01*
X109978571Y-68514285D01*
X109978571Y-68300000D01*
X108978571Y-69442857D02*
X109978571Y-69442857D01*
X109121429Y-69442857D02*
X109050000Y-69514285D01*
X108978571Y-69657143D01*
X108978571Y-69871428D01*
X109050000Y-70014285D01*
X109192857Y-70085714D01*
X109978571Y-70085714D01*
X109978571Y-70800000D02*
X108978571Y-70800000D01*
X108478571Y-70800000D02*
X108550000Y-70728571D01*
X108621429Y-70800000D01*
X108550000Y-70871428D01*
X108478571Y-70800000D01*
X108621429Y-70800000D01*
X109907143Y-72157143D02*
X109978571Y-72014286D01*
X109978571Y-71728572D01*
X109907143Y-71585714D01*
X109835714Y-71514286D01*
X109692857Y-71442857D01*
X109264286Y-71442857D01*
X109121429Y-71514286D01*
X109050000Y-71585714D01*
X108978571Y-71728572D01*
X108978571Y-72014286D01*
X109050000Y-72157143D01*
X109907143Y-72728571D02*
X109978571Y-72871428D01*
X109978571Y-73157143D01*
X109907143Y-73300000D01*
X109764286Y-73371428D01*
X109692857Y-73371428D01*
X109550000Y-73300000D01*
X109478571Y-73157143D01*
X109478571Y-72942857D01*
X109407143Y-72800000D01*
X109264286Y-72728571D01*
X109192857Y-72728571D01*
X109050000Y-72800000D01*
X108978571Y-72942857D01*
X108978571Y-73157143D01*
X109050000Y-73300000D01*
X112378571Y-46014284D02*
X110878571Y-46014284D01*
X112378571Y-46657141D02*
X111592857Y-46657141D01*
X111450000Y-46585712D01*
X111378571Y-46442855D01*
X111378571Y-46228570D01*
X111450000Y-46085712D01*
X111521429Y-46014284D01*
X111378571Y-47157141D02*
X111378571Y-47728570D01*
X110878571Y-47371427D02*
X112164286Y-47371427D01*
X112307143Y-47442855D01*
X112378571Y-47585713D01*
X112378571Y-47728570D01*
X111378571Y-48014284D02*
X111378571Y-48585713D01*
X110878571Y-48228570D02*
X112164286Y-48228570D01*
X112307143Y-48299998D01*
X112378571Y-48442856D01*
X112378571Y-48585713D01*
X111378571Y-49085713D02*
X112878571Y-49085713D01*
X111450000Y-49085713D02*
X111378571Y-49228570D01*
X111378571Y-49514284D01*
X111450000Y-49657141D01*
X111521429Y-49728570D01*
X111664286Y-49799999D01*
X112092857Y-49799999D01*
X112235714Y-49728570D01*
X112307143Y-49657141D01*
X112378571Y-49514284D01*
X112378571Y-49228570D01*
X112307143Y-49085713D01*
X112235714Y-50442856D02*
X112307143Y-50514284D01*
X112378571Y-50442856D01*
X112307143Y-50371427D01*
X112235714Y-50442856D01*
X112378571Y-50442856D01*
X111450000Y-50442856D02*
X111521429Y-50514284D01*
X111592857Y-50442856D01*
X111521429Y-50371427D01*
X111450000Y-50442856D01*
X111592857Y-50442856D01*
X110807143Y-52228570D02*
X112735714Y-50942856D01*
X110807143Y-53799999D02*
X112735714Y-52514285D01*
X111378571Y-54157143D02*
X112378571Y-54442857D01*
X111664286Y-54728571D01*
X112378571Y-55014286D01*
X111378571Y-55300000D01*
X112307143Y-56442857D02*
X112378571Y-56300000D01*
X112378571Y-56014286D01*
X112307143Y-55871429D01*
X112164286Y-55800000D01*
X111592857Y-55800000D01*
X111450000Y-55871429D01*
X111378571Y-56014286D01*
X111378571Y-56300000D01*
X111450000Y-56442857D01*
X111592857Y-56514286D01*
X111735714Y-56514286D01*
X111878571Y-55800000D01*
X112378571Y-57157143D02*
X111378571Y-57157143D01*
X111521429Y-57157143D02*
X111450000Y-57228571D01*
X111378571Y-57371429D01*
X111378571Y-57585714D01*
X111450000Y-57728571D01*
X111592857Y-57800000D01*
X112378571Y-57800000D01*
X111592857Y-57800000D02*
X111450000Y-57871429D01*
X111378571Y-58014286D01*
X111378571Y-58228571D01*
X111450000Y-58371429D01*
X111592857Y-58442857D01*
X112378571Y-58442857D01*
X112378571Y-59800000D02*
X111592857Y-59800000D01*
X111450000Y-59728571D01*
X111378571Y-59585714D01*
X111378571Y-59300000D01*
X111450000Y-59157143D01*
X112307143Y-59800000D02*
X112378571Y-59657143D01*
X112378571Y-59300000D01*
X112307143Y-59157143D01*
X112164286Y-59085714D01*
X112021429Y-59085714D01*
X111878571Y-59157143D01*
X111807143Y-59300000D01*
X111807143Y-59657143D01*
X111735714Y-59800000D01*
X112378571Y-60514286D02*
X110878571Y-60514286D01*
X111807143Y-60657143D02*
X112378571Y-61085714D01*
X111378571Y-61085714D02*
X111950000Y-60514286D01*
X112307143Y-62300000D02*
X112378571Y-62157143D01*
X112378571Y-61871429D01*
X112307143Y-61728572D01*
X112164286Y-61657143D01*
X111592857Y-61657143D01*
X111450000Y-61728572D01*
X111378571Y-61871429D01*
X111378571Y-62157143D01*
X111450000Y-62300000D01*
X111592857Y-62371429D01*
X111735714Y-62371429D01*
X111878571Y-61657143D01*
X111378571Y-62800000D02*
X111378571Y-63371429D01*
X110878571Y-63014286D02*
X112164286Y-63014286D01*
X112307143Y-63085714D01*
X112378571Y-63228572D01*
X112378571Y-63371429D01*
X112378571Y-63871429D02*
X110878571Y-63871429D01*
X112378571Y-64514286D02*
X111592857Y-64514286D01*
X111450000Y-64442857D01*
X111378571Y-64300000D01*
X111378571Y-64085715D01*
X111450000Y-63942857D01*
X111521429Y-63871429D01*
X112378571Y-65228572D02*
X111378571Y-65228572D01*
X110878571Y-65228572D02*
X110950000Y-65157143D01*
X111021429Y-65228572D01*
X110950000Y-65300000D01*
X110878571Y-65228572D01*
X111021429Y-65228572D01*
X111378571Y-65942858D02*
X112378571Y-65942858D01*
X111521429Y-65942858D02*
X111450000Y-66014286D01*
X111378571Y-66157144D01*
X111378571Y-66371429D01*
X111450000Y-66514286D01*
X111592857Y-66585715D01*
X112378571Y-66585715D01*
X111378571Y-67942858D02*
X112592857Y-67942858D01*
X112735714Y-67871429D01*
X112807143Y-67800001D01*
X112878571Y-67657144D01*
X112878571Y-67442858D01*
X112807143Y-67300001D01*
X112307143Y-67942858D02*
X112378571Y-67800001D01*
X112378571Y-67514287D01*
X112307143Y-67371429D01*
X112235714Y-67300001D01*
X112092857Y-67228572D01*
X111664286Y-67228572D01*
X111521429Y-67300001D01*
X111450000Y-67371429D01*
X111378571Y-67514287D01*
X111378571Y-67800001D01*
X111450000Y-67942858D01*
X112307143Y-68585715D02*
X112378571Y-68728572D01*
X112378571Y-69014287D01*
X112307143Y-69157144D01*
X112164286Y-69228572D01*
X112092857Y-69228572D01*
X111950000Y-69157144D01*
X111878571Y-69014287D01*
X111878571Y-68800001D01*
X111807143Y-68657144D01*
X111664286Y-68585715D01*
X111592857Y-68585715D01*
X111450000Y-68657144D01*
X111378571Y-68800001D01*
X111378571Y-69014287D01*
X111450000Y-69157144D01*
X112235714Y-69871430D02*
X112307143Y-69942858D01*
X112378571Y-69871430D01*
X112307143Y-69800001D01*
X112235714Y-69871430D01*
X112378571Y-69871430D01*
X111378571Y-70585716D02*
X112378571Y-70585716D01*
X111521429Y-70585716D02*
X111450000Y-70657144D01*
X111378571Y-70800002D01*
X111378571Y-71014287D01*
X111450000Y-71157144D01*
X111592857Y-71228573D01*
X112378571Y-71228573D01*
X112307143Y-72514287D02*
X112378571Y-72371430D01*
X112378571Y-72085716D01*
X112307143Y-71942859D01*
X112164286Y-71871430D01*
X111592857Y-71871430D01*
X111450000Y-71942859D01*
X111378571Y-72085716D01*
X111378571Y-72371430D01*
X111450000Y-72514287D01*
X111592857Y-72585716D01*
X111735714Y-72585716D01*
X111878571Y-71871430D01*
X111378571Y-73014287D02*
X111378571Y-73585716D01*
X110878571Y-73228573D02*
X112164286Y-73228573D01*
X112307143Y-73300001D01*
X112378571Y-73442859D01*
X112378571Y-73585716D01*
X110807143Y-75157144D02*
X112735714Y-73871430D01*
X112307143Y-76300002D02*
X112378571Y-76157145D01*
X112378571Y-75871431D01*
X112307143Y-75728573D01*
X112235714Y-75657145D01*
X112092857Y-75585716D01*
X111664286Y-75585716D01*
X111521429Y-75657145D01*
X111450000Y-75728573D01*
X111378571Y-75871431D01*
X111378571Y-76157145D01*
X111450000Y-76300002D01*
X112378571Y-76942859D02*
X110878571Y-76942859D01*
X112378571Y-77585716D02*
X111592857Y-77585716D01*
X111450000Y-77514287D01*
X111378571Y-77371430D01*
X111378571Y-77157145D01*
X111450000Y-77014287D01*
X111521429Y-76942859D01*
X112378571Y-78300002D02*
X111378571Y-78300002D01*
X110878571Y-78300002D02*
X110950000Y-78228573D01*
X111021429Y-78300002D01*
X110950000Y-78371430D01*
X110878571Y-78300002D01*
X111021429Y-78300002D01*
X112378571Y-79014288D02*
X111378571Y-79014288D01*
X111664286Y-79014288D02*
X111521429Y-79085716D01*
X111450000Y-79157145D01*
X111378571Y-79300002D01*
X111378571Y-79442859D01*
X111378571Y-79942859D02*
X112878571Y-79942859D01*
X111450000Y-79942859D02*
X111378571Y-80085716D01*
X111378571Y-80371430D01*
X111450000Y-80514287D01*
X111521429Y-80585716D01*
X111664286Y-80657145D01*
X112092857Y-80657145D01*
X112235714Y-80585716D01*
X112307143Y-80514287D01*
X112378571Y-80371430D01*
X112378571Y-80085716D01*
X112307143Y-79942859D01*
X114778571Y-50800000D02*
X113778571Y-50800000D01*
X113921429Y-50800000D02*
X113850000Y-50871428D01*
X113778571Y-51014286D01*
X113778571Y-51228571D01*
X113850000Y-51371428D01*
X113992857Y-51442857D01*
X114778571Y-51442857D01*
X113992857Y-51442857D02*
X113850000Y-51514286D01*
X113778571Y-51657143D01*
X113778571Y-51871428D01*
X113850000Y-52014286D01*
X113992857Y-52085714D01*
X114778571Y-52085714D01*
X114778571Y-52800000D02*
X113778571Y-52800000D01*
X113278571Y-52800000D02*
X113350000Y-52728571D01*
X113421429Y-52800000D01*
X113350000Y-52871428D01*
X113278571Y-52800000D01*
X113421429Y-52800000D01*
X114707143Y-54157143D02*
X114778571Y-54014286D01*
X114778571Y-53728572D01*
X114707143Y-53585714D01*
X114635714Y-53514286D01*
X114492857Y-53442857D01*
X114064286Y-53442857D01*
X113921429Y-53514286D01*
X113850000Y-53585714D01*
X113778571Y-53728572D01*
X113778571Y-54014286D01*
X113850000Y-54157143D01*
X114064286Y-55728571D02*
X113992857Y-55657143D01*
X113921429Y-55514286D01*
X113921429Y-55371428D01*
X113992857Y-55228571D01*
X114064286Y-55157143D01*
X114207143Y-55085714D01*
X114350000Y-55085714D01*
X114492857Y-55157143D01*
X114564286Y-55228571D01*
X114635714Y-55371428D01*
X114635714Y-55514286D01*
X114564286Y-55657143D01*
X114492857Y-55728571D01*
X113921429Y-55728571D02*
X114492857Y-55728571D01*
X114564286Y-55800000D01*
X114564286Y-55871428D01*
X114492857Y-56014286D01*
X114350000Y-56085714D01*
X113992857Y-56085714D01*
X113778571Y-55942857D01*
X113635714Y-55728571D01*
X113564286Y-55442857D01*
X113635714Y-55157143D01*
X113778571Y-54942857D01*
X113992857Y-54800000D01*
X114278571Y-54728571D01*
X114564286Y-54800000D01*
X114778571Y-54942857D01*
X114921429Y-55157143D01*
X114992857Y-55442857D01*
X114921429Y-55728571D01*
X114778571Y-55942857D01*
X113778571Y-56585714D02*
X114778571Y-56871428D01*
X114064286Y-57157142D01*
X114778571Y-57442857D01*
X113778571Y-57728571D01*
X114707143Y-58871428D02*
X114778571Y-58728571D01*
X114778571Y-58442857D01*
X114707143Y-58300000D01*
X114564286Y-58228571D01*
X113992857Y-58228571D01*
X113850000Y-58300000D01*
X113778571Y-58442857D01*
X113778571Y-58728571D01*
X113850000Y-58871428D01*
X113992857Y-58942857D01*
X114135714Y-58942857D01*
X114278571Y-58228571D01*
X114778571Y-59585714D02*
X113778571Y-59585714D01*
X113921429Y-59585714D02*
X113850000Y-59657142D01*
X113778571Y-59800000D01*
X113778571Y-60014285D01*
X113850000Y-60157142D01*
X113992857Y-60228571D01*
X114778571Y-60228571D01*
X113992857Y-60228571D02*
X113850000Y-60300000D01*
X113778571Y-60442857D01*
X113778571Y-60657142D01*
X113850000Y-60800000D01*
X113992857Y-60871428D01*
X114778571Y-60871428D01*
X114778571Y-62228571D02*
X113992857Y-62228571D01*
X113850000Y-62157142D01*
X113778571Y-62014285D01*
X113778571Y-61728571D01*
X113850000Y-61585714D01*
X114707143Y-62228571D02*
X114778571Y-62085714D01*
X114778571Y-61728571D01*
X114707143Y-61585714D01*
X114564286Y-61514285D01*
X114421429Y-61514285D01*
X114278571Y-61585714D01*
X114207143Y-61728571D01*
X114207143Y-62085714D01*
X114135714Y-62228571D01*
X114778571Y-62942857D02*
X113278571Y-62942857D01*
X114207143Y-63085714D02*
X114778571Y-63514285D01*
X113778571Y-63514285D02*
X114350000Y-62942857D01*
X114707143Y-64728571D02*
X114778571Y-64585714D01*
X114778571Y-64300000D01*
X114707143Y-64157143D01*
X114564286Y-64085714D01*
X113992857Y-64085714D01*
X113850000Y-64157143D01*
X113778571Y-64300000D01*
X113778571Y-64585714D01*
X113850000Y-64728571D01*
X113992857Y-64800000D01*
X114135714Y-64800000D01*
X114278571Y-64085714D01*
X113778571Y-65228571D02*
X113778571Y-65800000D01*
X113278571Y-65442857D02*
X114564286Y-65442857D01*
X114707143Y-65514285D01*
X114778571Y-65657143D01*
X114778571Y-65800000D01*
X114778571Y-66300000D02*
X113278571Y-66300000D01*
X114778571Y-66942857D02*
X113992857Y-66942857D01*
X113850000Y-66871428D01*
X113778571Y-66728571D01*
X113778571Y-66514286D01*
X113850000Y-66371428D01*
X113921429Y-66300000D01*
X114778571Y-67657143D02*
X113778571Y-67657143D01*
X113278571Y-67657143D02*
X113350000Y-67585714D01*
X113421429Y-67657143D01*
X113350000Y-67728571D01*
X113278571Y-67657143D01*
X113421429Y-67657143D01*
X113778571Y-68371429D02*
X114778571Y-68371429D01*
X113921429Y-68371429D02*
X113850000Y-68442857D01*
X113778571Y-68585715D01*
X113778571Y-68800000D01*
X113850000Y-68942857D01*
X113992857Y-69014286D01*
X114778571Y-69014286D01*
X113778571Y-70371429D02*
X114992857Y-70371429D01*
X115135714Y-70300000D01*
X115207143Y-70228572D01*
X115278571Y-70085715D01*
X115278571Y-69871429D01*
X115207143Y-69728572D01*
X114707143Y-70371429D02*
X114778571Y-70228572D01*
X114778571Y-69942858D01*
X114707143Y-69800000D01*
X114635714Y-69728572D01*
X114492857Y-69657143D01*
X114064286Y-69657143D01*
X113921429Y-69728572D01*
X113850000Y-69800000D01*
X113778571Y-69942858D01*
X113778571Y-70228572D01*
X113850000Y-70371429D01*
X114707143Y-71014286D02*
X114778571Y-71157143D01*
X114778571Y-71442858D01*
X114707143Y-71585715D01*
X114564286Y-71657143D01*
X114492857Y-71657143D01*
X114350000Y-71585715D01*
X114278571Y-71442858D01*
X114278571Y-71228572D01*
X114207143Y-71085715D01*
X114064286Y-71014286D01*
X113992857Y-71014286D01*
X113850000Y-71085715D01*
X113778571Y-71228572D01*
X113778571Y-71442858D01*
X113850000Y-71585715D01*
X114635714Y-72300001D02*
X114707143Y-72371429D01*
X114778571Y-72300001D01*
X114707143Y-72228572D01*
X114635714Y-72300001D01*
X114778571Y-72300001D01*
X113778571Y-73014287D02*
X114778571Y-73014287D01*
X113921429Y-73014287D02*
X113850000Y-73085715D01*
X113778571Y-73228573D01*
X113778571Y-73442858D01*
X113850000Y-73585715D01*
X113992857Y-73657144D01*
X114778571Y-73657144D01*
X114707143Y-74942858D02*
X114778571Y-74800001D01*
X114778571Y-74514287D01*
X114707143Y-74371430D01*
X114564286Y-74300001D01*
X113992857Y-74300001D01*
X113850000Y-74371430D01*
X113778571Y-74514287D01*
X113778571Y-74800001D01*
X113850000Y-74942858D01*
X113992857Y-75014287D01*
X114135714Y-75014287D01*
X114278571Y-74300001D01*
X113778571Y-75442858D02*
X113778571Y-76014287D01*
X113278571Y-75657144D02*
X114564286Y-75657144D01*
X114707143Y-75728572D01*
X114778571Y-75871430D01*
X114778571Y-76014287D01*
X91835714Y-54157143D02*
X91907143Y-54085714D01*
X91978571Y-53871428D01*
X91978571Y-53728571D01*
X91907143Y-53514286D01*
X91764286Y-53371428D01*
X91621429Y-53300000D01*
X91335714Y-53228571D01*
X91121429Y-53228571D01*
X90835714Y-53300000D01*
X90692857Y-53371428D01*
X90550000Y-53514286D01*
X90478571Y-53728571D01*
X90478571Y-53871428D01*
X90550000Y-54085714D01*
X90621429Y-54157143D01*
X91978571Y-55442857D02*
X91192857Y-55442857D01*
X91050000Y-55371428D01*
X90978571Y-55228571D01*
X90978571Y-54942857D01*
X91050000Y-54800000D01*
X91907143Y-55442857D02*
X91978571Y-55300000D01*
X91978571Y-54942857D01*
X91907143Y-54800000D01*
X91764286Y-54728571D01*
X91621429Y-54728571D01*
X91478571Y-54800000D01*
X91407143Y-54942857D01*
X91407143Y-55300000D01*
X91335714Y-55442857D01*
X90978571Y-55942857D02*
X90978571Y-56514286D01*
X90478571Y-56157143D02*
X91764286Y-56157143D01*
X91907143Y-56228571D01*
X91978571Y-56371429D01*
X91978571Y-56514286D01*
X90978571Y-57014286D02*
X91978571Y-57014286D01*
X91121429Y-57014286D02*
X91050000Y-57085714D01*
X90978571Y-57228572D01*
X90978571Y-57442857D01*
X91050000Y-57585714D01*
X91192857Y-57657143D01*
X91978571Y-57657143D01*
X91978571Y-58371429D02*
X90978571Y-58371429D01*
X90478571Y-58371429D02*
X90550000Y-58300000D01*
X90621429Y-58371429D01*
X90550000Y-58442857D01*
X90478571Y-58371429D01*
X90621429Y-58371429D01*
X90978571Y-59085715D02*
X92478571Y-59085715D01*
X91050000Y-59085715D02*
X90978571Y-59228572D01*
X90978571Y-59514286D01*
X91050000Y-59657143D01*
X91121429Y-59728572D01*
X91264286Y-59800001D01*
X91692857Y-59800001D01*
X91835714Y-59728572D01*
X91907143Y-59657143D01*
X91978571Y-59514286D01*
X91978571Y-59228572D01*
X91907143Y-59085715D01*
X91192857Y-61585715D02*
X91192857Y-62085715D01*
X91978571Y-62300001D02*
X91978571Y-61585715D01*
X90478571Y-61585715D01*
X90478571Y-62300001D01*
X91978571Y-63157144D02*
X91907143Y-63014286D01*
X91764286Y-62942858D01*
X90478571Y-62942858D01*
X91907143Y-64300000D02*
X91978571Y-64157143D01*
X91978571Y-63871429D01*
X91907143Y-63728572D01*
X91764286Y-63657143D01*
X91192857Y-63657143D01*
X91050000Y-63728572D01*
X90978571Y-63871429D01*
X90978571Y-64157143D01*
X91050000Y-64300000D01*
X91192857Y-64371429D01*
X91335714Y-64371429D01*
X91478571Y-63657143D01*
X91907143Y-65657143D02*
X91978571Y-65514286D01*
X91978571Y-65228572D01*
X91907143Y-65085714D01*
X91835714Y-65014286D01*
X91692857Y-64942857D01*
X91264286Y-64942857D01*
X91121429Y-65014286D01*
X91050000Y-65085714D01*
X90978571Y-65228572D01*
X90978571Y-65514286D01*
X91050000Y-65657143D01*
X90978571Y-66085714D02*
X90978571Y-66657143D01*
X90478571Y-66300000D02*
X91764286Y-66300000D01*
X91907143Y-66371428D01*
X91978571Y-66514286D01*
X91978571Y-66657143D01*
X91978571Y-67157143D02*
X90978571Y-67157143D01*
X91264286Y-67157143D02*
X91121429Y-67228571D01*
X91050000Y-67300000D01*
X90978571Y-67442857D01*
X90978571Y-67585714D01*
X91978571Y-68300000D02*
X91907143Y-68157142D01*
X91835714Y-68085714D01*
X91692857Y-68014285D01*
X91264286Y-68014285D01*
X91121429Y-68085714D01*
X91050000Y-68157142D01*
X90978571Y-68300000D01*
X90978571Y-68514285D01*
X91050000Y-68657142D01*
X91121429Y-68728571D01*
X91264286Y-68800000D01*
X91692857Y-68800000D01*
X91835714Y-68728571D01*
X91907143Y-68657142D01*
X91978571Y-68514285D01*
X91978571Y-68300000D01*
X90978571Y-69442857D02*
X91978571Y-69442857D01*
X91121429Y-69442857D02*
X91050000Y-69514285D01*
X90978571Y-69657143D01*
X90978571Y-69871428D01*
X91050000Y-70014285D01*
X91192857Y-70085714D01*
X91978571Y-70085714D01*
X91978571Y-70800000D02*
X90978571Y-70800000D01*
X90478571Y-70800000D02*
X90550000Y-70728571D01*
X90621429Y-70800000D01*
X90550000Y-70871428D01*
X90478571Y-70800000D01*
X90621429Y-70800000D01*
X91907143Y-72157143D02*
X91978571Y-72014286D01*
X91978571Y-71728572D01*
X91907143Y-71585714D01*
X91835714Y-71514286D01*
X91692857Y-71442857D01*
X91264286Y-71442857D01*
X91121429Y-71514286D01*
X91050000Y-71585714D01*
X90978571Y-71728572D01*
X90978571Y-72014286D01*
X91050000Y-72157143D01*
X91907143Y-72728571D02*
X91978571Y-72871428D01*
X91978571Y-73157143D01*
X91907143Y-73300000D01*
X91764286Y-73371428D01*
X91692857Y-73371428D01*
X91550000Y-73300000D01*
X91478571Y-73157143D01*
X91478571Y-72942857D01*
X91407143Y-72800000D01*
X91264286Y-72728571D01*
X91192857Y-72728571D01*
X91050000Y-72800000D01*
X90978571Y-72942857D01*
X90978571Y-73157143D01*
X91050000Y-73300000D01*
X94378571Y-46014284D02*
X92878571Y-46014284D01*
X94378571Y-46657141D02*
X93592857Y-46657141D01*
X93450000Y-46585712D01*
X93378571Y-46442855D01*
X93378571Y-46228570D01*
X93450000Y-46085712D01*
X93521429Y-46014284D01*
X93378571Y-47157141D02*
X93378571Y-47728570D01*
X92878571Y-47371427D02*
X94164286Y-47371427D01*
X94307143Y-47442855D01*
X94378571Y-47585713D01*
X94378571Y-47728570D01*
X93378571Y-48014284D02*
X93378571Y-48585713D01*
X92878571Y-48228570D02*
X94164286Y-48228570D01*
X94307143Y-48299998D01*
X94378571Y-48442856D01*
X94378571Y-48585713D01*
X93378571Y-49085713D02*
X94878571Y-49085713D01*
X93450000Y-49085713D02*
X93378571Y-49228570D01*
X93378571Y-49514284D01*
X93450000Y-49657141D01*
X93521429Y-49728570D01*
X93664286Y-49799999D01*
X94092857Y-49799999D01*
X94235714Y-49728570D01*
X94307143Y-49657141D01*
X94378571Y-49514284D01*
X94378571Y-49228570D01*
X94307143Y-49085713D01*
X94235714Y-50442856D02*
X94307143Y-50514284D01*
X94378571Y-50442856D01*
X94307143Y-50371427D01*
X94235714Y-50442856D01*
X94378571Y-50442856D01*
X93450000Y-50442856D02*
X93521429Y-50514284D01*
X93592857Y-50442856D01*
X93521429Y-50371427D01*
X93450000Y-50442856D01*
X93592857Y-50442856D01*
X92807143Y-52228570D02*
X94735714Y-50942856D01*
X92807143Y-53799999D02*
X94735714Y-52514285D01*
X93378571Y-54157143D02*
X94378571Y-54442857D01*
X93664286Y-54728571D01*
X94378571Y-55014286D01*
X93378571Y-55300000D01*
X94307143Y-56442857D02*
X94378571Y-56300000D01*
X94378571Y-56014286D01*
X94307143Y-55871429D01*
X94164286Y-55800000D01*
X93592857Y-55800000D01*
X93450000Y-55871429D01*
X93378571Y-56014286D01*
X93378571Y-56300000D01*
X93450000Y-56442857D01*
X93592857Y-56514286D01*
X93735714Y-56514286D01*
X93878571Y-55800000D01*
X94378571Y-57157143D02*
X93378571Y-57157143D01*
X93521429Y-57157143D02*
X93450000Y-57228571D01*
X93378571Y-57371429D01*
X93378571Y-57585714D01*
X93450000Y-57728571D01*
X93592857Y-57800000D01*
X94378571Y-57800000D01*
X93592857Y-57800000D02*
X93450000Y-57871429D01*
X93378571Y-58014286D01*
X93378571Y-58228571D01*
X93450000Y-58371429D01*
X93592857Y-58442857D01*
X94378571Y-58442857D01*
X94378571Y-59800000D02*
X93592857Y-59800000D01*
X93450000Y-59728571D01*
X93378571Y-59585714D01*
X93378571Y-59300000D01*
X93450000Y-59157143D01*
X94307143Y-59800000D02*
X94378571Y-59657143D01*
X94378571Y-59300000D01*
X94307143Y-59157143D01*
X94164286Y-59085714D01*
X94021429Y-59085714D01*
X93878571Y-59157143D01*
X93807143Y-59300000D01*
X93807143Y-59657143D01*
X93735714Y-59800000D01*
X94378571Y-60514286D02*
X92878571Y-60514286D01*
X93807143Y-60657143D02*
X94378571Y-61085714D01*
X93378571Y-61085714D02*
X93950000Y-60514286D01*
X94307143Y-62300000D02*
X94378571Y-62157143D01*
X94378571Y-61871429D01*
X94307143Y-61728572D01*
X94164286Y-61657143D01*
X93592857Y-61657143D01*
X93450000Y-61728572D01*
X93378571Y-61871429D01*
X93378571Y-62157143D01*
X93450000Y-62300000D01*
X93592857Y-62371429D01*
X93735714Y-62371429D01*
X93878571Y-61657143D01*
X93378571Y-62800000D02*
X93378571Y-63371429D01*
X92878571Y-63014286D02*
X94164286Y-63014286D01*
X94307143Y-63085714D01*
X94378571Y-63228572D01*
X94378571Y-63371429D01*
X94378571Y-63871429D02*
X92878571Y-63871429D01*
X94378571Y-64514286D02*
X93592857Y-64514286D01*
X93450000Y-64442857D01*
X93378571Y-64300000D01*
X93378571Y-64085715D01*
X93450000Y-63942857D01*
X93521429Y-63871429D01*
X94378571Y-65228572D02*
X93378571Y-65228572D01*
X92878571Y-65228572D02*
X92950000Y-65157143D01*
X93021429Y-65228572D01*
X92950000Y-65300000D01*
X92878571Y-65228572D01*
X93021429Y-65228572D01*
X93378571Y-65942858D02*
X94378571Y-65942858D01*
X93521429Y-65942858D02*
X93450000Y-66014286D01*
X93378571Y-66157144D01*
X93378571Y-66371429D01*
X93450000Y-66514286D01*
X93592857Y-66585715D01*
X94378571Y-66585715D01*
X93378571Y-67942858D02*
X94592857Y-67942858D01*
X94735714Y-67871429D01*
X94807143Y-67800001D01*
X94878571Y-67657144D01*
X94878571Y-67442858D01*
X94807143Y-67300001D01*
X94307143Y-67942858D02*
X94378571Y-67800001D01*
X94378571Y-67514287D01*
X94307143Y-67371429D01*
X94235714Y-67300001D01*
X94092857Y-67228572D01*
X93664286Y-67228572D01*
X93521429Y-67300001D01*
X93450000Y-67371429D01*
X93378571Y-67514287D01*
X93378571Y-67800001D01*
X93450000Y-67942858D01*
X94307143Y-68585715D02*
X94378571Y-68728572D01*
X94378571Y-69014287D01*
X94307143Y-69157144D01*
X94164286Y-69228572D01*
X94092857Y-69228572D01*
X93950000Y-69157144D01*
X93878571Y-69014287D01*
X93878571Y-68800001D01*
X93807143Y-68657144D01*
X93664286Y-68585715D01*
X93592857Y-68585715D01*
X93450000Y-68657144D01*
X93378571Y-68800001D01*
X93378571Y-69014287D01*
X93450000Y-69157144D01*
X94235714Y-69871430D02*
X94307143Y-69942858D01*
X94378571Y-69871430D01*
X94307143Y-69800001D01*
X94235714Y-69871430D01*
X94378571Y-69871430D01*
X93378571Y-70585716D02*
X94378571Y-70585716D01*
X93521429Y-70585716D02*
X93450000Y-70657144D01*
X93378571Y-70800002D01*
X93378571Y-71014287D01*
X93450000Y-71157144D01*
X93592857Y-71228573D01*
X94378571Y-71228573D01*
X94307143Y-72514287D02*
X94378571Y-72371430D01*
X94378571Y-72085716D01*
X94307143Y-71942859D01*
X94164286Y-71871430D01*
X93592857Y-71871430D01*
X93450000Y-71942859D01*
X93378571Y-72085716D01*
X93378571Y-72371430D01*
X93450000Y-72514287D01*
X93592857Y-72585716D01*
X93735714Y-72585716D01*
X93878571Y-71871430D01*
X93378571Y-73014287D02*
X93378571Y-73585716D01*
X92878571Y-73228573D02*
X94164286Y-73228573D01*
X94307143Y-73300001D01*
X94378571Y-73442859D01*
X94378571Y-73585716D01*
X92807143Y-75157144D02*
X94735714Y-73871430D01*
X94307143Y-76300002D02*
X94378571Y-76157145D01*
X94378571Y-75871431D01*
X94307143Y-75728573D01*
X94235714Y-75657145D01*
X94092857Y-75585716D01*
X93664286Y-75585716D01*
X93521429Y-75657145D01*
X93450000Y-75728573D01*
X93378571Y-75871431D01*
X93378571Y-76157145D01*
X93450000Y-76300002D01*
X94378571Y-76942859D02*
X92878571Y-76942859D01*
X94378571Y-77585716D02*
X93592857Y-77585716D01*
X93450000Y-77514287D01*
X93378571Y-77371430D01*
X93378571Y-77157145D01*
X93450000Y-77014287D01*
X93521429Y-76942859D01*
X94378571Y-78300002D02*
X93378571Y-78300002D01*
X92878571Y-78300002D02*
X92950000Y-78228573D01*
X93021429Y-78300002D01*
X92950000Y-78371430D01*
X92878571Y-78300002D01*
X93021429Y-78300002D01*
X94378571Y-79014288D02*
X93378571Y-79014288D01*
X93664286Y-79014288D02*
X93521429Y-79085716D01*
X93450000Y-79157145D01*
X93378571Y-79300002D01*
X93378571Y-79442859D01*
X93378571Y-79942859D02*
X94878571Y-79942859D01*
X93450000Y-79942859D02*
X93378571Y-80085716D01*
X93378571Y-80371430D01*
X93450000Y-80514287D01*
X93521429Y-80585716D01*
X93664286Y-80657145D01*
X94092857Y-80657145D01*
X94235714Y-80585716D01*
X94307143Y-80514287D01*
X94378571Y-80371430D01*
X94378571Y-80085716D01*
X94307143Y-79942859D01*
X96778571Y-50800000D02*
X95778571Y-50800000D01*
X95921429Y-50800000D02*
X95850000Y-50871428D01*
X95778571Y-51014286D01*
X95778571Y-51228571D01*
X95850000Y-51371428D01*
X95992857Y-51442857D01*
X96778571Y-51442857D01*
X95992857Y-51442857D02*
X95850000Y-51514286D01*
X95778571Y-51657143D01*
X95778571Y-51871428D01*
X95850000Y-52014286D01*
X95992857Y-52085714D01*
X96778571Y-52085714D01*
X96778571Y-52800000D02*
X95778571Y-52800000D01*
X95278571Y-52800000D02*
X95350000Y-52728571D01*
X95421429Y-52800000D01*
X95350000Y-52871428D01*
X95278571Y-52800000D01*
X95421429Y-52800000D01*
X96707143Y-54157143D02*
X96778571Y-54014286D01*
X96778571Y-53728572D01*
X96707143Y-53585714D01*
X96635714Y-53514286D01*
X96492857Y-53442857D01*
X96064286Y-53442857D01*
X95921429Y-53514286D01*
X95850000Y-53585714D01*
X95778571Y-53728572D01*
X95778571Y-54014286D01*
X95850000Y-54157143D01*
X96064286Y-55728571D02*
X95992857Y-55657143D01*
X95921429Y-55514286D01*
X95921429Y-55371428D01*
X95992857Y-55228571D01*
X96064286Y-55157143D01*
X96207143Y-55085714D01*
X96350000Y-55085714D01*
X96492857Y-55157143D01*
X96564286Y-55228571D01*
X96635714Y-55371428D01*
X96635714Y-55514286D01*
X96564286Y-55657143D01*
X96492857Y-55728571D01*
X95921429Y-55728571D02*
X96492857Y-55728571D01*
X96564286Y-55800000D01*
X96564286Y-55871428D01*
X96492857Y-56014286D01*
X96350000Y-56085714D01*
X95992857Y-56085714D01*
X95778571Y-55942857D01*
X95635714Y-55728571D01*
X95564286Y-55442857D01*
X95635714Y-55157143D01*
X95778571Y-54942857D01*
X95992857Y-54800000D01*
X96278571Y-54728571D01*
X96564286Y-54800000D01*
X96778571Y-54942857D01*
X96921429Y-55157143D01*
X96992857Y-55442857D01*
X96921429Y-55728571D01*
X96778571Y-55942857D01*
X95778571Y-56585714D02*
X96778571Y-56871428D01*
X96064286Y-57157142D01*
X96778571Y-57442857D01*
X95778571Y-57728571D01*
X96707143Y-58871428D02*
X96778571Y-58728571D01*
X96778571Y-58442857D01*
X96707143Y-58300000D01*
X96564286Y-58228571D01*
X95992857Y-58228571D01*
X95850000Y-58300000D01*
X95778571Y-58442857D01*
X95778571Y-58728571D01*
X95850000Y-58871428D01*
X95992857Y-58942857D01*
X96135714Y-58942857D01*
X96278571Y-58228571D01*
X96778571Y-59585714D02*
X95778571Y-59585714D01*
X95921429Y-59585714D02*
X95850000Y-59657142D01*
X95778571Y-59800000D01*
X95778571Y-60014285D01*
X95850000Y-60157142D01*
X95992857Y-60228571D01*
X96778571Y-60228571D01*
X95992857Y-60228571D02*
X95850000Y-60300000D01*
X95778571Y-60442857D01*
X95778571Y-60657142D01*
X95850000Y-60800000D01*
X95992857Y-60871428D01*
X96778571Y-60871428D01*
X96778571Y-62228571D02*
X95992857Y-62228571D01*
X95850000Y-62157142D01*
X95778571Y-62014285D01*
X95778571Y-61728571D01*
X95850000Y-61585714D01*
X96707143Y-62228571D02*
X96778571Y-62085714D01*
X96778571Y-61728571D01*
X96707143Y-61585714D01*
X96564286Y-61514285D01*
X96421429Y-61514285D01*
X96278571Y-61585714D01*
X96207143Y-61728571D01*
X96207143Y-62085714D01*
X96135714Y-62228571D01*
X96778571Y-62942857D02*
X95278571Y-62942857D01*
X96207143Y-63085714D02*
X96778571Y-63514285D01*
X95778571Y-63514285D02*
X96350000Y-62942857D01*
X96707143Y-64728571D02*
X96778571Y-64585714D01*
X96778571Y-64300000D01*
X96707143Y-64157143D01*
X96564286Y-64085714D01*
X95992857Y-64085714D01*
X95850000Y-64157143D01*
X95778571Y-64300000D01*
X95778571Y-64585714D01*
X95850000Y-64728571D01*
X95992857Y-64800000D01*
X96135714Y-64800000D01*
X96278571Y-64085714D01*
X95778571Y-65228571D02*
X95778571Y-65800000D01*
X95278571Y-65442857D02*
X96564286Y-65442857D01*
X96707143Y-65514285D01*
X96778571Y-65657143D01*
X96778571Y-65800000D01*
X96778571Y-66300000D02*
X95278571Y-66300000D01*
X96778571Y-66942857D02*
X95992857Y-66942857D01*
X95850000Y-66871428D01*
X95778571Y-66728571D01*
X95778571Y-66514286D01*
X95850000Y-66371428D01*
X95921429Y-66300000D01*
X96778571Y-67657143D02*
X95778571Y-67657143D01*
X95278571Y-67657143D02*
X95350000Y-67585714D01*
X95421429Y-67657143D01*
X95350000Y-67728571D01*
X95278571Y-67657143D01*
X95421429Y-67657143D01*
X95778571Y-68371429D02*
X96778571Y-68371429D01*
X95921429Y-68371429D02*
X95850000Y-68442857D01*
X95778571Y-68585715D01*
X95778571Y-68800000D01*
X95850000Y-68942857D01*
X95992857Y-69014286D01*
X96778571Y-69014286D01*
X95778571Y-70371429D02*
X96992857Y-70371429D01*
X97135714Y-70300000D01*
X97207143Y-70228572D01*
X97278571Y-70085715D01*
X97278571Y-69871429D01*
X97207143Y-69728572D01*
X96707143Y-70371429D02*
X96778571Y-70228572D01*
X96778571Y-69942858D01*
X96707143Y-69800000D01*
X96635714Y-69728572D01*
X96492857Y-69657143D01*
X96064286Y-69657143D01*
X95921429Y-69728572D01*
X95850000Y-69800000D01*
X95778571Y-69942858D01*
X95778571Y-70228572D01*
X95850000Y-70371429D01*
X96707143Y-71014286D02*
X96778571Y-71157143D01*
X96778571Y-71442858D01*
X96707143Y-71585715D01*
X96564286Y-71657143D01*
X96492857Y-71657143D01*
X96350000Y-71585715D01*
X96278571Y-71442858D01*
X96278571Y-71228572D01*
X96207143Y-71085715D01*
X96064286Y-71014286D01*
X95992857Y-71014286D01*
X95850000Y-71085715D01*
X95778571Y-71228572D01*
X95778571Y-71442858D01*
X95850000Y-71585715D01*
X96635714Y-72300001D02*
X96707143Y-72371429D01*
X96778571Y-72300001D01*
X96707143Y-72228572D01*
X96635714Y-72300001D01*
X96778571Y-72300001D01*
X95778571Y-73014287D02*
X96778571Y-73014287D01*
X95921429Y-73014287D02*
X95850000Y-73085715D01*
X95778571Y-73228573D01*
X95778571Y-73442858D01*
X95850000Y-73585715D01*
X95992857Y-73657144D01*
X96778571Y-73657144D01*
X96707143Y-74942858D02*
X96778571Y-74800001D01*
X96778571Y-74514287D01*
X96707143Y-74371430D01*
X96564286Y-74300001D01*
X95992857Y-74300001D01*
X95850000Y-74371430D01*
X95778571Y-74514287D01*
X95778571Y-74800001D01*
X95850000Y-74942858D01*
X95992857Y-75014287D01*
X96135714Y-75014287D01*
X96278571Y-74300001D01*
X95778571Y-75442858D02*
X95778571Y-76014287D01*
X95278571Y-75657144D02*
X96564286Y-75657144D01*
X96707143Y-75728572D01*
X96778571Y-75871430D01*
X96778571Y-76014287D01*
X127835714Y-54157143D02*
X127907143Y-54085714D01*
X127978571Y-53871428D01*
X127978571Y-53728571D01*
X127907143Y-53514286D01*
X127764286Y-53371428D01*
X127621429Y-53300000D01*
X127335714Y-53228571D01*
X127121429Y-53228571D01*
X126835714Y-53300000D01*
X126692857Y-53371428D01*
X126550000Y-53514286D01*
X126478571Y-53728571D01*
X126478571Y-53871428D01*
X126550000Y-54085714D01*
X126621429Y-54157143D01*
X127978571Y-55442857D02*
X127192857Y-55442857D01*
X127050000Y-55371428D01*
X126978571Y-55228571D01*
X126978571Y-54942857D01*
X127050000Y-54800000D01*
X127907143Y-55442857D02*
X127978571Y-55300000D01*
X127978571Y-54942857D01*
X127907143Y-54800000D01*
X127764286Y-54728571D01*
X127621429Y-54728571D01*
X127478571Y-54800000D01*
X127407143Y-54942857D01*
X127407143Y-55300000D01*
X127335714Y-55442857D01*
X126978571Y-55942857D02*
X126978571Y-56514286D01*
X126478571Y-56157143D02*
X127764286Y-56157143D01*
X127907143Y-56228571D01*
X127978571Y-56371429D01*
X127978571Y-56514286D01*
X126978571Y-57014286D02*
X127978571Y-57014286D01*
X127121429Y-57014286D02*
X127050000Y-57085714D01*
X126978571Y-57228572D01*
X126978571Y-57442857D01*
X127050000Y-57585714D01*
X127192857Y-57657143D01*
X127978571Y-57657143D01*
X127978571Y-58371429D02*
X126978571Y-58371429D01*
X126478571Y-58371429D02*
X126550000Y-58300000D01*
X126621429Y-58371429D01*
X126550000Y-58442857D01*
X126478571Y-58371429D01*
X126621429Y-58371429D01*
X126978571Y-59085715D02*
X128478571Y-59085715D01*
X127050000Y-59085715D02*
X126978571Y-59228572D01*
X126978571Y-59514286D01*
X127050000Y-59657143D01*
X127121429Y-59728572D01*
X127264286Y-59800001D01*
X127692857Y-59800001D01*
X127835714Y-59728572D01*
X127907143Y-59657143D01*
X127978571Y-59514286D01*
X127978571Y-59228572D01*
X127907143Y-59085715D01*
X127192857Y-61585715D02*
X127192857Y-62085715D01*
X127978571Y-62300001D02*
X127978571Y-61585715D01*
X126478571Y-61585715D01*
X126478571Y-62300001D01*
X127978571Y-63157144D02*
X127907143Y-63014286D01*
X127764286Y-62942858D01*
X126478571Y-62942858D01*
X127907143Y-64300000D02*
X127978571Y-64157143D01*
X127978571Y-63871429D01*
X127907143Y-63728572D01*
X127764286Y-63657143D01*
X127192857Y-63657143D01*
X127050000Y-63728572D01*
X126978571Y-63871429D01*
X126978571Y-64157143D01*
X127050000Y-64300000D01*
X127192857Y-64371429D01*
X127335714Y-64371429D01*
X127478571Y-63657143D01*
X127907143Y-65657143D02*
X127978571Y-65514286D01*
X127978571Y-65228572D01*
X127907143Y-65085714D01*
X127835714Y-65014286D01*
X127692857Y-64942857D01*
X127264286Y-64942857D01*
X127121429Y-65014286D01*
X127050000Y-65085714D01*
X126978571Y-65228572D01*
X126978571Y-65514286D01*
X127050000Y-65657143D01*
X126978571Y-66085714D02*
X126978571Y-66657143D01*
X126478571Y-66300000D02*
X127764286Y-66300000D01*
X127907143Y-66371428D01*
X127978571Y-66514286D01*
X127978571Y-66657143D01*
X127978571Y-67157143D02*
X126978571Y-67157143D01*
X127264286Y-67157143D02*
X127121429Y-67228571D01*
X127050000Y-67300000D01*
X126978571Y-67442857D01*
X126978571Y-67585714D01*
X127978571Y-68300000D02*
X127907143Y-68157142D01*
X127835714Y-68085714D01*
X127692857Y-68014285D01*
X127264286Y-68014285D01*
X127121429Y-68085714D01*
X127050000Y-68157142D01*
X126978571Y-68300000D01*
X126978571Y-68514285D01*
X127050000Y-68657142D01*
X127121429Y-68728571D01*
X127264286Y-68800000D01*
X127692857Y-68800000D01*
X127835714Y-68728571D01*
X127907143Y-68657142D01*
X127978571Y-68514285D01*
X127978571Y-68300000D01*
X126978571Y-69442857D02*
X127978571Y-69442857D01*
X127121429Y-69442857D02*
X127050000Y-69514285D01*
X126978571Y-69657143D01*
X126978571Y-69871428D01*
X127050000Y-70014285D01*
X127192857Y-70085714D01*
X127978571Y-70085714D01*
X127978571Y-70800000D02*
X126978571Y-70800000D01*
X126478571Y-70800000D02*
X126550000Y-70728571D01*
X126621429Y-70800000D01*
X126550000Y-70871428D01*
X126478571Y-70800000D01*
X126621429Y-70800000D01*
X127907143Y-72157143D02*
X127978571Y-72014286D01*
X127978571Y-71728572D01*
X127907143Y-71585714D01*
X127835714Y-71514286D01*
X127692857Y-71442857D01*
X127264286Y-71442857D01*
X127121429Y-71514286D01*
X127050000Y-71585714D01*
X126978571Y-71728572D01*
X126978571Y-72014286D01*
X127050000Y-72157143D01*
X127907143Y-72728571D02*
X127978571Y-72871428D01*
X127978571Y-73157143D01*
X127907143Y-73300000D01*
X127764286Y-73371428D01*
X127692857Y-73371428D01*
X127550000Y-73300000D01*
X127478571Y-73157143D01*
X127478571Y-72942857D01*
X127407143Y-72800000D01*
X127264286Y-72728571D01*
X127192857Y-72728571D01*
X127050000Y-72800000D01*
X126978571Y-72942857D01*
X126978571Y-73157143D01*
X127050000Y-73300000D01*
X130378571Y-46014284D02*
X128878571Y-46014284D01*
X130378571Y-46657141D02*
X129592857Y-46657141D01*
X129450000Y-46585712D01*
X129378571Y-46442855D01*
X129378571Y-46228570D01*
X129450000Y-46085712D01*
X129521429Y-46014284D01*
X129378571Y-47157141D02*
X129378571Y-47728570D01*
X128878571Y-47371427D02*
X130164286Y-47371427D01*
X130307143Y-47442855D01*
X130378571Y-47585713D01*
X130378571Y-47728570D01*
X129378571Y-48014284D02*
X129378571Y-48585713D01*
X128878571Y-48228570D02*
X130164286Y-48228570D01*
X130307143Y-48299998D01*
X130378571Y-48442856D01*
X130378571Y-48585713D01*
X129378571Y-49085713D02*
X130878571Y-49085713D01*
X129450000Y-49085713D02*
X129378571Y-49228570D01*
X129378571Y-49514284D01*
X129450000Y-49657141D01*
X129521429Y-49728570D01*
X129664286Y-49799999D01*
X130092857Y-49799999D01*
X130235714Y-49728570D01*
X130307143Y-49657141D01*
X130378571Y-49514284D01*
X130378571Y-49228570D01*
X130307143Y-49085713D01*
X130235714Y-50442856D02*
X130307143Y-50514284D01*
X130378571Y-50442856D01*
X130307143Y-50371427D01*
X130235714Y-50442856D01*
X130378571Y-50442856D01*
X129450000Y-50442856D02*
X129521429Y-50514284D01*
X129592857Y-50442856D01*
X129521429Y-50371427D01*
X129450000Y-50442856D01*
X129592857Y-50442856D01*
X128807143Y-52228570D02*
X130735714Y-50942856D01*
X128807143Y-53799999D02*
X130735714Y-52514285D01*
X129378571Y-54157143D02*
X130378571Y-54442857D01*
X129664286Y-54728571D01*
X130378571Y-55014286D01*
X129378571Y-55300000D01*
X130307143Y-56442857D02*
X130378571Y-56300000D01*
X130378571Y-56014286D01*
X130307143Y-55871429D01*
X130164286Y-55800000D01*
X129592857Y-55800000D01*
X129450000Y-55871429D01*
X129378571Y-56014286D01*
X129378571Y-56300000D01*
X129450000Y-56442857D01*
X129592857Y-56514286D01*
X129735714Y-56514286D01*
X129878571Y-55800000D01*
X130378571Y-57157143D02*
X129378571Y-57157143D01*
X129521429Y-57157143D02*
X129450000Y-57228571D01*
X129378571Y-57371429D01*
X129378571Y-57585714D01*
X129450000Y-57728571D01*
X129592857Y-57800000D01*
X130378571Y-57800000D01*
X129592857Y-57800000D02*
X129450000Y-57871429D01*
X129378571Y-58014286D01*
X129378571Y-58228571D01*
X129450000Y-58371429D01*
X129592857Y-58442857D01*
X130378571Y-58442857D01*
X130378571Y-59800000D02*
X129592857Y-59800000D01*
X129450000Y-59728571D01*
X129378571Y-59585714D01*
X129378571Y-59300000D01*
X129450000Y-59157143D01*
X130307143Y-59800000D02*
X130378571Y-59657143D01*
X130378571Y-59300000D01*
X130307143Y-59157143D01*
X130164286Y-59085714D01*
X130021429Y-59085714D01*
X129878571Y-59157143D01*
X129807143Y-59300000D01*
X129807143Y-59657143D01*
X129735714Y-59800000D01*
X130378571Y-60514286D02*
X128878571Y-60514286D01*
X129807143Y-60657143D02*
X130378571Y-61085714D01*
X129378571Y-61085714D02*
X129950000Y-60514286D01*
X130307143Y-62300000D02*
X130378571Y-62157143D01*
X130378571Y-61871429D01*
X130307143Y-61728572D01*
X130164286Y-61657143D01*
X129592857Y-61657143D01*
X129450000Y-61728572D01*
X129378571Y-61871429D01*
X129378571Y-62157143D01*
X129450000Y-62300000D01*
X129592857Y-62371429D01*
X129735714Y-62371429D01*
X129878571Y-61657143D01*
X129378571Y-62800000D02*
X129378571Y-63371429D01*
X128878571Y-63014286D02*
X130164286Y-63014286D01*
X130307143Y-63085714D01*
X130378571Y-63228572D01*
X130378571Y-63371429D01*
X130378571Y-63871429D02*
X128878571Y-63871429D01*
X130378571Y-64514286D02*
X129592857Y-64514286D01*
X129450000Y-64442857D01*
X129378571Y-64300000D01*
X129378571Y-64085715D01*
X129450000Y-63942857D01*
X129521429Y-63871429D01*
X130378571Y-65228572D02*
X129378571Y-65228572D01*
X128878571Y-65228572D02*
X128950000Y-65157143D01*
X129021429Y-65228572D01*
X128950000Y-65300000D01*
X128878571Y-65228572D01*
X129021429Y-65228572D01*
X129378571Y-65942858D02*
X130378571Y-65942858D01*
X129521429Y-65942858D02*
X129450000Y-66014286D01*
X129378571Y-66157144D01*
X129378571Y-66371429D01*
X129450000Y-66514286D01*
X129592857Y-66585715D01*
X130378571Y-66585715D01*
X129378571Y-67942858D02*
X130592857Y-67942858D01*
X130735714Y-67871429D01*
X130807143Y-67800001D01*
X130878571Y-67657144D01*
X130878571Y-67442858D01*
X130807143Y-67300001D01*
X130307143Y-67942858D02*
X130378571Y-67800001D01*
X130378571Y-67514287D01*
X130307143Y-67371429D01*
X130235714Y-67300001D01*
X130092857Y-67228572D01*
X129664286Y-67228572D01*
X129521429Y-67300001D01*
X129450000Y-67371429D01*
X129378571Y-67514287D01*
X129378571Y-67800001D01*
X129450000Y-67942858D01*
X130307143Y-68585715D02*
X130378571Y-68728572D01*
X130378571Y-69014287D01*
X130307143Y-69157144D01*
X130164286Y-69228572D01*
X130092857Y-69228572D01*
X129950000Y-69157144D01*
X129878571Y-69014287D01*
X129878571Y-68800001D01*
X129807143Y-68657144D01*
X129664286Y-68585715D01*
X129592857Y-68585715D01*
X129450000Y-68657144D01*
X129378571Y-68800001D01*
X129378571Y-69014287D01*
X129450000Y-69157144D01*
X130235714Y-69871430D02*
X130307143Y-69942858D01*
X130378571Y-69871430D01*
X130307143Y-69800001D01*
X130235714Y-69871430D01*
X130378571Y-69871430D01*
X129378571Y-70585716D02*
X130378571Y-70585716D01*
X129521429Y-70585716D02*
X129450000Y-70657144D01*
X129378571Y-70800002D01*
X129378571Y-71014287D01*
X129450000Y-71157144D01*
X129592857Y-71228573D01*
X130378571Y-71228573D01*
X130307143Y-72514287D02*
X130378571Y-72371430D01*
X130378571Y-72085716D01*
X130307143Y-71942859D01*
X130164286Y-71871430D01*
X129592857Y-71871430D01*
X129450000Y-71942859D01*
X129378571Y-72085716D01*
X129378571Y-72371430D01*
X129450000Y-72514287D01*
X129592857Y-72585716D01*
X129735714Y-72585716D01*
X129878571Y-71871430D01*
X129378571Y-73014287D02*
X129378571Y-73585716D01*
X128878571Y-73228573D02*
X130164286Y-73228573D01*
X130307143Y-73300001D01*
X130378571Y-73442859D01*
X130378571Y-73585716D01*
X128807143Y-75157144D02*
X130735714Y-73871430D01*
X130307143Y-76300002D02*
X130378571Y-76157145D01*
X130378571Y-75871431D01*
X130307143Y-75728573D01*
X130235714Y-75657145D01*
X130092857Y-75585716D01*
X129664286Y-75585716D01*
X129521429Y-75657145D01*
X129450000Y-75728573D01*
X129378571Y-75871431D01*
X129378571Y-76157145D01*
X129450000Y-76300002D01*
X130378571Y-76942859D02*
X128878571Y-76942859D01*
X130378571Y-77585716D02*
X129592857Y-77585716D01*
X129450000Y-77514287D01*
X129378571Y-77371430D01*
X129378571Y-77157145D01*
X129450000Y-77014287D01*
X129521429Y-76942859D01*
X130378571Y-78300002D02*
X129378571Y-78300002D01*
X128878571Y-78300002D02*
X128950000Y-78228573D01*
X129021429Y-78300002D01*
X128950000Y-78371430D01*
X128878571Y-78300002D01*
X129021429Y-78300002D01*
X130378571Y-79014288D02*
X129378571Y-79014288D01*
X129664286Y-79014288D02*
X129521429Y-79085716D01*
X129450000Y-79157145D01*
X129378571Y-79300002D01*
X129378571Y-79442859D01*
X129378571Y-79942859D02*
X130878571Y-79942859D01*
X129450000Y-79942859D02*
X129378571Y-80085716D01*
X129378571Y-80371430D01*
X129450000Y-80514287D01*
X129521429Y-80585716D01*
X129664286Y-80657145D01*
X130092857Y-80657145D01*
X130235714Y-80585716D01*
X130307143Y-80514287D01*
X130378571Y-80371430D01*
X130378571Y-80085716D01*
X130307143Y-79942859D01*
X132778571Y-50800000D02*
X131778571Y-50800000D01*
X131921429Y-50800000D02*
X131850000Y-50871428D01*
X131778571Y-51014286D01*
X131778571Y-51228571D01*
X131850000Y-51371428D01*
X131992857Y-51442857D01*
X132778571Y-51442857D01*
X131992857Y-51442857D02*
X131850000Y-51514286D01*
X131778571Y-51657143D01*
X131778571Y-51871428D01*
X131850000Y-52014286D01*
X131992857Y-52085714D01*
X132778571Y-52085714D01*
X132778571Y-52800000D02*
X131778571Y-52800000D01*
X131278571Y-52800000D02*
X131350000Y-52728571D01*
X131421429Y-52800000D01*
X131350000Y-52871428D01*
X131278571Y-52800000D01*
X131421429Y-52800000D01*
X132707143Y-54157143D02*
X132778571Y-54014286D01*
X132778571Y-53728572D01*
X132707143Y-53585714D01*
X132635714Y-53514286D01*
X132492857Y-53442857D01*
X132064286Y-53442857D01*
X131921429Y-53514286D01*
X131850000Y-53585714D01*
X131778571Y-53728572D01*
X131778571Y-54014286D01*
X131850000Y-54157143D01*
X132064286Y-55728571D02*
X131992857Y-55657143D01*
X131921429Y-55514286D01*
X131921429Y-55371428D01*
X131992857Y-55228571D01*
X132064286Y-55157143D01*
X132207143Y-55085714D01*
X132350000Y-55085714D01*
X132492857Y-55157143D01*
X132564286Y-55228571D01*
X132635714Y-55371428D01*
X132635714Y-55514286D01*
X132564286Y-55657143D01*
X132492857Y-55728571D01*
X131921429Y-55728571D02*
X132492857Y-55728571D01*
X132564286Y-55800000D01*
X132564286Y-55871428D01*
X132492857Y-56014286D01*
X132350000Y-56085714D01*
X131992857Y-56085714D01*
X131778571Y-55942857D01*
X131635714Y-55728571D01*
X131564286Y-55442857D01*
X131635714Y-55157143D01*
X131778571Y-54942857D01*
X131992857Y-54800000D01*
X132278571Y-54728571D01*
X132564286Y-54800000D01*
X132778571Y-54942857D01*
X132921429Y-55157143D01*
X132992857Y-55442857D01*
X132921429Y-55728571D01*
X132778571Y-55942857D01*
X131778571Y-56585714D02*
X132778571Y-56871428D01*
X132064286Y-57157142D01*
X132778571Y-57442857D01*
X131778571Y-57728571D01*
X132707143Y-58871428D02*
X132778571Y-58728571D01*
X132778571Y-58442857D01*
X132707143Y-58300000D01*
X132564286Y-58228571D01*
X131992857Y-58228571D01*
X131850000Y-58300000D01*
X131778571Y-58442857D01*
X131778571Y-58728571D01*
X131850000Y-58871428D01*
X131992857Y-58942857D01*
X132135714Y-58942857D01*
X132278571Y-58228571D01*
X132778571Y-59585714D02*
X131778571Y-59585714D01*
X131921429Y-59585714D02*
X131850000Y-59657142D01*
X131778571Y-59800000D01*
X131778571Y-60014285D01*
X131850000Y-60157142D01*
X131992857Y-60228571D01*
X132778571Y-60228571D01*
X131992857Y-60228571D02*
X131850000Y-60300000D01*
X131778571Y-60442857D01*
X131778571Y-60657142D01*
X131850000Y-60800000D01*
X131992857Y-60871428D01*
X132778571Y-60871428D01*
X132778571Y-62228571D02*
X131992857Y-62228571D01*
X131850000Y-62157142D01*
X131778571Y-62014285D01*
X131778571Y-61728571D01*
X131850000Y-61585714D01*
X132707143Y-62228571D02*
X132778571Y-62085714D01*
X132778571Y-61728571D01*
X132707143Y-61585714D01*
X132564286Y-61514285D01*
X132421429Y-61514285D01*
X132278571Y-61585714D01*
X132207143Y-61728571D01*
X132207143Y-62085714D01*
X132135714Y-62228571D01*
X132778571Y-62942857D02*
X131278571Y-62942857D01*
X132207143Y-63085714D02*
X132778571Y-63514285D01*
X131778571Y-63514285D02*
X132350000Y-62942857D01*
X132707143Y-64728571D02*
X132778571Y-64585714D01*
X132778571Y-64300000D01*
X132707143Y-64157143D01*
X132564286Y-64085714D01*
X131992857Y-64085714D01*
X131850000Y-64157143D01*
X131778571Y-64300000D01*
X131778571Y-64585714D01*
X131850000Y-64728571D01*
X131992857Y-64800000D01*
X132135714Y-64800000D01*
X132278571Y-64085714D01*
X131778571Y-65228571D02*
X131778571Y-65800000D01*
X131278571Y-65442857D02*
X132564286Y-65442857D01*
X132707143Y-65514285D01*
X132778571Y-65657143D01*
X132778571Y-65800000D01*
X132778571Y-66300000D02*
X131278571Y-66300000D01*
X132778571Y-66942857D02*
X131992857Y-66942857D01*
X131850000Y-66871428D01*
X131778571Y-66728571D01*
X131778571Y-66514286D01*
X131850000Y-66371428D01*
X131921429Y-66300000D01*
X132778571Y-67657143D02*
X131778571Y-67657143D01*
X131278571Y-67657143D02*
X131350000Y-67585714D01*
X131421429Y-67657143D01*
X131350000Y-67728571D01*
X131278571Y-67657143D01*
X131421429Y-67657143D01*
X131778571Y-68371429D02*
X132778571Y-68371429D01*
X131921429Y-68371429D02*
X131850000Y-68442857D01*
X131778571Y-68585715D01*
X131778571Y-68800000D01*
X131850000Y-68942857D01*
X131992857Y-69014286D01*
X132778571Y-69014286D01*
X131778571Y-70371429D02*
X132992857Y-70371429D01*
X133135714Y-70300000D01*
X133207143Y-70228572D01*
X133278571Y-70085715D01*
X133278571Y-69871429D01*
X133207143Y-69728572D01*
X132707143Y-70371429D02*
X132778571Y-70228572D01*
X132778571Y-69942858D01*
X132707143Y-69800000D01*
X132635714Y-69728572D01*
X132492857Y-69657143D01*
X132064286Y-69657143D01*
X131921429Y-69728572D01*
X131850000Y-69800000D01*
X131778571Y-69942858D01*
X131778571Y-70228572D01*
X131850000Y-70371429D01*
X132707143Y-71014286D02*
X132778571Y-71157143D01*
X132778571Y-71442858D01*
X132707143Y-71585715D01*
X132564286Y-71657143D01*
X132492857Y-71657143D01*
X132350000Y-71585715D01*
X132278571Y-71442858D01*
X132278571Y-71228572D01*
X132207143Y-71085715D01*
X132064286Y-71014286D01*
X131992857Y-71014286D01*
X131850000Y-71085715D01*
X131778571Y-71228572D01*
X131778571Y-71442858D01*
X131850000Y-71585715D01*
X132635714Y-72300001D02*
X132707143Y-72371429D01*
X132778571Y-72300001D01*
X132707143Y-72228572D01*
X132635714Y-72300001D01*
X132778571Y-72300001D01*
X131778571Y-73014287D02*
X132778571Y-73014287D01*
X131921429Y-73014287D02*
X131850000Y-73085715D01*
X131778571Y-73228573D01*
X131778571Y-73442858D01*
X131850000Y-73585715D01*
X131992857Y-73657144D01*
X132778571Y-73657144D01*
X132707143Y-74942858D02*
X132778571Y-74800001D01*
X132778571Y-74514287D01*
X132707143Y-74371430D01*
X132564286Y-74300001D01*
X131992857Y-74300001D01*
X131850000Y-74371430D01*
X131778571Y-74514287D01*
X131778571Y-74800001D01*
X131850000Y-74942858D01*
X131992857Y-75014287D01*
X132135714Y-75014287D01*
X132278571Y-74300001D01*
X131778571Y-75442858D02*
X131778571Y-76014287D01*
X131278571Y-75657144D02*
X132564286Y-75657144D01*
X132707143Y-75728572D01*
X132778571Y-75871430D01*
X132778571Y-76014287D01*
%LPC*%
D12*
X168540000Y-34460000D03*
D13*
X168540000Y-37000000D03*
X166000000Y-34460000D03*
X166000000Y-37000000D03*
X163460000Y-34460000D03*
X163460000Y-37000000D03*
D12*
X168540000Y-34460000D03*
D13*
X168540000Y-37000000D03*
X166000000Y-34460000D03*
X166000000Y-37000000D03*
X163460000Y-34460000D03*
X163460000Y-37000000D03*
D12*
X150540000Y-34460000D03*
D13*
X150540000Y-37000000D03*
X148000000Y-34460000D03*
X148000000Y-37000000D03*
X145460000Y-34460000D03*
X145460000Y-37000000D03*
D12*
X114540000Y-34460000D03*
D13*
X114540000Y-37000000D03*
X112000000Y-34460000D03*
X112000000Y-37000000D03*
X109460000Y-34460000D03*
X109460000Y-37000000D03*
D12*
X96540000Y-34460000D03*
D13*
X96540000Y-37000000D03*
X94000000Y-34460000D03*
X94000000Y-37000000D03*
X91460000Y-34460000D03*
X91460000Y-37000000D03*
D12*
X132540000Y-34460000D03*
D13*
X132540000Y-37000000D03*
X130000000Y-34460000D03*
X130000000Y-37000000D03*
X127460000Y-34460000D03*
X127460000Y-37000000D03*
M02*
