M48
;DRILL file {KiCad (2015-05-18 BZR 5668)-product} date Fri 05 Jun 2015 08:01:56 AM EEST
;FORMAT={-:-/ absolute / metric / decimal}
FMAT,2
METRIC,TZ
T1C0.400
T2C0.900
T3C2.500
T4C3.000
%
G90
G05
M71
T1
X88.95Y-42.3
X89.15Y-61.4
X89.15Y-62.35
X89.268Y-64.1
X90.05Y-57.75
X90.1Y-55.1
X90.1Y-67.
X90.9Y-54.3
X91.Y-63.2
X91.7Y-53.5
X91.71Y-59.038
X92.7Y-46.3
X92.9Y-67.307
X93.Y-161.
X93.4Y-42.3
X94.2Y-46.4
X94.3Y-48.
X94.504Y-58.784
X94.8Y-52.8
X95.243Y-55.843
X96.282Y-62.34
X96.3Y-64.15
X96.8Y-52.9
X96.8Y-55.3
X97.6Y-57.8
X98.5Y-43.
X98.5Y-48.2
X99.5Y-48.3
X99.8Y-49.2
X106.95Y-42.3
X107.15Y-61.4
X107.15Y-62.35
X107.268Y-64.1
X108.05Y-57.75
X108.1Y-55.1
X108.1Y-67.
X108.9Y-54.3
X109.Y-63.2
X109.7Y-53.5
X109.71Y-59.038
X110.7Y-46.3
X110.9Y-67.307
X111.Y-161.
X111.4Y-42.3
X112.2Y-46.4
X112.3Y-48.
X112.504Y-58.784
X112.8Y-52.8
X113.243Y-55.843
X114.282Y-62.34
X114.3Y-64.15
X114.8Y-52.9
X114.8Y-55.3
X115.6Y-57.8
X116.5Y-43.
X116.5Y-48.2
X117.5Y-48.3
X117.8Y-49.2
X124.95Y-42.3
X125.15Y-61.4
X125.15Y-62.35
X125.268Y-64.1
X126.05Y-57.75
X126.1Y-55.1
X126.1Y-67.
X126.9Y-54.3
X127.Y-63.2
X127.7Y-53.5
X127.71Y-59.038
X128.7Y-46.3
X128.9Y-67.307
X129.Y-161.
X129.4Y-42.3
X130.2Y-46.4
X130.3Y-48.
X130.504Y-58.784
X130.8Y-52.8
X131.243Y-55.843
X132.282Y-62.34
X132.3Y-64.15
X132.8Y-52.9
X132.8Y-55.3
X133.6Y-57.8
X134.5Y-43.
X134.5Y-48.2
X135.5Y-48.3
X135.8Y-49.2
X142.95Y-42.3
X143.15Y-61.4
X143.15Y-62.35
X143.268Y-64.1
X144.05Y-57.75
X144.1Y-55.1
X144.1Y-67.
X144.9Y-54.3
X145.Y-63.2
X145.7Y-53.5
X145.71Y-59.038
X146.7Y-46.3
X146.9Y-67.307
X147.Y-161.
X147.4Y-42.3
X148.2Y-46.4
X148.3Y-48.
X148.504Y-58.784
X148.8Y-52.8
X149.243Y-55.843
X150.282Y-62.34
X150.3Y-64.15
X150.8Y-52.9
X150.8Y-55.3
X151.6Y-57.8
X152.5Y-43.
X152.5Y-48.2
X153.5Y-48.3
X153.8Y-49.2
X160.95Y-42.3
X160.95Y-42.3
X161.15Y-61.4
X161.15Y-61.4
X161.15Y-62.35
X161.15Y-62.35
X161.268Y-64.1
X161.268Y-64.1
X162.05Y-57.75
X162.05Y-57.75
X162.1Y-55.1
X162.1Y-55.1
X162.1Y-67.
X162.1Y-67.
X162.9Y-54.3
X162.9Y-54.3
X163.Y-63.2
X163.Y-63.2
X163.7Y-53.5
X163.7Y-53.5
X163.71Y-59.038
X163.71Y-59.038
X164.7Y-46.3
X164.7Y-46.3
X164.9Y-67.307
X164.9Y-67.307
X165.Y-161.
X165.Y-161.
X165.4Y-42.3
X165.4Y-42.3
X166.2Y-46.4
X166.2Y-46.4
X166.3Y-48.
X166.3Y-48.
X166.504Y-58.784
X166.504Y-58.784
X166.8Y-52.8
X166.8Y-52.8
X167.243Y-55.843
X167.243Y-55.843
X168.282Y-62.34
X168.282Y-62.34
X168.3Y-64.15
X168.3Y-64.15
X168.8Y-52.9
X168.8Y-52.9
X168.8Y-55.3
X168.8Y-55.3
X169.6Y-57.8
X169.6Y-57.8
X170.5Y-43.
X170.5Y-43.
X170.5Y-48.2
X170.5Y-48.2
X171.5Y-48.3
X171.5Y-48.3
X171.8Y-49.2
X171.8Y-49.2
T2
X91.46Y-34.46
X91.46Y-37.
X94.Y-34.46
X94.Y-37.
X96.54Y-34.46
X96.54Y-37.
X109.46Y-34.46
X109.46Y-37.
X112.Y-34.46
X112.Y-37.
X114.54Y-34.46
X114.54Y-37.
X127.46Y-34.46
X127.46Y-37.
X130.Y-34.46
X130.Y-37.
X132.54Y-34.46
X132.54Y-37.
X145.46Y-34.46
X145.46Y-37.
X148.Y-34.46
X148.Y-37.
X150.54Y-34.46
X150.54Y-37.
X163.46Y-34.46
X163.46Y-34.46
X163.46Y-37.
X163.46Y-37.
X166.Y-34.46
X166.Y-34.46
X166.Y-37.
X166.Y-37.
X168.54Y-34.46
X168.54Y-34.46
X168.54Y-37.
X168.54Y-37.
T3
X82.5Y-40.
X82.5Y-40.
X177.5Y-152.5
X177.5Y-152.5
T4
X89.Y-26.
X99.Y-26.
X107.Y-26.
X117.Y-26.
X125.Y-26.
X135.Y-26.
X143.Y-26.
X153.Y-26.
X161.Y-26.
X161.Y-26.
X171.Y-26.
X171.Y-26.
T0
M30
