G04 #@! TF.GenerationSoftware,KiCad,Pcbnew,no-vcs-found-34abef3~59~ubuntu16.04.1*
G04 #@! TF.CreationDate,2017-08-04T13:41:36+03:00*
G04 #@! TF.ProjectId,i2c-moist-sensor-pannel,6932632D6D6F6973742D73656E736F72,rev?*
G04 #@! TF.SameCoordinates,Original*
G04 #@! TF.FileFunction,Legend,Bot*
G04 #@! TF.FilePolarity,Positive*
%FSLAX46Y46*%
G04 Gerber Fmt 4.6, Leading zero omitted, Abs format (unit mm)*
G04 Created by KiCad (PCBNEW no-vcs-found-34abef3~59~ubuntu16.04.1) date Fri Aug  4 13:41:36 2017*
%MOMM*%
%LPD*%
G01*
G04 APERTURE LIST*
%ADD10C,1.750000*%
%ADD11C,0.175000*%
%ADD12C,0.300000*%
%ADD13C,1.000000*%
%ADD14C,1.727200*%
%ADD15R,1.727200X1.727200*%
%ADD16O,1.524000X2.199640*%
%ADD17R,1.524000X2.199640*%
G04 APERTURE END LIST*
D10*
X92650000Y-105350000D02*
X92316666Y-105683333D01*
X92650000Y-106016666D01*
X92983333Y-105683333D01*
X92650000Y-105350000D01*
X92650000Y-106016666D01*
X110550000Y-105200000D02*
X110216666Y-105533333D01*
X110550000Y-105866666D01*
X110883333Y-105533333D01*
X110550000Y-105200000D01*
X110550000Y-105866666D01*
X128500000Y-105250000D02*
X128166666Y-105583333D01*
X128500000Y-105916666D01*
X128833333Y-105583333D01*
X128500000Y-105250000D01*
X128500000Y-105916666D01*
X146550000Y-105250000D02*
X146216666Y-105583333D01*
X146550000Y-105916666D01*
X146883333Y-105583333D01*
X146550000Y-105250000D01*
X146550000Y-105916666D01*
X164650000Y-105300000D02*
X164316666Y-105633333D01*
X164650000Y-105966666D01*
X164983333Y-105633333D01*
X164650000Y-105300000D01*
X164650000Y-105966666D01*
D11*
X92466666Y-29600000D02*
X92433333Y-29500000D01*
X92433333Y-29333333D01*
X92466666Y-29266666D01*
X92500000Y-29233333D01*
X92566666Y-29200000D01*
X92633333Y-29200000D01*
X92700000Y-29233333D01*
X92733333Y-29266666D01*
X92766666Y-29333333D01*
X92800000Y-29466666D01*
X92833333Y-29533333D01*
X92866666Y-29566666D01*
X92933333Y-29600000D01*
X93000000Y-29600000D01*
X93066666Y-29566666D01*
X93100000Y-29533333D01*
X93133333Y-29466666D01*
X93133333Y-29300000D01*
X93100000Y-29200000D01*
X92433333Y-28900000D02*
X93133333Y-28900000D01*
X93133333Y-28733333D01*
X93100000Y-28633333D01*
X93033333Y-28566666D01*
X92966666Y-28533333D01*
X92833333Y-28500000D01*
X92733333Y-28500000D01*
X92600000Y-28533333D01*
X92533333Y-28566666D01*
X92466666Y-28633333D01*
X92433333Y-28733333D01*
X92433333Y-28900000D01*
X92633333Y-28233333D02*
X92633333Y-27900000D01*
X92433333Y-28300000D02*
X93133333Y-28066666D01*
X92433333Y-27833333D01*
X90600000Y-29283333D02*
X90633333Y-29350000D01*
X90633333Y-29450000D01*
X90600000Y-29550000D01*
X90533333Y-29616666D01*
X90466666Y-29650000D01*
X90333333Y-29683333D01*
X90233333Y-29683333D01*
X90100000Y-29650000D01*
X90033333Y-29616666D01*
X89966666Y-29550000D01*
X89933333Y-29450000D01*
X89933333Y-29383333D01*
X89966666Y-29283333D01*
X90000000Y-29250000D01*
X90233333Y-29250000D01*
X90233333Y-29383333D01*
X89933333Y-28950000D02*
X90633333Y-28950000D01*
X89933333Y-28550000D01*
X90633333Y-28550000D01*
X89933333Y-28216666D02*
X90633333Y-28216666D01*
X90633333Y-28050000D01*
X90600000Y-27950000D01*
X90533333Y-27883333D01*
X90466666Y-27850000D01*
X90333333Y-27816666D01*
X90233333Y-27816666D01*
X90100000Y-27850000D01*
X90033333Y-27883333D01*
X89966666Y-27950000D01*
X89933333Y-28050000D01*
X89933333Y-28216666D01*
X94966666Y-29583333D02*
X94933333Y-29483333D01*
X94933333Y-29316666D01*
X94966666Y-29250000D01*
X95000000Y-29216666D01*
X95066666Y-29183333D01*
X95133333Y-29183333D01*
X95200000Y-29216666D01*
X95233333Y-29250000D01*
X95266666Y-29316666D01*
X95300000Y-29450000D01*
X95333333Y-29516666D01*
X95366666Y-29550000D01*
X95433333Y-29583333D01*
X95500000Y-29583333D01*
X95566666Y-29550000D01*
X95600000Y-29516666D01*
X95633333Y-29450000D01*
X95633333Y-29283333D01*
X95600000Y-29183333D01*
X95000000Y-28483333D02*
X94966666Y-28516666D01*
X94933333Y-28616666D01*
X94933333Y-28683333D01*
X94966666Y-28783333D01*
X95033333Y-28850000D01*
X95100000Y-28883333D01*
X95233333Y-28916666D01*
X95333333Y-28916666D01*
X95466666Y-28883333D01*
X95533333Y-28850000D01*
X95600000Y-28783333D01*
X95633333Y-28683333D01*
X95633333Y-28616666D01*
X95600000Y-28516666D01*
X95566666Y-28483333D01*
X94933333Y-27850000D02*
X94933333Y-28183333D01*
X95633333Y-28183333D01*
X98133333Y-29683333D02*
X97433333Y-29450000D01*
X98133333Y-29216666D01*
X97500000Y-28583333D02*
X97466666Y-28616666D01*
X97433333Y-28716666D01*
X97433333Y-28783333D01*
X97466666Y-28883333D01*
X97533333Y-28950000D01*
X97600000Y-28983333D01*
X97733333Y-29016666D01*
X97833333Y-29016666D01*
X97966666Y-28983333D01*
X98033333Y-28950000D01*
X98100000Y-28883333D01*
X98133333Y-28783333D01*
X98133333Y-28716666D01*
X98100000Y-28616666D01*
X98066666Y-28583333D01*
X97500000Y-27883333D02*
X97466666Y-27916666D01*
X97433333Y-28016666D01*
X97433333Y-28083333D01*
X97466666Y-28183333D01*
X97533333Y-28250000D01*
X97600000Y-28283333D01*
X97733333Y-28316666D01*
X97833333Y-28316666D01*
X97966666Y-28283333D01*
X98033333Y-28250000D01*
X98100000Y-28183333D01*
X98133333Y-28083333D01*
X98133333Y-28016666D01*
X98100000Y-27916666D01*
X98066666Y-27883333D01*
X108600000Y-29283333D02*
X108633333Y-29350000D01*
X108633333Y-29450000D01*
X108600000Y-29550000D01*
X108533333Y-29616666D01*
X108466666Y-29650000D01*
X108333333Y-29683333D01*
X108233333Y-29683333D01*
X108100000Y-29650000D01*
X108033333Y-29616666D01*
X107966666Y-29550000D01*
X107933333Y-29450000D01*
X107933333Y-29383333D01*
X107966666Y-29283333D01*
X108000000Y-29250000D01*
X108233333Y-29250000D01*
X108233333Y-29383333D01*
X107933333Y-28950000D02*
X108633333Y-28950000D01*
X107933333Y-28550000D01*
X108633333Y-28550000D01*
X107933333Y-28216666D02*
X108633333Y-28216666D01*
X108633333Y-28050000D01*
X108600000Y-27950000D01*
X108533333Y-27883333D01*
X108466666Y-27850000D01*
X108333333Y-27816666D01*
X108233333Y-27816666D01*
X108100000Y-27850000D01*
X108033333Y-27883333D01*
X107966666Y-27950000D01*
X107933333Y-28050000D01*
X107933333Y-28216666D01*
X110466666Y-29600000D02*
X110433333Y-29500000D01*
X110433333Y-29333333D01*
X110466666Y-29266666D01*
X110500000Y-29233333D01*
X110566666Y-29200000D01*
X110633333Y-29200000D01*
X110700000Y-29233333D01*
X110733333Y-29266666D01*
X110766666Y-29333333D01*
X110800000Y-29466666D01*
X110833333Y-29533333D01*
X110866666Y-29566666D01*
X110933333Y-29600000D01*
X111000000Y-29600000D01*
X111066666Y-29566666D01*
X111100000Y-29533333D01*
X111133333Y-29466666D01*
X111133333Y-29300000D01*
X111100000Y-29200000D01*
X110433333Y-28900000D02*
X111133333Y-28900000D01*
X111133333Y-28733333D01*
X111100000Y-28633333D01*
X111033333Y-28566666D01*
X110966666Y-28533333D01*
X110833333Y-28500000D01*
X110733333Y-28500000D01*
X110600000Y-28533333D01*
X110533333Y-28566666D01*
X110466666Y-28633333D01*
X110433333Y-28733333D01*
X110433333Y-28900000D01*
X110633333Y-28233333D02*
X110633333Y-27900000D01*
X110433333Y-28300000D02*
X111133333Y-28066666D01*
X110433333Y-27833333D01*
X112966666Y-29583333D02*
X112933333Y-29483333D01*
X112933333Y-29316666D01*
X112966666Y-29250000D01*
X113000000Y-29216666D01*
X113066666Y-29183333D01*
X113133333Y-29183333D01*
X113200000Y-29216666D01*
X113233333Y-29250000D01*
X113266666Y-29316666D01*
X113300000Y-29450000D01*
X113333333Y-29516666D01*
X113366666Y-29550000D01*
X113433333Y-29583333D01*
X113500000Y-29583333D01*
X113566666Y-29550000D01*
X113600000Y-29516666D01*
X113633333Y-29450000D01*
X113633333Y-29283333D01*
X113600000Y-29183333D01*
X113000000Y-28483333D02*
X112966666Y-28516666D01*
X112933333Y-28616666D01*
X112933333Y-28683333D01*
X112966666Y-28783333D01*
X113033333Y-28850000D01*
X113100000Y-28883333D01*
X113233333Y-28916666D01*
X113333333Y-28916666D01*
X113466666Y-28883333D01*
X113533333Y-28850000D01*
X113600000Y-28783333D01*
X113633333Y-28683333D01*
X113633333Y-28616666D01*
X113600000Y-28516666D01*
X113566666Y-28483333D01*
X112933333Y-27850000D02*
X112933333Y-28183333D01*
X113633333Y-28183333D01*
X116133333Y-29683333D02*
X115433333Y-29450000D01*
X116133333Y-29216666D01*
X115500000Y-28583333D02*
X115466666Y-28616666D01*
X115433333Y-28716666D01*
X115433333Y-28783333D01*
X115466666Y-28883333D01*
X115533333Y-28950000D01*
X115600000Y-28983333D01*
X115733333Y-29016666D01*
X115833333Y-29016666D01*
X115966666Y-28983333D01*
X116033333Y-28950000D01*
X116100000Y-28883333D01*
X116133333Y-28783333D01*
X116133333Y-28716666D01*
X116100000Y-28616666D01*
X116066666Y-28583333D01*
X115500000Y-27883333D02*
X115466666Y-27916666D01*
X115433333Y-28016666D01*
X115433333Y-28083333D01*
X115466666Y-28183333D01*
X115533333Y-28250000D01*
X115600000Y-28283333D01*
X115733333Y-28316666D01*
X115833333Y-28316666D01*
X115966666Y-28283333D01*
X116033333Y-28250000D01*
X116100000Y-28183333D01*
X116133333Y-28083333D01*
X116133333Y-28016666D01*
X116100000Y-27916666D01*
X116066666Y-27883333D01*
X164466666Y-29600000D02*
X164433333Y-29500000D01*
X164433333Y-29333333D01*
X164466666Y-29266666D01*
X164500000Y-29233333D01*
X164566666Y-29200000D01*
X164633333Y-29200000D01*
X164700000Y-29233333D01*
X164733333Y-29266666D01*
X164766666Y-29333333D01*
X164800000Y-29466666D01*
X164833333Y-29533333D01*
X164866666Y-29566666D01*
X164933333Y-29600000D01*
X165000000Y-29600000D01*
X165066666Y-29566666D01*
X165100000Y-29533333D01*
X165133333Y-29466666D01*
X165133333Y-29300000D01*
X165100000Y-29200000D01*
X164433333Y-28900000D02*
X165133333Y-28900000D01*
X165133333Y-28733333D01*
X165100000Y-28633333D01*
X165033333Y-28566666D01*
X164966666Y-28533333D01*
X164833333Y-28500000D01*
X164733333Y-28500000D01*
X164600000Y-28533333D01*
X164533333Y-28566666D01*
X164466666Y-28633333D01*
X164433333Y-28733333D01*
X164433333Y-28900000D01*
X164633333Y-28233333D02*
X164633333Y-27900000D01*
X164433333Y-28300000D02*
X165133333Y-28066666D01*
X164433333Y-27833333D01*
X166966666Y-29583333D02*
X166933333Y-29483333D01*
X166933333Y-29316666D01*
X166966666Y-29250000D01*
X167000000Y-29216666D01*
X167066666Y-29183333D01*
X167133333Y-29183333D01*
X167200000Y-29216666D01*
X167233333Y-29250000D01*
X167266666Y-29316666D01*
X167300000Y-29450000D01*
X167333333Y-29516666D01*
X167366666Y-29550000D01*
X167433333Y-29583333D01*
X167500000Y-29583333D01*
X167566666Y-29550000D01*
X167600000Y-29516666D01*
X167633333Y-29450000D01*
X167633333Y-29283333D01*
X167600000Y-29183333D01*
X167000000Y-28483333D02*
X166966666Y-28516666D01*
X166933333Y-28616666D01*
X166933333Y-28683333D01*
X166966666Y-28783333D01*
X167033333Y-28850000D01*
X167100000Y-28883333D01*
X167233333Y-28916666D01*
X167333333Y-28916666D01*
X167466666Y-28883333D01*
X167533333Y-28850000D01*
X167600000Y-28783333D01*
X167633333Y-28683333D01*
X167633333Y-28616666D01*
X167600000Y-28516666D01*
X167566666Y-28483333D01*
X166933333Y-27850000D02*
X166933333Y-28183333D01*
X167633333Y-28183333D01*
X170133333Y-29683333D02*
X169433333Y-29450000D01*
X170133333Y-29216666D01*
X169500000Y-28583333D02*
X169466666Y-28616666D01*
X169433333Y-28716666D01*
X169433333Y-28783333D01*
X169466666Y-28883333D01*
X169533333Y-28950000D01*
X169600000Y-28983333D01*
X169733333Y-29016666D01*
X169833333Y-29016666D01*
X169966666Y-28983333D01*
X170033333Y-28950000D01*
X170100000Y-28883333D01*
X170133333Y-28783333D01*
X170133333Y-28716666D01*
X170100000Y-28616666D01*
X170066666Y-28583333D01*
X169500000Y-27883333D02*
X169466666Y-27916666D01*
X169433333Y-28016666D01*
X169433333Y-28083333D01*
X169466666Y-28183333D01*
X169533333Y-28250000D01*
X169600000Y-28283333D01*
X169733333Y-28316666D01*
X169833333Y-28316666D01*
X169966666Y-28283333D01*
X170033333Y-28250000D01*
X170100000Y-28183333D01*
X170133333Y-28083333D01*
X170133333Y-28016666D01*
X170100000Y-27916666D01*
X170066666Y-27883333D01*
X162600000Y-29283333D02*
X162633333Y-29350000D01*
X162633333Y-29450000D01*
X162600000Y-29550000D01*
X162533333Y-29616666D01*
X162466666Y-29650000D01*
X162333333Y-29683333D01*
X162233333Y-29683333D01*
X162100000Y-29650000D01*
X162033333Y-29616666D01*
X161966666Y-29550000D01*
X161933333Y-29450000D01*
X161933333Y-29383333D01*
X161966666Y-29283333D01*
X162000000Y-29250000D01*
X162233333Y-29250000D01*
X162233333Y-29383333D01*
X161933333Y-28950000D02*
X162633333Y-28950000D01*
X161933333Y-28550000D01*
X162633333Y-28550000D01*
X161933333Y-28216666D02*
X162633333Y-28216666D01*
X162633333Y-28050000D01*
X162600000Y-27950000D01*
X162533333Y-27883333D01*
X162466666Y-27850000D01*
X162333333Y-27816666D01*
X162233333Y-27816666D01*
X162100000Y-27850000D01*
X162033333Y-27883333D01*
X161966666Y-27950000D01*
X161933333Y-28050000D01*
X161933333Y-28216666D01*
X134133333Y-29683333D02*
X133433333Y-29450000D01*
X134133333Y-29216666D01*
X133500000Y-28583333D02*
X133466666Y-28616666D01*
X133433333Y-28716666D01*
X133433333Y-28783333D01*
X133466666Y-28883333D01*
X133533333Y-28950000D01*
X133600000Y-28983333D01*
X133733333Y-29016666D01*
X133833333Y-29016666D01*
X133966666Y-28983333D01*
X134033333Y-28950000D01*
X134100000Y-28883333D01*
X134133333Y-28783333D01*
X134133333Y-28716666D01*
X134100000Y-28616666D01*
X134066666Y-28583333D01*
X133500000Y-27883333D02*
X133466666Y-27916666D01*
X133433333Y-28016666D01*
X133433333Y-28083333D01*
X133466666Y-28183333D01*
X133533333Y-28250000D01*
X133600000Y-28283333D01*
X133733333Y-28316666D01*
X133833333Y-28316666D01*
X133966666Y-28283333D01*
X134033333Y-28250000D01*
X134100000Y-28183333D01*
X134133333Y-28083333D01*
X134133333Y-28016666D01*
X134100000Y-27916666D01*
X134066666Y-27883333D01*
X128466666Y-29600000D02*
X128433333Y-29500000D01*
X128433333Y-29333333D01*
X128466666Y-29266666D01*
X128500000Y-29233333D01*
X128566666Y-29200000D01*
X128633333Y-29200000D01*
X128700000Y-29233333D01*
X128733333Y-29266666D01*
X128766666Y-29333333D01*
X128800000Y-29466666D01*
X128833333Y-29533333D01*
X128866666Y-29566666D01*
X128933333Y-29600000D01*
X129000000Y-29600000D01*
X129066666Y-29566666D01*
X129100000Y-29533333D01*
X129133333Y-29466666D01*
X129133333Y-29300000D01*
X129100000Y-29200000D01*
X128433333Y-28900000D02*
X129133333Y-28900000D01*
X129133333Y-28733333D01*
X129100000Y-28633333D01*
X129033333Y-28566666D01*
X128966666Y-28533333D01*
X128833333Y-28500000D01*
X128733333Y-28500000D01*
X128600000Y-28533333D01*
X128533333Y-28566666D01*
X128466666Y-28633333D01*
X128433333Y-28733333D01*
X128433333Y-28900000D01*
X128633333Y-28233333D02*
X128633333Y-27900000D01*
X128433333Y-28300000D02*
X129133333Y-28066666D01*
X128433333Y-27833333D01*
X130966666Y-29583333D02*
X130933333Y-29483333D01*
X130933333Y-29316666D01*
X130966666Y-29250000D01*
X131000000Y-29216666D01*
X131066666Y-29183333D01*
X131133333Y-29183333D01*
X131200000Y-29216666D01*
X131233333Y-29250000D01*
X131266666Y-29316666D01*
X131300000Y-29450000D01*
X131333333Y-29516666D01*
X131366666Y-29550000D01*
X131433333Y-29583333D01*
X131500000Y-29583333D01*
X131566666Y-29550000D01*
X131600000Y-29516666D01*
X131633333Y-29450000D01*
X131633333Y-29283333D01*
X131600000Y-29183333D01*
X131000000Y-28483333D02*
X130966666Y-28516666D01*
X130933333Y-28616666D01*
X130933333Y-28683333D01*
X130966666Y-28783333D01*
X131033333Y-28850000D01*
X131100000Y-28883333D01*
X131233333Y-28916666D01*
X131333333Y-28916666D01*
X131466666Y-28883333D01*
X131533333Y-28850000D01*
X131600000Y-28783333D01*
X131633333Y-28683333D01*
X131633333Y-28616666D01*
X131600000Y-28516666D01*
X131566666Y-28483333D01*
X130933333Y-27850000D02*
X130933333Y-28183333D01*
X131633333Y-28183333D01*
X126600000Y-29283333D02*
X126633333Y-29350000D01*
X126633333Y-29450000D01*
X126600000Y-29550000D01*
X126533333Y-29616666D01*
X126466666Y-29650000D01*
X126333333Y-29683333D01*
X126233333Y-29683333D01*
X126100000Y-29650000D01*
X126033333Y-29616666D01*
X125966666Y-29550000D01*
X125933333Y-29450000D01*
X125933333Y-29383333D01*
X125966666Y-29283333D01*
X126000000Y-29250000D01*
X126233333Y-29250000D01*
X126233333Y-29383333D01*
X125933333Y-28950000D02*
X126633333Y-28950000D01*
X125933333Y-28550000D01*
X126633333Y-28550000D01*
X125933333Y-28216666D02*
X126633333Y-28216666D01*
X126633333Y-28050000D01*
X126600000Y-27950000D01*
X126533333Y-27883333D01*
X126466666Y-27850000D01*
X126333333Y-27816666D01*
X126233333Y-27816666D01*
X126100000Y-27850000D01*
X126033333Y-27883333D01*
X125966666Y-27950000D01*
X125933333Y-28050000D01*
X125933333Y-28216666D01*
X144600000Y-29283333D02*
X144633333Y-29350000D01*
X144633333Y-29450000D01*
X144600000Y-29550000D01*
X144533333Y-29616666D01*
X144466666Y-29650000D01*
X144333333Y-29683333D01*
X144233333Y-29683333D01*
X144100000Y-29650000D01*
X144033333Y-29616666D01*
X143966666Y-29550000D01*
X143933333Y-29450000D01*
X143933333Y-29383333D01*
X143966666Y-29283333D01*
X144000000Y-29250000D01*
X144233333Y-29250000D01*
X144233333Y-29383333D01*
X143933333Y-28950000D02*
X144633333Y-28950000D01*
X143933333Y-28550000D01*
X144633333Y-28550000D01*
X143933333Y-28216666D02*
X144633333Y-28216666D01*
X144633333Y-28050000D01*
X144600000Y-27950000D01*
X144533333Y-27883333D01*
X144466666Y-27850000D01*
X144333333Y-27816666D01*
X144233333Y-27816666D01*
X144100000Y-27850000D01*
X144033333Y-27883333D01*
X143966666Y-27950000D01*
X143933333Y-28050000D01*
X143933333Y-28216666D01*
X146466666Y-29600000D02*
X146433333Y-29500000D01*
X146433333Y-29333333D01*
X146466666Y-29266666D01*
X146500000Y-29233333D01*
X146566666Y-29200000D01*
X146633333Y-29200000D01*
X146700000Y-29233333D01*
X146733333Y-29266666D01*
X146766666Y-29333333D01*
X146800000Y-29466666D01*
X146833333Y-29533333D01*
X146866666Y-29566666D01*
X146933333Y-29600000D01*
X147000000Y-29600000D01*
X147066666Y-29566666D01*
X147100000Y-29533333D01*
X147133333Y-29466666D01*
X147133333Y-29300000D01*
X147100000Y-29200000D01*
X146433333Y-28900000D02*
X147133333Y-28900000D01*
X147133333Y-28733333D01*
X147100000Y-28633333D01*
X147033333Y-28566666D01*
X146966666Y-28533333D01*
X146833333Y-28500000D01*
X146733333Y-28500000D01*
X146600000Y-28533333D01*
X146533333Y-28566666D01*
X146466666Y-28633333D01*
X146433333Y-28733333D01*
X146433333Y-28900000D01*
X146633333Y-28233333D02*
X146633333Y-27900000D01*
X146433333Y-28300000D02*
X147133333Y-28066666D01*
X146433333Y-27833333D01*
X148966666Y-29583333D02*
X148933333Y-29483333D01*
X148933333Y-29316666D01*
X148966666Y-29250000D01*
X149000000Y-29216666D01*
X149066666Y-29183333D01*
X149133333Y-29183333D01*
X149200000Y-29216666D01*
X149233333Y-29250000D01*
X149266666Y-29316666D01*
X149300000Y-29450000D01*
X149333333Y-29516666D01*
X149366666Y-29550000D01*
X149433333Y-29583333D01*
X149500000Y-29583333D01*
X149566666Y-29550000D01*
X149600000Y-29516666D01*
X149633333Y-29450000D01*
X149633333Y-29283333D01*
X149600000Y-29183333D01*
X149000000Y-28483333D02*
X148966666Y-28516666D01*
X148933333Y-28616666D01*
X148933333Y-28683333D01*
X148966666Y-28783333D01*
X149033333Y-28850000D01*
X149100000Y-28883333D01*
X149233333Y-28916666D01*
X149333333Y-28916666D01*
X149466666Y-28883333D01*
X149533333Y-28850000D01*
X149600000Y-28783333D01*
X149633333Y-28683333D01*
X149633333Y-28616666D01*
X149600000Y-28516666D01*
X149566666Y-28483333D01*
X148933333Y-27850000D02*
X148933333Y-28183333D01*
X149633333Y-28183333D01*
X152133333Y-29683333D02*
X151433333Y-29450000D01*
X152133333Y-29216666D01*
X151500000Y-28583333D02*
X151466666Y-28616666D01*
X151433333Y-28716666D01*
X151433333Y-28783333D01*
X151466666Y-28883333D01*
X151533333Y-28950000D01*
X151600000Y-28983333D01*
X151733333Y-29016666D01*
X151833333Y-29016666D01*
X151966666Y-28983333D01*
X152033333Y-28950000D01*
X152100000Y-28883333D01*
X152133333Y-28783333D01*
X152133333Y-28716666D01*
X152100000Y-28616666D01*
X152066666Y-28583333D01*
X151500000Y-27883333D02*
X151466666Y-27916666D01*
X151433333Y-28016666D01*
X151433333Y-28083333D01*
X151466666Y-28183333D01*
X151533333Y-28250000D01*
X151600000Y-28283333D01*
X151733333Y-28316666D01*
X151833333Y-28316666D01*
X151966666Y-28283333D01*
X152033333Y-28250000D01*
X152100000Y-28183333D01*
X152133333Y-28083333D01*
X152133333Y-28016666D01*
X152100000Y-27916666D01*
X152066666Y-27883333D01*
D12*
X96514285Y-140642857D02*
X96442857Y-140714285D01*
X96371428Y-140928571D01*
X96371428Y-141071428D01*
X96442857Y-141285714D01*
X96585714Y-141428571D01*
X96728571Y-141500000D01*
X97014285Y-141571428D01*
X97228571Y-141571428D01*
X97514285Y-141500000D01*
X97657142Y-141428571D01*
X97800000Y-141285714D01*
X97871428Y-141071428D01*
X97871428Y-140928571D01*
X97800000Y-140714285D01*
X97728571Y-140642857D01*
X96371428Y-139357142D02*
X97157142Y-139357142D01*
X97300000Y-139428571D01*
X97371428Y-139571428D01*
X97371428Y-139857142D01*
X97300000Y-140000000D01*
X96442857Y-139357142D02*
X96371428Y-139500000D01*
X96371428Y-139857142D01*
X96442857Y-140000000D01*
X96585714Y-140071428D01*
X96728571Y-140071428D01*
X96871428Y-140000000D01*
X96942857Y-139857142D01*
X96942857Y-139500000D01*
X97014285Y-139357142D01*
X97371428Y-138857142D02*
X97371428Y-138285714D01*
X97871428Y-138642857D02*
X96585714Y-138642857D01*
X96442857Y-138571428D01*
X96371428Y-138428571D01*
X96371428Y-138285714D01*
X97371428Y-137785714D02*
X96371428Y-137785714D01*
X97228571Y-137785714D02*
X97300000Y-137714285D01*
X97371428Y-137571428D01*
X97371428Y-137357142D01*
X97300000Y-137214285D01*
X97157142Y-137142857D01*
X96371428Y-137142857D01*
X96371428Y-136428571D02*
X97371428Y-136428571D01*
X97871428Y-136428571D02*
X97800000Y-136500000D01*
X97728571Y-136428571D01*
X97800000Y-136357142D01*
X97871428Y-136428571D01*
X97728571Y-136428571D01*
X97371428Y-135714285D02*
X95871428Y-135714285D01*
X97300000Y-135714285D02*
X97371428Y-135571428D01*
X97371428Y-135285714D01*
X97300000Y-135142857D01*
X97228571Y-135071428D01*
X97085714Y-135000000D01*
X96657142Y-135000000D01*
X96514285Y-135071428D01*
X96442857Y-135142857D01*
X96371428Y-135285714D01*
X96371428Y-135571428D01*
X96442857Y-135714285D01*
X97157142Y-133214285D02*
X97157142Y-132714285D01*
X96371428Y-132500000D02*
X96371428Y-133214285D01*
X97871428Y-133214285D01*
X97871428Y-132500000D01*
X96371428Y-131642857D02*
X96442857Y-131785714D01*
X96585714Y-131857142D01*
X97871428Y-131857142D01*
X96442857Y-130500000D02*
X96371428Y-130642857D01*
X96371428Y-130928571D01*
X96442857Y-131071428D01*
X96585714Y-131142857D01*
X97157142Y-131142857D01*
X97300000Y-131071428D01*
X97371428Y-130928571D01*
X97371428Y-130642857D01*
X97300000Y-130500000D01*
X97157142Y-130428571D01*
X97014285Y-130428571D01*
X96871428Y-131142857D01*
X96442857Y-129142857D02*
X96371428Y-129285714D01*
X96371428Y-129571428D01*
X96442857Y-129714285D01*
X96514285Y-129785714D01*
X96657142Y-129857142D01*
X97085714Y-129857142D01*
X97228571Y-129785714D01*
X97300000Y-129714285D01*
X97371428Y-129571428D01*
X97371428Y-129285714D01*
X97300000Y-129142857D01*
X97371428Y-128714285D02*
X97371428Y-128142857D01*
X97871428Y-128500000D02*
X96585714Y-128500000D01*
X96442857Y-128428571D01*
X96371428Y-128285714D01*
X96371428Y-128142857D01*
X96371428Y-127642857D02*
X97371428Y-127642857D01*
X97085714Y-127642857D02*
X97228571Y-127571428D01*
X97300000Y-127500000D01*
X97371428Y-127357142D01*
X97371428Y-127214285D01*
X96371428Y-126500000D02*
X96442857Y-126642857D01*
X96514285Y-126714285D01*
X96657142Y-126785714D01*
X97085714Y-126785714D01*
X97228571Y-126714285D01*
X97300000Y-126642857D01*
X97371428Y-126500000D01*
X97371428Y-126285714D01*
X97300000Y-126142857D01*
X97228571Y-126071428D01*
X97085714Y-126000000D01*
X96657142Y-126000000D01*
X96514285Y-126071428D01*
X96442857Y-126142857D01*
X96371428Y-126285714D01*
X96371428Y-126500000D01*
X97371428Y-125357142D02*
X96371428Y-125357142D01*
X97228571Y-125357142D02*
X97300000Y-125285714D01*
X97371428Y-125142857D01*
X97371428Y-124928571D01*
X97300000Y-124785714D01*
X97157142Y-124714285D01*
X96371428Y-124714285D01*
X96371428Y-124000000D02*
X97371428Y-124000000D01*
X97871428Y-124000000D02*
X97800000Y-124071428D01*
X97728571Y-124000000D01*
X97800000Y-123928571D01*
X97871428Y-124000000D01*
X97728571Y-124000000D01*
X96442857Y-122642857D02*
X96371428Y-122785714D01*
X96371428Y-123071428D01*
X96442857Y-123214285D01*
X96514285Y-123285714D01*
X96657142Y-123357142D01*
X97085714Y-123357142D01*
X97228571Y-123285714D01*
X97300000Y-123214285D01*
X97371428Y-123071428D01*
X97371428Y-122785714D01*
X97300000Y-122642857D01*
X96442857Y-122071428D02*
X96371428Y-121928571D01*
X96371428Y-121642857D01*
X96442857Y-121500000D01*
X96585714Y-121428571D01*
X96657142Y-121428571D01*
X96800000Y-121500000D01*
X96871428Y-121642857D01*
X96871428Y-121857142D01*
X96942857Y-122000000D01*
X97085714Y-122071428D01*
X97157142Y-122071428D01*
X97300000Y-122000000D01*
X97371428Y-121857142D01*
X97371428Y-121642857D01*
X97300000Y-121500000D01*
X93821428Y-148785714D02*
X95321428Y-148785714D01*
X93821428Y-148142857D02*
X94607142Y-148142857D01*
X94750000Y-148214285D01*
X94821428Y-148357142D01*
X94821428Y-148571428D01*
X94750000Y-148714285D01*
X94678571Y-148785714D01*
X94821428Y-147642857D02*
X94821428Y-147071428D01*
X95321428Y-147428571D02*
X94035714Y-147428571D01*
X93892857Y-147357142D01*
X93821428Y-147214285D01*
X93821428Y-147071428D01*
X94821428Y-146785714D02*
X94821428Y-146214285D01*
X95321428Y-146571428D02*
X94035714Y-146571428D01*
X93892857Y-146500000D01*
X93821428Y-146357142D01*
X93821428Y-146214285D01*
X94821428Y-145714285D02*
X93321428Y-145714285D01*
X94750000Y-145714285D02*
X94821428Y-145571428D01*
X94821428Y-145285714D01*
X94750000Y-145142857D01*
X94678571Y-145071428D01*
X94535714Y-145000000D01*
X94107142Y-145000000D01*
X93964285Y-145071428D01*
X93892857Y-145142857D01*
X93821428Y-145285714D01*
X93821428Y-145571428D01*
X93892857Y-145714285D01*
X93964285Y-144357142D02*
X93892857Y-144285714D01*
X93821428Y-144357142D01*
X93892857Y-144428571D01*
X93964285Y-144357142D01*
X93821428Y-144357142D01*
X94750000Y-144357142D02*
X94678571Y-144285714D01*
X94607142Y-144357142D01*
X94678571Y-144428571D01*
X94750000Y-144357142D01*
X94607142Y-144357142D01*
X95392857Y-142571428D02*
X93464285Y-143857142D01*
X95392857Y-141000000D02*
X93464285Y-142285714D01*
X94821428Y-140642857D02*
X93821428Y-140357142D01*
X94535714Y-140071428D01*
X93821428Y-139785714D01*
X94821428Y-139500000D01*
X93892857Y-138357142D02*
X93821428Y-138500000D01*
X93821428Y-138785714D01*
X93892857Y-138928571D01*
X94035714Y-139000000D01*
X94607142Y-139000000D01*
X94750000Y-138928571D01*
X94821428Y-138785714D01*
X94821428Y-138500000D01*
X94750000Y-138357142D01*
X94607142Y-138285714D01*
X94464285Y-138285714D01*
X94321428Y-139000000D01*
X93821428Y-137642857D02*
X94821428Y-137642857D01*
X94678571Y-137642857D02*
X94750000Y-137571428D01*
X94821428Y-137428571D01*
X94821428Y-137214285D01*
X94750000Y-137071428D01*
X94607142Y-137000000D01*
X93821428Y-137000000D01*
X94607142Y-137000000D02*
X94750000Y-136928571D01*
X94821428Y-136785714D01*
X94821428Y-136571428D01*
X94750000Y-136428571D01*
X94607142Y-136357142D01*
X93821428Y-136357142D01*
X93821428Y-135000000D02*
X94607142Y-135000000D01*
X94750000Y-135071428D01*
X94821428Y-135214285D01*
X94821428Y-135500000D01*
X94750000Y-135642857D01*
X93892857Y-135000000D02*
X93821428Y-135142857D01*
X93821428Y-135500000D01*
X93892857Y-135642857D01*
X94035714Y-135714285D01*
X94178571Y-135714285D01*
X94321428Y-135642857D01*
X94392857Y-135500000D01*
X94392857Y-135142857D01*
X94464285Y-135000000D01*
X93821428Y-134285714D02*
X95321428Y-134285714D01*
X94392857Y-134142857D02*
X93821428Y-133714285D01*
X94821428Y-133714285D02*
X94250000Y-134285714D01*
X93892857Y-132500000D02*
X93821428Y-132642857D01*
X93821428Y-132928571D01*
X93892857Y-133071428D01*
X94035714Y-133142857D01*
X94607142Y-133142857D01*
X94750000Y-133071428D01*
X94821428Y-132928571D01*
X94821428Y-132642857D01*
X94750000Y-132500000D01*
X94607142Y-132428571D01*
X94464285Y-132428571D01*
X94321428Y-133142857D01*
X94821428Y-132000000D02*
X94821428Y-131428571D01*
X95321428Y-131785714D02*
X94035714Y-131785714D01*
X93892857Y-131714285D01*
X93821428Y-131571428D01*
X93821428Y-131428571D01*
X93821428Y-130928571D02*
X95321428Y-130928571D01*
X93821428Y-130285714D02*
X94607142Y-130285714D01*
X94750000Y-130357142D01*
X94821428Y-130500000D01*
X94821428Y-130714285D01*
X94750000Y-130857142D01*
X94678571Y-130928571D01*
X93821428Y-129571428D02*
X94821428Y-129571428D01*
X95321428Y-129571428D02*
X95250000Y-129642857D01*
X95178571Y-129571428D01*
X95250000Y-129500000D01*
X95321428Y-129571428D01*
X95178571Y-129571428D01*
X94821428Y-128857142D02*
X93821428Y-128857142D01*
X94678571Y-128857142D02*
X94750000Y-128785714D01*
X94821428Y-128642857D01*
X94821428Y-128428571D01*
X94750000Y-128285714D01*
X94607142Y-128214285D01*
X93821428Y-128214285D01*
X94821428Y-126857142D02*
X93607142Y-126857142D01*
X93464285Y-126928571D01*
X93392857Y-127000000D01*
X93321428Y-127142857D01*
X93321428Y-127357142D01*
X93392857Y-127500000D01*
X93892857Y-126857142D02*
X93821428Y-127000000D01*
X93821428Y-127285714D01*
X93892857Y-127428571D01*
X93964285Y-127500000D01*
X94107142Y-127571428D01*
X94535714Y-127571428D01*
X94678571Y-127500000D01*
X94750000Y-127428571D01*
X94821428Y-127285714D01*
X94821428Y-127000000D01*
X94750000Y-126857142D01*
X93892857Y-126214285D02*
X93821428Y-126071428D01*
X93821428Y-125785714D01*
X93892857Y-125642857D01*
X94035714Y-125571428D01*
X94107142Y-125571428D01*
X94250000Y-125642857D01*
X94321428Y-125785714D01*
X94321428Y-126000000D01*
X94392857Y-126142857D01*
X94535714Y-126214285D01*
X94607142Y-126214285D01*
X94750000Y-126142857D01*
X94821428Y-126000000D01*
X94821428Y-125785714D01*
X94750000Y-125642857D01*
X93964285Y-124928571D02*
X93892857Y-124857142D01*
X93821428Y-124928571D01*
X93892857Y-125000000D01*
X93964285Y-124928571D01*
X93821428Y-124928571D01*
X94821428Y-124214285D02*
X93821428Y-124214285D01*
X94678571Y-124214285D02*
X94750000Y-124142857D01*
X94821428Y-124000000D01*
X94821428Y-123785714D01*
X94750000Y-123642857D01*
X94607142Y-123571428D01*
X93821428Y-123571428D01*
X93892857Y-122285714D02*
X93821428Y-122428571D01*
X93821428Y-122714285D01*
X93892857Y-122857142D01*
X94035714Y-122928571D01*
X94607142Y-122928571D01*
X94750000Y-122857142D01*
X94821428Y-122714285D01*
X94821428Y-122428571D01*
X94750000Y-122285714D01*
X94607142Y-122214285D01*
X94464285Y-122214285D01*
X94321428Y-122928571D01*
X94821428Y-121785714D02*
X94821428Y-121214285D01*
X95321428Y-121571428D02*
X94035714Y-121571428D01*
X93892857Y-121500000D01*
X93821428Y-121357142D01*
X93821428Y-121214285D01*
X95392857Y-119642857D02*
X93464285Y-120928571D01*
X93892857Y-118500000D02*
X93821428Y-118642857D01*
X93821428Y-118928571D01*
X93892857Y-119071428D01*
X93964285Y-119142857D01*
X94107142Y-119214285D01*
X94535714Y-119214285D01*
X94678571Y-119142857D01*
X94750000Y-119071428D01*
X94821428Y-118928571D01*
X94821428Y-118642857D01*
X94750000Y-118500000D01*
X93821428Y-117857142D02*
X95321428Y-117857142D01*
X93821428Y-117214285D02*
X94607142Y-117214285D01*
X94750000Y-117285714D01*
X94821428Y-117428571D01*
X94821428Y-117642857D01*
X94750000Y-117785714D01*
X94678571Y-117857142D01*
X93821428Y-116500000D02*
X94821428Y-116500000D01*
X95321428Y-116500000D02*
X95250000Y-116571428D01*
X95178571Y-116500000D01*
X95250000Y-116428571D01*
X95321428Y-116500000D01*
X95178571Y-116500000D01*
X93821428Y-115785714D02*
X94821428Y-115785714D01*
X94535714Y-115785714D02*
X94678571Y-115714285D01*
X94750000Y-115642857D01*
X94821428Y-115500000D01*
X94821428Y-115357142D01*
X94821428Y-114857142D02*
X93321428Y-114857142D01*
X94750000Y-114857142D02*
X94821428Y-114714285D01*
X94821428Y-114428571D01*
X94750000Y-114285714D01*
X94678571Y-114214285D01*
X94535714Y-114142857D01*
X94107142Y-114142857D01*
X93964285Y-114214285D01*
X93892857Y-114285714D01*
X93821428Y-114428571D01*
X93821428Y-114714285D01*
X93892857Y-114857142D01*
X91271428Y-144000000D02*
X92271428Y-144000000D01*
X92128571Y-144000000D02*
X92200000Y-143928571D01*
X92271428Y-143785714D01*
X92271428Y-143571428D01*
X92200000Y-143428571D01*
X92057142Y-143357142D01*
X91271428Y-143357142D01*
X92057142Y-143357142D02*
X92200000Y-143285714D01*
X92271428Y-143142857D01*
X92271428Y-142928571D01*
X92200000Y-142785714D01*
X92057142Y-142714285D01*
X91271428Y-142714285D01*
X91271428Y-142000000D02*
X92271428Y-142000000D01*
X92771428Y-142000000D02*
X92700000Y-142071428D01*
X92628571Y-142000000D01*
X92700000Y-141928571D01*
X92771428Y-142000000D01*
X92628571Y-142000000D01*
X91342857Y-140642857D02*
X91271428Y-140785714D01*
X91271428Y-141071428D01*
X91342857Y-141214285D01*
X91414285Y-141285714D01*
X91557142Y-141357142D01*
X91985714Y-141357142D01*
X92128571Y-141285714D01*
X92200000Y-141214285D01*
X92271428Y-141071428D01*
X92271428Y-140785714D01*
X92200000Y-140642857D01*
X91985714Y-139071428D02*
X92057142Y-139142857D01*
X92128571Y-139285714D01*
X92128571Y-139428571D01*
X92057142Y-139571428D01*
X91985714Y-139642857D01*
X91842857Y-139714285D01*
X91700000Y-139714285D01*
X91557142Y-139642857D01*
X91485714Y-139571428D01*
X91414285Y-139428571D01*
X91414285Y-139285714D01*
X91485714Y-139142857D01*
X91557142Y-139071428D01*
X92128571Y-139071428D02*
X91557142Y-139071428D01*
X91485714Y-139000000D01*
X91485714Y-138928571D01*
X91557142Y-138785714D01*
X91700000Y-138714285D01*
X92057142Y-138714285D01*
X92271428Y-138857142D01*
X92414285Y-139071428D01*
X92485714Y-139357142D01*
X92414285Y-139642857D01*
X92271428Y-139857142D01*
X92057142Y-140000000D01*
X91771428Y-140071428D01*
X91485714Y-140000000D01*
X91271428Y-139857142D01*
X91128571Y-139642857D01*
X91057142Y-139357142D01*
X91128571Y-139071428D01*
X91271428Y-138857142D01*
X92271428Y-138214285D02*
X91271428Y-137928571D01*
X91985714Y-137642857D01*
X91271428Y-137357142D01*
X92271428Y-137071428D01*
X91342857Y-135928571D02*
X91271428Y-136071428D01*
X91271428Y-136357142D01*
X91342857Y-136500000D01*
X91485714Y-136571428D01*
X92057142Y-136571428D01*
X92200000Y-136500000D01*
X92271428Y-136357142D01*
X92271428Y-136071428D01*
X92200000Y-135928571D01*
X92057142Y-135857142D01*
X91914285Y-135857142D01*
X91771428Y-136571428D01*
X91271428Y-135214285D02*
X92271428Y-135214285D01*
X92128571Y-135214285D02*
X92200000Y-135142857D01*
X92271428Y-135000000D01*
X92271428Y-134785714D01*
X92200000Y-134642857D01*
X92057142Y-134571428D01*
X91271428Y-134571428D01*
X92057142Y-134571428D02*
X92200000Y-134500000D01*
X92271428Y-134357142D01*
X92271428Y-134142857D01*
X92200000Y-134000000D01*
X92057142Y-133928571D01*
X91271428Y-133928571D01*
X91271428Y-132571428D02*
X92057142Y-132571428D01*
X92200000Y-132642857D01*
X92271428Y-132785714D01*
X92271428Y-133071428D01*
X92200000Y-133214285D01*
X91342857Y-132571428D02*
X91271428Y-132714285D01*
X91271428Y-133071428D01*
X91342857Y-133214285D01*
X91485714Y-133285714D01*
X91628571Y-133285714D01*
X91771428Y-133214285D01*
X91842857Y-133071428D01*
X91842857Y-132714285D01*
X91914285Y-132571428D01*
X91271428Y-131857142D02*
X92771428Y-131857142D01*
X91842857Y-131714285D02*
X91271428Y-131285714D01*
X92271428Y-131285714D02*
X91700000Y-131857142D01*
X91342857Y-130071428D02*
X91271428Y-130214285D01*
X91271428Y-130500000D01*
X91342857Y-130642857D01*
X91485714Y-130714285D01*
X92057142Y-130714285D01*
X92200000Y-130642857D01*
X92271428Y-130500000D01*
X92271428Y-130214285D01*
X92200000Y-130071428D01*
X92057142Y-130000000D01*
X91914285Y-130000000D01*
X91771428Y-130714285D01*
X92271428Y-129571428D02*
X92271428Y-129000000D01*
X92771428Y-129357142D02*
X91485714Y-129357142D01*
X91342857Y-129285714D01*
X91271428Y-129142857D01*
X91271428Y-129000000D01*
X91271428Y-128500000D02*
X92771428Y-128500000D01*
X91271428Y-127857142D02*
X92057142Y-127857142D01*
X92200000Y-127928571D01*
X92271428Y-128071428D01*
X92271428Y-128285714D01*
X92200000Y-128428571D01*
X92128571Y-128500000D01*
X91271428Y-127142857D02*
X92271428Y-127142857D01*
X92771428Y-127142857D02*
X92700000Y-127214285D01*
X92628571Y-127142857D01*
X92700000Y-127071428D01*
X92771428Y-127142857D01*
X92628571Y-127142857D01*
X92271428Y-126428571D02*
X91271428Y-126428571D01*
X92128571Y-126428571D02*
X92200000Y-126357142D01*
X92271428Y-126214285D01*
X92271428Y-126000000D01*
X92200000Y-125857142D01*
X92057142Y-125785714D01*
X91271428Y-125785714D01*
X92271428Y-124428571D02*
X91057142Y-124428571D01*
X90914285Y-124500000D01*
X90842857Y-124571428D01*
X90771428Y-124714285D01*
X90771428Y-124928571D01*
X90842857Y-125071428D01*
X91342857Y-124428571D02*
X91271428Y-124571428D01*
X91271428Y-124857142D01*
X91342857Y-125000000D01*
X91414285Y-125071428D01*
X91557142Y-125142857D01*
X91985714Y-125142857D01*
X92128571Y-125071428D01*
X92200000Y-125000000D01*
X92271428Y-124857142D01*
X92271428Y-124571428D01*
X92200000Y-124428571D01*
X91342857Y-123785714D02*
X91271428Y-123642857D01*
X91271428Y-123357142D01*
X91342857Y-123214285D01*
X91485714Y-123142857D01*
X91557142Y-123142857D01*
X91700000Y-123214285D01*
X91771428Y-123357142D01*
X91771428Y-123571428D01*
X91842857Y-123714285D01*
X91985714Y-123785714D01*
X92057142Y-123785714D01*
X92200000Y-123714285D01*
X92271428Y-123571428D01*
X92271428Y-123357142D01*
X92200000Y-123214285D01*
X91414285Y-122500000D02*
X91342857Y-122428571D01*
X91271428Y-122500000D01*
X91342857Y-122571428D01*
X91414285Y-122500000D01*
X91271428Y-122500000D01*
X92271428Y-121785714D02*
X91271428Y-121785714D01*
X92128571Y-121785714D02*
X92200000Y-121714285D01*
X92271428Y-121571428D01*
X92271428Y-121357142D01*
X92200000Y-121214285D01*
X92057142Y-121142857D01*
X91271428Y-121142857D01*
X91342857Y-119857142D02*
X91271428Y-120000000D01*
X91271428Y-120285714D01*
X91342857Y-120428571D01*
X91485714Y-120500000D01*
X92057142Y-120500000D01*
X92200000Y-120428571D01*
X92271428Y-120285714D01*
X92271428Y-120000000D01*
X92200000Y-119857142D01*
X92057142Y-119785714D01*
X91914285Y-119785714D01*
X91771428Y-120500000D01*
X92271428Y-119357142D02*
X92271428Y-118785714D01*
X92771428Y-119142857D02*
X91485714Y-119142857D01*
X91342857Y-119071428D01*
X91271428Y-118928571D01*
X91271428Y-118785714D01*
D13*
X86000000Y-100000000D02*
X102000000Y-100000000D01*
D12*
X114514285Y-140642857D02*
X114442857Y-140714285D01*
X114371428Y-140928571D01*
X114371428Y-141071428D01*
X114442857Y-141285714D01*
X114585714Y-141428571D01*
X114728571Y-141500000D01*
X115014285Y-141571428D01*
X115228571Y-141571428D01*
X115514285Y-141500000D01*
X115657142Y-141428571D01*
X115800000Y-141285714D01*
X115871428Y-141071428D01*
X115871428Y-140928571D01*
X115800000Y-140714285D01*
X115728571Y-140642857D01*
X114371428Y-139357142D02*
X115157142Y-139357142D01*
X115300000Y-139428571D01*
X115371428Y-139571428D01*
X115371428Y-139857142D01*
X115300000Y-140000000D01*
X114442857Y-139357142D02*
X114371428Y-139500000D01*
X114371428Y-139857142D01*
X114442857Y-140000000D01*
X114585714Y-140071428D01*
X114728571Y-140071428D01*
X114871428Y-140000000D01*
X114942857Y-139857142D01*
X114942857Y-139500000D01*
X115014285Y-139357142D01*
X115371428Y-138857142D02*
X115371428Y-138285714D01*
X115871428Y-138642857D02*
X114585714Y-138642857D01*
X114442857Y-138571428D01*
X114371428Y-138428571D01*
X114371428Y-138285714D01*
X115371428Y-137785714D02*
X114371428Y-137785714D01*
X115228571Y-137785714D02*
X115300000Y-137714285D01*
X115371428Y-137571428D01*
X115371428Y-137357142D01*
X115300000Y-137214285D01*
X115157142Y-137142857D01*
X114371428Y-137142857D01*
X114371428Y-136428571D02*
X115371428Y-136428571D01*
X115871428Y-136428571D02*
X115800000Y-136500000D01*
X115728571Y-136428571D01*
X115800000Y-136357142D01*
X115871428Y-136428571D01*
X115728571Y-136428571D01*
X115371428Y-135714285D02*
X113871428Y-135714285D01*
X115300000Y-135714285D02*
X115371428Y-135571428D01*
X115371428Y-135285714D01*
X115300000Y-135142857D01*
X115228571Y-135071428D01*
X115085714Y-135000000D01*
X114657142Y-135000000D01*
X114514285Y-135071428D01*
X114442857Y-135142857D01*
X114371428Y-135285714D01*
X114371428Y-135571428D01*
X114442857Y-135714285D01*
X115157142Y-133214285D02*
X115157142Y-132714285D01*
X114371428Y-132500000D02*
X114371428Y-133214285D01*
X115871428Y-133214285D01*
X115871428Y-132500000D01*
X114371428Y-131642857D02*
X114442857Y-131785714D01*
X114585714Y-131857142D01*
X115871428Y-131857142D01*
X114442857Y-130500000D02*
X114371428Y-130642857D01*
X114371428Y-130928571D01*
X114442857Y-131071428D01*
X114585714Y-131142857D01*
X115157142Y-131142857D01*
X115300000Y-131071428D01*
X115371428Y-130928571D01*
X115371428Y-130642857D01*
X115300000Y-130500000D01*
X115157142Y-130428571D01*
X115014285Y-130428571D01*
X114871428Y-131142857D01*
X114442857Y-129142857D02*
X114371428Y-129285714D01*
X114371428Y-129571428D01*
X114442857Y-129714285D01*
X114514285Y-129785714D01*
X114657142Y-129857142D01*
X115085714Y-129857142D01*
X115228571Y-129785714D01*
X115300000Y-129714285D01*
X115371428Y-129571428D01*
X115371428Y-129285714D01*
X115300000Y-129142857D01*
X115371428Y-128714285D02*
X115371428Y-128142857D01*
X115871428Y-128500000D02*
X114585714Y-128500000D01*
X114442857Y-128428571D01*
X114371428Y-128285714D01*
X114371428Y-128142857D01*
X114371428Y-127642857D02*
X115371428Y-127642857D01*
X115085714Y-127642857D02*
X115228571Y-127571428D01*
X115300000Y-127500000D01*
X115371428Y-127357142D01*
X115371428Y-127214285D01*
X114371428Y-126500000D02*
X114442857Y-126642857D01*
X114514285Y-126714285D01*
X114657142Y-126785714D01*
X115085714Y-126785714D01*
X115228571Y-126714285D01*
X115300000Y-126642857D01*
X115371428Y-126500000D01*
X115371428Y-126285714D01*
X115300000Y-126142857D01*
X115228571Y-126071428D01*
X115085714Y-126000000D01*
X114657142Y-126000000D01*
X114514285Y-126071428D01*
X114442857Y-126142857D01*
X114371428Y-126285714D01*
X114371428Y-126500000D01*
X115371428Y-125357142D02*
X114371428Y-125357142D01*
X115228571Y-125357142D02*
X115300000Y-125285714D01*
X115371428Y-125142857D01*
X115371428Y-124928571D01*
X115300000Y-124785714D01*
X115157142Y-124714285D01*
X114371428Y-124714285D01*
X114371428Y-124000000D02*
X115371428Y-124000000D01*
X115871428Y-124000000D02*
X115800000Y-124071428D01*
X115728571Y-124000000D01*
X115800000Y-123928571D01*
X115871428Y-124000000D01*
X115728571Y-124000000D01*
X114442857Y-122642857D02*
X114371428Y-122785714D01*
X114371428Y-123071428D01*
X114442857Y-123214285D01*
X114514285Y-123285714D01*
X114657142Y-123357142D01*
X115085714Y-123357142D01*
X115228571Y-123285714D01*
X115300000Y-123214285D01*
X115371428Y-123071428D01*
X115371428Y-122785714D01*
X115300000Y-122642857D01*
X114442857Y-122071428D02*
X114371428Y-121928571D01*
X114371428Y-121642857D01*
X114442857Y-121500000D01*
X114585714Y-121428571D01*
X114657142Y-121428571D01*
X114800000Y-121500000D01*
X114871428Y-121642857D01*
X114871428Y-121857142D01*
X114942857Y-122000000D01*
X115085714Y-122071428D01*
X115157142Y-122071428D01*
X115300000Y-122000000D01*
X115371428Y-121857142D01*
X115371428Y-121642857D01*
X115300000Y-121500000D01*
X111821428Y-148785714D02*
X113321428Y-148785714D01*
X111821428Y-148142857D02*
X112607142Y-148142857D01*
X112750000Y-148214285D01*
X112821428Y-148357142D01*
X112821428Y-148571428D01*
X112750000Y-148714285D01*
X112678571Y-148785714D01*
X112821428Y-147642857D02*
X112821428Y-147071428D01*
X113321428Y-147428571D02*
X112035714Y-147428571D01*
X111892857Y-147357142D01*
X111821428Y-147214285D01*
X111821428Y-147071428D01*
X112821428Y-146785714D02*
X112821428Y-146214285D01*
X113321428Y-146571428D02*
X112035714Y-146571428D01*
X111892857Y-146500000D01*
X111821428Y-146357142D01*
X111821428Y-146214285D01*
X112821428Y-145714285D02*
X111321428Y-145714285D01*
X112750000Y-145714285D02*
X112821428Y-145571428D01*
X112821428Y-145285714D01*
X112750000Y-145142857D01*
X112678571Y-145071428D01*
X112535714Y-145000000D01*
X112107142Y-145000000D01*
X111964285Y-145071428D01*
X111892857Y-145142857D01*
X111821428Y-145285714D01*
X111821428Y-145571428D01*
X111892857Y-145714285D01*
X111964285Y-144357142D02*
X111892857Y-144285714D01*
X111821428Y-144357142D01*
X111892857Y-144428571D01*
X111964285Y-144357142D01*
X111821428Y-144357142D01*
X112750000Y-144357142D02*
X112678571Y-144285714D01*
X112607142Y-144357142D01*
X112678571Y-144428571D01*
X112750000Y-144357142D01*
X112607142Y-144357142D01*
X113392857Y-142571428D02*
X111464285Y-143857142D01*
X113392857Y-141000000D02*
X111464285Y-142285714D01*
X112821428Y-140642857D02*
X111821428Y-140357142D01*
X112535714Y-140071428D01*
X111821428Y-139785714D01*
X112821428Y-139500000D01*
X111892857Y-138357142D02*
X111821428Y-138500000D01*
X111821428Y-138785714D01*
X111892857Y-138928571D01*
X112035714Y-139000000D01*
X112607142Y-139000000D01*
X112750000Y-138928571D01*
X112821428Y-138785714D01*
X112821428Y-138500000D01*
X112750000Y-138357142D01*
X112607142Y-138285714D01*
X112464285Y-138285714D01*
X112321428Y-139000000D01*
X111821428Y-137642857D02*
X112821428Y-137642857D01*
X112678571Y-137642857D02*
X112750000Y-137571428D01*
X112821428Y-137428571D01*
X112821428Y-137214285D01*
X112750000Y-137071428D01*
X112607142Y-137000000D01*
X111821428Y-137000000D01*
X112607142Y-137000000D02*
X112750000Y-136928571D01*
X112821428Y-136785714D01*
X112821428Y-136571428D01*
X112750000Y-136428571D01*
X112607142Y-136357142D01*
X111821428Y-136357142D01*
X111821428Y-135000000D02*
X112607142Y-135000000D01*
X112750000Y-135071428D01*
X112821428Y-135214285D01*
X112821428Y-135500000D01*
X112750000Y-135642857D01*
X111892857Y-135000000D02*
X111821428Y-135142857D01*
X111821428Y-135500000D01*
X111892857Y-135642857D01*
X112035714Y-135714285D01*
X112178571Y-135714285D01*
X112321428Y-135642857D01*
X112392857Y-135500000D01*
X112392857Y-135142857D01*
X112464285Y-135000000D01*
X111821428Y-134285714D02*
X113321428Y-134285714D01*
X112392857Y-134142857D02*
X111821428Y-133714285D01*
X112821428Y-133714285D02*
X112250000Y-134285714D01*
X111892857Y-132500000D02*
X111821428Y-132642857D01*
X111821428Y-132928571D01*
X111892857Y-133071428D01*
X112035714Y-133142857D01*
X112607142Y-133142857D01*
X112750000Y-133071428D01*
X112821428Y-132928571D01*
X112821428Y-132642857D01*
X112750000Y-132500000D01*
X112607142Y-132428571D01*
X112464285Y-132428571D01*
X112321428Y-133142857D01*
X112821428Y-132000000D02*
X112821428Y-131428571D01*
X113321428Y-131785714D02*
X112035714Y-131785714D01*
X111892857Y-131714285D01*
X111821428Y-131571428D01*
X111821428Y-131428571D01*
X111821428Y-130928571D02*
X113321428Y-130928571D01*
X111821428Y-130285714D02*
X112607142Y-130285714D01*
X112750000Y-130357142D01*
X112821428Y-130500000D01*
X112821428Y-130714285D01*
X112750000Y-130857142D01*
X112678571Y-130928571D01*
X111821428Y-129571428D02*
X112821428Y-129571428D01*
X113321428Y-129571428D02*
X113250000Y-129642857D01*
X113178571Y-129571428D01*
X113250000Y-129500000D01*
X113321428Y-129571428D01*
X113178571Y-129571428D01*
X112821428Y-128857142D02*
X111821428Y-128857142D01*
X112678571Y-128857142D02*
X112750000Y-128785714D01*
X112821428Y-128642857D01*
X112821428Y-128428571D01*
X112750000Y-128285714D01*
X112607142Y-128214285D01*
X111821428Y-128214285D01*
X112821428Y-126857142D02*
X111607142Y-126857142D01*
X111464285Y-126928571D01*
X111392857Y-127000000D01*
X111321428Y-127142857D01*
X111321428Y-127357142D01*
X111392857Y-127500000D01*
X111892857Y-126857142D02*
X111821428Y-127000000D01*
X111821428Y-127285714D01*
X111892857Y-127428571D01*
X111964285Y-127500000D01*
X112107142Y-127571428D01*
X112535714Y-127571428D01*
X112678571Y-127500000D01*
X112750000Y-127428571D01*
X112821428Y-127285714D01*
X112821428Y-127000000D01*
X112750000Y-126857142D01*
X111892857Y-126214285D02*
X111821428Y-126071428D01*
X111821428Y-125785714D01*
X111892857Y-125642857D01*
X112035714Y-125571428D01*
X112107142Y-125571428D01*
X112250000Y-125642857D01*
X112321428Y-125785714D01*
X112321428Y-126000000D01*
X112392857Y-126142857D01*
X112535714Y-126214285D01*
X112607142Y-126214285D01*
X112750000Y-126142857D01*
X112821428Y-126000000D01*
X112821428Y-125785714D01*
X112750000Y-125642857D01*
X111964285Y-124928571D02*
X111892857Y-124857142D01*
X111821428Y-124928571D01*
X111892857Y-125000000D01*
X111964285Y-124928571D01*
X111821428Y-124928571D01*
X112821428Y-124214285D02*
X111821428Y-124214285D01*
X112678571Y-124214285D02*
X112750000Y-124142857D01*
X112821428Y-124000000D01*
X112821428Y-123785714D01*
X112750000Y-123642857D01*
X112607142Y-123571428D01*
X111821428Y-123571428D01*
X111892857Y-122285714D02*
X111821428Y-122428571D01*
X111821428Y-122714285D01*
X111892857Y-122857142D01*
X112035714Y-122928571D01*
X112607142Y-122928571D01*
X112750000Y-122857142D01*
X112821428Y-122714285D01*
X112821428Y-122428571D01*
X112750000Y-122285714D01*
X112607142Y-122214285D01*
X112464285Y-122214285D01*
X112321428Y-122928571D01*
X112821428Y-121785714D02*
X112821428Y-121214285D01*
X113321428Y-121571428D02*
X112035714Y-121571428D01*
X111892857Y-121500000D01*
X111821428Y-121357142D01*
X111821428Y-121214285D01*
X113392857Y-119642857D02*
X111464285Y-120928571D01*
X111892857Y-118500000D02*
X111821428Y-118642857D01*
X111821428Y-118928571D01*
X111892857Y-119071428D01*
X111964285Y-119142857D01*
X112107142Y-119214285D01*
X112535714Y-119214285D01*
X112678571Y-119142857D01*
X112750000Y-119071428D01*
X112821428Y-118928571D01*
X112821428Y-118642857D01*
X112750000Y-118500000D01*
X111821428Y-117857142D02*
X113321428Y-117857142D01*
X111821428Y-117214285D02*
X112607142Y-117214285D01*
X112750000Y-117285714D01*
X112821428Y-117428571D01*
X112821428Y-117642857D01*
X112750000Y-117785714D01*
X112678571Y-117857142D01*
X111821428Y-116500000D02*
X112821428Y-116500000D01*
X113321428Y-116500000D02*
X113250000Y-116571428D01*
X113178571Y-116500000D01*
X113250000Y-116428571D01*
X113321428Y-116500000D01*
X113178571Y-116500000D01*
X111821428Y-115785714D02*
X112821428Y-115785714D01*
X112535714Y-115785714D02*
X112678571Y-115714285D01*
X112750000Y-115642857D01*
X112821428Y-115500000D01*
X112821428Y-115357142D01*
X112821428Y-114857142D02*
X111321428Y-114857142D01*
X112750000Y-114857142D02*
X112821428Y-114714285D01*
X112821428Y-114428571D01*
X112750000Y-114285714D01*
X112678571Y-114214285D01*
X112535714Y-114142857D01*
X112107142Y-114142857D01*
X111964285Y-114214285D01*
X111892857Y-114285714D01*
X111821428Y-114428571D01*
X111821428Y-114714285D01*
X111892857Y-114857142D01*
X109271428Y-144000000D02*
X110271428Y-144000000D01*
X110128571Y-144000000D02*
X110200000Y-143928571D01*
X110271428Y-143785714D01*
X110271428Y-143571428D01*
X110200000Y-143428571D01*
X110057142Y-143357142D01*
X109271428Y-143357142D01*
X110057142Y-143357142D02*
X110200000Y-143285714D01*
X110271428Y-143142857D01*
X110271428Y-142928571D01*
X110200000Y-142785714D01*
X110057142Y-142714285D01*
X109271428Y-142714285D01*
X109271428Y-142000000D02*
X110271428Y-142000000D01*
X110771428Y-142000000D02*
X110700000Y-142071428D01*
X110628571Y-142000000D01*
X110700000Y-141928571D01*
X110771428Y-142000000D01*
X110628571Y-142000000D01*
X109342857Y-140642857D02*
X109271428Y-140785714D01*
X109271428Y-141071428D01*
X109342857Y-141214285D01*
X109414285Y-141285714D01*
X109557142Y-141357142D01*
X109985714Y-141357142D01*
X110128571Y-141285714D01*
X110200000Y-141214285D01*
X110271428Y-141071428D01*
X110271428Y-140785714D01*
X110200000Y-140642857D01*
X109985714Y-139071428D02*
X110057142Y-139142857D01*
X110128571Y-139285714D01*
X110128571Y-139428571D01*
X110057142Y-139571428D01*
X109985714Y-139642857D01*
X109842857Y-139714285D01*
X109700000Y-139714285D01*
X109557142Y-139642857D01*
X109485714Y-139571428D01*
X109414285Y-139428571D01*
X109414285Y-139285714D01*
X109485714Y-139142857D01*
X109557142Y-139071428D01*
X110128571Y-139071428D02*
X109557142Y-139071428D01*
X109485714Y-139000000D01*
X109485714Y-138928571D01*
X109557142Y-138785714D01*
X109700000Y-138714285D01*
X110057142Y-138714285D01*
X110271428Y-138857142D01*
X110414285Y-139071428D01*
X110485714Y-139357142D01*
X110414285Y-139642857D01*
X110271428Y-139857142D01*
X110057142Y-140000000D01*
X109771428Y-140071428D01*
X109485714Y-140000000D01*
X109271428Y-139857142D01*
X109128571Y-139642857D01*
X109057142Y-139357142D01*
X109128571Y-139071428D01*
X109271428Y-138857142D01*
X110271428Y-138214285D02*
X109271428Y-137928571D01*
X109985714Y-137642857D01*
X109271428Y-137357142D01*
X110271428Y-137071428D01*
X109342857Y-135928571D02*
X109271428Y-136071428D01*
X109271428Y-136357142D01*
X109342857Y-136500000D01*
X109485714Y-136571428D01*
X110057142Y-136571428D01*
X110200000Y-136500000D01*
X110271428Y-136357142D01*
X110271428Y-136071428D01*
X110200000Y-135928571D01*
X110057142Y-135857142D01*
X109914285Y-135857142D01*
X109771428Y-136571428D01*
X109271428Y-135214285D02*
X110271428Y-135214285D01*
X110128571Y-135214285D02*
X110200000Y-135142857D01*
X110271428Y-135000000D01*
X110271428Y-134785714D01*
X110200000Y-134642857D01*
X110057142Y-134571428D01*
X109271428Y-134571428D01*
X110057142Y-134571428D02*
X110200000Y-134500000D01*
X110271428Y-134357142D01*
X110271428Y-134142857D01*
X110200000Y-134000000D01*
X110057142Y-133928571D01*
X109271428Y-133928571D01*
X109271428Y-132571428D02*
X110057142Y-132571428D01*
X110200000Y-132642857D01*
X110271428Y-132785714D01*
X110271428Y-133071428D01*
X110200000Y-133214285D01*
X109342857Y-132571428D02*
X109271428Y-132714285D01*
X109271428Y-133071428D01*
X109342857Y-133214285D01*
X109485714Y-133285714D01*
X109628571Y-133285714D01*
X109771428Y-133214285D01*
X109842857Y-133071428D01*
X109842857Y-132714285D01*
X109914285Y-132571428D01*
X109271428Y-131857142D02*
X110771428Y-131857142D01*
X109842857Y-131714285D02*
X109271428Y-131285714D01*
X110271428Y-131285714D02*
X109700000Y-131857142D01*
X109342857Y-130071428D02*
X109271428Y-130214285D01*
X109271428Y-130500000D01*
X109342857Y-130642857D01*
X109485714Y-130714285D01*
X110057142Y-130714285D01*
X110200000Y-130642857D01*
X110271428Y-130500000D01*
X110271428Y-130214285D01*
X110200000Y-130071428D01*
X110057142Y-130000000D01*
X109914285Y-130000000D01*
X109771428Y-130714285D01*
X110271428Y-129571428D02*
X110271428Y-129000000D01*
X110771428Y-129357142D02*
X109485714Y-129357142D01*
X109342857Y-129285714D01*
X109271428Y-129142857D01*
X109271428Y-129000000D01*
X109271428Y-128500000D02*
X110771428Y-128500000D01*
X109271428Y-127857142D02*
X110057142Y-127857142D01*
X110200000Y-127928571D01*
X110271428Y-128071428D01*
X110271428Y-128285714D01*
X110200000Y-128428571D01*
X110128571Y-128500000D01*
X109271428Y-127142857D02*
X110271428Y-127142857D01*
X110771428Y-127142857D02*
X110700000Y-127214285D01*
X110628571Y-127142857D01*
X110700000Y-127071428D01*
X110771428Y-127142857D01*
X110628571Y-127142857D01*
X110271428Y-126428571D02*
X109271428Y-126428571D01*
X110128571Y-126428571D02*
X110200000Y-126357142D01*
X110271428Y-126214285D01*
X110271428Y-126000000D01*
X110200000Y-125857142D01*
X110057142Y-125785714D01*
X109271428Y-125785714D01*
X110271428Y-124428571D02*
X109057142Y-124428571D01*
X108914285Y-124500000D01*
X108842857Y-124571428D01*
X108771428Y-124714285D01*
X108771428Y-124928571D01*
X108842857Y-125071428D01*
X109342857Y-124428571D02*
X109271428Y-124571428D01*
X109271428Y-124857142D01*
X109342857Y-125000000D01*
X109414285Y-125071428D01*
X109557142Y-125142857D01*
X109985714Y-125142857D01*
X110128571Y-125071428D01*
X110200000Y-125000000D01*
X110271428Y-124857142D01*
X110271428Y-124571428D01*
X110200000Y-124428571D01*
X109342857Y-123785714D02*
X109271428Y-123642857D01*
X109271428Y-123357142D01*
X109342857Y-123214285D01*
X109485714Y-123142857D01*
X109557142Y-123142857D01*
X109700000Y-123214285D01*
X109771428Y-123357142D01*
X109771428Y-123571428D01*
X109842857Y-123714285D01*
X109985714Y-123785714D01*
X110057142Y-123785714D01*
X110200000Y-123714285D01*
X110271428Y-123571428D01*
X110271428Y-123357142D01*
X110200000Y-123214285D01*
X109414285Y-122500000D02*
X109342857Y-122428571D01*
X109271428Y-122500000D01*
X109342857Y-122571428D01*
X109414285Y-122500000D01*
X109271428Y-122500000D01*
X110271428Y-121785714D02*
X109271428Y-121785714D01*
X110128571Y-121785714D02*
X110200000Y-121714285D01*
X110271428Y-121571428D01*
X110271428Y-121357142D01*
X110200000Y-121214285D01*
X110057142Y-121142857D01*
X109271428Y-121142857D01*
X109342857Y-119857142D02*
X109271428Y-120000000D01*
X109271428Y-120285714D01*
X109342857Y-120428571D01*
X109485714Y-120500000D01*
X110057142Y-120500000D01*
X110200000Y-120428571D01*
X110271428Y-120285714D01*
X110271428Y-120000000D01*
X110200000Y-119857142D01*
X110057142Y-119785714D01*
X109914285Y-119785714D01*
X109771428Y-120500000D01*
X110271428Y-119357142D02*
X110271428Y-118785714D01*
X110771428Y-119142857D02*
X109485714Y-119142857D01*
X109342857Y-119071428D01*
X109271428Y-118928571D01*
X109271428Y-118785714D01*
D13*
X104000000Y-100000000D02*
X120000000Y-100000000D01*
D12*
X132514285Y-140642857D02*
X132442857Y-140714285D01*
X132371428Y-140928571D01*
X132371428Y-141071428D01*
X132442857Y-141285714D01*
X132585714Y-141428571D01*
X132728571Y-141500000D01*
X133014285Y-141571428D01*
X133228571Y-141571428D01*
X133514285Y-141500000D01*
X133657142Y-141428571D01*
X133800000Y-141285714D01*
X133871428Y-141071428D01*
X133871428Y-140928571D01*
X133800000Y-140714285D01*
X133728571Y-140642857D01*
X132371428Y-139357142D02*
X133157142Y-139357142D01*
X133300000Y-139428571D01*
X133371428Y-139571428D01*
X133371428Y-139857142D01*
X133300000Y-140000000D01*
X132442857Y-139357142D02*
X132371428Y-139500000D01*
X132371428Y-139857142D01*
X132442857Y-140000000D01*
X132585714Y-140071428D01*
X132728571Y-140071428D01*
X132871428Y-140000000D01*
X132942857Y-139857142D01*
X132942857Y-139500000D01*
X133014285Y-139357142D01*
X133371428Y-138857142D02*
X133371428Y-138285714D01*
X133871428Y-138642857D02*
X132585714Y-138642857D01*
X132442857Y-138571428D01*
X132371428Y-138428571D01*
X132371428Y-138285714D01*
X133371428Y-137785714D02*
X132371428Y-137785714D01*
X133228571Y-137785714D02*
X133300000Y-137714285D01*
X133371428Y-137571428D01*
X133371428Y-137357142D01*
X133300000Y-137214285D01*
X133157142Y-137142857D01*
X132371428Y-137142857D01*
X132371428Y-136428571D02*
X133371428Y-136428571D01*
X133871428Y-136428571D02*
X133800000Y-136500000D01*
X133728571Y-136428571D01*
X133800000Y-136357142D01*
X133871428Y-136428571D01*
X133728571Y-136428571D01*
X133371428Y-135714285D02*
X131871428Y-135714285D01*
X133300000Y-135714285D02*
X133371428Y-135571428D01*
X133371428Y-135285714D01*
X133300000Y-135142857D01*
X133228571Y-135071428D01*
X133085714Y-135000000D01*
X132657142Y-135000000D01*
X132514285Y-135071428D01*
X132442857Y-135142857D01*
X132371428Y-135285714D01*
X132371428Y-135571428D01*
X132442857Y-135714285D01*
X133157142Y-133214285D02*
X133157142Y-132714285D01*
X132371428Y-132500000D02*
X132371428Y-133214285D01*
X133871428Y-133214285D01*
X133871428Y-132500000D01*
X132371428Y-131642857D02*
X132442857Y-131785714D01*
X132585714Y-131857142D01*
X133871428Y-131857142D01*
X132442857Y-130500000D02*
X132371428Y-130642857D01*
X132371428Y-130928571D01*
X132442857Y-131071428D01*
X132585714Y-131142857D01*
X133157142Y-131142857D01*
X133300000Y-131071428D01*
X133371428Y-130928571D01*
X133371428Y-130642857D01*
X133300000Y-130500000D01*
X133157142Y-130428571D01*
X133014285Y-130428571D01*
X132871428Y-131142857D01*
X132442857Y-129142857D02*
X132371428Y-129285714D01*
X132371428Y-129571428D01*
X132442857Y-129714285D01*
X132514285Y-129785714D01*
X132657142Y-129857142D01*
X133085714Y-129857142D01*
X133228571Y-129785714D01*
X133300000Y-129714285D01*
X133371428Y-129571428D01*
X133371428Y-129285714D01*
X133300000Y-129142857D01*
X133371428Y-128714285D02*
X133371428Y-128142857D01*
X133871428Y-128500000D02*
X132585714Y-128500000D01*
X132442857Y-128428571D01*
X132371428Y-128285714D01*
X132371428Y-128142857D01*
X132371428Y-127642857D02*
X133371428Y-127642857D01*
X133085714Y-127642857D02*
X133228571Y-127571428D01*
X133300000Y-127500000D01*
X133371428Y-127357142D01*
X133371428Y-127214285D01*
X132371428Y-126500000D02*
X132442857Y-126642857D01*
X132514285Y-126714285D01*
X132657142Y-126785714D01*
X133085714Y-126785714D01*
X133228571Y-126714285D01*
X133300000Y-126642857D01*
X133371428Y-126500000D01*
X133371428Y-126285714D01*
X133300000Y-126142857D01*
X133228571Y-126071428D01*
X133085714Y-126000000D01*
X132657142Y-126000000D01*
X132514285Y-126071428D01*
X132442857Y-126142857D01*
X132371428Y-126285714D01*
X132371428Y-126500000D01*
X133371428Y-125357142D02*
X132371428Y-125357142D01*
X133228571Y-125357142D02*
X133300000Y-125285714D01*
X133371428Y-125142857D01*
X133371428Y-124928571D01*
X133300000Y-124785714D01*
X133157142Y-124714285D01*
X132371428Y-124714285D01*
X132371428Y-124000000D02*
X133371428Y-124000000D01*
X133871428Y-124000000D02*
X133800000Y-124071428D01*
X133728571Y-124000000D01*
X133800000Y-123928571D01*
X133871428Y-124000000D01*
X133728571Y-124000000D01*
X132442857Y-122642857D02*
X132371428Y-122785714D01*
X132371428Y-123071428D01*
X132442857Y-123214285D01*
X132514285Y-123285714D01*
X132657142Y-123357142D01*
X133085714Y-123357142D01*
X133228571Y-123285714D01*
X133300000Y-123214285D01*
X133371428Y-123071428D01*
X133371428Y-122785714D01*
X133300000Y-122642857D01*
X132442857Y-122071428D02*
X132371428Y-121928571D01*
X132371428Y-121642857D01*
X132442857Y-121500000D01*
X132585714Y-121428571D01*
X132657142Y-121428571D01*
X132800000Y-121500000D01*
X132871428Y-121642857D01*
X132871428Y-121857142D01*
X132942857Y-122000000D01*
X133085714Y-122071428D01*
X133157142Y-122071428D01*
X133300000Y-122000000D01*
X133371428Y-121857142D01*
X133371428Y-121642857D01*
X133300000Y-121500000D01*
X129821428Y-148785714D02*
X131321428Y-148785714D01*
X129821428Y-148142857D02*
X130607142Y-148142857D01*
X130750000Y-148214285D01*
X130821428Y-148357142D01*
X130821428Y-148571428D01*
X130750000Y-148714285D01*
X130678571Y-148785714D01*
X130821428Y-147642857D02*
X130821428Y-147071428D01*
X131321428Y-147428571D02*
X130035714Y-147428571D01*
X129892857Y-147357142D01*
X129821428Y-147214285D01*
X129821428Y-147071428D01*
X130821428Y-146785714D02*
X130821428Y-146214285D01*
X131321428Y-146571428D02*
X130035714Y-146571428D01*
X129892857Y-146500000D01*
X129821428Y-146357142D01*
X129821428Y-146214285D01*
X130821428Y-145714285D02*
X129321428Y-145714285D01*
X130750000Y-145714285D02*
X130821428Y-145571428D01*
X130821428Y-145285714D01*
X130750000Y-145142857D01*
X130678571Y-145071428D01*
X130535714Y-145000000D01*
X130107142Y-145000000D01*
X129964285Y-145071428D01*
X129892857Y-145142857D01*
X129821428Y-145285714D01*
X129821428Y-145571428D01*
X129892857Y-145714285D01*
X129964285Y-144357142D02*
X129892857Y-144285714D01*
X129821428Y-144357142D01*
X129892857Y-144428571D01*
X129964285Y-144357142D01*
X129821428Y-144357142D01*
X130750000Y-144357142D02*
X130678571Y-144285714D01*
X130607142Y-144357142D01*
X130678571Y-144428571D01*
X130750000Y-144357142D01*
X130607142Y-144357142D01*
X131392857Y-142571428D02*
X129464285Y-143857142D01*
X131392857Y-141000000D02*
X129464285Y-142285714D01*
X130821428Y-140642857D02*
X129821428Y-140357142D01*
X130535714Y-140071428D01*
X129821428Y-139785714D01*
X130821428Y-139500000D01*
X129892857Y-138357142D02*
X129821428Y-138500000D01*
X129821428Y-138785714D01*
X129892857Y-138928571D01*
X130035714Y-139000000D01*
X130607142Y-139000000D01*
X130750000Y-138928571D01*
X130821428Y-138785714D01*
X130821428Y-138500000D01*
X130750000Y-138357142D01*
X130607142Y-138285714D01*
X130464285Y-138285714D01*
X130321428Y-139000000D01*
X129821428Y-137642857D02*
X130821428Y-137642857D01*
X130678571Y-137642857D02*
X130750000Y-137571428D01*
X130821428Y-137428571D01*
X130821428Y-137214285D01*
X130750000Y-137071428D01*
X130607142Y-137000000D01*
X129821428Y-137000000D01*
X130607142Y-137000000D02*
X130750000Y-136928571D01*
X130821428Y-136785714D01*
X130821428Y-136571428D01*
X130750000Y-136428571D01*
X130607142Y-136357142D01*
X129821428Y-136357142D01*
X129821428Y-135000000D02*
X130607142Y-135000000D01*
X130750000Y-135071428D01*
X130821428Y-135214285D01*
X130821428Y-135500000D01*
X130750000Y-135642857D01*
X129892857Y-135000000D02*
X129821428Y-135142857D01*
X129821428Y-135500000D01*
X129892857Y-135642857D01*
X130035714Y-135714285D01*
X130178571Y-135714285D01*
X130321428Y-135642857D01*
X130392857Y-135500000D01*
X130392857Y-135142857D01*
X130464285Y-135000000D01*
X129821428Y-134285714D02*
X131321428Y-134285714D01*
X130392857Y-134142857D02*
X129821428Y-133714285D01*
X130821428Y-133714285D02*
X130250000Y-134285714D01*
X129892857Y-132500000D02*
X129821428Y-132642857D01*
X129821428Y-132928571D01*
X129892857Y-133071428D01*
X130035714Y-133142857D01*
X130607142Y-133142857D01*
X130750000Y-133071428D01*
X130821428Y-132928571D01*
X130821428Y-132642857D01*
X130750000Y-132500000D01*
X130607142Y-132428571D01*
X130464285Y-132428571D01*
X130321428Y-133142857D01*
X130821428Y-132000000D02*
X130821428Y-131428571D01*
X131321428Y-131785714D02*
X130035714Y-131785714D01*
X129892857Y-131714285D01*
X129821428Y-131571428D01*
X129821428Y-131428571D01*
X129821428Y-130928571D02*
X131321428Y-130928571D01*
X129821428Y-130285714D02*
X130607142Y-130285714D01*
X130750000Y-130357142D01*
X130821428Y-130500000D01*
X130821428Y-130714285D01*
X130750000Y-130857142D01*
X130678571Y-130928571D01*
X129821428Y-129571428D02*
X130821428Y-129571428D01*
X131321428Y-129571428D02*
X131250000Y-129642857D01*
X131178571Y-129571428D01*
X131250000Y-129500000D01*
X131321428Y-129571428D01*
X131178571Y-129571428D01*
X130821428Y-128857142D02*
X129821428Y-128857142D01*
X130678571Y-128857142D02*
X130750000Y-128785714D01*
X130821428Y-128642857D01*
X130821428Y-128428571D01*
X130750000Y-128285714D01*
X130607142Y-128214285D01*
X129821428Y-128214285D01*
X130821428Y-126857142D02*
X129607142Y-126857142D01*
X129464285Y-126928571D01*
X129392857Y-127000000D01*
X129321428Y-127142857D01*
X129321428Y-127357142D01*
X129392857Y-127500000D01*
X129892857Y-126857142D02*
X129821428Y-127000000D01*
X129821428Y-127285714D01*
X129892857Y-127428571D01*
X129964285Y-127500000D01*
X130107142Y-127571428D01*
X130535714Y-127571428D01*
X130678571Y-127500000D01*
X130750000Y-127428571D01*
X130821428Y-127285714D01*
X130821428Y-127000000D01*
X130750000Y-126857142D01*
X129892857Y-126214285D02*
X129821428Y-126071428D01*
X129821428Y-125785714D01*
X129892857Y-125642857D01*
X130035714Y-125571428D01*
X130107142Y-125571428D01*
X130250000Y-125642857D01*
X130321428Y-125785714D01*
X130321428Y-126000000D01*
X130392857Y-126142857D01*
X130535714Y-126214285D01*
X130607142Y-126214285D01*
X130750000Y-126142857D01*
X130821428Y-126000000D01*
X130821428Y-125785714D01*
X130750000Y-125642857D01*
X129964285Y-124928571D02*
X129892857Y-124857142D01*
X129821428Y-124928571D01*
X129892857Y-125000000D01*
X129964285Y-124928571D01*
X129821428Y-124928571D01*
X130821428Y-124214285D02*
X129821428Y-124214285D01*
X130678571Y-124214285D02*
X130750000Y-124142857D01*
X130821428Y-124000000D01*
X130821428Y-123785714D01*
X130750000Y-123642857D01*
X130607142Y-123571428D01*
X129821428Y-123571428D01*
X129892857Y-122285714D02*
X129821428Y-122428571D01*
X129821428Y-122714285D01*
X129892857Y-122857142D01*
X130035714Y-122928571D01*
X130607142Y-122928571D01*
X130750000Y-122857142D01*
X130821428Y-122714285D01*
X130821428Y-122428571D01*
X130750000Y-122285714D01*
X130607142Y-122214285D01*
X130464285Y-122214285D01*
X130321428Y-122928571D01*
X130821428Y-121785714D02*
X130821428Y-121214285D01*
X131321428Y-121571428D02*
X130035714Y-121571428D01*
X129892857Y-121500000D01*
X129821428Y-121357142D01*
X129821428Y-121214285D01*
X131392857Y-119642857D02*
X129464285Y-120928571D01*
X129892857Y-118500000D02*
X129821428Y-118642857D01*
X129821428Y-118928571D01*
X129892857Y-119071428D01*
X129964285Y-119142857D01*
X130107142Y-119214285D01*
X130535714Y-119214285D01*
X130678571Y-119142857D01*
X130750000Y-119071428D01*
X130821428Y-118928571D01*
X130821428Y-118642857D01*
X130750000Y-118500000D01*
X129821428Y-117857142D02*
X131321428Y-117857142D01*
X129821428Y-117214285D02*
X130607142Y-117214285D01*
X130750000Y-117285714D01*
X130821428Y-117428571D01*
X130821428Y-117642857D01*
X130750000Y-117785714D01*
X130678571Y-117857142D01*
X129821428Y-116500000D02*
X130821428Y-116500000D01*
X131321428Y-116500000D02*
X131250000Y-116571428D01*
X131178571Y-116500000D01*
X131250000Y-116428571D01*
X131321428Y-116500000D01*
X131178571Y-116500000D01*
X129821428Y-115785714D02*
X130821428Y-115785714D01*
X130535714Y-115785714D02*
X130678571Y-115714285D01*
X130750000Y-115642857D01*
X130821428Y-115500000D01*
X130821428Y-115357142D01*
X130821428Y-114857142D02*
X129321428Y-114857142D01*
X130750000Y-114857142D02*
X130821428Y-114714285D01*
X130821428Y-114428571D01*
X130750000Y-114285714D01*
X130678571Y-114214285D01*
X130535714Y-114142857D01*
X130107142Y-114142857D01*
X129964285Y-114214285D01*
X129892857Y-114285714D01*
X129821428Y-114428571D01*
X129821428Y-114714285D01*
X129892857Y-114857142D01*
X127271428Y-144000000D02*
X128271428Y-144000000D01*
X128128571Y-144000000D02*
X128200000Y-143928571D01*
X128271428Y-143785714D01*
X128271428Y-143571428D01*
X128200000Y-143428571D01*
X128057142Y-143357142D01*
X127271428Y-143357142D01*
X128057142Y-143357142D02*
X128200000Y-143285714D01*
X128271428Y-143142857D01*
X128271428Y-142928571D01*
X128200000Y-142785714D01*
X128057142Y-142714285D01*
X127271428Y-142714285D01*
X127271428Y-142000000D02*
X128271428Y-142000000D01*
X128771428Y-142000000D02*
X128700000Y-142071428D01*
X128628571Y-142000000D01*
X128700000Y-141928571D01*
X128771428Y-142000000D01*
X128628571Y-142000000D01*
X127342857Y-140642857D02*
X127271428Y-140785714D01*
X127271428Y-141071428D01*
X127342857Y-141214285D01*
X127414285Y-141285714D01*
X127557142Y-141357142D01*
X127985714Y-141357142D01*
X128128571Y-141285714D01*
X128200000Y-141214285D01*
X128271428Y-141071428D01*
X128271428Y-140785714D01*
X128200000Y-140642857D01*
X127985714Y-139071428D02*
X128057142Y-139142857D01*
X128128571Y-139285714D01*
X128128571Y-139428571D01*
X128057142Y-139571428D01*
X127985714Y-139642857D01*
X127842857Y-139714285D01*
X127700000Y-139714285D01*
X127557142Y-139642857D01*
X127485714Y-139571428D01*
X127414285Y-139428571D01*
X127414285Y-139285714D01*
X127485714Y-139142857D01*
X127557142Y-139071428D01*
X128128571Y-139071428D02*
X127557142Y-139071428D01*
X127485714Y-139000000D01*
X127485714Y-138928571D01*
X127557142Y-138785714D01*
X127700000Y-138714285D01*
X128057142Y-138714285D01*
X128271428Y-138857142D01*
X128414285Y-139071428D01*
X128485714Y-139357142D01*
X128414285Y-139642857D01*
X128271428Y-139857142D01*
X128057142Y-140000000D01*
X127771428Y-140071428D01*
X127485714Y-140000000D01*
X127271428Y-139857142D01*
X127128571Y-139642857D01*
X127057142Y-139357142D01*
X127128571Y-139071428D01*
X127271428Y-138857142D01*
X128271428Y-138214285D02*
X127271428Y-137928571D01*
X127985714Y-137642857D01*
X127271428Y-137357142D01*
X128271428Y-137071428D01*
X127342857Y-135928571D02*
X127271428Y-136071428D01*
X127271428Y-136357142D01*
X127342857Y-136500000D01*
X127485714Y-136571428D01*
X128057142Y-136571428D01*
X128200000Y-136500000D01*
X128271428Y-136357142D01*
X128271428Y-136071428D01*
X128200000Y-135928571D01*
X128057142Y-135857142D01*
X127914285Y-135857142D01*
X127771428Y-136571428D01*
X127271428Y-135214285D02*
X128271428Y-135214285D01*
X128128571Y-135214285D02*
X128200000Y-135142857D01*
X128271428Y-135000000D01*
X128271428Y-134785714D01*
X128200000Y-134642857D01*
X128057142Y-134571428D01*
X127271428Y-134571428D01*
X128057142Y-134571428D02*
X128200000Y-134500000D01*
X128271428Y-134357142D01*
X128271428Y-134142857D01*
X128200000Y-134000000D01*
X128057142Y-133928571D01*
X127271428Y-133928571D01*
X127271428Y-132571428D02*
X128057142Y-132571428D01*
X128200000Y-132642857D01*
X128271428Y-132785714D01*
X128271428Y-133071428D01*
X128200000Y-133214285D01*
X127342857Y-132571428D02*
X127271428Y-132714285D01*
X127271428Y-133071428D01*
X127342857Y-133214285D01*
X127485714Y-133285714D01*
X127628571Y-133285714D01*
X127771428Y-133214285D01*
X127842857Y-133071428D01*
X127842857Y-132714285D01*
X127914285Y-132571428D01*
X127271428Y-131857142D02*
X128771428Y-131857142D01*
X127842857Y-131714285D02*
X127271428Y-131285714D01*
X128271428Y-131285714D02*
X127700000Y-131857142D01*
X127342857Y-130071428D02*
X127271428Y-130214285D01*
X127271428Y-130500000D01*
X127342857Y-130642857D01*
X127485714Y-130714285D01*
X128057142Y-130714285D01*
X128200000Y-130642857D01*
X128271428Y-130500000D01*
X128271428Y-130214285D01*
X128200000Y-130071428D01*
X128057142Y-130000000D01*
X127914285Y-130000000D01*
X127771428Y-130714285D01*
X128271428Y-129571428D02*
X128271428Y-129000000D01*
X128771428Y-129357142D02*
X127485714Y-129357142D01*
X127342857Y-129285714D01*
X127271428Y-129142857D01*
X127271428Y-129000000D01*
X127271428Y-128500000D02*
X128771428Y-128500000D01*
X127271428Y-127857142D02*
X128057142Y-127857142D01*
X128200000Y-127928571D01*
X128271428Y-128071428D01*
X128271428Y-128285714D01*
X128200000Y-128428571D01*
X128128571Y-128500000D01*
X127271428Y-127142857D02*
X128271428Y-127142857D01*
X128771428Y-127142857D02*
X128700000Y-127214285D01*
X128628571Y-127142857D01*
X128700000Y-127071428D01*
X128771428Y-127142857D01*
X128628571Y-127142857D01*
X128271428Y-126428571D02*
X127271428Y-126428571D01*
X128128571Y-126428571D02*
X128200000Y-126357142D01*
X128271428Y-126214285D01*
X128271428Y-126000000D01*
X128200000Y-125857142D01*
X128057142Y-125785714D01*
X127271428Y-125785714D01*
X128271428Y-124428571D02*
X127057142Y-124428571D01*
X126914285Y-124500000D01*
X126842857Y-124571428D01*
X126771428Y-124714285D01*
X126771428Y-124928571D01*
X126842857Y-125071428D01*
X127342857Y-124428571D02*
X127271428Y-124571428D01*
X127271428Y-124857142D01*
X127342857Y-125000000D01*
X127414285Y-125071428D01*
X127557142Y-125142857D01*
X127985714Y-125142857D01*
X128128571Y-125071428D01*
X128200000Y-125000000D01*
X128271428Y-124857142D01*
X128271428Y-124571428D01*
X128200000Y-124428571D01*
X127342857Y-123785714D02*
X127271428Y-123642857D01*
X127271428Y-123357142D01*
X127342857Y-123214285D01*
X127485714Y-123142857D01*
X127557142Y-123142857D01*
X127700000Y-123214285D01*
X127771428Y-123357142D01*
X127771428Y-123571428D01*
X127842857Y-123714285D01*
X127985714Y-123785714D01*
X128057142Y-123785714D01*
X128200000Y-123714285D01*
X128271428Y-123571428D01*
X128271428Y-123357142D01*
X128200000Y-123214285D01*
X127414285Y-122500000D02*
X127342857Y-122428571D01*
X127271428Y-122500000D01*
X127342857Y-122571428D01*
X127414285Y-122500000D01*
X127271428Y-122500000D01*
X128271428Y-121785714D02*
X127271428Y-121785714D01*
X128128571Y-121785714D02*
X128200000Y-121714285D01*
X128271428Y-121571428D01*
X128271428Y-121357142D01*
X128200000Y-121214285D01*
X128057142Y-121142857D01*
X127271428Y-121142857D01*
X127342857Y-119857142D02*
X127271428Y-120000000D01*
X127271428Y-120285714D01*
X127342857Y-120428571D01*
X127485714Y-120500000D01*
X128057142Y-120500000D01*
X128200000Y-120428571D01*
X128271428Y-120285714D01*
X128271428Y-120000000D01*
X128200000Y-119857142D01*
X128057142Y-119785714D01*
X127914285Y-119785714D01*
X127771428Y-120500000D01*
X128271428Y-119357142D02*
X128271428Y-118785714D01*
X128771428Y-119142857D02*
X127485714Y-119142857D01*
X127342857Y-119071428D01*
X127271428Y-118928571D01*
X127271428Y-118785714D01*
D13*
X122000000Y-100000000D02*
X138000000Y-100000000D01*
D12*
X150514285Y-140642857D02*
X150442857Y-140714285D01*
X150371428Y-140928571D01*
X150371428Y-141071428D01*
X150442857Y-141285714D01*
X150585714Y-141428571D01*
X150728571Y-141500000D01*
X151014285Y-141571428D01*
X151228571Y-141571428D01*
X151514285Y-141500000D01*
X151657142Y-141428571D01*
X151800000Y-141285714D01*
X151871428Y-141071428D01*
X151871428Y-140928571D01*
X151800000Y-140714285D01*
X151728571Y-140642857D01*
X150371428Y-139357142D02*
X151157142Y-139357142D01*
X151300000Y-139428571D01*
X151371428Y-139571428D01*
X151371428Y-139857142D01*
X151300000Y-140000000D01*
X150442857Y-139357142D02*
X150371428Y-139500000D01*
X150371428Y-139857142D01*
X150442857Y-140000000D01*
X150585714Y-140071428D01*
X150728571Y-140071428D01*
X150871428Y-140000000D01*
X150942857Y-139857142D01*
X150942857Y-139500000D01*
X151014285Y-139357142D01*
X151371428Y-138857142D02*
X151371428Y-138285714D01*
X151871428Y-138642857D02*
X150585714Y-138642857D01*
X150442857Y-138571428D01*
X150371428Y-138428571D01*
X150371428Y-138285714D01*
X151371428Y-137785714D02*
X150371428Y-137785714D01*
X151228571Y-137785714D02*
X151300000Y-137714285D01*
X151371428Y-137571428D01*
X151371428Y-137357142D01*
X151300000Y-137214285D01*
X151157142Y-137142857D01*
X150371428Y-137142857D01*
X150371428Y-136428571D02*
X151371428Y-136428571D01*
X151871428Y-136428571D02*
X151800000Y-136500000D01*
X151728571Y-136428571D01*
X151800000Y-136357142D01*
X151871428Y-136428571D01*
X151728571Y-136428571D01*
X151371428Y-135714285D02*
X149871428Y-135714285D01*
X151300000Y-135714285D02*
X151371428Y-135571428D01*
X151371428Y-135285714D01*
X151300000Y-135142857D01*
X151228571Y-135071428D01*
X151085714Y-135000000D01*
X150657142Y-135000000D01*
X150514285Y-135071428D01*
X150442857Y-135142857D01*
X150371428Y-135285714D01*
X150371428Y-135571428D01*
X150442857Y-135714285D01*
X151157142Y-133214285D02*
X151157142Y-132714285D01*
X150371428Y-132500000D02*
X150371428Y-133214285D01*
X151871428Y-133214285D01*
X151871428Y-132500000D01*
X150371428Y-131642857D02*
X150442857Y-131785714D01*
X150585714Y-131857142D01*
X151871428Y-131857142D01*
X150442857Y-130500000D02*
X150371428Y-130642857D01*
X150371428Y-130928571D01*
X150442857Y-131071428D01*
X150585714Y-131142857D01*
X151157142Y-131142857D01*
X151300000Y-131071428D01*
X151371428Y-130928571D01*
X151371428Y-130642857D01*
X151300000Y-130500000D01*
X151157142Y-130428571D01*
X151014285Y-130428571D01*
X150871428Y-131142857D01*
X150442857Y-129142857D02*
X150371428Y-129285714D01*
X150371428Y-129571428D01*
X150442857Y-129714285D01*
X150514285Y-129785714D01*
X150657142Y-129857142D01*
X151085714Y-129857142D01*
X151228571Y-129785714D01*
X151300000Y-129714285D01*
X151371428Y-129571428D01*
X151371428Y-129285714D01*
X151300000Y-129142857D01*
X151371428Y-128714285D02*
X151371428Y-128142857D01*
X151871428Y-128500000D02*
X150585714Y-128500000D01*
X150442857Y-128428571D01*
X150371428Y-128285714D01*
X150371428Y-128142857D01*
X150371428Y-127642857D02*
X151371428Y-127642857D01*
X151085714Y-127642857D02*
X151228571Y-127571428D01*
X151300000Y-127500000D01*
X151371428Y-127357142D01*
X151371428Y-127214285D01*
X150371428Y-126500000D02*
X150442857Y-126642857D01*
X150514285Y-126714285D01*
X150657142Y-126785714D01*
X151085714Y-126785714D01*
X151228571Y-126714285D01*
X151300000Y-126642857D01*
X151371428Y-126500000D01*
X151371428Y-126285714D01*
X151300000Y-126142857D01*
X151228571Y-126071428D01*
X151085714Y-126000000D01*
X150657142Y-126000000D01*
X150514285Y-126071428D01*
X150442857Y-126142857D01*
X150371428Y-126285714D01*
X150371428Y-126500000D01*
X151371428Y-125357142D02*
X150371428Y-125357142D01*
X151228571Y-125357142D02*
X151300000Y-125285714D01*
X151371428Y-125142857D01*
X151371428Y-124928571D01*
X151300000Y-124785714D01*
X151157142Y-124714285D01*
X150371428Y-124714285D01*
X150371428Y-124000000D02*
X151371428Y-124000000D01*
X151871428Y-124000000D02*
X151800000Y-124071428D01*
X151728571Y-124000000D01*
X151800000Y-123928571D01*
X151871428Y-124000000D01*
X151728571Y-124000000D01*
X150442857Y-122642857D02*
X150371428Y-122785714D01*
X150371428Y-123071428D01*
X150442857Y-123214285D01*
X150514285Y-123285714D01*
X150657142Y-123357142D01*
X151085714Y-123357142D01*
X151228571Y-123285714D01*
X151300000Y-123214285D01*
X151371428Y-123071428D01*
X151371428Y-122785714D01*
X151300000Y-122642857D01*
X150442857Y-122071428D02*
X150371428Y-121928571D01*
X150371428Y-121642857D01*
X150442857Y-121500000D01*
X150585714Y-121428571D01*
X150657142Y-121428571D01*
X150800000Y-121500000D01*
X150871428Y-121642857D01*
X150871428Y-121857142D01*
X150942857Y-122000000D01*
X151085714Y-122071428D01*
X151157142Y-122071428D01*
X151300000Y-122000000D01*
X151371428Y-121857142D01*
X151371428Y-121642857D01*
X151300000Y-121500000D01*
X147821428Y-148785714D02*
X149321428Y-148785714D01*
X147821428Y-148142857D02*
X148607142Y-148142857D01*
X148750000Y-148214285D01*
X148821428Y-148357142D01*
X148821428Y-148571428D01*
X148750000Y-148714285D01*
X148678571Y-148785714D01*
X148821428Y-147642857D02*
X148821428Y-147071428D01*
X149321428Y-147428571D02*
X148035714Y-147428571D01*
X147892857Y-147357142D01*
X147821428Y-147214285D01*
X147821428Y-147071428D01*
X148821428Y-146785714D02*
X148821428Y-146214285D01*
X149321428Y-146571428D02*
X148035714Y-146571428D01*
X147892857Y-146500000D01*
X147821428Y-146357142D01*
X147821428Y-146214285D01*
X148821428Y-145714285D02*
X147321428Y-145714285D01*
X148750000Y-145714285D02*
X148821428Y-145571428D01*
X148821428Y-145285714D01*
X148750000Y-145142857D01*
X148678571Y-145071428D01*
X148535714Y-145000000D01*
X148107142Y-145000000D01*
X147964285Y-145071428D01*
X147892857Y-145142857D01*
X147821428Y-145285714D01*
X147821428Y-145571428D01*
X147892857Y-145714285D01*
X147964285Y-144357142D02*
X147892857Y-144285714D01*
X147821428Y-144357142D01*
X147892857Y-144428571D01*
X147964285Y-144357142D01*
X147821428Y-144357142D01*
X148750000Y-144357142D02*
X148678571Y-144285714D01*
X148607142Y-144357142D01*
X148678571Y-144428571D01*
X148750000Y-144357142D01*
X148607142Y-144357142D01*
X149392857Y-142571428D02*
X147464285Y-143857142D01*
X149392857Y-141000000D02*
X147464285Y-142285714D01*
X148821428Y-140642857D02*
X147821428Y-140357142D01*
X148535714Y-140071428D01*
X147821428Y-139785714D01*
X148821428Y-139500000D01*
X147892857Y-138357142D02*
X147821428Y-138500000D01*
X147821428Y-138785714D01*
X147892857Y-138928571D01*
X148035714Y-139000000D01*
X148607142Y-139000000D01*
X148750000Y-138928571D01*
X148821428Y-138785714D01*
X148821428Y-138500000D01*
X148750000Y-138357142D01*
X148607142Y-138285714D01*
X148464285Y-138285714D01*
X148321428Y-139000000D01*
X147821428Y-137642857D02*
X148821428Y-137642857D01*
X148678571Y-137642857D02*
X148750000Y-137571428D01*
X148821428Y-137428571D01*
X148821428Y-137214285D01*
X148750000Y-137071428D01*
X148607142Y-137000000D01*
X147821428Y-137000000D01*
X148607142Y-137000000D02*
X148750000Y-136928571D01*
X148821428Y-136785714D01*
X148821428Y-136571428D01*
X148750000Y-136428571D01*
X148607142Y-136357142D01*
X147821428Y-136357142D01*
X147821428Y-135000000D02*
X148607142Y-135000000D01*
X148750000Y-135071428D01*
X148821428Y-135214285D01*
X148821428Y-135500000D01*
X148750000Y-135642857D01*
X147892857Y-135000000D02*
X147821428Y-135142857D01*
X147821428Y-135500000D01*
X147892857Y-135642857D01*
X148035714Y-135714285D01*
X148178571Y-135714285D01*
X148321428Y-135642857D01*
X148392857Y-135500000D01*
X148392857Y-135142857D01*
X148464285Y-135000000D01*
X147821428Y-134285714D02*
X149321428Y-134285714D01*
X148392857Y-134142857D02*
X147821428Y-133714285D01*
X148821428Y-133714285D02*
X148250000Y-134285714D01*
X147892857Y-132500000D02*
X147821428Y-132642857D01*
X147821428Y-132928571D01*
X147892857Y-133071428D01*
X148035714Y-133142857D01*
X148607142Y-133142857D01*
X148750000Y-133071428D01*
X148821428Y-132928571D01*
X148821428Y-132642857D01*
X148750000Y-132500000D01*
X148607142Y-132428571D01*
X148464285Y-132428571D01*
X148321428Y-133142857D01*
X148821428Y-132000000D02*
X148821428Y-131428571D01*
X149321428Y-131785714D02*
X148035714Y-131785714D01*
X147892857Y-131714285D01*
X147821428Y-131571428D01*
X147821428Y-131428571D01*
X147821428Y-130928571D02*
X149321428Y-130928571D01*
X147821428Y-130285714D02*
X148607142Y-130285714D01*
X148750000Y-130357142D01*
X148821428Y-130500000D01*
X148821428Y-130714285D01*
X148750000Y-130857142D01*
X148678571Y-130928571D01*
X147821428Y-129571428D02*
X148821428Y-129571428D01*
X149321428Y-129571428D02*
X149250000Y-129642857D01*
X149178571Y-129571428D01*
X149250000Y-129500000D01*
X149321428Y-129571428D01*
X149178571Y-129571428D01*
X148821428Y-128857142D02*
X147821428Y-128857142D01*
X148678571Y-128857142D02*
X148750000Y-128785714D01*
X148821428Y-128642857D01*
X148821428Y-128428571D01*
X148750000Y-128285714D01*
X148607142Y-128214285D01*
X147821428Y-128214285D01*
X148821428Y-126857142D02*
X147607142Y-126857142D01*
X147464285Y-126928571D01*
X147392857Y-127000000D01*
X147321428Y-127142857D01*
X147321428Y-127357142D01*
X147392857Y-127500000D01*
X147892857Y-126857142D02*
X147821428Y-127000000D01*
X147821428Y-127285714D01*
X147892857Y-127428571D01*
X147964285Y-127500000D01*
X148107142Y-127571428D01*
X148535714Y-127571428D01*
X148678571Y-127500000D01*
X148750000Y-127428571D01*
X148821428Y-127285714D01*
X148821428Y-127000000D01*
X148750000Y-126857142D01*
X147892857Y-126214285D02*
X147821428Y-126071428D01*
X147821428Y-125785714D01*
X147892857Y-125642857D01*
X148035714Y-125571428D01*
X148107142Y-125571428D01*
X148250000Y-125642857D01*
X148321428Y-125785714D01*
X148321428Y-126000000D01*
X148392857Y-126142857D01*
X148535714Y-126214285D01*
X148607142Y-126214285D01*
X148750000Y-126142857D01*
X148821428Y-126000000D01*
X148821428Y-125785714D01*
X148750000Y-125642857D01*
X147964285Y-124928571D02*
X147892857Y-124857142D01*
X147821428Y-124928571D01*
X147892857Y-125000000D01*
X147964285Y-124928571D01*
X147821428Y-124928571D01*
X148821428Y-124214285D02*
X147821428Y-124214285D01*
X148678571Y-124214285D02*
X148750000Y-124142857D01*
X148821428Y-124000000D01*
X148821428Y-123785714D01*
X148750000Y-123642857D01*
X148607142Y-123571428D01*
X147821428Y-123571428D01*
X147892857Y-122285714D02*
X147821428Y-122428571D01*
X147821428Y-122714285D01*
X147892857Y-122857142D01*
X148035714Y-122928571D01*
X148607142Y-122928571D01*
X148750000Y-122857142D01*
X148821428Y-122714285D01*
X148821428Y-122428571D01*
X148750000Y-122285714D01*
X148607142Y-122214285D01*
X148464285Y-122214285D01*
X148321428Y-122928571D01*
X148821428Y-121785714D02*
X148821428Y-121214285D01*
X149321428Y-121571428D02*
X148035714Y-121571428D01*
X147892857Y-121500000D01*
X147821428Y-121357142D01*
X147821428Y-121214285D01*
X149392857Y-119642857D02*
X147464285Y-120928571D01*
X147892857Y-118500000D02*
X147821428Y-118642857D01*
X147821428Y-118928571D01*
X147892857Y-119071428D01*
X147964285Y-119142857D01*
X148107142Y-119214285D01*
X148535714Y-119214285D01*
X148678571Y-119142857D01*
X148750000Y-119071428D01*
X148821428Y-118928571D01*
X148821428Y-118642857D01*
X148750000Y-118500000D01*
X147821428Y-117857142D02*
X149321428Y-117857142D01*
X147821428Y-117214285D02*
X148607142Y-117214285D01*
X148750000Y-117285714D01*
X148821428Y-117428571D01*
X148821428Y-117642857D01*
X148750000Y-117785714D01*
X148678571Y-117857142D01*
X147821428Y-116500000D02*
X148821428Y-116500000D01*
X149321428Y-116500000D02*
X149250000Y-116571428D01*
X149178571Y-116500000D01*
X149250000Y-116428571D01*
X149321428Y-116500000D01*
X149178571Y-116500000D01*
X147821428Y-115785714D02*
X148821428Y-115785714D01*
X148535714Y-115785714D02*
X148678571Y-115714285D01*
X148750000Y-115642857D01*
X148821428Y-115500000D01*
X148821428Y-115357142D01*
X148821428Y-114857142D02*
X147321428Y-114857142D01*
X148750000Y-114857142D02*
X148821428Y-114714285D01*
X148821428Y-114428571D01*
X148750000Y-114285714D01*
X148678571Y-114214285D01*
X148535714Y-114142857D01*
X148107142Y-114142857D01*
X147964285Y-114214285D01*
X147892857Y-114285714D01*
X147821428Y-114428571D01*
X147821428Y-114714285D01*
X147892857Y-114857142D01*
X145271428Y-144000000D02*
X146271428Y-144000000D01*
X146128571Y-144000000D02*
X146200000Y-143928571D01*
X146271428Y-143785714D01*
X146271428Y-143571428D01*
X146200000Y-143428571D01*
X146057142Y-143357142D01*
X145271428Y-143357142D01*
X146057142Y-143357142D02*
X146200000Y-143285714D01*
X146271428Y-143142857D01*
X146271428Y-142928571D01*
X146200000Y-142785714D01*
X146057142Y-142714285D01*
X145271428Y-142714285D01*
X145271428Y-142000000D02*
X146271428Y-142000000D01*
X146771428Y-142000000D02*
X146700000Y-142071428D01*
X146628571Y-142000000D01*
X146700000Y-141928571D01*
X146771428Y-142000000D01*
X146628571Y-142000000D01*
X145342857Y-140642857D02*
X145271428Y-140785714D01*
X145271428Y-141071428D01*
X145342857Y-141214285D01*
X145414285Y-141285714D01*
X145557142Y-141357142D01*
X145985714Y-141357142D01*
X146128571Y-141285714D01*
X146200000Y-141214285D01*
X146271428Y-141071428D01*
X146271428Y-140785714D01*
X146200000Y-140642857D01*
X145985714Y-139071428D02*
X146057142Y-139142857D01*
X146128571Y-139285714D01*
X146128571Y-139428571D01*
X146057142Y-139571428D01*
X145985714Y-139642857D01*
X145842857Y-139714285D01*
X145700000Y-139714285D01*
X145557142Y-139642857D01*
X145485714Y-139571428D01*
X145414285Y-139428571D01*
X145414285Y-139285714D01*
X145485714Y-139142857D01*
X145557142Y-139071428D01*
X146128571Y-139071428D02*
X145557142Y-139071428D01*
X145485714Y-139000000D01*
X145485714Y-138928571D01*
X145557142Y-138785714D01*
X145700000Y-138714285D01*
X146057142Y-138714285D01*
X146271428Y-138857142D01*
X146414285Y-139071428D01*
X146485714Y-139357142D01*
X146414285Y-139642857D01*
X146271428Y-139857142D01*
X146057142Y-140000000D01*
X145771428Y-140071428D01*
X145485714Y-140000000D01*
X145271428Y-139857142D01*
X145128571Y-139642857D01*
X145057142Y-139357142D01*
X145128571Y-139071428D01*
X145271428Y-138857142D01*
X146271428Y-138214285D02*
X145271428Y-137928571D01*
X145985714Y-137642857D01*
X145271428Y-137357142D01*
X146271428Y-137071428D01*
X145342857Y-135928571D02*
X145271428Y-136071428D01*
X145271428Y-136357142D01*
X145342857Y-136500000D01*
X145485714Y-136571428D01*
X146057142Y-136571428D01*
X146200000Y-136500000D01*
X146271428Y-136357142D01*
X146271428Y-136071428D01*
X146200000Y-135928571D01*
X146057142Y-135857142D01*
X145914285Y-135857142D01*
X145771428Y-136571428D01*
X145271428Y-135214285D02*
X146271428Y-135214285D01*
X146128571Y-135214285D02*
X146200000Y-135142857D01*
X146271428Y-135000000D01*
X146271428Y-134785714D01*
X146200000Y-134642857D01*
X146057142Y-134571428D01*
X145271428Y-134571428D01*
X146057142Y-134571428D02*
X146200000Y-134500000D01*
X146271428Y-134357142D01*
X146271428Y-134142857D01*
X146200000Y-134000000D01*
X146057142Y-133928571D01*
X145271428Y-133928571D01*
X145271428Y-132571428D02*
X146057142Y-132571428D01*
X146200000Y-132642857D01*
X146271428Y-132785714D01*
X146271428Y-133071428D01*
X146200000Y-133214285D01*
X145342857Y-132571428D02*
X145271428Y-132714285D01*
X145271428Y-133071428D01*
X145342857Y-133214285D01*
X145485714Y-133285714D01*
X145628571Y-133285714D01*
X145771428Y-133214285D01*
X145842857Y-133071428D01*
X145842857Y-132714285D01*
X145914285Y-132571428D01*
X145271428Y-131857142D02*
X146771428Y-131857142D01*
X145842857Y-131714285D02*
X145271428Y-131285714D01*
X146271428Y-131285714D02*
X145700000Y-131857142D01*
X145342857Y-130071428D02*
X145271428Y-130214285D01*
X145271428Y-130500000D01*
X145342857Y-130642857D01*
X145485714Y-130714285D01*
X146057142Y-130714285D01*
X146200000Y-130642857D01*
X146271428Y-130500000D01*
X146271428Y-130214285D01*
X146200000Y-130071428D01*
X146057142Y-130000000D01*
X145914285Y-130000000D01*
X145771428Y-130714285D01*
X146271428Y-129571428D02*
X146271428Y-129000000D01*
X146771428Y-129357142D02*
X145485714Y-129357142D01*
X145342857Y-129285714D01*
X145271428Y-129142857D01*
X145271428Y-129000000D01*
X145271428Y-128500000D02*
X146771428Y-128500000D01*
X145271428Y-127857142D02*
X146057142Y-127857142D01*
X146200000Y-127928571D01*
X146271428Y-128071428D01*
X146271428Y-128285714D01*
X146200000Y-128428571D01*
X146128571Y-128500000D01*
X145271428Y-127142857D02*
X146271428Y-127142857D01*
X146771428Y-127142857D02*
X146700000Y-127214285D01*
X146628571Y-127142857D01*
X146700000Y-127071428D01*
X146771428Y-127142857D01*
X146628571Y-127142857D01*
X146271428Y-126428571D02*
X145271428Y-126428571D01*
X146128571Y-126428571D02*
X146200000Y-126357142D01*
X146271428Y-126214285D01*
X146271428Y-126000000D01*
X146200000Y-125857142D01*
X146057142Y-125785714D01*
X145271428Y-125785714D01*
X146271428Y-124428571D02*
X145057142Y-124428571D01*
X144914285Y-124500000D01*
X144842857Y-124571428D01*
X144771428Y-124714285D01*
X144771428Y-124928571D01*
X144842857Y-125071428D01*
X145342857Y-124428571D02*
X145271428Y-124571428D01*
X145271428Y-124857142D01*
X145342857Y-125000000D01*
X145414285Y-125071428D01*
X145557142Y-125142857D01*
X145985714Y-125142857D01*
X146128571Y-125071428D01*
X146200000Y-125000000D01*
X146271428Y-124857142D01*
X146271428Y-124571428D01*
X146200000Y-124428571D01*
X145342857Y-123785714D02*
X145271428Y-123642857D01*
X145271428Y-123357142D01*
X145342857Y-123214285D01*
X145485714Y-123142857D01*
X145557142Y-123142857D01*
X145700000Y-123214285D01*
X145771428Y-123357142D01*
X145771428Y-123571428D01*
X145842857Y-123714285D01*
X145985714Y-123785714D01*
X146057142Y-123785714D01*
X146200000Y-123714285D01*
X146271428Y-123571428D01*
X146271428Y-123357142D01*
X146200000Y-123214285D01*
X145414285Y-122500000D02*
X145342857Y-122428571D01*
X145271428Y-122500000D01*
X145342857Y-122571428D01*
X145414285Y-122500000D01*
X145271428Y-122500000D01*
X146271428Y-121785714D02*
X145271428Y-121785714D01*
X146128571Y-121785714D02*
X146200000Y-121714285D01*
X146271428Y-121571428D01*
X146271428Y-121357142D01*
X146200000Y-121214285D01*
X146057142Y-121142857D01*
X145271428Y-121142857D01*
X145342857Y-119857142D02*
X145271428Y-120000000D01*
X145271428Y-120285714D01*
X145342857Y-120428571D01*
X145485714Y-120500000D01*
X146057142Y-120500000D01*
X146200000Y-120428571D01*
X146271428Y-120285714D01*
X146271428Y-120000000D01*
X146200000Y-119857142D01*
X146057142Y-119785714D01*
X145914285Y-119785714D01*
X145771428Y-120500000D01*
X146271428Y-119357142D02*
X146271428Y-118785714D01*
X146771428Y-119142857D02*
X145485714Y-119142857D01*
X145342857Y-119071428D01*
X145271428Y-118928571D01*
X145271428Y-118785714D01*
D13*
X140000000Y-100000000D02*
X156000000Y-100000000D01*
D12*
X168514285Y-140642857D02*
X168442857Y-140714285D01*
X168371428Y-140928571D01*
X168371428Y-141071428D01*
X168442857Y-141285714D01*
X168585714Y-141428571D01*
X168728571Y-141500000D01*
X169014285Y-141571428D01*
X169228571Y-141571428D01*
X169514285Y-141500000D01*
X169657142Y-141428571D01*
X169800000Y-141285714D01*
X169871428Y-141071428D01*
X169871428Y-140928571D01*
X169800000Y-140714285D01*
X169728571Y-140642857D01*
X168371428Y-139357142D02*
X169157142Y-139357142D01*
X169300000Y-139428571D01*
X169371428Y-139571428D01*
X169371428Y-139857142D01*
X169300000Y-140000000D01*
X168442857Y-139357142D02*
X168371428Y-139500000D01*
X168371428Y-139857142D01*
X168442857Y-140000000D01*
X168585714Y-140071428D01*
X168728571Y-140071428D01*
X168871428Y-140000000D01*
X168942857Y-139857142D01*
X168942857Y-139500000D01*
X169014285Y-139357142D01*
X169371428Y-138857142D02*
X169371428Y-138285714D01*
X169871428Y-138642857D02*
X168585714Y-138642857D01*
X168442857Y-138571428D01*
X168371428Y-138428571D01*
X168371428Y-138285714D01*
X169371428Y-137785714D02*
X168371428Y-137785714D01*
X169228571Y-137785714D02*
X169300000Y-137714285D01*
X169371428Y-137571428D01*
X169371428Y-137357142D01*
X169300000Y-137214285D01*
X169157142Y-137142857D01*
X168371428Y-137142857D01*
X168371428Y-136428571D02*
X169371428Y-136428571D01*
X169871428Y-136428571D02*
X169800000Y-136500000D01*
X169728571Y-136428571D01*
X169800000Y-136357142D01*
X169871428Y-136428571D01*
X169728571Y-136428571D01*
X169371428Y-135714285D02*
X167871428Y-135714285D01*
X169300000Y-135714285D02*
X169371428Y-135571428D01*
X169371428Y-135285714D01*
X169300000Y-135142857D01*
X169228571Y-135071428D01*
X169085714Y-135000000D01*
X168657142Y-135000000D01*
X168514285Y-135071428D01*
X168442857Y-135142857D01*
X168371428Y-135285714D01*
X168371428Y-135571428D01*
X168442857Y-135714285D01*
X169157142Y-133214285D02*
X169157142Y-132714285D01*
X168371428Y-132500000D02*
X168371428Y-133214285D01*
X169871428Y-133214285D01*
X169871428Y-132500000D01*
X168371428Y-131642857D02*
X168442857Y-131785714D01*
X168585714Y-131857142D01*
X169871428Y-131857142D01*
X168442857Y-130500000D02*
X168371428Y-130642857D01*
X168371428Y-130928571D01*
X168442857Y-131071428D01*
X168585714Y-131142857D01*
X169157142Y-131142857D01*
X169300000Y-131071428D01*
X169371428Y-130928571D01*
X169371428Y-130642857D01*
X169300000Y-130500000D01*
X169157142Y-130428571D01*
X169014285Y-130428571D01*
X168871428Y-131142857D01*
X168442857Y-129142857D02*
X168371428Y-129285714D01*
X168371428Y-129571428D01*
X168442857Y-129714285D01*
X168514285Y-129785714D01*
X168657142Y-129857142D01*
X169085714Y-129857142D01*
X169228571Y-129785714D01*
X169300000Y-129714285D01*
X169371428Y-129571428D01*
X169371428Y-129285714D01*
X169300000Y-129142857D01*
X169371428Y-128714285D02*
X169371428Y-128142857D01*
X169871428Y-128500000D02*
X168585714Y-128500000D01*
X168442857Y-128428571D01*
X168371428Y-128285714D01*
X168371428Y-128142857D01*
X168371428Y-127642857D02*
X169371428Y-127642857D01*
X169085714Y-127642857D02*
X169228571Y-127571428D01*
X169300000Y-127500000D01*
X169371428Y-127357142D01*
X169371428Y-127214285D01*
X168371428Y-126500000D02*
X168442857Y-126642857D01*
X168514285Y-126714285D01*
X168657142Y-126785714D01*
X169085714Y-126785714D01*
X169228571Y-126714285D01*
X169300000Y-126642857D01*
X169371428Y-126500000D01*
X169371428Y-126285714D01*
X169300000Y-126142857D01*
X169228571Y-126071428D01*
X169085714Y-126000000D01*
X168657142Y-126000000D01*
X168514285Y-126071428D01*
X168442857Y-126142857D01*
X168371428Y-126285714D01*
X168371428Y-126500000D01*
X169371428Y-125357142D02*
X168371428Y-125357142D01*
X169228571Y-125357142D02*
X169300000Y-125285714D01*
X169371428Y-125142857D01*
X169371428Y-124928571D01*
X169300000Y-124785714D01*
X169157142Y-124714285D01*
X168371428Y-124714285D01*
X168371428Y-124000000D02*
X169371428Y-124000000D01*
X169871428Y-124000000D02*
X169800000Y-124071428D01*
X169728571Y-124000000D01*
X169800000Y-123928571D01*
X169871428Y-124000000D01*
X169728571Y-124000000D01*
X168442857Y-122642857D02*
X168371428Y-122785714D01*
X168371428Y-123071428D01*
X168442857Y-123214285D01*
X168514285Y-123285714D01*
X168657142Y-123357142D01*
X169085714Y-123357142D01*
X169228571Y-123285714D01*
X169300000Y-123214285D01*
X169371428Y-123071428D01*
X169371428Y-122785714D01*
X169300000Y-122642857D01*
X168442857Y-122071428D02*
X168371428Y-121928571D01*
X168371428Y-121642857D01*
X168442857Y-121500000D01*
X168585714Y-121428571D01*
X168657142Y-121428571D01*
X168800000Y-121500000D01*
X168871428Y-121642857D01*
X168871428Y-121857142D01*
X168942857Y-122000000D01*
X169085714Y-122071428D01*
X169157142Y-122071428D01*
X169300000Y-122000000D01*
X169371428Y-121857142D01*
X169371428Y-121642857D01*
X169300000Y-121500000D01*
X165821428Y-148785714D02*
X167321428Y-148785714D01*
X165821428Y-148142857D02*
X166607142Y-148142857D01*
X166750000Y-148214285D01*
X166821428Y-148357142D01*
X166821428Y-148571428D01*
X166750000Y-148714285D01*
X166678571Y-148785714D01*
X166821428Y-147642857D02*
X166821428Y-147071428D01*
X167321428Y-147428571D02*
X166035714Y-147428571D01*
X165892857Y-147357142D01*
X165821428Y-147214285D01*
X165821428Y-147071428D01*
X166821428Y-146785714D02*
X166821428Y-146214285D01*
X167321428Y-146571428D02*
X166035714Y-146571428D01*
X165892857Y-146500000D01*
X165821428Y-146357142D01*
X165821428Y-146214285D01*
X166821428Y-145714285D02*
X165321428Y-145714285D01*
X166750000Y-145714285D02*
X166821428Y-145571428D01*
X166821428Y-145285714D01*
X166750000Y-145142857D01*
X166678571Y-145071428D01*
X166535714Y-145000000D01*
X166107142Y-145000000D01*
X165964285Y-145071428D01*
X165892857Y-145142857D01*
X165821428Y-145285714D01*
X165821428Y-145571428D01*
X165892857Y-145714285D01*
X165964285Y-144357142D02*
X165892857Y-144285714D01*
X165821428Y-144357142D01*
X165892857Y-144428571D01*
X165964285Y-144357142D01*
X165821428Y-144357142D01*
X166750000Y-144357142D02*
X166678571Y-144285714D01*
X166607142Y-144357142D01*
X166678571Y-144428571D01*
X166750000Y-144357142D01*
X166607142Y-144357142D01*
X167392857Y-142571428D02*
X165464285Y-143857142D01*
X167392857Y-141000000D02*
X165464285Y-142285714D01*
X166821428Y-140642857D02*
X165821428Y-140357142D01*
X166535714Y-140071428D01*
X165821428Y-139785714D01*
X166821428Y-139500000D01*
X165892857Y-138357142D02*
X165821428Y-138500000D01*
X165821428Y-138785714D01*
X165892857Y-138928571D01*
X166035714Y-139000000D01*
X166607142Y-139000000D01*
X166750000Y-138928571D01*
X166821428Y-138785714D01*
X166821428Y-138500000D01*
X166750000Y-138357142D01*
X166607142Y-138285714D01*
X166464285Y-138285714D01*
X166321428Y-139000000D01*
X165821428Y-137642857D02*
X166821428Y-137642857D01*
X166678571Y-137642857D02*
X166750000Y-137571428D01*
X166821428Y-137428571D01*
X166821428Y-137214285D01*
X166750000Y-137071428D01*
X166607142Y-137000000D01*
X165821428Y-137000000D01*
X166607142Y-137000000D02*
X166750000Y-136928571D01*
X166821428Y-136785714D01*
X166821428Y-136571428D01*
X166750000Y-136428571D01*
X166607142Y-136357142D01*
X165821428Y-136357142D01*
X165821428Y-135000000D02*
X166607142Y-135000000D01*
X166750000Y-135071428D01*
X166821428Y-135214285D01*
X166821428Y-135500000D01*
X166750000Y-135642857D01*
X165892857Y-135000000D02*
X165821428Y-135142857D01*
X165821428Y-135500000D01*
X165892857Y-135642857D01*
X166035714Y-135714285D01*
X166178571Y-135714285D01*
X166321428Y-135642857D01*
X166392857Y-135500000D01*
X166392857Y-135142857D01*
X166464285Y-135000000D01*
X165821428Y-134285714D02*
X167321428Y-134285714D01*
X166392857Y-134142857D02*
X165821428Y-133714285D01*
X166821428Y-133714285D02*
X166250000Y-134285714D01*
X165892857Y-132500000D02*
X165821428Y-132642857D01*
X165821428Y-132928571D01*
X165892857Y-133071428D01*
X166035714Y-133142857D01*
X166607142Y-133142857D01*
X166750000Y-133071428D01*
X166821428Y-132928571D01*
X166821428Y-132642857D01*
X166750000Y-132500000D01*
X166607142Y-132428571D01*
X166464285Y-132428571D01*
X166321428Y-133142857D01*
X166821428Y-132000000D02*
X166821428Y-131428571D01*
X167321428Y-131785714D02*
X166035714Y-131785714D01*
X165892857Y-131714285D01*
X165821428Y-131571428D01*
X165821428Y-131428571D01*
X165821428Y-130928571D02*
X167321428Y-130928571D01*
X165821428Y-130285714D02*
X166607142Y-130285714D01*
X166750000Y-130357142D01*
X166821428Y-130500000D01*
X166821428Y-130714285D01*
X166750000Y-130857142D01*
X166678571Y-130928571D01*
X165821428Y-129571428D02*
X166821428Y-129571428D01*
X167321428Y-129571428D02*
X167250000Y-129642857D01*
X167178571Y-129571428D01*
X167250000Y-129500000D01*
X167321428Y-129571428D01*
X167178571Y-129571428D01*
X166821428Y-128857142D02*
X165821428Y-128857142D01*
X166678571Y-128857142D02*
X166750000Y-128785714D01*
X166821428Y-128642857D01*
X166821428Y-128428571D01*
X166750000Y-128285714D01*
X166607142Y-128214285D01*
X165821428Y-128214285D01*
X166821428Y-126857142D02*
X165607142Y-126857142D01*
X165464285Y-126928571D01*
X165392857Y-127000000D01*
X165321428Y-127142857D01*
X165321428Y-127357142D01*
X165392857Y-127500000D01*
X165892857Y-126857142D02*
X165821428Y-127000000D01*
X165821428Y-127285714D01*
X165892857Y-127428571D01*
X165964285Y-127500000D01*
X166107142Y-127571428D01*
X166535714Y-127571428D01*
X166678571Y-127500000D01*
X166750000Y-127428571D01*
X166821428Y-127285714D01*
X166821428Y-127000000D01*
X166750000Y-126857142D01*
X165892857Y-126214285D02*
X165821428Y-126071428D01*
X165821428Y-125785714D01*
X165892857Y-125642857D01*
X166035714Y-125571428D01*
X166107142Y-125571428D01*
X166250000Y-125642857D01*
X166321428Y-125785714D01*
X166321428Y-126000000D01*
X166392857Y-126142857D01*
X166535714Y-126214285D01*
X166607142Y-126214285D01*
X166750000Y-126142857D01*
X166821428Y-126000000D01*
X166821428Y-125785714D01*
X166750000Y-125642857D01*
X165964285Y-124928571D02*
X165892857Y-124857142D01*
X165821428Y-124928571D01*
X165892857Y-125000000D01*
X165964285Y-124928571D01*
X165821428Y-124928571D01*
X166821428Y-124214285D02*
X165821428Y-124214285D01*
X166678571Y-124214285D02*
X166750000Y-124142857D01*
X166821428Y-124000000D01*
X166821428Y-123785714D01*
X166750000Y-123642857D01*
X166607142Y-123571428D01*
X165821428Y-123571428D01*
X165892857Y-122285714D02*
X165821428Y-122428571D01*
X165821428Y-122714285D01*
X165892857Y-122857142D01*
X166035714Y-122928571D01*
X166607142Y-122928571D01*
X166750000Y-122857142D01*
X166821428Y-122714285D01*
X166821428Y-122428571D01*
X166750000Y-122285714D01*
X166607142Y-122214285D01*
X166464285Y-122214285D01*
X166321428Y-122928571D01*
X166821428Y-121785714D02*
X166821428Y-121214285D01*
X167321428Y-121571428D02*
X166035714Y-121571428D01*
X165892857Y-121500000D01*
X165821428Y-121357142D01*
X165821428Y-121214285D01*
X167392857Y-119642857D02*
X165464285Y-120928571D01*
X165892857Y-118500000D02*
X165821428Y-118642857D01*
X165821428Y-118928571D01*
X165892857Y-119071428D01*
X165964285Y-119142857D01*
X166107142Y-119214285D01*
X166535714Y-119214285D01*
X166678571Y-119142857D01*
X166750000Y-119071428D01*
X166821428Y-118928571D01*
X166821428Y-118642857D01*
X166750000Y-118500000D01*
X165821428Y-117857142D02*
X167321428Y-117857142D01*
X165821428Y-117214285D02*
X166607142Y-117214285D01*
X166750000Y-117285714D01*
X166821428Y-117428571D01*
X166821428Y-117642857D01*
X166750000Y-117785714D01*
X166678571Y-117857142D01*
X165821428Y-116500000D02*
X166821428Y-116500000D01*
X167321428Y-116500000D02*
X167250000Y-116571428D01*
X167178571Y-116500000D01*
X167250000Y-116428571D01*
X167321428Y-116500000D01*
X167178571Y-116500000D01*
X165821428Y-115785714D02*
X166821428Y-115785714D01*
X166535714Y-115785714D02*
X166678571Y-115714285D01*
X166750000Y-115642857D01*
X166821428Y-115500000D01*
X166821428Y-115357142D01*
X166821428Y-114857142D02*
X165321428Y-114857142D01*
X166750000Y-114857142D02*
X166821428Y-114714285D01*
X166821428Y-114428571D01*
X166750000Y-114285714D01*
X166678571Y-114214285D01*
X166535714Y-114142857D01*
X166107142Y-114142857D01*
X165964285Y-114214285D01*
X165892857Y-114285714D01*
X165821428Y-114428571D01*
X165821428Y-114714285D01*
X165892857Y-114857142D01*
X163271428Y-144000000D02*
X164271428Y-144000000D01*
X164128571Y-144000000D02*
X164200000Y-143928571D01*
X164271428Y-143785714D01*
X164271428Y-143571428D01*
X164200000Y-143428571D01*
X164057142Y-143357142D01*
X163271428Y-143357142D01*
X164057142Y-143357142D02*
X164200000Y-143285714D01*
X164271428Y-143142857D01*
X164271428Y-142928571D01*
X164200000Y-142785714D01*
X164057142Y-142714285D01*
X163271428Y-142714285D01*
X163271428Y-142000000D02*
X164271428Y-142000000D01*
X164771428Y-142000000D02*
X164700000Y-142071428D01*
X164628571Y-142000000D01*
X164700000Y-141928571D01*
X164771428Y-142000000D01*
X164628571Y-142000000D01*
X163342857Y-140642857D02*
X163271428Y-140785714D01*
X163271428Y-141071428D01*
X163342857Y-141214285D01*
X163414285Y-141285714D01*
X163557142Y-141357142D01*
X163985714Y-141357142D01*
X164128571Y-141285714D01*
X164200000Y-141214285D01*
X164271428Y-141071428D01*
X164271428Y-140785714D01*
X164200000Y-140642857D01*
X163985714Y-139071428D02*
X164057142Y-139142857D01*
X164128571Y-139285714D01*
X164128571Y-139428571D01*
X164057142Y-139571428D01*
X163985714Y-139642857D01*
X163842857Y-139714285D01*
X163700000Y-139714285D01*
X163557142Y-139642857D01*
X163485714Y-139571428D01*
X163414285Y-139428571D01*
X163414285Y-139285714D01*
X163485714Y-139142857D01*
X163557142Y-139071428D01*
X164128571Y-139071428D02*
X163557142Y-139071428D01*
X163485714Y-139000000D01*
X163485714Y-138928571D01*
X163557142Y-138785714D01*
X163700000Y-138714285D01*
X164057142Y-138714285D01*
X164271428Y-138857142D01*
X164414285Y-139071428D01*
X164485714Y-139357142D01*
X164414285Y-139642857D01*
X164271428Y-139857142D01*
X164057142Y-140000000D01*
X163771428Y-140071428D01*
X163485714Y-140000000D01*
X163271428Y-139857142D01*
X163128571Y-139642857D01*
X163057142Y-139357142D01*
X163128571Y-139071428D01*
X163271428Y-138857142D01*
X164271428Y-138214285D02*
X163271428Y-137928571D01*
X163985714Y-137642857D01*
X163271428Y-137357142D01*
X164271428Y-137071428D01*
X163342857Y-135928571D02*
X163271428Y-136071428D01*
X163271428Y-136357142D01*
X163342857Y-136500000D01*
X163485714Y-136571428D01*
X164057142Y-136571428D01*
X164200000Y-136500000D01*
X164271428Y-136357142D01*
X164271428Y-136071428D01*
X164200000Y-135928571D01*
X164057142Y-135857142D01*
X163914285Y-135857142D01*
X163771428Y-136571428D01*
X163271428Y-135214285D02*
X164271428Y-135214285D01*
X164128571Y-135214285D02*
X164200000Y-135142857D01*
X164271428Y-135000000D01*
X164271428Y-134785714D01*
X164200000Y-134642857D01*
X164057142Y-134571428D01*
X163271428Y-134571428D01*
X164057142Y-134571428D02*
X164200000Y-134500000D01*
X164271428Y-134357142D01*
X164271428Y-134142857D01*
X164200000Y-134000000D01*
X164057142Y-133928571D01*
X163271428Y-133928571D01*
X163271428Y-132571428D02*
X164057142Y-132571428D01*
X164200000Y-132642857D01*
X164271428Y-132785714D01*
X164271428Y-133071428D01*
X164200000Y-133214285D01*
X163342857Y-132571428D02*
X163271428Y-132714285D01*
X163271428Y-133071428D01*
X163342857Y-133214285D01*
X163485714Y-133285714D01*
X163628571Y-133285714D01*
X163771428Y-133214285D01*
X163842857Y-133071428D01*
X163842857Y-132714285D01*
X163914285Y-132571428D01*
X163271428Y-131857142D02*
X164771428Y-131857142D01*
X163842857Y-131714285D02*
X163271428Y-131285714D01*
X164271428Y-131285714D02*
X163700000Y-131857142D01*
X163342857Y-130071428D02*
X163271428Y-130214285D01*
X163271428Y-130500000D01*
X163342857Y-130642857D01*
X163485714Y-130714285D01*
X164057142Y-130714285D01*
X164200000Y-130642857D01*
X164271428Y-130500000D01*
X164271428Y-130214285D01*
X164200000Y-130071428D01*
X164057142Y-130000000D01*
X163914285Y-130000000D01*
X163771428Y-130714285D01*
X164271428Y-129571428D02*
X164271428Y-129000000D01*
X164771428Y-129357142D02*
X163485714Y-129357142D01*
X163342857Y-129285714D01*
X163271428Y-129142857D01*
X163271428Y-129000000D01*
X163271428Y-128500000D02*
X164771428Y-128500000D01*
X163271428Y-127857142D02*
X164057142Y-127857142D01*
X164200000Y-127928571D01*
X164271428Y-128071428D01*
X164271428Y-128285714D01*
X164200000Y-128428571D01*
X164128571Y-128500000D01*
X163271428Y-127142857D02*
X164271428Y-127142857D01*
X164771428Y-127142857D02*
X164700000Y-127214285D01*
X164628571Y-127142857D01*
X164700000Y-127071428D01*
X164771428Y-127142857D01*
X164628571Y-127142857D01*
X164271428Y-126428571D02*
X163271428Y-126428571D01*
X164128571Y-126428571D02*
X164200000Y-126357142D01*
X164271428Y-126214285D01*
X164271428Y-126000000D01*
X164200000Y-125857142D01*
X164057142Y-125785714D01*
X163271428Y-125785714D01*
X164271428Y-124428571D02*
X163057142Y-124428571D01*
X162914285Y-124500000D01*
X162842857Y-124571428D01*
X162771428Y-124714285D01*
X162771428Y-124928571D01*
X162842857Y-125071428D01*
X163342857Y-124428571D02*
X163271428Y-124571428D01*
X163271428Y-124857142D01*
X163342857Y-125000000D01*
X163414285Y-125071428D01*
X163557142Y-125142857D01*
X163985714Y-125142857D01*
X164128571Y-125071428D01*
X164200000Y-125000000D01*
X164271428Y-124857142D01*
X164271428Y-124571428D01*
X164200000Y-124428571D01*
X163342857Y-123785714D02*
X163271428Y-123642857D01*
X163271428Y-123357142D01*
X163342857Y-123214285D01*
X163485714Y-123142857D01*
X163557142Y-123142857D01*
X163700000Y-123214285D01*
X163771428Y-123357142D01*
X163771428Y-123571428D01*
X163842857Y-123714285D01*
X163985714Y-123785714D01*
X164057142Y-123785714D01*
X164200000Y-123714285D01*
X164271428Y-123571428D01*
X164271428Y-123357142D01*
X164200000Y-123214285D01*
X163414285Y-122500000D02*
X163342857Y-122428571D01*
X163271428Y-122500000D01*
X163342857Y-122571428D01*
X163414285Y-122500000D01*
X163271428Y-122500000D01*
X164271428Y-121785714D02*
X163271428Y-121785714D01*
X164128571Y-121785714D02*
X164200000Y-121714285D01*
X164271428Y-121571428D01*
X164271428Y-121357142D01*
X164200000Y-121214285D01*
X164057142Y-121142857D01*
X163271428Y-121142857D01*
X163342857Y-119857142D02*
X163271428Y-120000000D01*
X163271428Y-120285714D01*
X163342857Y-120428571D01*
X163485714Y-120500000D01*
X164057142Y-120500000D01*
X164200000Y-120428571D01*
X164271428Y-120285714D01*
X164271428Y-120000000D01*
X164200000Y-119857142D01*
X164057142Y-119785714D01*
X163914285Y-119785714D01*
X163771428Y-120500000D01*
X164271428Y-119357142D02*
X164271428Y-118785714D01*
X164771428Y-119142857D02*
X163485714Y-119142857D01*
X163342857Y-119071428D01*
X163271428Y-118928571D01*
X163271428Y-118785714D01*
D13*
X158000000Y-100000000D02*
X174000000Y-100000000D01*
%LPC*%
D14*
X145460000Y-38500000D03*
X145460000Y-35960000D03*
X148000000Y-38500000D03*
X148000000Y-35960000D03*
X150540000Y-38500000D03*
D15*
X150540000Y-35960000D03*
D14*
X127460000Y-38500000D03*
X127460000Y-35960000D03*
X130000000Y-38500000D03*
X130000000Y-35960000D03*
X132540000Y-38500000D03*
D15*
X132540000Y-35960000D03*
D14*
X91460000Y-38500000D03*
X91460000Y-35960000D03*
X94000000Y-38500000D03*
X94000000Y-35960000D03*
X96540000Y-38500000D03*
D15*
X96540000Y-35960000D03*
D16*
X97810000Y-31000000D03*
X95270000Y-31000000D03*
X92730000Y-31000000D03*
D17*
X90190000Y-31000000D03*
X108190000Y-31000000D03*
D16*
X110730000Y-31000000D03*
X113270000Y-31000000D03*
X115810000Y-31000000D03*
X133810000Y-31000000D03*
X131270000Y-31000000D03*
X128730000Y-31000000D03*
D17*
X126190000Y-31000000D03*
X144190000Y-31000000D03*
D16*
X146730000Y-31000000D03*
X149270000Y-31000000D03*
X151810000Y-31000000D03*
X169810000Y-31000000D03*
X167270000Y-31000000D03*
X164730000Y-31000000D03*
D17*
X162190000Y-31000000D03*
D14*
X109460000Y-38500000D03*
X109460000Y-35960000D03*
X112000000Y-38500000D03*
X112000000Y-35960000D03*
X114540000Y-38500000D03*
D15*
X114540000Y-35960000D03*
D14*
X163460000Y-38500000D03*
X163460000Y-35960000D03*
X166000000Y-38500000D03*
X166000000Y-35960000D03*
X168540000Y-38500000D03*
D15*
X168540000Y-35960000D03*
M02*
