G04 #@! TF.GenerationSoftware,KiCad,Pcbnew,no-vcs-found-34abef3~59~ubuntu16.04.1*
G04 #@! TF.CreationDate,2017-08-04T13:41:36+03:00*
G04 #@! TF.ProjectId,i2c-moist-sensor-pannel,6932632D6D6F6973742D73656E736F72,rev?*
G04 #@! TF.SameCoordinates,Original*
G04 #@! TF.FileFunction,Soldermask,Top*
G04 #@! TF.FilePolarity,Negative*
%FSLAX46Y46*%
G04 Gerber Fmt 4.6, Leading zero omitted, Abs format (unit mm)*
G04 Created by KiCad (PCBNEW no-vcs-found-34abef3~59~ubuntu16.04.1) date Fri Aug  4 13:41:36 2017*
%MOMM*%
%LPD*%
G01*
G04 APERTURE LIST*
%ADD10C,1.727200*%
%ADD11R,1.727200X1.727200*%
%ADD12R,0.800000X0.750000*%
%ADD13C,4.000000*%
%ADD14R,0.800000X0.800000*%
%ADD15R,1.500000X5.500000*%
%ADD16R,0.500000X0.900000*%
%ADD17R,1.500000X0.600000*%
G04 APERTURE END LIST*
D10*
X145460000Y-38500000D03*
X145460000Y-35960000D03*
X148000000Y-38500000D03*
X148000000Y-35960000D03*
X150540000Y-38500000D03*
D11*
X150540000Y-35960000D03*
D10*
X127460000Y-38500000D03*
X127460000Y-35960000D03*
X130000000Y-38500000D03*
X130000000Y-35960000D03*
X132540000Y-38500000D03*
D11*
X132540000Y-35960000D03*
D10*
X91460000Y-38500000D03*
X91460000Y-35960000D03*
X94000000Y-38500000D03*
X94000000Y-35960000D03*
X96540000Y-38500000D03*
D11*
X96540000Y-35960000D03*
D12*
X90960000Y-65642000D03*
X92460000Y-65642000D03*
X93754000Y-65642000D03*
X95254000Y-65642000D03*
D13*
X177500000Y-167500000D03*
X82500000Y-167500000D03*
X82500000Y-26000000D03*
X177500000Y-167500000D03*
X82500000Y-167500000D03*
X82500000Y-26000000D03*
D14*
X99225000Y-45500000D03*
X97575000Y-45500000D03*
D15*
X88000000Y-47750000D03*
X88000000Y-56250000D03*
D12*
X89150000Y-60700000D03*
X87650000Y-60700000D03*
X89450000Y-43600000D03*
X87950000Y-43600000D03*
X94150000Y-47200000D03*
X92650000Y-47200000D03*
X90960000Y-64118000D03*
X92460000Y-64118000D03*
X95254000Y-64118000D03*
X93754000Y-64118000D03*
X92550000Y-43600000D03*
X94050000Y-43600000D03*
D16*
X92700000Y-45300000D03*
X94200000Y-45300000D03*
X96778000Y-58784000D03*
X95278000Y-58784000D03*
X89250000Y-65750000D03*
X87750000Y-65750000D03*
X90960000Y-60562000D03*
X92460000Y-60562000D03*
X95254000Y-60562000D03*
X93754000Y-60562000D03*
X92460000Y-62340000D03*
X90960000Y-62340000D03*
X93754000Y-62340000D03*
X95254000Y-62340000D03*
X97700000Y-47200000D03*
X99200000Y-47200000D03*
X98250000Y-60500000D03*
X96750000Y-60500000D03*
D17*
X98500000Y-48990000D03*
X98500000Y-50260000D03*
X98500000Y-51530000D03*
X98500000Y-52800000D03*
X98500000Y-54070000D03*
X98500000Y-55340000D03*
X98500000Y-56610000D03*
X93100000Y-56610000D03*
X93100000Y-55340000D03*
X93100000Y-54070000D03*
X93100000Y-52800000D03*
X93100000Y-51530000D03*
X93100000Y-50260000D03*
X93100000Y-48990000D03*
D14*
X117225000Y-45500000D03*
X115575000Y-45500000D03*
D15*
X106000000Y-47750000D03*
X106000000Y-56250000D03*
D12*
X111754000Y-65642000D03*
X113254000Y-65642000D03*
X108960000Y-65642000D03*
X110460000Y-65642000D03*
D10*
X109460000Y-38500000D03*
X109460000Y-35960000D03*
X112000000Y-38500000D03*
X112000000Y-35960000D03*
X114540000Y-38500000D03*
D11*
X114540000Y-35960000D03*
D12*
X107150000Y-60700000D03*
X105650000Y-60700000D03*
X106950000Y-43600000D03*
X105450000Y-43600000D03*
X112150000Y-47200000D03*
X110650000Y-47200000D03*
X108960000Y-64118000D03*
X110460000Y-64118000D03*
X113254000Y-64118000D03*
X111754000Y-64118000D03*
X110550000Y-43600000D03*
X112050000Y-43600000D03*
D16*
X110700000Y-45300000D03*
X112200000Y-45300000D03*
X114778000Y-58784000D03*
X113278000Y-58784000D03*
X107250000Y-65750000D03*
X105750000Y-65750000D03*
X108960000Y-60562000D03*
X110460000Y-60562000D03*
X113254000Y-60562000D03*
X111754000Y-60562000D03*
X110460000Y-62340000D03*
X108960000Y-62340000D03*
X111754000Y-62340000D03*
X113254000Y-62340000D03*
X115700000Y-47200000D03*
X117200000Y-47200000D03*
X116250000Y-60500000D03*
X114750000Y-60500000D03*
D17*
X116500000Y-48990000D03*
X116500000Y-50260000D03*
X116500000Y-51530000D03*
X116500000Y-52800000D03*
X116500000Y-54070000D03*
X116500000Y-55340000D03*
X116500000Y-56610000D03*
X111100000Y-56610000D03*
X111100000Y-55340000D03*
X111100000Y-54070000D03*
X111100000Y-52800000D03*
X111100000Y-51530000D03*
X111100000Y-50260000D03*
X111100000Y-48990000D03*
D14*
X135225000Y-45500000D03*
X133575000Y-45500000D03*
D15*
X124000000Y-47750000D03*
X124000000Y-56250000D03*
D12*
X129754000Y-65642000D03*
X131254000Y-65642000D03*
X126960000Y-65642000D03*
X128460000Y-65642000D03*
X125150000Y-60700000D03*
X123650000Y-60700000D03*
X124950000Y-43600000D03*
X123450000Y-43600000D03*
X130150000Y-47200000D03*
X128650000Y-47200000D03*
X126960000Y-64118000D03*
X128460000Y-64118000D03*
X131254000Y-64118000D03*
X129754000Y-64118000D03*
X128550000Y-43600000D03*
X130050000Y-43600000D03*
D16*
X128700000Y-45300000D03*
X130200000Y-45300000D03*
X132778000Y-58784000D03*
X131278000Y-58784000D03*
X125250000Y-65750000D03*
X123750000Y-65750000D03*
X126960000Y-60562000D03*
X128460000Y-60562000D03*
X131254000Y-60562000D03*
X129754000Y-60562000D03*
X128460000Y-62340000D03*
X126960000Y-62340000D03*
X129754000Y-62340000D03*
X131254000Y-62340000D03*
X133700000Y-47200000D03*
X135200000Y-47200000D03*
X134250000Y-60500000D03*
X132750000Y-60500000D03*
D17*
X134500000Y-48990000D03*
X134500000Y-50260000D03*
X134500000Y-51530000D03*
X134500000Y-52800000D03*
X134500000Y-54070000D03*
X134500000Y-55340000D03*
X134500000Y-56610000D03*
X129100000Y-56610000D03*
X129100000Y-55340000D03*
X129100000Y-54070000D03*
X129100000Y-52800000D03*
X129100000Y-51530000D03*
X129100000Y-50260000D03*
X129100000Y-48990000D03*
D14*
X153225000Y-45500000D03*
X151575000Y-45500000D03*
D15*
X142000000Y-47750000D03*
X142000000Y-56250000D03*
D12*
X147754000Y-65642000D03*
X149254000Y-65642000D03*
X144960000Y-65642000D03*
X146460000Y-65642000D03*
X143150000Y-60700000D03*
X141650000Y-60700000D03*
X142950000Y-43600000D03*
X141450000Y-43600000D03*
X148150000Y-47200000D03*
X146650000Y-47200000D03*
X144960000Y-64118000D03*
X146460000Y-64118000D03*
X149254000Y-64118000D03*
X147754000Y-64118000D03*
X146550000Y-43600000D03*
X148050000Y-43600000D03*
D16*
X146700000Y-45300000D03*
X148200000Y-45300000D03*
X150778000Y-58784000D03*
X149278000Y-58784000D03*
X143250000Y-65750000D03*
X141750000Y-65750000D03*
X144960000Y-60562000D03*
X146460000Y-60562000D03*
X149254000Y-60562000D03*
X147754000Y-60562000D03*
X146460000Y-62340000D03*
X144960000Y-62340000D03*
X147754000Y-62340000D03*
X149254000Y-62340000D03*
X151700000Y-47200000D03*
X153200000Y-47200000D03*
X152250000Y-60500000D03*
X150750000Y-60500000D03*
D17*
X152500000Y-48990000D03*
X152500000Y-50260000D03*
X152500000Y-51530000D03*
X152500000Y-52800000D03*
X152500000Y-54070000D03*
X152500000Y-55340000D03*
X152500000Y-56610000D03*
X147100000Y-56610000D03*
X147100000Y-55340000D03*
X147100000Y-54070000D03*
X147100000Y-52800000D03*
X147100000Y-51530000D03*
X147100000Y-50260000D03*
X147100000Y-48990000D03*
D14*
X171225000Y-45500000D03*
X169575000Y-45500000D03*
D15*
X160000000Y-47750000D03*
X160000000Y-56250000D03*
D12*
X165754000Y-65642000D03*
X167254000Y-65642000D03*
X162960000Y-65642000D03*
X164460000Y-65642000D03*
D10*
X163460000Y-38500000D03*
X163460000Y-35960000D03*
X166000000Y-38500000D03*
X166000000Y-35960000D03*
X168540000Y-38500000D03*
D11*
X168540000Y-35960000D03*
D12*
X161150000Y-60700000D03*
X159650000Y-60700000D03*
X160950000Y-43600000D03*
X159450000Y-43600000D03*
X166150000Y-47200000D03*
X164650000Y-47200000D03*
X162960000Y-64118000D03*
X164460000Y-64118000D03*
X167254000Y-64118000D03*
X165754000Y-64118000D03*
X164550000Y-43600000D03*
X166050000Y-43600000D03*
D16*
X164700000Y-45300000D03*
X166200000Y-45300000D03*
X168778000Y-58784000D03*
X167278000Y-58784000D03*
X161250000Y-65750000D03*
X159750000Y-65750000D03*
X162960000Y-60562000D03*
X164460000Y-60562000D03*
X167254000Y-60562000D03*
X165754000Y-60562000D03*
X164460000Y-62340000D03*
X162960000Y-62340000D03*
X165754000Y-62340000D03*
X167254000Y-62340000D03*
X169700000Y-47200000D03*
X171200000Y-47200000D03*
X170250000Y-60500000D03*
X168750000Y-60500000D03*
D17*
X170500000Y-48990000D03*
X170500000Y-50260000D03*
X170500000Y-51530000D03*
X170500000Y-52800000D03*
X170500000Y-54070000D03*
X170500000Y-55340000D03*
X170500000Y-56610000D03*
X165100000Y-56610000D03*
X165100000Y-55340000D03*
X165100000Y-54070000D03*
X165100000Y-52800000D03*
X165100000Y-51530000D03*
X165100000Y-50260000D03*
X165100000Y-48990000D03*
M02*
