G04 #@! TF.GenerationSoftware,KiCad,Pcbnew,no-vcs-found-34abef3~59~ubuntu16.04.1*
G04 #@! TF.CreationDate,2017-08-04T13:41:36+03:00*
G04 #@! TF.ProjectId,i2c-moist-sensor-pannel,6932632D6D6F6973742D73656E736F72,rev?*
G04 #@! TF.SameCoordinates,Original*
G04 #@! TF.FileFunction,Profile,NP*
%FSLAX46Y46*%
G04 Gerber Fmt 4.6, Leading zero omitted, Abs format (unit mm)*
G04 Created by KiCad (PCBNEW no-vcs-found-34abef3~59~ubuntu16.04.1) date Fri Aug  4 13:41:36 2017*
%MOMM*%
%LPD*%
G01*
G04 APERTURE LIST*
%ADD10C,0.100000*%
%ADD11C,1.000000*%
G04 APERTURE END LIST*
D10*
X175000000Y-159000000D02*
X175000000Y-172000000D01*
X175000000Y-159000000D02*
X175000000Y-30000000D01*
D11*
X175000000Y-30000000D02*
X171500000Y-22500000D01*
D10*
X171500000Y-22500000D02*
X171500000Y-22000000D01*
X160500000Y-22500000D02*
X160500000Y-22000000D01*
X153500000Y-22500000D02*
X153500000Y-22000000D01*
X142500000Y-22500000D02*
X142500000Y-22000000D01*
X135500000Y-22500000D02*
X135500000Y-22000000D01*
X124500000Y-22000000D02*
X124500000Y-22500000D01*
X117500000Y-22500000D02*
X117500000Y-22000000D01*
X106500000Y-22500000D02*
X106500000Y-22000000D01*
X99500000Y-22500000D02*
X99500000Y-22000000D01*
X88500000Y-22500000D02*
X88500000Y-22000000D01*
X175000000Y-30000000D02*
X175000000Y-22000000D01*
X85000000Y-30000000D02*
X85000000Y-22000000D01*
D11*
X85000000Y-30000000D02*
X88500000Y-22500000D01*
X103000000Y-30000000D02*
X99500000Y-22500000D01*
X103000000Y-30000000D02*
X106500000Y-22500000D01*
X121000000Y-30000000D02*
X117500000Y-22500000D01*
X121000000Y-30000000D02*
X124500000Y-22500000D01*
X139000000Y-30000000D02*
X135500000Y-22500000D01*
X139000000Y-30000000D02*
X142500000Y-22500000D01*
X157000000Y-30000000D02*
X153500000Y-22500000D01*
X157000000Y-30000000D02*
X160500000Y-22500000D01*
D10*
X175000000Y-22000000D02*
X180000000Y-22000000D01*
X160500000Y-22000000D02*
X171500000Y-22000000D01*
X142500000Y-22000000D02*
X153500000Y-22000000D01*
X124500000Y-22000000D02*
X135500000Y-22000000D01*
X106500000Y-22000000D02*
X117500000Y-22000000D01*
X88500000Y-22000000D02*
X99500000Y-22000000D01*
X85000000Y-22000000D02*
X80000000Y-22000000D01*
X85000000Y-30000000D02*
X85000000Y-172000000D01*
X103000000Y-159000000D02*
X103000000Y-30000000D01*
D11*
X94000000Y-171500000D02*
X85000000Y-159000000D01*
D10*
X121000000Y-30000000D02*
X121000000Y-159500000D01*
D11*
X112000000Y-171500000D02*
X103000000Y-159000000D01*
D10*
X139000000Y-30000000D02*
X139000000Y-159000000D01*
X80000000Y-172000000D02*
X85000000Y-172000000D01*
X80000000Y-22000000D02*
X80000000Y-172000000D01*
X180000000Y-172000000D02*
X180000000Y-22000000D01*
X175000000Y-172000000D02*
X180000000Y-172000000D01*
D11*
X103000000Y-159000000D02*
X94000000Y-171500000D01*
X121000000Y-159000000D02*
X112000000Y-171500000D01*
X130000000Y-171500000D02*
X121000000Y-159000000D01*
X139000000Y-159000000D02*
X130000000Y-171500000D01*
X148000000Y-171500000D02*
X139000000Y-159000000D01*
X157000000Y-159000000D02*
X148000000Y-171500000D01*
X166000000Y-171500000D02*
X157000000Y-159000000D01*
X166000000Y-171500000D02*
X175000000Y-159000000D01*
D10*
X157000000Y-159000000D02*
X157000000Y-30000000D01*
M02*
