G04 #@! TF.FileFunction,Soldermask,Top*
%FSLAX46Y46*%
G04 Gerber Fmt 4.6, Leading zero omitted, Abs format (unit mm)*
G04 Created by KiCad (PCBNEW (2015-05-18 BZR 5668)-product) date Fri 05 Jun 2015 08:01:52 AM EEST*
%MOMM*%
G01*
G04 APERTURE LIST*
%ADD10C,0.100000*%
%ADD11C,4.000000*%
%ADD12R,0.797560X0.797560*%
%ADD13R,2.100580X5.600700*%
%ADD14R,1.727200X1.727200*%
%ADD15C,1.727200*%
%ADD16R,0.600000X0.700000*%
%ADD17R,0.800000X0.750000*%
%ADD18R,0.500000X0.900000*%
%ADD19R,1.500000X0.600000*%
G04 APERTURE END LIST*
D10*
D11*
X177500000Y-167500000D03*
X82500000Y-167500000D03*
X82500000Y-26000000D03*
D12*
X169650700Y-45500000D03*
X171149300Y-45500000D03*
D13*
X160000000Y-56848860D03*
X160000000Y-47151140D03*
D14*
X168540000Y-34460000D03*
D15*
X168540000Y-37000000D03*
X166000000Y-34460000D03*
X166000000Y-37000000D03*
X163460000Y-34460000D03*
X163460000Y-37000000D03*
D16*
X164410000Y-65642000D03*
X163010000Y-65642000D03*
X167204000Y-65642000D03*
X165804000Y-65642000D03*
D17*
X159650000Y-60700000D03*
X161150000Y-60700000D03*
X159450000Y-43000000D03*
X160950000Y-43000000D03*
X164650000Y-47200000D03*
X166150000Y-47200000D03*
X164460000Y-64118000D03*
X162960000Y-64118000D03*
X165754000Y-64118000D03*
X167254000Y-64118000D03*
X166050000Y-43600000D03*
X164550000Y-43600000D03*
D18*
X166200000Y-45300000D03*
X164700000Y-45300000D03*
X167278000Y-58784000D03*
X168778000Y-58784000D03*
X166050000Y-104000000D03*
X164550000Y-104000000D03*
X164460000Y-60562000D03*
X162960000Y-60562000D03*
X165754000Y-60562000D03*
X167254000Y-60562000D03*
X162960000Y-62340000D03*
X164460000Y-62340000D03*
X167254000Y-62340000D03*
X165754000Y-62340000D03*
X171200000Y-47200000D03*
X169700000Y-47200000D03*
X166750000Y-162000000D03*
X165250000Y-162000000D03*
D19*
X165100000Y-48990000D03*
X165100000Y-50260000D03*
X165100000Y-51530000D03*
X165100000Y-52800000D03*
X165100000Y-54070000D03*
X165100000Y-55340000D03*
X165100000Y-56610000D03*
X170500000Y-56610000D03*
X170500000Y-55340000D03*
X170500000Y-54070000D03*
X170500000Y-52800000D03*
X170500000Y-51530000D03*
X170500000Y-50260000D03*
X170500000Y-48990000D03*
D11*
X177500000Y-167500000D03*
X82500000Y-167500000D03*
X82500000Y-26000000D03*
D12*
X169650700Y-45500000D03*
X171149300Y-45500000D03*
D13*
X160000000Y-56848860D03*
X160000000Y-47151140D03*
D14*
X168540000Y-34460000D03*
D15*
X168540000Y-37000000D03*
X166000000Y-34460000D03*
X166000000Y-37000000D03*
X163460000Y-34460000D03*
X163460000Y-37000000D03*
D16*
X164410000Y-65642000D03*
X163010000Y-65642000D03*
X167204000Y-65642000D03*
X165804000Y-65642000D03*
D17*
X159650000Y-60700000D03*
X161150000Y-60700000D03*
X159450000Y-43000000D03*
X160950000Y-43000000D03*
X164650000Y-47200000D03*
X166150000Y-47200000D03*
X164460000Y-64118000D03*
X162960000Y-64118000D03*
X165754000Y-64118000D03*
X167254000Y-64118000D03*
X166050000Y-43600000D03*
X164550000Y-43600000D03*
D18*
X166200000Y-45300000D03*
X164700000Y-45300000D03*
X167278000Y-58784000D03*
X168778000Y-58784000D03*
X166050000Y-104000000D03*
X164550000Y-104000000D03*
X164460000Y-60562000D03*
X162960000Y-60562000D03*
X165754000Y-60562000D03*
X167254000Y-60562000D03*
X162960000Y-62340000D03*
X164460000Y-62340000D03*
X167254000Y-62340000D03*
X165754000Y-62340000D03*
X171200000Y-47200000D03*
X169700000Y-47200000D03*
X166750000Y-162000000D03*
X165250000Y-162000000D03*
D19*
X165100000Y-48990000D03*
X165100000Y-50260000D03*
X165100000Y-51530000D03*
X165100000Y-52800000D03*
X165100000Y-54070000D03*
X165100000Y-55340000D03*
X165100000Y-56610000D03*
X170500000Y-56610000D03*
X170500000Y-55340000D03*
X170500000Y-54070000D03*
X170500000Y-52800000D03*
X170500000Y-51530000D03*
X170500000Y-50260000D03*
X170500000Y-48990000D03*
D12*
X151650700Y-45500000D03*
X153149300Y-45500000D03*
D13*
X142000000Y-56848860D03*
X142000000Y-47151140D03*
D14*
X150540000Y-34460000D03*
D15*
X150540000Y-37000000D03*
X148000000Y-34460000D03*
X148000000Y-37000000D03*
X145460000Y-34460000D03*
X145460000Y-37000000D03*
D16*
X146410000Y-65642000D03*
X145010000Y-65642000D03*
X149204000Y-65642000D03*
X147804000Y-65642000D03*
D17*
X141650000Y-60700000D03*
X143150000Y-60700000D03*
X141450000Y-43000000D03*
X142950000Y-43000000D03*
X146650000Y-47200000D03*
X148150000Y-47200000D03*
X146460000Y-64118000D03*
X144960000Y-64118000D03*
X147754000Y-64118000D03*
X149254000Y-64118000D03*
X148050000Y-43600000D03*
X146550000Y-43600000D03*
D18*
X148200000Y-45300000D03*
X146700000Y-45300000D03*
X149278000Y-58784000D03*
X150778000Y-58784000D03*
X148050000Y-104000000D03*
X146550000Y-104000000D03*
X146460000Y-60562000D03*
X144960000Y-60562000D03*
X147754000Y-60562000D03*
X149254000Y-60562000D03*
X144960000Y-62340000D03*
X146460000Y-62340000D03*
X149254000Y-62340000D03*
X147754000Y-62340000D03*
X153200000Y-47200000D03*
X151700000Y-47200000D03*
X148750000Y-162000000D03*
X147250000Y-162000000D03*
D19*
X147100000Y-48990000D03*
X147100000Y-50260000D03*
X147100000Y-51530000D03*
X147100000Y-52800000D03*
X147100000Y-54070000D03*
X147100000Y-55340000D03*
X147100000Y-56610000D03*
X152500000Y-56610000D03*
X152500000Y-55340000D03*
X152500000Y-54070000D03*
X152500000Y-52800000D03*
X152500000Y-51530000D03*
X152500000Y-50260000D03*
X152500000Y-48990000D03*
D12*
X115650700Y-45500000D03*
X117149300Y-45500000D03*
D13*
X106000000Y-56848860D03*
X106000000Y-47151140D03*
D14*
X114540000Y-34460000D03*
D15*
X114540000Y-37000000D03*
X112000000Y-34460000D03*
X112000000Y-37000000D03*
X109460000Y-34460000D03*
X109460000Y-37000000D03*
D16*
X110410000Y-65642000D03*
X109010000Y-65642000D03*
X113204000Y-65642000D03*
X111804000Y-65642000D03*
D17*
X105650000Y-60700000D03*
X107150000Y-60700000D03*
X105450000Y-43000000D03*
X106950000Y-43000000D03*
X110650000Y-47200000D03*
X112150000Y-47200000D03*
X110460000Y-64118000D03*
X108960000Y-64118000D03*
X111754000Y-64118000D03*
X113254000Y-64118000D03*
X112050000Y-43600000D03*
X110550000Y-43600000D03*
D18*
X112200000Y-45300000D03*
X110700000Y-45300000D03*
X113278000Y-58784000D03*
X114778000Y-58784000D03*
X112050000Y-104000000D03*
X110550000Y-104000000D03*
X110460000Y-60562000D03*
X108960000Y-60562000D03*
X111754000Y-60562000D03*
X113254000Y-60562000D03*
X108960000Y-62340000D03*
X110460000Y-62340000D03*
X113254000Y-62340000D03*
X111754000Y-62340000D03*
X117200000Y-47200000D03*
X115700000Y-47200000D03*
X112750000Y-162000000D03*
X111250000Y-162000000D03*
D19*
X111100000Y-48990000D03*
X111100000Y-50260000D03*
X111100000Y-51530000D03*
X111100000Y-52800000D03*
X111100000Y-54070000D03*
X111100000Y-55340000D03*
X111100000Y-56610000D03*
X116500000Y-56610000D03*
X116500000Y-55340000D03*
X116500000Y-54070000D03*
X116500000Y-52800000D03*
X116500000Y-51530000D03*
X116500000Y-50260000D03*
X116500000Y-48990000D03*
D12*
X97650700Y-45500000D03*
X99149300Y-45500000D03*
D13*
X88000000Y-56848860D03*
X88000000Y-47151140D03*
D14*
X96540000Y-34460000D03*
D15*
X96540000Y-37000000D03*
X94000000Y-34460000D03*
X94000000Y-37000000D03*
X91460000Y-34460000D03*
X91460000Y-37000000D03*
D16*
X92410000Y-65642000D03*
X91010000Y-65642000D03*
X95204000Y-65642000D03*
X93804000Y-65642000D03*
D17*
X87650000Y-60700000D03*
X89150000Y-60700000D03*
X87450000Y-43000000D03*
X88950000Y-43000000D03*
X92650000Y-47200000D03*
X94150000Y-47200000D03*
X92460000Y-64118000D03*
X90960000Y-64118000D03*
X93754000Y-64118000D03*
X95254000Y-64118000D03*
X94050000Y-43600000D03*
X92550000Y-43600000D03*
D18*
X94200000Y-45300000D03*
X92700000Y-45300000D03*
X95278000Y-58784000D03*
X96778000Y-58784000D03*
X94050000Y-104000000D03*
X92550000Y-104000000D03*
X92460000Y-60562000D03*
X90960000Y-60562000D03*
X93754000Y-60562000D03*
X95254000Y-60562000D03*
X90960000Y-62340000D03*
X92460000Y-62340000D03*
X95254000Y-62340000D03*
X93754000Y-62340000D03*
X99200000Y-47200000D03*
X97700000Y-47200000D03*
X94750000Y-162000000D03*
X93250000Y-162000000D03*
D19*
X93100000Y-48990000D03*
X93100000Y-50260000D03*
X93100000Y-51530000D03*
X93100000Y-52800000D03*
X93100000Y-54070000D03*
X93100000Y-55340000D03*
X93100000Y-56610000D03*
X98500000Y-56610000D03*
X98500000Y-55340000D03*
X98500000Y-54070000D03*
X98500000Y-52800000D03*
X98500000Y-51530000D03*
X98500000Y-50260000D03*
X98500000Y-48990000D03*
D12*
X133650700Y-45500000D03*
X135149300Y-45500000D03*
D13*
X124000000Y-56848860D03*
X124000000Y-47151140D03*
D14*
X132540000Y-34460000D03*
D15*
X132540000Y-37000000D03*
X130000000Y-34460000D03*
X130000000Y-37000000D03*
X127460000Y-34460000D03*
X127460000Y-37000000D03*
D16*
X128410000Y-65642000D03*
X127010000Y-65642000D03*
X131204000Y-65642000D03*
X129804000Y-65642000D03*
D17*
X123650000Y-60700000D03*
X125150000Y-60700000D03*
X123450000Y-43000000D03*
X124950000Y-43000000D03*
X128650000Y-47200000D03*
X130150000Y-47200000D03*
X128460000Y-64118000D03*
X126960000Y-64118000D03*
X129754000Y-64118000D03*
X131254000Y-64118000D03*
X130050000Y-43600000D03*
X128550000Y-43600000D03*
D18*
X130200000Y-45300000D03*
X128700000Y-45300000D03*
X131278000Y-58784000D03*
X132778000Y-58784000D03*
X130050000Y-104000000D03*
X128550000Y-104000000D03*
X128460000Y-60562000D03*
X126960000Y-60562000D03*
X129754000Y-60562000D03*
X131254000Y-60562000D03*
X126960000Y-62340000D03*
X128460000Y-62340000D03*
X131254000Y-62340000D03*
X129754000Y-62340000D03*
X135200000Y-47200000D03*
X133700000Y-47200000D03*
X130750000Y-162000000D03*
X129250000Y-162000000D03*
D19*
X129100000Y-48990000D03*
X129100000Y-50260000D03*
X129100000Y-51530000D03*
X129100000Y-52800000D03*
X129100000Y-54070000D03*
X129100000Y-55340000D03*
X129100000Y-56610000D03*
X134500000Y-56610000D03*
X134500000Y-55340000D03*
X134500000Y-54070000D03*
X134500000Y-52800000D03*
X134500000Y-51530000D03*
X134500000Y-50260000D03*
X134500000Y-48990000D03*
M02*
